<svg width="197" height="98" viewBox="0 0 197 98" fill="none" xmlns="http://www.w3.org/2000/svg">
<rect x="2.39302" y="34.3765" width="186.756" height="63.0449" transform="rotate(-7.37065 2.39302 34.3765)" fill="#3A001E" stroke="white"/>
<path d="M47.3369 46.0023L49.9417 66.1385C50.1387 67.6619 50.6212 68.6481 51.3892 69.0973C52.1572 69.5465 53.3663 69.6643 55.0165 69.4509L55.1459 70.4505C54.507 70.5009 53.5667 70.5903 52.3249 70.7187C51.1108 70.8112 49.8531 70.9416 48.552 71.1099C47.0921 71.2988 45.684 71.5132 44.3276 71.7532C42.9988 71.9573 41.9715 72.1225 41.2457 72.2486L41.1164 71.249C42.7031 71.0437 43.908 70.6297 44.7309 70.007C45.5497 69.3525 45.8585 68.2478 45.6574 66.6928L44.1672 55.1727C43.9701 53.6494 43.6657 52.5433 43.254 51.8545C42.8422 51.1656 42.2094 50.7635 41.3555 50.6481C40.5334 50.5285 39.4083 50.5611 37.9802 50.7459L37.8447 49.6986C40.1214 49.3396 41.9989 48.887 43.477 48.3408C44.9552 47.7947 46.2418 47.0152 47.3369 46.0023ZM68.0136 41.4401C68.2476 43.249 68.4462 44.6592 68.6093 45.6706C68.7724 46.682 68.937 47.5803 69.1031 48.3655C68.841 48.3349 68.3429 48.3509 67.6089 48.4136C66.9066 48.4722 66.0953 48.561 65.175 48.68C64.2505 48.7674 63.344 48.8685 62.4554 48.9834L57.4095 49.6362L58.0267 58.8975C58.6797 58.4581 59.4162 58.0402 60.2361 57.6437C61.0519 57.2155 62.1104 56.9173 63.4115 56.7489C65.3474 56.4985 66.9752 56.6106 68.295 57.0852C69.6148 57.5598 70.648 58.3135 71.3947 59.3463C72.1414 60.379 72.605 61.5936 72.7856 62.9899C73.0237 64.8306 72.7791 66.5562 72.0517 68.1669C71.3243 69.7775 70.2508 71.207 68.8313 72.4554C67.4475 73.7315 65.8723 74.7742 64.1055 75.5836C62.3387 76.3929 60.5192 76.9187 58.6468 77.1609L58.5359 76.304C59.9323 76.1234 61.2661 75.7088 62.5374 75.0604C63.8129 74.4437 64.9147 73.6074 65.8429 72.5516C66.807 71.5234 67.5202 70.3019 67.9824 68.8869C68.4447 67.4719 68.5589 65.8599 68.3249 64.051C68.0663 62.0516 67.3415 60.5643 66.1505 59.589C64.9872 58.5779 63.4376 58.1976 61.5017 58.448C60.6766 58.5547 59.9887 58.7244 59.438 58.957C58.9149 59.1537 58.3365 59.4221 57.7029 59.7622L57.1899 59.5381L56.2594 45.2353C56.6167 45.2537 57.0195 45.2499 57.4679 45.2242C57.9481 45.1944 58.4103 45.1507 58.8546 45.0932L64.2338 44.3974C65.5349 44.2291 66.3375 43.9478 66.6414 43.5536C66.9413 43.1276 67.0972 42.4621 67.1092 41.5571L68.0136 41.4401ZM86.6121 40.7766C88.8653 40.4852 90.9165 40.7522 92.7657 41.5778C94.6425 42.3676 96.1939 43.635 97.4199 45.3802C98.646 47.1253 99.4232 49.2673 99.7516 51.8061C100.08 54.345 99.8678 56.6956 99.115 58.8581C98.3581 60.9888 97.1511 62.7582 95.4941 64.1664C93.8647 65.5388 91.844 66.381 89.4321 66.693C87.2424 66.9763 85.2091 66.723 83.3322 65.9333C81.4513 65.1118 79.882 63.8305 78.6242 62.0895C77.3941 60.3126 76.6149 58.1547 76.2864 55.6159C75.9621 53.1088 76.1626 50.7919 76.8877 48.6653C77.6446 46.5346 78.8516 44.7652 80.5087 43.3569C82.1657 41.9487 84.2002 41.0886 86.6121 40.7766ZM86.2945 41.6889C84.2634 41.9516 82.721 43.2482 81.6673 45.5787C80.6452 47.905 80.3847 51.004 80.8855 54.8758C81.255 57.732 81.8858 59.9897 82.778 61.649C83.6662 63.2765 84.7169 64.4151 85.9303 65.0648C87.1754 65.7104 88.4485 65.949 89.7497 65.7807C91.8125 65.5139 93.3549 64.2173 94.3769 61.891C95.3948 59.5329 95.6534 56.418 95.1525 52.5462C94.7831 49.69 94.1543 47.4482 93.2661 45.8207C92.3739 44.1614 91.3232 43.0228 90.1139 42.4048C88.9005 41.7551 87.6274 41.5165 86.2945 41.6889ZM115.155 37.0844C117.409 36.7929 119.46 37.0599 121.309 37.8855C123.186 38.6753 124.737 39.9427 125.963 41.6879C127.189 43.433 127.967 45.575 128.295 48.1139C128.623 50.6527 128.411 53.0033 127.658 55.1658C126.902 57.2965 125.695 59.066 124.038 60.4742C122.408 61.8465 120.387 62.6887 117.976 63.0007C115.786 63.284 113.753 63.0307 111.876 62.241C109.995 61.4195 108.425 60.1382 107.168 58.3972C105.938 56.6203 105.158 54.4625 104.83 51.9236C104.506 49.4165 104.706 47.0997 105.431 44.973C106.188 42.8423 107.395 41.0729 109.052 39.6647C110.709 38.2565 112.744 37.3963 115.155 37.0844ZM114.838 37.9966C112.807 38.2594 111.264 39.556 110.211 41.8864C109.189 44.2127 108.928 47.3118 109.429 51.1835C109.798 54.0397 110.429 56.2974 111.321 57.9567C112.21 59.5842 113.26 60.7228 114.474 61.3725C115.719 62.0181 116.992 62.2568 118.293 62.0884C120.356 61.8216 121.898 60.525 122.92 58.1987C123.938 55.8406 124.197 52.7257 123.696 48.854C123.326 45.9978 122.698 43.7559 121.81 42.1284C120.917 40.4692 119.867 39.3305 118.657 38.7126C117.444 38.0629 116.171 37.8242 114.838 37.9966ZM155.759 45.4324L155.882 46.3845L137.079 48.8168L136.956 47.8647L155.759 45.4324ZM156.375 50.1927L156.498 51.1448L137.695 53.5771L137.572 52.6251L156.375 50.1927ZM156.875 27.8641L157.004 28.8638C156.481 29.0605 156.028 29.4256 155.645 29.9592C155.263 30.4927 154.839 31.3379 154.376 32.4949L146.983 50.9236L146.174 51.0283L133.214 34.6516C132.404 33.6271 131.774 32.9987 131.324 32.7664C130.903 32.4983 130.497 32.3572 130.108 32.343L129.979 31.3433C130.744 31.2765 131.433 31.2358 132.044 31.2213C132.683 31.1709 133.399 31.0944 134.192 30.9918C135.24 30.8563 136.285 30.705 137.328 30.5378C138.403 30.3665 139.571 30.167 140.832 29.9393L140.962 30.939C140.168 31.0416 139.447 31.1995 138.796 31.4126C138.178 31.6217 137.823 31.9904 137.73 32.5187C137.668 33.0428 138.063 33.8469 138.913 34.9308L147.94 46.3471L147.399 46.659L152.213 34.8559C152.751 33.5279 152.973 32.499 152.879 31.769C152.812 31.0033 152.47 30.4828 151.854 30.2076C151.265 29.8966 150.411 29.7811 149.292 29.8614L149.163 28.8617C149.838 28.8389 150.542 28.7962 151.276 28.7336C152.01 28.6709 152.663 28.6026 153.234 28.5287C153.805 28.4548 154.469 28.3527 155.227 28.2225C155.985 28.0922 156.534 27.9728 156.875 27.8641ZM148.473 45.6006L149.446 53.1219C149.593 54.2644 149.799 55.1089 150.064 55.6555C150.328 56.2021 150.742 56.5358 151.306 56.6564C151.902 56.7729 152.744 56.7931 153.831 56.717L153.954 57.6691C153.474 57.6989 152.901 57.7569 152.234 57.8431C151.564 57.8976 150.848 57.9741 150.086 58.0726C149.352 58.1353 148.62 58.2139 147.89 58.3083C147.065 58.415 146.274 58.5335 145.516 58.6638C144.754 58.7623 144.058 58.8685 143.428 58.9823C142.793 59.0644 142.255 59.1501 141.815 59.2393L141.692 58.2872C142.763 58.0842 143.556 57.8526 144.071 57.5924C144.617 57.3281 144.949 56.898 145.065 56.3021C145.182 55.7062 145.166 54.8371 145.018 53.6946L144.002 45.84L146.955 48.4589L148.473 45.6006Z" fill="white"/>
</svg>
