<svg width="140" height="75" viewBox="0 0 140 75" fill="none" xmlns="http://www.w3.org/2000/svg">
<rect x="4.25098" y="2.91553" width="135.121" height="64.0449" transform="rotate(3.04017 4.25098 2.91553)" fill="white"/>
<path d="M31.4126 27.1528C31.3158 28.9742 31.2563 30.3971 31.2339 31.4213C31.2116 32.4456 31.2111 33.3588 31.2326 34.1611C30.9804 34.0836 30.4876 34.0094 29.7543 33.9384C29.053 33.8691 28.239 33.8098 27.3123 33.7606C26.3873 33.6794 25.4775 33.6151 24.5827 33.5676L19.5019 33.2977L18.4354 42.5181C19.1571 42.204 19.9569 41.926 20.835 41.6842C21.7147 41.4105 22.8097 41.3084 24.1198 41.378C26.0691 41.4815 27.6499 41.886 28.8622 42.5912C30.0745 43.2965 30.9545 44.2245 31.5022 45.3752C32.05 46.5258 32.2865 47.8042 32.2118 49.2102C32.1134 51.0636 31.561 52.7166 30.5545 54.1693C29.548 55.622 28.2339 56.834 26.6121 57.8053C25.0206 58.8103 23.2828 59.5512 21.3989 60.028C19.515 60.5047 17.6303 60.693 15.745 60.5929L15.7908 59.7301C17.1968 59.8048 18.5836 59.6381 19.9512 59.2301C21.317 58.854 22.5518 58.2306 23.6556 57.3599C24.7896 56.5229 25.7117 55.4503 26.4221 54.1421C27.1325 52.8339 27.5361 51.2691 27.6328 49.4477C27.7397 47.4345 27.2956 45.8407 26.3005 44.6663C25.3391 43.4616 23.8837 42.8075 21.9344 42.704C21.1036 42.6599 20.3964 42.7024 19.8127 42.8316C19.2627 42.9306 18.6453 43.0901 17.9607 43.3101L17.4967 42.997L19.166 28.7615C19.5141 28.8441 19.911 28.9133 20.3567 28.969C20.8343 29.0264 21.2968 29.067 21.7442 29.0907L27.1605 29.3784C28.4707 29.448 29.3108 29.3164 29.681 28.9835C30.0529 28.6187 30.3265 27.9924 30.5018 27.1044L31.4126 27.1528ZM40.1883 49.2974C41.0191 49.3415 41.722 49.6833 42.2969 50.3226C42.8718 50.962 43.1372 51.6971 43.0931 52.528C43.0489 53.3588 42.7072 54.0617 42.0678 54.6366C41.4284 55.2115 40.6933 55.4769 39.8625 55.4327C39.0316 55.3886 38.3288 55.0468 37.7539 54.4075C37.179 53.7681 36.9136 53.033 36.9577 52.2021C37.0018 51.3713 37.3436 50.6684 37.983 50.0935C38.6224 49.5186 39.3575 49.2532 40.1883 49.2974ZM61.9014 30.5025C64.1702 30.623 66.1394 31.2563 67.809 32.4025C69.5122 33.5184 70.809 35.0453 71.6995 36.9833C72.59 38.9212 72.9673 41.1684 72.8316 43.7248C72.6958 46.2812 72.0623 48.5548 70.9311 50.5456C69.8017 52.5045 68.2948 54.0267 66.4106 55.1123C64.56 56.1676 62.4204 56.6308 59.9918 56.5018C57.787 56.3847 55.8329 55.7682 54.1297 54.6523C52.4282 53.5044 51.1162 51.9607 50.1938 50.021C49.305 48.0511 48.9285 45.788 49.0643 43.2316C49.1983 40.7071 49.8141 38.4646 50.9117 36.5041C52.0411 34.5452 53.548 33.023 55.4322 31.9374C57.3165 30.8518 59.4729 30.3735 61.9014 30.5025ZM61.4242 31.3424C59.3791 31.2338 57.6278 32.2303 56.1703 34.3319C54.7447 36.4353 53.9284 39.4362 53.7213 43.3347C53.5686 46.2107 53.7811 48.5452 54.3588 50.3384C54.9382 52.0996 55.7659 53.4093 56.8419 54.2676C57.9499 55.1276 59.1589 55.5924 60.4691 55.6619C62.5461 55.7723 64.2974 54.7757 65.723 52.6724C67.1503 50.5371 67.9674 47.5202 68.1745 43.6217C68.3272 40.7457 68.1139 38.4271 67.5345 36.6659C66.9568 34.8728 66.1291 33.563 65.0514 32.7367C63.9754 31.8784 62.7663 31.4137 61.4242 31.3424ZM90.6422 32.0289C92.911 32.1494 94.8802 32.7828 96.5497 33.9289C98.2529 35.0448 99.5498 36.5718 100.44 38.5097C101.331 40.4477 101.708 42.6948 101.572 45.2512C101.437 47.8076 100.803 50.0812 99.6719 52.0721C98.5424 54.0309 97.0355 55.5531 95.1513 56.6387C93.3007 57.6941 91.1612 58.1572 88.7326 58.0283C86.5277 57.9112 84.5736 57.2947 82.8704 56.1788C81.1689 55.0309 79.8569 53.4871 78.9345 51.5475C78.0457 49.5776 77.6692 47.3144 77.805 44.758C77.9391 42.2336 78.5549 39.9911 79.6524 38.0305C80.7819 36.0717 82.2887 34.5495 84.173 33.4639C86.0572 32.3783 88.2136 31.9 90.6422 32.0289ZM90.165 32.8688C88.1198 32.7602 86.3685 33.7567 84.911 35.8584C83.4855 37.9617 82.6691 40.9627 82.4621 44.8612C82.3093 47.7371 82.5218 50.0717 83.0995 51.8648C83.6789 53.626 84.5067 54.9358 85.5826 55.7941C86.6906 56.654 87.8996 57.1188 89.2098 57.1884C91.2869 57.2987 93.0382 56.3022 94.4637 54.1988C95.891 52.0635 96.7082 49.0466 96.9152 45.1481C97.068 42.2722 96.8546 39.9536 96.2752 38.1924C95.6975 36.3992 94.8698 35.0895 93.7921 34.2631C92.7161 33.4049 91.5071 32.9401 90.165 32.8688ZM117.079 28.9627C118.677 29.0476 119.881 29.3038 120.692 29.7314C121.504 30.127 122.217 30.5655 122.833 31.0468C123.204 31.2909 123.499 31.4828 123.716 31.6225C123.966 31.7319 124.203 31.7926 124.427 31.8044C124.746 31.8214 124.979 31.6575 125.126 31.3128C125.306 30.9378 125.462 30.4174 125.593 29.7514L126.696 29.81C126.638 30.2876 126.56 30.8602 126.46 31.5279C126.393 32.1973 126.313 33.0903 126.222 34.207C126.163 35.3254 126.085 36.7954 125.988 38.6168L124.885 38.5583C124.862 37.1791 124.596 35.8511 124.087 34.5743C123.578 33.2975 122.786 32.23 121.71 31.3717C120.668 30.4832 119.252 29.9914 117.462 29.8964C115.769 29.8064 114.339 30.1791 113.173 31.0145C112.039 31.8515 111.435 32.957 111.362 34.3311C111.298 35.5454 111.596 36.5706 112.257 37.4069C112.917 38.2431 113.806 39.0113 114.922 39.7115C116.039 40.4117 117.247 41.1809 118.549 42.0191C119.759 42.7563 120.875 43.4725 121.896 44.1676C122.948 44.8644 123.838 45.6006 124.566 46.3763C125.326 47.1537 125.907 47.9857 126.308 48.8722C126.71 49.7588 126.881 50.7613 126.822 51.8797C126.726 53.6692 126.199 55.1473 125.24 56.3141C124.281 57.4808 123.034 58.3279 121.5 58.8553C119.998 59.3844 118.352 59.6014 116.563 59.5063C115.444 59.4469 114.475 59.2993 113.654 59.0635C112.864 58.8612 112.188 58.6171 111.626 58.3309C111.066 58.0127 110.554 57.6971 110.09 57.3841C109.72 57.1081 109.41 56.9153 109.159 56.8059C108.909 56.6965 108.688 56.6366 108.496 56.6265C108.176 56.6095 107.927 56.7725 107.749 57.1155C107.603 57.4602 107.463 57.9816 107.329 58.6795L106.227 58.6209C106.323 58.0172 106.393 57.2999 106.437 56.4691C106.515 55.608 106.59 54.5064 106.661 53.1643C106.764 51.8239 106.87 50.1311 106.979 48.086L108.081 48.1445C108.116 49.9088 108.38 51.5732 108.874 53.1376C109.401 54.6717 110.247 55.9344 111.412 56.9255C112.611 57.8865 114.233 58.4212 116.278 58.5299C117.237 58.5808 118.173 58.4542 119.086 58.1503C120.033 57.816 120.815 57.2647 121.433 56.4964C122.051 55.7281 122.393 54.7048 122.461 53.4266C122.521 52.3082 122.236 51.3317 121.608 50.4972C121.013 49.6324 120.159 48.818 119.045 48.0539C117.964 47.2915 116.693 46.4869 115.232 45.6403C114.175 45.0393 113.183 44.4098 112.256 43.7518C111.33 43.0937 110.502 42.3928 109.772 41.6491C109.075 40.907 108.526 40.0767 108.126 39.1582C107.76 38.2095 107.608 37.1439 107.671 35.9616C107.759 34.3 108.247 32.948 109.136 31.9056C110.058 30.833 111.221 30.0616 112.624 29.5913C114.028 29.0891 115.513 28.8796 117.079 28.9627ZM116.488 24.7014L114.421 63.6226L113.463 63.5716L115.53 24.6505L116.488 24.7014ZM120.515 24.9153L118.448 63.8364L117.489 63.7855L119.556 24.8643L120.515 24.9153Z" fill="black"/>
</svg>
