<svg width="314" height="104" viewBox="0 0 314 104" fill="none" xmlns="http://www.w3.org/2000/svg">
<rect x="3.00586" y="2.69287" width="307.991" height="97.8682" fill="#3A001E" stroke="white" stroke-width="5"/>
<path d="M33.7407 40.1057C34.3594 40.1271 35.1701 40.1484 36.1727 40.1697C37.1967 40.1911 38.2207 40.2017 39.2447 40.2017C40.3114 40.2017 41.3354 40.1911 42.3167 40.1697C43.2981 40.1484 43.9914 40.1377 44.3967 40.1377C47.3194 40.1377 49.4954 40.6071 50.9247 41.5457C52.3541 42.4844 53.0687 43.6897 53.0687 45.1617C53.0687 45.9084 52.8021 46.6871 52.2687 47.4977C51.7354 48.2871 50.9247 48.9911 49.8367 49.6097C48.7487 50.2071 47.3621 50.6124 45.6767 50.8257V50.8897C47.8741 50.9964 49.6341 51.3377 50.9567 51.9137C52.2794 52.4897 53.2394 53.1937 53.8367 54.0257C54.4341 54.8364 54.7327 55.6791 54.7327 56.5537C54.7327 57.9831 54.3487 59.1564 53.5807 60.0737C52.8127 60.9911 51.7034 61.6737 50.2527 62.1217C48.8234 62.5484 47.1167 62.7617 45.1327 62.7617C44.6207 62.7617 43.8634 62.7511 42.8607 62.7297C41.8794 62.6871 40.6954 62.6657 39.3087 62.6657C38.2421 62.6657 37.1967 62.6764 36.1727 62.6977C35.1701 62.6977 34.3594 62.7191 33.7407 62.7617V62.1217C34.4021 62.0791 34.8927 61.9937 35.2127 61.8657C35.5327 61.7377 35.7461 61.4817 35.8527 61.0977C35.9594 60.7137 36.0127 60.1377 36.0127 59.3697V43.4977C36.0127 42.7084 35.9594 42.1324 35.8527 41.7697C35.7461 41.3857 35.5221 41.1297 35.1807 41.0017C34.8607 40.8524 34.3807 40.7671 33.7407 40.7457V40.1057ZM44.2367 40.7457C43.5114 40.7457 43.0421 40.9271 42.8287 41.2897C42.6154 41.6524 42.5087 42.3884 42.5087 43.4977V59.3697C42.5087 60.1164 42.5621 60.6817 42.6687 61.0657C42.7754 61.4497 42.9781 61.7057 43.2767 61.8337C43.5754 61.9617 44.0127 62.0257 44.5887 62.0257C45.7834 62.0257 46.6474 61.5457 47.1807 60.5857C47.7354 59.6044 48.0127 58.2177 48.0127 56.4257C48.0127 54.7831 47.6181 53.5137 46.8287 52.6177C46.0607 51.7217 44.7701 51.2737 42.9567 51.2737H40.6207C40.6207 51.2737 40.6207 51.1884 40.6207 51.0177C40.6207 50.8257 40.6207 50.7297 40.6207 50.7297H43.3727C44.2047 50.7297 44.8447 50.4951 45.2927 50.0257C45.7407 49.5351 46.0501 48.8951 46.2207 48.1057C46.3914 47.2951 46.4767 46.4311 46.4767 45.5137C46.4767 43.9351 46.3061 42.7511 45.9647 41.9617C45.6234 41.1511 45.0474 40.7457 44.2367 40.7457ZM74.16 40.1057C74.0746 41.1724 74.0106 42.2071 73.968 43.2097C73.9466 44.1911 73.936 44.9484 73.936 45.4817C73.936 45.9297 73.9466 46.3564 73.968 46.7617C73.9893 47.1671 74.0106 47.5084 74.032 47.7857H73.296C73.04 46.0151 72.6133 44.6284 72.016 43.6257C71.4186 42.6017 70.7146 41.8871 69.904 41.4817C69.1146 41.0551 68.2826 40.8417 67.408 40.8417H66.992C66.4373 40.8417 66.0213 40.8951 65.744 41.0017C65.4666 41.0871 65.2746 41.2684 65.168 41.5457C65.0826 41.8231 65.04 42.2604 65.04 42.8577V60.0097C65.04 60.5857 65.0826 61.0231 65.168 61.3217C65.2746 61.5991 65.4666 61.7911 65.744 61.8977C66.0213 61.9831 66.4373 62.0257 66.992 62.0257H68.048C68.752 62.0257 69.488 61.8017 70.256 61.3537C71.0453 60.8844 71.7706 60.0951 72.432 58.9857C73.0933 57.8764 73.5946 56.3617 73.936 54.4417H74.672C74.608 55.2097 74.576 56.1911 74.576 57.3857C74.576 57.9191 74.5866 58.6871 74.608 59.6897C74.6293 60.6711 74.6933 61.6951 74.8 62.7617C73.712 62.7191 72.4853 62.6977 71.12 62.6977C69.7546 62.6764 68.5386 62.6657 67.472 62.6657C66.896 62.6657 66.16 62.6657 65.264 62.6657C64.3893 62.6657 63.4293 62.6764 62.384 62.6977C61.36 62.6977 60.3146 62.7084 59.248 62.7297C58.2026 62.7297 57.2106 62.7404 56.272 62.7617V62.1217C56.9333 62.0791 57.424 61.9937 57.744 61.8657C58.064 61.7377 58.2773 61.4817 58.384 61.0977C58.4906 60.7137 58.544 60.1377 58.544 59.3697V43.4977C58.544 42.7084 58.4906 42.1324 58.384 41.7697C58.2773 41.3857 58.0533 41.1297 57.712 41.0017C57.392 40.8524 56.912 40.7671 56.272 40.7457V40.1057C57.2106 40.1271 58.2026 40.1484 59.248 40.1697C60.3146 40.1697 61.36 40.1804 62.384 40.2017C63.4293 40.2017 64.3893 40.2017 65.264 40.2017C66.16 40.2017 66.896 40.2017 67.472 40.2017C68.4533 40.2017 69.5626 40.2017 70.8 40.2017C72.0586 40.1804 73.1786 40.1484 74.16 40.1057ZM69.52 51.0497C69.52 51.0497 69.52 51.1564 69.52 51.3697C69.52 51.5831 69.52 51.6897 69.52 51.6897H64.08C64.08 51.6897 64.08 51.5831 64.08 51.3697C64.08 51.1564 64.08 51.0497 64.08 51.0497H69.52ZM70.448 46.8257C70.3626 48.0417 70.32 48.9697 70.32 49.6097C70.3413 50.2497 70.352 50.8364 70.352 51.3697C70.352 51.9031 70.3626 52.4897 70.384 53.1297C70.4053 53.7697 70.4586 54.6977 70.544 55.9137H69.808C69.68 55.1244 69.4133 54.4097 69.008 53.7697C68.624 53.1297 68.1226 52.6284 67.504 52.2657C66.8853 51.8817 66.1706 51.6897 65.36 51.6897V51.0497C65.9573 51.0497 66.5013 50.9217 66.992 50.6657C67.4826 50.4097 67.9093 50.0684 68.272 49.6417C68.656 49.2151 68.9653 48.7564 69.2 48.2657C69.456 47.7751 69.6266 47.2951 69.712 46.8257H70.448ZM85.8525 39.6577C87.2391 39.6577 88.3165 39.7964 89.0845 40.0737C89.8525 40.3511 90.5031 40.6391 91.0365 40.9377C91.2925 41.0871 91.4951 41.2044 91.6445 41.2897C91.8151 41.3537 91.9751 41.3857 92.1245 41.3857C92.3378 41.3857 92.4871 41.2684 92.5725 41.0337C92.6791 40.7991 92.7645 40.4471 92.8285 39.9777H93.5645C93.5431 40.4257 93.5111 40.9484 93.4685 41.5457C93.4471 42.1431 93.4258 42.9324 93.4045 43.9137C93.4045 44.8951 93.4045 46.1857 93.4045 47.7857H92.6685C92.5831 46.6124 92.3058 45.4711 91.8365 44.3617C91.3885 43.2524 90.7591 42.3351 89.9485 41.6097C89.1591 40.8844 88.2098 40.5217 87.1005 40.5217C86.1618 40.5217 85.3831 40.7777 84.7645 41.2897C84.1458 41.8017 83.8365 42.5377 83.8365 43.4977C83.8365 44.2871 84.0285 44.9697 84.4125 45.5457C84.7965 46.1004 85.3938 46.6871 86.2045 47.3057C87.0365 47.9244 88.1245 48.7031 89.4685 49.6417C90.4285 50.3031 91.2925 50.9644 92.0605 51.6257C92.8498 52.2871 93.4791 53.0337 93.9485 53.8657C94.4178 54.6977 94.6525 55.7004 94.6525 56.8737C94.6525 58.3031 94.2471 59.4871 93.4365 60.4257C92.6471 61.3644 91.5911 62.0684 90.2685 62.5377C88.9458 62.9857 87.5058 63.2097 85.9485 63.2097C84.4978 63.2097 83.3351 63.0817 82.4605 62.8257C81.6071 62.5697 80.8818 62.3031 80.2845 62.0257C79.8151 61.7271 79.4525 61.5777 79.1965 61.5777C78.9831 61.5777 78.8231 61.6951 78.7165 61.9297C78.6311 62.1644 78.5565 62.5164 78.4925 62.9857H77.7565C77.7991 62.4311 77.8205 61.7911 77.8205 61.0657C77.8418 60.3191 77.8525 59.3591 77.8525 58.1857C77.8738 57.0124 77.8845 55.5191 77.8845 53.7057H78.6205C78.7058 55.1991 78.9405 56.5964 79.3245 57.8977C79.7298 59.1991 80.3378 60.2551 81.1485 61.0657C81.9805 61.8551 83.0791 62.2497 84.4445 62.2497C85.2338 62.2497 85.9058 62.1324 86.4605 61.8977C87.0365 61.6417 87.4845 61.2791 87.8045 60.8097C88.1245 60.3404 88.2845 59.7751 88.2845 59.1137C88.2845 58.2177 88.0818 57.4391 87.6765 56.7777C87.2711 56.0951 86.7165 55.4657 86.0125 54.8897C85.3298 54.2924 84.5298 53.6951 83.6125 53.0977C82.6098 52.4151 81.6711 51.7324 80.7965 51.0497C79.9218 50.3671 79.2178 49.5991 78.6845 48.7457C78.1725 47.8924 77.9165 46.8791 77.9165 45.7057C77.9165 44.2977 78.2898 43.1564 79.0365 42.2817C79.7831 41.3857 80.7645 40.7244 81.9805 40.2977C83.1965 39.8711 84.4871 39.6577 85.8525 39.6577ZM117.445 40.1057C117.36 41.3644 117.296 42.5804 117.253 43.7537C117.232 44.9271 117.221 45.8231 117.221 46.4417C117.221 46.8897 117.232 47.3164 117.253 47.7217C117.275 48.1271 117.296 48.4684 117.317 48.7457H116.581C116.091 46.7404 115.493 45.1617 114.789 44.0097C114.107 42.8577 113.371 42.0471 112.581 41.5777C111.813 41.0871 111.045 40.8417 110.277 40.8417H110.245V59.1457C110.245 60.0204 110.331 60.6711 110.501 61.0977C110.693 61.5244 111.045 61.8017 111.557 61.9297C112.069 62.0577 112.816 62.1217 113.797 62.1217V62.7617C113.051 62.7404 112.037 62.7191 110.757 62.6977C109.499 62.6764 108.176 62.6657 106.789 62.6657C105.467 62.6657 104.219 62.6764 103.045 62.6977C101.872 62.7191 100.923 62.7404 100.197 62.7617V62.1217C101.179 62.1217 101.925 62.0577 102.437 61.9297C102.949 61.8017 103.291 61.5244 103.461 61.0977C103.653 60.6711 103.749 60.0204 103.749 59.1457V40.8417H103.717C102.949 40.8417 102.171 41.0871 101.381 41.5777C100.613 42.0471 99.8881 42.8577 99.2055 44.0097C98.5228 45.1404 97.9255 46.7191 97.4135 48.7457H96.6775C96.7201 48.4684 96.7415 48.1271 96.7415 47.7217C96.7628 47.3164 96.7735 46.8897 96.7735 46.4417C96.7735 45.8231 96.7521 44.9271 96.7095 43.7537C96.6881 42.5804 96.6348 41.3644 96.5495 40.1057C97.5735 40.1271 98.7041 40.1484 99.9415 40.1697C101.179 40.1911 102.416 40.2017 103.653 40.2017C104.891 40.2017 106.011 40.2017 107.013 40.2017C108.016 40.2017 109.136 40.2017 110.373 40.2017C111.611 40.2017 112.848 40.1911 114.085 40.1697C115.323 40.1484 116.443 40.1271 117.445 40.1057ZM125.459 40.1057C126.078 40.1271 126.889 40.1484 127.891 40.1697C128.915 40.1911 129.939 40.2017 130.963 40.2017C132.03 40.2017 133.054 40.1911 134.035 40.1697C135.017 40.1484 135.71 40.1377 136.115 40.1377C139.358 40.1377 141.769 40.7244 143.347 41.8977C144.947 43.0711 145.747 44.5857 145.747 46.4417C145.747 47.2097 145.587 48.0204 145.267 48.8737C144.947 49.7057 144.403 50.4844 143.635 51.2097C142.867 51.9137 141.811 52.4897 140.467 52.9377C139.145 53.3857 137.459 53.6097 135.411 53.6097H132.019V52.9697H135.091C136.179 52.9697 137.001 52.6817 137.555 52.1057C138.131 51.5297 138.515 50.7724 138.707 49.8337C138.921 48.8951 139.027 47.8817 139.027 46.7937C139.027 44.7671 138.793 43.2524 138.323 42.2497C137.875 41.2471 137.086 40.7457 135.955 40.7457C135.23 40.7457 134.761 40.9271 134.547 41.2897C134.334 41.6524 134.227 42.3884 134.227 43.4977V59.0497C134.227 59.9244 134.313 60.5751 134.483 61.0017C134.675 61.4284 135.027 61.7057 135.539 61.8337C136.051 61.9617 136.798 62.0257 137.779 62.0257V62.7617C137.054 62.7404 136.105 62.7191 134.931 62.6977C133.758 62.6764 132.51 62.6657 131.187 62.6657C130.206 62.6657 129.225 62.6764 128.243 62.6977C127.262 62.7191 126.334 62.7404 125.459 62.7617V62.1217C126.121 62.0791 126.611 61.9937 126.931 61.8657C127.251 61.7377 127.465 61.4817 127.571 61.0977C127.678 60.7137 127.731 60.1377 127.731 59.3697V43.4977C127.731 42.7084 127.678 42.1324 127.571 41.7697C127.465 41.3857 127.241 41.1297 126.899 41.0017C126.579 40.8524 126.099 40.7671 125.459 40.7457V40.1057ZM168.043 40.1057V40.7457C167.403 40.8737 166.912 41.0977 166.571 41.4177C166.251 41.7377 166.038 42.2391 165.931 42.9217C165.824 43.5831 165.771 44.5217 165.771 45.7377V53.4497C165.771 54.7724 165.675 56.0204 165.483 57.1937C165.312 58.3671 164.971 59.3804 164.459 60.2337C163.904 61.1511 163.072 61.8764 161.963 62.4097C160.875 62.9431 159.414 63.2097 157.579 63.2097C156.598 63.2097 155.563 63.1031 154.475 62.8897C153.387 62.6764 152.416 62.2711 151.563 61.6737C150.838 61.1404 150.283 60.4897 149.899 59.7217C149.515 58.9537 149.259 58.0577 149.131 57.0337C149.003 56.0097 148.939 54.8471 148.939 53.5457V43.4977C148.939 42.7084 148.886 42.1324 148.779 41.7697C148.672 41.3857 148.459 41.1297 148.139 41.0017C147.819 40.8524 147.328 40.7671 146.667 40.7457V40.1057C147.286 40.1271 148.096 40.1484 149.099 40.1697C150.123 40.1911 151.19 40.2017 152.299 40.2017C153.408 40.2017 154.475 40.1911 155.499 40.1697C156.523 40.1484 157.366 40.1271 158.027 40.1057V40.7457C157.302 40.7671 156.747 40.8524 156.363 41.0017C156 41.1297 155.755 41.3857 155.627 41.7697C155.499 42.1324 155.435 42.7084 155.435 43.4977V56.5537C155.435 57.5991 155.52 58.4844 155.691 59.2097C155.862 59.9137 156.107 60.4791 156.427 60.9057C156.768 61.3324 157.184 61.6417 157.675 61.8337C158.187 62.0044 158.774 62.0897 159.435 62.0897C160.864 62.0897 161.984 61.7484 162.795 61.0657C163.606 60.3617 164.182 59.3911 164.523 58.1537C164.864 56.8951 165.035 55.4444 165.035 53.8017V46.3777C165.035 44.9484 164.971 43.8604 164.843 43.1137C164.736 42.3457 164.459 41.7911 164.011 41.4497C163.563 41.1084 162.827 40.8737 161.803 40.7457V40.1057C162.23 40.1271 162.784 40.1484 163.467 40.1697C164.15 40.1911 164.79 40.2017 165.387 40.2017C165.878 40.2017 166.358 40.1911 166.827 40.1697C167.318 40.1484 167.723 40.1271 168.043 40.1057ZM198.422 40.1057V40.7457C197.782 40.7671 197.292 40.8524 196.95 41.0017C196.63 41.1297 196.417 41.3857 196.31 41.7697C196.204 42.1324 196.15 42.7084 196.15 43.4977V59.3697C196.15 60.1377 196.204 60.7137 196.31 61.0977C196.438 61.4817 196.662 61.7377 196.982 61.8657C197.302 61.9937 197.782 62.0791 198.422 62.1217V62.7617C197.761 62.7191 196.918 62.6977 195.894 62.6977C194.87 62.6764 193.825 62.6657 192.758 62.6657C191.606 62.6657 190.518 62.6764 189.494 62.6977C188.492 62.6977 187.681 62.7191 187.062 62.7617V62.1217C187.788 62.0791 188.332 61.9937 188.694 61.8657C189.078 61.7377 189.334 61.4817 189.462 61.0977C189.59 60.7137 189.654 60.1377 189.654 59.3697V42.2497L189.974 42.1857L181.942 62.7297H181.43L172.406 42.1857V56.4897C172.406 57.9191 172.46 59.0177 172.566 59.7857C172.694 60.5324 172.982 61.0764 173.43 61.4177C173.9 61.7377 174.636 61.9724 175.638 62.1217V62.7617C175.212 62.7191 174.657 62.6977 173.974 62.6977C173.292 62.6764 172.652 62.6657 172.054 62.6657C171.585 62.6657 171.105 62.6764 170.614 62.6977C170.124 62.6977 169.718 62.7191 169.398 62.7617V62.1217C170.06 61.9724 170.55 61.7484 170.87 61.4497C171.19 61.1297 171.404 60.6284 171.51 59.9457C171.617 59.2631 171.67 58.3244 171.67 57.1297V43.4977C171.67 42.7084 171.617 42.1324 171.51 41.7697C171.404 41.3857 171.18 41.1297 170.838 41.0017C170.518 40.8524 170.038 40.7671 169.398 40.7457V40.1057C169.718 40.1271 170.124 40.1484 170.614 40.1697C171.105 40.1911 171.585 40.2017 172.054 40.2017C173.292 40.2017 174.476 40.1911 175.606 40.1697C176.737 40.1484 177.761 40.1271 178.678 40.1057L185.014 54.3777L184.054 55.4337L189.974 40.2017C190.401 40.2017 190.86 40.2017 191.35 40.2017C191.841 40.2017 192.31 40.2017 192.758 40.2017C193.825 40.2017 194.87 40.1911 195.894 40.1697C196.918 40.1484 197.761 40.1271 198.422 40.1057ZM200.209 40.1057C200.828 40.1271 201.639 40.1484 202.641 40.1697C203.665 40.1911 204.689 40.2017 205.713 40.2017C206.78 40.2017 207.804 40.1911 208.785 40.1697C209.767 40.1484 210.46 40.1377 210.865 40.1377C214.108 40.1377 216.519 40.7244 218.097 41.8977C219.697 43.0711 220.497 44.5857 220.497 46.4417C220.497 47.2097 220.337 48.0204 220.017 48.8737C219.697 49.7057 219.153 50.4844 218.385 51.2097C217.617 51.9137 216.561 52.4897 215.217 52.9377C213.895 53.3857 212.209 53.6097 210.161 53.6097H206.769V52.9697H209.841C210.929 52.9697 211.751 52.6817 212.305 52.1057C212.881 51.5297 213.265 50.7724 213.457 49.8337C213.671 48.8951 213.777 47.8817 213.777 46.7937C213.777 44.7671 213.543 43.2524 213.073 42.2497C212.625 41.2471 211.836 40.7457 210.705 40.7457C209.98 40.7457 209.511 40.9271 209.297 41.2897C209.084 41.6524 208.977 42.3884 208.977 43.4977V59.0497C208.977 59.9244 209.063 60.5751 209.233 61.0017C209.425 61.4284 209.777 61.7057 210.289 61.8337C210.801 61.9617 211.548 62.0257 212.529 62.0257V62.7617C211.804 62.7404 210.855 62.7191 209.681 62.6977C208.508 62.6764 207.26 62.6657 205.937 62.6657C204.956 62.6657 203.975 62.6764 202.993 62.6977C202.012 62.7191 201.084 62.7404 200.209 62.7617V62.1217C200.871 62.0791 201.361 61.9937 201.681 61.8657C202.001 61.7377 202.215 61.4817 202.321 61.0977C202.428 60.7137 202.481 60.1377 202.481 59.3697V43.4977C202.481 42.7084 202.428 42.1324 202.321 41.7697C202.215 41.3857 201.991 41.1297 201.649 41.0017C201.329 40.8524 200.849 40.7671 200.209 40.7457V40.1057ZM244.399 40.1057V40.7137C243.674 40.9057 242.863 41.2577 241.967 41.7697C241.092 42.2817 240.154 43.1031 239.151 44.2337L233.263 50.9217L235.855 47.5297L243.439 60.1697C243.716 60.6177 243.994 60.9911 244.271 61.2897C244.548 61.5884 244.922 61.8657 245.391 62.1217V62.7617C244.495 62.7191 243.535 62.6977 242.511 62.6977C241.508 62.6764 240.548 62.6657 239.631 62.6657C239.14 62.6657 238.532 62.6764 237.807 62.6977C237.082 62.6977 236.164 62.7191 235.055 62.7617V62.1217C236.058 62.0791 236.634 61.9617 236.783 61.7697C236.954 61.5777 236.879 61.2151 236.559 60.6817L231.919 52.8417C231.706 52.4577 231.514 52.1697 231.343 51.9777C231.172 51.7857 231.002 51.6471 230.831 51.5617C230.682 51.4764 230.479 51.4231 230.223 51.4017V50.7297C231.162 50.6871 232.047 50.3777 232.879 49.8017C233.711 49.2044 234.714 48.2444 235.887 46.9217L236.975 45.7057C237.871 44.7031 238.34 43.8391 238.383 43.1137C238.447 42.3671 238.223 41.7911 237.711 41.3857C237.22 40.9591 236.57 40.7351 235.759 40.7137V40.1057C236.356 40.1271 236.911 40.1484 237.423 40.1697C237.956 40.1697 238.511 40.1804 239.087 40.2017C239.684 40.2017 240.378 40.2017 241.167 40.2017C241.85 40.2017 242.447 40.1911 242.959 40.1697C243.492 40.1484 243.972 40.1271 244.399 40.1057ZM232.687 40.1057V40.7457C232.047 40.7671 231.556 40.8524 231.215 41.0017C230.895 41.1297 230.682 41.3857 230.575 41.7697C230.468 42.1324 230.415 42.7084 230.415 43.4977V59.3697C230.415 60.1377 230.468 60.7137 230.575 61.0977C230.703 61.4817 230.927 61.7377 231.247 61.8657C231.567 61.9937 232.047 62.0791 232.687 62.1217V62.7617C232.068 62.7191 231.268 62.6977 230.287 62.6977C229.327 62.6764 228.346 62.6657 227.343 62.6657C226.191 62.6657 225.103 62.6764 224.079 62.6977C223.076 62.6977 222.266 62.7191 221.647 62.7617V62.1217C222.308 62.0791 222.799 61.9937 223.119 61.8657C223.439 61.7377 223.652 61.4817 223.759 61.0977C223.866 60.7137 223.919 60.1377 223.919 59.3697V43.4977C223.919 42.7084 223.866 42.1324 223.759 41.7697C223.652 41.3857 223.428 41.1297 223.087 41.0017C222.767 40.8524 222.287 40.7671 221.647 40.7457V40.1057C222.266 40.1271 223.076 40.1484 224.079 40.1697C225.103 40.1911 226.191 40.2017 227.343 40.2017C228.346 40.2017 229.327 40.1911 230.287 40.1697C231.268 40.1484 232.068 40.1271 232.687 40.1057ZM256.812 40.1057V40.7457C256.172 40.7671 255.681 40.8524 255.34 41.0017C255.02 41.1297 254.807 41.3857 254.7 41.7697C254.593 42.1324 254.54 42.7084 254.54 43.4977V59.3697C254.54 60.1377 254.593 60.7137 254.7 61.0977C254.828 61.4817 255.052 61.7377 255.372 61.8657C255.692 61.9937 256.172 62.0791 256.812 62.1217V62.7617C256.193 62.7191 255.393 62.6977 254.412 62.6977C253.452 62.6764 252.471 62.6657 251.468 62.6657C250.316 62.6657 249.228 62.6764 248.204 62.6977C247.201 62.6977 246.391 62.7191 245.772 62.7617V62.1217C246.433 62.0791 246.924 61.9937 247.244 61.8657C247.564 61.7377 247.777 61.4817 247.884 61.0977C247.991 60.7137 248.044 60.1377 248.044 59.3697V43.4977C248.044 42.7084 247.991 42.1324 247.884 41.7697C247.777 41.3857 247.553 41.1297 247.212 41.0017C246.892 40.8524 246.412 40.7671 245.772 40.7457V40.1057C246.391 40.1271 247.201 40.1484 248.204 40.1697C249.228 40.1911 250.316 40.2017 251.468 40.2017C252.471 40.2017 253.452 40.1911 254.412 40.1697C255.393 40.1484 256.193 40.1271 256.812 40.1057ZM280.376 40.1057V40.7457C279.736 40.8737 279.245 41.0977 278.904 41.4177C278.584 41.7377 278.37 42.2391 278.264 42.9217C278.157 43.5831 278.104 44.5217 278.104 45.7377V62.7617C277.784 62.7191 277.432 62.6977 277.048 62.6977C276.685 62.6977 276.29 62.7191 275.864 62.7617L261.688 47.2737V56.4897C261.688 57.9191 261.741 59.0177 261.848 59.7857C261.976 60.5324 262.264 61.0764 262.712 61.4177C263.181 61.7377 263.917 61.9724 264.92 62.1217V62.7617C264.493 62.7191 263.938 62.6977 263.256 62.6977C262.573 62.6764 261.933 62.6657 261.336 62.6657C260.866 62.6657 260.386 62.6764 259.896 62.6977C259.405 62.6977 259 62.7191 258.68 62.7617V62.1217C259.341 61.9724 259.832 61.7484 260.152 61.4497C260.472 61.1297 260.685 60.6284 260.792 59.9457C260.898 59.2631 260.952 58.3244 260.952 57.1297V43.4977C260.952 42.7084 260.898 42.1324 260.792 41.7697C260.685 41.3857 260.461 41.1297 260.12 41.0017C259.8 40.8524 259.32 40.7671 258.68 40.7457V40.1057C259 40.1271 259.405 40.1484 259.896 40.1697C260.386 40.1911 260.866 40.2017 261.336 40.2017C261.869 40.2017 262.392 40.1911 262.904 40.1697C263.416 40.1484 263.874 40.1271 264.28 40.1057L277.368 53.9297V46.3777C277.368 44.9484 277.304 43.8604 277.176 43.1137C277.069 42.3457 276.792 41.7911 276.344 41.4497C275.896 41.1084 275.16 40.8737 274.136 40.7457V40.1057C274.562 40.1271 275.117 40.1484 275.8 40.1697C276.482 40.1911 277.122 40.2017 277.72 40.2017C278.21 40.2017 278.69 40.1911 279.16 40.1697C279.65 40.1484 280.056 40.1271 280.376 40.1057Z" fill="#F0572F"/>
<path d="M309.035 90.0049V94.3139H293.07V90.0049H309.035Z" fill="white"/>
<path d="M289.42 78.1011V81.1701H278.229V78.1011H289.42Z" fill="white"/>
<path d="M274.882 77.481V81.79H249.803V77.481H274.882Z" fill="white"/>
<path d="M246.455 77.481V81.79H221.376V77.481H246.455Z" fill="white"/>
<path d="M218.027 77.481V81.79H202.062V77.481H218.027Z" fill="white"/>
<path d="M199.143 90.0049V94.3139H183.178V90.0049H199.143Z" fill="white"/>
<path d="M179.528 78.1011V81.1701H168.337V78.1011H179.528Z" fill="white"/>
<path d="M164.989 77.481V81.79H139.91V77.481H164.989Z" fill="white"/>
<path d="M136.561 77.481V81.79H120.596V77.481H136.561Z" fill="white"/>
<path d="M117.677 90.0049V94.3139H101.712V90.0049H117.677Z" fill="white"/>
<path d="M98.0621 78.1011V81.1701H86.8711V78.1011H98.0621Z" fill="white"/>
<path d="M83.5233 77.481V81.79H58.4443V77.481H83.5233Z" fill="white"/>
<path d="M55.0949 77.481V81.79H39.1299V77.481H55.0949Z" fill="white"/>
<path d="M36.2111 90.0049V94.3139H20.2461V90.0049H36.2111Z" fill="white"/>
<path d="M16.5963 78.1011V81.1701H5.40527V78.1011H16.5963Z" fill="white"/>
<path d="M309.035 23.7148V28.0238H293.07V23.7148H309.035Z" fill="white"/>
<path d="M289.42 11.811V14.88H278.229V11.811H289.42Z" fill="white"/>
<path d="M274.882 11.1909V15.4999H249.803V11.1909H274.882Z" fill="white"/>
<path d="M246.455 11.1909V15.4999H221.376V11.1909H246.455Z" fill="white"/>
<path d="M218.027 11.1909V15.4999H202.062V11.1909H218.027Z" fill="white"/>
<path d="M199.143 23.7148V28.0238H183.178V23.7148H199.143Z" fill="white"/>
<path d="M179.528 11.811V14.88H168.337V11.811H179.528Z" fill="white"/>
<path d="M164.989 11.1909V15.4999H139.91V11.1909H164.989Z" fill="white"/>
<path d="M136.561 11.1909V15.4999H120.596V11.1909H136.561Z" fill="white"/>
<path d="M117.677 23.7148V28.0238H101.712V23.7148H117.677Z" fill="white"/>
<path d="M98.0621 11.811V14.88H86.8711V11.811H98.0621Z" fill="white"/>
<path d="M83.5233 11.1909V15.4999H58.4443V11.1909H83.5233Z" fill="white"/>
<path d="M55.0949 11.1909V15.4999H39.1299V11.1909H55.0949Z" fill="white"/>
<path d="M36.2111 23.7148V28.0238H20.2461V23.7148H36.2111Z" fill="white"/>
<path d="M16.5963 11.811V14.88H5.40527V11.811H16.5963Z" fill="white"/>
</svg>
