<svg width="757" height="866" viewBox="0 0 757 866" fill="none" xmlns="http://www.w3.org/2000/svg">
<path d="M228.226 30.0712L225.897 1.6621L278.638 0.724125L390.343 21.6152L555.033 34.2607L536.974 183.096L526.31 223.381L447.857 219.365L322.651 198.67L209.436 184.933C212.877 170.675 219.483 141.272 218.374 137.713C217.266 134.154 217.176 92.9321 217.27 72.7658L228.226 30.0712Z" fill="#3A001E"/>
<path fill-rule="evenodd" clip-rule="evenodd" d="M555.593 33.8023L537.467 183.191L526.69 223.901L447.803 219.862L322.58 199.165L208.819 185.361L208.95 184.815C210.67 177.69 213.18 166.782 215.122 157.212C216.093 152.426 216.92 147.981 217.435 144.514C217.693 142.78 217.871 141.298 217.951 140.144C217.991 139.567 218.006 139.08 217.995 138.687C217.984 138.286 217.946 138.018 217.898 137.862C217.814 137.593 217.744 137.184 217.682 136.68C217.62 136.166 217.561 135.521 217.507 134.764C217.398 133.248 217.303 131.26 217.222 128.917C217.059 124.231 216.946 118.11 216.872 111.473C216.722 98.1983 216.723 82.8483 216.77 72.7636L216.77 72.7016L227.721 30.0284L225.356 1.17175L278.681 0.223389L390.408 21.1188L555.593 33.8023ZM554.474 34.7193L390.278 22.1118L278.597 1.22504L226.439 2.15263L228.732 30.1141L217.77 72.8301C217.723 82.9125 217.723 98.2212 217.872 111.462C217.946 118.096 218.058 124.208 218.221 128.882C218.302 131.22 218.396 133.194 218.504 134.692C218.558 135.441 218.615 136.067 218.675 136.558C218.736 137.058 218.798 137.389 218.852 137.564C218.942 137.853 218.983 138.231 218.995 138.659C219.007 139.095 218.99 139.618 218.949 140.214C218.866 141.405 218.684 142.915 218.424 144.661C217.905 148.154 217.074 152.618 216.102 157.41C214.206 166.755 211.77 177.368 210.054 184.504L322.722 198.175L447.911 218.867L525.931 222.861L536.482 183.002L554.474 34.7193Z" fill="white"/>
<path d="M596.307 328.02L748.387 348.758L740.923 403.493L588.843 382.755L596.307 328.02Z" fill="black"/>
<path d="M505.211 41.0933L657.291 61.8316L649.827 116.566L497.747 95.8282L505.211 41.0933Z" fill="white"/>
<path d="M113.513 14.4818L756.356 110.67L643.742 863.292L0.898438 767.103L113.513 14.4818Z" fill="#F0572F"/>
<path d="M569.014 429.135L725.701 450.502L720.47 488.867L563.782 467.5L569.014 429.135Z" fill="#F0572F"/>
<path d="M173.473 767.219L322.864 787.591L315.4 842.326L166.009 821.954L173.473 767.219Z" fill="#F0572F"/>
<path fill-rule="evenodd" clip-rule="evenodd" d="M424.743 582.973L289.526 561.557L289.683 560.569L424.899 581.986L424.743 582.973Z" fill="black"/>
<path fill-rule="evenodd" clip-rule="evenodd" d="M401.163 740.549L265.946 719.133L266.103 718.146L401.319 739.562L401.163 740.549Z" fill="black"/>
<path d="M124.057 39.8606L122.791 39.6712L124.936 25.3348L126.202 25.5242L124.057 39.8606Z" fill="white"/>
<path d="M145.071 55.3272L137.602 54.2095L136.504 61.5518L135.554 61.4097L136.653 54.0675L129.216 52.9545L129.386 51.8152L136.823 52.9281L137.927 45.5543L138.876 45.6963L137.773 53.0702L145.242 54.1879L145.071 55.3272Z" fill="white"/>
<path d="M118.479 77.1331L117.213 76.9436L119.359 62.6073L120.624 62.7967L118.479 77.1331Z" fill="white"/>
<path d="M139.493 92.5997L132.025 91.482L130.926 98.8243L129.977 98.6822L131.075 91.3399L123.638 90.227L123.809 89.0877L131.246 90.2006L132.349 82.8267L133.299 82.9688L132.195 90.3427L139.664 91.4604L139.493 92.5997Z" fill="white"/>
<path d="M112.901 114.406L111.636 114.216L113.781 99.8797L115.047 100.069L112.901 114.406Z" fill="white"/>
<path d="M133.916 129.872L126.447 128.755L125.348 136.097L124.399 135.955L125.498 128.612L118.06 127.499L118.231 126.36L125.668 127.473L126.772 120.099L127.721 120.241L126.618 127.615L134.086 128.733L133.916 129.872Z" fill="white"/>
<path d="M107.324 151.678L106.058 151.489L108.203 137.152L109.469 137.342L107.324 151.678Z" fill="white"/>
<path d="M128.338 167.145L120.869 166.027L119.771 173.369L118.821 173.227L119.92 165.885L112.483 164.772L112.653 163.633L120.091 164.746L121.194 157.372L122.143 157.514L121.04 164.888L128.509 166.005L128.338 167.145Z" fill="white"/>
<path d="M101.746 188.951L100.48 188.761L102.626 174.425L103.892 174.614L101.746 188.951Z" fill="white"/>
<path d="M122.761 204.417L115.292 203.299L114.193 210.642L113.244 210.5L114.342 203.157L106.905 202.044L107.076 200.905L114.513 202.018L115.616 194.644L116.566 194.786L115.462 202.16L122.931 203.278L122.761 204.417Z" fill="white"/>
<path d="M96.1687 226.223L94.9028 226.034L97.0482 211.697L98.3141 211.887L96.1687 226.223Z" fill="white"/>
<path d="M117.183 241.69L109.714 240.572L108.616 247.914L107.666 247.772L108.765 240.43L101.328 239.317L101.498 238.178L108.935 239.291L110.039 231.917L110.988 232.059L109.885 239.433L117.354 240.55L117.183 241.69Z" fill="white"/>
<path d="M90.5911 263.495L89.3252 263.306L91.4706 248.97L92.7365 249.159L90.5911 263.495Z" fill="white"/>
<path d="M111.606 278.962L104.137 277.844L103.038 285.187L102.089 285.045L103.187 277.702L95.7501 276.589L95.9206 275.45L103.358 276.563L104.461 269.189L105.411 269.331L104.307 276.705L111.776 277.823L111.606 278.962Z" fill="white"/>
<path d="M85.0135 300.768L83.7476 300.579L85.893 286.242L87.1589 286.432L85.0135 300.768Z" fill="white"/>
<path d="M106.028 316.235L98.5591 315.117L97.4604 322.459L96.5109 322.317L97.6097 314.975L90.1725 313.862L90.343 312.723L97.7802 313.836L98.8836 306.462L99.833 306.604L98.7296 313.978L106.198 315.095L106.028 316.235Z" fill="white"/>
<path d="M79.4359 338.04L78.17 337.851L80.3154 323.515L81.5813 323.704L79.4359 338.04Z" fill="white"/>
<path d="M100.45 353.507L92.9815 352.389L91.8828 359.732L90.9333 359.59L92.0321 352.247L84.5949 351.134L84.7654 349.995L92.2026 351.108L93.306 343.734L94.2555 343.876L93.152 351.25L100.621 352.368L100.45 353.507Z" fill="white"/>
<path d="M73.8583 375.313L72.5924 375.124L74.7378 360.787L76.0037 360.977L73.8583 375.313Z" fill="white"/>
<path d="M94.8727 390.78L87.4039 389.662L86.3052 397.004L85.3558 396.862L86.4545 389.52L79.0173 388.407L79.1878 387.268L86.625 388.38L87.7284 381.007L88.6779 381.149L87.5744 388.523L95.0432 389.64L94.8727 390.78Z" fill="white"/>
<path d="M68.2807 412.585L67.0148 412.396L69.1602 398.06L70.4261 398.249L68.2807 412.585Z" fill="white"/>
<path d="M89.2952 428.052L81.8263 426.934L80.7276 434.277L79.7782 434.135L80.8769 426.792L73.4397 425.679L73.6102 424.54L81.0474 425.653L82.1508 418.279L83.1003 418.421L81.9968 425.795L89.4656 426.913L89.2952 428.052Z" fill="white"/>
<path d="M62.7031 449.858L61.4372 449.668L63.5826 435.332L64.8485 435.522L62.7031 449.858Z" fill="white"/>
<path d="M83.7176 465.325L76.2487 464.207L75.15 471.549L74.2006 471.407L75.2993 464.065L67.8621 462.952L68.0326 461.813L75.4698 462.925L76.5732 455.552L77.5227 455.694L76.4192 463.068L83.888 464.185L83.7176 465.325Z" fill="white"/>
<path d="M57.1255 487.13L55.8596 486.941L58.005 472.605L59.2709 472.794L57.1255 487.13Z" fill="white"/>
<path d="M78.14 502.597L70.6711 501.479L69.5724 508.822L68.623 508.68L69.7217 501.337L62.2845 500.224L62.455 499.085L69.8922 500.198L70.9956 492.824L71.9451 492.966L70.8416 500.34L78.3104 501.458L78.14 502.597Z" fill="white"/>
<path d="M51.548 524.403L50.282 524.213L52.4274 509.877L53.6933 510.066L51.548 524.403Z" fill="white"/>
<path d="M72.5624 539.87L65.0935 538.752L63.9948 546.094L63.0454 545.952L64.1441 538.61L56.7069 537.497L56.8774 536.358L64.3146 537.47L65.418 530.097L66.3675 530.239L65.264 537.612L72.7329 538.73L72.5624 539.87Z" fill="white"/>
<path d="M45.9704 561.675L44.7044 561.486L46.8498 547.15L48.1157 547.339L45.9704 561.675Z" fill="white"/>
<path d="M66.9848 577.142L59.5159 576.024L58.4172 583.367L57.4678 583.224L58.5665 575.882L51.1293 574.769L51.2998 573.63L58.737 574.743L59.8405 567.369L60.7899 567.511L59.6864 574.885L67.1553 576.003L66.9848 577.142Z" fill="white"/>
<path d="M40.3928 598.948L39.1269 598.758L41.2722 584.422L42.5381 584.611L40.3928 598.948Z" fill="white"/>
<path d="M61.4072 614.414L53.9383 613.297L52.8396 620.639L51.8902 620.497L52.9889 613.155L45.5517 612.042L45.7222 610.902L53.1594 612.015L54.2629 604.642L55.2123 604.784L54.1088 612.157L61.5777 613.275L61.4072 614.414Z" fill="white"/>
<path d="M34.8152 636.22L33.5493 636.031L35.6946 621.695L36.9605 621.884L34.8152 636.22Z" fill="white"/>
<path d="M55.8296 651.687L48.3607 650.569L47.262 657.912L46.3126 657.769L47.4113 650.427L39.9741 649.314L40.1446 648.175L47.5818 649.288L48.6853 641.914L49.6347 642.056L48.5312 649.43L56.0001 650.548L55.8296 651.687Z" fill="white"/>
<path d="M29.2376 673.493L27.9717 673.303L30.117 658.967L31.3829 659.156L29.2376 673.493Z" fill="white"/>
<path d="M50.252 688.959L42.7831 687.842L41.6844 695.184L40.735 695.042L41.8337 687.7L34.3965 686.587L34.567 685.447L42.0042 686.56L43.1077 679.186L44.0571 679.329L42.9536 686.702L50.4225 687.82L50.252 688.959Z" fill="white"/>
<path d="M23.66 710.765L22.3941 710.576L24.5394 696.24L25.8053 696.429L23.66 710.765Z" fill="white"/>
<path d="M44.6744 726.232L37.2056 725.114L36.1068 732.456L35.1574 732.314L36.2561 724.972L28.8189 723.859L28.9894 722.72L36.4266 723.833L37.5301 716.459L38.4795 716.601L37.376 723.975L44.8449 725.093L44.6744 726.232Z" fill="white"/>
<path d="M18.0824 748.038L16.8165 747.848L18.9618 733.512L20.2277 733.701L18.0824 748.038Z" fill="white"/>
<path d="M39.0968 763.504L31.628 762.387L30.5292 769.729L29.5798 769.587L30.6785 762.245L23.2413 761.132L23.4118 759.992L30.849 761.105L31.9525 753.731L32.9019 753.874L31.7984 761.247L39.2673 762.365L39.0968 763.504Z" fill="white"/>
<path d="M149.979 14.4818H112.215L162.184 22.1362L149.979 14.4818Z" fill="#F0572F"/>
<path fill-rule="evenodd" clip-rule="evenodd" d="M111.987 15.9645L112.215 12.9818H150.41L162.98 20.8655L161.956 23.6189L111.987 15.9645ZM131.913 15.9818L155.247 19.5561L149.547 15.9818H131.913Z" fill="#F0572F"/>
<path fill-rule="evenodd" clip-rule="evenodd" d="M736.036 249.762L756.917 110.219L617.374 89.3374C610.328 88.283 603.762 93.1402 602.707 100.186L600.831 112.722L607.644 113.741C607.799 112.82 608.033 111.945 608.348 111.116C608.698 110.167 609.125 109.271 609.626 108.428L606.095 103.579L614.754 97.174L618.286 102.023C619.245 101.749 620.21 101.58 621.179 101.516C622.189 101.459 623.205 101.506 624.226 101.659C625.287 101.818 626.269 102.09 627.171 102.476C628.121 102.826 629.017 103.253 629.86 103.755L634.718 100.161L641.123 108.821L636.265 112.414C636.498 113.367 636.643 114.349 636.701 115.359C636.759 116.243 636.727 117.149 636.605 118.075L657.13 121.147C656.732 120.481 656.41 119.718 656.164 118.858C655.51 116.706 655.489 114.36 656.099 111.818C656.848 108.703 658.482 106.234 661.001 104.412C663.52 102.589 666.653 101.456 670.402 101.013C674.14 100.61 678.223 100.941 682.65 102.005C686.544 102.94 689.924 104.121 692.79 105.546C695.614 106.962 697.914 108.577 699.69 110.391C701.455 112.246 702.665 114.249 703.318 116.401C703.931 118.542 703.952 120.802 703.381 123.179C702.946 124.986 702.268 126.514 701.345 127.763L717.146 130.128C717.035 129.425 717.01 128.735 717.072 128.056C717.228 126.55 717.748 125.242 718.631 124.133C719.58 122.941 720.659 122.011 721.869 121.344C723.052 120.654 724.296 120.059 725.601 119.557C726.878 119.034 728.11 118.452 729.299 117.813C730.481 117.123 731.514 116.224 732.396 115.115C733.191 114.116 733.672 113.028 733.841 111.848C733.982 110.647 733.632 109.35 732.793 107.958L733.513 107.308C734.984 108.705 736.061 110.196 736.746 111.783C737.403 113.347 737.665 114.869 737.53 116.347C737.396 117.825 736.876 119.132 735.971 120.269C735.022 121.462 733.957 122.402 732.774 123.092C731.564 123.759 730.32 124.354 729.043 124.878C727.738 125.38 726.506 125.961 725.345 126.623C724.157 127.262 723.11 128.15 722.206 129.287C721.835 129.753 721.536 130.241 721.307 130.75L727.908 131.738L726.769 139.349C727.123 139.4 727.47 139.411 727.811 139.383C728.995 139.257 730.1 138.814 731.126 138.055C732.266 137.212 733.201 136.212 733.932 135.055C734.613 133.89 735.237 132.678 735.806 131.42C736.353 130.134 736.992 128.912 737.722 127.755C738.432 126.569 739.399 125.522 740.624 124.616C741.764 123.773 743.089 123.3 744.599 123.197C746.081 123.114 747.603 123.444 749.164 124.184C750.705 124.896 752.147 126.011 753.491 127.53L752.816 128.227C751.426 127.36 750.152 126.98 748.996 127.085C747.791 127.184 746.675 127.612 745.649 128.371C744.481 129.235 743.557 130.249 742.876 131.414C742.173 132.551 741.549 133.762 741.002 135.048C740.433 136.306 739.794 137.528 739.085 138.714C738.354 139.872 737.376 140.904 736.151 141.81C734.983 142.674 733.658 143.147 732.176 143.229C730.694 143.312 729.183 142.997 727.643 142.285C727.231 142.09 726.827 141.867 726.43 141.618L724.5 154.515C725.489 154.292 726.56 154.185 727.712 154.195C730.157 154.217 732.344 154.785 734.273 155.898C736.202 157.054 737.852 158.713 739.224 160.875C740.554 163.037 741.563 165.66 742.252 168.744C742.941 171.87 743.267 175.435 743.231 179.44C743.19 183.993 742.521 188.034 741.225 191.563C739.886 195.092 738.027 197.858 735.648 199.86C733.27 201.862 730.478 202.849 727.275 202.82C724.661 202.797 722.39 202.207 720.461 201.052C719.372 200.423 718.506 199.696 717.862 198.871L714.406 221.971C714.443 221.976 714.481 221.982 714.519 221.987C714.554 221.992 714.589 221.997 714.624 222.002C715.685 222.161 716.667 222.433 717.569 222.819C718.519 223.169 719.415 223.596 720.258 224.098L725.116 220.505L731.521 229.164L726.663 232.757C726.896 233.71 727.042 234.692 727.099 235.702C727.163 236.672 727.118 237.667 726.965 238.688C726.813 239.708 726.561 240.693 726.21 241.642C725.866 242.551 725.422 243.424 724.879 244.261L728.534 249.128L719.874 255.533L716.22 250.666C715.267 250.899 714.285 251.044 713.275 251.102C712.305 251.165 711.31 251.121 710.289 250.968C710.257 250.963 710.225 250.958 710.192 250.953C710.152 250.947 710.112 250.94 710.071 250.934L708.902 258.746L721.369 260.611C728.415 261.666 734.981 256.808 736.036 249.762ZM713.213 229.941L711.264 242.964C711.376 242.988 711.489 243.008 711.603 243.025C712.664 243.184 713.667 243.042 714.61 242.599C715.559 242.115 716.351 241.419 716.988 240.513C717.665 239.612 718.092 238.57 718.27 237.386C718.447 236.202 718.343 235.081 717.959 234.022C717.622 232.928 717.068 232.031 716.296 231.331C715.53 230.59 714.616 230.14 713.555 229.982C713.441 229.964 713.326 229.951 713.213 229.941ZM616.464 115.061L627.907 116.774C628.031 115.689 627.916 114.657 627.561 113.678C627.224 112.584 626.669 111.688 625.898 110.988C625.132 110.247 624.218 109.797 623.157 109.638C622.095 109.48 621.07 109.639 620.08 110.117C619.137 110.56 618.324 111.253 617.64 112.194C617.052 113.031 616.66 113.987 616.464 115.061ZM719.225 189.763L719.235 189.721C719.28 189.384 719.346 189.027 719.434 188.648C720.275 184.271 721.169 180.949 722.117 178.681C723.022 176.455 724.339 175.349 726.067 175.365C727.079 175.374 727.982 175.74 728.776 176.464C729.528 177.23 730.11 178.184 730.521 179.326C730.932 180.51 731.132 181.713 731.121 182.935L731.116 183.504C731.072 183.715 731.049 183.904 731.048 184.073C731.004 184.283 730.981 184.473 730.979 184.641C730.527 183.331 729.861 182.439 728.98 181.968C728.099 181.496 727.195 181.256 726.267 181.248C724.707 181.234 723.522 181.813 722.71 182.986C721.899 184.159 721.485 185.61 721.47 187.338C721.453 189.193 721.883 190.63 722.759 191.65C723.634 192.712 724.81 193.249 726.286 193.263C727.677 193.275 728.819 192.864 729.711 192.029C730.604 191.236 731.267 190.104 731.702 188.632C732.095 187.16 732.3 185.412 732.319 183.389C732.336 181.408 732.036 179.613 731.418 178.006C730.758 176.44 729.8 175.188 728.543 174.249C727.287 173.352 725.71 172.895 723.813 172.878C723.084 172.872 722.39 172.918 721.731 173.016L723.235 162.971C723.534 162.956 723.841 162.95 724.155 162.953C726.853 162.977 729.038 163.735 730.711 165.225C732.342 166.758 733.544 168.982 734.319 171.898C735.052 174.813 735.399 178.337 735.362 182.468C735.344 184.491 735.115 186.555 734.674 188.659C734.234 190.763 733.563 192.696 732.662 194.458C731.76 196.221 730.652 197.644 729.335 198.728C727.976 199.812 726.39 200.346 724.578 200.33C723.988 200.324 723.25 200.255 722.366 200.12C721.482 200.028 720.578 199.725 719.655 199.21C719.059 198.878 718.516 198.396 718.028 197.765L719.225 189.763ZM693.368 126.569L683.375 125.074C683.766 124.281 684.077 123.401 684.31 122.434C684.753 120.589 684.692 118.949 684.126 117.512C683.52 116.066 682.537 114.833 681.178 113.812C679.769 112.823 678.1 112.097 676.174 111.634C674.206 111.162 672.461 110.937 670.938 110.961C669.405 111.027 668.145 111.396 667.16 112.07C666.133 112.734 665.457 113.742 665.132 115.094C664.788 116.529 665.024 117.8 665.842 118.907C666.619 120.004 667.909 120.769 669.713 121.203C671.393 121.606 672.901 121.557 674.236 121.054C675.571 120.551 676.42 119.541 676.785 118.024C677.001 117.123 676.988 116.187 676.744 115.218C676.5 114.249 675.796 113.386 674.634 112.63C674.798 112.669 674.987 112.693 675.202 112.701C675.366 112.741 675.555 112.765 675.77 112.773L676.324 112.906C677.512 113.192 678.631 113.677 679.68 114.363C680.689 115.039 681.473 115.834 682.034 116.749C682.543 117.695 682.68 118.66 682.444 119.644C682.04 121.325 680.648 122.334 678.269 122.673C676.016 123.016 672.894 123.095 668.904 122.909L658.283 121.319C658.044 120.914 657.868 120.503 657.755 120.085C657.48 119.065 657.404 118.115 657.529 117.235C657.613 116.344 657.724 115.612 657.862 115.038C658.285 113.276 659.188 111.867 660.568 110.811C661.94 109.797 663.589 109.066 665.518 108.619C667.446 108.171 669.484 107.989 671.632 108.072C673.78 108.154 675.838 108.432 677.805 108.905C681.822 109.87 685.156 111.061 687.807 112.479C690.448 113.937 692.315 115.643 693.406 117.596C694.447 119.58 694.652 121.884 694.022 124.507C693.844 125.248 693.626 125.936 693.368 126.569ZM747.088 146.316C746.791 146.098 746.401 146.083 745.921 146.272C745.477 146.449 745.008 146.796 744.513 147.314C744.054 147.794 743.496 148.334 742.839 148.934C743.293 148.125 743.696 147.457 744.048 146.931C744.432 146.345 744.659 145.814 744.73 145.337C744.807 144.827 744.707 144.447 744.431 144.197C744.173 143.95 743.865 143.799 743.508 143.746C743.15 143.692 742.803 143.745 742.467 143.903C742.13 144.061 741.923 144.396 741.847 144.906C741.776 145.382 741.836 145.965 742.029 146.655C742.225 147.302 742.419 148.063 742.611 148.937C742.145 148.117 741.767 147.424 741.477 146.859C741.169 146.239 740.821 145.779 740.431 145.477C740.027 145.155 739.652 145.047 739.306 145.152C738.96 145.257 738.669 145.457 738.434 145.752C738.218 146.032 738.09 146.361 738.051 146.738C738.032 147.1 738.224 147.442 738.628 147.763C739.001 148.063 739.531 148.299 740.218 148.471C740.881 148.636 741.645 148.854 742.509 149.126C741.556 149.127 740.753 149.111 740.101 149.08C739.43 149.031 738.864 149.094 738.403 149.269C737.922 149.458 737.638 149.728 737.551 150.081C737.48 150.435 737.515 150.788 737.653 151.139C737.778 151.471 737.989 151.746 738.286 151.965C738.604 152.169 739.003 152.176 739.483 151.987C739.927 151.81 740.396 151.463 740.891 150.946C741.353 150.463 741.915 149.919 742.577 149.315C742.103 150.121 741.687 150.791 741.33 151.324C740.966 151.896 740.747 152.429 740.674 152.922C740.597 153.432 740.688 153.811 740.947 154.058C741.223 154.308 741.548 154.461 741.922 154.517C742.262 154.568 742.601 154.515 742.937 154.356C743.274 154.198 743.481 153.864 743.557 153.353C743.631 152.86 743.562 152.276 743.35 151.6C743.169 150.953 742.982 150.189 742.79 149.309C743.275 150.122 743.654 150.819 743.927 151.4C744.235 152.02 744.583 152.481 744.973 152.783C745.377 153.104 745.752 153.212 746.098 153.107C746.461 153.005 746.752 152.805 746.971 152.508C747.203 152.229 747.33 151.909 747.349 151.547C747.371 151.167 747.18 150.817 746.776 150.496C746.403 150.197 745.865 149.959 745.161 149.785C744.53 149.626 743.798 149.417 742.965 149.155C743.886 149.142 744.656 149.157 745.274 149.201C745.964 149.235 746.54 149.165 747.001 148.99C747.482 148.801 747.757 148.53 747.828 148.175C747.915 147.823 747.889 147.471 747.751 147.12C747.626 146.788 747.406 146.52 747.088 146.316ZM742.711 149.131L742.703 149.146L742.693 149.148L742.687 149.14L742.693 149.128L742.711 149.131ZM715.943 108.675C716.424 108.486 716.813 108.5 717.111 108.719C717.428 108.923 717.649 109.191 717.773 109.522C717.912 109.873 717.937 110.225 717.85 110.577C717.78 110.932 717.504 111.204 717.024 111.393C716.563 111.567 715.987 111.638 715.296 111.604C714.678 111.559 713.909 111.544 712.987 111.557C713.821 111.819 714.553 112.029 715.183 112.187C715.887 112.362 716.426 112.599 716.798 112.898C717.202 113.22 717.394 113.57 717.372 113.949C717.352 114.311 717.226 114.632 716.993 114.91C716.774 115.208 716.484 115.408 716.121 115.51C715.774 115.615 715.399 115.506 714.995 115.185C714.606 114.883 714.257 114.422 713.95 113.802C713.677 113.221 713.298 112.524 712.813 111.711C713.005 112.591 713.191 113.355 713.372 114.003C713.584 114.678 713.653 115.262 713.579 115.756C713.503 116.266 713.297 116.6 712.96 116.759C712.623 116.917 712.285 116.971 711.944 116.92C711.57 116.864 711.245 116.711 710.969 116.461C710.711 116.213 710.62 115.834 710.696 115.324C710.77 114.831 710.989 114.298 711.353 113.727C711.71 113.193 712.125 112.523 712.599 111.717C711.937 112.321 711.375 112.865 710.914 113.348C710.419 113.865 709.949 114.212 709.505 114.389C709.025 114.578 708.626 114.571 708.309 114.367C708.011 114.148 707.8 113.873 707.676 113.542C707.537 113.191 707.503 112.838 707.573 112.483C707.661 112.131 707.945 111.86 708.425 111.671C708.886 111.497 709.452 111.434 710.123 111.482C710.776 111.514 711.578 111.529 712.531 111.528C711.667 111.257 710.904 111.038 710.24 110.873C709.553 110.701 709.023 110.465 708.651 110.166C708.246 109.844 708.054 109.503 708.074 109.14C708.113 108.764 708.24 108.435 708.456 108.154C708.691 107.859 708.982 107.659 709.328 107.554C709.674 107.449 710.05 107.558 710.454 107.879C710.843 108.181 711.192 108.642 711.499 109.262C711.789 109.827 712.167 110.519 712.633 111.339C712.441 110.465 712.247 109.704 712.051 109.057C711.859 108.368 711.798 107.785 711.87 107.308C711.946 106.798 712.152 106.464 712.489 106.305C712.826 106.147 713.173 106.095 713.53 106.148C713.887 106.202 714.195 106.352 714.454 106.599C714.73 106.849 714.829 107.23 714.753 107.74C714.682 108.216 714.454 108.747 714.071 109.333C713.719 109.86 713.316 110.527 712.862 111.336C713.518 110.736 714.076 110.196 714.535 109.716C715.03 109.199 715.5 108.852 715.943 108.675ZM712.725 111.548L712.733 111.533L712.716 111.531L712.71 111.543L712.715 111.55L712.725 111.548ZM653.171 99.1507C652.874 98.9322 652.485 98.9174 652.004 99.1064C651.56 99.2835 651.091 99.6306 650.596 100.148C650.137 100.628 649.579 101.168 648.922 101.768C649.376 100.959 649.779 100.292 650.132 99.7654C650.515 99.1792 650.742 98.648 650.814 98.1717C650.89 97.6614 650.79 97.2813 650.515 97.0313C650.256 96.7839 649.948 96.6335 649.591 96.58C649.234 96.5266 648.887 96.579 648.55 96.7373C648.213 96.8956 648.007 97.2299 647.93 97.7403C647.859 98.2166 647.92 98.7995 648.112 99.4892C648.308 100.136 648.502 100.897 648.694 101.771C648.228 100.951 647.85 100.258 647.56 99.6935C647.253 99.0736 646.904 98.6128 646.514 98.311C646.11 97.9897 645.735 97.8814 645.389 97.9861C645.043 98.0908 644.752 98.2908 644.517 98.586C644.301 98.8667 644.173 99.1955 644.134 99.5723C644.115 99.9346 644.307 100.276 644.711 100.598C645.084 100.897 645.614 101.133 646.301 101.305C646.965 101.47 647.728 101.688 648.592 101.96C647.639 101.961 646.837 101.946 646.184 101.914C645.513 101.866 644.947 101.929 644.486 102.103C644.006 102.292 643.722 102.563 643.634 102.915C643.564 103.27 643.598 103.622 643.737 103.974C643.861 104.305 644.072 104.58 644.37 104.799C644.687 105.003 645.086 105.01 645.566 104.821C646.01 104.644 646.48 104.297 646.974 103.78C647.436 103.297 647.998 102.753 648.66 102.149C648.186 102.955 647.77 103.625 647.413 104.159C647.049 104.73 646.831 105.263 646.757 105.756C646.68 106.266 646.772 106.645 647.03 106.893C647.306 107.143 647.631 107.296 648.005 107.352C648.345 107.402 648.684 107.349 649.021 107.19C649.357 107.032 649.564 106.698 649.64 106.188C649.714 105.694 649.645 105.11 649.433 104.435C649.252 103.787 649.066 103.023 648.873 102.143C649.358 102.956 649.738 103.653 650.011 104.234C650.318 104.854 650.666 105.315 651.056 105.617C651.46 105.938 651.835 106.046 652.181 105.942C652.544 105.84 652.835 105.64 653.054 105.342C653.287 105.064 653.413 104.743 653.432 104.381C653.454 104.002 653.263 103.651 652.859 103.33C652.486 103.031 651.948 102.794 651.244 102.619C650.614 102.461 649.882 102.251 649.048 101.989C649.969 101.976 650.739 101.991 651.357 102.036C652.048 102.069 652.623 101.999 653.084 101.825C653.565 101.636 653.84 101.364 653.911 101.009C653.998 100.657 653.973 100.305 653.834 99.9541C653.71 99.6225 653.489 99.3547 653.171 99.1507ZM648.794 101.965L648.786 101.98L648.776 101.982L648.771 101.975L648.777 101.963L648.794 101.965ZM737.201 212.388C736.903 212.17 736.514 212.155 736.034 212.344C735.59 212.521 735.121 212.868 734.626 213.385C734.167 213.865 733.609 214.405 732.952 215.005C733.406 214.197 733.809 213.529 734.161 213.003C734.545 212.417 734.772 211.885 734.843 211.409C734.92 210.899 734.82 210.519 734.544 210.269C734.286 210.021 733.978 209.871 733.62 209.817C733.263 209.764 732.916 209.816 732.58 209.975C732.243 210.133 732.036 210.467 731.96 210.978C731.889 211.454 731.949 212.037 732.142 212.727C732.337 213.374 732.531 214.134 732.724 215.009C732.258 214.188 731.88 213.496 731.589 212.931C731.282 212.311 730.934 211.85 730.544 211.548C730.14 211.227 729.765 211.119 729.419 211.223C729.073 211.328 728.782 211.528 728.546 211.823C728.33 212.104 728.203 212.433 728.164 212.81C728.145 213.172 728.337 213.514 728.741 213.835C729.114 214.134 729.643 214.37 730.331 214.543C730.994 214.707 731.758 214.926 732.621 215.198C731.669 215.199 730.866 215.183 730.214 215.151C729.543 215.103 728.977 215.166 728.516 215.34C728.035 215.529 727.751 215.8 727.664 216.152C727.593 216.507 727.627 216.86 727.766 217.211C727.89 217.543 728.101 217.818 728.399 218.036C728.717 218.24 729.115 218.248 729.596 218.059C730.04 217.882 730.509 217.534 731.004 217.017C731.466 216.534 732.028 215.991 732.69 215.386C732.215 216.192 731.8 216.862 731.443 217.396C731.079 217.968 730.86 218.5 730.786 218.993C730.71 219.504 730.801 219.883 731.06 220.13C731.335 220.38 731.66 220.533 732.035 220.589C732.375 220.64 732.713 220.586 733.05 220.428C733.387 220.269 733.593 219.935 733.67 219.425C733.744 218.932 733.674 218.347 733.462 217.672C733.282 217.024 733.095 216.26 732.903 215.38C733.388 216.193 733.767 216.891 734.04 217.472C734.348 218.091 734.696 218.552 735.086 218.854C735.49 219.175 735.865 219.284 736.211 219.179C736.574 219.077 736.865 218.877 737.083 218.579C737.316 218.301 737.442 217.981 737.462 217.618C737.484 217.239 737.293 216.889 736.889 216.567C736.516 216.268 735.978 216.031 735.273 215.856C734.643 215.698 733.911 215.488 733.077 215.226C733.999 215.213 734.769 215.229 735.387 215.273C736.077 215.307 736.653 215.236 737.114 215.062C737.594 214.873 737.87 214.601 737.94 214.246C738.028 213.894 738.002 213.543 737.863 213.191C737.739 212.86 737.518 212.592 737.201 212.388ZM732.823 215.202L732.816 215.218L732.806 215.219L732.8 215.212L732.806 215.2L732.823 215.202Z" fill="white"/>
<path fill-rule="evenodd" clip-rule="evenodd" d="M503.749 844.957L643.292 865.839L664.174 726.296C665.228 719.25 660.371 712.683 653.325 711.629L640.789 709.753L639.77 716.566C640.692 716.72 641.567 716.955 642.395 717.269C643.344 717.62 644.241 718.046 645.084 718.548L649.932 715.016L656.337 723.676L651.489 727.208C651.763 728.167 651.931 729.131 651.995 730.101C652.052 731.111 652.005 732.127 651.852 733.147C651.693 734.209 651.421 735.191 651.036 736.093C650.685 737.042 650.259 737.938 649.757 738.782L653.35 743.639L644.69 750.044L641.097 745.187C640.144 745.42 639.163 745.565 638.152 745.622C637.268 745.681 636.363 745.649 635.436 745.527L632.365 766.051C633.031 765.653 633.794 765.332 634.654 765.086C636.805 764.432 639.152 764.41 641.693 765.021C644.808 765.769 647.277 767.403 649.1 769.922C650.922 772.441 652.055 775.575 652.499 779.323C652.901 783.062 652.571 787.145 651.507 791.572C650.571 795.466 649.391 798.845 647.965 801.711C646.549 804.536 644.934 806.836 643.12 808.611C641.265 810.377 639.262 811.586 637.111 812.24C634.969 812.853 632.71 812.873 630.332 812.302C628.525 811.868 626.997 811.189 625.748 810.267L623.384 826.068C624.086 825.956 624.777 825.932 625.456 825.994C626.962 826.15 628.269 826.67 629.378 827.552C630.571 828.501 631.501 829.581 632.168 830.791C632.857 831.974 633.453 833.217 633.954 834.522C634.478 835.799 635.059 837.032 635.699 838.22C636.388 839.403 637.287 840.435 638.397 841.318C639.395 842.112 640.484 842.594 641.663 842.762C642.864 842.903 644.161 842.554 645.554 841.715L646.203 842.435C644.807 843.905 643.315 844.983 641.729 845.668C640.164 846.325 638.643 846.586 637.165 846.452C635.687 846.317 634.379 845.798 633.242 844.893C632.05 843.944 631.109 842.878 630.42 841.696C629.752 840.485 629.157 839.242 628.633 837.965C628.132 836.66 627.55 835.427 626.889 834.267C626.249 833.078 625.361 832.032 624.224 831.127C623.758 830.757 623.271 830.457 622.761 830.229L621.773 836.83L614.163 835.691C614.112 836.044 614.1 836.392 614.128 836.732C614.255 837.917 614.697 839.022 615.456 840.048C616.299 841.187 617.299 842.123 618.457 842.853C619.622 843.534 620.833 844.159 622.091 844.727C623.377 845.274 624.599 845.913 625.757 846.644C626.943 847.354 627.989 848.321 628.895 849.546C629.738 850.686 630.211 852.011 630.315 853.521C630.397 855.003 630.068 856.525 629.327 858.086C628.615 859.626 627.5 861.069 625.982 862.412L625.284 861.738C626.151 860.347 626.532 859.074 626.426 857.918C626.328 856.712 625.899 855.597 625.141 854.571C624.277 853.403 623.262 852.478 622.097 851.797C620.961 851.095 619.749 850.47 618.463 849.923C617.205 849.355 615.983 848.716 614.797 848.006C613.64 847.276 612.608 846.298 611.702 845.073C610.838 843.905 610.364 842.58 610.282 841.098C610.2 839.616 610.515 838.105 611.227 836.564C611.422 836.152 611.644 835.748 611.894 835.352L598.996 833.422C599.22 834.411 599.326 835.482 599.316 836.634C599.294 839.079 598.726 841.266 597.613 843.195C596.457 845.124 594.798 846.774 592.636 848.146C590.474 849.475 587.851 850.485 584.767 851.174C581.641 851.862 578.076 852.188 574.071 852.152C569.519 852.111 565.478 851.443 561.948 850.146C558.419 848.808 555.653 846.949 553.651 844.57C551.649 842.191 550.662 839.4 550.691 836.196C550.715 833.583 551.304 831.311 552.46 829.383C553.088 828.294 553.815 827.428 554.64 826.784L531.54 823.327C531.535 823.365 531.53 823.403 531.524 823.441C531.519 823.476 531.514 823.511 531.509 823.545C531.35 824.607 531.078 825.589 530.693 826.491C530.342 827.44 529.916 828.337 529.414 829.18L533.007 834.038L524.347 840.443L520.754 835.585C519.801 835.818 518.819 835.963 517.809 836.021C516.839 836.084 515.844 836.04 514.824 835.887C513.803 835.734 512.818 835.483 511.869 835.132C510.96 834.787 510.088 834.344 509.251 833.801L504.384 837.455L497.979 828.796L502.846 825.141C502.613 824.188 502.467 823.207 502.41 822.196C502.346 821.227 502.391 820.232 502.543 819.211C502.548 819.179 502.553 819.146 502.558 819.114C502.565 819.074 502.571 819.033 502.578 818.993L494.766 817.824L492.9 830.29C491.846 837.336 496.703 843.903 503.749 844.957ZM523.57 822.134L510.547 820.186C510.524 820.297 510.503 820.41 510.486 820.525C510.327 821.586 510.469 822.588 510.913 823.531C511.397 824.48 512.092 825.273 512.999 825.909C513.899 826.587 514.941 827.014 516.125 827.191C517.309 827.368 518.431 827.265 519.49 826.881C520.584 826.544 521.481 825.989 522.18 825.217C522.921 824.452 523.371 823.538 523.53 822.477C523.547 822.362 523.56 822.248 523.57 822.134ZM638.45 725.386L636.738 736.829C637.823 736.953 638.854 736.837 639.833 736.483C640.927 736.145 641.824 735.591 642.524 734.819C643.264 734.053 643.714 733.14 643.873 732.078C644.032 731.017 643.872 729.991 643.394 729.002C642.951 728.059 642.259 727.245 641.317 726.562C640.48 725.974 639.524 725.582 638.45 725.386ZM563.749 828.147L563.79 828.156C564.127 828.202 564.485 828.268 564.863 828.356C569.24 829.196 572.563 830.09 574.831 831.038C577.057 831.944 578.162 833.26 578.147 834.989C578.138 836 577.771 836.904 577.047 837.698C576.282 838.45 575.328 839.032 574.186 839.443C573.002 839.854 571.798 840.054 570.576 840.043L570.007 840.038C569.797 839.994 569.607 839.971 569.438 839.969C569.228 839.925 569.038 839.902 568.87 839.901C570.181 839.449 571.072 838.782 571.544 837.901C572.015 837.02 572.255 836.116 572.264 835.189C572.278 833.629 571.698 832.443 570.525 831.632C569.352 830.82 567.901 830.407 566.173 830.391C564.318 830.375 562.881 830.804 561.861 831.68C560.8 832.556 560.262 833.732 560.249 835.207C560.236 836.598 560.647 837.74 561.483 838.633C562.276 839.525 563.408 840.189 564.879 840.624C566.351 841.017 568.099 841.222 570.123 841.24C572.104 841.258 573.898 840.958 575.506 840.34C577.072 839.68 578.324 838.721 579.263 837.465C580.159 836.208 580.616 834.631 580.633 832.735C580.64 832.006 580.594 831.312 580.495 830.653L590.54 832.156C590.555 832.456 590.561 832.763 590.558 833.077C590.534 835.775 589.776 837.96 588.286 839.633C586.754 841.263 584.529 842.466 581.614 843.241C578.698 843.973 575.175 844.321 571.044 844.284C569.02 844.266 566.957 844.036 564.853 843.596C562.749 843.155 560.816 842.484 559.053 841.583C557.291 840.682 555.867 839.573 554.783 838.257C553.699 836.898 553.165 835.312 553.182 833.499C553.187 832.909 553.257 832.172 553.391 831.288C553.483 830.404 553.787 829.5 554.301 828.577C554.633 827.98 555.115 827.438 555.746 826.949L563.749 828.147ZM626.942 802.29L628.437 792.297C629.231 792.687 630.111 792.999 631.078 793.231C632.922 793.674 634.563 793.613 635.999 793.048C637.446 792.442 638.679 791.459 639.699 790.1C640.688 788.69 641.414 787.022 641.877 785.096C642.35 783.128 642.574 781.383 642.55 779.859C642.485 778.326 642.115 777.067 641.442 776.081C640.778 775.055 639.77 774.379 638.417 774.054C636.982 773.709 635.712 773.946 634.605 774.764C633.507 775.541 632.742 776.831 632.309 778.634C631.905 780.315 631.955 781.823 632.458 783.157C632.961 784.492 633.97 785.342 635.487 785.706C636.389 785.923 637.324 785.909 638.293 785.665C639.263 785.421 640.125 784.718 640.881 783.556C640.842 783.72 640.818 783.909 640.81 784.124C640.77 784.288 640.747 784.477 640.738 784.692L640.605 785.245C640.32 786.434 639.834 787.553 639.149 788.602C638.473 789.61 637.677 790.395 636.762 790.955C635.816 791.465 634.851 791.602 633.867 791.365C632.187 790.961 631.177 789.57 630.838 787.191C630.495 784.937 630.417 781.816 630.603 777.826L632.192 767.205C632.597 766.965 633.008 766.789 633.426 766.676C634.446 766.401 635.396 766.326 636.277 766.451C637.167 766.535 637.899 766.646 638.473 766.784C640.236 767.207 641.645 768.109 642.7 769.49C643.715 770.861 644.446 772.511 644.893 774.439C645.34 776.368 645.522 778.406 645.44 780.554C645.357 782.702 645.079 784.759 644.607 786.727C643.642 790.744 642.45 794.078 641.033 796.729C639.574 799.37 637.869 801.236 635.916 802.328C633.931 803.368 631.627 803.574 629.004 802.943C628.263 802.765 627.576 802.547 626.942 802.29ZM607.195 856.01C607.413 855.712 607.428 855.323 607.239 854.843C607.062 854.399 606.715 853.929 606.198 853.435C605.718 852.975 605.178 852.417 604.578 851.761C605.386 852.215 606.054 852.618 606.58 852.97C607.166 853.353 607.698 853.581 608.174 853.652C608.684 853.728 609.064 853.629 609.314 853.353C609.562 853.094 609.712 852.787 609.766 852.429C609.819 852.072 609.767 851.725 609.608 851.388C609.45 851.052 609.116 850.845 608.605 850.769C608.129 850.697 607.546 850.758 606.856 850.95C606.209 851.146 605.449 851.34 604.574 851.532C605.395 851.066 606.087 850.688 606.652 850.398C607.272 850.091 607.733 849.742 608.035 849.353C608.356 848.949 608.464 848.574 608.359 848.228C608.255 847.881 608.055 847.591 607.76 847.355C607.479 847.139 607.15 847.012 606.773 846.973C606.411 846.953 606.069 847.146 605.748 847.55C605.449 847.922 605.213 848.452 605.04 849.14C604.876 849.803 604.657 850.567 604.385 851.43C604.384 850.478 604.4 849.675 604.432 849.022C604.48 848.351 604.417 847.785 604.242 847.324C604.053 846.844 603.783 846.56 603.431 846.473C603.076 846.402 602.723 846.436 602.372 846.575C602.04 846.699 601.765 846.91 601.547 847.208C601.343 847.525 601.335 847.924 601.524 848.405C601.701 848.849 602.048 849.318 602.566 849.813C603.049 850.275 603.592 850.837 604.197 851.499C603.39 851.024 602.72 850.609 602.187 850.252C601.615 849.888 601.083 849.669 600.59 849.595C600.079 849.519 599.7 849.61 599.453 849.869C599.203 850.144 599.05 850.469 598.994 850.844C598.943 851.184 598.997 851.522 599.155 851.859C599.313 852.196 599.648 852.402 600.158 852.479C600.651 852.552 601.236 852.483 601.911 852.271C602.559 852.09 603.323 851.904 604.203 851.712C603.389 852.197 602.692 852.576 602.111 852.849C601.491 853.156 601.031 853.505 600.729 853.894C600.407 854.298 600.299 854.674 600.404 855.02C600.506 855.383 600.706 855.674 601.004 855.892C601.282 856.125 601.602 856.251 601.965 856.271C602.344 856.293 602.694 856.102 603.016 855.698C603.315 855.325 603.552 854.786 603.727 854.082C603.885 853.452 604.095 852.72 604.356 851.886C604.37 852.808 604.354 853.578 604.31 854.195C604.276 854.886 604.346 855.462 604.521 855.923C604.71 856.403 604.982 856.679 605.336 856.749C605.689 856.837 606.04 856.811 606.391 856.672C606.723 856.548 606.991 856.327 607.195 856.01ZM604.38 851.632L604.365 851.624L604.364 851.614L604.371 851.609L604.383 851.615L604.38 851.632ZM644.837 824.865C645.026 825.346 645.011 825.735 644.793 826.032C644.589 826.35 644.321 826.57 643.989 826.695C643.638 826.833 643.286 826.859 642.934 826.772C642.579 826.701 642.308 826.426 642.119 825.945C641.944 825.484 641.874 824.909 641.908 824.218C641.952 823.6 641.967 822.83 641.954 821.909C641.692 822.743 641.483 823.475 641.324 824.105C641.15 824.809 640.912 825.347 640.613 825.72C640.292 826.124 639.942 826.315 639.562 826.293C639.2 826.274 638.88 826.148 638.601 825.915C638.304 825.696 638.104 825.405 638.002 825.042C637.897 824.696 638.005 824.321 638.326 823.917C638.628 823.527 639.089 823.179 639.709 822.872C640.29 822.598 640.987 822.219 641.8 821.734C640.92 821.926 640.156 822.113 639.508 822.294C638.833 822.506 638.249 822.575 637.756 822.501C637.245 822.425 636.911 822.218 636.753 821.881C636.594 821.545 636.541 821.206 636.592 820.866C636.648 820.492 636.801 820.167 637.051 819.891C637.298 819.632 637.677 819.541 638.187 819.618C638.681 819.692 639.213 819.91 639.785 820.274C640.318 820.631 640.988 821.047 641.794 821.521C641.19 820.859 640.646 820.297 640.163 819.835C639.646 819.34 639.299 818.871 639.122 818.427C638.933 817.947 638.94 817.548 639.144 817.231C639.363 816.933 639.638 816.722 639.97 816.597C640.321 816.459 640.674 816.425 641.028 816.495C641.381 816.583 641.651 816.866 641.84 817.347C642.015 817.808 642.078 818.374 642.029 819.045C641.998 819.697 641.982 820.5 641.983 821.453C642.255 820.589 642.473 819.826 642.638 819.162C642.81 818.475 643.046 817.945 643.346 817.572C643.667 817.168 644.009 816.976 644.371 816.995C644.748 817.034 645.077 817.162 645.357 817.378C645.652 817.613 645.852 817.904 645.957 818.25C646.062 818.596 645.954 818.971 645.632 819.375C645.33 819.765 644.87 820.113 644.25 820.421C643.685 820.711 642.992 821.089 642.172 821.555C643.046 821.363 643.807 821.169 644.454 820.973C645.144 820.78 645.727 820.72 646.203 820.791C646.713 820.868 647.048 821.074 647.206 821.411C647.364 821.748 647.417 822.095 647.363 822.452C647.31 822.809 647.159 823.117 646.912 823.376C646.662 823.651 646.282 823.751 645.772 823.674C645.295 823.603 644.764 823.376 644.178 822.992C643.652 822.64 642.984 822.237 642.175 821.783C642.775 822.44 643.315 822.998 643.795 823.457C644.313 823.952 644.66 824.421 644.837 824.865ZM641.963 821.647L641.978 821.655L641.981 821.638L641.969 821.631L641.961 821.637L641.963 821.647ZM654.361 762.093C654.579 761.795 654.594 761.406 654.405 760.926C654.228 760.482 653.881 760.013 653.363 759.518C652.884 759.059 652.343 758.501 651.743 757.844C652.552 758.298 653.22 758.701 653.746 759.053C654.332 759.437 654.863 759.664 655.34 759.735C655.85 759.812 656.23 759.712 656.48 759.436C656.727 759.178 656.878 758.87 656.931 758.513C656.985 758.155 656.932 757.808 656.774 757.472C656.616 757.135 656.281 756.928 655.771 756.852C655.295 756.781 654.712 756.841 654.022 757.034C653.375 757.229 652.614 757.423 651.74 757.616C652.56 757.15 653.253 756.772 653.818 756.481C654.438 756.174 654.899 755.826 655.2 755.436C655.522 755.032 655.63 754.657 655.525 754.311C655.421 753.965 655.221 753.674 654.925 753.438C654.645 753.222 654.316 753.095 653.939 753.056C653.577 753.037 653.235 753.229 652.914 753.633C652.614 754.006 652.379 754.536 652.206 755.223C652.041 755.886 651.823 756.65 651.551 757.513C651.55 756.561 651.566 755.758 651.598 755.106C651.646 754.435 651.583 753.869 651.408 753.408C651.219 752.927 650.949 752.643 650.596 752.556C650.242 752.485 649.889 752.519 649.538 752.658C649.206 752.782 648.931 752.994 648.713 753.291C648.509 753.609 648.501 754.007 648.69 754.488C648.867 754.932 649.214 755.401 649.731 755.896C650.214 756.358 650.758 756.92 651.363 757.582C650.556 757.108 649.886 756.692 649.353 756.335C648.781 755.971 648.249 755.752 647.755 755.678C647.245 755.602 646.866 755.693 646.619 755.952C646.369 756.228 646.216 756.552 646.16 756.927C646.109 757.267 646.163 757.605 646.321 757.942C646.479 758.279 646.813 758.485 647.324 758.562C647.817 758.636 648.401 758.566 649.077 758.354C649.725 758.174 650.488 757.987 651.368 757.795C650.555 758.28 649.858 758.659 649.277 758.932C648.657 759.24 648.196 759.588 647.895 759.978C647.573 760.382 647.465 760.757 647.57 761.103C647.672 761.466 647.872 761.757 648.17 761.975C648.448 762.208 648.768 762.334 649.13 762.354C649.51 762.376 649.86 762.185 650.181 761.781C650.481 761.408 650.718 760.87 650.893 760.165C651.051 759.535 651.261 758.803 651.522 757.969C651.536 758.891 651.52 759.661 651.476 760.279C651.442 760.969 651.512 761.545 651.687 762.006C651.876 762.486 652.148 762.762 652.502 762.832C652.854 762.92 653.206 762.894 653.557 762.755C653.889 762.631 654.157 762.41 654.361 762.093ZM651.546 757.715L651.531 757.708L651.529 757.698L651.537 757.692L651.549 757.698L651.546 757.715ZM541.123 846.123C541.342 845.825 541.357 845.436 541.168 844.955C540.991 844.511 540.643 844.042 540.126 843.547C539.646 843.088 539.106 842.53 538.506 841.873C539.315 842.327 539.982 842.731 540.509 843.083C541.095 843.466 541.626 843.693 542.102 843.765C542.613 843.841 542.993 843.742 543.243 843.466C543.49 843.207 543.641 842.899 543.694 842.542C543.747 842.185 543.695 841.838 543.537 841.501C543.378 841.164 543.044 840.958 542.534 840.881C542.057 840.81 541.474 840.871 540.785 841.063C540.138 841.259 539.377 841.453 538.503 841.645C539.323 841.179 540.016 840.801 540.581 840.511C541.2 840.204 541.661 839.855 541.963 839.466C542.284 839.062 542.393 838.686 542.288 838.34C542.183 837.994 541.983 837.703 541.688 837.468C541.407 837.252 541.079 837.125 540.702 837.086C540.339 837.066 539.998 837.258 539.676 837.663C539.377 838.035 539.141 838.565 538.969 839.252C538.804 839.916 538.586 840.679 538.314 841.543C538.313 840.59 538.328 839.788 538.36 839.135C538.408 838.464 538.345 837.898 538.171 837.437C537.982 836.957 537.711 836.673 537.359 836.585C537.005 836.515 536.652 836.549 536.3 836.688C535.969 836.812 535.694 837.023 535.475 837.321C535.271 837.638 535.264 838.037 535.453 838.518C535.63 838.961 535.977 839.431 536.494 839.926C536.977 840.387 537.521 840.949 538.125 841.611C537.319 841.137 536.649 840.721 536.115 840.365C535.544 840.001 535.011 839.782 534.518 839.708C534.008 839.632 533.629 839.723 533.381 839.981C533.131 840.257 532.978 840.582 532.922 840.956C532.872 841.297 532.925 841.635 533.084 841.972C533.242 842.308 533.576 842.515 534.086 842.591C534.58 842.665 535.164 842.596 535.839 842.384C536.487 842.203 537.251 842.017 538.131 841.825C537.318 842.31 536.621 842.689 536.04 842.962C535.42 843.269 534.959 843.618 534.657 844.007C534.336 844.411 534.228 844.786 534.332 845.133C534.435 845.496 534.634 845.786 534.932 846.005C535.21 846.238 535.531 846.364 535.893 846.383C536.272 846.405 536.623 846.214 536.944 845.81C537.243 845.438 537.48 844.899 537.655 844.195C537.813 843.565 538.023 842.833 538.285 841.999C538.298 842.921 538.283 843.69 538.238 844.308C538.205 844.999 538.275 845.575 538.449 846.036C538.638 846.516 538.91 846.792 539.265 846.862C539.617 846.949 539.969 846.924 540.32 846.785C540.652 846.661 540.919 846.44 541.123 846.123ZM538.309 841.745L538.294 841.737L538.292 841.727L538.299 841.722L538.311 841.728L538.309 841.745Z" fill="white"/>
</svg>
