<svg width="1403" height="1095" viewBox="0 0 1403 1095" fill="none" xmlns="http://www.w3.org/2000/svg">
<path d="M667.917 995.985L667.683 997.397L0.495117 802.159L232.038 10.9065L797.363 176.876L1380.64 252.411L1274.12 1074.95L667.917 995.985Z" fill="#F0572F"/>
<path d="M1286.56 1062.88L1285.91 1067.94L1281.26 1067.34L1281.06 1068.91L674.851 989.945L674.617 991.357L7.42871 796.118L238.972 4.86597L243.177 6.10059L243.822 3.89557L251.711 6.21161L253.524 0.0148926L818.851 165.985L1402.13 241.519L1295.61 1064.06L1286.56 1062.88Z" fill="white"/>
<path d="M790.97 156.805C827.118 154.368 835.913 150.724 849.051 156.805C872.657 167.731 863.113 166.772 856.7 175.988C850.288 185.204 746.64 707.423 698.517 925.308L685.447 899.695L658.818 916.422L811.244 165.169L790.97 156.805Z" fill="#F0572F"/>
<path d="M1215.84 784.174C1140.77 748.177 1057.26 731.631 974.901 723.487C966.901 722.696 958.904 721.881 950.902 721.114C950.467 721.072 918.585 718.012 915.784 718.153C908.16 718.537 905.616 721.801 912.897 728.363C928.445 742.377 957.811 756.258 974.97 763.342C1031.45 786.66 1091.51 802.797 1150.46 818.495C1162.46 821.692 1199.5 833.33 1217 830.665C1230.65 828.587 1228.88 819.678 1225.32 809.942C1217.96 789.815 1199.34 776.897 1180.94 767.838C1165.79 760.382 1133.54 749.029 1118.49 744.342C1093.83 736.658 1061.85 728.445 1036.6 723.444C1002.2 716.634 967.054 712.124 931.965 711.561C931.665 711.557 909.631 709.668 905.811 715.46C901.308 722.288 913.213 730.845 919.909 735.541C960.503 764.013 1011.7 778.142 1057.86 794.065C1091.52 805.677 1125.31 816.899 1158.98 828.469C1166.9 831.189 1174.79 834.016 1182.76 836.579C1186.28 837.714 1189.77 839.339 1193.47 839.558C1201.8 840.051 1197.85 819.366 1197.64 818.468C1188.49 779.269 1148.61 760.293 1114.59 746.686C1073.06 730.071 1028.96 719.115 985.304 709.754C963.616 705.103 942.075 701.81 920.089 699.636" stroke="#F0572F" stroke-width="3" stroke-linecap="round"/>
<path fill-rule="evenodd" clip-rule="evenodd" d="M364.554 42.6333L233.153 4.24499L194.765 135.646C192.826 142.281 196.634 149.231 203.268 151.17L215.073 154.618L216.947 148.203C216.081 147.933 215.271 147.593 214.516 147.182C213.649 146.72 212.844 146.193 212.099 145.6L206.975 148.359L201.954 139.194L207.078 136.435C206.941 135.477 206.905 134.528 206.971 133.587C207.049 132.608 207.228 131.638 207.509 130.677C207.801 129.678 208.191 128.77 208.68 127.953C209.142 127.086 209.669 126.281 210.262 125.536L207.446 120.395L216.611 115.374L219.427 120.515C220.374 120.417 221.337 120.406 222.316 120.483C223.173 120.543 224.039 120.693 224.914 120.932L230.56 101.605C229.868 101.9 229.092 102.109 228.233 102.233C226.079 102.579 223.821 102.291 221.458 101.371C218.562 100.242 216.403 98.3478 214.981 95.687C213.56 93.0263 212.882 89.8651 212.948 86.2036C213.051 82.5569 213.905 78.6756 215.509 74.5597C216.919 70.9393 218.498 67.8452 220.244 65.2774C221.976 62.7478 223.83 60.7487 225.807 59.2802C227.822 57.8265 229.906 56.9267 232.06 56.5807C234.199 56.2728 236.374 56.5495 238.585 57.4106C240.265 58.0652 241.645 58.918 242.724 59.9688L247.071 45.0899C246.381 45.1047 245.714 45.0378 245.069 44.8892C243.642 44.5411 242.454 43.87 241.503 42.8759C240.481 41.8073 239.729 40.6475 239.247 39.3964C238.739 38.1691 238.33 36.8954 238.019 35.5753C237.684 34.2789 237.286 33.0176 236.827 31.7914C236.32 30.5641 235.591 29.4534 234.641 28.4594C233.785 27.5647 232.802 26.959 231.69 26.6422C230.554 26.3492 229.261 26.5148 227.813 27.1389L227.283 26.361C228.818 25.1309 230.393 24.2908 232.008 23.8406C233.599 23.4143 235.095 23.3628 236.499 23.6861C237.902 24.0094 239.091 24.6805 240.065 25.6994C241.086 26.768 241.851 27.9159 242.358 29.1432C242.841 30.3943 243.25 31.668 243.586 32.9644C243.897 34.2845 244.294 35.5458 244.778 36.7483C245.237 37.9745 245.953 39.097 246.927 40.1159C247.326 40.5332 247.756 40.885 248.216 41.1713L250.032 34.9555L257.198 37.0492C257.293 36.7162 257.35 36.384 257.368 36.0527C257.402 34.8974 257.121 33.777 256.527 32.6914C255.866 31.4853 255.027 30.4551 254.01 29.6008C252.98 28.7932 251.897 28.0337 250.763 27.3223C249.598 26.6274 248.507 25.8528 247.49 24.9985C246.443 24.1608 245.565 23.0936 244.854 21.797C244.194 20.5908 243.913 19.255 244.011 17.7895C244.127 16.3542 244.643 14.9346 245.56 13.5307C246.446 12.1434 247.707 10.9035 249.344 9.81118L249.925 10.551C248.91 11.7739 248.377 12.948 248.327 14.0731C248.263 15.2449 248.528 16.3736 249.123 17.4591C249.8 18.6955 250.654 19.7174 251.685 20.525C252.685 21.3492 253.767 22.1087 254.932 22.8035C256.067 23.5149 257.157 24.2895 258.204 25.1273C259.221 25.9815 260.085 27.057 260.795 28.3536C261.472 29.59 261.753 30.9258 261.638 32.3611C261.523 33.7964 261.022 35.2078 260.135 36.5951C259.893 36.9654 259.627 37.3248 259.335 37.6734L271.48 41.2215C271.395 40.2411 271.433 39.1978 271.594 38.0918C271.936 35.7443 272.769 33.7164 274.092 32.008C275.456 30.3054 277.268 28.9368 279.526 27.9019C281.779 26.9075 284.433 26.2816 287.488 26.0241C290.583 25.7724 294.053 25.9267 297.898 26.4869C302.269 27.1238 306.066 28.2971 309.289 30.0066C312.506 31.7567 314.92 33.9065 316.533 36.456C318.145 39.0056 318.727 41.8183 318.279 44.8942C317.914 47.4036 317.049 49.5095 315.685 51.212C314.938 52.1759 314.125 52.9132 313.247 53.4238L335 59.7787C335.01 59.7429 335.02 59.7072 335.03 59.6715C335.039 59.6387 335.049 59.6058 335.058 59.5729C335.35 58.5734 335.741 57.6652 336.23 56.8484C336.692 55.9819 337.219 55.1763 337.812 54.4317L334.996 49.2903L344.161 44.2697L346.977 49.411C347.924 49.3121 348.887 49.3013 349.865 49.3786C350.806 49.4447 351.757 49.6181 352.718 49.8989C353.679 50.1797 354.593 50.551 355.459 51.0127C356.287 51.4633 357.068 52.0043 357.801 52.6358L362.959 49.7617L367.98 58.9266L362.822 61.8007C362.921 62.7476 362.932 63.7104 362.854 64.6892C362.788 65.6296 362.615 66.5803 362.334 67.5414C362.325 67.5718 362.316 67.6022 362.307 67.6326C362.296 67.6706 362.284 67.7084 362.273 67.7463L369.629 69.8953L373.058 58.1566C374.996 51.5217 371.189 44.5717 364.554 42.6333ZM342.505 61.9712L354.768 65.5539C354.805 65.4497 354.84 65.3437 354.871 65.236C355.163 64.2364 355.158 63.2544 354.856 62.2898C354.515 61.3141 353.951 60.4608 353.163 59.7299C352.386 58.9606 351.44 58.4131 350.325 58.0874C349.211 57.7617 348.119 57.7139 347.05 57.9441C345.954 58.1247 345.019 58.54 344.245 59.1901C343.433 59.8289 342.881 60.6481 342.589 61.6476C342.557 61.7554 342.529 61.8633 342.505 61.9712ZM219.373 139.897L222.521 129.122C221.495 128.86 220.488 128.836 219.5 129.049C218.405 129.229 217.47 129.644 216.696 130.295C215.883 130.933 215.331 131.753 215.039 132.752C214.747 133.752 214.766 134.758 215.095 135.773C215.398 136.737 215.956 137.61 216.771 138.39C217.499 139.066 218.366 139.568 219.373 139.897ZM304.671 50.9181L304.632 50.9035C304.314 50.8158 303.979 50.705 303.626 50.571C299.529 49.1887 296.453 47.8931 294.397 46.6843C292.376 45.5218 291.486 44.1108 291.728 42.4514C291.869 41.4801 292.34 40.6601 293.14 39.9913C293.975 39.369 294.968 38.935 296.12 38.6895C297.312 38.4499 298.495 38.4156 299.669 38.5866L300.215 38.6663C300.412 38.7362 300.591 38.783 300.753 38.8066C300.949 38.8765 301.128 38.9233 301.29 38.9469C299.971 39.2093 299.026 39.733 298.457 40.5181C297.888 41.3031 297.539 42.1409 297.409 43.0313C297.191 44.5288 297.593 45.7446 298.614 46.6787C299.635 47.6128 300.975 48.2007 302.635 48.4425C304.415 48.702 305.853 48.4775 306.949 47.7691C308.084 47.0667 308.755 46.0071 308.962 44.5906C309.156 43.255 308.911 42.1032 308.225 41.1354C307.58 40.1734 306.579 39.3868 305.221 38.7757C303.858 38.205 302.205 37.7782 300.262 37.4951C298.36 37.2179 296.595 37.2708 294.969 37.6538C293.377 38.0832 292.047 38.8401 290.98 39.9245C289.953 41.0149 289.307 42.4707 289.042 44.292C288.94 44.9917 288.893 45.6648 288.901 46.3112L279.442 43.5477C279.467 43.2577 279.502 42.9619 279.546 42.6603C279.923 40.0701 280.938 38.0687 282.591 36.6562C284.278 35.29 286.573 34.4259 289.478 34.0639C292.377 33.7423 295.809 33.8704 299.776 34.4483C301.719 34.7314 303.672 35.2228 305.637 35.9223C307.602 36.6219 309.372 37.5205 310.948 38.6182C312.524 39.7158 313.747 40.9686 314.616 42.3766C315.48 43.825 315.785 45.4194 315.531 47.1598C315.449 47.7264 315.285 48.4258 315.039 49.258C314.835 50.0962 314.425 50.9251 313.809 51.7447C313.411 52.2747 312.877 52.733 312.206 53.1195L304.671 50.9181ZM240.53 67.4804L237.78 76.8907C237.069 76.4108 236.264 75.9958 235.365 75.6456C233.65 74.9774 232.065 74.8208 230.61 75.1757C229.14 75.5687 227.825 76.3514 226.666 77.524C225.53 78.7494 224.614 80.2578 223.916 82.049C223.203 83.8782 222.758 85.5266 222.582 86.9941C222.443 88.4764 222.633 89.7356 223.151 90.7714C223.655 91.8454 224.535 92.6274 225.793 93.1174C227.127 93.6371 228.379 93.5764 229.551 92.9354C230.707 92.3326 231.612 91.1927 232.266 89.5159C232.874 87.9534 233.025 86.4975 232.716 85.1483C232.408 83.7991 231.549 82.8499 230.139 82.3005C229.3 81.9739 228.399 81.8643 227.436 81.9717C226.472 82.0791 225.55 82.6419 224.671 83.66C224.73 83.5075 224.778 83.3286 224.814 83.1232C224.873 82.9708 224.921 82.7918 224.957 82.5864L225.158 82.0719C225.588 80.9667 226.202 79.9548 226.999 79.0362C227.781 78.1557 228.649 77.5061 229.602 77.0874C230.578 76.7216 231.524 76.7169 232.438 77.0732C234.001 77.682 234.789 79.1522 234.802 81.4838C234.836 83.6949 234.502 86.706 233.799 90.5172L230.878 100.518C230.457 100.695 230.039 100.811 229.622 100.864C228.606 100.995 227.682 100.943 226.852 100.707C226.007 100.509 225.318 100.307 224.785 100.099C223.146 99.4605 221.91 98.4083 221.076 96.9423C220.281 95.4912 219.795 93.8094 219.618 91.897C219.441 89.9846 219.534 88.0014 219.895 85.9474C220.256 83.8934 220.793 81.9517 221.506 80.1225C222.961 76.3877 224.544 73.3391 226.254 70.9767C228.003 68.6292 229.887 67.059 231.908 66.2661C233.952 65.5261 236.194 65.6313 238.633 66.5815C239.322 66.85 239.954 67.1496 240.53 67.4804ZM266.563 18.4314C266.314 18.6889 266.249 19.061 266.367 19.5477C266.479 19.9977 266.751 20.4944 267.184 21.0379C267.585 21.5423 268.031 22.1495 268.521 22.8596C267.803 22.3171 267.215 21.8419 266.755 21.4342C266.242 20.9888 265.761 20.7006 265.312 20.5695C264.832 20.4291 264.453 20.475 264.177 20.7072C263.905 20.9234 263.72 21.1996 263.622 21.536C263.524 21.8724 263.528 22.2128 263.636 22.5573C263.744 22.9018 264.039 23.1442 264.519 23.2846C264.968 23.4156 265.536 23.4339 266.224 23.3394C266.872 23.2361 267.629 23.1495 268.494 23.0796C267.645 23.4197 266.929 23.6923 266.348 23.8972C265.712 24.1112 265.223 24.3856 264.882 24.7206C264.52 25.0668 264.367 25.4132 264.422 25.7597C264.477 26.1061 264.631 26.4119 264.884 26.677C265.126 26.9214 265.425 27.0871 265.782 27.174C266.128 27.2403 266.482 27.1003 266.844 26.754C267.18 26.4351 267.476 25.9566 267.732 25.3186C267.978 24.7024 268.288 23.997 268.663 23.2026C268.539 24.1184 268.418 24.8879 268.302 25.5111C268.168 26.1498 268.154 26.7022 268.261 27.1681C268.38 27.6548 268.603 27.9633 268.93 28.0936C269.261 28.2079 269.605 28.2214 269.961 28.1341C270.296 28.0581 270.588 27.8914 270.837 27.6338C271.075 27.3556 271.135 26.9731 271.016 26.4865C270.904 26.0365 270.632 25.5398 270.2 24.9963C269.796 24.4888 269.347 23.8773 268.853 23.1615C269.566 23.7233 270.155 24.2108 270.621 24.624C271.123 25.0487 271.606 25.329 272.071 25.4647C272.551 25.605 272.927 25.5672 273.199 25.351C273.476 25.1188 273.665 24.8266 273.768 24.4742C273.862 24.1538 273.855 23.8214 273.747 23.4769C273.639 23.1324 273.344 22.89 272.864 22.7496C272.399 22.6139 271.829 22.6036 271.152 22.7188C270.505 22.8076 269.746 22.8866 268.875 22.9558C269.721 22.5963 270.44 22.3234 271.035 22.137C271.671 21.923 272.16 21.6486 272.501 21.3136C272.863 20.9674 273.016 20.621 272.961 20.2745C272.911 19.912 272.756 19.6063 272.499 19.3572C272.262 19.0967 271.971 18.9334 271.625 18.8672C271.263 18.7962 270.901 18.9339 270.54 19.2802C270.203 19.5991 269.904 20.0856 269.644 20.7397C269.409 21.3246 269.111 22.0008 268.75 22.768C268.858 21.8804 268.974 21.1424 269.098 20.5542C269.221 19.8947 269.229 19.332 269.122 18.8661C269.003 18.3794 268.778 18.0789 268.446 17.9646C268.119 17.8343 267.778 17.8128 267.422 17.9001C267.087 17.976 266.801 18.1531 266.563 18.4314ZM268.694 23.0091L268.707 23.0185L268.708 23.0284L268.7 23.0326L268.689 23.0251L268.694 23.0091ZM226.29 43.4303C226.172 42.9436 226.237 42.5715 226.486 42.314C226.724 42.0357 227.01 41.8587 227.345 41.7827C227.701 41.6954 228.043 41.7169 228.37 41.8472C228.701 41.9615 228.926 42.262 229.045 42.7487C229.152 43.2146 229.144 43.7773 229.021 44.4368C228.897 45.025 228.781 45.763 228.673 46.6507C229.034 45.8834 229.332 45.2072 229.567 44.6223C229.827 43.9682 230.126 43.4817 230.463 43.1628C230.825 42.8165 231.186 42.6789 231.548 42.7498C231.894 42.816 232.185 42.9793 232.422 43.2398C232.68 43.4889 232.834 43.7947 232.884 44.1571C232.939 44.5036 232.786 44.85 232.424 45.1962C232.083 45.5312 231.594 45.8056 230.958 46.0196C230.364 46.206 229.644 46.4789 228.798 46.8384C229.669 46.7692 230.428 46.6902 231.075 46.6014C231.752 46.4862 232.322 46.4965 232.787 46.6322C233.268 46.7726 233.562 47.015 233.67 47.3595C233.778 47.704 233.785 48.0364 233.691 48.3568C233.588 48.7092 233.399 49.0015 233.122 49.2336C232.851 49.4498 232.474 49.4877 231.994 49.3473C231.529 49.2116 231.046 48.9313 230.544 48.5066C230.078 48.0934 229.489 47.6059 228.776 47.0441C229.27 47.7599 229.719 48.3714 230.123 48.8789C230.555 49.4224 230.827 49.9191 230.939 50.3691C231.058 50.8558 230.998 51.2382 230.76 51.5165C230.511 51.774 230.219 51.9408 229.884 52.0167C229.528 52.104 229.184 52.0905 228.853 51.9762C228.526 51.8459 228.303 51.5374 228.184 51.0507C228.077 50.5848 228.091 50.0324 228.225 49.3937C228.341 48.7705 228.462 48.001 228.586 47.0852C228.211 47.8796 227.901 48.585 227.655 49.2012C227.399 49.8392 227.103 50.3177 226.767 50.6366C226.405 50.9829 226.051 51.1229 225.705 51.0567C225.348 50.9697 225.049 50.804 224.807 50.5596C224.554 50.2945 224.4 49.9887 224.345 49.6423C224.29 49.2958 224.443 48.9494 224.805 48.6032C225.146 48.2682 225.635 47.9938 226.271 47.7798C226.852 47.5749 227.568 47.3024 228.418 46.9622C227.552 47.0321 226.795 47.1187 226.147 47.222C225.459 47.3165 224.891 47.2982 224.442 47.1672C223.962 47.0268 223.667 46.7844 223.559 46.4399C223.452 46.0954 223.447 45.755 223.545 45.4186C223.643 45.0822 223.828 44.806 224.1 44.5898C224.376 44.3576 224.755 44.3117 225.235 44.4521C225.684 44.5832 226.165 44.8714 226.678 45.3169C227.138 45.7245 227.727 46.1997 228.444 46.7422C227.954 46.0321 227.508 45.4249 227.107 44.9206C226.674 44.377 226.402 43.8803 226.29 43.4303ZM228.631 46.9011L228.617 46.8917L228.612 46.9077L228.623 46.9152L228.631 46.911L228.631 46.9011ZM208.896 102.523C208.647 102.78 208.582 103.152 208.701 103.639C208.813 104.089 209.085 104.586 209.517 105.129C209.918 105.634 210.364 106.241 210.855 106.951C210.137 106.408 209.548 105.933 209.088 105.525C208.575 105.08 208.094 104.792 207.646 104.661C207.165 104.52 206.787 104.566 206.51 104.798C206.239 105.015 206.054 105.291 205.955 105.627C205.857 105.964 205.862 106.304 205.97 106.649C206.078 106.993 206.372 107.235 206.853 107.376C207.301 107.507 207.869 107.525 208.558 107.431C209.205 107.327 209.962 107.241 210.828 107.171C209.978 107.511 209.263 107.784 208.682 107.988C208.045 108.202 207.557 108.477 207.215 108.812C206.853 109.158 206.7 109.504 206.755 109.851C206.811 110.197 206.965 110.503 207.218 110.768C207.459 111.013 207.758 111.178 208.115 111.265C208.461 111.332 208.815 111.192 209.177 110.845C209.514 110.526 209.81 110.048 210.066 109.41C210.311 108.794 210.621 108.088 210.996 107.294C210.872 108.21 210.752 108.979 210.635 109.602C210.501 110.241 210.487 110.793 210.595 111.259C210.713 111.746 210.936 112.055 211.263 112.185C211.595 112.299 211.938 112.313 212.294 112.225C212.629 112.149 212.922 111.983 213.171 111.725C213.408 111.447 213.468 111.064 213.349 110.578C213.237 110.128 212.965 109.631 212.533 109.087C212.129 108.58 211.681 107.968 211.186 107.253C211.899 107.815 212.489 108.302 212.955 108.715C213.456 109.14 213.94 109.42 214.404 109.556C214.885 109.696 215.261 109.658 215.533 109.442C215.809 109.21 215.999 108.918 216.102 108.565C216.195 108.245 216.188 107.913 216.08 107.568C215.972 107.224 215.678 106.981 215.197 106.841C214.733 106.705 214.162 106.695 213.485 106.81C212.839 106.899 212.08 106.978 211.209 107.047C212.054 106.688 212.774 106.415 213.368 106.228C214.005 106.014 214.493 105.74 214.835 105.405C215.196 105.059 215.35 104.712 215.295 104.366C215.244 104.003 215.09 103.698 214.832 103.448C214.596 103.188 214.304 103.025 213.958 102.958C213.597 102.887 213.235 103.025 212.873 103.371C212.536 103.69 212.238 104.177 211.977 104.831C211.743 105.416 211.445 106.092 211.084 106.859C211.192 105.972 211.308 105.234 211.432 104.645C211.555 103.986 211.563 103.423 211.455 102.957C211.337 102.471 211.112 102.17 210.78 102.056C210.453 101.926 210.111 101.904 209.756 101.991C209.421 102.067 209.134 102.244 208.896 102.523ZM211.027 107.1L211.041 107.11L211.041 107.12L211.033 107.124L211.023 107.116L211.027 107.1ZM328.779 36.6077C328.53 36.8652 328.465 37.2373 328.584 37.724C328.696 38.1739 328.968 38.6707 329.4 39.2142C329.801 39.7186 330.247 40.3258 330.738 41.0359C330.02 40.4933 329.431 40.0182 328.971 39.6105C328.458 39.1651 327.977 38.8768 327.529 38.7458C327.048 38.6054 326.67 38.6513 326.393 38.8835C326.122 39.0996 325.937 39.3759 325.838 39.7123C325.74 40.0487 325.745 40.3891 325.853 40.7336C325.961 41.0781 326.255 41.3205 326.736 41.4609C327.184 41.5919 327.753 41.6102 328.441 41.5157C329.089 41.4124 329.845 41.3258 330.711 41.2559C329.861 41.596 329.146 41.8686 328.565 42.0735C327.929 42.2874 327.44 42.5619 327.099 42.8968C326.737 43.2431 326.583 43.5895 326.639 43.9359C326.694 44.2824 326.848 44.5882 327.101 44.8533C327.342 45.0977 327.642 45.2634 327.999 45.3503C328.344 45.4166 328.698 45.2765 329.06 44.9303C329.397 44.6113 329.693 44.1329 329.949 43.4948C330.194 42.8787 330.505 42.1733 330.879 41.3788C330.755 42.2947 330.635 43.0642 330.519 43.6873C330.384 44.3261 330.37 44.8784 330.478 45.3444C330.596 45.8311 330.819 46.1396 331.146 46.2699C331.478 46.3842 331.822 46.3977 332.177 46.3104C332.513 46.2344 332.805 46.0677 333.054 45.8101C333.292 45.5319 333.351 45.1494 333.232 44.6628C333.121 44.2128 332.848 43.7161 332.416 43.1725C332.013 42.6651 331.564 42.0535 331.069 41.3378C331.782 41.8996 332.372 42.387 332.838 42.8002C333.34 43.225 333.823 43.5052 334.287 43.6409C334.768 43.7813 335.144 43.7435 335.416 43.5273C335.692 43.2951 335.882 43.0028 335.985 42.6504C336.078 42.3301 336.071 41.9977 335.963 41.6532C335.855 41.3087 335.561 41.0663 335.08 40.9259C334.616 40.7902 334.045 40.7799 333.368 40.8951C332.722 40.9838 331.963 41.0628 331.092 41.1321C331.937 40.7726 332.657 40.4996 333.251 40.3133C333.888 40.0993 334.376 39.8249 334.718 39.4899C335.08 39.1436 335.233 38.7973 335.178 38.4508C335.127 38.0883 334.973 37.7825 334.716 37.5334C334.479 37.273 334.187 37.1097 333.842 37.0434C333.48 36.9725 333.118 37.1102 332.756 37.4565C332.42 37.7754 332.121 38.2619 331.86 38.9159C331.626 39.5009 331.328 40.177 330.967 40.9443C331.075 40.0566 331.191 39.3187 331.315 38.7305C331.438 38.071 331.446 37.5083 331.338 37.0423C331.22 36.5557 330.995 36.2552 330.663 36.1409C330.336 36.0106 329.995 35.9891 329.639 36.0764C329.304 36.1523 329.017 36.3294 328.779 36.6077ZM330.91 41.1854L330.924 41.1948L330.924 41.2046L330.917 41.2089L330.906 41.2014L330.91 41.1854Z" fill="white"/>
<path fill-rule="evenodd" clip-rule="evenodd" d="M1150.33 1058.81L1285.96 1077.38L1304.53 941.748C1305.47 934.9 1300.67 928.588 1293.83 927.651L1281.64 925.982L1280.73 932.604C1281.63 932.743 1282.48 932.96 1283.29 933.255C1284.22 933.584 1285.09 933.986 1285.91 934.463L1290.57 930.978L1296.89 939.301L1292.23 942.786C1292.51 943.714 1292.69 944.647 1292.76 945.587C1292.83 946.566 1292.79 947.552 1292.66 948.544C1292.52 949.576 1292.26 950.532 1291.9 951.412C1291.57 952.337 1291.17 953.212 1290.69 954.036L1294.24 958.705L1285.91 965.023L1282.37 960.354C1281.45 960.592 1280.5 960.745 1279.52 960.813C1278.66 960.88 1277.78 960.86 1276.88 960.753L1274.15 980.701C1274.79 980.307 1275.53 979.986 1276.36 979.737C1278.44 979.077 1280.71 979.027 1283.19 979.589C1286.22 980.277 1288.63 981.833 1290.43 984.254C1292.23 986.676 1293.37 989.703 1293.84 993.334C1294.28 996.956 1294.01 1000.92 1293.03 1005.23C1292.17 1009.02 1291.06 1012.31 1289.71 1015.11C1288.38 1017.87 1286.84 1020.12 1285.1 1021.86C1283.32 1023.6 1281.39 1024.79 1279.31 1025.45C1277.24 1026.07 1275.05 1026.12 1272.74 1025.6C1270.98 1025.2 1269.49 1024.56 1268.26 1023.68L1266.16 1039.03C1266.84 1038.92 1267.51 1038.89 1268.17 1038.94C1269.63 1039.07 1270.91 1039.56 1272 1040.4C1273.16 1041.31 1274.08 1042.34 1274.74 1043.51C1275.42 1044.65 1276.02 1045.85 1276.52 1047.11C1277.04 1048.34 1277.62 1049.53 1278.26 1050.67C1278.94 1051.81 1279.82 1052.8 1280.91 1053.65C1281.89 1054.41 1282.95 1054.86 1284.1 1055.01C1285.26 1055.13 1286.52 1054.78 1287.86 1053.95L1288.5 1054.64C1287.16 1056.08 1285.73 1057.14 1284.2 1057.83C1282.69 1058.48 1281.21 1058.76 1279.78 1058.64C1278.34 1058.53 1277.07 1058.04 1275.95 1057.18C1274.79 1056.27 1273.86 1055.25 1273.18 1054.11C1272.51 1052.94 1271.92 1051.74 1271.4 1050.51C1270.9 1049.25 1270.32 1048.06 1269.66 1046.95C1269.03 1045.8 1268.15 1044.8 1267.04 1043.93C1266.58 1043.58 1266.11 1043.29 1265.61 1043.08L1264.73 1049.49L1257.33 1048.48C1257.29 1048.83 1257.28 1049.16 1257.31 1049.49C1257.45 1050.64 1257.89 1051.71 1258.64 1052.69C1259.47 1053.79 1260.45 1054.68 1261.59 1055.38C1262.72 1056.02 1263.91 1056.62 1265.13 1057.15C1266.39 1057.67 1267.58 1058.27 1268.71 1058.97C1269.87 1059.64 1270.9 1060.57 1271.79 1061.74C1272.62 1062.84 1273.1 1064.12 1273.22 1065.58C1273.32 1067.02 1273.01 1068.5 1272.32 1070.02C1271.64 1071.53 1270.58 1072.94 1269.12 1074.26L1268.44 1073.62C1269.26 1072.26 1269.62 1071.02 1269.5 1069.9C1269.39 1068.73 1268.96 1067.65 1268.21 1066.67C1267.36 1065.54 1266.36 1064.66 1265.23 1064.01C1264.11 1063.34 1262.93 1062.75 1261.68 1062.24C1260.45 1061.7 1259.26 1061.1 1258.1 1060.42C1256.97 1059.73 1255.95 1058.79 1255.06 1057.61C1254.21 1056.49 1253.73 1055.21 1253.63 1053.77C1253.54 1052.34 1253.82 1050.87 1254.49 1049.36C1254.68 1048.96 1254.89 1048.57 1255.13 1048.18L1242.59 1046.46C1242.82 1047.42 1242.94 1048.46 1242.94 1049.58C1242.95 1051.95 1242.42 1054.08 1241.37 1055.96C1240.27 1057.85 1238.68 1059.47 1236.6 1060.82C1234.52 1062.14 1231.99 1063.15 1229 1063.86C1225.98 1064.56 1222.52 1064.92 1218.64 1064.94C1214.22 1064.95 1210.29 1064.35 1206.85 1063.14C1203.41 1061.88 1200.71 1060.11 1198.74 1057.83C1196.76 1055.54 1195.77 1052.85 1195.76 1049.74C1195.75 1047.2 1196.3 1044.99 1197.4 1043.11C1197.99 1042.04 1198.69 1041.19 1199.48 1040.56L1177.03 1037.49C1177.02 1037.52 1177.02 1037.56 1177.01 1037.6C1177.01 1037.63 1177.01 1037.66 1177 1037.7C1176.86 1038.73 1176.61 1039.69 1176.24 1040.57C1175.92 1041.49 1175.51 1042.37 1175.04 1043.19L1178.58 1047.86L1170.26 1054.18L1166.71 1049.51C1165.79 1049.75 1164.84 1049.9 1163.86 1049.97C1162.92 1050.04 1161.95 1050.01 1160.96 1049.87C1159.97 1049.74 1159.01 1049.5 1158.09 1049.18C1157.2 1048.85 1156.35 1048.43 1155.53 1047.92L1150.85 1051.52L1144.53 1043.2L1149.21 1039.59C1148.97 1038.67 1148.82 1037.72 1148.75 1036.74C1148.68 1035.8 1148.71 1034.84 1148.85 1033.84C1148.85 1033.81 1148.86 1033.78 1148.86 1033.75C1148.87 1033.71 1148.87 1033.67 1148.88 1033.63L1141.29 1032.59L1139.63 1044.71C1138.69 1051.56 1143.48 1057.87 1150.33 1058.81ZM1169.28 1036.43L1156.62 1034.69C1156.6 1034.8 1156.58 1034.91 1156.57 1035.02C1156.43 1036.05 1156.58 1037.02 1157.02 1037.93C1157.5 1038.85 1158.18 1039.61 1159.07 1040.22C1159.95 1040.86 1160.97 1041.26 1162.12 1041.42C1163.27 1041.58 1164.36 1041.46 1165.38 1041.08C1166.44 1040.74 1167.3 1040.19 1167.97 1039.43C1168.68 1038.68 1169.11 1037.79 1169.25 1036.76C1169.26 1036.65 1169.27 1036.54 1169.28 1036.43ZM1279.56 941.177L1278.04 952.298C1279.09 952.406 1280.09 952.281 1281.04 951.925C1282.09 951.585 1282.96 951.036 1283.63 950.279C1284.34 949.527 1284.76 948.635 1284.9 947.604C1285.04 946.572 1284.88 945.579 1284.4 944.625C1283.96 943.715 1283.28 942.935 1282.36 942.283C1281.54 941.723 1280.61 941.354 1279.56 941.177ZM1208.33 1041.77L1208.37 1041.78C1208.7 1041.82 1209.05 1041.88 1209.42 1041.96C1213.67 1042.72 1216.91 1043.55 1219.12 1044.44C1221.29 1045.29 1222.38 1046.56 1222.38 1048.24C1222.39 1049.22 1222.04 1050.1 1221.35 1050.88C1220.62 1051.62 1219.7 1052.19 1218.6 1052.6C1217.45 1053.02 1216.29 1053.23 1215.1 1053.23L1214.55 1053.23C1214.34 1053.19 1214.16 1053.17 1214 1053.17C1213.79 1053.13 1213.61 1053.11 1213.44 1053.11C1214.71 1052.66 1215.57 1052 1216.01 1051.14C1216.46 1050.28 1216.68 1049.4 1216.68 1048.5C1216.67 1046.99 1216.1 1045.84 1214.95 1045.07C1213.8 1044.3 1212.39 1043.91 1210.71 1043.92C1208.91 1043.93 1207.52 1044.36 1206.54 1045.22C1205.53 1046.09 1205.02 1047.23 1205.02 1048.66C1205.03 1050.01 1205.44 1051.12 1206.26 1051.97C1207.04 1052.83 1208.15 1053.46 1209.58 1053.86C1211.01 1054.23 1212.71 1054.4 1214.67 1054.4C1216.6 1054.39 1218.33 1054.08 1219.89 1053.46C1221.4 1052.8 1222.6 1051.85 1223.5 1050.62C1224.35 1049.39 1224.78 1047.86 1224.77 1046.02C1224.77 1045.31 1224.71 1044.64 1224.61 1044L1234.37 1045.34C1234.39 1045.63 1234.4 1045.93 1234.4 1046.23C1234.41 1048.85 1233.7 1050.98 1232.28 1052.62C1230.81 1054.22 1228.67 1055.41 1225.85 1056.2C1223.03 1056.95 1219.61 1057.33 1215.61 1057.34C1213.64 1057.35 1211.64 1057.15 1209.59 1056.75C1207.54 1056.34 1205.66 1055.72 1203.94 1054.86C1202.22 1054.01 1200.83 1052.95 1199.76 1051.69C1198.69 1050.38 1198.15 1048.85 1198.15 1047.09C1198.14 1046.52 1198.2 1045.8 1198.32 1044.94C1198.4 1044.09 1198.68 1043.21 1199.17 1042.3C1199.49 1041.72 1199.95 1041.19 1200.56 1040.71L1208.33 1041.77ZM1269.33 1015.92L1270.66 1006.21C1271.43 1006.58 1272.29 1006.87 1273.23 1007.09C1275.02 1007.49 1276.61 1007.41 1278 1006.85C1279.4 1006.24 1280.58 1005.27 1281.56 1003.94C1282.5 1002.56 1283.18 1000.94 1283.61 999.062C1284.04 997.147 1284.24 995.451 1284.2 993.974C1284.12 992.487 1283.74 991.27 1283.08 990.322C1282.42 989.334 1281.43 988.691 1280.12 988.392C1278.72 988.075 1277.49 988.32 1276.43 989.126C1275.37 989.893 1274.65 991.154 1274.25 992.909C1273.88 994.545 1273.94 996.007 1274.45 997.296C1274.95 998.584 1275.94 999.396 1277.42 999.732C1278.29 999.931 1279.2 999.906 1280.14 999.658C1281.08 999.409 1281.9 998.717 1282.62 997.58C1282.59 997.74 1282.57 997.924 1282.56 998.132C1282.52 998.292 1282.5 998.476 1282.5 998.684L1282.38 999.222C1282.11 1000.38 1281.66 1001.47 1281 1002.5C1280.36 1003.48 1279.6 1004.25 1278.72 1004.81C1277.8 1005.31 1276.87 1005.46 1275.91 1005.24C1274.28 1004.87 1273.28 1003.53 1272.92 1001.23C1272.56 999.046 1272.45 996.019 1272.58 992.145L1274 981.823C1274.39 981.585 1274.78 981.409 1275.19 981.295C1276.17 981.016 1277.09 980.931 1277.95 981.042C1278.81 981.112 1279.53 981.211 1280.08 981.338C1281.8 981.727 1283.18 982.586 1284.22 983.912C1285.22 985.23 1285.95 986.822 1286.4 988.687C1286.86 990.553 1287.06 992.528 1287.01 994.613C1286.95 996.697 1286.71 998.697 1286.28 1000.61C1285.39 1004.52 1284.27 1007.77 1282.93 1010.36C1281.55 1012.94 1279.91 1014.77 1278.03 1015.85C1276.12 1016.89 1273.89 1017.11 1271.34 1016.53C1270.61 1016.37 1269.94 1016.17 1269.33 1015.92ZM1250.82 1068.28C1251.03 1067.99 1251.04 1067.61 1250.85 1067.14C1250.67 1066.72 1250.33 1066.27 1249.82 1065.79C1249.35 1065.35 1248.82 1064.82 1248.23 1064.19C1249.02 1064.62 1249.67 1065 1250.19 1065.34C1250.76 1065.7 1251.28 1065.92 1251.74 1065.98C1252.24 1066.05 1252.6 1065.95 1252.84 1065.67C1253.08 1065.42 1253.22 1065.12 1253.27 1064.77C1253.32 1064.43 1253.26 1064.09 1253.1 1063.77C1252.95 1063.44 1252.62 1063.24 1252.12 1063.18C1251.66 1063.11 1251.1 1063.18 1250.43 1063.37C1249.8 1063.57 1249.07 1063.77 1248.22 1063.97C1249.01 1063.5 1249.68 1063.13 1250.22 1062.84C1250.82 1062.53 1251.26 1062.19 1251.55 1061.81C1251.86 1061.41 1251.96 1061.05 1251.85 1060.71C1251.75 1060.38 1251.55 1060.1 1251.26 1059.87C1250.99 1059.67 1250.67 1059.55 1250.3 1059.52C1249.95 1059.5 1249.62 1059.69 1249.31 1060.09C1249.03 1060.45 1248.8 1060.97 1248.65 1061.64C1248.49 1062.28 1248.29 1063.03 1248.04 1063.87C1248.03 1062.94 1248.03 1062.17 1248.05 1061.53C1248.09 1060.88 1248.02 1060.33 1247.85 1059.89C1247.66 1059.42 1247.39 1059.15 1247.05 1059.07C1246.71 1059.01 1246.36 1059.04 1246.03 1059.18C1245.71 1059.31 1245.44 1059.52 1245.23 1059.81C1245.04 1060.12 1245.04 1060.5 1245.23 1060.97C1245.4 1061.4 1245.75 1061.85 1246.25 1062.32C1246.73 1062.76 1247.26 1063.3 1247.86 1063.94C1247.07 1063.49 1246.41 1063.09 1245.89 1062.75C1245.33 1062.41 1244.81 1062.2 1244.33 1062.13C1243.84 1062.07 1243.47 1062.16 1243.23 1062.41C1242.99 1062.68 1242.85 1063 1242.8 1063.36C1242.76 1063.7 1242.81 1064.02 1242.97 1064.35C1243.13 1064.67 1243.45 1064.87 1243.95 1064.94C1244.43 1065 1244.99 1064.93 1245.65 1064.71C1246.27 1064.53 1247.01 1064.34 1247.86 1064.14C1247.08 1064.62 1246.41 1065 1245.85 1065.27C1245.25 1065.58 1244.81 1065.92 1244.52 1066.3C1244.21 1066.7 1244.11 1067.06 1244.22 1067.4C1244.32 1067.75 1244.52 1068.03 1244.81 1068.24C1245.08 1068.46 1245.4 1068.58 1245.75 1068.59C1246.12 1068.61 1246.45 1068.42 1246.76 1068.03C1247.05 1067.66 1247.27 1067.14 1247.43 1066.45C1247.58 1065.84 1247.77 1065.12 1248.02 1064.31C1248.04 1065.21 1248.03 1065.95 1248 1066.55C1247.97 1067.22 1248.05 1067.78 1248.22 1068.23C1248.41 1068.69 1248.68 1068.95 1249.02 1069.02C1249.37 1069.1 1249.71 1069.07 1250.05 1068.93C1250.37 1068.81 1250.62 1068.59 1250.82 1068.28ZM1248.04 1064.06L1248.02 1064.06L1248.02 1064.05L1248.03 1064.04L1248.04 1064.05L1248.04 1064.06ZM1286.96 1037.61C1287.15 1038.07 1287.14 1038.45 1286.93 1038.74C1286.74 1039.05 1286.48 1039.27 1286.16 1039.39C1285.82 1039.53 1285.48 1039.56 1285.14 1039.48C1284.79 1039.42 1284.53 1039.15 1284.34 1038.69C1284.16 1038.24 1284.09 1037.69 1284.11 1037.02C1284.15 1036.42 1284.15 1035.67 1284.13 1034.77C1283.88 1035.59 1283.69 1036.3 1283.54 1036.91C1283.38 1037.6 1283.16 1038.12 1282.87 1038.49C1282.57 1038.88 1282.23 1039.07 1281.86 1039.06C1281.51 1039.04 1281.2 1038.92 1280.92 1038.7C1280.63 1038.49 1280.43 1038.21 1280.33 1037.86C1280.23 1037.53 1280.33 1037.16 1280.63 1036.77C1280.92 1036.39 1281.36 1036.04 1281.96 1035.74C1282.52 1035.46 1283.19 1035.09 1283.98 1034.61C1283.12 1034.8 1282.39 1034.99 1281.76 1035.18C1281.11 1035.39 1280.54 1035.47 1280.06 1035.4C1279.57 1035.33 1279.24 1035.14 1279.08 1034.81C1278.92 1034.49 1278.87 1034.16 1278.91 1033.83C1278.96 1033.46 1279.11 1033.15 1279.35 1032.88C1279.58 1032.62 1279.95 1032.53 1280.45 1032.6C1280.92 1032.66 1281.44 1032.87 1282 1033.22C1282.53 1033.56 1283.18 1033.95 1283.97 1034.4C1283.37 1033.77 1282.84 1033.23 1282.37 1032.78C1281.86 1032.31 1281.52 1031.86 1281.34 1031.43C1281.15 1030.97 1281.15 1030.58 1281.35 1030.27C1281.55 1029.98 1281.82 1029.77 1282.14 1029.65C1282.48 1029.51 1282.82 1029.47 1283.16 1029.53C1283.51 1029.61 1283.77 1029.89 1283.96 1030.35C1284.14 1030.8 1284.2 1031.34 1284.17 1032C1284.14 1032.63 1284.14 1033.41 1284.15 1034.33C1284.4 1033.49 1284.61 1032.75 1284.76 1032.1C1284.92 1031.43 1285.14 1030.92 1285.43 1030.55C1285.73 1030.16 1286.06 1029.96 1286.41 1029.98C1286.78 1030.01 1287.1 1030.13 1287.37 1030.34C1287.66 1030.56 1287.86 1030.84 1287.97 1031.18C1288.07 1031.51 1287.97 1031.88 1287.67 1032.27C1287.38 1032.65 1286.93 1033 1286.34 1033.3C1285.79 1033.59 1285.12 1033.97 1284.33 1034.43C1285.18 1034.23 1285.92 1034.03 1286.54 1033.84C1287.21 1033.64 1287.77 1033.58 1288.24 1033.64C1288.73 1033.71 1289.06 1033.9 1289.22 1034.23C1289.37 1034.55 1289.43 1034.89 1289.38 1035.24C1289.33 1035.58 1289.19 1035.88 1288.96 1036.14C1288.72 1036.41 1288.35 1036.51 1287.85 1036.44C1287.39 1036.38 1286.87 1036.16 1286.3 1035.8C1285.78 1035.46 1285.13 1035.08 1284.34 1034.65C1284.93 1035.28 1285.46 1035.81 1285.93 1036.25C1286.44 1036.73 1286.78 1037.18 1286.96 1037.61ZM1284.13 1034.52L1284.15 1034.53L1284.15 1034.51L1284.14 1034.51L1284.13 1034.51L1284.13 1034.52ZM1295.44 976.595C1295.65 976.304 1295.66 975.926 1295.47 975.462C1295.29 975.034 1294.95 974.583 1294.44 974.109C1293.97 973.669 1293.44 973.135 1292.85 972.505C1293.64 972.935 1294.29 973.318 1294.81 973.654C1295.38 974.019 1295.9 974.233 1296.36 974.296C1296.86 974.364 1297.23 974.263 1297.46 973.992C1297.7 973.738 1297.84 973.438 1297.89 973.091C1297.94 972.743 1297.88 972.407 1297.73 972.083C1297.57 971.758 1297.24 971.562 1296.75 971.494C1296.28 971.43 1295.72 971.496 1295.05 971.691C1294.43 971.889 1293.69 972.086 1292.84 972.283C1293.63 971.821 1294.3 971.446 1294.85 971.158C1295.44 970.852 1295.89 970.509 1296.17 970.127C1296.48 969.731 1296.58 969.366 1296.48 969.031C1296.37 968.697 1296.17 968.417 1295.88 968.192C1295.61 967.986 1295.29 967.866 1294.92 967.833C1294.57 967.819 1294.24 968.009 1293.93 968.405C1293.65 968.77 1293.43 969.287 1293.27 969.956C1293.12 970.602 1292.91 971.345 1292.66 972.186C1292.65 971.262 1292.65 970.483 1292.68 969.85C1292.71 969.198 1292.65 968.65 1292.47 968.205C1292.28 967.741 1292.02 967.469 1291.67 967.388C1291.33 967.324 1290.99 967.362 1290.65 967.501C1290.33 967.625 1290.06 967.833 1289.85 968.125C1289.66 968.435 1289.66 968.822 1289.85 969.286C1290.02 969.714 1290.37 970.165 1290.87 970.639C1291.35 971.082 1291.88 971.62 1292.48 972.255C1291.69 971.805 1291.03 971.41 1290.51 971.07C1289.95 970.724 1289.43 970.518 1288.95 970.452C1288.46 970.384 1288.09 970.477 1287.86 970.731C1287.62 971.002 1287.47 971.319 1287.42 971.682C1287.38 972.013 1287.43 972.341 1287.59 972.666C1287.75 972.99 1288.07 973.187 1288.57 973.255C1289.05 973.32 1289.62 973.246 1290.27 973.032C1290.9 972.849 1291.63 972.659 1292.49 972.462C1291.7 972.942 1291.03 973.318 1290.47 973.59C1289.87 973.896 1289.43 974.24 1289.14 974.621C1288.83 975.017 1288.73 975.382 1288.84 975.717C1288.94 976.068 1289.14 976.348 1289.43 976.556C1289.71 976.779 1290.02 976.897 1290.37 976.912C1290.74 976.928 1291.08 976.739 1291.38 976.343C1291.67 975.978 1291.89 975.453 1292.05 974.767C1292.2 974.154 1292.39 973.441 1292.64 972.629C1292.66 973.523 1292.66 974.27 1292.62 974.87C1292.6 975.54 1292.67 976.098 1292.85 976.543C1293.03 977.007 1293.3 977.271 1293.65 977.335C1293.99 977.416 1294.33 977.387 1294.67 977.248C1294.99 977.123 1295.25 976.906 1295.44 976.595ZM1292.66 972.382L1292.64 972.375L1292.64 972.365L1292.65 972.36L1292.66 972.366L1292.66 972.382ZM1186.6 1059.48C1186.81 1059.19 1186.82 1058.82 1186.63 1058.35C1186.45 1057.92 1186.11 1057.47 1185.6 1057C1185.13 1056.56 1184.6 1056.02 1184.01 1055.39C1184.8 1055.82 1185.45 1056.21 1185.97 1056.54C1186.54 1056.91 1187.06 1057.12 1187.52 1057.19C1188.02 1057.25 1188.39 1057.15 1188.62 1056.88C1188.86 1056.63 1189 1056.33 1189.05 1055.98C1189.1 1055.63 1189.04 1055.3 1188.89 1054.97C1188.73 1054.65 1188.4 1054.45 1187.91 1054.38C1187.44 1054.32 1186.88 1054.39 1186.21 1054.58C1185.59 1054.78 1184.85 1054.98 1184 1055.17C1184.79 1054.71 1185.46 1054.34 1186.01 1054.05C1186.6 1053.74 1187.05 1053.4 1187.33 1053.02C1187.64 1052.62 1187.74 1052.26 1187.64 1051.92C1187.53 1051.59 1187.33 1051.31 1187.04 1051.08C1186.77 1050.88 1186.45 1050.76 1186.08 1050.72C1185.73 1050.71 1185.4 1050.9 1185.09 1051.29C1184.81 1051.66 1184.59 1052.18 1184.43 1052.85C1184.28 1053.49 1184.07 1054.23 1183.82 1055.08C1183.81 1054.15 1183.81 1053.37 1183.84 1052.74C1183.87 1052.09 1183.81 1051.54 1183.63 1051.09C1183.44 1050.63 1183.18 1050.36 1182.83 1050.28C1182.49 1050.21 1182.15 1050.25 1181.81 1050.39C1181.49 1050.51 1181.22 1050.72 1181.01 1051.01C1180.82 1051.32 1180.82 1051.71 1181.01 1052.18C1181.18 1052.6 1181.53 1053.06 1182.03 1053.53C1182.51 1053.97 1183.04 1054.51 1183.64 1055.14C1182.85 1054.69 1182.19 1054.3 1181.67 1053.96C1181.11 1053.61 1180.59 1053.41 1180.12 1053.34C1179.62 1053.27 1179.25 1053.37 1179.02 1053.62C1178.78 1053.89 1178.63 1054.21 1178.58 1054.57C1178.54 1054.9 1178.59 1055.23 1178.75 1055.56C1178.91 1055.88 1179.24 1056.08 1179.73 1056.14C1180.21 1056.21 1180.78 1056.14 1181.43 1055.92C1182.06 1055.74 1182.79 1055.55 1183.65 1055.35C1182.86 1055.83 1182.19 1056.21 1181.63 1056.48C1181.03 1056.79 1180.59 1057.13 1180.3 1057.51C1180 1057.91 1179.89 1058.27 1180 1058.61C1180.1 1058.96 1180.3 1059.24 1180.59 1059.45C1180.87 1059.67 1181.18 1059.79 1181.53 1059.8C1181.9 1059.82 1182.24 1059.63 1182.54 1059.23C1182.83 1058.87 1183.05 1058.34 1183.21 1057.66C1183.36 1057.04 1183.55 1056.33 1183.8 1055.52C1183.82 1056.41 1183.82 1057.16 1183.78 1057.76C1183.76 1058.43 1183.83 1058.99 1184.01 1059.43C1184.19 1059.9 1184.46 1060.16 1184.81 1060.22C1185.15 1060.31 1185.49 1060.28 1185.83 1060.14C1186.15 1060.01 1186.41 1059.8 1186.6 1059.48ZM1183.82 1055.27L1183.8 1055.26L1183.8 1055.25L1183.81 1055.25L1183.82 1055.26L1183.82 1055.27Z" fill="white"/>
<path d="M756.239 971.28L1050.88 1009.87L1039.79 1094.53L745.151 1055.94L751.184 1009.88L756.239 971.28Z" fill="#F0572F"/>
</svg>
