<svg width="645" height="488" viewBox="0 0 645 488" fill="none" xmlns="http://www.w3.org/2000/svg">
<path d="M15.3145 103.41L579.283 24.237L630.054 385.889L66.0849 465.061L15.3145 103.41Z" fill="black"/>
<path d="M544.931 81.6985C547.716 86.1664 549.683 90.317 550.832 94.1504C552.13 97.891 553.028 101.157 553.527 103.948C554.635 110.702 554.256 116.728 552.389 122.028C550.764 127.383 548.016 131.268 544.144 133.681C540.867 135.723 537.388 136.445 533.705 135.845C530.116 135.394 527.114 133.233 524.7 129.361C522.658 126.084 521.89 122.53 522.397 118.699C523.146 114.924 525.307 111.922 528.881 109.694C531.413 108.116 534.26 107.375 537.422 107.472C540.585 107.569 543.68 109.051 546.709 111.92C548.293 109.485 548.771 106.602 548.142 103.272C547.756 99.9971 546.857 96.7314 545.447 93.4743C544.038 90.2172 542.636 87.4718 541.244 85.2378C537.438 79.1318 533.183 74.9598 528.479 72.7219C524.017 70.5401 519.61 69.7721 515.256 70.418C511.051 70.971 507.236 72.3151 503.811 74.4502C498.003 78.0707 493.802 83.2742 491.208 90.0609C488.856 96.9036 487.358 104.454 486.716 112.713C486.074 120.971 485.552 129.258 485.152 137.573C484.693 147.785 483.836 156.694 482.58 164.301C481.474 171.815 479.28 178.248 476 183.602C472.961 189.011 468.315 193.666 462.06 197.565C454.762 202.113 446.388 204.438 436.938 204.538C427.637 204.546 416.843 200.831 404.556 193.394L405.537 189.991C413.047 194.409 419.964 196.714 426.289 196.908C432.762 197.009 438.456 195.527 443.371 192.464C448.434 189.308 452.123 184.941 454.436 179.363C456.749 173.785 458.31 167.332 459.119 160.004C459.928 152.675 460.504 144.975 460.849 136.902C461.383 125.816 462.083 115.66 462.95 106.434C463.817 97.2084 465.845 89.0166 469.035 81.8586C472.466 74.7568 477.905 68.885 485.351 64.2434C492.351 59.8803 499.432 57.638 506.594 57.5163C513.848 57.5436 520.822 59.6075 527.514 63.708C534.205 67.8085 540.011 73.8053 544.931 81.6985ZM466.974 101.444L465.825 105.572C458.613 100.969 451.696 98.6635 445.074 98.6555C438.6 98.5547 432.906 100.036 427.992 103.1C423.077 106.163 419.388 110.53 416.926 116.201C414.613 121.779 413.052 128.232 412.243 135.56C411.434 142.888 410.858 150.589 410.513 158.662C410.128 169.655 409.428 179.811 408.412 189.129C407.545 198.355 405.396 206.519 401.965 213.621C398.775 220.779 393.457 226.678 386.011 231.32C379.16 235.59 372.107 237.712 364.853 237.684C357.542 237.899 350.54 235.956 343.849 231.855C337.25 227.904 331.444 221.907 326.431 213.865C323.646 209.397 321.679 205.246 320.53 201.413C319.232 197.672 318.334 194.407 317.835 191.616C316.727 184.862 317.06 178.761 318.834 173.312C320.551 168.106 323.346 164.296 327.219 161.882C330.495 159.84 333.974 159.119 337.657 159.718C341.339 160.318 344.341 162.479 346.662 166.203C348.797 169.628 349.565 173.182 348.965 176.864C348.216 180.64 346.055 183.641 342.481 185.869C339.949 187.447 337.102 188.188 333.94 188.091C330.777 187.995 327.682 186.512 324.653 183.644C323.125 185.837 322.555 188.571 322.941 191.845C323.421 195.268 324.412 198.683 325.915 202.089C327.417 205.495 328.865 208.315 330.257 210.549C334.064 216.655 338.226 220.678 342.744 222.618C347.205 224.8 351.613 225.568 355.967 224.922C360.413 224.425 364.275 223.156 367.551 221.113C373.508 217.4 377.709 212.196 380.154 205.503C382.599 198.809 384.096 191.258 384.646 182.851C385.288 174.592 385.81 166.305 386.21 157.991C386.669 147.779 387.452 138.916 388.558 131.402C389.907 123.944 392.175 117.464 395.362 111.962C398.55 106.459 403.196 101.805 409.303 97.9987C416.749 93.3571 425.151 90.9117 434.508 90.6625C443.865 90.4133 454.687 94.0072 466.974 101.444Z" fill="white"/>
<path d="M234.739 201.527L231.904 203.742C229.94 201.432 227.988 199.753 226.048 198.705C224.108 197.657 221.744 197.502 218.956 198.238C216.245 199.074 212.645 200.925 208.156 203.79C203.744 206.755 198.007 210.996 190.943 216.513C184.278 221.719 178.24 225.473 172.831 227.776C167.499 230.179 162.664 231.473 158.324 231.659C153.984 231.845 150.008 231.266 146.396 229.922C142.884 228.501 139.642 226.709 136.67 224.545C138.05 227.952 138.954 231.571 139.383 235.4C139.91 239.153 139.559 243.111 138.327 247.277C137.096 251.442 134.669 255.82 131.047 260.411C127.502 265.102 122.397 270.05 115.732 275.256C108.37 281.006 102.666 285.701 98.6214 289.341C94.6543 293.08 91.9369 296.163 90.4693 298.591C88.98 301.196 88.5585 303.527 89.2048 305.585C89.7516 307.721 90.9575 309.982 92.8223 312.37L89.9869 314.585C85.0917 308.317 82.2123 302.477 81.3488 297.065C80.4636 291.83 81.9362 286.435 85.7668 280.88C89.5973 275.326 96.089 268.974 105.242 261.826C114.593 254.521 121.534 248.54 126.064 243.881C130.771 239.243 133.597 235.274 134.543 231.973C135.488 228.671 134.856 225.401 132.646 222.161L132.064 221.415L134.75 219.317L135.332 220.064C137.94 222.992 140.91 224.437 144.243 224.397C147.675 224.279 152.21 222.498 157.85 219.055C163.567 215.71 171.102 210.386 180.453 203.082C189.208 196.245 196.694 191.679 202.912 189.386C209.229 187.015 214.869 186.854 219.834 188.903C224.876 191.052 229.844 195.26 234.739 201.527Z" fill="white"/>
<path d="M171.684 271.533C186.197 269.495 199.769 271.29 212.398 276.917C224.977 282.181 235.529 290.134 244.052 300.777C252.939 311.369 258.401 323.922 260.439 338.436C262.425 352.587 260.631 366.158 255.055 379.151C249.791 391.73 241.837 402.281 231.194 410.805C220.551 419.329 207.973 424.61 193.459 426.647C179.308 428.634 165.762 427.02 152.821 421.807C140.242 416.543 129.691 408.59 121.167 397.947C112.592 386.941 107.311 374.362 105.324 360.212C103.287 345.698 104.9 332.152 110.164 319.573C115.428 306.994 123.382 296.443 134.025 287.919C144.98 278.981 157.533 273.519 171.684 271.533Z" fill="white"/>
<path d="M322.625 204.981L204.788 279.679L200.123 276.12L317.96 201.421L322.625 204.981Z" fill="#3A001E"/>
<path d="M329.067 220.417L211.229 295.115L206.564 291.555L324.402 216.857L329.067 220.417Z" fill="#3A001E"/>
<path d="M335.51 235.852L217.672 310.55L213.008 306.991L330.845 232.292L335.51 235.852Z" fill="#3A001E"/>
<path d="M76.4771 253.093L81.3647 233.783L88.6034 232.464L77.5813 253.387L76.4771 253.093ZM88.442 250.913L93.3296 231.603L100.568 230.284L89.5462 251.206L88.442 250.913Z" fill="#3A001E"/>
<path d="M430.629 60.4193L442.183 101.261L430.23 111.407L428.279 61.0546L430.629 60.4193ZM410.872 77.1902L422.426 118.031L410.474 128.178L408.522 77.8254L410.872 77.1902Z" fill="#3A001E"/>
<path d="M490.847 148.701C496.496 147.671 501.76 147.652 506.637 148.642C511.579 149.62 515.775 151.841 519.225 155.306C522.662 158.705 524.961 163.587 526.12 169.951C527.114 175.406 527.137 180.501 526.188 185.237C525.24 189.972 523.621 194.159 521.331 197.797C519.107 201.423 516.492 204.382 513.488 206.674C510.537 208.889 507.503 210.281 504.385 210.849C501.788 211.322 499.869 211.101 498.629 210.187C497.388 209.272 496.626 208.035 496.342 206.477C496.046 204.853 495.957 203.259 496.075 201.695C496.192 200.13 496.283 198.973 496.348 198.223L497 168.111C498.494 167.839 500.002 167.464 501.525 166.985C503.049 166.506 504.38 165.894 505.519 165.15L503.851 202.391C503.721 203.891 503.74 205.095 503.905 206.004C504.059 206.849 504.399 207.424 504.924 207.731C505.503 207.961 506.247 207.993 507.156 207.828C509.04 207.484 511.15 206.362 513.487 204.46C515.813 202.493 517.955 199.888 519.914 196.646C521.926 193.327 523.365 189.442 524.231 184.99C525.162 180.526 525.137 175.599 524.154 170.209C523.054 164.169 520.873 159.568 517.613 156.404C514.353 153.241 510.432 151.238 505.85 150.396C501.256 149.488 496.394 149.502 491.264 150.437C486.523 151.3 482.066 152.985 477.893 155.49C473.719 157.995 470.001 161.155 466.737 164.97C463.527 168.709 460.872 172.917 458.772 177.594C456.725 182.194 455.333 187.077 454.597 192.243C453.926 197.398 454.07 202.605 455.029 207.866C456.247 214.555 458.496 219.714 461.774 223.344C465.064 227.038 469.089 229.425 473.848 230.504C478.607 231.582 483.779 231.613 489.364 230.595C492.871 229.956 496.203 228.913 499.362 227.465C502.597 226.07 505.633 224.141 508.472 221.678L509.385 222.82C507.29 224.947 504.551 226.855 501.169 228.545C497.798 230.299 493.937 231.573 489.586 232.366C483.547 233.467 478 233.404 472.945 232.178C467.891 230.952 463.636 228.406 460.181 224.54C456.725 220.674 454.37 215.299 453.116 208.415C452.157 203.155 452.008 197.915 452.667 192.696C453.314 187.411 454.676 182.366 456.753 177.559C458.882 172.675 461.599 168.255 464.904 164.298C468.197 160.276 472.016 156.93 476.36 154.259C480.758 151.512 485.586 149.659 490.847 148.701ZM488.959 168.168C490.453 167.895 491.805 167.951 493.015 168.334C494.291 168.706 495.339 169.488 496.16 170.68C497.034 171.796 497.575 173.475 497.783 175.719L497.074 176.25C496.767 174.562 496.291 173.239 495.647 172.283C495.003 171.327 494.185 170.704 493.193 170.416C492.201 170.127 491.056 170.1 489.757 170.337C487.614 170.728 485.76 171.971 484.197 174.068C482.698 176.153 481.5 178.786 480.604 181.969C479.761 185.075 479.263 188.42 479.111 192.004C478.959 195.587 479.197 199.1 479.824 202.542C480.404 205.724 481.258 208.018 482.386 209.422C483.579 210.815 484.988 211.364 486.611 211.068C489.144 210.607 491.348 208.158 493.224 203.724C495.165 199.277 496.314 193.432 496.671 186.187L497.734 187.604C497.288 193.254 496.54 197.987 495.49 201.801C494.441 205.616 492.966 208.568 491.066 210.659C489.23 212.738 486.819 214.05 483.832 214.594C481.364 215.044 479.288 214.885 477.606 214.118C475.987 213.339 474.694 212.133 473.725 210.497C472.744 208.797 472.053 206.843 471.65 204.635C470.976 200.934 470.977 197.075 471.655 193.06C472.32 188.98 473.473 185.181 475.113 181.661C476.806 178.065 478.839 175.044 481.212 172.599C483.584 170.154 486.167 168.677 488.959 168.168Z" fill="#3A001E"/>
</svg>
