<svg width="431" height="587" viewBox="0 0 431 587" fill="none" xmlns="http://www.w3.org/2000/svg">
<path d="M49.3125 148.109L250.969 75.6529L263.408 110.271L61.7509 182.727L49.3125 148.109Z" fill="#F0572F"/>
<path d="M32.712 182.097C31.8787 179.778 33.0833 177.222 35.4026 176.389L279.696 88.6126C282.015 87.7793 284.571 88.9839 285.404 91.3031L429.24 491.619C430.074 493.939 428.869 496.494 426.55 497.328L182.256 585.104C179.937 585.937 177.381 584.732 176.548 582.413L32.712 182.097Z" fill="#F0572F"/>
<path d="M51.7822 235.17L304.474 144.377L395.268 397.069L142.576 487.862L51.7822 235.17Z" fill="white"/>
<path d="M323.222 316.583C323.406 317.376 323.609 318.151 323.829 318.906C324.064 319.631 324.25 320.183 324.387 320.564C324.532 320.967 324.684 321.355 324.843 321.728C324.994 322.078 325.126 322.372 325.236 322.611L324.464 322.888C323.472 321.045 322.459 319.879 321.424 319.391C320.389 318.903 319.166 318.912 317.755 319.419L316.109 320.011C315.504 320.228 315.043 320.457 314.725 320.698C314.421 320.908 314.266 321.217 314.26 321.623C314.269 321.999 314.398 322.535 314.648 323.229L319.718 337.339C319.967 338.033 320.212 338.54 320.453 338.858C320.708 339.145 321.024 339.285 321.4 339.276C321.79 339.237 322.288 339.109 322.893 338.891L324.673 338.252C325.726 337.873 326.546 337.376 327.134 336.761C327.714 336.122 328.075 335.297 328.217 334.285C328.351 333.251 328.258 331.969 327.936 330.441L328.709 330.164C328.859 330.792 329.115 331.611 329.477 332.619C329.622 333.022 329.85 333.622 330.163 334.421C330.489 335.188 330.846 335.971 331.233 336.767C330.12 337.117 328.88 337.537 327.514 338.028C326.139 338.496 324.915 338.924 323.84 339.31C323.145 339.559 322.216 339.893 321.051 340.312C319.909 340.722 318.692 341.172 317.401 341.661C316.125 342.12 314.923 342.577 313.797 343.032L313.556 342.36C314.279 342.05 314.795 341.763 315.105 341.5C315.438 341.229 315.588 340.871 315.555 340.428C315.544 339.977 315.394 339.348 315.105 338.541L310.324 325.238C310.027 324.409 309.742 323.828 309.471 323.496C309.192 323.141 308.838 322.965 308.409 322.967C307.994 322.939 307.424 323.043 306.699 323.278L306.458 322.606C307.608 322.218 308.826 321.806 310.11 321.369C311.418 320.925 312.642 320.498 313.784 320.087C314.949 319.669 315.879 319.335 316.573 319.085C317.558 318.731 318.667 318.333 319.899 317.89C321.145 317.417 322.253 316.981 323.222 316.583ZM321.741 328.191C321.741 328.191 321.781 328.303 321.862 328.527C321.942 328.751 321.983 328.863 321.983 328.863L316.271 330.915C316.271 330.915 316.231 330.803 316.151 330.579C316.07 330.355 316.03 330.243 316.03 330.243L321.741 328.191ZM321.705 324.183C321.985 325.246 322.226 326.057 322.427 326.617C322.651 327.169 322.843 327.669 323.004 328.117C323.165 328.564 323.357 329.064 323.581 329.616C323.805 330.168 324.146 330.943 324.606 331.941L323.833 332.219C323.526 331.646 323.164 331.131 322.747 330.674C322.33 330.217 321.837 329.901 321.269 329.726C320.714 329.521 320.045 329.559 319.261 329.841L319.02 329.169C319.804 328.887 320.336 328.468 320.617 327.912C320.898 327.356 321.038 326.762 321.038 326.13C321.039 325.497 321.003 324.941 320.932 324.461L321.705 324.183Z" fill="#3A001E"/>
<path d="M304.037 323.476L304.278 324.148C303.525 324.444 302.975 324.743 302.628 325.044C302.295 325.315 302.134 325.677 302.145 326.128C302.147 326.557 302.297 327.186 302.595 328.015L307.375 341.319C307.665 342.125 307.949 342.705 308.229 343.06C308.508 343.415 308.862 343.591 309.291 343.589C309.742 343.579 310.357 343.459 311.135 343.23L311.376 343.902C310.8 344.058 310.075 344.293 309.202 344.607C308.32 344.899 307.431 345.205 306.536 345.527C305.483 345.906 304.49 346.275 303.558 346.635C302.617 346.973 301.875 347.265 301.331 347.511L301.089 346.839C301.835 346.521 302.374 346.226 302.706 345.955C303.061 345.676 303.233 345.31 303.223 344.859C303.212 344.407 303.062 343.779 302.773 342.972L297.473 328.224L296.285 349.514L295.747 349.707L281.326 334.064L286.348 348.039C286.669 348.935 287.001 349.613 287.343 350.071C287.699 350.5 288.153 350.741 288.704 350.796C289.247 350.829 290.004 350.721 290.977 350.473L291.219 351.145C290.732 351.269 290.153 351.452 289.481 351.693C288.824 351.904 288.159 352.13 287.487 352.372C286.949 352.565 286.405 352.773 285.853 352.997C285.315 353.19 284.875 353.373 284.533 353.547L284.292 352.875C284.999 352.52 285.495 352.177 285.781 351.847C286.081 351.486 286.199 351.039 286.134 350.506C286.083 349.943 285.897 349.213 285.575 348.317L281.06 335.752C280.763 334.924 280.478 334.343 280.207 334.011C279.928 333.656 279.562 333.484 279.111 333.494C278.674 333.474 278.071 333.59 277.301 333.841L277.06 333.169C277.583 333.006 278.274 332.783 279.133 332.5C279.992 332.216 280.847 331.922 281.698 331.616C282.258 331.415 282.781 331.215 283.265 331.015C283.75 330.816 284.201 330.628 284.619 330.453L296.032 343.004L295.673 343.589L296.749 326.208C297.13 326.071 297.544 325.922 297.992 325.762C298.44 325.601 298.866 325.448 299.269 325.303C300.165 324.981 301.045 324.652 301.911 324.316C302.776 323.979 303.485 323.699 304.037 323.476Z" fill="#3A001E"/>
<path d="M274.663 334.03L274.905 334.702C274.174 334.99 273.646 335.281 273.322 335.574C273.012 335.838 272.862 336.195 272.872 336.646C272.897 337.067 273.058 337.692 273.356 338.521L278.136 351.825C278.426 352.631 278.699 353.216 278.956 353.578C279.235 353.933 279.578 354.114 279.985 354.119C280.414 354.117 281.006 354.005 281.761 353.784L282.003 354.456C281.427 354.613 280.702 354.848 279.828 355.162C278.947 355.453 278.08 355.752 277.229 356.058C276.244 356.412 275.307 356.761 274.419 357.105C273.546 357.419 272.86 357.691 272.361 357.921L272.119 357.249C272.842 356.938 273.359 356.652 273.669 356.389C274.001 356.117 274.151 355.76 274.118 355.317C274.108 354.865 273.958 354.236 273.668 353.43L268.888 340.126C268.59 339.298 268.306 338.717 268.034 338.385C267.778 338.022 267.435 337.841 267.006 337.844C266.569 337.824 265.988 337.931 265.263 338.167L265.021 337.495C265.545 337.332 266.247 337.105 267.129 336.813C268.032 336.514 268.977 336.187 269.963 335.833C270.814 335.527 271.672 335.206 272.537 334.87C273.403 334.534 274.112 334.254 274.663 334.03Z" fill="#3A001E"/>
<path d="M255.077 341.068L255.319 341.74C254.588 342.028 254.06 342.318 253.736 342.612C253.426 342.875 253.276 343.232 253.286 343.684C253.311 344.105 253.472 344.73 253.77 345.558L258.647 359.131C258.904 359.848 259.157 360.376 259.406 360.717C259.669 361.027 259.989 361.178 260.365 361.169C260.764 361.152 261.266 361.035 261.87 360.818L263.449 360.25C264.39 359.912 265.169 359.405 265.785 358.728C266.394 358.029 266.787 357.117 266.964 355.991C267.163 354.857 267.074 353.448 266.696 351.763L267.469 351.485C267.659 352.226 267.956 353.156 268.358 354.276C268.511 354.702 268.752 355.336 269.08 356.179C269.422 356.992 269.799 357.83 270.211 358.693C269.097 359.043 267.857 359.463 266.491 359.954C265.117 360.423 263.892 360.85 262.817 361.236C262.123 361.486 261.193 361.82 260.029 362.238C258.887 362.648 257.67 363.098 256.379 363.587C255.102 364.046 253.901 364.503 252.775 364.958L252.533 364.286C253.256 363.976 253.773 363.689 254.083 363.426C254.415 363.155 254.565 362.798 254.532 362.354C254.522 361.903 254.372 361.274 254.082 360.468L249.302 347.164C249.004 346.335 248.72 345.755 248.449 345.422C248.169 345.067 247.815 344.891 247.386 344.893C246.971 344.865 246.402 344.969 245.677 345.204L245.436 344.532C245.981 344.361 246.695 344.13 247.576 343.839C248.48 343.539 249.436 343.209 250.444 342.847C251.295 342.541 252.142 342.224 252.985 341.896C253.828 341.567 254.526 341.291 255.077 341.068Z" fill="#3A001E"/>
<path d="M234.901 348.317L235.142 348.989C234.411 349.277 233.883 349.568 233.559 349.862C233.249 350.125 233.099 350.482 233.11 350.933C233.134 351.354 233.296 351.979 233.593 352.808L238.374 366.112C238.663 366.918 238.936 367.503 239.193 367.866C239.473 368.22 239.815 368.401 240.222 368.406C240.651 368.404 241.243 368.292 241.998 368.071L242.24 368.743C241.664 368.9 240.939 369.135 240.066 369.449C239.184 369.74 238.318 370.039 237.467 370.345C236.481 370.699 235.545 371.048 234.657 371.392C233.783 371.706 233.097 371.978 232.598 372.208L232.357 371.536C233.08 371.226 233.596 370.939 233.906 370.676C234.239 370.404 234.388 370.047 234.356 369.604C234.345 369.152 234.195 368.523 233.905 367.717L229.125 354.413C228.827 353.585 228.543 353.004 228.272 352.672C228.015 352.309 227.672 352.129 227.243 352.131C226.806 352.111 226.225 352.219 225.5 352.454L225.259 351.782C225.782 351.619 226.484 351.392 227.366 351.101C228.27 350.801 229.214 350.474 230.2 350.12C231.051 349.814 231.909 349.493 232.775 349.157C233.64 348.821 234.349 348.541 234.901 348.317Z" fill="#3A001E"/>
<path d="M215.314 355.355L215.555 356.027C214.824 356.315 214.296 356.606 213.972 356.899C213.662 357.162 213.512 357.52 213.523 357.971C213.547 358.392 213.709 359.017 214.006 359.846L218.883 373.418C219.141 374.135 219.394 374.663 219.643 375.004C219.906 375.314 220.225 375.465 220.602 375.456C221 375.439 221.502 375.322 222.107 375.105L223.686 374.538C224.626 374.2 225.405 373.692 226.022 373.015C226.63 372.316 227.023 371.404 227.2 370.278C227.4 369.144 227.311 367.735 226.933 366.05L227.705 365.772C227.896 366.513 228.192 367.443 228.594 368.563C228.747 368.989 228.988 369.623 229.316 370.466C229.659 371.279 230.036 372.117 230.447 372.981C229.334 373.33 228.094 373.75 226.727 374.241C225.353 374.71 224.129 375.137 223.054 375.523C222.359 375.773 221.43 376.107 220.265 376.525C219.123 376.936 217.906 377.385 216.615 377.875C215.339 378.333 214.137 378.79 213.011 379.245L212.77 378.573C213.493 378.263 214.009 377.976 214.319 377.713C214.652 377.442 214.802 377.085 214.769 376.641C214.758 376.19 214.608 375.561 214.318 374.755L209.538 361.451C209.241 360.622 208.956 360.042 208.685 359.709C208.406 359.354 208.051 359.178 207.622 359.181C207.208 359.153 206.638 359.256 205.913 359.491L205.672 358.819C206.217 358.649 206.931 358.418 207.813 358.126C208.716 357.827 209.672 357.496 210.68 357.134C211.531 356.828 212.378 356.511 213.221 356.183C214.064 355.854 214.762 355.579 215.314 355.355Z" fill="#3A001E"/>
<path d="M203.175 359.716L203.417 360.388C202.685 360.676 202.158 360.967 201.833 361.261C201.523 361.524 201.373 361.881 201.384 362.332C201.409 362.753 201.57 363.378 201.868 364.207L206.648 377.511C206.938 378.317 207.211 378.902 207.468 379.264C207.747 379.619 208.09 379.8 208.497 379.805C208.926 379.803 209.518 379.691 210.273 379.47L210.514 380.142C209.938 380.299 209.214 380.534 208.34 380.848C207.459 381.139 206.592 381.438 205.741 381.744C204.756 382.098 203.819 382.447 202.931 382.791C202.058 383.105 201.371 383.377 200.872 383.607L200.631 382.935C201.354 382.624 201.871 382.338 202.181 382.075C202.513 381.803 202.663 381.446 202.63 381.003C202.62 380.551 202.469 379.922 202.18 379.116L197.4 365.812C197.102 364.984 196.817 364.403 196.546 364.071C196.289 363.708 195.946 363.527 195.517 363.53C195.08 363.51 194.499 363.617 193.775 363.853L193.533 363.181C194.056 363.018 194.759 362.791 195.64 362.499C196.544 362.2 197.489 361.873 198.474 361.519C199.325 361.213 200.184 360.892 201.049 360.556C201.915 360.22 202.623 359.94 203.175 359.716Z" fill="#3A001E"/>
<path d="M191.06 364.069L191.301 364.741C190.57 365.029 190.043 365.32 189.718 365.614C189.408 365.877 189.258 366.234 189.269 366.685C189.294 367.106 189.455 367.731 189.753 368.56L194.533 381.864C194.823 382.67 195.096 383.255 195.353 383.618C195.632 383.972 195.975 384.153 196.381 384.158C196.81 384.156 197.403 384.044 198.158 383.823L198.399 384.495C197.868 384.636 197.188 384.855 196.359 385.152C195.523 385.428 194.623 385.739 193.66 386.085C192.764 386.406 191.861 386.744 190.95 387.096C190.055 387.418 189.324 387.706 188.757 387.96L188.516 387.288C189.239 386.978 189.755 386.691 190.065 386.428C190.398 386.156 190.548 385.799 190.515 385.356C190.504 384.904 190.354 384.275 190.065 383.469L187.711 376.918L178.539 380.213L180.893 386.765C181.183 387.571 181.456 388.155 181.713 388.518C181.992 388.873 182.335 389.053 182.742 389.059C183.171 389.057 183.763 388.945 184.518 388.724L184.759 389.396C184.161 389.561 183.414 389.804 182.518 390.126C181.614 390.425 180.703 390.74 179.785 391.07C178.822 391.416 177.93 391.749 177.109 392.069C176.28 392.367 175.617 392.631 175.118 392.861L174.876 392.189C175.599 391.878 176.116 391.592 176.426 391.328C176.758 391.057 176.908 390.7 176.875 390.257C176.865 389.805 176.715 389.176 176.425 388.37L171.645 375.066C171.347 374.238 171.062 373.657 170.791 373.324C170.512 372.97 170.158 372.793 169.729 372.796C169.314 372.768 168.744 372.871 168.02 373.106L167.778 372.435C168.301 372.272 168.981 372.053 169.818 371.778C170.655 371.502 171.555 371.191 172.518 370.845C173.436 370.515 174.339 370.178 175.227 369.834C176.115 369.49 176.846 369.202 177.42 368.97L177.662 369.642C176.931 369.93 176.403 370.221 176.078 370.514C175.768 370.778 175.619 371.135 175.629 371.586C175.654 372.007 175.815 372.632 176.113 373.461L178.298 379.542L187.469 376.246L185.284 370.165C184.987 369.337 184.702 368.756 184.431 368.424C184.152 368.069 183.798 367.893 183.369 367.895C182.954 367.867 182.384 367.971 181.66 368.206L181.418 367.534C182.008 367.347 182.756 367.104 183.66 366.804C184.586 366.497 185.497 366.182 186.393 365.86C187.356 365.514 188.248 365.181 189.068 364.861C189.889 364.541 190.553 364.277 191.06 364.069Z" fill="#3A001E"/>
<path d="M156.512 375.951C157.408 375.629 158.217 375.453 158.939 375.421C159.661 375.389 160.328 375.453 160.942 375.612C161.555 375.77 162.154 375.96 162.739 376.18C163.848 376.59 164.146 375.838 163.635 373.923L164.408 373.645C164.637 374.423 164.933 375.353 165.297 376.436C165.661 377.52 166.165 378.957 166.808 380.749L166.036 381.026C165.581 380.254 165.198 379.646 164.887 379.201C164.575 378.757 164.258 378.403 163.936 378.139C163.628 377.845 163.253 377.575 162.811 377.33C161.932 376.785 161.003 376.449 160.021 376.322C159.062 376.186 158.123 376.283 157.205 376.613C155.323 377.289 154.129 378.717 153.623 380.896C153.116 383.076 153.418 385.712 154.529 388.802C155.293 390.93 156.228 392.617 157.334 393.864C158.439 395.11 159.621 395.937 160.881 396.345C162.132 396.73 163.351 396.709 164.538 396.282C165.456 395.953 166.279 395.429 167.008 394.712C167.729 393.973 168.239 393.106 168.54 392.113C168.801 391.362 168.916 390.625 168.884 389.903C168.844 389.159 168.689 388.165 168.419 386.922L169.192 386.644C169.86 388.503 170.41 390 170.843 391.134C171.276 392.268 171.656 393.219 171.982 393.987L171.209 394.265C170.774 393.334 170.385 392.778 170.042 392.598C169.713 392.387 169.393 392.553 169.082 393.094C168.597 393.926 167.998 394.723 167.286 395.485C166.565 396.224 165.533 396.835 164.189 397.318C162.129 398.058 160.158 398.311 158.278 398.076C156.39 397.819 154.717 397.067 153.258 395.821C151.799 394.576 150.671 392.844 149.874 390.627C149.093 388.454 148.868 386.385 149.199 384.42C149.53 382.456 150.33 380.739 151.598 379.272C152.858 377.783 154.496 376.676 156.512 375.951Z" fill="#3A001E"/>
<path d="M320.312 267.051C320.536 267.957 320.771 268.821 321.016 269.644C321.283 270.458 321.493 271.078 321.646 271.503C321.847 272.063 322.051 272.597 322.259 273.104C322.466 273.611 322.642 274.028 322.785 274.356L322.012 274.634C321.186 273.11 320.403 271.95 319.662 271.154C318.943 270.35 318.175 269.867 317.358 269.706C316.534 269.522 315.561 269.631 314.441 270.033L313.03 270.54L318.692 286.296C319.014 287.192 319.333 287.836 319.651 288.228C319.991 288.611 320.436 288.793 320.985 288.773C321.534 288.752 322.287 288.596 323.244 288.302L323.485 288.974C323.074 289.097 322.532 289.279 321.86 289.52C321.203 289.731 320.516 289.965 319.799 290.223C319.074 290.458 318.398 290.688 317.771 290.914C317.099 291.155 316.398 291.42 315.667 291.708C314.95 291.965 314.282 292.218 313.663 292.465C313.058 292.683 312.581 292.867 312.231 293.018L311.989 292.346C312.914 291.963 313.594 291.605 314.031 291.271C314.467 290.937 314.683 290.518 314.679 290.014C314.697 289.502 314.545 288.798 314.224 287.902L308.562 272.146L307.151 272.653C306.031 273.055 305.212 273.59 304.693 274.257C304.166 274.901 303.87 275.766 303.805 276.852C303.762 277.929 303.907 279.318 304.24 281.02L303.467 281.297C303.383 280.923 303.253 280.489 303.076 279.996C302.913 279.473 302.731 278.932 302.53 278.372C302.377 277.946 302.133 277.338 301.799 276.548C301.487 275.75 301.129 274.93 300.726 274.089C301.697 273.765 302.757 273.409 303.908 273.021C305.058 272.633 306.204 272.234 307.347 271.824C308.511 271.405 309.564 271.027 310.504 270.689C311.468 270.343 312.52 269.965 313.662 269.554C314.827 269.136 315.988 268.706 317.144 268.265C318.301 267.825 319.357 267.42 320.312 267.051Z" fill="#3A001E"/>
<path d="M289.958 277.427C291.1 277.017 292.055 276.825 292.824 276.852C293.607 276.849 294.301 276.916 294.906 277.053C295.231 277.113 295.488 277.159 295.677 277.193C295.881 277.196 296.061 277.169 296.217 277.112C296.441 277.032 296.554 276.852 296.555 276.574C296.57 276.265 296.527 275.863 296.425 275.369L297.198 275.091C297.313 275.48 297.44 275.94 297.58 276.471C297.743 276.994 297.966 277.685 298.249 278.545C298.547 279.373 298.945 280.482 299.444 281.871L298.672 282.148C298.125 280.979 297.441 280.024 296.618 279.282C295.787 278.519 294.861 278.017 293.839 277.777C292.832 277.507 291.734 277.585 290.547 278.012C289.405 278.422 288.572 279.025 288.049 279.82C287.525 280.615 287.412 281.427 287.71 282.256C287.983 283.017 288.456 283.593 289.127 283.984C289.813 284.345 290.648 284.626 291.631 284.83C292.615 285.033 293.719 285.255 294.944 285.498C296.281 285.7 297.537 285.957 298.711 286.269C299.885 286.58 300.897 287.039 301.746 287.644C302.618 288.241 303.252 289.088 303.646 290.185C304.096 291.44 304.128 292.617 303.739 293.718C303.351 294.818 302.639 295.795 301.605 296.647C300.593 297.491 299.348 298.178 297.87 298.709C296.661 299.144 295.612 299.356 294.723 299.347C293.835 299.337 293.062 299.299 292.406 299.231C292.081 299.171 291.816 299.139 291.613 299.137C291.41 299.134 291.241 299.157 291.107 299.205C290.883 299.285 290.759 299.469 290.735 299.756C290.734 300.034 290.789 300.432 290.899 300.949L290.126 301.226C290.002 300.74 289.827 300.183 289.602 299.556C289.399 298.921 289.116 298.099 288.754 297.091C288.414 296.076 287.967 294.795 287.411 293.249L288.184 292.972C288.789 294.373 289.539 295.545 290.434 296.488C291.329 297.431 292.352 298.062 293.504 298.381C294.648 298.679 295.936 298.57 297.369 298.055C297.997 297.829 298.561 297.5 299.063 297.067C299.587 296.626 299.955 296.101 300.167 295.494C300.371 294.865 300.328 294.147 300.038 293.341C299.788 292.646 299.37 292.114 298.781 291.744C298.215 291.365 297.49 291.07 296.604 290.857C295.71 290.622 294.648 290.409 293.416 290.219C292.093 289.987 290.834 289.719 289.637 289.415C288.455 289.081 287.424 288.604 286.544 287.985C285.664 287.366 285.027 286.507 284.633 285.41C284.198 284.2 284.165 283.087 284.532 282.07C284.923 281.044 285.594 280.133 286.547 279.335C287.499 278.538 288.636 277.902 289.958 277.427Z" fill="#3A001E"/>
<path d="M278.454 282.092C278.638 282.885 278.84 283.66 279.061 284.415C279.296 285.14 279.482 285.693 279.619 286.073C279.764 286.477 279.916 286.864 280.075 287.237C280.226 287.587 280.357 287.882 280.468 288.12L279.695 288.398C278.704 286.554 277.691 285.388 276.656 284.9C275.62 284.412 274.397 284.422 272.986 284.929L271.34 285.52C270.736 285.737 270.274 285.966 269.956 286.207C269.652 286.417 269.498 286.726 269.492 287.133C269.501 287.509 269.63 288.044 269.879 288.738L274.949 302.848C275.198 303.543 275.444 304.049 275.684 304.367C275.939 304.655 276.255 304.794 276.631 304.785C277.022 304.746 277.519 304.618 278.124 304.401L279.905 303.761C280.957 303.383 281.778 302.886 282.366 302.27C282.946 301.632 283.307 300.806 283.449 299.794C283.583 298.76 283.489 297.479 283.168 295.95L283.94 295.673C284.09 296.302 284.346 297.12 284.709 298.128C284.853 298.531 285.082 299.132 285.394 299.93C285.72 300.698 286.077 301.48 286.465 302.276C285.351 302.626 284.111 303.046 282.745 303.537C281.371 304.006 280.146 304.433 279.071 304.819C278.377 305.069 277.447 305.403 276.283 305.821C275.14 306.231 273.924 306.681 272.633 307.17C271.356 307.629 270.155 308.086 269.029 308.541L268.787 307.869C269.51 307.559 270.027 307.272 270.337 307.009C270.669 306.738 270.819 306.381 270.786 305.937C270.776 305.486 270.626 304.857 270.336 304.051L265.556 290.747C265.258 289.918 264.974 289.338 264.702 289.005C264.423 288.65 264.069 288.474 263.64 288.476C263.225 288.448 262.656 288.552 261.931 288.787L261.689 288.115C262.84 287.727 264.057 287.315 265.342 286.879C266.649 286.434 267.874 286.007 269.016 285.597C270.181 285.178 271.11 284.844 271.804 284.595C272.79 284.241 273.898 283.842 275.13 283.4C276.376 282.927 277.484 282.491 278.454 282.092ZM276.973 293.7C276.973 293.7 277.013 293.812 277.093 294.036C277.174 294.26 277.214 294.372 277.214 294.372L271.503 296.424C271.503 296.424 271.463 296.312 271.382 296.088C271.302 295.864 271.261 295.752 271.261 295.752L276.973 293.7ZM276.936 289.693C277.217 290.755 277.458 291.566 277.659 292.126C277.882 292.678 278.075 293.178 278.236 293.626C278.397 294.074 278.589 294.574 278.812 295.126C279.036 295.677 279.378 296.452 279.837 297.45L279.065 297.728C278.758 297.156 278.396 296.641 277.979 296.184C277.562 295.727 277.069 295.411 276.5 295.236C275.946 295.03 275.277 295.068 274.493 295.35L274.251 294.678C275.035 294.396 275.568 293.977 275.848 293.421C276.129 292.865 276.269 292.271 276.27 291.639C276.27 291.007 276.235 290.45 276.163 289.97L276.936 289.693Z" fill="#3A001E"/>
<path d="M260.503 288.541L260.744 289.213C260.248 289.594 259.863 290.175 259.587 290.957C259.304 291.716 259.167 292.777 259.176 294.139L259.244 312.171C259.034 312.221 258.829 312.282 258.627 312.354C258.426 312.427 258.228 312.51 258.034 312.605L244.45 297.496C243.824 296.81 243.258 296.394 242.75 296.248C242.256 296.071 241.838 296.032 241.494 296.13L241.252 295.458C241.776 295.295 242.411 295.093 243.158 294.849C243.927 294.598 244.682 294.34 245.421 294.074C246.406 293.72 247.321 293.379 248.164 293.051C249.029 292.715 249.715 292.443 250.222 292.235L250.464 292.907C249.427 293.33 248.832 293.784 248.677 294.27C248.545 294.747 248.874 295.451 249.664 296.381L258.845 307.155L258.417 308.181L258.353 297.128C258.342 295.337 258.175 293.993 257.853 293.097C257.531 292.201 257.078 291.643 256.493 291.423C255.908 291.204 255.198 291.231 254.361 291.507L254.119 290.835C254.687 290.656 255.267 290.473 255.857 290.286C256.47 290.092 257.101 289.877 257.75 289.644C258.176 289.491 258.665 289.303 259.216 289.079C259.791 288.848 260.219 288.668 260.503 288.541ZM238.598 296.412L238.84 297.084C237.96 297.45 237.458 297.884 237.334 298.383C237.21 298.883 237.535 299.576 238.308 300.461L247.579 311.165L247.197 312.213L247.779 299.372L248.546 299.817L247.788 316.287C247.601 316.329 247.406 316.386 247.205 316.458C247.003 316.531 246.794 316.618 246.578 316.721L232.96 301.624C232.327 300.916 231.756 300.489 231.248 300.342C230.763 300.188 230.348 300.16 230.004 300.258L229.763 299.586C230.263 299.432 230.899 299.229 231.668 298.978C232.438 298.726 233.192 298.468 233.931 298.202C234.894 297.856 235.786 297.523 236.607 297.203C237.427 296.883 238.091 296.619 238.598 296.412Z" fill="#3A001E"/>
<path d="M228.87 299.907L229.111 300.579C228.38 300.867 227.852 301.158 227.528 301.451C227.218 301.715 227.068 302.072 227.078 302.523C227.103 302.944 227.264 303.569 227.562 304.398L232.342 317.702C232.632 318.508 232.905 319.093 233.162 319.455C233.441 319.81 233.784 319.991 234.191 319.996C234.62 319.994 235.212 319.882 235.967 319.661L236.209 320.333C235.678 320.474 234.998 320.693 234.169 320.99C233.332 321.266 232.432 321.576 231.469 321.922C230.573 322.244 229.67 322.581 228.76 322.934C227.864 323.256 227.133 323.544 226.567 323.798L226.325 323.126C227.048 322.815 227.565 322.529 227.875 322.266C228.208 321.994 228.357 321.637 228.324 321.194C228.314 320.742 228.164 320.113 227.874 319.307L225.52 312.756L216.349 316.051L218.703 322.602C218.992 323.409 219.266 323.993 219.522 324.356C219.802 324.711 220.145 324.891 220.551 324.897C220.98 324.895 221.572 324.783 222.328 324.562L222.569 325.234C221.971 325.399 221.223 325.642 220.328 325.964C219.424 326.263 218.513 326.578 217.594 326.908C216.631 327.254 215.739 327.587 214.919 327.907C214.09 328.205 213.426 328.469 212.927 328.699L212.686 328.027C213.409 327.716 213.925 327.429 214.235 327.166C214.568 326.895 214.718 326.538 214.685 326.095C214.674 325.643 214.524 325.014 214.234 324.208L209.454 310.904C209.157 310.075 208.872 309.495 208.601 309.162C208.322 308.808 207.967 308.631 207.538 308.634C207.124 308.606 206.554 308.709 205.829 308.944L205.588 308.272C206.111 308.11 206.791 307.891 207.628 307.615C208.465 307.34 209.364 307.029 210.327 306.683C211.246 306.353 212.149 306.016 213.037 305.672C213.924 305.328 214.656 305.04 215.23 304.808L215.471 305.48C214.74 305.768 214.212 306.059 213.888 306.352C213.578 306.615 213.428 306.973 213.439 307.424C213.463 307.845 213.625 308.47 213.922 309.299L216.107 315.379L225.279 312.084L223.094 306.003C222.796 305.175 222.512 304.594 222.241 304.262C221.961 303.907 221.607 303.73 221.178 303.733C220.764 303.705 220.194 303.808 219.469 304.044L219.228 303.372C219.818 303.185 220.565 302.942 221.469 302.642C222.395 302.335 223.307 302.02 224.202 301.698C225.165 301.352 226.057 301.019 226.878 300.699C227.699 300.379 228.362 300.115 228.87 299.907Z" fill="#3A001E"/>
<path d="M203.351 309.076C203.575 309.982 203.81 310.846 204.055 311.668C204.322 312.482 204.532 313.102 204.685 313.528C204.886 314.088 205.09 314.621 205.298 315.128C205.505 315.635 205.681 316.053 205.824 316.381L205.051 316.658C204.225 315.134 203.442 313.974 202.701 313.179C201.982 312.375 201.214 311.892 200.397 311.73C199.573 311.546 198.6 311.655 197.48 312.058L196.069 312.565L201.731 328.321C202.053 329.217 202.372 329.86 202.69 330.252C203.03 330.636 203.475 330.817 204.024 330.797C204.573 330.777 205.326 330.62 206.283 330.327L206.524 330.999C206.113 331.121 205.571 331.303 204.9 331.545C204.242 331.756 203.555 331.99 202.838 332.247C202.113 332.482 201.437 332.713 200.81 332.938C200.138 333.179 199.437 333.444 198.706 333.732C197.989 333.99 197.321 334.242 196.702 334.49C196.097 334.707 195.62 334.891 195.27 335.043L195.028 334.371C195.953 333.988 196.633 333.63 197.07 333.296C197.506 332.962 197.722 332.543 197.718 332.039C197.736 331.526 197.584 330.822 197.263 329.926L191.601 314.17L190.19 314.677C189.07 315.079 188.251 315.614 187.732 316.281C187.205 316.926 186.909 317.791 186.844 318.876C186.801 319.954 186.946 321.343 187.279 323.044L186.506 323.322C186.422 322.947 186.292 322.514 186.115 322.021C185.952 321.498 185.77 320.956 185.569 320.396C185.416 319.971 185.172 319.363 184.838 318.573C184.526 317.774 184.168 316.955 183.765 316.113C184.736 315.79 185.796 315.434 186.947 315.046C188.097 314.658 189.243 314.259 190.386 313.848C191.55 313.43 192.603 313.051 193.544 312.713C194.507 312.367 195.559 311.989 196.702 311.579C197.866 311.16 199.027 310.731 200.183 310.29C201.34 309.849 202.396 309.444 203.351 309.076Z" fill="#3A001E"/>
<path d="M182.216 316.67L182.458 317.342C181.72 317.683 181.198 318.06 180.892 318.473C180.599 318.857 180.487 319.352 180.554 319.96C180.612 320.546 180.823 321.343 181.185 322.351L183.563 328.969C184.102 330.47 184.468 331.805 184.661 332.975C184.853 334.145 184.841 335.237 184.624 336.251C184.384 337.272 183.83 338.23 182.963 339.123C182.118 340.009 181.023 340.693 179.679 341.176C178.582 341.57 177.5 341.832 176.434 341.962C175.399 342.107 174.4 342.036 173.437 341.749C172.481 341.41 171.68 340.977 171.035 340.45C170.391 339.923 169.817 339.206 169.314 338.299C168.834 337.385 168.332 336.199 167.809 334.743L164.985 326.882C164.687 326.053 164.402 325.473 164.131 325.14C163.874 324.778 163.531 324.597 163.102 324.6C162.665 324.58 162.084 324.687 161.36 324.922L161.118 324.25C161.641 324.088 162.332 323.865 163.192 323.581C164.073 323.29 165.007 322.967 165.992 322.613C166.888 322.291 167.769 321.962 168.634 321.626C169.5 321.29 170.208 321.01 170.76 320.786L171.001 321.458C170.293 321.738 169.776 322.025 169.452 322.318C169.119 322.589 168.958 322.951 168.969 323.402C168.994 323.823 169.155 324.448 169.453 325.277L172.483 333.709C172.861 334.762 173.26 335.731 173.679 336.617C174.121 337.495 174.624 338.225 175.187 338.807C175.772 339.38 176.462 339.752 177.256 339.922C178.043 340.069 178.973 339.95 180.048 339.564C181.549 339.024 182.593 338.27 183.18 337.3C183.759 336.308 183.993 335.162 183.88 333.863C183.781 332.532 183.462 331.117 182.923 329.616L180.509 322.897C180.114 321.8 179.723 320.992 179.335 320.474C178.969 319.948 178.513 319.631 177.969 319.524C177.424 319.416 176.692 319.489 175.772 319.744L175.531 319.072C175.964 318.942 176.521 318.767 177.201 318.548C177.903 318.321 178.546 318.102 179.128 317.893C179.71 317.684 180.277 317.468 180.829 317.244C181.404 317.012 181.866 316.821 182.216 316.67Z" fill="#3A001E"/>
<path d="M147.974 328.443C150.169 327.654 152.233 327.38 154.166 327.621C156.113 327.832 157.827 328.557 159.309 329.794C160.782 331.01 161.922 332.737 162.726 334.977C163.507 337.15 163.721 339.222 163.367 341.195C163.014 343.168 162.174 344.912 160.846 346.425C159.511 347.917 157.768 349.049 155.618 349.821C153.423 350.61 151.352 350.899 149.405 350.688C147.472 350.447 145.765 349.707 144.284 348.47C142.802 347.232 141.663 345.504 140.866 343.287C140.086 341.114 139.872 339.042 140.225 337.069C140.578 335.096 141.423 333.363 142.758 331.872C144.086 330.358 145.824 329.215 147.974 328.443ZM148.057 329.096C146.803 329.546 145.863 330.377 145.236 331.589C144.623 332.77 144.333 334.214 144.365 335.922C144.42 337.622 144.805 339.469 145.521 341.462C146.253 343.501 147.169 345.169 148.268 346.469C149.39 347.76 150.581 348.647 151.842 349.13C153.117 349.582 154.348 349.595 155.535 349.168C156.789 348.718 157.723 347.902 158.335 346.721C158.962 345.509 159.248 344.054 159.194 342.354C159.154 340.623 158.779 338.772 158.071 336.801C157.331 334.741 156.404 333.076 155.29 331.807C154.169 330.516 152.982 329.64 151.729 329.18C150.468 328.697 149.244 328.669 148.057 329.096Z" fill="#3A001E"/>
<path d="M125.819 336.403C126.961 335.992 127.917 335.801 128.685 335.828C129.468 335.825 130.162 335.892 130.768 336.028C131.093 336.088 131.35 336.135 131.539 336.168C131.742 336.171 131.922 336.144 132.079 336.088C132.303 336.008 132.415 335.828 132.416 335.55C132.432 335.241 132.389 334.839 132.287 334.344L133.059 334.067C133.174 334.455 133.301 334.915 133.442 335.447C133.604 335.97 133.827 336.661 134.111 337.52C134.408 338.349 134.807 339.457 135.306 340.846L134.533 341.124C133.986 339.955 133.302 338.999 132.479 338.258C131.648 337.494 130.722 336.993 129.7 336.753C128.693 336.483 127.596 336.561 126.409 336.987C125.266 337.398 124.433 338.001 123.91 338.796C123.386 339.591 123.273 340.403 123.571 341.231C123.845 341.993 124.317 342.569 124.989 342.96C125.675 343.32 126.509 343.602 127.493 343.805C128.476 344.008 129.58 344.231 130.805 344.474C132.142 344.676 133.398 344.933 134.572 345.244C135.746 345.556 136.758 346.014 137.608 346.619C138.48 347.216 139.113 348.064 139.507 349.161C139.958 350.415 139.989 351.593 139.6 352.693C139.212 353.794 138.501 354.77 137.466 355.622C136.455 356.466 135.21 357.154 133.731 357.685C132.522 358.119 131.473 358.332 130.585 358.322C129.696 358.313 128.924 358.274 128.267 358.207C127.942 358.147 127.678 358.115 127.474 358.112C127.271 358.109 127.102 358.132 126.968 358.18C126.744 358.261 126.62 358.444 126.597 358.731C126.596 359.01 126.65 359.407 126.76 359.924L125.987 360.202C125.863 359.715 125.688 359.159 125.463 358.532C125.26 357.896 124.977 357.075 124.615 356.067C124.276 355.051 123.828 353.77 123.273 352.225L124.046 351.947C124.65 353.349 125.4 354.521 126.295 355.463C127.19 356.406 128.214 357.037 129.365 357.357C130.509 357.654 131.797 357.545 133.231 357.03C133.858 356.805 134.422 356.476 134.924 356.042C135.448 355.601 135.816 355.077 136.028 354.47C136.232 353.84 136.189 353.122 135.899 352.316C135.65 351.622 135.231 351.09 134.643 350.719C134.077 350.341 133.351 350.045 132.465 349.833C131.572 349.597 130.509 349.385 129.278 349.195C127.955 348.962 126.695 348.694 125.499 348.391C124.317 348.057 123.286 347.58 122.405 346.961C121.525 346.341 120.888 345.483 120.494 344.385C120.059 343.176 120.026 342.062 120.394 341.045C120.784 340.02 121.456 339.108 122.408 338.311C123.361 337.514 124.498 336.877 125.819 336.403Z" fill="#3A001E"/>
<path d="M258.861 383.534L259.471 383.543C259.518 384.588 259.496 385.62 259.407 386.638C259.332 387.626 259.207 388.581 259.033 389.504C258.881 390.418 258.687 391.285 258.45 392.103C258.205 392.899 257.92 393.621 257.597 394.268C258.266 394.584 258.953 394.982 259.657 395.463C260.353 395.921 261.058 396.477 261.773 397.13C262.503 397.753 263.215 398.433 263.91 399.169C264.618 399.876 265.292 400.658 265.929 401.516L265.452 401.878C263.611 400.415 261.716 399.186 259.765 398.193C257.83 397.169 255.735 396.442 253.482 396.012L253.373 395.71C254.83 393.922 255.983 392.029 256.832 390.029C257.696 387.999 258.372 385.834 258.861 383.534ZM265.504 381.754L266.114 381.763C266.16 383.087 266.114 384.367 265.978 385.605C265.863 386.835 265.667 387.98 265.391 389.04C265.129 390.07 264.804 390.996 264.417 391.818C265.239 392.205 266.086 392.735 266.96 393.408C267.848 394.049 268.732 394.819 269.611 395.717C270.512 396.607 271.371 397.589 272.186 398.661L271.709 399.022C269.976 397.647 268.195 396.492 266.366 395.555C264.552 394.589 262.576 393.908 260.436 393.514L260.327 393.211C261.727 391.545 262.818 389.762 263.602 387.862C264.409 385.954 265.043 383.918 265.504 381.754Z" fill="#3A001E"/>
<path d="M239.138 390.659C240.979 392.122 242.867 393.365 244.803 394.389C246.753 395.383 248.859 396.105 251.12 396.557L251.217 396.826C249.76 398.614 248.6 400.523 247.736 402.553C246.887 404.552 246.218 406.702 245.729 409.002L245.131 409.027C245.076 407.959 245.086 406.931 245.161 405.944C245.251 404.925 245.371 403.959 245.523 403.044C245.697 402.122 245.907 401.263 246.152 400.467C246.389 399.648 246.669 398.915 246.993 398.268C246.323 397.952 245.641 397.565 244.945 397.107C244.241 396.627 243.525 396.075 242.795 395.452C242.088 394.821 241.376 394.141 240.659 393.412C239.964 392.676 239.302 391.889 238.673 391.053L239.138 390.659ZM232.881 393.514C234.614 394.889 236.399 396.056 238.236 397.014C240.064 397.951 242.041 398.631 244.166 399.056L244.262 399.325C242.886 400.983 241.794 402.766 240.988 404.674C240.181 406.582 239.547 408.618 239.086 410.782L238.488 410.807C238.456 409.453 238.502 408.172 238.624 406.965C238.739 405.735 238.923 404.594 239.177 403.542C239.454 402.481 239.786 401.54 240.173 400.718C239.351 400.331 238.496 399.816 237.608 399.174C236.734 398.502 235.858 397.717 234.979 396.819C234.1 395.921 233.246 394.951 232.416 393.909L232.881 393.514Z" fill="#3A001E"/>
<path d="M308.603 421.101C307.911 421.35 307.232 421.513 306.566 421.589C305.9 421.666 305.322 421.616 304.83 421.439C304.356 421.27 304.035 420.95 303.866 420.48C303.702 420.022 303.744 419.565 303.992 419.107C304.241 418.649 304.648 418.222 305.214 417.827L305.444 418.098C305.19 418.293 305.027 418.558 304.956 418.893C304.884 419.229 304.91 419.566 305.032 419.906C305.248 420.507 305.686 420.866 306.348 420.982C307.027 421.107 307.811 421.009 308.699 420.69C309.287 420.479 309.834 420.194 310.339 419.835C310.849 419.49 311.224 419.075 311.463 418.591C311.702 418.107 311.718 417.577 311.512 417.002C311.357 416.571 311.073 416.275 310.661 416.113C310.258 415.934 309.605 416.006 308.703 416.33L307.253 416.851C306.835 417.001 306.418 417.114 306.003 417.189C305.588 417.265 305.218 417.243 304.895 417.123C304.572 417.003 304.332 416.727 304.177 416.296C304.018 415.852 304.048 415.362 304.268 414.825C304.484 414.276 305.004 413.609 305.829 412.826L306.128 412.918C305.768 413.313 305.47 413.693 305.232 414.059C304.99 414.411 304.928 414.751 305.045 415.077C305.195 415.495 305.584 415.592 306.211 415.366L308.661 414.486C309.209 414.289 309.741 414.187 310.254 414.179C310.781 414.167 311.249 414.279 311.658 414.516C312.068 414.752 312.371 415.145 312.568 415.693C312.789 416.307 312.8 416.953 312.6 417.629C312.401 418.306 311.968 418.948 311.301 419.556C310.652 420.173 309.753 420.688 308.603 421.101ZM305.878 413.207C305.238 413.437 304.619 413.542 304.021 413.52C303.418 413.486 302.885 413.294 302.42 412.945C301.955 412.595 301.594 412.062 301.336 411.343C301.077 410.624 301.016 409.983 301.153 409.417C301.289 408.852 301.581 408.371 302.028 407.974C302.471 407.564 303.012 407.244 303.653 407.014C304.306 406.78 304.927 406.682 305.516 406.721C306.114 406.742 306.645 406.927 307.11 407.277C307.575 407.626 307.936 408.16 308.195 408.878C308.453 409.597 308.514 410.239 308.378 410.804C308.241 411.369 307.952 411.857 307.509 412.267C307.075 412.659 306.531 412.972 305.878 413.207ZM305.751 412.854C306.247 412.676 306.562 412.342 306.696 411.851C306.843 411.356 306.728 410.586 306.353 409.54C305.977 408.495 305.575 407.828 305.147 407.54C304.732 407.246 304.276 407.189 303.779 407.367C303.296 407.541 302.981 407.875 302.834 408.37C302.688 408.866 302.802 409.636 303.178 410.681C303.553 411.726 303.955 412.393 304.383 412.682C304.812 412.971 305.268 413.028 305.751 412.854ZM307.059 407.627L306.657 407.617C306.68 407.107 306.853 406.602 307.175 406.103C307.497 405.603 307.9 405.267 308.384 405.093C308.723 404.971 309.033 404.971 309.312 405.091C309.587 405.199 309.792 405.443 309.929 405.821C310.074 406.226 310.066 406.554 309.905 406.803C309.753 407.035 309.565 407.191 309.343 407.271C309.147 407.341 308.941 407.342 308.724 407.272C308.502 407.189 308.325 407.003 308.191 406.711C308.056 406.42 308.009 406.002 308.049 405.457L308.325 405.424C307.852 405.83 307.54 406.193 307.389 406.513C307.234 406.819 307.124 407.191 307.059 407.627Z" fill="#3A001E"/>
<path d="M293.607 410.623C294.534 410.29 295.428 410.212 296.289 410.39C297.157 410.55 297.933 410.942 298.615 411.568C299.297 412.193 299.825 413.028 300.201 414.073C300.577 415.119 300.706 416.134 300.588 417.121C300.466 418.094 300.119 418.956 299.548 419.707C298.985 420.44 298.207 420.985 297.215 421.342C296.313 421.666 295.428 421.748 294.559 421.588C293.686 421.415 292.901 421.018 292.206 420.398C291.52 419.759 290.989 418.918 290.613 417.872C290.242 416.84 290.111 415.84 290.221 414.871C290.343 413.898 290.69 413.036 291.261 412.285C291.832 411.534 292.614 410.98 293.607 410.623ZM293.557 411.039C292.721 411.34 292.188 412.033 291.958 413.118C291.742 414.199 291.92 415.537 292.493 417.131C292.915 418.306 293.393 419.204 293.925 419.824C294.453 420.431 295.004 420.816 295.579 420.978C296.167 421.136 296.728 421.118 297.264 420.926C298.113 420.621 298.646 419.928 298.863 418.847C299.074 417.753 298.894 416.409 298.321 414.815C297.899 413.639 297.424 412.748 296.896 412.141C296.363 411.521 295.812 411.136 295.242 410.987C294.667 410.825 294.106 410.842 293.557 411.039Z" fill="#3A001E"/>
<path d="M283.86 409.833L284.08 410.196C283.7 410.495 283.322 410.838 282.944 411.224C282.58 411.606 282.259 412.068 281.982 412.61C281.704 413.152 281.513 413.789 281.407 414.52C281.296 415.239 281.305 416.084 281.433 417.056C281.556 418.014 281.843 419.121 282.293 420.375C282.786 421.747 283.287 422.769 283.794 423.443C284.301 424.116 284.785 424.54 285.246 424.713C285.702 424.874 286.107 424.891 286.459 424.764C286.851 424.623 287.164 424.364 287.396 423.985C287.637 423.589 287.755 423.052 287.748 422.376C287.741 421.7 287.564 420.879 287.216 419.912C286.878 418.971 286.51 418.255 286.113 417.764C285.728 417.268 285.327 416.954 284.912 416.823C284.509 416.688 284.112 416.69 283.72 416.831C283.432 416.934 283.142 417.112 282.849 417.365C282.557 417.618 282.323 417.953 282.148 418.369C281.969 418.773 281.915 419.28 281.986 419.888L281.832 420.076C281.661 419.312 281.685 418.661 281.905 418.125C282.121 417.575 282.427 417.133 282.823 416.799C283.232 416.46 283.626 416.223 284.005 416.087C284.619 415.866 285.255 415.83 285.913 415.977C286.566 416.111 287.171 416.439 287.727 416.962C288.293 417.467 288.739 418.177 289.068 419.092C289.42 420.071 289.524 420.978 289.381 421.811C289.233 422.632 288.896 423.335 288.37 423.923C287.843 424.51 287.188 424.945 286.404 425.227C285.163 425.672 284.009 425.541 282.944 424.833C281.886 424.106 281.04 422.861 280.407 421.097C279.979 419.908 279.745 418.805 279.704 417.787C279.663 416.769 279.758 415.843 279.989 415.008C280.228 414.154 280.553 413.396 280.963 412.732C281.387 412.064 281.852 411.491 282.36 411.014C282.875 410.519 283.375 410.125 283.86 409.833Z" fill="#3A001E"/>
<path d="M263.796 417.971L264.971 421.244L267.872 420.202L268.013 420.594L265.112 421.636L267.837 429.22C268.058 429.834 268.324 430.225 268.635 430.394C268.946 430.562 269.298 430.576 269.69 430.435C270.082 430.294 270.365 430.015 270.54 429.599C270.71 429.169 270.764 428.537 270.7 427.704L271.128 427.662C271.269 428.466 271.238 429.2 271.034 429.864C270.843 430.523 270.349 430.995 269.552 431.281C269.107 431.441 268.72 431.514 268.391 431.499C268.066 431.498 267.755 431.433 267.457 431.304C267.062 431.106 266.73 430.82 266.463 430.444C266.208 430.064 265.956 429.527 265.707 428.835L263.348 422.269L261.467 422.945L261.326 422.554L263.208 421.878L262.13 418.879C262.452 418.749 262.756 418.61 263.043 418.463C263.329 418.316 263.58 418.152 263.796 417.971Z" fill="#3A001E"/>
<path d="M250.432 426.446L250.58 426.857C250.253 426.975 249.975 427.104 249.746 427.245C249.512 427.374 249.395 427.563 249.397 427.813C249.398 428.064 249.598 428.435 249.996 428.926L254.132 434.034L253.988 434.063L254.01 425.072L254.458 425.088L254.505 436.488C254.453 436.507 254.401 436.526 254.349 436.545C254.296 436.564 254.237 436.585 254.172 436.608L247.839 429.081C247.442 428.634 247.12 428.395 246.874 428.366C246.64 428.332 246.452 428.341 246.308 428.392L246.16 427.981C246.435 427.926 246.715 427.862 246.999 427.79C247.291 427.7 247.6 427.596 247.927 427.479C248.332 427.333 248.752 427.168 249.187 426.982C249.634 426.791 250.05 426.613 250.432 426.446ZM261.191 422.58L261.332 422.972C261.093 423.087 260.898 423.283 260.746 423.559C260.603 423.817 260.538 424.231 260.551 424.801L260.737 434.249C260.685 434.268 260.633 434.287 260.581 434.306C260.528 434.324 260.469 434.346 260.404 434.369L254.369 427.487L254.01 425.072C254.088 425.044 254.16 425.018 254.226 424.994C254.304 424.966 254.382 424.938 254.461 424.91L260.426 431.905L260.311 432.079L260.132 425.483C260.116 424.987 260.044 424.622 259.916 424.388C259.796 424.136 259.597 423.994 259.32 423.96C259.051 423.91 258.676 423.956 258.196 424.099L258.056 423.707C258.295 423.635 258.503 423.575 258.677 423.527C258.847 423.466 259.013 423.414 259.174 423.371C259.344 423.31 259.527 423.244 259.723 423.174C260.023 423.066 260.289 422.963 260.519 422.866C260.763 422.763 260.987 422.668 261.191 422.58Z" fill="#3A001E"/>
<path d="M237.749 427.33L238.925 430.603L241.825 429.561L241.966 429.953L239.065 430.995L241.79 438.579C242.011 439.193 242.277 439.585 242.588 439.753C242.9 439.921 243.251 439.935 243.643 439.794C244.035 439.654 244.318 439.375 244.493 438.958C244.663 438.528 244.717 437.897 244.653 437.064L245.081 437.021C245.222 437.826 245.191 438.56 244.987 439.223C244.796 439.882 244.302 440.354 243.505 440.641C243.061 440.8 242.674 440.873 242.344 440.859C242.019 440.857 241.708 440.792 241.411 440.663C241.015 440.466 240.684 440.179 240.416 439.803C240.161 439.423 239.909 438.886 239.66 438.194L237.302 431.629L235.42 432.305L235.279 431.913L237.161 431.237L236.083 428.239C236.405 428.108 236.71 427.969 236.996 427.822C237.282 427.675 237.533 427.511 237.749 427.33Z" fill="#3A001E"/>
<path d="M230.512 433.293C231.662 432.88 232.683 432.911 233.577 433.387C234.479 433.845 235.195 434.812 235.726 436.288L228.808 438.774L228.655 438.408L233.711 436.592C233.507 435.942 233.243 435.373 232.92 434.884C232.592 434.382 232.226 434.02 231.821 433.797C231.43 433.569 231.012 433.534 230.567 433.694C229.966 433.91 229.539 434.403 229.284 435.173C229.043 435.938 229.111 436.99 229.489 438.33L229.576 438.387C229.621 438.592 229.678 438.815 229.75 439.055C229.821 439.295 229.899 439.532 229.984 439.767C230.303 440.656 230.721 441.368 231.239 441.905C231.756 442.442 232.305 442.798 232.884 442.974C233.472 443.131 234.014 443.121 234.51 442.943C234.902 442.802 235.253 442.609 235.564 442.365C235.87 442.108 236.121 441.781 236.318 441.386C236.516 440.99 236.638 440.511 236.687 439.948L237.135 439.964C237.146 440.447 237.061 440.949 236.88 441.472C236.699 441.994 236.407 442.475 236.005 442.915C235.597 443.341 235.067 443.672 234.414 443.907C233.473 444.245 232.586 444.32 231.751 444.133C230.93 443.941 230.201 443.532 229.563 442.906C228.933 442.262 228.44 441.443 228.083 440.45C227.67 439.301 227.498 438.249 227.568 437.294C227.634 436.326 227.92 435.501 228.426 434.817C228.928 434.121 229.624 433.613 230.512 433.293Z" fill="#3A001E"/>
<path d="M220.641 436.84C221.138 436.662 221.573 436.579 221.946 436.592C222.333 436.601 222.68 436.683 222.986 436.838C223.328 437.011 223.622 437.274 223.867 437.628C224.113 437.983 224.355 438.493 224.595 439.159L226.475 444.392C226.672 444.94 226.917 445.273 227.209 445.389C227.515 445.501 227.935 445.46 228.471 445.268L228.619 445.679C228.392 445.746 228.048 445.855 227.586 446.006C227.119 446.144 226.67 446.291 226.239 446.446C225.808 446.601 225.388 446.766 224.979 446.943C224.579 447.101 224.277 447.225 224.072 447.313L223.924 446.901C224.395 446.732 224.693 446.515 224.818 446.248C224.944 445.982 224.908 445.574 224.711 445.025L222.676 439.362C222.53 438.957 222.364 438.596 222.177 438.28C221.989 437.964 221.74 437.743 221.43 437.619C221.133 437.49 220.749 437.509 220.279 437.678C219.73 437.876 219.303 438.206 218.998 438.67C218.705 439.129 218.54 439.675 218.502 440.308C218.472 440.924 218.577 441.565 218.817 442.231L220.38 446.582C220.577 447.13 220.809 447.467 221.075 447.593C221.342 447.719 221.71 447.697 222.18 447.528L222.328 447.939C222.114 448.001 221.796 448.101 221.373 448.238C220.959 448.358 220.536 448.495 220.105 448.65C219.674 448.805 219.234 448.977 218.787 449.168C218.334 449.345 217.999 449.48 217.782 449.573L217.634 449.162C218.169 448.969 218.513 448.735 218.665 448.459C218.829 448.179 218.813 447.764 218.616 447.215L216.412 441.081C216.201 440.493 215.941 440.1 215.634 439.901C215.322 439.688 214.878 439.685 214.303 439.892L214.155 439.48C214.587 439.369 214.999 439.243 215.391 439.103C215.77 438.967 216.123 438.818 216.448 438.657C216.782 438.478 217.076 438.291 217.331 438.096L218.162 440.408C218.182 439.398 218.432 438.615 218.911 438.059C219.398 437.486 219.975 437.08 220.641 436.84Z" fill="#3A001E"/>
<path d="M65.8203 274.242L159.69 240.514L171.46 273.273L77.5908 307.001L65.8203 274.242Z" fill="#3A001E"/>
<path d="M224.644 217.176L318.513 183.448L330.283 216.207L236.414 249.935L224.644 217.176Z" fill="#3A001E"/>
<path d="M153.531 250.641C155.371 252.103 157.26 253.347 159.196 254.371C161.146 255.365 163.251 256.087 165.513 256.539L165.609 256.808C164.153 258.596 162.993 260.505 162.129 262.535C161.279 264.534 160.61 266.684 160.122 268.984L159.524 269.009C159.469 267.941 159.479 266.913 159.554 265.926C159.643 264.907 159.764 263.941 159.916 263.026C160.09 262.104 160.3 261.245 160.545 260.449C160.782 259.63 161.062 258.897 161.386 258.25C160.716 257.934 160.033 257.547 159.338 257.089C158.634 256.609 157.917 256.057 157.188 255.434C156.48 254.803 155.768 254.123 155.051 253.394C154.357 252.658 153.695 251.871 153.066 251.035L153.531 250.641ZM147.274 253.496C149.007 254.871 150.792 256.038 152.628 256.996C154.457 257.932 156.433 258.613 158.558 259.038L158.655 259.307C157.278 260.965 156.187 262.748 155.38 264.656C154.574 266.564 153.94 268.6 153.478 270.764L152.88 270.789C152.849 269.435 152.894 268.154 153.017 266.947C153.131 265.717 153.316 264.576 153.57 263.524C153.846 262.463 154.178 261.522 154.566 260.7C153.744 260.313 152.889 259.798 152.001 259.156C151.127 258.484 150.251 257.699 149.372 256.801C148.493 255.903 147.638 254.933 146.809 253.89L147.274 253.496Z" fill="white"/>
<path d="M134.535 257.466C136.375 258.929 138.264 260.173 140.199 261.197C142.15 262.19 144.255 262.913 146.517 263.365L146.613 263.634C145.157 265.422 143.996 267.33 143.133 269.36C142.283 271.36 141.614 273.51 141.126 275.809L140.528 275.835C140.473 274.767 140.483 273.739 140.558 272.751C140.647 271.733 140.768 270.766 140.92 269.852C141.094 268.93 141.304 268.07 141.549 267.274C141.786 266.456 142.066 265.723 142.39 265.075C141.72 264.76 141.037 264.373 140.342 263.915C139.638 263.434 138.921 262.882 138.192 262.26C137.484 261.629 136.772 260.949 136.055 260.22C135.361 259.483 134.699 258.697 134.07 257.861L134.535 257.466ZM128.278 260.321C130.011 261.696 131.796 262.863 133.632 263.822C135.46 264.758 137.437 265.439 139.562 265.864L139.659 266.132C138.282 267.79 137.191 269.573 136.384 271.482C135.578 273.39 134.944 275.426 134.482 277.59L133.884 277.615C133.853 276.26 133.898 274.98 134.021 273.772C134.135 272.543 134.32 271.402 134.574 270.349C134.85 269.289 135.182 268.348 135.57 267.526C134.748 267.138 133.893 266.624 133.005 265.982C132.131 265.31 131.254 264.524 130.375 263.626C129.496 262.728 128.642 261.758 127.812 260.716L128.278 260.321Z" fill="white"/>
<path d="M115.54 264.291C117.38 265.754 119.268 266.998 121.204 268.022C123.154 269.015 125.26 269.738 127.522 270.19L127.618 270.459C126.162 272.247 125.001 274.156 124.138 276.186C123.288 278.185 122.619 280.335 122.13 282.635L121.533 282.66C121.478 281.592 121.488 280.564 121.563 279.576C121.652 278.558 121.773 277.592 121.924 276.677C122.099 275.755 122.308 274.896 122.553 274.099C122.79 273.281 123.071 272.548 123.395 271.901C122.725 271.585 122.042 271.198 121.346 270.74C120.643 270.259 119.926 269.708 119.196 269.085C118.489 268.454 117.777 267.774 117.06 267.045C116.366 266.309 115.704 265.522 115.075 264.686L115.54 264.291ZM109.282 267.147C111.016 268.522 112.8 269.689 114.637 270.647C116.465 271.583 118.442 272.264 120.567 272.689L120.664 272.958C119.287 274.616 118.195 276.399 117.389 278.307C116.583 280.215 115.949 282.251 115.487 284.415L114.889 284.44C114.858 283.086 114.903 281.805 115.026 280.597C115.14 279.368 115.325 278.227 115.579 277.175C115.855 276.114 116.187 275.173 116.575 274.351C115.753 273.964 114.898 273.449 114.009 272.807C113.136 272.135 112.259 271.35 111.38 270.452C110.501 269.554 109.647 268.584 108.817 267.541L109.282 267.147Z" fill="white"/>
<path d="M96.5435 271.117C98.3841 272.58 100.272 273.823 102.208 274.847C104.158 275.841 106.264 276.563 108.525 277.015L108.622 277.284C107.165 279.072 106.005 280.981 105.141 283.011C104.292 285.01 103.623 287.16 103.134 289.46L102.536 289.485C102.482 288.417 102.492 287.389 102.567 286.402C102.656 285.383 102.776 284.417 102.928 283.502C103.103 282.58 103.312 281.721 103.557 280.925C103.794 280.106 104.075 279.373 104.398 278.726C103.729 278.41 103.046 278.023 102.35 277.565C101.647 277.085 100.93 276.533 100.2 275.91C99.4931 275.279 98.781 274.599 98.064 273.87C97.3694 273.134 96.7076 272.347 96.0784 271.511L96.5435 271.117ZM90.2863 273.972C92.0195 275.347 93.8043 276.514 95.6408 277.472C97.4692 278.409 99.446 279.089 101.571 279.514L101.668 279.783C100.291 281.441 99.1994 283.224 98.393 285.132C97.5866 287.04 96.9526 289.076 96.4908 291.24L95.893 291.265C95.8615 289.911 95.9071 288.63 96.0297 287.423C96.1442 286.193 96.3285 285.052 96.5826 284C96.8591 282.939 97.1911 281.998 97.5786 281.176C96.7566 280.789 95.9015 280.274 95.0134 279.632C94.1396 278.96 93.2632 278.175 92.3842 277.277C91.5052 276.379 90.6509 275.409 89.8212 274.367L90.2863 273.972Z" fill="white"/>
<path d="M77.5474 277.942C79.3881 279.405 81.2763 280.649 83.2121 281.673C85.1623 282.666 87.268 283.389 89.5294 283.841L89.6259 284.11C88.1694 285.898 87.0092 287.806 86.1454 289.836C85.2959 291.836 84.6269 293.986 84.1382 296.285L83.5403 296.311C83.4855 295.243 83.4955 294.215 83.5704 293.227C83.6597 292.209 83.7804 291.243 83.9323 290.328C84.1066 289.406 84.3163 288.546 84.5613 287.75C84.7983 286.932 85.0786 286.199 85.4024 285.552C84.7326 285.236 84.0499 284.849 83.3542 284.391C82.6505 283.91 81.9338 283.359 81.2042 282.736C80.497 282.105 79.7849 281.425 79.0679 280.696C78.3734 279.959 77.7115 279.173 77.0823 278.337L77.5474 277.942ZM71.2902 280.798C73.0234 282.173 74.8083 283.339 76.6447 284.298C78.4731 285.234 80.4499 285.915 82.5751 286.34L82.6717 286.609C81.2949 288.266 80.2033 290.05 79.3969 291.958C78.5905 293.866 77.9565 295.902 77.4947 298.066L76.8969 298.091C76.8655 296.736 76.911 295.456 77.0336 294.248C77.1481 293.019 77.3324 291.878 77.5865 290.825C77.8631 289.765 78.195 288.824 78.5825 288.002C77.7605 287.614 76.9054 287.1 76.0173 286.458C75.1435 285.786 74.2671 285.001 73.3881 284.103C72.5091 283.205 71.6548 282.234 70.8251 281.192L71.2902 280.798Z" fill="white"/>
<path d="M237.157 220.594C236.668 222.894 236.003 225.054 235.162 227.076C234.29 229.084 233.126 230.982 231.669 232.769L231.766 233.038C234.027 233.49 236.137 234.224 238.095 235.24C240.023 236.242 241.907 237.474 243.747 238.937L244.225 238.576C243.587 237.717 242.926 236.931 242.239 236.217C241.522 235.488 240.814 234.819 240.115 234.211C239.393 233.61 238.685 233.081 237.989 232.623C237.285 232.142 236.603 231.755 235.941 231.462C236.257 230.792 236.537 230.059 236.782 229.263C237.019 228.445 237.22 227.563 237.387 226.618C237.531 225.681 237.647 224.704 237.737 223.686C237.803 222.675 237.813 221.648 237.767 220.602L237.157 220.594ZM243.8 218.814C243.338 220.977 242.704 223.013 241.898 224.921C241.084 226.807 239.992 228.59 238.623 230.271L238.72 230.539C240.837 230.942 242.814 231.623 244.65 232.581C246.487 233.54 248.271 234.707 250.005 236.082L250.482 235.721C249.644 234.656 248.794 233.697 247.931 232.844C247.06 231.968 246.192 231.206 245.326 230.556C244.438 229.914 243.583 229.399 242.761 229.012C243.148 228.19 243.48 227.249 243.757 226.188C244.003 225.114 244.179 223.95 244.285 222.698C244.392 221.446 244.433 220.154 244.41 218.822L243.8 218.814Z" fill="white"/>
<path d="M256.153 213.768C255.664 216.068 254.999 218.229 254.158 220.251C253.286 222.258 252.122 224.156 250.665 225.944L250.762 226.213C253.023 226.664 255.133 227.398 257.091 228.414C259.019 229.416 260.903 230.648 262.744 232.111L263.221 231.75C262.584 230.892 261.922 230.105 261.235 229.391C260.518 228.662 259.81 227.994 259.111 227.385C258.389 226.785 257.681 226.255 256.985 225.797C256.281 225.317 255.599 224.93 254.937 224.636C255.253 223.967 255.533 223.234 255.778 222.438C256.015 221.619 256.217 220.737 256.383 219.793C256.527 218.856 256.643 217.878 256.733 216.86C256.8 215.85 256.81 214.822 256.763 213.777L256.153 213.768ZM262.796 211.988C262.335 214.152 261.7 216.188 260.894 218.096C260.08 219.982 258.988 221.765 257.619 223.445L257.716 223.714C259.833 224.116 261.81 224.797 263.646 225.756C265.483 226.714 267.268 227.881 269.001 229.256L269.478 228.895C268.64 227.83 267.79 226.871 266.927 226.018C266.056 225.143 265.188 224.38 264.322 223.73C263.434 223.088 262.579 222.573 261.757 222.186C262.144 221.364 262.476 220.423 262.753 219.363C262.999 218.288 263.175 217.125 263.282 215.872C263.388 214.62 263.43 213.328 263.406 211.996L262.796 211.988Z" fill="white"/>
<path d="M275.149 206.943C274.66 209.243 273.995 211.404 273.154 213.426C272.282 215.433 271.118 217.331 269.661 219.119L269.758 219.387C272.019 219.839 274.129 220.573 276.087 221.589C278.015 222.591 279.899 223.823 281.74 225.286L282.217 224.925C281.58 224.066 280.918 223.28 280.231 222.566C279.514 221.837 278.806 221.169 278.107 220.56C277.385 219.959 276.677 219.43 275.981 218.972C275.277 218.491 274.595 218.105 273.933 217.811C274.249 217.141 274.529 216.409 274.774 215.612C275.011 214.794 275.213 213.912 275.379 212.967C275.523 212.031 275.639 211.053 275.729 210.035C275.796 209.024 275.806 207.997 275.759 206.951L275.149 206.943ZM281.792 205.163C281.331 207.326 280.697 209.362 279.89 211.271C279.076 213.156 277.984 214.94 276.615 216.62L276.712 216.889C278.829 217.291 280.806 217.972 282.642 218.93C284.479 219.889 286.264 221.056 287.997 222.431L288.474 222.07C287.636 221.005 286.786 220.046 285.923 219.193C285.052 218.317 284.184 217.555 283.318 216.905C282.43 216.263 281.575 215.748 280.753 215.361C281.14 214.539 281.472 213.598 281.749 212.537C281.995 211.463 282.171 210.299 282.278 209.047C282.384 207.795 282.426 206.503 282.402 205.171L281.792 205.163Z" fill="white"/>
<path d="M294.144 200.118C293.655 202.418 292.99 204.578 292.149 206.6C291.277 208.608 290.113 210.506 288.656 212.293L288.753 212.562C291.014 213.014 293.124 213.748 295.082 214.764C297.01 215.766 298.894 216.998 300.735 218.461L301.212 218.1C300.575 217.241 299.913 216.455 299.226 215.741C298.509 215.012 297.801 214.343 297.102 213.735C296.381 213.134 295.672 212.605 294.976 212.147C294.273 211.666 293.59 211.279 292.928 210.986C293.244 210.316 293.524 209.583 293.769 208.787C294.006 207.969 294.208 207.087 294.374 206.142C294.518 205.205 294.635 204.228 294.724 203.21C294.791 202.199 294.801 201.171 294.754 200.126L294.144 200.118ZM300.787 198.338C300.326 200.501 299.692 202.537 298.885 204.445C298.071 206.331 296.979 208.114 295.611 209.795L295.707 210.063C297.824 210.466 299.801 211.147 301.637 212.105C303.474 213.064 305.259 214.231 306.992 215.606L307.469 215.245C306.631 214.18 305.781 213.221 304.918 212.368C304.047 211.492 303.179 210.729 302.313 210.08C301.425 209.438 300.57 208.923 299.748 208.536C300.135 207.714 300.467 206.772 300.744 205.712C300.99 204.637 301.166 203.474 301.273 202.222C301.379 200.97 301.421 199.678 301.397 198.346L300.787 198.338Z" fill="white"/>
<path d="M313.14 193.292C312.651 195.592 311.986 197.753 311.145 199.775C310.273 201.782 309.109 203.68 307.652 205.468L307.749 205.736C310.01 206.188 312.12 206.922 314.078 207.938C316.006 208.94 317.89 210.172 319.731 211.635L320.208 211.274C319.571 210.416 318.909 209.629 318.222 208.915C317.505 208.186 316.797 207.518 316.098 206.909C315.377 206.309 314.668 205.779 313.972 205.321C313.269 204.841 312.586 204.454 311.924 204.16C312.24 203.491 312.52 202.758 312.765 201.962C313.002 201.143 313.204 200.261 313.37 199.317C313.514 198.38 313.631 197.402 313.72 196.384C313.787 195.374 313.797 194.346 313.75 193.3L313.14 193.292ZM319.784 191.512C319.322 193.676 318.688 195.712 317.881 197.62C317.067 199.506 315.975 201.289 314.607 202.969L314.703 203.238C316.82 203.64 318.797 204.321 320.634 205.28C322.47 206.238 324.255 207.405 325.988 208.78L326.465 208.419C325.628 207.354 324.777 206.395 323.914 205.542C323.043 204.667 322.175 203.904 321.309 203.254C320.421 202.612 319.566 202.097 318.744 201.71C319.132 200.888 319.464 199.947 319.74 198.886C319.986 197.812 320.162 196.648 320.269 195.396C320.375 194.144 320.417 192.852 320.393 191.52L319.784 191.512Z" fill="white"/>
<path d="M237.014 231.225C244.746 252.744 233.569 276.455 212.051 284.187C190.533 291.919 166.821 280.742 159.089 259.224C151.358 237.706 162.534 213.994 184.052 206.262C205.57 198.531 229.282 209.707 237.014 231.225Z" fill="#3A001E"/>
<path d="M190.47 223.27C193.568 222.157 196.669 221.696 199.772 221.888C202.876 222.079 205.798 222.821 208.537 224.112C211.328 225.428 213.785 227.221 215.908 229.493C218.044 231.802 219.662 234.487 220.762 237.548C221.875 240.646 222.336 243.747 222.145 246.851C221.953 249.954 221.193 252.883 219.864 255.636C218.586 258.413 216.811 260.863 214.539 262.986C212.267 265.109 209.582 266.727 206.484 267.84C203.423 268.94 200.322 269.401 197.182 269.223C194.078 269.031 191.131 268.278 188.34 266.963C185.6 265.671 183.169 263.889 181.046 261.618C178.923 259.346 177.305 256.661 176.192 253.562C175.092 250.502 174.631 247.401 174.809 244.26C175.001 241.157 175.736 238.216 177.014 235.439C178.343 232.685 180.143 230.247 182.415 228.124C184.724 225.988 187.409 224.37 190.47 223.27ZM191.275 225.51C188.438 226.529 185.975 228.004 183.887 229.935C181.799 231.865 180.132 234.087 178.885 236.6C177.676 239.1 176.966 241.757 176.755 244.572C176.582 247.374 176.991 250.156 177.984 252.919C178.976 255.681 180.431 258.087 182.348 260.138C184.302 262.176 186.541 263.774 189.065 264.932C191.626 266.077 194.326 266.73 197.165 266.89C200.004 267.05 202.842 266.62 205.679 265.601C208.516 264.581 210.979 263.106 213.067 261.176C215.155 259.246 216.804 257.031 218.013 254.531C219.26 252.018 219.97 249.36 220.143 246.558C220.354 243.743 219.963 240.954 218.97 238.192C217.978 235.43 216.504 233.03 214.55 230.992C212.633 228.942 210.394 227.344 207.833 226.199C205.309 225.04 202.628 224.381 199.789 224.221C196.95 224.061 194.112 224.491 191.275 225.51ZM188.631 253.519C188.845 254.116 189.224 254.759 189.767 255.449C190.31 256.139 191.128 256.773 192.22 257.35C193.326 257.964 194.804 258.381 196.653 258.602L196.659 259.675C195.08 259.736 193.406 259.537 191.639 259.076C189.885 258.652 188.267 257.843 186.784 256.648C185.301 255.453 184.163 253.754 183.372 251.552C182.487 249.088 182.186 246.667 182.47 244.289C182.804 241.935 183.876 239.759 185.687 237.759C187.497 235.76 190.213 234.11 193.834 232.809C197.306 231.562 200.401 231.145 203.121 231.559C205.84 231.972 208.142 233.042 210.027 234.767C211.924 236.53 213.35 238.736 214.302 241.387C214.892 243.029 215.207 244.728 215.248 246.484C215.34 248.263 215.05 249.863 214.381 251.284C213.725 252.742 212.538 253.78 210.821 254.397C209.365 254.92 208.003 254.882 206.734 254.284C205.479 253.724 204.597 252.734 204.087 251.316C203.551 249.823 203.557 248.493 204.108 247.326C204.671 246.196 205.643 245.383 207.024 244.887C208.294 244.431 209.524 244.452 210.715 244.952C211.906 245.451 212.852 246.207 213.553 247.219C213.73 246.776 213.817 246.197 213.813 245.482C213.809 244.767 213.673 244.036 213.405 243.289C212.962 242.058 212.2 241.109 211.118 240.444C210.05 239.817 208.476 239.602 206.398 239.801C204.32 240 201.508 240.736 197.962 242.01C194.901 243.11 192.621 244.33 191.121 245.669C189.622 247.009 188.718 248.366 188.411 249.741C188.142 251.102 188.215 252.361 188.631 253.519Z" fill="white"/>
<path d="M206.809 268.982C203.711 270.095 200.61 270.556 197.507 270.365C194.403 270.173 191.482 269.432 188.742 268.14C185.951 266.825 183.494 265.031 181.371 262.759C179.235 260.45 177.617 257.765 176.517 254.704C175.404 251.606 174.943 248.505 175.135 245.402C175.326 242.298 176.086 239.37 177.415 236.617C178.693 233.839 180.468 231.389 182.74 229.266C185.012 227.143 187.697 225.525 190.795 224.412C193.856 223.312 196.957 222.851 200.098 223.03C203.201 223.221 206.148 223.974 208.939 225.29C211.679 226.581 214.11 228.363 216.233 230.635C218.356 232.907 219.974 235.592 221.087 238.69C222.187 241.751 222.648 244.852 222.47 247.993C222.278 251.096 221.544 254.036 220.266 256.814C218.937 259.567 217.136 262.005 214.865 264.128C212.555 266.264 209.87 267.882 206.809 268.982ZM206.005 266.742C208.842 265.723 211.304 264.248 213.392 262.318C215.48 260.387 217.148 258.166 218.394 255.653C219.604 253.153 220.313 250.495 220.524 247.68C220.698 244.878 220.288 242.096 219.296 239.334C218.303 236.571 216.848 234.165 214.931 232.114C212.977 230.077 210.738 228.479 208.214 227.32C205.653 226.175 202.953 225.523 200.114 225.363C197.275 225.203 194.437 225.632 191.6 226.652C188.763 227.671 186.3 229.146 184.212 231.076C182.124 233.007 180.475 235.222 179.266 237.722C178.02 240.235 177.31 242.892 177.136 245.694C176.926 248.509 177.317 251.298 178.309 254.06C179.302 256.823 180.775 259.223 182.729 261.26C184.646 263.311 186.885 264.909 189.446 266.054C191.97 267.212 194.651 267.871 197.49 268.031C200.33 268.191 203.168 267.762 206.005 266.742ZM208.648 238.734C208.434 238.137 208.055 237.493 207.512 236.803C206.969 236.113 206.152 235.48 205.059 234.903C203.953 234.288 202.476 233.871 200.626 233.65L200.62 232.578C202.2 232.516 203.873 232.716 205.64 233.177C207.394 233.6 209.012 234.409 210.496 235.605C211.979 236.8 213.116 238.499 213.907 240.701C214.792 243.165 215.093 245.585 214.81 247.963C214.475 250.317 213.403 252.494 211.592 254.493C209.782 256.492 207.066 258.142 203.445 259.443C199.974 260.691 196.878 261.107 194.159 260.694C191.439 260.28 189.137 259.211 187.253 257.485C185.355 255.723 183.93 253.516 182.978 250.866C182.387 249.223 182.072 247.524 182.031 245.769C181.94 243.989 182.229 242.389 182.899 240.968C183.555 239.51 184.741 238.473 186.459 237.856C187.914 237.333 189.276 237.37 190.545 237.968C191.8 238.529 192.682 239.518 193.192 240.937C193.729 242.43 193.722 243.76 193.172 244.927C192.608 246.057 191.636 246.87 190.255 247.366C188.986 247.822 187.756 247.8 186.565 247.301C185.374 246.802 184.428 246.046 183.727 245.033C183.549 245.476 183.462 246.055 183.466 246.771C183.47 247.486 183.606 248.216 183.874 248.963C184.317 250.195 185.079 251.143 186.161 251.808C187.23 252.436 188.803 252.65 190.881 252.451C192.959 252.253 195.771 251.516 199.317 250.242C202.378 249.142 204.659 247.923 206.158 246.583C207.658 245.243 208.561 243.886 208.868 242.512C209.137 241.15 209.064 239.891 208.648 238.734Z" fill="white"/>
<path d="M2.04388 95.2633C1.30393 93.2039 2.37355 90.9345 4.43296 90.1946L248.726 2.41858C250.786 1.67863 253.055 2.74825 253.795 4.80766L277.083 69.6209C277.823 71.6803 276.753 73.9496 274.694 74.6896L30.4003 162.466C28.3409 163.206 26.0716 162.136 25.3316 160.076L2.04388 95.2633Z" fill="#3A001E" stroke="white"/>
<path d="M92.8093 140.574L66.8027 68.1934" stroke="white"/>
<path d="M92.8093 140.574L66.8027 68.1934" stroke="white"/>
<path d="M110.697 133.207L84.6904 60.8267" stroke="white"/>
<path d="M110.697 133.207L84.6904 60.8267" stroke="white"/>
<path d="M129.034 127.088L103.027 54.7075" stroke="white"/>
<path d="M129.034 127.088L103.027 54.7075" stroke="white"/>
<path d="M147.22 120.554L121.214 48.1733" stroke="white"/>
<path d="M147.22 120.554L121.214 48.1733" stroke="white"/>
<path d="M164.25 114.438L138.243 42.0576" stroke="white"/>
<path d="M164.25 114.438L138.243 42.0576" stroke="white"/>
<path d="M182.137 107.071L156.131 34.6909" stroke="white"/>
<path d="M182.137 107.071L156.131 34.6909" stroke="white"/>
<path d="M200.474 100.952L174.468 28.5718" stroke="white"/>
<path d="M200.474 100.952L174.468 28.5718" stroke="white"/>
<path d="M218.661 94.4178L192.654 22.0376" stroke="white"/>
<path d="M218.661 94.4178L192.654 22.0376" stroke="white"/>
<path d="M218.959 95.2474L192.952 22.8672" stroke="white"/>
<path d="M218.959 95.2474L192.952 22.8672" stroke="white"/>
<path d="M236.846 87.8807L210.84 15.5005" stroke="white"/>
<path d="M236.846 87.8807L210.84 15.5005" stroke="white"/>
<path d="M255.183 81.7615L229.177 9.38135" stroke="white"/>
<path d="M255.183 81.7615L229.177 9.38135" stroke="white"/>
<path d="M273.37 75.2274L247.363 2.84717" stroke="white"/>
<path d="M273.37 75.2274L247.363 2.84717" stroke="white"/>
<path d="M38.5476 161.093L12.541 88.7124" stroke="white"/>
<path d="M38.5476 161.093L12.541 88.7124" stroke="white"/>
<path d="M56.4353 153.726L30.4287 81.3462" stroke="white"/>
<path d="M56.4353 153.726L30.4287 81.3462" stroke="white"/>
<path d="M74.7722 147.607L48.7656 75.2271" stroke="white"/>
<path d="M74.7722 147.607L48.7656 75.2271" stroke="white"/>
<path d="M92.9588 141.073L66.9521 68.6929" stroke="white"/>
<path d="M92.9588 141.073L66.9521 68.6929" stroke="white"/>
</svg>
