<svg width="415" height="608" viewBox="0 0 415 608" fill="none" xmlns="http://www.w3.org/2000/svg">
<path fill-rule="evenodd" clip-rule="evenodd" d="M16.5278 10.8818C7.64031 11.1286 0.635596 18.5334 0.88237 27.4209L1.12847 36.2841C1.19744 38.7681 1.82557 41.105 2.88895 43.1777C3.93341 42.339 5.25022 41.8219 6.6925 41.7819C10.205 41.6844 13.1315 44.4528 13.229 47.9652C13.3191 51.2086 10.9656 53.9523 7.83909 54.4305L23.1819 607L406.69 596.352L391.346 43.7204C390.963 43.8038 390.567 43.8528 390.161 43.8641C386.649 43.9616 383.722 41.1932 383.624 37.6807C383.527 34.1682 386.295 31.2417 389.808 31.1442C392.6 31.0667 395.022 32.8 395.947 35.2785C398.027 32.4806 399.218 28.9895 399.114 25.2336L398.868 16.3703C398.621 7.48281 391.216 0.47809 382.329 0.724863L16.5278 10.8818Z" fill="#F0572F"/>
<path fill-rule="evenodd" clip-rule="evenodd" d="M375.466 37.1348L25.4139 47.3025L25.3672 45.6934L375.419 35.5256L375.466 37.1348Z" fill="black"/>
<path d="M324.564 246.704C324.493 247.938 324.006 248.934 323.101 249.69C322.193 250.499 320.987 250.861 319.484 250.775C317.82 250.68 316.274 250.404 314.846 249.945C313.469 249.543 311.912 248.996 310.174 248.305C308.436 247.613 306.19 246.865 303.436 246.061L303.5 244.934C306.164 244.494 308.399 244.029 310.204 243.54C312.009 243.051 313.647 242.66 315.118 242.367C316.642 242.077 318.237 241.98 319.901 242.075C321.404 242.161 322.56 242.658 323.37 243.566C324.18 244.474 324.578 245.52 324.564 246.704Z" fill="black"/>
<path d="M321.345 268.174C321.05 269.375 320.389 270.265 319.361 270.843C318.32 271.473 317.069 271.609 315.607 271.25C313.988 270.853 312.519 270.298 311.199 269.587C309.918 268.94 308.486 268.119 306.904 267.121C305.322 266.124 303.25 264.979 300.689 263.686L300.958 262.589C303.657 262.643 305.939 262.594 307.803 262.442C309.668 262.291 311.349 262.205 312.849 262.186C314.401 262.179 315.986 262.374 317.605 262.772C319.067 263.131 320.113 263.83 320.744 264.871C321.374 265.911 321.574 267.012 321.345 268.174Z" fill="black"/>
<path d="M314.424 288.311C313.919 289.44 313.109 290.197 311.994 290.581C310.858 291.015 309.602 290.925 308.228 290.31C306.707 289.629 305.36 288.82 304.189 287.884C303.045 287.018 301.784 285.953 300.406 284.688C299.028 283.424 297.195 281.926 294.906 280.195L295.367 279.164C298.014 279.701 300.268 280.061 302.129 280.246C303.99 280.431 305.66 280.648 307.139 280.898C308.667 281.169 310.191 281.645 311.713 282.326C313.087 282.941 313.991 283.817 314.425 284.954C314.858 286.09 314.858 287.21 314.424 288.311Z" fill="black"/>
<path d="M303.967 306.949C303.267 307.968 302.335 308.568 301.169 308.746C299.973 308.969 298.754 308.655 297.513 307.803C296.138 306.861 294.959 305.824 293.974 304.692C293.004 303.635 291.954 302.362 290.825 300.87C289.697 299.379 288.162 297.577 286.221 295.463L286.86 294.532C289.367 295.534 291.519 296.293 293.317 296.809C295.115 297.325 296.719 297.838 298.129 298.349C299.583 298.89 300.998 299.632 302.372 300.574C303.614 301.426 304.346 302.45 304.569 303.646C304.792 304.842 304.591 305.943 303.967 306.949Z" fill="black"/>
<path d="M290.411 323.35C289.542 324.229 288.518 324.654 287.339 324.623C286.123 324.63 284.979 324.105 283.908 323.046C282.723 321.875 281.746 320.645 280.978 319.357C280.21 318.145 279.403 316.705 278.557 315.037C277.71 313.369 276.52 311.323 274.984 308.899L275.778 308.096C278.068 309.527 280.051 310.656 281.729 311.482C283.407 312.309 284.895 313.098 286.192 313.851C287.527 314.641 288.788 315.622 289.973 316.794C291.044 317.852 291.583 318.99 291.59 320.206C291.598 321.423 291.205 322.471 290.411 323.35Z" fill="black"/>
<path d="M274.146 337.092C273.135 337.803 272.051 338.039 270.897 337.799C269.698 337.59 268.666 336.87 267.8 335.638C266.842 334.275 266.099 332.891 265.572 331.487C265.032 330.158 264.493 328.597 263.957 326.806C263.42 325.014 262.612 322.789 261.532 320.131L262.455 319.481C264.454 321.296 266.206 322.76 267.71 323.871C269.215 324.982 270.538 326.024 271.681 326.995C272.855 328.01 273.921 329.199 274.88 330.563C275.745 331.794 276.074 333.009 275.865 334.208C275.656 335.406 275.083 336.368 274.146 337.092Z" fill="black"/>
<path d="M255.624 347.745C254.501 348.262 253.393 348.299 252.301 347.855C251.16 347.434 250.274 346.539 249.644 345.172C248.947 343.658 248.465 342.163 248.2 340.687C247.908 339.282 247.66 337.65 247.455 335.791C247.249 333.932 246.855 331.598 246.271 328.789L247.297 328.316C248.936 330.462 250.396 332.217 251.675 333.581C252.955 334.945 254.069 336.207 255.018 337.369C255.99 338.579 256.825 339.94 257.522 341.454C258.152 342.822 258.256 344.076 257.834 345.217C257.413 346.359 256.676 347.201 255.624 347.745Z" fill="black"/>
<path d="M235.505 354.888C234.307 355.194 233.211 355.031 232.216 354.397C231.17 353.777 230.46 352.738 230.086 351.28C229.673 349.665 229.469 348.108 229.473 346.608C229.439 345.174 229.489 343.524 229.622 341.658C229.755 339.793 229.787 337.425 229.719 334.557L230.813 334.277C232.039 336.683 233.159 338.672 234.172 340.244C235.184 341.816 236.053 343.259 236.778 344.572C237.516 345.937 238.091 347.427 238.505 349.042C238.878 350.5 238.755 351.753 238.135 352.799C237.514 353.846 236.638 354.542 235.505 354.888Z" fill="black"/>
<path d="M214.545 358.291C213.312 358.382 212.262 358.029 211.394 357.23C210.472 356.436 209.956 355.288 209.844 353.787C209.721 352.125 209.793 350.556 210.061 349.08C210.279 347.662 210.618 346.047 211.076 344.233C211.535 342.42 211.982 340.096 212.419 337.26L213.545 337.176C214.33 339.76 215.083 341.914 215.804 343.64C216.525 345.366 217.127 346.939 217.609 348.358C218.096 349.832 218.401 351.4 218.525 353.062C218.636 354.563 218.295 355.775 217.5 356.696C216.706 357.618 215.721 358.149 214.545 358.291Z" fill="black"/>
<path d="M192.834 357.885C191.604 357.753 190.635 357.216 189.925 356.275C189.161 355.327 188.86 354.105 189.021 352.608C189.199 350.951 189.553 349.421 190.082 348.018C190.552 346.662 191.176 345.134 191.954 343.433C192.732 341.732 193.591 339.526 194.531 336.815L195.654 336.936C195.96 339.619 196.312 341.874 196.711 343.701C197.109 345.528 197.418 347.184 197.637 348.668C197.85 350.205 197.868 351.802 197.69 353.459C197.529 354.956 196.975 356.086 196.028 356.849C195.08 357.613 194.016 357.958 192.834 357.885Z" fill="black"/>
<path d="M171.871 353.633C170.686 353.279 169.83 352.575 169.303 351.52C168.725 350.45 168.651 349.194 169.081 347.751C169.557 346.154 170.183 344.713 170.959 343.43C171.667 342.182 172.559 340.793 173.632 339.261C174.706 337.73 175.952 335.717 177.369 333.222L178.451 333.545C178.265 336.239 178.202 338.52 178.262 340.389C178.321 342.259 178.324 343.943 178.27 345.442C178.2 346.992 177.927 348.566 177.451 350.163C177.021 351.606 176.27 352.616 175.2 353.195C174.13 353.773 173.02 353.919 171.871 353.633Z" fill="black"/>
<path d="M152.121 345.725C151.018 345.166 150.301 344.32 149.97 343.188C149.592 342.032 149.742 340.783 150.423 339.44C151.176 337.953 152.049 336.647 153.041 335.522C153.96 334.421 155.085 333.212 156.414 331.897C157.744 330.581 159.328 328.822 161.167 326.62L162.174 327.13C161.511 329.748 161.043 331.982 160.768 333.832C160.494 335.682 160.197 337.339 159.876 338.804C159.532 340.317 158.983 341.817 158.229 343.304C157.549 344.647 156.631 345.508 155.474 345.887C154.318 346.265 153.2 346.211 152.121 345.725Z" fill="black"/>
<path d="M134.09 334.405C133.104 333.658 132.55 332.698 132.427 331.525C132.261 330.32 132.632 329.118 133.542 327.918C134.548 326.589 135.64 325.46 136.817 324.531C137.919 323.612 139.241 322.624 140.784 321.567C142.327 320.51 144.2 319.062 146.403 317.224L147.303 317.906C146.183 320.363 145.323 322.477 144.722 324.248C144.122 326.019 143.533 327.597 142.956 328.982C142.347 330.409 141.539 331.786 140.532 333.115C139.623 334.315 138.566 334.998 137.36 335.164C136.155 335.329 135.065 335.077 134.09 334.405Z" fill="black"/>
<path d="M118.4 320.102C117.562 319.192 117.187 318.149 117.273 316.973C117.324 315.757 117.903 314.64 119.01 313.62C120.236 312.491 121.511 311.573 122.834 310.867C124.081 310.157 125.557 309.419 127.263 308.653C128.969 307.886 131.069 306.793 133.563 305.374L134.328 306.205C132.79 308.425 131.569 310.353 130.664 311.99C129.759 313.627 128.901 315.075 128.087 316.335C127.235 317.632 126.195 318.845 124.969 319.973C123.861 320.993 122.7 321.478 121.484 321.428C120.269 321.377 119.241 320.935 118.4 320.102Z" fill="black"/>
<path d="M105.479 303.221C104.816 302.177 104.633 301.084 104.928 299.942C105.193 298.755 105.962 297.758 107.234 296.952C108.641 296.059 110.059 295.383 111.487 294.924C112.84 294.448 114.424 293.985 116.24 293.534C118.055 293.084 120.316 292.382 123.023 291.43L123.627 292.384C121.719 294.294 120.174 295.974 118.992 297.423C117.81 298.873 116.707 300.145 115.682 301.241C114.612 302.365 113.373 303.373 111.966 304.265C110.694 305.071 109.465 305.341 108.278 305.075C107.09 304.809 106.157 304.191 105.479 303.221Z" fill="black"/>
<path d="M95.7124 284.151C95.2503 283.004 95.2675 281.895 95.7641 280.826C96.2406 279.706 97.1771 278.865 98.5735 278.303C100.12 277.68 101.636 277.272 103.123 277.079C104.541 276.855 106.183 276.687 108.049 276.572C109.916 276.458 112.267 276.177 115.101 275.731L115.523 276.778C113.3 278.311 111.477 279.684 110.052 280.895C108.627 282.107 107.312 283.159 106.106 284.05C104.85 284.962 103.449 285.729 101.903 286.352C100.507 286.915 99.2488 286.958 98.1294 286.481C97.01 286.005 96.2043 285.228 95.7124 284.151Z" fill="black"/>
<path d="M89.5448 263.619C89.298 262.407 89.5156 261.32 90.1976 260.358C90.8689 259.343 91.9421 258.686 93.4173 258.385C95.0506 258.053 96.616 257.926 98.1137 258.005C99.5479 258.042 101.193 258.173 103.05 258.399C104.907 258.624 107.269 258.774 110.138 258.848L110.363 259.955C107.899 261.06 105.857 262.079 104.237 263.013C102.616 263.947 101.132 264.743 99.7848 265.401C98.3847 266.071 96.8681 266.572 95.2348 266.904C93.7596 267.205 92.5147 267.019 91.5 266.348C90.4853 265.677 89.8336 264.767 89.5448 263.619Z" fill="black"/>
<path d="M87.1705 242.167C87.1458 240.931 87.5553 239.901 88.3993 239.077C89.2422 238.2 90.4162 237.746 91.9214 237.716C93.5878 237.683 95.1505 237.839 96.6095 238.187C98.0136 238.481 99.6086 238.906 101.394 239.462C103.18 240.018 105.477 240.59 108.286 241.179L108.308 242.308C105.686 242.952 103.494 243.588 101.732 244.215C99.9696 244.842 98.3666 245.358 96.9227 245.763C95.425 246.17 93.843 246.39 92.1765 246.423C90.6714 246.453 89.4801 246.047 88.6027 245.204C87.7254 244.361 87.248 243.349 87.1705 242.167Z" fill="black"/>
<path d="M88.5945 221.187C88.7878 219.966 89.3722 219.024 90.348 218.362C91.3321 217.646 92.5677 217.406 94.0547 217.642C95.701 217.902 97.2117 218.331 98.5868 218.93C99.9171 219.467 101.412 220.166 103.073 221.028C104.733 221.889 106.893 222.857 109.554 223.931L109.377 225.046C106.683 225.219 104.413 225.459 102.568 225.766C100.723 226.072 99.0542 226.298 97.5615 226.443C96.0157 226.58 94.4197 226.518 92.7734 226.257C91.2864 226.022 90.1852 225.413 89.4699 224.428C88.7546 223.444 88.4628 222.364 88.5945 221.187Z" fill="black"/>
<path d="M93.8377 200.412C94.2486 199.246 94.9938 198.425 96.0731 197.95C97.1704 197.425 98.429 197.412 99.8489 197.912C101.421 198.466 102.829 199.162 104.073 199.999C105.285 200.768 106.629 201.726 108.106 202.873C109.583 204.021 111.533 205.363 113.955 206.901L113.58 207.966C110.899 207.648 108.623 207.474 106.753 207.442C104.883 207.41 103.201 207.331 101.706 207.203C100.161 207.058 98.6029 206.709 97.0308 206.155C95.6109 205.654 94.6381 204.856 94.1126 203.758C93.587 202.661 93.4954 201.546 93.8377 200.412Z" fill="black"/>
<path d="M102.801 180.823C103.416 179.75 104.297 179.078 105.445 178.806C106.619 178.488 107.859 178.703 109.165 179.452C110.611 180.281 111.87 181.219 112.942 182.268C113.995 183.243 115.143 184.428 116.389 185.824C117.634 187.219 119.309 188.892 121.413 190.843L120.852 191.822C118.272 191.025 116.065 190.442 114.232 190.072C112.399 189.703 110.758 189.321 109.312 188.925C107.819 188.503 106.349 187.877 104.903 187.048C103.597 186.3 102.785 185.338 102.466 184.164C102.148 182.99 102.259 181.876 102.801 180.823Z" fill="black"/>
<path d="M114.98 163.382C115.776 162.436 116.763 161.931 117.94 161.868C119.152 161.764 120.334 162.196 121.486 163.166C122.762 164.239 123.834 165.387 124.702 166.609C125.564 167.756 126.484 169.127 127.461 170.722C128.437 172.317 129.788 174.261 131.512 176.555L130.785 177.419C128.388 176.175 126.32 175.208 124.582 174.519C122.844 173.829 121.298 173.161 119.945 172.514C118.55 171.833 117.216 170.955 115.94 169.882C114.788 168.913 114.16 167.822 114.056 166.61C113.951 165.398 114.259 164.322 114.98 163.382Z" fill="black"/>
<path d="M129.999 148.433C130.95 147.642 132.011 147.321 133.181 147.467C134.392 147.579 135.479 148.214 136.441 149.372C137.506 150.654 138.357 151.974 138.995 153.331C139.64 154.613 140.302 156.125 140.981 157.868C141.66 159.611 142.644 161.764 143.934 164.327L143.066 165.048C140.927 163.399 139.064 162.081 137.475 161.094C135.887 160.107 134.484 159.176 133.267 158.299C132.015 157.382 130.857 156.282 129.792 155C128.83 153.842 128.405 152.657 128.517 151.446C128.629 150.234 129.123 149.23 129.999 148.433Z" fill="black"/>
<path d="M147.577 136.298C148.654 135.691 149.755 135.564 150.88 135.917C152.052 136.244 153.008 137.063 153.747 138.374C154.566 139.826 155.168 141.277 155.553 142.726C155.958 144.103 156.339 145.709 156.695 147.545C157.052 149.381 157.635 151.675 158.446 154.427L157.463 154.982C155.654 152.978 154.056 151.348 152.669 150.093C151.283 148.837 150.069 147.67 149.028 146.59C147.961 145.464 147.018 144.174 146.199 142.723C145.46 141.411 145.254 140.169 145.581 138.998C145.908 137.826 146.573 136.926 147.577 136.298Z" fill="black"/>
<path d="M166.751 127.615C167.919 127.209 169.026 127.281 170.07 127.829C171.164 128.36 171.959 129.336 172.452 130.758C172.999 132.333 173.332 133.868 173.452 135.363C173.606 136.789 173.694 138.437 173.717 140.308C173.74 142.178 173.905 144.539 174.212 147.392L173.145 147.762C171.723 145.467 170.441 143.579 169.301 142.096C168.161 140.614 167.175 139.249 166.343 138.001C165.494 136.702 164.796 135.265 164.25 133.69C163.756 132.268 163.775 131.009 164.305 129.915C164.836 128.82 165.651 128.053 166.751 127.615Z" fill="black"/>
<path d="M187.934 122.353C189.157 122.167 190.232 122.439 191.159 123.168C192.138 123.889 192.742 124.993 192.968 126.482C193.219 128.13 193.268 129.699 193.114 131.191C193.006 132.622 192.793 134.259 192.475 136.102C192.157 137.945 191.89 140.297 191.673 143.158L190.557 143.328C189.575 140.813 188.659 138.722 187.807 137.057C186.955 135.392 186.234 133.87 185.644 132.492C185.045 131.06 184.62 129.52 184.369 127.872C184.143 126.384 184.39 125.15 185.111 124.17C185.832 123.19 186.773 122.585 187.934 122.353Z" fill="black"/>
<path d="M209.576 121.041C210.812 121.079 211.82 121.539 212.6 122.423C213.434 123.309 213.829 124.505 213.783 126.009C213.733 127.675 213.498 129.228 213.078 130.668C212.714 132.056 212.209 133.627 211.564 135.383C210.92 137.139 210.233 139.404 209.504 142.179L208.375 142.145C207.863 139.494 207.339 137.273 206.801 135.481C206.263 133.69 205.828 132.063 205.496 130.601C205.165 129.085 205.024 127.494 205.075 125.828C205.12 124.323 205.585 123.153 206.471 122.319C207.357 121.485 208.392 121.059 209.576 121.041Z" fill="black"/>
<path d="M230.056 123.437C231.266 123.691 232.178 124.321 232.791 125.329C233.456 126.347 233.635 127.593 233.326 129.066C232.984 130.698 232.481 132.185 231.815 133.529C231.212 134.831 230.44 136.29 229.497 137.905C228.554 139.521 227.481 141.631 226.276 144.235L225.171 144.003C225.132 141.303 225.005 139.025 224.79 137.167C224.575 135.309 224.432 133.631 224.361 132.133C224.302 130.582 224.443 128.991 224.784 127.36C225.093 125.886 225.757 124.817 226.775 124.151C227.793 123.485 228.887 123.247 230.056 123.437Z" fill="black"/>
<path d="M251.181 129.909C252.324 130.381 253.105 131.168 253.522 132.271C253.99 133.394 253.937 134.651 253.363 136.043C252.727 137.584 251.959 138.954 251.058 140.153C250.227 141.322 249.2 142.614 247.977 144.029C246.754 145.444 245.311 147.321 243.649 149.66L242.605 149.23C243.062 146.569 243.356 144.305 243.485 142.439C243.615 140.574 243.782 138.898 243.987 137.412C244.213 135.877 244.644 134.339 245.279 132.798C245.853 131.406 246.701 130.476 247.825 130.009C248.948 129.541 250.067 129.508 251.181 129.909Z" fill="black"/>
<path d="M269.628 139.481C270.67 140.147 271.3 141.059 271.517 142.218C271.779 143.406 271.505 144.635 270.695 145.904C269.798 147.309 268.8 148.522 267.701 149.543C266.677 150.547 265.438 151.638 263.985 152.815C262.532 153.993 260.781 155.586 258.733 157.595L257.781 156.988C258.7 154.449 259.388 152.272 259.844 150.459C260.301 148.645 260.761 147.025 261.225 145.599C261.718 144.127 262.413 142.689 263.31 141.284C264.12 140.015 265.119 139.25 266.307 138.988C267.495 138.726 268.602 138.89 269.628 139.481Z" fill="black"/>
<path d="M286.489 152.45C287.397 153.29 287.854 154.3 287.862 155.479C287.909 156.695 287.421 157.855 286.399 158.96C285.266 160.183 284.069 161.2 282.807 162.01C281.621 162.817 280.208 163.67 278.569 164.571C276.929 165.471 274.923 166.728 272.551 168.342L271.722 167.575C273.077 165.24 274.141 163.22 274.912 161.516C275.683 159.812 276.424 158.3 277.133 156.979C277.88 155.618 278.819 154.326 279.951 153.103C280.974 151.998 282.093 151.422 283.309 151.375C284.524 151.328 285.585 151.686 286.489 152.45Z" fill="black"/>
<path d="M300.777 168.206C301.521 169.194 301.792 170.268 301.591 171.43C301.421 172.635 300.735 173.69 299.533 174.596C298.202 175.599 296.843 176.387 295.457 176.96C294.146 177.544 292.605 178.133 290.832 178.729C289.058 179.324 286.861 180.205 284.24 181.372L283.561 180.47C285.309 178.413 286.714 176.614 287.775 175.074C288.836 173.534 289.833 172.176 290.766 171.002C291.742 169.796 292.896 168.691 294.227 167.688C295.429 166.782 296.633 166.414 297.838 166.583C299.042 166.753 300.022 167.294 300.777 168.206Z" fill="black"/>
<path d="M312.129 186.443C312.684 187.548 312.758 188.654 312.351 189.761C311.968 190.915 311.104 191.83 309.758 192.506C308.268 193.253 306.79 193.785 305.324 194.1C303.93 194.438 302.307 194.741 300.456 195.009C298.605 195.276 296.286 195.748 293.497 196.426L292.991 195.417C295.08 193.706 296.785 192.189 298.106 190.864C299.426 189.54 300.651 188.384 301.779 187.396C302.956 186.385 304.289 185.505 305.779 184.757C307.124 184.082 308.374 183.936 309.529 184.319C310.684 184.702 311.551 185.41 312.129 186.443Z" fill="black"/>
<path d="M319.954 206.266C320.302 207.452 320.176 208.554 319.577 209.57C318.993 210.637 317.979 211.382 316.534 211.805C314.934 212.273 313.385 212.531 311.886 212.578C310.453 212.661 308.803 212.668 306.934 212.599C305.065 212.53 302.698 212.578 299.833 212.745L299.516 211.661C301.878 210.353 303.828 209.166 305.365 208.1C306.901 207.034 308.313 206.116 309.601 205.347C310.94 204.563 312.409 203.937 314.009 203.468C315.454 203.045 316.71 203.126 317.777 203.71C318.845 204.294 319.57 205.146 319.954 206.266Z" fill="black"/>
<path d="M324.095 227.222C324.224 228.452 323.903 229.513 323.132 230.405C322.367 231.351 321.236 231.903 319.738 232.06C318.081 232.235 316.51 232.211 315.027 231.989C313.603 231.814 311.978 231.526 310.151 231.123C308.325 230.721 305.987 230.345 303.139 229.996L303.021 228.874C305.579 228.009 307.71 227.19 309.412 226.416C311.115 225.642 312.669 224.992 314.073 224.466C315.531 223.934 317.088 223.581 318.746 223.406C320.243 223.249 321.465 223.553 322.41 224.318C323.356 225.083 323.917 226.052 324.095 227.222Z" fill="black"/>
<path fill-rule="evenodd" clip-rule="evenodd" d="M179.248 163.037L177.963 164.585L175.957 164.42L176.273 160.567L179.248 163.037ZM205.972 240.393L204.587 241.854L207.321 244.446L207.955 240.732L205.972 240.393ZM179.737 168.819C179.728 169.026 179.719 169.24 179.711 169.46C179.599 172.408 179.521 176.507 179.661 181.111C179.942 190.392 181.1 201.439 184.454 209.278C187.264 215.844 192.927 223.227 198.011 229.064C200.514 231.938 202.84 234.396 204.548 236.142C204.568 235.988 204.587 235.83 204.607 235.668C204.946 232.918 205.338 229.091 205.55 224.785C205.978 216.09 205.655 205.751 202.898 198.329C200.155 190.945 193.697 182.933 187.742 176.648C184.793 173.535 182.019 170.9 179.984 169.044C179.9 168.968 179.818 168.893 179.737 168.819ZM205.972 240.393C207.955 240.732 207.955 240.732 207.956 240.731L207.96 240.708L207.97 240.644C207.979 240.589 207.992 240.509 208.009 240.404C208.043 240.195 208.091 239.889 208.15 239.495C208.267 238.709 208.428 237.572 208.602 236.16C208.949 233.338 209.352 229.41 209.57 224.983C210.002 216.21 209.732 205.167 206.671 196.927C203.626 188.731 196.673 180.222 190.664 173.88C187.631 170.679 184.784 167.975 182.695 166.07C181.65 165.117 180.793 164.363 180.195 163.845C179.896 163.586 179.662 163.386 179.501 163.249C179.421 163.181 179.358 163.129 179.316 163.093L179.267 163.052L179.249 163.037C179.248 163.037 179.248 163.037 177.963 164.585C175.957 164.42 175.957 164.421 175.957 164.421L175.955 164.446L175.95 164.514C175.945 164.572 175.939 164.658 175.93 164.77C175.914 164.993 175.892 165.32 175.865 165.741C175.813 166.582 175.747 167.798 175.689 169.307C175.574 172.322 175.495 176.516 175.638 181.233C175.921 190.59 177.084 202.285 180.754 210.862C183.826 218.04 189.847 225.819 194.976 231.708C197.561 234.675 199.958 237.206 201.71 238.996C202.586 239.891 203.302 240.602 203.8 241.091C204.049 241.335 204.244 241.524 204.378 241.653C204.41 241.684 204.438 241.711 204.463 241.735C204.49 241.761 204.513 241.783 204.531 241.8L204.572 241.839L204.586 241.852L204.587 241.854C204.588 241.854 204.587 241.854 205.972 240.393Z" fill="black"/>
<path fill-rule="evenodd" clip-rule="evenodd" d="M242.675 165.753L240.671 165.939L239.369 164.405L242.318 161.903L242.675 165.753ZM206.872 239.349L204.86 239.403L204.961 243.169L208.035 240.992L206.872 239.349ZM238.931 170.188C238.779 170.328 238.622 170.473 238.46 170.623C236.296 172.628 233.343 175.472 230.186 178.825C223.822 185.587 216.829 194.218 213.659 202.133C211.002 208.762 209.786 217.987 209.254 225.709C208.992 229.512 208.899 232.894 208.871 235.336C208.994 235.241 209.12 235.143 209.249 235.043C211.432 233.338 214.416 230.909 217.611 228.014C224.061 222.169 231.144 214.63 234.442 207.432C237.724 200.271 238.823 190.039 239.056 181.385C239.172 177.098 239.074 173.273 238.947 170.521C238.942 170.408 238.937 170.297 238.931 170.188ZM206.872 239.349C208.035 240.992 208.035 240.991 208.036 240.991L208.055 240.977L208.107 240.94C208.153 240.908 208.219 240.86 208.305 240.798C208.477 240.674 208.727 240.491 209.047 240.255C209.686 239.781 210.604 239.091 211.725 238.215C213.966 236.466 217.028 233.973 220.313 230.997C226.822 225.099 234.439 217.099 238.101 209.109C241.744 201.16 242.844 190.226 243.08 181.493C243.198 177.085 243.098 173.16 242.968 170.336C242.902 168.923 242.83 167.783 242.773 166.994C242.745 166.6 242.721 166.293 242.703 166.083C242.694 165.978 242.688 165.897 242.683 165.842L242.677 165.778L242.675 165.754C242.675 165.754 242.675 165.753 240.671 165.939C239.369 164.405 239.369 164.405 239.368 164.405L239.35 164.421L239.298 164.465C239.253 164.504 239.188 164.56 239.103 164.633C238.934 164.78 238.687 164.995 238.371 165.274C237.739 165.832 236.832 166.644 235.725 167.671C233.511 169.722 230.489 172.631 227.256 176.067C220.84 182.884 213.392 191.976 209.923 200.636C207.019 207.884 205.776 217.642 205.239 225.433C204.968 229.359 204.873 232.843 204.846 235.347C204.833 236.6 204.836 237.609 204.843 238.307C204.846 238.656 204.851 238.928 204.854 239.113C204.855 239.157 204.856 239.196 204.856 239.231C204.857 239.268 204.858 239.3 204.858 239.326L204.86 239.382L204.86 239.401L204.86 239.403C204.86 239.403 204.86 239.403 206.872 239.349Z" fill="black"/>
<path fill-rule="evenodd" clip-rule="evenodd" d="M286.007 222.535L284.617 221.081L285.011 219.107L288.803 219.863L286.007 222.535ZM206.093 240.199L204.802 238.656L201.913 241.074L205.529 242.131L206.093 240.199ZM280.207 222.357C280.002 222.324 279.791 222.291 279.573 222.257C276.658 221.807 272.594 221.26 268.006 220.87C258.753 220.083 247.646 219.965 239.474 222.397C232.629 224.434 224.644 229.212 218.262 233.592C215.119 235.749 212.411 237.777 210.48 239.273C210.631 239.31 210.786 239.348 210.945 239.386C213.637 240.038 217.394 240.867 221.647 241.572C230.235 242.996 240.543 243.863 248.233 241.976C255.883 240.099 264.583 234.604 271.511 229.41C274.941 226.838 277.878 224.385 279.955 222.576C280.041 222.502 280.125 222.429 280.207 222.357ZM206.093 240.199C205.529 242.131 205.529 242.131 205.53 242.131L205.553 242.138L205.615 242.155C205.668 242.171 205.747 242.193 205.849 242.222C206.053 242.279 206.351 242.362 206.735 242.466C207.504 242.673 208.615 242.963 209.997 243.298C212.76 243.967 216.616 244.818 220.989 245.543C229.654 246.98 240.655 247.979 249.192 245.885C257.683 243.801 266.935 237.871 273.925 232.63C277.452 229.985 280.466 227.468 282.598 225.612C283.665 224.683 284.513 223.918 285.096 223.383C285.388 223.116 285.613 222.906 285.767 222.762C285.844 222.69 285.903 222.634 285.943 222.596L285.99 222.552L286.007 222.536C286.007 222.535 286.007 222.535 284.617 221.081C285.011 219.107 285.01 219.107 285.01 219.107L284.985 219.102L284.919 219.089C284.861 219.078 284.777 219.062 284.667 219.041C284.447 218.999 284.124 218.939 283.709 218.865C282.88 218.716 281.679 218.51 280.187 218.28C277.205 217.819 273.048 217.259 268.346 216.859C259.019 216.067 247.267 215.879 238.326 218.54C230.842 220.767 222.423 225.855 215.985 230.274C212.74 232.5 209.95 234.591 207.971 236.125C206.981 236.893 206.193 237.522 205.65 237.961C205.379 238.181 205.168 238.353 205.025 238.471C204.991 238.499 204.961 238.524 204.935 238.546C204.905 238.57 204.881 238.59 204.861 238.606L204.818 238.642L204.803 238.655L204.802 238.656C204.802 238.656 204.802 238.656 206.093 240.199Z" fill="black"/>
<path fill-rule="evenodd" clip-rule="evenodd" d="M260.53 302.932L261.157 301.02L263.083 300.436L264.205 304.137L260.53 302.932ZM207.257 240.802L208.009 238.935L204.514 237.528L205.288 241.215L207.257 240.802ZM257.952 297.734C257.884 297.538 257.813 297.336 257.74 297.128C256.762 294.345 255.328 290.504 253.507 286.274C249.836 277.745 244.7 267.895 238.701 261.837C233.675 256.762 225.697 251.976 218.823 248.414C215.439 246.661 212.373 245.229 210.143 244.233C210.182 244.383 210.222 244.538 210.262 244.696C210.958 247.378 211.999 251.081 213.384 255.164C216.179 263.408 220.278 272.905 225.569 278.796C230.833 284.656 239.782 289.735 247.63 293.393C251.516 295.205 255.064 296.637 257.639 297.615C257.745 297.656 257.849 297.695 257.952 297.734ZM207.257 240.802C205.288 241.215 205.288 241.216 205.288 241.216L205.293 241.239L205.306 241.302C205.318 241.357 205.335 241.437 205.358 241.54C205.404 241.747 205.472 242.049 205.562 242.437C205.741 243.212 206.01 244.328 206.367 245.705C207.08 248.457 208.149 252.258 209.572 256.456C212.393 264.775 216.701 274.946 222.575 281.485C228.418 287.99 238.011 293.35 245.929 297.041C249.926 298.904 253.567 300.373 256.21 301.377C257.532 301.88 258.606 302.267 259.353 302.529C259.726 302.66 260.017 302.76 260.217 302.827C260.317 302.861 260.394 302.887 260.446 302.904L260.507 302.925L260.529 302.932C260.53 302.932 260.53 302.932 261.157 301.02C263.083 300.436 263.083 300.436 263.083 300.435L263.075 300.412L263.056 300.347C263.038 300.291 263.013 300.209 262.979 300.102C262.912 299.888 262.813 299.575 262.683 299.174C262.422 298.373 262.038 297.217 261.537 295.793C260.536 292.946 259.069 289.016 257.204 284.682C253.502 276.084 248.125 265.634 241.56 259.005C236.066 253.456 227.608 248.433 220.675 244.841C217.181 243.03 214.021 241.557 211.735 240.536C210.591 240.025 209.664 239.627 209.021 239.355C208.699 239.219 208.449 239.115 208.277 239.045C208.236 239.028 208.2 239.013 208.168 239C208.133 238.986 208.104 238.974 208.08 238.964L208.028 238.943L208.01 238.936L208.009 238.935C208.008 238.935 208.009 238.935 207.257 240.802Z" fill="black"/>
<path fill-rule="evenodd" clip-rule="evenodd" d="M191.669 318.715L193.557 318.017L195.211 319.162L193.011 322.342L191.669 318.715ZM207.204 238.36L209.134 237.788L208.062 234.176L205.656 237.075L207.204 238.36ZM194.138 313.463C194.249 313.288 194.363 313.107 194.48 312.921C196.052 310.424 198.168 306.913 200.349 302.856C204.746 294.678 209.267 284.531 210.281 276.066C211.131 268.974 209.919 259.749 208.434 252.152C207.703 248.411 206.917 245.12 206.312 242.754C206.218 242.878 206.121 243.005 206.023 243.135C204.355 245.347 202.102 248.465 199.765 252.089C195.047 259.404 190.157 268.52 188.834 276.326C187.518 284.092 189.104 294.26 191.119 302.68C192.117 306.851 193.201 310.519 194.036 313.145C194.07 313.253 194.104 313.359 194.138 313.463ZM207.204 238.36C205.656 237.075 205.656 237.075 205.655 237.076L205.64 237.094L205.599 237.144C205.564 237.187 205.512 237.25 205.445 237.332C205.312 237.497 205.117 237.738 204.869 238.049C204.374 238.672 203.666 239.576 202.81 240.712C201.098 242.982 198.786 246.182 196.383 249.907C191.622 257.289 186.335 266.988 184.866 275.653C183.405 284.274 185.172 295.12 187.205 303.617C188.231 307.905 189.344 311.67 190.201 314.364C190.629 315.712 190.994 316.794 191.253 317.542C191.383 317.916 191.486 318.206 191.557 318.404C191.592 318.504 191.62 318.58 191.639 318.632L191.661 318.692L191.669 318.714C191.669 318.715 191.669 318.715 193.557 318.017C195.211 319.162 195.212 319.162 195.212 319.161L195.226 319.141L195.264 319.085C195.298 319.037 195.346 318.966 195.409 318.873C195.535 318.688 195.718 318.416 195.951 318.064C196.417 317.362 197.082 316.342 197.887 315.064C199.494 312.51 201.66 308.918 203.894 304.762C208.327 296.517 213.167 285.807 214.277 276.544C215.206 268.791 213.881 259.044 212.384 251.38C211.629 247.518 210.819 244.128 210.197 241.702C209.886 240.488 209.621 239.515 209.434 238.842C209.34 238.506 209.266 238.245 209.215 238.066C209.202 238.024 209.191 237.986 209.182 237.953C209.171 237.917 209.163 237.887 209.155 237.862L209.14 237.808L209.134 237.79L209.134 237.788C209.133 237.787 209.134 237.788 207.204 238.36Z" fill="black"/>
<path fill-rule="evenodd" clip-rule="evenodd" d="M205.887 241.014L205.374 239.068L206.673 237.532L209.626 240.029L205.887 241.014ZM127.404 217.803L127.021 215.827L123.323 216.546L125.976 219.22L127.404 217.803ZM200.897 238.051C200.734 237.924 200.565 237.793 200.39 237.658C198.057 235.853 194.766 233.408 190.939 230.846C183.222 225.68 173.559 220.202 165.231 218.376C158.255 216.847 148.956 217.164 141.25 217.909C137.457 218.276 134.105 218.74 131.692 219.115C131.806 219.221 131.923 219.328 132.043 219.439C134.084 221.313 136.97 223.856 140.351 226.531C147.178 231.933 155.779 237.679 163.422 239.749C171.025 241.808 181.298 241.209 189.873 240.016C194.121 239.425 197.877 238.699 200.571 238.122C200.681 238.098 200.79 238.074 200.897 238.051ZM127.404 217.803C125.976 219.22 125.976 219.22 125.976 219.221L125.993 219.238L126.039 219.283C126.078 219.322 126.136 219.38 126.211 219.454C126.362 219.603 126.583 219.82 126.869 220.097C127.441 220.65 128.273 221.441 129.321 222.403C131.415 224.326 134.378 226.936 137.854 229.687C144.742 235.137 153.886 241.336 162.37 243.633C170.809 245.919 181.775 245.206 190.428 244.002C194.795 243.394 198.65 242.65 201.415 242.057C202.798 241.76 203.91 241.501 204.679 241.315C205.063 241.223 205.362 241.148 205.566 241.096C205.669 241.071 205.747 241.05 205.801 241.037L205.863 241.02L205.886 241.014C205.886 241.014 205.887 241.014 205.374 239.068C206.673 237.532 206.673 237.532 206.672 237.531L206.653 237.515L206.602 237.472C206.557 237.434 206.491 237.379 206.404 237.307C206.232 237.164 205.979 236.956 205.652 236.69C204.997 236.158 204.047 235.398 202.852 234.474C200.465 232.628 197.098 230.126 193.177 227.501C185.398 222.294 175.205 216.443 166.093 214.445C158.465 212.773 148.636 213.151 140.863 213.903C136.946 214.282 133.493 214.761 131.019 215.147C129.781 215.339 128.786 215.509 128.099 215.63C127.755 215.691 127.488 215.74 127.306 215.774C127.262 215.782 127.224 215.789 127.19 215.795C127.153 215.802 127.122 215.808 127.097 215.813L127.042 215.823L127.023 215.827L127.021 215.827C127.02 215.827 127.021 215.827 127.404 217.803Z" fill="black"/>
<path fill-rule="evenodd" clip-rule="evenodd" d="M137.251 285.1L139.079 285.941L139.44 287.921L135.635 288.613L137.251 285.1ZM205.055 239.266L206.824 240.225L208.62 236.914L204.869 237.262L205.055 239.266ZM142.71 283.132C142.912 283.087 143.121 283.04 143.336 282.991C146.213 282.336 150.192 281.35 154.603 280.024C163.495 277.35 173.866 273.372 180.57 268.103C186.185 263.69 191.85 256.309 196.173 249.887C198.301 246.725 200.073 243.843 201.317 241.741C201.163 241.762 201.006 241.784 200.844 241.807C198.1 242.191 194.302 242.803 190.088 243.713C181.579 245.549 171.676 248.538 165.22 253.122C158.798 257.682 152.73 265.994 148.2 273.373C145.957 277.027 144.13 280.388 142.863 282.835C142.811 282.936 142.76 283.034 142.71 283.132ZM205.055 239.266C204.869 237.262 204.869 237.262 204.869 237.262L204.845 237.264L204.781 237.271C204.725 237.276 204.644 237.284 204.539 237.295C204.328 237.317 204.02 237.349 203.624 237.394C202.834 237.485 201.694 237.624 200.286 237.821C197.47 238.216 193.572 238.844 189.239 239.779C180.653 241.632 170.056 244.751 162.89 249.84C155.761 254.903 149.341 263.821 144.77 271.267C142.464 275.025 140.588 278.474 139.289 280.985C138.639 282.242 138.132 283.265 137.786 283.976C137.614 284.332 137.481 284.61 137.391 284.801C137.346 284.896 137.312 284.97 137.288 285.02L137.262 285.078L137.252 285.1C137.251 285.1 137.251 285.1 139.079 285.941C139.44 287.921 139.44 287.921 139.441 287.921L139.465 287.916L139.531 287.904C139.589 287.893 139.674 287.877 139.784 287.856C140.004 287.814 140.326 287.751 140.739 287.668C141.565 287.5 142.757 287.25 144.229 286.915C147.171 286.246 151.243 285.237 155.761 283.878C164.726 281.182 175.722 277.032 183.057 271.267C189.196 266.442 195.151 258.613 199.512 252.135C201.709 248.87 203.533 245.9 204.809 243.745C205.447 242.666 205.948 241.791 206.291 241.183C206.463 240.879 206.595 240.642 206.685 240.479C206.706 240.441 206.725 240.406 206.742 240.376C206.76 240.343 206.775 240.316 206.787 240.293L206.814 240.244L206.823 240.227L206.824 240.225C206.825 240.225 206.824 240.225 205.055 239.266Z" fill="black"/>
</svg>
