<svg width="475" height="454" viewBox="0 0 475 454" fill="none" xmlns="http://www.w3.org/2000/svg">
<path d="M78.8584 103.679L54.833 106.715L58.9886 116.29L59.4384 143.167L100.494 251.608L115.228 271.63L108.622 289.299L113.49 327.822L110.542 331.141L111.641 339.839L90.5029 372.39L92.8579 391.03L112.327 388.571L208.843 376.377L271.806 368.422L337.255 360.153L420.254 347.563L418.893 336.793L391.719 308.242L382.692 296.757L388.997 286.702L389.481 260.548L381.093 144.193L386.682 101.823L381.109 77.6972L381.815 63.2993L361.365 67.9872L304.201 75.2094L274.79 78.9251C258.74 81.7946 226.225 87.586 224.568 87.7953C222.911 88.0046 199.09 89.3308 187.387 89.9677L129.809 97.2422L78.8584 103.679Z" fill="#F0572F"/>
<path d="M92.0542 373.858L113.059 364.981L132.796 362.488L161.381 358.876L219.911 351.482L254.621 347.096L269.688 351.416L303.624 340.905C312.245 339.816 330.303 337.535 333.57 337.122C336.837 336.709 391.375 338.577 418.235 339.563" stroke="white"/>
<mask id="mask0_8001_2767" style="mask-type:alpha" maskUnits="userSpaceOnUse" x="54" y="62" width="367" height="330">
<path d="M78.8584 103.679L54.833 106.715L58.9886 116.29L59.4384 143.167L100.494 251.608L115.228 271.63L108.622 289.299L113.49 327.822L110.542 331.141L111.641 339.839L90.5029 372.39L92.8579 391.03L112.327 388.571L208.843 376.377L271.806 368.422L337.255 360.153L420.254 347.563L418.893 336.793L391.719 308.242L382.692 296.757L388.997 286.702L389.481 260.548L381.093 144.193L386.682 101.823L381.109 77.6972L381.815 63.2993L361.365 67.9872L304.201 75.2094L274.79 78.9251C258.74 81.7946 226.225 87.586 224.568 87.7953C222.911 88.0046 199.09 89.3308 187.387 89.9677L129.809 97.2422L78.8584 103.679Z" fill="black" stroke="black"/>
</mask>
<g mask="url(#mask0_8001_2767)">
<path d="M79.3315 208.752C70.3364 209.888 63.0337 208.997 57.4234 206.077C51.8049 203.091 48.5736 198.258 47.7296 191.578C47.1112 186.683 47.5469 181.622 49.0367 176.394C50.5926 171.158 53.1247 166.201 56.6328 161.525C60.2071 156.84 64.7126 152.877 70.1493 149.637C75.586 146.396 81.876 144.325 89.0192 143.422C92.9877 142.921 96.1468 143.194 98.4966 144.241C100.838 145.222 102.845 146.48 104.517 148.016C106.43 149.857 108.036 147.941 109.335 142.267L111.517 141.991C110.967 144.547 110.384 147.644 109.768 151.284C109.219 154.914 108.613 159.695 107.951 165.624L105.769 165.9C105.739 162.477 105.616 159.905 105.399 158.186C105.207 156.664 104.911 155.391 104.513 154.367C104.115 153.342 103.584 152.334 102.922 151.342C101.339 148.922 99.2447 147.237 96.6388 146.29C94.0906 145.268 91.3283 144.945 88.3519 145.321C85.6402 145.664 83.1362 146.854 80.8401 148.891C78.5441 150.928 76.5547 153.531 74.872 156.7C73.1893 159.87 71.7882 163.406 70.6688 167.311C69.6072 171.141 68.8971 175.094 68.5387 179.171C68.2463 183.24 68.3383 187.16 68.8147 190.93C69.5166 196.485 70.8451 200.618 72.8001 203.328C74.8213 206.029 77.2209 207.204 79.9988 206.853C82.909 206.486 85.901 205.436 88.9748 203.703C92.1147 201.963 94.7495 199.681 96.8792 196.859C98.4888 194.707 99.7757 192.394 100.74 189.92C101.696 187.38 102.725 184.092 103.828 180.055L106.01 179.779C105.117 186.007 104.442 191.031 103.984 194.852C103.583 198.599 103.311 201.758 103.165 204.33L100.983 204.605C101.005 203.191 100.963 202.054 100.854 201.195C100.52 198.549 99.3574 198.125 97.3669 199.922C94.9553 202.108 92.3737 204.013 89.6223 205.637C86.8625 207.196 83.4323 208.234 79.3315 208.752ZM153.523 168.535C159.7 168.494 164.332 169.253 167.418 170.812C170.562 172.296 172.278 175.237 172.565 179.636L172.932 184.932C173.074 186.594 173.337 187.871 173.718 188.763C174.1 189.656 174.782 190.007 175.766 189.815C176.609 189.574 177.411 189.002 178.17 188.1C178.921 187.132 179.515 185.713 179.951 183.843L180.271 182.392L182.553 182.104L182.319 183.443C181.465 187.852 179.704 191.199 177.036 193.485C174.434 195.762 171.05 197.164 166.883 197.691C162.253 198.276 158.817 197.668 156.573 195.868C154.388 193.994 153.194 191.457 152.991 188.257L152.535 180.655C152.416 178.116 151.987 176.054 151.249 174.467C150.569 172.806 149.484 171.666 147.995 171.048C146.497 170.364 144.392 170.193 141.681 170.535L141.666 168.824C144.262 168.63 146.263 168.512 147.669 168.469C149.141 168.417 150.282 168.407 151.092 168.439C151.894 168.405 152.705 168.437 153.523 168.535ZM140.602 170.772C140.602 170.772 140.626 170.433 140.675 169.755C140.79 169.069 140.847 168.726 140.847 168.726L145.312 168.162C148.156 167.802 150.631 166.65 152.737 164.704C154.843 162.758 156.407 160.242 157.428 157.156C158.507 153.996 158.808 150.531 158.332 146.761C157.989 144.049 157.296 142.02 156.253 140.673C155.201 139.261 153.649 138.684 151.599 138.943C149.945 139.152 148.768 139.939 148.067 141.304C147.358 142.604 146.778 144.928 146.327 148.277L140.775 188.894C140.496 190.945 140.469 192.595 140.694 193.843C140.977 195.017 141.652 195.839 142.719 196.308C143.844 196.704 145.507 196.83 147.706 196.686L147.56 198.721C145.294 198.873 142.64 199.141 139.598 199.525C136.613 199.835 133.368 200.211 129.863 200.654C126.357 201.097 122.889 201.569 119.458 202.07C116.085 202.496 113.415 202.9 111.447 203.283L111.593 201.249C113.825 200.833 115.549 200.38 116.764 199.89C117.97 199.335 118.829 198.42 119.34 197.146C119.917 195.863 120.382 193.956 120.734 191.426L126.287 150.809C126.582 148.891 126.654 147.336 126.504 146.145C126.345 144.889 125.732 144.025 124.665 143.555C123.655 143.011 121.885 142.831 119.355 143.017L119.601 140.97C120.932 140.869 122.594 140.726 124.586 140.542C126.637 140.282 128.724 140.052 130.849 139.851C133.032 139.575 134.983 139.329 136.703 139.112C140.406 138.644 143.908 138.168 147.206 137.684C150.505 137.2 153.014 136.849 154.734 136.632C162.803 135.612 168.625 135.952 172.199 137.651C175.832 139.275 177.898 142.071 178.4 146.04C178.91 150.074 177.864 153.768 175.264 157.12C172.655 160.406 168.74 163.186 163.517 165.458C158.294 167.731 151.978 169.335 144.57 170.271L140.602 170.772ZM212.376 179.848C212.081 182.304 212.042 184.123 212.259 185.305C212.475 186.487 213.138 187.21 214.246 187.473C215.355 187.736 217.042 187.792 219.307 187.64L219.161 189.675C217.028 189.81 214.275 190.09 210.901 190.517C207.52 190.877 204.076 191.278 200.571 191.721C196.999 192.172 193.663 192.627 190.563 193.086C187.454 193.479 184.949 193.863 183.048 194.237L183.293 192.19C185.459 191.782 187.113 191.305 188.253 190.757C189.46 190.202 190.351 189.283 190.929 188C191.506 186.718 191.941 184.848 192.236 182.392L197.689 141.788C198.042 139.258 198.081 137.438 197.806 136.331C197.524 135.157 196.828 134.438 195.72 134.175C194.669 133.838 193.015 133.778 190.758 133.996L191.003 131.949C192.864 131.781 195.352 131.534 198.469 131.207C201.652 130.872 205.03 130.479 208.601 130.028C212.107 129.585 215.476 129.126 218.708 128.65C221.941 128.174 224.777 127.749 227.215 127.374L226.97 129.421C224.73 129.771 223.01 130.257 221.812 130.879C220.606 131.434 219.714 132.353 219.137 133.636C218.617 134.844 218.182 136.713 217.829 139.244L212.376 179.848ZM286.052 119.235C285.607 121.038 285.032 123.664 284.325 127.113C283.611 130.496 283.087 134.863 282.755 140.213L280.771 140.464C280.925 138.496 280.89 136.619 280.664 134.833C280.338 132.253 279.356 130.059 277.716 128.251C276.068 126.376 274.015 125.022 271.558 124.19C269.093 123.292 266.405 123.027 263.495 123.395C259.725 123.871 257.023 125.086 255.388 127.04C253.811 128.919 253.161 130.95 253.436 133.132C253.637 134.72 254.127 136.203 254.906 137.583C255.743 138.889 257.138 140.359 259.092 141.993C261.103 143.554 263.942 145.547 267.608 147.973C270.977 150.168 273.774 152.099 276.001 153.767C278.293 155.426 280.053 157.119 281.279 158.845C282.571 160.564 283.368 162.613 283.668 164.994C284.061 168.103 283.507 170.894 282.005 173.369C280.569 175.835 278.455 177.983 275.663 179.815C272.862 181.58 269.618 183.031 265.932 184.169C262.312 185.298 258.517 186.113 254.549 186.615C250.713 187.099 247.43 187.178 244.701 186.851C241.972 186.524 239.056 185.784 235.953 184.63C235.027 184.209 234.146 183.884 233.31 183.654C232.541 183.415 231.892 183.329 231.362 183.396C230.569 183.496 229.933 184.047 229.454 185.048C229.034 185.975 228.573 187.377 228.071 189.254L226.087 189.505C226.498 187.975 226.913 186.209 227.332 184.207C227.751 182.206 228.17 179.666 228.587 176.59C228.997 173.447 229.409 169.531 229.825 164.842L231.809 164.591C231.72 166.014 231.66 167.399 231.628 168.747C231.589 170.029 231.69 171.36 231.931 172.74C232.598 176.957 234.554 180.204 237.799 182.482C241.101 184.685 245.728 185.411 251.681 184.659C253.533 184.425 255.252 183.939 256.839 183.201C258.417 182.397 259.652 181.266 260.543 179.81C261.5 178.345 261.845 176.554 261.578 174.438C261.377 172.85 260.817 171.342 259.897 169.913C259.036 168.409 257.669 166.902 255.798 165.391C253.985 163.806 251.581 162.06 248.585 160.154C245.515 158.19 242.961 156.328 240.925 154.57C238.88 152.745 237.269 150.899 236.092 149.032C234.982 147.156 234.289 145.127 234.013 142.944C233.62 139.836 234.076 137.057 235.379 134.607C236.748 132.15 238.701 130.055 241.237 128.324C243.84 126.584 246.786 125.17 250.075 124.082C253.431 122.986 256.862 122.217 260.367 121.774C264.468 121.256 267.763 121.276 270.253 121.835C272.8 122.32 274.748 122.847 276.097 123.415C276.875 123.72 277.764 124.112 278.765 124.59C279.833 125.06 280.697 125.253 281.358 125.17C282.02 125.086 282.528 124.585 282.882 123.667C283.236 122.749 283.632 121.355 284.067 119.485L286.052 119.235ZM312.5 153.288C312.5 153.288 312.525 152.949 312.573 152.271C312.688 151.584 312.746 151.241 312.746 151.241L317.21 150.677C321.046 150.192 324.162 149.06 326.558 147.279C329.02 145.489 330.894 143.304 332.181 140.722C333.467 138.141 334.261 135.386 334.564 132.458C334.932 129.522 334.936 126.632 334.577 123.788C334.218 120.944 333.566 118.977 332.622 117.887C331.744 116.788 330.313 116.364 328.328 116.615C326.278 116.874 324.935 117.682 324.301 119.039C323.666 120.396 323.119 122.716 322.66 125.999L317.008 166.628C316.738 168.745 316.711 170.395 316.928 171.577C317.144 172.76 317.782 173.553 318.841 173.956C319.966 174.352 321.732 174.498 324.138 174.396L323.992 176.43C321.726 176.582 319.072 176.85 316.03 177.235C313.045 177.544 309.8 177.921 306.295 178.364C302.789 178.807 299.321 179.278 295.89 179.779C292.517 180.205 289.846 180.61 287.879 180.993L288.025 178.958C290.257 178.542 291.976 178.056 293.183 177.5C294.389 176.945 295.281 176.026 295.858 174.743C296.436 173.461 296.871 171.591 297.166 169.135L302.52 128.544C302.799 126.493 302.863 124.872 302.712 123.681C302.628 122.483 302.052 121.648 300.985 121.178C299.975 120.634 298.21 120.487 295.688 120.739L295.933 118.692C297.264 118.591 298.926 118.448 300.919 118.263C302.903 118.013 304.958 117.787 307.083 117.586C309.265 117.31 311.183 117.067 312.837 116.859C316.342 116.416 319.248 116.015 321.555 115.656C323.861 115.298 325.941 115.001 327.793 114.767C337.317 113.564 344.251 113.931 348.595 115.869C352.996 117.732 355.456 120.714 355.974 124.814C356.501 128.981 355.195 133.01 352.058 136.9C348.921 140.791 344.307 144.163 338.217 147.015C332.118 149.802 324.869 151.725 316.469 152.787L312.5 153.288ZM415.879 102.832C415.435 104.635 414.859 107.262 414.153 110.711C413.438 114.094 412.914 118.46 412.582 123.811L410.598 124.062C410.753 122.093 410.717 120.216 410.492 118.43C410.166 115.851 409.183 113.657 407.543 111.848C405.895 109.973 403.843 108.62 401.386 107.788C398.92 106.89 396.233 106.625 393.322 106.992C389.552 107.469 386.85 108.684 385.215 110.637C383.638 112.516 382.988 114.547 383.264 116.73C383.464 118.317 383.954 119.801 384.733 121.181C385.57 122.486 386.965 123.956 388.919 125.591C390.93 127.151 393.769 129.144 397.436 131.571C400.804 133.766 403.601 135.697 405.828 137.364C408.121 139.023 409.88 140.716 411.106 142.443C412.398 144.161 413.195 146.211 413.496 148.592C413.889 151.7 413.334 154.492 411.832 156.966C410.397 159.432 408.283 161.581 405.49 163.412C402.689 165.177 399.446 166.628 395.759 167.766C392.139 168.896 388.345 169.711 384.376 170.212C380.54 170.697 377.257 170.776 374.528 170.449C371.799 170.121 368.883 169.381 365.781 168.227C364.854 167.807 363.973 167.482 363.137 167.251C362.368 167.012 361.719 166.926 361.19 166.993C360.396 167.093 359.76 167.644 359.282 168.645C358.861 169.572 358.4 170.974 357.898 172.852L355.914 173.103C356.325 171.572 356.741 169.806 357.16 167.805C357.579 165.803 357.997 163.264 358.415 160.187C358.824 157.045 359.237 153.129 359.652 148.44L361.636 148.189C361.547 149.611 361.487 150.996 361.456 152.344C361.416 153.626 361.517 154.957 361.759 156.338C362.426 160.554 364.382 163.801 367.626 166.079C370.928 168.283 375.556 169.008 381.508 168.256C383.36 168.022 385.08 167.536 386.666 166.798C388.245 165.994 389.479 164.864 390.37 163.407C391.328 161.942 391.673 160.152 391.405 158.035C391.205 156.448 390.645 154.939 389.725 153.51C388.863 152.006 387.496 150.499 385.626 148.988C383.813 147.403 381.408 145.657 378.412 143.751C375.342 141.787 372.788 139.926 370.752 138.167C368.707 136.343 367.096 134.497 365.92 132.629C364.809 130.754 364.116 128.725 363.84 126.542C363.448 123.433 363.903 120.654 365.206 118.205C366.576 115.747 368.528 113.653 371.065 111.921C373.667 110.181 376.613 108.767 379.903 107.68C383.258 106.584 386.689 105.814 390.195 105.372C394.295 104.854 397.591 104.874 400.08 105.433C402.628 105.917 404.576 106.444 405.924 107.013C406.702 107.318 407.591 107.709 408.593 108.188C409.66 108.658 410.524 108.851 411.186 108.767C411.847 108.684 412.355 108.183 412.709 107.264C413.064 106.346 413.459 104.952 413.895 103.083L415.879 102.832Z" fill="white"/>
</g>
<path d="M147.214 288.386C147.23 289.201 147.266 289.992 147.32 290.759C147.392 291.503 147.454 292.076 147.505 292.478C147.553 292.859 147.61 293.228 147.677 293.585C147.741 293.921 147.798 294.204 147.849 294.434L147.118 294.526C146.425 292.614 145.553 291.327 144.502 290.664C143.471 289.998 142.279 289.751 140.925 289.922L140.512 289.975C140.152 290.02 139.85 290.101 139.607 290.218C139.382 290.311 139.223 290.492 139.128 290.762C139.051 291.008 139.044 291.375 139.105 291.862L140.774 305.069C140.875 305.873 141.059 306.473 141.324 306.87C141.61 307.264 142.018 307.513 142.547 307.619C143.098 307.721 143.81 307.739 144.683 307.671L144.763 308.306C144.038 308.355 143.104 308.451 141.961 308.596C140.837 308.716 139.682 308.851 138.497 309.001C137.354 309.146 136.276 309.293 135.263 309.442C134.268 309.568 133.466 309.691 132.858 309.81L132.778 309.175C133.428 309.05 133.904 308.904 134.206 308.737C134.507 308.57 134.687 308.289 134.745 307.895C134.802 307.5 134.783 306.922 134.687 306.16L133.098 293.588C132.999 292.805 132.874 292.24 132.723 291.894C132.569 291.526 132.315 291.3 131.96 291.216C131.624 291.108 131.137 291.084 130.499 291.143L130.419 290.508C131.586 290.382 132.837 290.245 134.173 290.098C135.531 289.948 136.812 289.797 138.019 289.644C139.225 289.492 140.188 289.37 140.908 289.279C141.839 289.162 142.887 289.029 144.051 288.882C145.233 288.711 146.288 288.546 147.214 288.386ZM143.464 298.278C143.464 298.278 143.477 298.384 143.504 298.595C143.531 298.807 143.544 298.913 143.544 298.913L139.099 299.475C139.099 299.475 139.086 299.369 139.059 299.157C139.033 298.945 139.019 298.84 139.019 298.84L143.464 298.278ZM144.57 294.526C144.609 295.51 144.665 296.298 144.74 296.891C144.836 297.481 144.911 297.988 144.964 298.411C145.018 298.834 145.093 299.341 145.189 299.931C145.285 300.521 145.437 301.297 145.644 302.26L144.914 302.352C144.749 301.728 144.475 301.171 144.09 300.682C143.724 300.17 143.267 299.787 142.719 299.533C142.169 299.259 141.523 299.168 140.782 299.262L140.702 298.627C141.464 298.531 142.064 298.261 142.503 297.819C142.939 297.355 143.26 296.831 143.465 296.246C143.692 295.658 143.817 295.115 143.84 294.618L144.57 294.526ZM148.711 288.197C149.222 288.154 149.891 288.091 150.719 288.008C151.569 287.922 152.406 287.827 153.231 287.722C154.353 287.581 155.421 287.435 156.434 287.286C157.468 287.133 158.208 287.029 158.652 286.973C161.933 286.559 164.347 286.694 165.896 287.38C167.445 288.066 168.316 289.171 168.508 290.695C168.589 291.33 168.521 291.984 168.305 292.656C168.086 293.307 167.65 293.943 166.997 294.563C166.342 295.162 165.411 295.709 164.205 296.206C163.02 296.7 161.48 297.099 159.583 297.403L155.599 298.035C155.599 298.035 155.585 297.929 155.559 297.718C155.532 297.506 155.518 297.4 155.518 297.4L159.201 296.935C160.196 296.809 160.922 296.513 161.379 296.047C161.855 295.557 162.133 294.952 162.214 294.232C162.314 293.488 162.31 292.693 162.203 291.846C162.016 290.365 161.649 289.25 161.103 288.502C160.557 287.754 159.713 287.452 158.57 287.596C157.998 287.669 157.64 287.897 157.495 288.28C157.371 288.662 157.379 289.403 157.518 290.503L159.106 303.075C159.202 303.837 159.327 304.402 159.481 304.769C159.657 305.134 159.911 305.36 160.244 305.447C160.578 305.534 161.065 305.559 161.705 305.521L161.785 306.156C161.103 306.199 160.222 306.289 159.142 306.425C158.06 306.54 156.958 306.669 155.836 306.81C154.884 306.931 153.986 307.055 153.142 307.183C152.316 307.287 151.652 307.393 151.15 307.499L151.07 306.864C151.72 306.739 152.196 306.593 152.498 306.426C152.799 306.259 152.979 305.978 153.037 305.584C153.094 305.189 153.075 304.611 152.979 303.849L151.39 291.277C151.291 290.494 151.165 289.919 151.011 289.551C150.857 289.184 150.603 288.958 150.248 288.873C149.915 288.787 149.429 288.773 148.791 288.832L148.711 288.197ZM156.852 297.49C158 297.388 158.872 297.31 159.467 297.256C160.084 297.2 160.573 297.159 160.936 297.135C161.296 297.09 161.67 297.074 162.059 297.09C163.665 297.037 165.059 297.173 166.239 297.497C167.42 297.821 168.222 298.558 168.647 299.709L169.667 302.418C169.861 302.931 170.077 303.28 170.315 303.465C170.551 303.629 170.838 303.689 171.177 303.647C171.367 303.623 171.553 303.556 171.732 303.447C171.933 303.336 172.1 303.208 172.232 303.062L172.729 303.418C172.266 304.014 171.697 304.527 171.02 304.957C170.362 305.362 169.45 305.639 168.286 305.786C166.868 305.965 165.757 305.847 164.952 305.433C164.168 305.016 163.631 304.428 163.342 303.669L162 300.194C161.63 298.972 161.213 298.218 160.746 297.933C160.299 297.624 159.705 297.516 158.964 297.61L156.9 297.871L156.852 297.49ZM187.549 283.29C187.566 284.105 187.602 284.896 187.655 285.663C187.728 286.407 187.79 286.98 187.84 287.382C187.888 287.763 187.946 288.132 188.012 288.489C188.076 288.825 188.134 289.108 188.184 289.338L187.454 289.43C186.761 287.518 185.889 286.231 184.837 285.568C183.807 284.902 182.615 284.655 181.26 284.826L180.847 284.879C180.488 284.924 180.186 285.005 179.943 285.122C179.718 285.215 179.558 285.396 179.463 285.666C179.387 285.912 179.379 286.279 179.441 286.766L181.27 301.243C181.331 301.729 181.431 302.093 181.569 302.334C181.725 302.55 181.925 302.687 182.169 302.742C182.431 302.773 182.742 302.766 183.102 302.721L183.832 302.628C184.763 302.511 185.586 302.213 186.299 301.736C187.034 301.256 187.622 300.548 188.063 299.61C188.525 298.67 188.811 297.451 188.923 295.954L189.653 295.861C189.665 296.462 189.729 297.228 189.847 298.159C189.901 298.582 189.99 299.206 190.115 300.028C190.259 300.827 190.429 301.655 190.623 302.512C189.58 302.601 188.414 302.727 187.123 302.89C185.829 303.032 184.674 303.167 183.658 303.295C182.938 303.386 181.975 303.508 180.769 303.66C179.563 303.813 178.283 303.985 176.932 304.178C175.598 304.346 174.352 304.525 173.193 304.714L173.113 304.079C173.764 303.954 174.24 303.808 174.541 303.641C174.843 303.474 175.022 303.193 175.08 302.799C175.138 302.404 175.119 301.826 175.022 301.064L173.434 288.492C173.335 287.709 173.21 287.144 173.059 286.798C172.905 286.43 172.65 286.204 172.296 286.12C171.959 286.012 171.473 285.988 170.835 286.047L170.755 285.412C171.921 285.286 173.173 285.149 174.509 285.002C175.866 284.852 177.148 284.701 178.354 284.548C179.561 284.396 180.524 284.274 181.243 284.183C182.175 284.066 183.222 283.933 184.386 283.786C185.569 283.615 186.623 283.45 187.549 283.29ZM183.799 293.182C183.799 293.182 183.813 293.288 183.84 293.499C183.866 293.711 183.88 293.817 183.88 293.817L179.435 294.378C179.435 294.378 179.422 294.273 179.395 294.061C179.368 293.849 179.355 293.744 179.355 293.744L183.799 293.182ZM184.906 289.43C184.944 290.414 185.001 291.202 185.076 291.795C185.172 292.385 185.247 292.892 185.3 293.315C185.353 293.738 185.428 294.245 185.524 294.835C185.62 295.425 185.772 296.201 185.98 297.164L185.25 297.256C185.085 296.632 184.81 296.075 184.426 295.586C184.06 295.074 183.603 294.69 183.055 294.437C182.504 294.163 181.858 294.072 181.118 294.166L181.037 293.531C181.799 293.435 182.4 293.165 182.838 292.723C183.274 292.259 183.595 291.735 183.801 291.15C184.028 290.562 184.153 290.019 184.176 289.522L184.906 289.43ZM199.308 281.353C200.408 281.214 201.366 281.222 202.181 281.377C203.015 281.508 203.715 281.688 204.282 281.918C204.554 282.034 204.77 282.125 204.929 282.191C205.106 282.233 205.269 282.245 205.417 282.226C205.629 282.199 205.762 282.064 205.818 281.821C205.891 281.553 205.932 281.193 205.939 280.741L206.669 280.649C206.699 281.053 206.727 281.534 206.755 282.089C206.803 282.642 206.873 283.364 206.964 284.256C207.076 285.145 207.225 286.32 207.409 287.78L206.679 287.872C206.301 286.415 205.755 285.237 205.039 284.338C204.344 283.437 203.545 282.807 202.639 282.448C201.752 282.065 200.79 281.94 199.753 282.071C198.737 282.199 197.957 282.491 197.412 282.947C196.868 283.403 196.634 283.938 196.712 284.551C196.787 285.144 197.068 285.668 197.556 286.122C198.062 286.553 198.729 286.984 199.558 287.417C200.408 287.847 201.393 288.325 202.513 288.85C203.558 289.299 204.578 289.793 205.571 290.335C206.561 290.855 207.406 291.5 208.106 292.272C208.803 293.023 209.223 293.969 209.368 295.112C209.517 296.298 209.273 297.339 208.633 298.237C207.994 299.135 207.044 299.868 205.783 300.436C204.521 301.004 203.033 301.396 201.319 301.612C200.155 301.76 199.11 301.741 198.183 301.557C197.275 301.349 196.51 301.166 195.888 301.008C195.6 300.937 195.367 300.881 195.19 300.839C195.012 300.797 194.86 300.784 194.733 300.8C194.521 300.826 194.377 300.963 194.301 301.209C194.246 301.452 194.216 301.811 194.211 302.285L193.481 302.377C193.462 301.885 193.411 301.311 193.328 300.655C193.266 299.996 193.17 299.148 193.039 298.111C192.926 297.05 192.768 295.715 192.565 294.107L193.295 294.014C193.607 295.631 194.11 296.976 194.805 298.049C195.521 299.12 196.394 299.902 197.424 300.395C198.472 300.865 199.663 301.015 200.996 300.847C201.525 300.78 202.024 300.642 202.492 300.432C202.979 300.199 203.358 299.882 203.63 299.482C203.923 299.079 204.032 298.582 203.958 297.989C203.891 297.46 203.693 297.001 203.364 296.613C203.036 296.224 202.558 295.844 201.93 295.471C201.302 295.099 200.499 294.695 199.519 294.26C198.243 293.69 197.04 293.1 195.909 292.491C194.775 291.86 193.837 291.151 193.092 290.363C192.347 289.575 191.911 288.674 191.783 287.658C191.633 286.473 191.859 285.455 192.461 284.605C193.082 283.731 193.982 283.026 195.161 282.489C196.338 281.932 197.72 281.553 199.308 281.353ZM233.57 277.476L233.65 278.111C233.018 278.212 232.542 278.358 232.222 278.549C231.921 278.716 231.741 278.997 231.683 279.391C231.623 279.764 231.642 280.343 231.741 281.126L233.33 293.698C233.426 294.46 233.551 295.024 233.705 295.392C233.88 295.757 234.134 295.983 234.468 296.07C234.801 296.157 235.288 296.181 235.929 296.143L236.009 296.778C235.474 296.803 234.752 296.872 233.842 296.987C232.95 297.079 231.997 297.188 230.981 297.317C229.944 297.448 228.908 297.589 227.873 297.742C226.857 297.87 226.024 297.997 225.373 298.122L225.293 297.487C225.944 297.362 226.42 297.216 226.721 297.048C227.023 296.881 227.202 296.601 227.26 296.206C227.318 295.812 227.298 295.234 227.202 294.472L226.44 288.44L219.297 289.342L220.059 295.374C220.155 296.136 220.28 296.701 220.434 297.069C220.609 297.434 220.864 297.659 221.197 297.746C221.531 297.833 222.018 297.858 222.658 297.82L222.738 298.455C222.077 298.495 221.238 298.58 220.222 298.708C219.204 298.815 218.165 298.936 217.107 299.069C216.091 299.198 215.14 299.329 214.254 299.462C213.365 299.575 212.648 299.687 212.103 299.798L212.023 299.164C212.673 299.038 213.149 298.892 213.451 298.725C213.752 298.558 213.932 298.277 213.99 297.883C214.047 297.489 214.028 296.91 213.932 296.148L212.343 283.576C212.244 282.793 212.119 282.229 211.968 281.882C211.814 281.514 211.56 281.289 211.205 281.204C210.869 281.096 210.382 281.072 209.744 281.131L209.664 280.496C210.217 280.448 210.939 280.378 211.831 280.287C212.723 280.196 213.676 280.086 214.692 279.957C215.751 279.824 216.786 279.682 217.8 279.533C218.813 279.383 219.646 279.256 220.3 279.152L220.38 279.787C219.747 279.889 219.271 280.035 218.951 280.226C218.65 280.393 218.47 280.673 218.413 281.068C218.352 281.441 218.372 282.019 218.471 282.802L219.217 288.707L226.36 287.805L225.614 281.9C225.515 281.117 225.39 280.552 225.239 280.205C225.085 279.838 224.83 279.612 224.476 279.528C224.139 279.42 223.652 279.395 223.015 279.454L222.935 278.819C223.593 278.758 224.432 278.673 225.451 278.566C226.49 278.456 227.529 278.336 228.566 278.205C229.582 278.076 230.533 277.945 231.419 277.812C232.327 277.676 233.044 277.564 233.57 277.476ZM242.466 276.352C242.976 276.309 243.646 276.246 244.474 276.163C245.323 276.077 246.161 275.982 246.986 275.877C248.171 275.728 249.302 275.574 250.379 275.416C251.477 275.256 252.259 275.147 252.724 275.088C255.878 274.689 258.211 274.857 259.723 275.591C261.234 276.324 262.099 277.548 262.315 279.263C262.412 280.025 262.348 280.796 262.124 281.577C261.918 282.334 261.483 283.056 260.817 283.742C260.151 284.428 259.195 285.033 257.95 285.556C256.722 286.055 255.125 286.428 253.156 286.677L250.426 287.022C250.426 287.022 250.413 286.916 250.386 286.705C250.359 286.493 250.346 286.387 250.346 286.387L252.759 286.082C253.838 285.946 254.624 285.61 255.115 285.075C255.625 284.516 255.926 283.833 256.017 283.026C256.127 282.195 256.125 281.324 256.01 280.414C255.799 278.742 255.438 277.508 254.929 276.712C254.42 275.917 253.658 275.583 252.642 275.711C251.922 275.802 251.479 276.041 251.313 276.427C251.147 276.814 251.133 277.557 251.272 278.658L252.861 291.23C252.957 291.992 253.093 292.555 253.268 292.92C253.443 293.285 253.718 293.509 254.094 293.59C254.491 293.669 255.052 293.684 255.777 293.636L255.857 294.27C255.133 294.319 254.199 294.416 253.056 294.56C251.931 294.681 250.776 294.816 249.591 294.965C248.639 295.086 247.741 295.21 246.897 295.338C246.071 295.442 245.407 295.548 244.905 295.654L244.824 295.019C245.475 294.894 245.951 294.748 246.253 294.581C246.554 294.414 246.734 294.133 246.791 293.739C246.849 293.344 246.83 292.766 246.733 292.004L245.145 279.432C245.046 278.649 244.921 278.084 244.77 277.738C244.616 277.37 244.361 277.144 244.007 277.06C243.671 276.952 243.184 276.928 242.546 276.987L242.466 276.352ZM274.583 271.842C276.848 271.556 278.876 271.698 280.668 272.267C282.479 272.812 283.944 273.767 285.062 275.131C286.199 276.471 286.901 278.199 287.169 280.316C287.428 282.369 287.168 284.229 286.39 285.897C285.633 287.563 284.452 288.938 282.847 290.022C281.24 291.085 279.325 291.757 277.102 292.038C274.838 292.324 272.8 292.194 270.989 291.649C269.197 291.08 267.731 290.115 266.592 288.753C265.473 287.39 264.782 285.66 264.517 283.565C264.258 281.512 264.517 279.651 265.296 277.983C266.074 276.315 267.256 274.951 268.843 273.89C270.447 272.806 272.361 272.123 274.583 271.842ZM274.528 272.43C273.534 272.556 272.718 273.078 272.082 273.997C271.464 274.892 271.044 276.085 270.824 277.575C270.604 279.065 270.613 280.752 270.851 282.635C271.094 284.561 271.527 286.205 272.151 287.567C272.796 288.927 273.559 289.948 274.441 290.632C275.321 291.295 276.226 291.568 277.157 291.45C278.152 291.325 278.958 290.814 279.576 289.919C280.213 289 280.641 287.796 280.862 286.306C281.079 284.794 281.07 283.107 280.835 281.245C280.589 279.298 280.145 277.655 279.503 276.317C278.879 274.955 278.128 273.943 277.248 273.28C276.387 272.593 275.481 272.31 274.528 272.43ZM307.313 268.159C307.346 269.101 307.396 270.008 307.463 270.882C307.552 271.752 307.625 272.42 307.684 272.886C307.756 273.457 307.836 274.006 307.924 274.533C308.01 275.038 308.084 275.458 308.148 275.794L307.418 275.887C306.802 274.244 306.177 272.958 305.544 272.027C304.907 271.075 304.222 270.42 303.489 270.061C302.755 269.702 301.934 269.58 301.024 269.695L300.738 269.731L302.619 284.621C302.726 285.468 302.88 286.093 303.082 286.498C303.305 286.9 303.658 287.145 304.143 287.235C304.627 287.324 305.316 287.334 306.211 287.264L306.291 287.899C305.886 287.928 305.292 287.993 304.509 288.092C303.723 288.169 302.907 288.262 302.06 288.369C301.211 288.454 300.48 288.536 299.866 288.614C299.231 288.694 298.502 288.797 297.679 288.922C296.854 289.026 296.072 289.136 295.334 289.251C294.614 289.342 294.086 289.419 293.75 289.483L293.67 288.848C294.554 288.693 295.219 288.513 295.666 288.306C296.113 288.099 296.384 287.774 296.478 287.332C296.594 286.887 296.599 286.242 296.492 285.395L294.611 270.506L294.325 270.542C293.415 270.657 292.649 270.979 292.028 271.509C291.407 272.039 290.906 272.844 290.527 273.924C290.145 274.983 289.859 276.385 289.671 278.129L288.941 278.221C288.94 277.877 288.908 277.451 288.844 276.943C288.798 276.411 288.739 275.86 288.667 275.288C288.608 274.823 288.503 274.159 288.351 273.296C288.22 272.431 288.054 271.538 287.851 270.618C288.806 270.519 289.846 270.409 290.971 270.288C292.095 270.168 293.218 270.036 294.34 269.895C295.483 269.75 296.52 269.619 297.451 269.502C298.425 269.379 299.483 269.245 300.626 269.1C301.79 268.953 302.953 268.796 304.114 268.628C305.276 268.459 306.342 268.303 307.313 268.159ZM317.11 266.921L326.831 282.594C327.282 283.268 327.676 283.745 328.012 284.025C328.367 284.282 328.683 284.403 328.961 284.389L329.041 285.024C328.507 285.049 327.806 285.116 326.938 285.226C326.089 285.311 325.23 285.409 324.363 285.519C323.22 285.663 322.142 285.81 321.128 285.96C320.134 286.085 319.332 286.208 318.723 286.328L318.643 285.693C319.527 285.538 320.093 285.252 320.341 284.833C320.589 284.415 320.419 283.748 319.83 282.834L313.8 272.629L314.484 271.156L311.924 279.994C311.502 281.424 311.282 282.57 311.262 283.432C311.239 284.274 311.362 284.903 311.629 285.321C311.918 285.736 312.318 286.008 312.829 286.137C313.337 286.245 313.91 286.269 314.548 286.21L314.628 286.845C313.84 286.902 313.128 286.97 312.493 287.051C311.876 287.107 311.198 287.182 310.457 287.276C310.055 287.326 309.622 287.392 309.159 287.472C308.715 287.528 308.337 287.597 308.025 287.68L307.944 287.045C308.42 286.899 308.846 286.522 309.221 285.916C309.596 285.309 309.987 284.324 310.396 282.961L315.015 267.186C315.38 267.183 315.732 267.16 316.071 267.117C316.43 267.071 316.777 267.006 317.11 266.921ZM320.34 278.447L320.421 279.082L311.595 280.197L311.832 279.522L320.34 278.447ZM344.548 263.455C344.581 264.397 344.631 265.304 344.698 266.177C344.787 267.048 344.86 267.716 344.919 268.181C344.991 268.753 345.072 269.302 345.16 269.828C345.245 270.333 345.32 270.754 345.383 271.09L344.653 271.182C344.037 269.54 343.412 268.253 342.779 267.323C342.142 266.371 341.458 265.716 340.724 265.357C339.991 264.998 339.169 264.876 338.259 264.991L337.973 265.027L339.854 279.917C339.961 280.763 340.116 281.389 340.317 281.794C340.54 282.195 340.894 282.441 341.378 282.53C341.862 282.62 342.552 282.629 343.446 282.559L343.526 283.194C343.121 283.224 342.527 283.288 341.744 283.387C340.958 283.465 340.142 283.557 339.296 283.664C338.446 283.75 337.715 283.832 337.101 283.909C336.466 283.99 335.737 284.092 334.914 284.218C334.089 284.322 333.307 284.432 332.569 284.546C331.85 284.637 331.322 284.715 330.986 284.779L330.906 284.144C331.789 283.989 332.454 283.808 332.901 283.601C333.348 283.394 333.619 283.07 333.714 282.628C333.829 282.183 333.834 281.537 333.727 280.691L331.846 265.801L331.56 265.837C330.65 265.952 329.884 266.275 329.263 266.805C328.642 267.335 328.142 268.14 327.762 269.22C327.38 270.279 327.095 271.68 326.906 273.424L326.176 273.517C326.176 273.173 326.143 272.747 326.079 272.239C326.034 271.707 325.975 271.155 325.902 270.584C325.844 270.118 325.738 269.454 325.586 268.592C325.455 267.727 325.289 266.834 325.087 265.913C326.042 265.814 327.081 265.704 328.206 265.584C329.33 265.463 330.453 265.332 331.575 265.19C332.718 265.046 333.755 264.915 334.686 264.797C335.66 264.674 336.718 264.541 337.861 264.396C339.025 264.249 340.188 264.091 341.349 263.923C342.511 263.755 343.577 263.599 344.548 263.455ZM357.735 261.337C359.999 261.051 362.028 261.192 363.82 261.762C365.631 262.307 367.095 263.262 368.213 264.625C369.35 265.966 370.053 267.694 370.32 269.81C370.579 271.863 370.32 273.724 369.541 275.392C368.784 277.057 367.603 278.432 365.999 279.517C364.391 280.58 362.476 281.252 360.254 281.532C357.989 281.819 355.952 281.689 354.141 281.144C352.349 280.574 350.883 279.609 349.743 278.248C348.625 276.884 347.933 275.155 347.669 273.059C347.409 271.006 347.669 269.146 348.447 267.478C349.225 265.81 350.408 264.445 351.994 263.385C353.599 262.3 355.512 261.618 357.735 261.337ZM357.68 261.924C356.685 262.05 355.869 262.573 355.233 263.492C354.615 264.387 354.196 265.579 353.976 267.069C353.755 268.559 353.764 270.246 354.002 272.13C354.245 274.056 354.679 275.7 355.303 277.062C355.947 278.421 356.711 279.443 357.593 280.127C358.472 280.79 359.377 281.063 360.309 280.945C361.303 280.819 362.11 280.309 362.728 279.414C363.364 278.495 363.793 277.29 364.013 275.8C364.231 274.289 364.222 272.602 363.987 270.74C363.741 268.792 363.296 267.15 362.654 265.812C362.031 264.45 361.279 263.437 360.4 262.774C359.539 262.087 358.632 261.804 357.68 261.924Z" fill="white"/>
<path d="M201.319 265.948C201.696 265.901 202.015 265.911 202.275 265.979C202.546 266.045 202.777 266.157 202.968 266.314C203.181 266.489 203.347 266.72 203.464 267.008C203.581 267.295 203.671 267.692 203.735 268.198L204.237 272.172C204.29 272.588 204.41 272.86 204.597 272.988C204.795 273.114 205.097 273.152 205.503 273.1L205.543 273.413C205.373 273.424 205.114 273.447 204.765 273.481C204.416 273.505 204.077 273.537 203.75 273.579C203.422 273.62 203.101 273.671 202.786 273.731C202.48 273.78 202.248 273.819 202.09 273.849L202.051 273.536C202.408 273.491 202.652 273.385 202.782 273.217C202.912 273.05 202.95 272.757 202.898 272.341L202.354 268.04C202.316 267.732 202.255 267.453 202.173 267.201C202.091 266.949 201.95 266.755 201.752 266.619C201.563 266.482 201.29 266.436 200.933 266.481C200.516 266.534 200.164 266.699 199.877 266.977C199.599 267.254 199.397 267.612 199.272 268.051C199.154 268.48 199.128 268.947 199.191 269.453L199.609 272.756C199.662 273.173 199.772 273.446 199.939 273.576C200.107 273.706 200.369 273.749 200.726 273.704L200.766 274.016C200.606 274.026 200.367 274.046 200.048 274.077C199.738 274.096 199.419 274.126 199.092 274.167C198.764 274.209 198.428 274.261 198.083 274.325C197.737 274.379 197.481 274.421 197.313 274.452L197.274 274.14C197.681 274.088 197.959 273.978 198.109 273.808C198.269 273.636 198.322 273.342 198.27 272.926L197.681 268.268C197.625 267.821 197.504 267.504 197.319 267.315C197.133 267.117 196.821 267.046 196.385 267.101L196.345 266.788C196.666 266.778 196.976 266.754 197.273 266.716C197.561 266.68 197.832 266.631 198.086 266.568C198.349 266.495 198.585 266.41 198.795 266.313L199.017 268.069C199.189 267.361 199.488 266.85 199.911 266.534C200.344 266.208 200.813 266.012 201.319 265.948ZM208.844 264.997C209.479 264.917 210.067 264.984 210.608 265.198C211.15 265.412 211.606 265.798 211.979 266.355C212.362 266.912 212.614 267.666 212.734 268.618C212.854 269.571 212.798 270.364 212.566 270.998C212.342 271.621 211.995 272.104 211.524 272.445C211.053 272.787 210.5 272.998 209.865 273.078C209.24 273.157 208.652 273.09 208.101 272.878C207.56 272.664 207.099 272.284 206.717 271.737C206.345 271.18 206.098 270.425 205.978 269.472C205.857 268.52 205.908 267.727 206.131 267.094C206.363 266.46 206.715 265.972 207.186 265.63C207.666 265.287 208.219 265.076 208.844 264.997ZM208.882 265.295C208.316 265.367 207.887 265.718 207.594 266.35C207.311 266.98 207.253 267.96 207.421 269.29C207.589 270.619 207.889 271.554 208.32 272.094C208.76 272.623 209.262 272.852 209.828 272.781C210.393 272.709 210.818 272.363 211.103 271.743C211.396 271.111 211.458 270.13 211.29 268.801C211.122 267.471 210.818 266.537 210.377 265.998C209.946 265.458 209.448 265.224 208.882 265.295ZM216.089 264.294L216.128 264.606C215.88 264.638 215.664 264.685 215.481 264.749C215.296 264.802 215.185 264.917 215.146 265.093C215.108 265.269 215.19 265.561 215.393 265.969L217.501 270.209L217.395 270.207L218.819 263.888L219.132 263.97L217.379 271.993C217.339 271.998 217.299 272.003 217.26 272.008C217.22 272.013 217.175 272.019 217.126 272.025L213.852 265.741C213.643 265.364 213.455 265.146 213.286 265.086C213.127 265.026 212.993 265.003 212.884 265.016L212.844 264.704C213.047 264.708 213.253 264.708 213.464 264.701C213.683 264.683 213.917 264.659 214.165 264.628C214.473 264.589 214.794 264.538 215.129 264.476C215.474 264.412 215.793 264.351 216.089 264.294ZM224.259 263.262L224.296 263.559C224.11 263.603 223.942 263.71 223.792 263.88C223.651 264.039 223.541 264.32 223.461 264.723L222.111 271.395C222.071 271.4 222.032 271.405 221.992 271.41C221.952 271.415 221.908 271.421 221.858 271.427L218.693 265.643L218.819 263.888C218.879 263.881 218.933 263.874 218.983 263.868C219.043 263.86 219.102 263.853 219.162 263.845L222.26 269.698L222.152 269.802L223.059 265.137C223.126 264.786 223.132 264.518 223.079 264.333C223.034 264.137 222.916 264.006 222.726 263.939C222.545 263.861 222.275 263.835 221.915 263.86L221.878 263.563C222.057 263.55 222.212 263.54 222.343 263.534C222.472 263.518 222.596 263.507 222.717 263.502C222.846 263.486 222.984 263.468 223.133 263.449C223.361 263.42 223.564 263.39 223.742 263.357C223.929 263.324 224.101 263.292 224.259 263.262ZM231.631 262.119C232.504 262.008 233.218 262.19 233.772 262.665C234.334 263.128 234.686 263.92 234.828 265.041L229.575 265.705L229.524 265.424L233.363 264.939C233.322 264.45 233.226 264.009 233.075 263.614C232.923 263.21 232.723 262.898 232.473 262.677C232.233 262.456 231.945 262.366 231.607 262.409C231.151 262.466 230.773 262.746 230.474 263.248C230.184 263.748 230.067 264.498 230.123 265.499L230.175 265.553C230.174 265.704 230.18 265.87 230.193 266.05C230.205 266.23 230.223 266.409 230.246 266.588C230.331 267.262 230.513 267.829 230.793 268.287C231.073 268.746 231.402 269.082 231.782 269.296C232.171 269.499 232.553 269.577 232.93 269.529C233.228 269.492 233.505 269.411 233.762 269.288C234.017 269.155 234.245 268.965 234.446 268.718C234.646 268.471 234.808 268.153 234.93 267.765L235.243 267.846C235.175 268.187 235.036 268.527 234.827 268.866C234.618 269.205 234.338 269.498 233.986 269.744C233.632 269.98 233.208 270.129 232.712 270.192C231.997 270.282 231.362 270.196 230.804 269.934C230.257 269.67 229.808 269.268 229.458 268.728C229.116 268.177 228.897 267.524 228.802 266.77C228.692 265.897 228.736 265.13 228.935 264.47C229.132 263.8 229.463 263.264 229.926 262.863C230.388 262.452 230.957 262.204 231.631 262.119ZM238.089 261.514L238.129 261.827C237.94 261.851 237.787 261.915 237.669 262.021C237.552 262.127 237.553 262.252 237.672 262.399L242.377 267.686C242.577 267.912 242.748 268.072 242.891 268.165C243.032 268.248 243.2 268.297 243.393 268.313L243.433 268.626C243.332 268.628 243.177 268.638 242.968 268.654C242.767 268.659 242.567 268.675 242.369 268.7C242.061 268.738 241.73 268.79 241.375 268.855C241.029 268.909 240.778 268.951 240.62 268.981L240.581 268.668C240.779 268.643 240.937 268.578 241.055 268.472C241.171 268.357 241.166 268.232 241.038 268.097L236.333 262.81C236.098 262.547 235.915 262.379 235.785 262.304C235.654 262.22 235.497 262.179 235.316 262.182L235.277 261.87C235.377 261.867 235.533 261.863 235.744 261.856C235.953 261.84 236.152 261.82 236.341 261.796C236.658 261.756 236.99 261.709 237.336 261.655C237.681 261.591 237.932 261.544 238.089 261.514ZM238.969 265.244C238.969 265.244 238.983 265.277 239.012 265.344C239.039 265.401 239.067 265.463 239.096 265.53C239.134 265.596 239.153 265.628 239.153 265.628L238.121 267.392C237.906 267.762 237.803 268.062 237.812 268.293C237.831 268.522 237.947 268.684 238.16 268.778C238.373 268.862 238.654 268.897 239.005 268.883L239.043 269.18C238.873 269.192 238.684 269.211 238.475 269.237C238.266 269.253 238.062 269.274 237.863 269.299C237.674 269.313 237.499 269.33 237.341 269.35C237.112 269.379 236.905 269.41 236.717 269.444C236.539 269.466 236.371 269.498 236.215 269.538L236.178 269.24C236.364 269.196 236.546 269.087 236.726 268.914C236.914 268.728 237.124 268.435 237.356 268.033L238.969 265.244ZM242.167 260.999L242.204 261.297C242.018 261.34 241.823 261.466 241.617 261.673C241.42 261.87 241.223 262.146 241.027 262.504L239.614 265.086C239.614 265.086 239.6 265.058 239.573 265.001C239.544 264.934 239.516 264.872 239.489 264.815C239.46 264.748 239.446 264.714 239.446 264.714L240.402 262.946C240.581 262.611 240.688 262.34 240.723 262.134C240.757 261.928 240.704 261.784 240.562 261.701C240.429 261.607 240.183 261.572 239.823 261.598L239.786 261.3C240.045 261.277 240.26 261.26 240.429 261.249C240.609 261.236 240.813 261.216 241.042 261.187C241.27 261.158 241.472 261.127 241.65 261.095C241.837 261.061 242.009 261.029 242.167 260.999ZM246.53 260.236C246.847 260.196 247.16 260.197 247.468 260.239C247.775 260.28 248.058 260.366 248.316 260.494C248.563 260.614 248.759 260.766 248.903 260.949C249.046 261.123 249.132 261.324 249.161 261.552C249.194 261.82 249.146 262.037 249.016 262.205C248.885 262.363 248.705 262.456 248.477 262.485C248.259 262.512 248.057 262.472 247.872 262.365C247.697 262.256 247.595 262.082 247.565 261.844C247.536 261.616 247.572 261.425 247.674 261.271C247.785 261.116 247.923 261.008 248.086 260.947C247.965 260.781 247.767 260.654 247.494 260.568C247.231 260.48 246.956 260.455 246.668 260.491C246.42 260.522 246.179 260.613 245.946 260.764C245.713 260.914 245.51 261.141 245.337 261.445C245.163 261.739 245.041 262.133 244.972 262.625C244.902 263.108 244.912 263.701 245.001 264.406C245.111 265.279 245.298 265.961 245.561 266.452C245.825 266.942 246.13 267.282 246.476 267.47C246.831 267.647 247.202 267.711 247.589 267.662C247.847 267.629 248.104 267.547 248.359 267.414C248.614 267.281 248.847 267.09 249.058 266.841C249.267 266.583 249.432 266.255 249.553 265.857L249.849 265.925C249.79 266.255 249.667 266.598 249.48 266.954C249.292 267.301 249.028 267.601 248.687 267.856C248.346 268.111 247.908 268.272 247.372 268.34C246.757 268.417 246.182 268.329 245.645 268.074C245.109 267.819 244.655 267.418 244.284 266.87C243.921 266.311 243.688 265.625 243.585 264.811C243.482 263.998 243.536 263.265 243.746 262.614C243.965 261.951 244.315 261.413 244.797 260.999C245.278 260.576 245.855 260.321 246.53 260.236ZM251.934 255.698L253.233 265.981C253.286 266.398 253.406 266.67 253.593 266.798C253.79 266.924 254.092 266.961 254.499 266.91L254.539 267.222C254.369 267.234 254.11 267.257 253.761 267.29C253.421 267.313 253.078 267.347 252.731 267.39C252.393 267.433 252.052 267.486 251.707 267.55C251.361 267.604 251.105 267.646 250.937 267.677L250.898 267.365C251.305 267.314 251.583 267.203 251.733 267.033C251.893 266.861 251.946 266.567 251.894 266.151L250.82 257.653C250.764 257.207 250.643 256.889 250.458 256.701C250.271 256.503 249.96 256.431 249.523 256.486L249.484 256.174C249.805 256.164 250.115 256.14 250.412 256.102C250.7 256.066 250.971 256.016 251.225 255.954C251.488 255.88 251.724 255.795 251.934 255.698ZM261.067 258.445L261.853 264.666C261.909 265.112 262.031 265.434 262.217 265.633C262.412 265.82 262.723 265.886 263.149 265.832L263.189 266.145C262.878 266.154 262.568 266.178 262.261 266.217C261.973 266.253 261.697 266.303 261.433 266.367C261.179 266.429 260.947 266.514 260.739 266.621L260.517 264.865C260.351 265.541 260.057 266.047 259.636 266.382C259.223 266.706 258.779 266.898 258.302 266.959C257.955 267.003 257.646 266.991 257.376 266.925C257.105 266.858 256.874 266.746 256.683 266.589C256.47 266.414 256.308 266.172 256.199 265.864C256.089 265.555 256.005 265.168 255.946 264.701L255.474 260.966C255.417 260.519 255.297 260.202 255.112 260.014C254.925 259.816 254.614 259.744 254.177 259.799L254.138 259.487C254.459 259.476 254.769 259.452 255.066 259.415C255.354 259.378 255.625 259.329 255.879 259.267C256.142 259.193 256.378 259.108 256.588 259.011L257.327 264.859C257.365 265.167 257.421 265.447 257.493 265.7C257.565 265.953 257.691 266.149 257.87 266.288C258.049 266.426 258.317 266.473 258.674 266.428C259.061 266.379 259.388 266.217 259.655 265.941C259.933 265.664 260.13 265.312 260.248 264.883C260.375 264.454 260.406 263.986 260.342 263.481L259.953 260.4C259.897 259.954 259.776 259.636 259.591 259.448C259.405 259.25 259.093 259.178 258.657 259.233L258.617 258.921C258.939 258.91 259.248 258.886 259.546 258.849C259.833 258.813 260.104 258.763 260.358 258.701C260.621 258.627 260.858 258.542 261.067 258.445ZM265.616 257.825C266.013 257.775 266.358 257.797 266.652 257.891C266.946 257.984 267.165 258.078 267.308 258.171C267.669 258.397 267.845 258.193 267.835 257.56L268.178 257.516C268.193 257.797 268.22 258.131 268.259 258.519C268.297 258.897 268.356 259.409 268.438 260.054L268.095 260.097C267.989 259.737 267.84 259.393 267.647 259.065C267.465 258.735 267.221 258.479 266.915 258.296C266.609 258.103 266.232 258.034 265.786 258.091C265.438 258.135 265.158 258.271 264.945 258.499C264.741 258.717 264.662 259.014 264.71 259.391C264.748 259.688 264.87 259.935 265.076 260.131C265.281 260.317 265.539 260.486 265.85 260.638C266.161 260.78 266.498 260.939 266.863 261.115C267.27 261.305 267.643 261.505 267.982 261.714C268.321 261.923 268.599 262.165 268.815 262.44C269.041 262.714 269.18 263.054 269.231 263.461C269.289 263.918 269.218 264.315 269.019 264.652C268.819 264.99 268.536 265.263 268.169 265.47C267.812 265.677 267.406 265.809 266.949 265.866C266.731 265.894 266.52 265.9 266.317 265.886C266.125 265.88 265.935 265.853 265.747 265.806C265.642 265.769 265.53 265.723 265.412 265.667C265.304 265.61 265.196 265.548 265.087 265.482C264.977 265.415 264.889 265.431 264.821 265.53C264.751 265.62 264.712 265.791 264.704 266.044L264.362 266.087C264.341 265.767 264.307 265.378 264.26 264.921C264.212 264.463 264.14 263.857 264.045 263.103L264.388 263.06C264.527 263.607 264.688 264.081 264.869 264.481C265.051 264.881 265.296 265.183 265.604 265.386C265.91 265.579 266.312 265.644 266.808 265.582C267.006 265.557 267.199 265.487 267.386 265.373C267.583 265.257 267.738 265.086 267.85 264.86C267.963 264.634 267.997 264.348 267.954 264.001C267.898 263.564 267.694 263.227 267.342 262.989C266.989 262.752 266.551 262.51 266.026 262.264C265.64 262.081 265.273 261.895 264.927 261.707C264.591 261.518 264.305 261.292 264.07 261.029C263.846 260.765 263.707 260.43 263.656 260.023C263.6 259.576 263.653 259.202 263.816 258.899C263.988 258.585 264.235 258.342 264.556 258.17C264.876 257.989 265.229 257.874 265.616 257.825ZM270.861 253.594C271.119 253.562 271.354 253.628 271.566 253.792C271.779 253.957 271.901 254.168 271.934 254.426C271.966 254.684 271.9 254.919 271.736 255.132C271.571 255.344 271.36 255.466 271.102 255.499C270.844 255.532 270.609 255.465 270.396 255.301C270.184 255.136 270.062 254.925 270.029 254.667C269.996 254.409 270.062 254.174 270.227 253.961C270.392 253.749 270.603 253.627 270.861 253.594ZM272.084 257.053L272.898 263.497C272.951 263.914 273.071 264.186 273.259 264.313C273.456 264.439 273.758 264.477 274.165 264.425L274.204 264.738C274.034 264.749 273.775 264.772 273.427 264.806C273.087 264.829 272.743 264.862 272.396 264.906C272.059 264.949 271.718 265.002 271.373 265.065C271.027 265.119 270.77 265.162 270.603 265.193L270.563 264.88C270.97 264.829 271.248 264.718 271.398 264.548C271.558 264.377 271.612 264.083 271.559 263.666L270.971 259.008C270.914 258.562 270.793 258.244 270.608 258.056C270.422 257.858 270.111 257.786 269.674 257.841L269.635 257.529C269.956 257.519 270.265 257.495 270.563 257.457C270.851 257.421 271.122 257.371 271.376 257.309C271.639 257.235 271.875 257.15 272.084 257.053ZM280.795 256.119L280.833 256.416C280.647 256.46 280.484 256.566 280.344 256.735C280.204 256.904 280.089 257.186 279.997 257.58L278.365 264.288C278.325 264.293 278.286 264.298 278.246 264.303C278.206 264.308 278.162 264.314 278.112 264.32L274.541 258.073C274.333 257.706 274.145 257.493 273.976 257.434C273.816 257.363 273.682 257.335 273.573 257.349L273.533 257.036C273.733 257.021 273.938 257.01 274.149 257.004C274.368 256.986 274.602 256.962 274.85 256.93C275.158 256.892 275.48 256.846 275.816 256.793C276.162 256.74 276.482 256.684 276.777 256.626L276.817 256.939C276.569 256.97 276.348 257.018 276.155 257.083C275.97 257.137 275.858 257.247 275.818 257.413C275.789 257.578 275.873 257.844 276.071 258.213L278.512 262.576L278.432 262.662L279.566 257.998C279.654 257.654 279.671 257.39 279.617 257.205C279.572 257.009 279.454 256.873 279.263 256.796C279.082 256.718 278.812 256.692 278.452 256.717L278.414 256.42C278.594 256.407 278.749 256.397 278.879 256.391C279.008 256.375 279.133 256.364 279.253 256.359C279.382 256.343 279.521 256.325 279.67 256.306C279.898 256.277 280.101 256.247 280.278 256.214C280.466 256.181 280.638 256.149 280.795 256.119ZM284.735 255.409C285.608 255.299 286.321 255.481 286.875 255.955C287.437 256.419 287.789 257.211 287.931 258.332L282.678 258.996L282.627 258.715L286.467 258.23C286.425 257.741 286.329 257.299 286.178 256.905C286.027 256.501 285.826 256.189 285.576 255.968C285.337 255.747 285.048 255.657 284.711 255.7C284.254 255.757 283.876 256.037 283.577 256.538C283.287 257.039 283.171 257.789 283.226 258.79L283.279 258.844C283.278 258.995 283.283 259.161 283.296 259.341C283.309 259.521 283.326 259.7 283.349 259.878C283.434 260.553 283.616 261.12 283.896 261.578C284.176 262.037 284.506 262.373 284.885 262.587C285.274 262.79 285.657 262.868 286.034 262.82C286.331 262.782 286.608 262.702 286.865 262.579C287.12 262.446 287.348 262.256 287.549 262.009C287.75 261.762 287.911 261.444 288.033 261.055L288.346 261.137C288.278 261.478 288.14 261.818 287.931 262.157C287.721 262.496 287.441 262.788 287.089 263.034C286.736 263.271 286.311 263.42 285.815 263.483C285.101 263.573 284.465 263.487 283.908 263.225C283.36 262.961 282.911 262.559 282.561 262.019C282.219 261.468 282.001 260.815 281.905 260.061C281.795 259.188 281.839 258.421 282.038 257.761C282.236 257.091 282.566 256.555 283.029 256.154C283.492 255.743 284.06 255.495 284.735 255.409ZM290.533 250.821L291.832 261.105C291.885 261.521 292.005 261.793 292.192 261.921C292.39 262.047 292.692 262.085 293.099 262.033L293.138 262.346C292.968 262.357 292.709 262.38 292.361 262.414C292.021 262.437 291.677 262.47 291.33 262.514C290.993 262.556 290.652 262.61 290.307 262.673C289.961 262.727 289.704 262.77 289.537 262.801L289.497 262.488C289.904 262.437 290.182 262.326 290.332 262.156C290.492 261.985 290.546 261.691 290.493 261.274L289.419 252.776C289.363 252.33 289.242 252.013 289.057 251.824C288.871 251.626 288.559 251.555 288.123 251.61L288.083 251.297C288.405 251.287 288.714 251.263 289.012 251.225C289.299 251.189 289.57 251.14 289.825 251.077C290.087 251.004 290.324 250.918 290.533 250.821ZM299.851 253.711L299.888 254.009C299.702 254.053 299.539 254.159 299.4 254.328C299.26 254.497 299.144 254.778 299.053 255.173L297.421 261.88L297.168 261.912L293.596 255.666C293.359 255.303 293.141 255.093 292.943 255.038C292.753 254.971 292.598 254.945 292.479 254.96L292.44 254.648C292.662 254.65 292.893 254.646 293.134 254.636C293.373 254.615 293.632 254.588 293.909 254.553C294.217 254.514 294.538 254.463 294.873 254.401C295.218 254.337 295.538 254.276 295.833 254.219L295.872 254.531C295.624 254.563 295.403 254.611 295.21 254.676C295.025 254.729 294.919 254.848 294.892 255.033C294.864 255.208 294.961 255.493 295.182 255.889L297.586 260.196L297.5 260.237L298.636 255.588C298.724 255.245 298.741 254.98 298.688 254.796C298.643 254.6 298.525 254.463 298.334 254.387C298.142 254.31 297.867 254.284 297.507 254.31L297.47 254.012C297.65 253.999 297.805 253.99 297.935 253.984C298.064 253.967 298.188 253.957 298.309 253.951C298.438 253.935 298.577 253.918 298.725 253.899C298.954 253.87 299.156 253.839 299.334 253.807C299.521 253.773 299.693 253.741 299.851 253.711ZM297.421 261.88L297.078 263.239C297.01 263.5 296.932 263.721 296.845 263.904C296.767 264.085 296.675 264.237 296.57 264.362C296.43 264.53 296.254 264.653 296.042 264.731C295.831 264.818 295.637 264.873 295.458 264.895C295.269 264.919 295.091 264.906 294.924 264.857C294.766 264.806 294.634 264.717 294.527 264.589C294.422 264.472 294.357 264.319 294.333 264.13C294.303 263.892 294.348 263.69 294.468 263.523C294.59 263.367 294.774 263.273 295.022 263.242C295.231 263.215 295.417 263.252 295.581 263.353C295.744 263.453 295.841 263.617 295.87 263.845C295.891 264.014 295.869 264.158 295.803 264.277C295.738 264.396 295.654 264.492 295.552 264.566C295.574 264.573 295.589 264.576 295.599 264.575C295.619 264.572 295.634 264.571 295.644 264.569C295.911 264.535 296.138 264.411 296.322 264.196C296.508 263.991 296.655 263.676 296.762 263.249L297.123 261.797L297.421 261.88Z" fill="white"/>
<path d="M237.364 321.748C237.78 321.695 238.156 321.718 238.491 321.817C238.835 321.905 239.112 322.066 239.324 322.302C239.543 322.526 239.676 322.817 239.721 323.174C239.77 323.561 239.706 323.932 239.529 324.287C239.361 324.63 239.123 324.943 238.816 325.223C238.507 325.494 238.173 325.723 237.814 325.909C238.281 325.86 238.734 325.894 239.172 326.01C239.609 326.116 239.982 326.316 240.291 326.609C240.6 326.903 240.788 327.308 240.853 327.824C240.91 328.28 240.855 328.715 240.685 329.13C240.524 329.533 240.274 329.907 239.935 330.253C239.607 330.607 239.218 330.918 238.768 331.186C238.319 331.465 237.839 331.692 237.327 331.867C236.825 332.042 236.321 332.161 235.815 332.225L235.781 331.957C236.286 331.883 236.771 331.736 237.237 331.516C237.704 331.306 238.113 331.032 238.464 330.696C238.824 330.358 239.092 329.961 239.266 329.506C239.45 329.049 239.508 328.548 239.439 328.002C239.365 327.417 239.16 326.954 238.825 326.613C238.498 326.261 238.089 326.096 237.598 326.118C237.457 326.196 237.33 326.268 237.217 326.332C237.113 326.386 237.016 326.418 236.927 326.43C236.848 326.44 236.786 326.432 236.743 326.408C236.698 326.373 236.672 326.326 236.664 326.266C236.653 326.177 236.684 326.102 236.757 326.043C236.83 325.983 236.916 325.947 237.016 325.935C237.095 325.925 237.176 325.924 237.258 325.934C237.348 325.933 237.444 325.931 237.544 325.928C237.912 325.569 238.162 325.195 238.294 324.805C238.425 324.406 238.467 324.018 238.419 323.641C238.36 323.174 238.199 322.852 237.934 322.674C237.678 322.484 237.352 322.415 236.955 322.465C236.549 322.516 236.185 322.673 235.866 322.935C235.556 323.196 235.315 323.564 235.143 324.039L234.875 323.952C234.983 323.606 235.138 323.279 235.341 322.971C235.543 322.653 235.807 322.388 236.133 322.176C236.467 321.952 236.878 321.809 237.364 321.748ZM245.603 320.163C245.674 320.728 245.735 321.169 245.785 321.485C245.835 321.802 245.885 322.082 245.937 322.328C245.855 322.318 245.699 322.323 245.47 322.342C245.25 322.359 244.996 322.386 244.709 322.423C244.42 322.449 244.136 322.48 243.859 322.515L242.281 322.714L242.465 325.609C242.67 325.472 242.9 325.342 243.157 325.219C243.412 325.086 243.743 324.994 244.15 324.942C244.755 324.866 245.264 324.903 245.676 325.052C246.088 325.202 246.41 325.438 246.642 325.762C246.875 326.085 247.019 326.465 247.074 326.901C247.146 327.477 247.068 328.016 246.84 328.519C246.611 329.021 246.274 329.467 245.829 329.856C245.396 330.253 244.902 330.578 244.35 330.829C243.797 331.08 243.228 331.243 242.642 331.317L242.608 331.049C243.045 330.994 243.462 330.865 243.86 330.664C244.259 330.472 244.604 330.212 244.895 329.883C245.198 329.563 245.422 329.182 245.567 328.74C245.713 328.298 245.75 327.794 245.679 327.229C245.6 326.604 245.375 326.138 245.003 325.833C244.641 325.515 244.157 325.395 243.552 325.472C243.294 325.504 243.079 325.557 242.906 325.629C242.743 325.69 242.562 325.773 242.363 325.879L242.203 325.808L241.926 321.338C242.037 321.344 242.163 321.343 242.303 321.335C242.454 321.327 242.598 321.313 242.737 321.296L244.419 321.083C244.825 321.032 245.076 320.945 245.172 320.822C245.266 320.689 245.315 320.481 245.32 320.198L245.603 320.163ZM251.415 319.973C252.12 319.884 252.76 319.969 253.337 320.229C253.923 320.477 254.407 320.875 254.788 321.421C255.17 321.968 255.411 322.638 255.511 323.432C255.611 324.225 255.543 324.96 255.306 325.635C255.067 326.3 254.688 326.852 254.169 327.29C253.659 327.718 253.026 327.979 252.272 328.074C251.588 328.161 250.953 328.08 250.367 327.831C249.78 327.573 249.291 327.171 248.899 326.625C248.516 326.069 248.275 325.394 248.175 324.6C248.076 323.817 248.14 323.093 248.369 322.429C248.607 321.764 248.986 321.212 249.505 320.773C250.025 320.335 250.661 320.068 251.415 319.973ZM251.315 320.257C250.68 320.338 250.197 320.741 249.865 321.469C249.544 322.195 249.46 323.163 249.613 324.373C249.725 325.266 249.92 325.972 250.198 326.492C250.474 327.001 250.801 327.358 251.18 327.562C251.568 327.765 251.966 327.841 252.372 327.789C253.017 327.708 253.501 327.304 253.822 326.578C254.142 325.842 254.226 324.869 254.073 323.659C253.96 322.766 253.766 322.065 253.49 321.555C253.213 321.036 252.885 320.679 252.508 320.485C252.129 320.281 251.732 320.205 251.315 320.257ZM260.317 329.688C259.791 329.755 259.289 329.763 258.808 329.713C258.328 329.663 257.929 329.537 257.612 329.335C257.305 329.142 257.129 328.867 257.084 328.509C257.04 328.162 257.141 327.847 257.388 327.564C257.634 327.281 257.988 327.045 258.447 326.855L258.567 327.082C258.357 327.179 258.201 327.34 258.099 327.565C257.996 327.789 257.961 328.031 257.994 328.289C258.051 328.745 258.303 329.066 258.75 329.251C259.208 329.446 259.774 329.5 260.449 329.415C260.895 329.358 261.324 329.244 261.736 329.071C262.149 328.908 262.477 328.675 262.721 328.372C262.965 328.069 263.06 327.699 263.004 327.262C262.963 326.935 262.81 326.682 262.546 326.504C262.29 326.315 261.82 326.263 261.135 326.35L260.034 326.489C259.717 326.529 259.406 326.543 259.102 326.531C258.798 326.519 258.542 326.445 258.333 326.31C258.125 326.176 258 325.944 257.958 325.617C257.916 325.28 258.014 324.94 258.253 324.597C258.491 324.244 258.961 323.857 259.663 323.436L259.859 323.547C259.544 323.769 259.275 323.989 259.05 324.209C258.825 324.419 258.728 324.648 258.759 324.896C258.799 325.213 259.058 325.342 259.534 325.282L261.394 325.047C261.811 324.994 262.2 325.006 262.562 325.081C262.935 325.155 263.246 325.307 263.497 325.537C263.748 325.768 263.9 326.091 263.952 326.508C264.011 326.974 263.918 327.429 263.671 327.874C263.425 328.318 263.02 328.702 262.456 329.025C261.903 329.357 261.19 329.578 260.317 329.688ZM259.638 323.711C259.152 323.773 258.7 323.749 258.283 323.641C257.865 323.522 257.52 323.304 257.248 322.985C256.976 322.667 256.805 322.235 256.736 321.689C256.667 321.144 256.725 320.683 256.909 320.307C257.094 319.931 257.374 319.638 257.751 319.429C258.127 319.21 258.557 319.07 259.044 319.009C259.54 318.946 259.992 318.975 260.4 319.095C260.817 319.203 261.161 319.417 261.433 319.735C261.706 320.053 261.876 320.485 261.945 321.031C262.014 321.577 261.956 322.038 261.772 322.414C261.588 322.79 261.308 323.087 260.932 323.306C260.565 323.514 260.134 323.649 259.638 323.711ZM259.604 323.444C259.981 323.396 260.255 323.21 260.426 322.886C260.606 322.561 260.646 322.002 260.546 321.208C260.446 320.414 260.268 319.882 260.012 319.612C259.766 319.341 259.454 319.229 259.077 319.277C258.71 319.323 258.437 319.509 258.256 319.834C258.075 320.159 258.035 320.719 258.135 321.512C258.236 322.306 258.414 322.838 258.669 323.108C258.925 323.378 259.237 323.49 259.604 323.444ZM261.343 319.973L261.062 319.903C261.158 319.548 261.358 319.22 261.663 318.92C261.968 318.619 262.304 318.446 262.671 318.399C262.929 318.367 263.147 318.415 263.324 318.544C263.5 318.663 263.607 318.866 263.643 319.153C263.682 319.461 263.625 319.69 263.473 319.84C263.329 319.979 263.173 320.06 263.004 320.081C262.855 320.1 262.71 320.068 262.569 319.985C262.426 319.892 262.33 319.733 262.282 319.507C262.233 319.281 262.265 318.98 262.379 318.603L262.578 318.623C262.181 318.834 261.905 319.04 261.749 319.242C261.592 319.433 261.456 319.677 261.343 319.973Z" fill="white"/>
<path d="M336.245 154.935C337.474 153.504 339.785 153.897 340.471 155.654L343.853 164.309C344.516 166.006 346.369 166.911 348.115 166.389L357.019 163.729C358.826 163.189 360.557 164.769 360.185 166.618L358.35 175.728C357.99 177.514 359.061 179.277 360.811 179.782L369.74 182.358C371.552 182.881 372.155 185.146 370.842 186.501L364.373 193.172C363.105 194.48 363.052 196.542 364.251 197.913L370.37 204.908C371.612 206.327 370.894 208.559 369.057 208.988L360.008 211.103C358.234 211.518 357.075 213.224 357.343 215.026L358.709 224.218C358.986 226.084 357.176 227.573 355.399 226.941L346.642 223.828C344.926 223.218 343.029 224.026 342.28 225.687L338.459 234.158C337.684 235.878 335.356 236.152 334.202 234.659L328.519 227.307C327.405 225.866 325.371 225.52 323.844 226.512L316.05 231.573C314.468 232.6 312.361 231.572 312.198 229.693L311.391 220.435C311.233 218.62 309.71 217.23 307.888 217.239L298.595 217.282C296.709 217.291 295.493 215.288 296.371 213.618L300.698 205.394C301.547 203.782 301.016 201.789 299.479 200.811L291.638 195.824C290.046 194.812 290.106 192.469 291.748 191.539L299.834 186.96C301.419 186.062 302.051 184.099 301.286 182.446L297.386 174.011C296.595 172.299 297.912 170.36 299.795 170.465L309.074 170.985C310.892 171.087 312.485 169.777 312.736 167.972L314.015 158.768C314.275 156.899 316.431 155.981 317.959 157.088L325.483 162.541C326.958 163.61 329.006 163.369 330.193 161.987L336.245 154.935Z" fill="white" stroke="#F0572F"/>
<path d="M340.447 198.966L340.328 199.45C339.776 199.332 339.341 199.294 339.023 199.336C338.725 199.366 338.492 199.514 338.324 199.781C338.16 200.031 338.005 200.455 337.86 201.052L335.517 210.634C335.375 211.215 335.316 211.662 335.342 211.976C335.368 212.29 335.506 212.529 335.757 212.693C336.027 212.845 336.437 212.987 336.985 213.122L338.51 213.494C339.22 213.668 339.866 213.681 340.449 213.533C341.049 213.389 341.585 213.049 342.057 212.515C342.534 211.965 342.942 211.167 343.283 210.123L343.84 210.259C343.669 210.747 343.483 211.402 343.282 212.225C343.215 212.499 343.125 212.905 343.011 213.441C342.913 213.981 342.827 214.541 342.753 215.122C341.971 214.896 341.088 214.663 340.104 214.422C339.124 214.166 338.246 213.943 337.472 213.753C337.004 213.639 336.383 213.487 335.609 213.298C334.835 213.108 334.01 212.915 333.135 212.719C332.28 212.509 331.461 212.326 330.679 212.169L330.797 211.685C331.354 211.787 331.781 211.823 332.079 211.794C332.393 211.768 332.634 211.622 332.802 211.355C332.969 211.088 333.124 210.664 333.266 210.084L335.609 200.502C335.755 199.905 335.813 199.457 335.783 199.16C335.758 198.845 335.611 198.605 335.345 198.437C335.098 198.257 334.703 198.092 334.158 197.941L334.276 197.458C334.611 197.556 335.051 197.681 335.595 197.831C336.14 197.982 336.727 198.134 337.356 198.287C337.92 198.425 338.479 198.553 339.031 198.671C339.6 198.793 340.072 198.892 340.447 198.966Z" fill="#F0572F"/>
<path d="M335.151 197.671L335.032 198.155C334.48 198.037 334.045 197.999 333.727 198.041C333.429 198.071 333.196 198.219 333.028 198.486C332.864 198.736 332.71 199.16 332.564 199.757L330.221 209.339C330.079 209.92 330.021 210.367 330.046 210.681C330.072 210.995 330.21 211.234 330.461 211.398C330.728 211.566 331.131 211.733 331.672 211.899L331.553 212.383C331.19 212.26 330.726 212.13 330.162 211.992C329.617 211.841 329.063 211.697 328.498 211.559C327.869 211.405 327.278 211.269 326.726 211.151C326.177 211.017 325.73 210.925 325.383 210.874L325.502 210.39C326.058 210.492 326.485 210.528 326.783 210.499C327.097 210.473 327.338 210.327 327.506 210.06C327.673 209.793 327.828 209.369 327.97 208.789L330.313 199.207C330.459 198.61 330.517 198.162 330.488 197.865C330.462 197.551 330.316 197.31 330.049 197.142C329.802 196.962 329.407 196.797 328.862 196.647L328.98 196.163C329.315 196.262 329.755 196.386 330.299 196.536C330.844 196.687 331.431 196.839 332.06 196.993C332.625 197.131 333.183 197.259 333.735 197.377C334.304 197.498 334.776 197.597 335.151 197.671Z" fill="#F0572F"/>
<path d="M322.46 194.209C323.944 194.572 325.169 195.188 326.136 196.057C327.107 196.91 327.761 197.976 328.098 199.255C328.455 200.522 328.437 201.962 328.042 203.575C327.659 205.14 327.002 206.432 326.068 207.452C325.151 208.475 324.047 209.18 322.756 209.565C321.486 209.938 320.124 209.947 318.672 209.592C317.188 209.23 315.961 208.622 314.99 207.769C314.023 206.9 313.362 205.824 313.009 204.541C312.673 203.262 312.699 201.824 313.09 200.227C313.472 198.662 314.122 197.368 315.039 196.344C315.973 195.324 317.075 194.628 318.345 194.254C319.636 193.869 321.008 193.854 322.46 194.209ZM322.256 194.621C321.256 194.376 320.308 194.478 319.412 194.926C318.52 195.357 317.739 196.072 317.067 197.07C316.396 198.069 315.884 199.286 315.533 200.721C315.174 202.189 315.089 203.519 315.276 204.71C315.479 205.905 315.895 206.896 316.524 207.682C317.156 208.452 317.94 208.952 318.876 209.181C319.876 209.425 320.822 209.332 321.714 208.9C322.61 208.452 323.393 207.729 324.065 206.731C324.74 205.717 325.252 204.5 325.599 203.08C325.962 201.596 326.039 200.264 325.832 199.085C325.644 197.894 325.235 196.913 324.602 196.143C323.99 195.361 323.208 194.854 322.256 194.621Z" fill="#F0572F"/>
<path d="M341.636 178.439C343.12 178.801 344.346 179.417 345.313 180.286C346.284 181.139 346.938 182.205 347.275 183.484C347.632 184.751 347.613 186.191 347.219 187.804C346.836 189.369 346.178 190.661 345.245 191.681C344.328 192.705 343.224 193.409 341.933 193.795C340.662 194.168 339.301 194.177 337.849 193.822C336.365 193.459 335.138 192.851 334.166 191.998C333.199 191.129 332.539 190.053 332.186 188.77C331.849 187.491 331.876 186.053 332.267 184.456C332.649 182.891 333.299 181.597 334.216 180.573C335.149 179.553 336.251 178.857 337.522 178.484C338.813 178.099 340.184 178.084 341.636 178.439ZM341.433 178.85C340.433 178.606 339.485 178.707 338.589 179.155C337.697 179.587 336.915 180.302 336.244 181.3C335.572 182.298 335.061 183.515 334.71 184.951C334.351 186.419 334.265 187.748 334.453 188.94C334.656 190.135 335.072 191.126 335.701 191.912C336.333 192.682 337.117 193.181 338.052 193.41C339.053 193.655 339.999 193.561 340.891 193.13C341.786 192.682 342.57 191.959 343.242 190.961C343.917 189.946 344.428 188.729 344.775 187.31C345.138 185.825 345.216 184.494 345.009 183.315C344.821 182.124 344.411 181.143 343.779 180.373C343.167 179.591 342.385 179.083 341.433 178.85Z" fill="#F0572F"/>
<path d="M335.169 177.216L335.051 177.7C334.498 177.582 334.059 177.56 333.733 177.635C333.423 177.713 333.181 177.901 333.005 178.2C332.829 178.499 332.669 178.947 332.523 179.544L329.582 191.57C329.485 191.546 329.388 191.523 329.292 191.499C329.211 191.479 329.122 191.458 329.026 191.434L322.624 175.662L320.063 186.139C319.921 186.72 319.857 187.192 319.871 187.554C319.905 187.904 320.057 188.19 320.328 188.41C320.619 188.618 321.075 188.815 321.697 189.001L321.578 189.485C321.296 189.381 320.921 189.273 320.453 189.158C319.989 189.028 319.547 188.911 319.128 188.809C318.725 188.71 318.311 188.617 317.888 188.531C317.485 188.432 317.142 188.366 316.86 188.331L316.978 187.847C317.534 187.949 317.966 187.969 318.271 187.907C318.597 187.833 318.848 187.646 319.024 187.347C319.203 187.032 319.364 186.584 319.506 186.003L321.79 176.663C321.936 176.066 321.994 175.619 321.964 175.321C321.938 175.007 321.792 174.766 321.525 174.598C321.279 174.418 320.883 174.253 320.339 174.103L320.457 173.619C320.727 173.702 321.062 173.801 321.461 173.916C321.877 174.035 322.286 174.143 322.69 174.242C323.093 174.341 323.49 174.429 323.881 174.508C324.272 174.586 324.623 174.655 324.933 174.714L330.025 187.345L331.966 179.408C332.112 178.811 332.168 178.338 332.134 177.987C332.116 177.641 331.963 177.356 331.676 177.132C331.405 176.912 330.957 176.717 330.332 176.547L330.45 176.063C330.737 176.15 331.112 176.259 331.576 176.389C332.056 176.524 332.497 176.64 332.901 176.739C333.32 176.841 333.734 176.934 334.141 177.016C334.564 177.103 334.907 177.169 335.169 177.216Z" fill="#F0572F"/>
</svg>
