<svg width="409" height="425" viewBox="0 0 409 425" fill="none" xmlns="http://www.w3.org/2000/svg">
<path fill-rule="evenodd" clip-rule="evenodd" d="M148.144 405.298L137.202 379.224L133.442 368.747L145.228 406.403L105.5 396.817L82.2259 376.216L76.2386 267.581C76.2386 267.581 84.7448 271.947 89.8116 272.202C94.8783 272.457 102.187 268.886 102.187 268.886L105.31 278.865L101.882 266.073C101.882 266.073 118.248 248.726 132.039 243.834C149.379 237.683 179.126 245.375 179.126 245.375C198.924 230.561 190.327 213.368 190.327 213.368C190.327 213.368 219.344 193.727 226.483 195.769C233.623 197.811 261.783 182.355 268.943 167.252C271.348 162.179 272.068 157.904 272.783 153.654C274.197 145.25 275.595 136.939 289.973 122.723C310.089 102.833 312.422 103.84 317.392 105.985C317.771 106.149 318.165 106.319 318.584 106.487C323.311 108.385 331.003 110.191 334.258 110.857C337.512 111.523 340.167 113.229 340.167 113.229L384.5 278.682L398.364 313.202L148.144 405.298Z" fill="#F0572F"/>
<path d="M47.9595 77.2247L317.88 0.503075L331.137 54.934L62.836 132.744L47.9595 77.2247Z" fill="#3A001E"/>
<path fill-rule="evenodd" clip-rule="evenodd" d="M54.0637 80.6873L66.3447 126.52L325.146 51.4651L314.251 6.73222L54.0637 80.6873ZM47.9594 77.2243L62.8359 132.744L331.137 54.9336L317.88 0.503075L47.9594 77.2243Z" fill="white"/>
<path fill-rule="evenodd" clip-rule="evenodd" d="M378.209 247.29L329.903 50.3266L61.8425 129.035L107.91 300.962L144.518 410.918L400.75 314.731L378.209 247.29ZM394.48 311.744L373.402 248.681L326.293 56.5977L67.9358 132.457L112.701 299.524L147.622 404.412L394.48 311.744Z" fill="white"/>
<path d="M294.024 37.2538L293.995 36.5122L301.186 34.4227L301.249 35.1543L294.024 37.2538ZM304.832 28.2645C304.564 26.5679 304.193 25.2889 303.717 24.4273C303.235 23.5426 302.615 22.9982 301.856 22.7939C301.09 22.5666 300.142 22.617 299.013 22.9452L298.218 23.1762C297.503 23.3838 296.97 23.6137 296.619 23.8658C296.26 24.0949 296.015 24.4537 295.882 24.9422C295.765 25.401 295.727 26.0869 295.767 26.9999L296.187 45.4726C296.198 46.3693 296.298 47.015 296.487 47.4097C296.677 47.8045 297.023 48.004 297.524 48.0083C298.048 48.006 298.789 47.8906 299.747 47.6621L299.81 48.3937C299.082 48.5552 298.154 48.8 297.024 49.1282C295.911 49.4266 294.779 49.7432 293.626 50.0781C292.474 50.413 291.406 50.7359 290.421 51.0469C289.43 51.3349 288.63 51.5924 288.022 51.8193L287.994 51.0776C288.764 50.8038 289.348 50.5342 289.745 50.2687C290.143 50.0031 290.397 49.6295 290.507 49.1476C290.64 48.6591 290.701 47.9666 290.69 47.0699L290.271 28.5972C290.253 27.6775 290.165 27.0284 290.005 26.65C289.838 26.2486 289.55 26.0323 289.142 26.0012C288.749 25.9403 288.158 26.0122 287.367 26.2169L287.339 25.4752C288.291 25.2237 289.3 24.9554 290.367 24.6704C291.427 24.3623 292.479 24.0691 293.523 23.7908C294.56 23.4894 295.516 23.2115 296.392 22.957C297.291 22.6958 298.028 22.4815 298.605 22.314C299.642 22.0127 300.806 21.6745 302.096 21.2994C303.403 20.8946 304.568 20.5185 305.592 20.171C305.534 21.0878 305.498 21.9105 305.485 22.6391C305.471 23.3677 305.466 24.0815 305.469 24.7804C305.482 25.4264 305.493 26.0231 305.502 26.5703C305.534 27.1108 305.576 27.5985 305.628 28.0335L304.832 28.2645ZM297.556 35.4775C298.178 35.2967 298.698 35.0207 299.115 34.6496C299.532 34.2785 299.868 33.8435 300.123 33.3445C300.394 32.8158 300.598 32.2693 300.734 31.705C300.886 31.1109 301.004 30.5268 301.087 29.9528L301.847 29.7318C301.81 30.8924 301.804 31.8188 301.83 32.511C301.85 33.1801 301.864 33.8757 301.874 34.5976C301.93 35.3061 301.976 36.0675 302.013 36.8816C302.073 37.689 302.165 38.7369 302.289 40.0254L301.529 40.2464C301.344 39.5252 301.134 38.8866 300.897 38.3306C300.684 37.7678 300.413 37.3091 300.085 36.9546C299.773 36.5702 299.4 36.3164 298.964 36.1931C298.528 36.0698 297.999 36.0986 297.377 36.2794L297.556 35.4775Z" fill="white"/>
<path d="M273.699 43.1596L273.671 42.418L280.862 40.3284L280.924 41.06L273.699 43.1596ZM284.508 34.1703C284.24 32.4737 283.868 31.1946 283.393 30.333C282.911 29.4484 282.291 28.9039 281.531 28.6997C280.766 28.4723 279.818 28.5228 278.689 28.8509L277.894 29.082C277.179 29.2896 276.646 29.5195 276.294 29.7716C275.936 30.0007 275.691 30.3595 275.558 30.848C275.441 31.3068 275.403 31.9926 275.443 32.9056L275.863 51.3784C275.873 52.275 275.974 52.9207 276.163 53.3155C276.353 53.7102 276.698 53.9098 277.199 53.9141C277.724 53.9117 278.465 53.7963 279.423 53.5678L279.486 54.2994C278.758 54.4609 277.829 54.7058 276.7 55.0339C275.587 55.3324 274.455 55.649 273.302 55.9839C272.15 56.3187 271.082 56.6417 270.097 56.9527C269.106 57.2407 268.306 57.4981 267.697 57.725L267.669 56.9834C268.44 56.7096 269.023 56.4399 269.421 56.1744C269.819 55.9089 270.073 55.5352 270.183 55.0534C270.316 54.5649 270.377 53.8723 270.366 52.9757L269.947 34.5029C269.929 33.5832 269.841 32.9342 269.681 32.5558C269.514 32.1543 269.226 31.9381 268.817 31.9069C268.425 31.8461 267.833 31.918 267.043 32.1226L267.015 31.381C267.967 31.1295 268.976 30.8612 270.043 30.5761C271.103 30.2681 272.155 29.9749 273.199 29.6965C274.236 29.3952 275.192 29.1172 276.068 28.8627C276.967 28.6015 277.704 28.3872 278.28 28.2198C279.317 27.9184 280.481 27.5802 281.772 27.2052C283.079 26.8004 284.244 26.4243 285.268 26.0768C285.209 26.9935 285.174 27.8162 285.16 28.5449C285.147 29.2735 285.142 29.9872 285.145 30.6861C285.158 31.3322 285.169 31.9289 285.178 32.4761C285.21 33.0166 285.252 33.5043 285.303 33.9392L284.508 34.1703ZM277.232 41.3833C277.854 41.2024 278.374 40.9265 278.791 40.5554C279.208 40.1843 279.544 39.7492 279.799 39.2503C280.07 38.7216 280.274 38.1751 280.409 37.6107C280.562 37.0166 280.679 36.4326 280.763 35.8586L281.523 35.6376C281.485 36.7982 281.48 37.7246 281.506 38.4168C281.525 39.0859 281.54 39.7814 281.55 40.5034C281.606 41.2119 281.652 41.9732 281.689 42.7873C281.749 43.5948 281.841 44.6427 281.965 45.9311L281.205 46.1522C281.02 45.431 280.809 44.7924 280.573 44.2363C280.359 43.6735 280.089 43.2149 279.761 42.8603C279.449 42.476 279.075 42.2222 278.64 42.0989C278.204 41.9756 277.675 42.0043 277.053 42.1852L277.232 41.3833Z" fill="white"/>
<path d="M261.944 39.003C261.922 37.635 261.813 36.6168 261.619 35.9484C261.441 35.2503 261.101 34.8118 260.599 34.6327C260.121 34.447 259.395 34.4453 258.424 34.6277L258.396 33.886C258.84 33.7818 259.411 33.6408 260.11 33.4629C260.831 33.2784 261.502 33.0957 262.125 32.9149C262.678 32.7541 263.228 32.5819 263.774 32.3981C264.32 32.2143 264.775 32.0573 265.137 31.9271L265.165 32.6687C264.431 32.9819 263.877 33.3553 263.503 33.7889C263.146 34.1927 262.908 34.7492 262.789 35.4586C262.693 36.1612 262.66 37.1207 262.688 38.337L262.999 48.1812C263.094 51.6027 262.675 54.3738 261.741 56.4945C261.193 57.7035 260.384 58.7885 259.313 59.7494C258.259 60.6805 257.018 61.3537 255.589 61.7689C253.86 62.2712 252.373 62.4411 251.126 62.2785C249.879 62.116 248.855 61.6888 248.054 60.9968C247.171 60.2788 246.551 59.3091 246.196 58.0876C245.864 56.8594 245.679 55.2762 245.641 53.3379L245.356 41.6492C245.339 40.7295 245.25 40.0804 245.09 39.702C244.923 39.3006 244.635 39.0843 244.227 39.0532C243.834 38.9923 243.243 39.0642 242.452 39.2688L242.459 38.5172C243.042 38.3728 243.855 38.1614 244.899 37.8831C245.943 37.6048 247.041 37.2982 248.193 36.9633C249.207 36.6686 250.172 36.3758 251.087 36.0849C252.002 35.794 252.813 35.5332 253.521 35.3025L253.515 36.0542C252.738 36.3049 252.154 36.5746 251.763 36.8632C251.365 37.1287 251.1 37.5057 250.967 37.9942C250.85 38.453 250.801 39.1422 250.818 40.0619L251.101 52.3886C251.147 53.9246 251.259 55.2544 251.435 56.3777C251.605 57.4781 251.889 58.3702 252.288 59.0541C252.68 59.715 253.172 60.1594 253.763 60.3876C254.354 60.6157 255.064 60.6092 255.894 60.3681C257.622 59.8658 258.952 59.0669 259.884 57.9715C260.808 56.8531 261.442 55.5068 261.784 53.9328C262.127 52.3587 262.269 50.6553 262.211 48.8226L261.944 39.003Z" fill="white"/>
<path d="M240.03 33.5992C240.86 33.3581 241.579 33.4241 242.187 33.7972C242.812 34.1405 243.214 34.6233 243.395 35.2456C243.609 35.9831 243.578 36.692 243.301 37.3724C243.047 38.046 242.601 38.6629 241.964 39.2229C241.367 39.7465 240.61 40.2411 239.696 40.7067C238.775 41.1493 237.704 41.5481 236.482 41.9031C235.63 42.1509 234.698 42.3842 233.687 42.603C232.692 42.7921 231.659 42.9797 230.589 43.1659C229.541 43.3453 228.512 43.5445 227.501 43.7633C226.506 43.9524 225.582 44.1708 224.729 44.4186C223.946 44.6463 223.21 44.9101 222.523 45.2099C221.828 45.4867 221.319 45.7972 220.994 46.1415C221.64 46.1287 222.232 46.3189 222.772 46.7121C223.311 47.1052 223.681 47.6475 223.882 48.3389C224.109 49.1225 224.053 49.8761 223.714 50.5996C223.397 51.3164 222.836 51.792 222.029 52.0264C221.222 52.2608 220.523 52.1766 219.931 51.7737C219.356 51.3412 218.961 50.7561 218.746 50.0187C218.586 49.4655 218.565 48.8343 218.683 48.125C218.819 47.3859 219.264 46.6817 220.019 46.0124C220.492 45.5751 221.011 45.2118 221.577 44.9224C222.142 44.633 222.687 44.3998 223.21 44.2227C223.734 44.0457 224.134 43.9169 224.41 43.8366C225.839 43.4213 227.254 43.0853 228.654 42.8284C230.047 42.5485 231.409 42.2902 232.74 42.0534C234.087 41.7869 235.371 41.4762 236.593 41.1213C237.491 40.8601 238.227 40.5963 238.799 40.33C239.395 40.057 239.919 39.7546 240.373 39.4229L240.384 39.7196C239.958 39.5435 239.521 39.2454 239.074 38.8255C238.628 38.4055 238.31 37.8729 238.123 37.2276C237.882 36.3979 237.926 35.6477 238.256 34.977C238.609 34.2996 239.2 33.8403 240.03 33.5992ZM228.937 43.1585C228.937 43.1585 229.116 43.1313 229.476 43.0769C229.851 42.9928 230.31 42.8968 230.854 42.7889C231.397 42.6809 231.941 42.573 232.484 42.465C233.028 42.3571 233.491 42.2726 233.873 42.2115C234.248 42.1274 234.436 42.0854 234.436 42.0854L234.901 62.9068C234.934 63.7967 235.044 64.477 235.231 64.9476C235.434 65.3884 235.785 65.6489 236.283 65.7291C236.798 65.7795 237.522 65.6939 238.458 65.4721L238.52 66.2037C237.793 66.3652 236.852 66.6134 235.7 66.9482C234.541 67.26 233.339 67.5968 232.095 67.9584C230.896 68.3067 229.747 68.6531 228.648 68.9976C227.565 69.3123 226.696 69.5899 226.041 69.8302L225.978 69.0986C226.933 68.7712 227.66 68.435 228.159 68.0899C228.675 67.715 229.016 67.2536 229.181 66.7056C229.363 66.1279 229.438 65.394 229.404 64.5041L228.937 43.1585Z" fill="white"/>
<path d="M215.611 46.056C215.555 46.7222 215.498 47.6884 215.441 48.9546C215.378 50.1977 215.438 51.7799 215.621 53.701L214.93 53.9019C214.905 53.5592 214.854 53.2116 214.777 52.8592C214.722 52.5001 214.655 52.1823 214.574 51.9057C214.313 51.0069 213.89 50.2802 213.304 49.7257C212.734 49.1415 212.027 48.7722 211.182 48.6177C210.354 48.4336 209.398 48.4988 208.315 48.8136C207.163 49.1485 206.259 49.7361 205.603 50.5764C204.964 51.3869 204.839 52.4606 205.227 53.7973C205.461 54.6039 205.885 55.3306 206.498 55.9773C207.104 56.6009 207.81 57.1829 208.617 57.7232C209.447 58.2568 210.315 58.7919 211.221 59.3285C212.12 59.842 212.991 60.3886 213.834 60.9684C214.671 61.525 215.405 62.1613 216.038 62.8771C216.671 63.5929 217.125 64.4233 217.399 65.3682C217.761 66.6127 217.758 67.7633 217.39 68.8199C217.046 69.8698 216.47 70.8119 215.662 71.6463C214.855 72.4807 213.935 73.1854 212.903 73.7604C211.87 74.3354 210.858 74.7669 209.867 75.0548C208.784 75.3696 207.865 75.5617 207.111 75.631C206.379 75.6936 205.726 75.6834 205.152 75.6003C204.571 75.4941 203.996 75.3615 203.425 75.2026C203.124 75.1149 202.857 75.0551 202.623 75.0232C202.388 74.9913 202.202 74.9954 202.064 75.0356C201.764 75.1227 201.563 75.3313 201.458 75.6614C201.354 75.9915 201.253 76.5458 201.154 77.3243L200.463 77.5252C200.523 76.9579 200.571 76.3066 200.608 75.5713C200.644 74.836 200.65 73.9096 200.625 72.7921C200.593 71.6516 200.519 70.236 200.403 68.5453L201.094 68.3444C201.093 68.7697 201.131 69.2459 201.209 69.773C201.304 70.2704 201.426 70.7347 201.577 71.1658C202.121 72.7821 202.993 73.8908 204.193 74.492C205.409 75.0634 206.904 75.0913 208.678 74.5756C210.245 74.1202 211.281 73.4694 211.785 72.6231C212.312 71.7702 212.411 70.7791 212.083 69.6498C211.802 68.6819 211.36 67.8482 210.756 67.1487C210.176 66.4425 209.494 65.8159 208.711 65.2689C207.95 64.7152 207.161 64.1946 206.345 63.707C205.522 63.1965 204.718 62.6677 203.934 62.1207C203.174 61.5669 202.5 60.9255 201.913 60.1963C201.326 59.467 200.892 58.6184 200.611 57.6505C200.269 56.4751 200.228 55.3874 200.487 54.3873C200.74 53.3642 201.209 52.4407 201.894 51.6167C202.579 50.7927 203.377 50.0985 204.288 49.534C205.199 48.9694 206.138 48.5465 207.106 48.2652C208.466 47.8701 209.622 47.7215 210.575 47.8194C211.522 47.8942 212.333 48.0208 213.01 48.1991C213.258 48.2771 213.502 48.3435 213.743 48.3985C214.007 48.4468 214.196 48.4542 214.312 48.4207C214.634 48.3269 214.837 47.6057 214.92 46.2569L215.611 46.056Z" fill="white"/>
<path d="M187.303 63.5051C187.738 65.0031 187.961 66.5878 187.972 68.2592C187.983 69.9306 187.728 71.5916 187.208 73.2423C186.711 74.8863 185.943 76.4589 184.905 77.9603C183.883 79.4319 182.544 80.7583 180.888 81.9394C179.248 83.0907 177.276 84.0012 174.971 84.671C174.602 84.7781 174.15 84.8972 173.613 85.0282C173.099 85.1525 172.52 85.3084 171.874 85.4959C171.222 85.6604 170.505 85.8565 169.721 86.0842C169.191 86.2382 168.595 86.4239 167.933 86.6411C167.288 86.8287 166.658 87.0244 166.042 87.2282C165.443 87.4023 164.951 87.5579 164.566 87.6948L164.468 86.9732C165.192 86.7128 165.742 86.4532 166.116 86.1944C166.514 85.9288 166.78 85.5518 166.912 85.0633C167.045 84.5748 167.095 83.8856 167.061 82.9956L166.607 64.5329C166.598 63.811 166.521 63.246 166.377 62.8378C166.25 62.3999 165.983 62.1275 165.577 62.0206C165.194 61.9069 164.581 61.9476 163.738 62.1426L163.641 61.421C164.063 61.3235 164.599 61.1925 165.251 61.0281C165.903 60.8636 166.587 60.6775 167.301 60.4699C168.039 60.2556 168.719 60.0581 169.341 59.8772C169.749 59.7336 170.276 59.5681 170.921 59.3806C171.56 59.17 172.201 58.9709 172.847 58.7834C173.485 58.5728 174.024 58.4039 174.462 58.2767C177.803 57.3056 180.574 57.2503 182.773 58.1107C184.996 58.9644 186.506 60.7625 187.303 63.5051ZM174.79 84.0487C176.265 83.6201 177.508 82.909 178.519 81.9154C179.553 80.9152 180.37 79.728 180.971 78.3539C181.564 76.9567 181.965 75.4532 182.172 73.8435C182.379 72.2338 182.416 70.5985 182.283 68.9376C182.144 67.2536 181.843 65.6165 181.381 64.0263C180.765 61.906 179.858 60.42 178.661 59.5682C177.457 58.6934 175.864 58.544 173.882 59.12C173.306 59.2874 172.891 59.4953 172.638 59.7437C172.379 59.969 172.217 60.3159 172.154 60.7843C172.09 61.2528 172.067 61.9468 172.084 62.8665L172.578 81.4675C172.608 82.2586 172.664 82.8797 172.745 83.331C172.826 83.7823 173.009 84.0666 173.293 84.184C173.6 84.2947 174.099 84.2496 174.79 84.0487Z" fill="white"/>
<path d="M148.542 79.3797L148.514 78.638L155.359 76.649L155.387 77.3906L148.542 79.3797ZM151.971 77.6335C152.616 77.4459 153.156 77.1517 153.589 76.7509C154.022 76.35 154.363 75.8886 154.611 75.3666C154.882 74.8379 155.086 74.2914 155.222 73.7271C155.358 73.1627 155.451 72.6233 155.501 72.1088L156.297 71.8777C156.236 73.045 156.219 73.9748 156.245 74.667C156.264 75.3361 156.291 76.0283 156.323 76.7435C156.329 77.1918 156.342 77.6253 156.364 78.0439C156.386 78.4625 156.412 78.942 156.445 79.4825C156.493 79.9933 156.554 80.6754 156.627 81.5289L155.866 81.7499C155.755 81.2823 155.607 80.8132 155.42 80.3426C155.256 79.8653 155.022 79.4461 154.717 79.0848C154.412 78.7235 154.015 78.4764 153.527 78.3435C153.061 78.2038 152.483 78.2344 151.792 78.4354L151.971 77.6335ZM159.608 69.3408C159.305 67.9543 158.936 66.8994 158.501 66.1761C158.059 65.4297 157.492 64.9823 156.799 64.8337C156.122 64.6555 155.265 64.717 154.228 65.0184L153.157 65.3298C152.396 65.5508 151.817 65.7941 151.419 66.0596C151.038 66.2954 150.781 66.6575 150.648 67.1461C150.531 67.6048 150.482 68.2941 150.499 69.2137L150.918 87.6865C150.929 88.5831 151.006 89.2355 151.15 89.6437C151.316 90.0451 151.593 90.2648 151.979 90.3026C152.381 90.3107 152.962 90.2042 153.723 89.9832L155.002 89.6115C156.246 89.2498 157.238 88.7492 157.977 88.1096C158.716 87.47 159.292 86.6153 159.706 85.5453C160.136 84.4455 160.464 83.038 160.691 81.3227L161.486 81.0917C161.458 81.4248 161.438 81.8303 161.427 82.3084C161.416 82.7865 161.423 83.2842 161.449 83.8017C161.461 84.2731 161.495 84.9504 161.552 85.8337C161.602 86.6939 161.696 87.5786 161.836 88.4879C160.647 88.7833 159.327 89.142 157.875 89.5639C156.416 89.9628 155.11 90.3297 153.958 90.6645C153.382 90.832 152.644 91.0463 151.746 91.3075C150.87 91.562 149.917 91.8514 148.886 92.1758C147.849 92.4772 146.804 92.7935 145.751 93.1246C144.69 93.4327 143.691 93.7355 142.753 94.0331L142.725 93.2915C143.495 93.0177 144.079 92.7481 144.477 92.4825C144.875 92.217 145.128 91.8433 145.238 91.3615C145.371 90.873 145.432 90.1804 145.422 89.2838L145.002 70.811C144.985 69.8913 144.896 69.2423 144.736 68.8639C144.57 68.4624 144.282 68.2462 143.873 68.215C143.48 68.1542 142.889 68.2261 142.099 68.4307L142.071 67.6891C143.022 67.4376 144.031 67.1693 145.098 66.8842C146.158 66.5762 147.21 66.283 148.254 66.0046C149.291 65.7033 150.248 65.4253 151.124 65.1708C152.022 64.9097 152.76 64.6953 153.336 64.5279C154.373 64.2265 155.537 63.8883 156.828 63.5133C158.135 63.1085 159.3 62.7324 160.324 62.3849C160.258 63.2786 160.216 64.0782 160.196 64.7838C160.176 65.4894 160.176 66.1768 160.195 66.8459C160.224 67.2875 160.245 67.7061 160.26 68.1016C160.298 68.4905 160.334 68.8299 160.369 69.1198L159.608 69.3408Z" fill="white"/>
<path d="M137.449 91.6011C137.483 92.4911 137.571 93.1401 137.715 93.5483C137.858 93.9564 138.135 94.176 138.544 94.2072C138.952 94.2383 139.555 94.163 140.352 93.9814L140.415 94.713C139.733 94.8611 138.874 95.0859 137.837 95.3873C136.816 95.6589 135.787 95.9454 134.75 96.2468C133.644 96.5682 132.61 96.8811 131.649 97.1855C130.704 97.46 129.938 97.7075 129.353 97.9277L129.325 97.186C130.072 96.9189 130.633 96.656 131.007 96.3971C131.405 96.1316 131.67 95.7546 131.803 95.2661C131.936 94.7776 131.986 94.0884 131.952 93.1984L131.533 74.7257C131.515 73.806 131.427 73.1569 131.267 72.7785C131.1 72.3771 130.812 72.1608 130.403 72.1297C130.011 72.0688 129.419 72.1407 128.629 72.3453L128.601 71.6037C129.161 71.466 129.928 71.2681 130.903 71.0098C131.877 70.7516 132.929 70.4584 134.059 70.1302C135.096 69.8289 136.107 69.5227 137.091 69.2116C138.098 68.8939 138.967 68.6164 139.698 68.379L139.726 69.1206C138.949 69.3714 138.365 69.6411 137.974 69.9296C137.577 70.1952 137.311 70.5722 137.178 71.0607C137.062 71.5194 137.012 72.2087 137.029 73.1284L137.449 91.6011Z" fill="white"/>
<path d="M112.167 89.6126C112.849 89.4645 113.416 89.3499 113.867 89.2687C114.335 89.1578 114.736 89.0785 115.072 89.0309C115.425 88.9534 115.766 88.8794 116.095 88.8087C117.096 88.6426 118.035 88.5197 118.912 88.4399C119.812 88.3535 120.6 88.3994 121.276 88.5776C121.969 88.7262 122.538 89.0483 122.982 89.5441C123.426 90.0399 123.724 90.7655 123.877 91.7208L124.428 95.4222C124.573 96.1798 124.79 96.7541 125.078 97.1451C125.367 97.5361 125.741 97.6646 126.202 97.5307C126.663 97.3967 126.995 97.0755 127.197 96.5669C127.415 96.0285 127.546 95.3158 127.588 94.4288L127.62 93.8946L128.415 93.6636L128.408 94.1532C128.408 95.7026 128.082 96.9469 127.43 97.8861C126.802 98.8186 125.773 99.4925 124.344 99.9077C122.754 100.37 121.502 100.321 120.59 99.7614C119.701 99.1951 119.169 98.3124 118.996 97.1131L118.369 93.0215C118.21 92.0431 117.947 91.2695 117.582 90.7009C117.21 90.1091 116.609 89.7591 115.777 89.6508C114.946 89.5424 113.77 89.7093 112.249 90.1513L112.167 89.6126ZM111.765 90.2919L111.757 89.6194L112.898 89.2879C114.027 88.9597 115.017 88.497 115.868 87.8998C116.713 87.2795 117.384 86.5347 117.881 85.6655C118.378 84.7962 118.67 83.824 118.758 82.7489C118.868 81.6671 118.743 80.5039 118.381 79.2594C118.019 78.0149 117.49 77.1816 116.792 76.7594C116.088 76.3143 115.194 76.2491 114.111 76.5638C113.443 76.758 112.983 77.0667 112.731 77.4898C112.495 77.8832 112.381 78.5661 112.389 79.5386L112.871 98.7429C112.888 99.4879 112.937 100.086 113.018 100.537C113.115 100.959 113.367 101.223 113.773 101.33C114.172 101.414 114.828 101.348 115.74 101.133L115.803 101.865C115.098 102.02 114.273 102.234 113.328 102.509C112.4 102.754 111.417 103.027 110.38 103.328C109.273 103.65 108.205 103.973 107.175 104.297C106.138 104.599 105.326 104.859 104.74 105.08L104.678 104.348C105.448 104.074 106.032 103.804 106.43 103.539C106.827 103.273 107.093 102.896 107.226 102.408C107.359 101.919 107.408 101.23 107.374 100.34L106.92 81.8775C106.92 81.1028 106.86 80.508 106.739 80.0932C106.619 79.6783 106.356 79.4174 105.95 79.3105C105.567 79.1968 104.934 79.2557 104.051 79.4872L104.023 78.7455C104.445 78.648 104.959 78.5237 105.565 78.3727C106.164 78.1985 106.789 78.0292 107.441 77.8647C108.11 77.6705 108.72 77.4931 109.274 77.3323C110.334 77.0242 111.264 76.7415 112.064 76.484C112.887 76.2199 113.678 75.9773 114.439 75.7563C117.251 74.9392 119.439 74.7283 121.003 75.1234C122.591 75.5119 123.622 76.5243 124.098 78.1606C124.56 79.7508 124.397 81.2977 123.609 82.8012C122.838 84.275 121.558 85.6341 119.77 86.8784C117.976 88.0996 115.765 89.092 113.138 89.8555L111.765 90.2919Z" fill="white"/>
<path d="M100.945 88.6003C101.381 90.0983 101.604 91.683 101.614 93.3544C101.625 95.0258 101.371 96.6868 100.851 98.3375C100.354 99.9815 99.586 101.554 98.5477 103.056C97.5258 104.527 96.1867 105.854 94.5305 107.035C92.8906 108.186 90.9184 109.096 88.6137 109.766C88.245 109.873 87.7922 109.992 87.2554 110.123C86.7417 110.248 86.1622 110.404 85.5169 110.591C84.8649 110.756 84.1471 110.952 83.3635 111.179C82.8334 111.333 82.2376 111.519 81.5759 111.736C80.9306 111.924 80.3002 112.12 79.6846 112.323C79.0854 112.498 78.5932 112.653 78.2081 112.79L78.1109 112.068C78.835 111.808 79.3844 111.548 79.7591 111.29C80.1568 111.024 80.4221 110.647 80.5551 110.159C80.688 109.67 80.7377 108.981 80.704 108.091L80.2499 89.6281C80.2401 88.9062 80.1634 88.3412 80.0198 87.933C79.8925 87.4952 79.6259 87.2227 79.2199 87.1158C78.837 87.0021 78.224 87.0428 77.3809 87.2378L77.2837 86.5163C77.7053 86.4187 78.242 86.2878 78.894 86.1233C79.546 85.9588 80.2293 85.7728 80.9437 85.5651C81.6812 85.3508 82.3611 85.1533 82.9833 84.9724C83.3915 84.8289 83.9182 84.6633 84.5635 84.4758C85.2021 84.2652 85.8441 84.0662 86.4894 83.8786C87.128 83.6681 87.6662 83.4992 88.1041 83.3719C91.4459 82.4008 94.2165 82.3455 96.416 83.2059C98.6385 84.0596 100.148 85.8577 100.945 88.6003ZM88.4329 109.144C89.9079 108.715 91.1508 108.004 92.1617 107.011C93.1957 106.01 94.0128 104.823 94.6132 103.449C95.2069 102.052 95.6073 100.548 95.8143 98.9387C96.0214 97.329 96.0585 95.6937 95.9257 94.0328C95.7863 92.3488 95.4855 90.7117 95.0234 89.1215C94.4073 87.0012 93.5006 85.5152 92.3033 84.6634C91.0994 83.7886 89.5064 83.6392 87.5244 84.2152C86.9482 84.3826 86.5338 84.5905 86.2811 84.8389C86.0216 85.0643 85.86 85.4111 85.7962 85.8795C85.7324 86.348 85.7091 87.042 85.7265 87.9617L86.2207 106.563C86.2506 107.354 86.3062 107.975 86.3873 108.426C86.4685 108.878 86.6511 109.162 86.9351 109.279C87.2422 109.39 87.7415 109.345 88.4329 109.144Z" fill="white"/>
<path fill-rule="evenodd" clip-rule="evenodd" d="M64.4364 129.24L69.427 128.933L84.6921 377.235L106.354 393.871L146.183 405.129L144.823 409.941L104.07 398.421L79.8412 379.813L64.4364 129.24Z" fill="white"/>
<path d="M254.699 274.746L267.702 323.273L164.882 350.823L151.88 302.296L254.699 274.746Z" fill="#3A001E"/>
<path d="M243.064 308.516C243.486 308.402 243.909 308.477 244.333 308.739C244.767 308.998 245.064 309.426 245.224 310.024C245.351 310.498 245.413 311.017 245.409 311.581C245.416 312.142 245.407 312.747 245.382 313.394C245.353 314.031 245.351 314.7 245.373 315.401C245.392 316.091 245.478 316.803 245.63 317.535L245.352 317.609C245.117 316.899 244.836 316.24 244.507 315.633C244.176 315.015 243.839 314.437 243.496 313.899C243.151 313.351 242.835 312.834 242.55 312.347C242.275 311.858 242.075 311.376 241.948 310.902C241.787 310.304 241.815 309.789 242.03 309.356C242.245 308.923 242.59 308.643 243.064 308.516ZM245.648 318.159C246.132 318.03 246.539 318.042 246.867 318.197C247.193 318.342 247.415 318.636 247.534 319.079C247.653 319.522 247.609 319.892 247.402 320.191C247.192 320.479 246.845 320.688 246.36 320.818C245.866 320.95 245.456 320.944 245.13 320.8C244.811 320.642 244.593 320.342 244.474 319.899C244.355 319.455 244.396 319.091 244.595 318.806C244.803 318.507 245.153 318.292 245.648 318.159Z" fill="white"/>
<path d="M236.138 311.365C236.807 311.186 237.346 311.113 237.752 311.148C238.159 311.183 238.511 311.237 238.807 311.313C238.95 311.352 239.063 311.382 239.146 311.404C239.237 311.413 239.318 311.408 239.39 311.388C239.493 311.361 239.55 311.285 239.561 311.16C239.582 311.033 239.578 310.852 239.548 310.617L239.904 310.522C239.951 310.741 240.003 310.998 240.06 311.292C240.127 311.583 240.219 311.967 240.336 312.444C240.463 312.918 240.63 313.541 240.837 314.314L240.481 314.409C240.288 313.853 240.007 313.338 239.636 312.863C239.276 312.385 238.854 312.023 238.368 311.778C237.893 311.53 237.388 311.478 236.852 311.621C236.399 311.743 236.056 311.967 235.823 312.294C235.591 312.622 235.537 313.017 235.661 313.481C235.763 313.862 235.944 314.167 236.204 314.395C236.461 314.614 236.826 314.82 237.297 315.014C237.779 315.205 238.405 315.44 239.176 315.719C239.725 315.915 240.228 316.122 240.685 316.342C241.151 316.559 241.552 316.839 241.886 317.18C242.221 317.521 242.464 317.975 242.616 318.541C242.801 319.232 242.758 319.856 242.488 320.414C242.228 320.97 241.809 321.446 241.231 321.844C240.65 322.232 239.984 322.526 239.232 322.728C238.531 322.915 237.953 323.004 237.498 322.994C237.052 322.98 236.667 322.945 236.343 322.889C236.078 322.805 235.883 322.78 235.76 322.813C235.657 322.841 235.595 322.918 235.573 323.045C235.563 323.17 235.572 323.349 235.602 323.584L235.246 323.68C235.195 323.406 235.123 323.094 235.029 322.744C234.943 322.381 234.823 321.916 234.672 321.349C234.53 320.78 234.342 320.057 234.107 319.181L234.463 319.086C234.697 319.796 234.991 320.441 235.345 321.019C235.709 321.595 236.14 322.027 236.636 322.313C237.14 322.587 237.722 322.635 238.381 322.459C238.762 322.357 239.072 322.213 239.309 322.028C239.554 321.83 239.724 321.596 239.818 321.328C239.911 321.06 239.916 320.767 239.83 320.447C239.714 320.014 239.515 319.665 239.234 319.398C238.95 319.12 238.601 318.888 238.186 318.701C237.779 318.501 237.315 318.316 236.795 318.146C236.222 317.946 235.681 317.738 235.17 317.522C234.659 317.305 234.22 317.025 233.852 316.682C233.494 316.336 233.239 315.88 233.087 315.313C232.905 314.633 232.938 314.034 233.185 313.515C233.43 312.985 233.818 312.539 234.35 312.176C234.882 311.812 235.478 311.542 236.138 311.365Z" fill="white"/>
<path d="M231.15 312.934L231.233 313.243C230.941 313.387 230.733 313.559 230.609 313.758C230.496 313.954 230.458 314.223 230.495 314.567C230.529 314.9 230.624 315.36 230.782 315.948L232.985 324.17C232.825 324.19 232.652 324.226 232.467 324.275C232.291 324.322 232.104 324.384 231.903 324.459L223.052 318.814L224.245 323.265C224.43 323.955 224.598 324.479 224.749 324.836C224.907 325.18 225.117 325.405 225.377 325.512C225.645 325.606 226.031 325.624 226.535 325.567L226.617 325.876C226.406 325.91 226.135 325.972 225.806 326.06C225.473 326.138 225.163 326.216 224.874 326.293C224.647 326.354 224.417 326.421 224.183 326.495C223.946 326.558 223.753 326.621 223.604 326.683L223.521 326.374C223.821 326.216 224.029 326.045 224.145 325.859C224.258 325.663 224.296 325.393 224.259 325.05C224.223 324.706 224.127 324.246 223.972 323.669L222.208 317.085C222.106 316.704 222.006 316.433 221.907 316.272C221.806 316.1 221.665 316.005 221.483 315.988C221.309 315.957 221.067 315.978 220.755 316.05L220.672 315.741C220.829 315.71 221.028 315.668 221.267 315.615C221.507 315.562 221.74 315.505 221.967 315.444C222.225 315.375 222.476 315.302 222.72 315.225C222.965 315.149 223.183 315.079 223.376 315.017L231.486 319.999L230.509 316.352C230.324 315.662 230.152 315.144 229.994 314.8C229.843 314.443 229.637 314.211 229.377 314.104C229.116 313.998 228.73 313.979 228.219 314.05L228.137 313.741C228.345 313.696 228.616 313.635 228.948 313.557C229.281 313.479 229.591 313.401 229.88 313.324C230.117 313.26 230.347 313.193 230.571 313.122C230.805 313.048 230.998 312.985 231.15 312.934Z" fill="white"/>
<path d="M219.77 315.983L219.853 316.292C219.547 316.385 219.321 316.49 219.175 316.606C219.037 316.709 218.968 316.861 218.966 317.06C218.961 317.249 219.01 317.534 219.112 317.915L221.166 325.581C221.265 325.952 221.366 326.223 221.467 326.395C221.578 326.564 221.72 326.658 221.891 326.679C222.062 326.699 222.305 326.678 222.619 326.616L222.702 326.925C222.398 326.984 222.009 327.078 221.535 327.205C221.068 327.319 220.593 327.44 220.109 327.57C219.553 327.719 219.028 327.865 218.537 328.008C218.052 328.138 217.664 328.253 217.37 328.354L217.288 328.045C217.601 327.938 217.827 327.834 217.965 327.73C218.103 327.627 218.173 327.476 218.175 327.277C218.177 327.077 218.128 326.792 218.029 326.421L215.975 318.756C215.873 318.375 215.772 318.103 215.674 317.942C215.573 317.77 215.431 317.676 215.25 317.658C215.076 317.627 214.833 317.648 214.521 317.721L214.438 317.412C214.74 317.342 215.134 317.247 215.621 317.128C216.119 317.006 216.645 316.87 217.202 316.721C217.686 316.591 218.159 316.459 218.62 316.324C219.091 316.187 219.474 316.073 219.77 315.983Z" fill="white"/>
<path d="M209.137 318.6C209.806 318.421 210.345 318.348 210.751 318.383C211.158 318.417 211.51 318.472 211.806 318.548C211.949 318.587 212.062 318.617 212.145 318.639C212.236 318.648 212.317 318.642 212.389 318.623C212.492 318.596 212.549 318.52 212.56 318.395C212.581 318.268 212.577 318.087 212.547 317.852L212.903 317.757C212.95 317.976 213.003 318.232 213.059 318.527C213.126 318.818 213.218 319.202 213.335 319.678C213.462 320.152 213.629 320.776 213.836 321.548L213.48 321.644C213.287 321.088 213.006 320.573 212.635 320.098C212.275 319.62 211.853 319.258 211.367 319.013C210.892 318.765 210.387 318.712 209.851 318.856C209.398 318.977 209.055 319.202 208.822 319.529C208.59 319.857 208.536 320.252 208.66 320.716C208.762 321.097 208.943 321.402 209.203 321.63C209.46 321.848 209.825 322.055 210.296 322.248C210.778 322.44 211.404 322.675 212.175 322.954C212.724 323.149 213.227 323.357 213.684 323.577C214.15 323.794 214.551 324.073 214.885 324.414C215.22 324.756 215.463 325.209 215.615 325.776C215.8 326.466 215.757 327.091 215.487 327.649C215.227 328.204 214.808 328.681 214.23 329.079C213.649 329.467 212.983 329.761 212.231 329.963C211.53 330.15 210.952 330.239 210.497 330.228C210.051 330.215 209.667 330.18 209.342 330.124C209.077 330.04 208.882 330.015 208.759 330.048C208.656 330.076 208.594 330.153 208.572 330.28C208.562 330.405 208.571 330.584 208.601 330.819L208.245 330.915C208.194 330.641 208.122 330.329 208.028 329.979C207.942 329.616 207.822 329.151 207.671 328.584C207.529 328.014 207.341 327.292 207.106 326.416L207.462 326.321C207.696 327.031 207.99 327.675 208.344 328.254C208.708 328.83 209.139 329.262 209.635 329.548C210.139 329.822 210.721 329.87 211.38 329.694C211.761 329.591 212.071 329.448 212.308 329.263C212.553 329.064 212.723 328.831 212.817 328.563C212.91 328.295 212.915 328.001 212.829 327.682C212.713 327.249 212.514 326.899 212.233 326.633C211.949 326.355 211.6 326.123 211.185 325.936C210.778 325.736 210.314 325.551 209.794 325.381C209.221 325.181 208.68 324.973 208.169 324.756C207.658 324.54 207.219 324.26 206.851 323.917C206.493 323.571 206.238 323.115 206.087 322.548C205.904 321.868 205.937 321.269 206.184 320.75C206.429 320.22 206.817 319.774 207.349 319.41C207.881 319.047 208.477 318.777 209.137 318.6Z" fill="white"/>
<path d="M204.089 320.185L204.172 320.494C203.865 320.587 203.639 320.692 203.494 320.808C203.356 320.911 203.286 321.062 203.284 321.262C203.279 321.451 203.328 321.736 203.43 322.117L205.484 329.782C205.584 330.153 205.684 330.425 205.785 330.596C205.897 330.765 206.038 330.86 206.209 330.88C206.38 330.901 206.623 330.88 206.938 330.818L207.021 331.127C206.716 331.186 206.327 331.279 205.853 331.406C205.387 331.52 204.912 331.642 204.427 331.772C203.871 331.921 203.347 332.067 202.855 332.21C202.371 332.339 201.982 332.455 201.689 332.555L201.606 332.246C201.92 332.14 202.146 332.035 202.284 331.932C202.422 331.829 202.492 331.678 202.493 331.478C202.495 331.279 202.446 330.994 202.347 330.623L200.293 322.957C200.191 322.576 200.091 322.305 199.992 322.144C199.891 321.972 199.75 321.877 199.568 321.86C199.394 321.829 199.152 321.85 198.84 321.922L198.757 321.613C199.058 321.544 199.453 321.449 199.94 321.329C200.437 321.207 200.964 321.072 201.52 320.923C202.004 320.793 202.477 320.661 202.938 320.526C203.409 320.389 203.793 320.275 204.089 320.185Z" fill="white"/>
<path d="M194.076 322.867L200.4 331.509C200.638 331.821 200.861 332.032 201.067 332.142C201.27 332.242 201.44 332.279 201.577 332.254L201.66 332.563C201.284 332.642 200.848 332.747 200.353 332.88C199.856 333.002 199.35 333.132 198.835 333.27C198.309 333.411 197.816 333.549 197.355 333.683C196.892 333.807 196.523 333.917 196.251 334.012L196.168 333.703C196.688 333.542 196.994 333.366 197.087 333.175C197.187 332.972 197.063 332.635 196.716 332.165L192.409 325.981L192.573 325.357L191.927 331.477C191.849 332.216 191.834 332.799 191.883 333.228C191.939 333.644 192.048 333.946 192.209 334.135C192.37 334.323 192.575 334.429 192.823 334.45C193.072 334.472 193.352 334.447 193.664 334.374L193.747 334.683C193.36 334.765 193.012 334.847 192.703 334.93C192.402 334.999 192.071 335.083 191.71 335.179C191.514 335.232 191.304 335.294 191.081 335.365C190.864 335.423 190.682 335.483 190.532 335.545L190.45 335.235C190.676 335.131 190.867 334.919 191.025 334.601C191.19 334.27 191.311 333.751 191.387 333.046L192.453 323.302C192.706 323.257 192.977 323.195 193.265 323.118C193.564 323.038 193.834 322.954 194.076 322.867ZM196.356 329.213L196.439 329.523L191.834 330.757L191.905 330.406L196.356 329.213Z" fill="white"/>
<path d="M177.22 327.384C177.521 327.315 177.916 327.22 178.403 327.1C178.9 326.978 179.396 326.851 179.89 326.718C180.406 326.58 180.899 326.443 181.37 326.305C181.841 326.168 182.175 326.073 182.37 326.021C183.421 325.739 184.313 325.605 185.045 325.619C185.788 325.629 186.383 325.79 186.831 326.101C187.276 326.401 187.58 326.856 187.743 327.463C187.845 327.845 187.867 328.236 187.809 328.638C187.751 329.04 187.577 329.44 187.286 329.839C186.992 330.226 186.544 330.595 185.942 330.944C185.348 331.28 184.556 331.581 183.567 331.846L182.083 332.243L182 331.934L183.329 331.578C183.855 331.437 184.221 331.217 184.428 330.919C184.643 330.608 184.746 330.249 184.736 329.843C184.734 329.424 184.67 328.977 184.543 328.503C184.325 327.689 184.043 327.091 183.698 326.709C183.36 326.313 182.918 326.189 182.372 326.335C182.021 326.429 181.818 326.577 181.762 326.78C181.706 326.983 181.75 327.352 181.893 327.888L183.947 335.553C184.047 335.924 184.147 336.196 184.248 336.367C184.36 336.536 184.501 336.631 184.672 336.651C184.843 336.672 185.086 336.651 185.401 336.589L185.484 336.898C185.179 336.957 184.79 337.05 184.316 337.177C183.85 337.291 183.374 337.413 182.89 337.543C182.334 337.692 181.81 337.838 181.318 337.981C180.834 338.11 180.445 338.226 180.152 338.326L180.069 338.017C180.383 337.911 180.609 337.806 180.747 337.703C180.885 337.6 180.954 337.449 180.956 337.249C180.958 337.05 180.909 336.765 180.81 336.394L178.756 328.728C178.654 328.347 178.554 328.076 178.455 327.915C178.354 327.743 178.213 327.648 178.031 327.631C177.857 327.6 177.614 327.621 177.303 327.693L177.22 327.384ZM181.92 332.005C182.294 331.916 182.649 331.843 182.987 331.785C183.325 331.728 183.638 331.678 183.924 331.634C184.208 331.58 184.449 331.532 184.647 331.49C185.764 331.246 186.639 331.216 187.273 331.399C187.918 331.58 188.388 331.973 188.683 332.578L189.438 334.099C189.622 334.458 189.786 334.696 189.927 334.812C190.069 334.929 190.227 334.964 190.403 334.917C190.506 334.889 190.589 334.85 190.653 334.8C190.717 334.75 190.775 334.679 190.828 334.588L191.083 334.735C190.849 335.14 190.556 335.45 190.206 335.665C189.868 335.889 189.462 336.064 188.988 336.191C188.318 336.37 187.746 336.396 187.27 336.27C186.792 336.133 186.422 335.763 186.161 335.159L185.515 333.676C185.34 333.27 185.162 332.915 184.981 332.61C184.8 332.305 184.607 332.08 184.403 331.936C184.196 331.782 183.958 331.741 183.69 331.812L182.021 332.26L181.92 332.005Z" fill="white"/>
<path d="M243.233 290.854C243.717 290.724 244.124 290.737 244.452 290.892C244.778 291.036 245.001 291.33 245.119 291.773C245.238 292.216 245.194 292.587 244.987 292.886C244.777 293.174 244.43 293.383 243.945 293.512C243.451 293.645 243.041 293.639 242.715 293.494C242.396 293.337 242.178 293.036 242.059 292.593C241.941 292.15 241.981 291.786 242.181 291.501C242.388 291.202 242.739 290.987 243.233 290.854ZM244.786 296.65C245.27 296.52 245.677 296.533 246.005 296.687C246.331 296.832 246.554 297.126 246.672 297.569C246.791 298.012 246.747 298.383 246.54 298.681C246.33 298.969 245.983 299.178 245.498 299.308C245.004 299.44 244.594 299.434 244.268 299.29C243.949 299.132 243.731 298.832 243.612 298.389C243.493 297.946 243.534 297.582 243.734 297.296C243.941 296.998 244.292 296.782 244.786 296.65Z" fill="white"/>
<path d="M239.766 288.884L239.849 289.193C239.557 289.338 239.349 289.51 239.225 289.708C239.112 289.904 239.074 290.174 239.111 290.518C239.145 290.851 239.241 291.311 239.398 291.898L241.601 300.12C241.441 300.141 241.268 300.176 241.083 300.226C240.908 300.273 240.72 300.334 240.519 300.41L231.668 294.765L232.861 299.215C233.046 299.906 233.214 300.43 233.365 300.787C233.523 301.131 233.733 301.356 233.993 301.463C234.261 301.557 234.647 301.575 235.151 301.517L235.234 301.826C235.022 301.861 234.751 301.922 234.422 302.011C234.089 302.089 233.779 302.167 233.49 302.244C233.264 302.305 233.033 302.372 232.799 302.446C232.562 302.509 232.369 302.572 232.22 302.634L232.137 302.325C232.437 302.167 232.645 301.995 232.761 301.81C232.874 301.614 232.912 301.344 232.876 301.001C232.839 300.657 232.743 300.197 232.588 299.62L230.824 293.036C230.722 292.655 230.622 292.384 230.523 292.222C230.422 292.051 230.281 291.956 230.099 291.938C229.926 291.908 229.683 291.928 229.371 292.001L229.288 291.692C229.445 291.661 229.644 291.619 229.884 291.565C230.123 291.512 230.357 291.455 230.583 291.395C230.841 291.326 231.092 291.253 231.336 291.176C231.581 291.1 231.8 291.03 231.993 290.967L240.103 295.95L239.125 292.303C238.94 291.612 238.769 291.095 238.61 290.751C238.459 290.394 238.254 290.162 237.993 290.055C237.733 289.948 237.347 289.93 236.836 290.001L236.753 289.692C236.962 289.647 237.232 289.585 237.565 289.507C237.897 289.429 238.208 289.352 238.496 289.274C238.733 289.211 238.964 289.144 239.187 289.072C239.422 288.999 239.615 288.936 239.766 288.884Z" fill="white"/>
<path d="M222.502 293.278C223.666 292.966 224.746 292.915 225.74 293.123C226.735 293.331 227.586 293.788 228.294 294.493C228.999 295.187 229.51 296.127 229.828 297.312C230.137 298.466 230.16 299.542 229.897 300.54C229.635 301.538 229.125 302.398 228.369 303.119C227.623 303.838 226.678 304.351 225.534 304.657C224.37 304.969 223.291 305.021 222.296 304.813C221.302 304.604 220.451 304.148 219.743 303.443C219.035 302.738 218.524 301.798 218.209 300.624C217.9 299.47 217.876 298.394 218.139 297.396C218.412 296.395 218.922 295.535 219.668 294.816C220.414 294.098 221.358 293.585 222.502 293.278ZM222.515 293.573C222 293.711 221.614 294.063 221.357 294.629C221.1 295.195 220.977 295.912 220.989 296.781C221.001 297.651 221.151 298.621 221.438 299.692C221.731 300.785 222.104 301.706 222.559 302.456C223.012 303.196 223.498 303.734 224.019 304.07C224.536 304.395 225.038 304.492 225.522 304.363C226.037 304.225 226.423 303.873 226.68 303.307C226.937 302.741 227.059 302.024 227.047 301.154C227.033 300.275 226.883 299.305 226.599 298.243C226.303 297.141 225.929 296.22 225.477 295.479C225.025 294.739 224.54 294.207 224.022 293.882C223.501 293.546 222.999 293.443 222.515 293.573Z" fill="white"/>
<path d="M215.845 295.294L215.927 295.603C215.621 295.696 215.395 295.801 215.25 295.917C215.112 296.02 215.042 296.172 215.04 296.371C215.035 296.56 215.084 296.845 215.186 297.226L217.24 304.892C217.34 305.263 217.44 305.534 217.541 305.706C217.653 305.875 217.794 305.969 217.965 305.99C218.136 306.01 218.379 305.989 218.694 305.927L218.777 306.236C218.472 306.295 218.083 306.389 217.609 306.516C217.143 306.63 216.667 306.751 216.183 306.881C215.627 307.03 215.103 307.176 214.611 307.319C214.127 307.449 213.738 307.564 213.445 307.665L213.362 307.356C213.676 307.249 213.902 307.145 214.04 307.041C214.178 306.938 214.247 306.787 214.249 306.588C214.251 306.388 214.202 306.103 214.103 305.732L212.049 298.067C211.947 297.686 211.846 297.414 211.748 297.253C211.647 297.081 211.506 296.987 211.324 296.969C211.15 296.938 210.907 296.959 210.596 297.032L210.513 296.723C210.814 296.653 211.209 296.558 211.696 296.439C212.193 296.317 212.72 296.181 213.276 296.032C213.76 295.902 214.233 295.77 214.694 295.635C215.165 295.498 215.549 295.384 215.845 295.294Z" fill="white"/>
<path d="M209.721 296.935C209.843 297.554 209.969 298.15 210.1 298.722C210.242 299.291 210.353 299.725 210.433 300.024C210.491 300.24 210.551 300.445 210.614 300.638C210.677 300.831 210.731 300.993 210.777 301.124L210.422 301.22C209.925 300.315 209.432 299.629 208.943 299.164C208.465 298.696 208.004 298.4 207.562 298.275C207.128 298.138 206.725 298.119 206.354 298.218L206.339 298.222L208.708 307.062C208.821 307.485 208.946 307.788 209.084 307.972C209.232 308.153 209.438 308.242 209.701 308.237C209.965 308.233 210.334 308.167 210.808 308.04L210.891 308.349C210.528 308.435 210.035 308.556 209.414 308.712C208.804 308.864 208.164 309.03 207.494 309.21C206.855 309.381 206.254 309.547 205.69 309.71C205.126 309.872 204.67 310.005 204.323 310.109L204.24 309.8C204.714 309.673 205.066 309.545 205.297 309.417C205.528 309.289 205.657 309.111 205.684 308.883C205.721 308.652 205.683 308.325 205.57 307.903L203.201 299.063L203.186 299.067C202.815 299.166 202.471 299.386 202.153 299.725C201.843 300.051 201.597 300.536 201.417 301.181C201.233 301.815 201.149 302.655 201.164 303.7L200.809 303.795C200.794 303.656 200.76 303.488 200.707 303.293C200.665 303.094 200.615 302.887 200.557 302.67C200.477 302.371 200.351 301.941 200.178 301.38C200.016 300.816 199.833 300.236 199.629 299.639C200.126 299.517 200.675 299.381 201.275 299.231C201.876 299.081 202.475 298.926 203.072 298.766C203.67 298.606 204.211 298.461 204.695 298.331C205.179 298.202 205.72 298.057 206.318 297.897C206.915 297.736 207.512 297.571 208.106 297.401C208.701 297.23 209.239 297.075 209.721 296.935Z" fill="white"/>
<path d="M199.083 299.785L199.165 300.095C198.873 300.239 198.665 300.411 198.541 300.61C198.428 300.806 198.39 301.075 198.427 301.419C198.461 301.752 198.557 302.212 198.714 302.8L199.712 306.524C199.883 307.163 199.998 307.778 200.058 308.37C200.127 308.958 200.093 309.492 199.956 309.97C199.807 310.485 199.499 310.943 199.033 311.344C198.576 311.743 197.905 312.061 197.019 312.298C196.545 312.425 196.031 312.507 195.478 312.545C194.925 312.583 194.404 312.513 193.914 312.335C193.495 312.171 193.143 311.929 192.858 311.607C192.573 311.286 192.334 310.886 192.139 310.408C191.945 309.93 191.764 309.377 191.595 308.749L190.295 303.896C190.193 303.515 190.093 303.243 189.994 303.082C189.893 302.91 189.757 302.814 189.586 302.794C189.412 302.763 189.164 302.786 188.842 302.861L188.759 302.552C189.06 302.482 189.455 302.387 189.942 302.268C190.439 302.146 190.955 302.013 191.491 301.869C192.027 301.726 192.541 301.583 193.033 301.44C193.524 301.297 193.929 301.178 194.245 301.082L194.328 301.391C193.981 301.495 193.724 301.608 193.558 301.73C193.399 301.838 193.314 301.994 193.301 302.196C193.287 302.388 193.33 302.674 193.432 303.055L195.122 309.361C195.257 309.866 195.413 310.282 195.589 310.61C195.763 310.928 195.954 311.17 196.164 311.334C196.384 311.496 196.625 311.592 196.887 311.621C197.156 311.637 197.451 311.602 197.77 311.517C198.461 311.332 198.957 311.022 199.26 310.588C199.561 310.143 199.713 309.599 199.718 308.958C199.72 308.305 199.615 307.583 199.402 306.789L198.442 303.204C198.257 302.514 198.085 301.996 197.926 301.652C197.775 301.295 197.57 301.063 197.309 300.956C197.049 300.85 196.663 300.831 196.152 300.902L196.069 300.593C196.278 300.548 196.548 300.487 196.881 300.409C197.213 300.331 197.524 300.253 197.812 300.176C198.049 300.112 198.28 300.045 198.504 299.974C198.738 299.9 198.931 299.837 199.083 299.785Z" fill="white"/>
<path d="M184.008 303.824L190.332 312.466C190.57 312.778 190.792 312.989 190.998 313.099C191.202 313.199 191.372 313.236 191.509 313.211L191.592 313.52C191.215 313.599 190.78 313.704 190.285 313.837C189.788 313.959 189.282 314.089 188.766 314.227C188.241 314.368 187.748 314.506 187.287 314.64C186.823 314.765 186.455 314.874 186.182 314.969L186.1 314.66C186.62 314.499 186.926 314.323 187.018 314.133C187.118 313.929 186.995 313.592 186.648 313.122L182.341 306.938L182.505 306.314L181.859 312.434C181.781 313.173 181.766 313.756 181.815 314.185C181.871 314.601 181.979 314.903 182.14 315.092C182.301 315.28 182.506 315.386 182.755 315.407C183.004 315.429 183.284 315.404 183.596 315.331L183.679 315.64C183.292 315.722 182.944 315.804 182.635 315.887C182.333 315.957 182.002 316.04 181.642 316.136C181.446 316.189 181.236 316.251 181.012 316.322C180.796 316.38 180.613 316.44 180.464 316.502L180.381 316.192C180.607 316.088 180.799 315.876 180.957 315.558C181.122 315.227 181.243 314.708 181.319 314.003L182.385 304.259C182.638 304.214 182.908 304.152 183.197 304.075C183.496 303.995 183.766 303.911 184.008 303.824ZM186.288 310.171L186.371 310.48L181.765 311.714L181.837 311.363L186.288 310.171Z" fill="white"/>
<path d="M173.119 306.51C173.799 306.328 174.383 306.282 174.871 306.372C175.367 306.449 175.82 306.576 176.232 306.753C176.48 306.852 176.64 306.831 176.712 306.691C176.793 306.537 176.794 306.232 176.716 305.778L177.072 305.683C177.162 306.101 177.281 306.61 177.431 307.21C177.578 307.8 177.783 308.585 178.045 309.563L177.69 309.659C177.516 309.175 177.332 308.755 177.137 308.399C176.939 308.032 176.708 307.724 176.442 307.475C176.177 307.226 175.838 307.035 175.427 306.902C175.172 306.816 174.91 306.765 174.641 306.749C174.382 306.73 174.123 306.755 173.866 306.824C173.279 306.981 172.838 307.276 172.546 307.708C172.25 308.129 172.064 308.632 171.989 309.215C171.921 309.785 171.928 310.391 172.012 311.031C172.092 311.661 172.21 312.265 172.364 312.842C172.519 313.418 172.72 314.005 172.968 314.601C173.213 315.187 173.51 315.715 173.856 316.185C174.211 316.642 174.623 316.985 175.092 317.212C175.559 317.43 176.086 317.46 176.673 317.302C176.931 317.233 177.167 317.126 177.382 316.98C177.605 316.821 177.806 316.645 177.987 316.453C178.416 315.996 178.647 315.476 178.678 314.893C178.72 314.308 178.664 313.583 178.51 312.719L178.865 312.623C179.136 313.633 179.36 314.451 179.539 315.077C179.715 315.692 179.87 316.208 180.004 316.625L179.648 316.72C179.488 316.288 179.342 316.03 179.208 315.944C179.085 315.855 178.93 315.914 178.742 316.119C178.432 316.489 178.089 316.835 177.711 317.157C177.341 317.466 176.821 317.71 176.152 317.889C174.987 318.201 173.908 318.253 172.914 318.045C171.919 317.836 171.068 317.38 170.36 316.675C169.652 315.97 169.141 315.03 168.826 313.856C168.517 312.702 168.494 311.626 168.756 310.628C169.029 309.627 169.539 308.767 170.285 308.048C171.031 307.329 171.976 306.817 173.119 306.51Z" fill="white"/>
<path d="M243.578 231.505C240.252 233.024 240.342 240.291 240.342 240.291L243.021 250.288C244.232 254.808 247.003 251.24 248.237 248.89L251.069 242.075C251.069 242.075 248.18 229.403 243.578 231.505Z" fill="#3A001E"/>
<path d="M305.891 327.487C298.426 329.69 295.277 332.896 295.277 332.896L296.145 336.134C296.537 337.598 303.812 334.733 307.4 333.118L316.288 328.775C316.288 328.775 316.22 324.437 305.891 327.487Z" fill="#3A001E"/>
<path d="M287.014 270.38C282.542 272.011 281.522 277.319 281.522 277.319L283.372 284.221C284.208 287.342 288.293 284.296 290.23 282.383L294.901 276.95C294.901 276.95 293.202 268.122 287.014 270.38Z" fill="#3A001E"/>
<path d="M361.446 285.551C367.219 284.325 370.982 287.041 370.982 287.041L372.35 292.147C372.969 294.455 366.925 294.631 363.825 294.431L355.948 293.449C355.948 293.449 353.458 287.248 361.446 285.551Z" fill="#3A001E"/>
<path d="M300.016 156.984C296.637 158.306 296.114 163.284 296.114 163.284L297.892 169.917C298.695 172.917 301.704 170.235 303.107 168.52L306.449 163.606C306.449 163.606 304.692 155.155 300.016 156.984Z" fill="#3A001E"/>
<path d="M327.602 287.443C322.383 289.104 320.517 292.653 320.517 292.653L321.637 296.833C322.143 298.724 327.123 296.207 329.55 294.713L335.511 290.583C335.511 290.583 334.823 285.144 327.602 287.443Z" fill="#3A001E"/>
<path d="M227.918 200.77C224.099 202.001 222.777 204.768 222.777 204.768L223.663 208.076C224.064 209.572 227.694 207.664 229.459 206.523L233.788 203.359C233.788 203.359 233.202 199.067 227.918 200.77Z" fill="#3A001E"/>
<path d="M245.03 360.482C241.211 361.713 239.888 364.48 239.888 364.48C240.017 364.96 239.544 369.865 241 369.338C244.425 368.097 244.749 367.937 246.851 367.163L252.479 365.052C252.479 365.052 250.313 358.779 245.03 360.482Z" fill="#3A001E"/>
<path d="M142.648 241.016C142.875 244.159 137.767 246.921 137.767 246.921L129.752 248.761C126.127 249.593 127.546 246.077 128.708 244.215L132.369 239.388C132.369 239.388 142.334 236.666 142.648 241.016Z" fill="#3A001E"/>
<path d="M126.79 271.531C123.012 272.914 122.163 277.445 122.163 277.445L123.743 283.344C124.458 286.012 127.905 283.42 129.54 281.791L133.476 277.162C133.476 277.162 132.018 269.618 126.79 271.531Z" fill="#3A001E"/>
<path d="M92.1989 278.107C90.2406 278.824 89.8001 281.173 89.8001 281.173L90.6195 284.231C90.99 285.613 92.7768 284.27 93.6239 283.426L95.6644 281.026C95.6644 281.026 94.9086 277.116 92.1989 278.107Z" fill="#3A001E"/>
<path d="M322.618 106.595C319.828 107.535 318.974 109.994 318.974 109.994L319.793 113.052C320.164 114.435 322.78 112.869 324.043 111.913L327.12 109.236C327.12 109.236 326.477 105.295 322.618 106.595Z" fill="#3A001E"/>
<path d="M162.001 366.054C160.47 366.859 160.805 371.354 160.805 371.354L162.489 377.641C163.251 380.483 164.434 378.389 164.931 376.986L166.013 372.888C166.013 372.888 164.12 364.94 162.001 366.054Z" fill="#3A001E"/>
<path d="M334.654 239.05C336.312 242.229 341.082 242.262 341.082 242.262L347.14 239.885C349.88 238.81 346.981 236.123 345.19 234.915L340.14 232.117C340.14 232.117 332.36 234.65 334.654 239.05Z" fill="#3A001E"/>
<path d="M334.595 180.329C337.643 182.198 340.956 180.65 340.956 180.65L343.714 176.845C344.961 175.125 341.352 174.04 339.391 173.712L334.23 173.251C334.23 173.251 330.377 177.742 334.595 180.329Z" fill="#3A001E"/>
<path d="M278.158 212.415C279.661 215.655 282.63 216.395 282.63 216.395L286.042 215.056C287.585 214.45 285.385 211.49 284.091 210.086L280.538 206.701C280.538 206.701 276.079 207.931 278.158 212.415Z" fill="#3A001E"/>
<path d="M202.877 271.155C198.313 272.058 195.156 269.197 195.156 269.197L193.794 264.115C193.179 261.816 198.014 261.958 200.508 262.316L206.873 263.689C206.873 263.689 209.191 269.905 202.877 271.155Z" fill="#3A001E"/>
<path d="M93.6987 349.364C92.9421 353.311 95.7511 356.133 95.7511 356.133L100.641 357.451C102.853 358.047 102.604 353.837 102.203 351.657L100.741 346.084C100.741 346.084 94.7455 343.904 93.6987 349.364Z" fill="#3A001E"/>
</svg>
