<svg width="686" height="456" viewBox="0 0 686 456" fill="none" xmlns="http://www.w3.org/2000/svg">
<rect x="0.796875" y="164.494" width="628.571" height="293.185" transform="rotate(-15 0.796875 164.494)" fill="black"/>
<path d="M0.796875 164.494L339.682 267.194L608.066 1.77685" stroke="#3A001E" stroke-width="5"/>
<path d="M288.664 228.812C290.852 218.757 298.239 210.634 308.042 207.502L348.268 194.649C358.071 191.517 368.8 193.853 376.413 200.776L407.657 229.187C415.27 236.11 418.612 246.57 416.423 256.625L407.44 297.888C405.251 307.943 397.864 316.067 388.062 319.199L347.835 332.051C338.033 335.183 327.304 332.847 319.691 325.924L288.447 297.513C280.834 290.59 277.492 280.131 279.681 270.076L288.664 228.812Z" fill="#F0572F"/>
<path fill-rule="evenodd" clip-rule="evenodd" d="M348.459 195.246L308.233 208.098C298.643 211.162 291.417 219.109 289.275 228.945L280.293 270.209C278.151 280.045 281.42 290.277 288.868 297.05L320.112 325.461C327.56 332.234 338.056 334.518 347.645 331.455L387.871 318.602C397.461 315.538 404.687 307.591 406.829 297.755L415.811 256.491C417.953 246.655 414.684 236.423 407.236 229.65L375.992 201.24C368.544 194.467 358.048 192.182 348.459 195.246ZM308.042 207.502C298.239 210.634 290.852 218.757 288.664 228.812L279.681 270.076C277.492 280.131 280.834 290.59 288.447 297.513L319.691 325.924C327.304 332.847 338.033 335.183 347.835 332.051L388.062 319.199C397.864 316.067 405.251 307.943 407.44 297.888L416.423 256.625C418.612 246.57 415.27 236.11 407.657 229.187L376.413 200.776C368.8 193.853 358.071 191.517 348.268 194.649L308.042 207.502Z" fill="#3A001E"/>
<path d="M324.61 240.302C324.083 240.013 323.798 239.659 323.754 239.24C323.694 238.831 323.762 238.461 323.96 238.13C324.164 237.772 324.448 237.506 324.812 237.332C325.175 237.159 325.62 237.216 326.147 237.506C326.647 237.788 327.143 238.238 327.634 238.854C328.108 239.48 328.74 240.233 329.532 241.112L329.486 241.21C328.365 241.024 327.397 240.896 326.582 240.828C325.757 240.743 325.1 240.568 324.61 240.302ZM329.455 241.159C329.054 240.113 328.684 239.213 328.343 238.458C328.002 237.704 327.827 237.049 327.818 236.492C327.804 235.891 327.967 235.464 328.306 235.211C328.617 234.952 328.97 234.82 329.366 234.814C329.778 234.798 330.151 234.911 330.486 235.154C330.81 235.379 330.979 235.792 330.992 236.393C331.012 236.967 330.873 237.626 330.575 238.37C330.266 239.096 329.923 240.019 329.547 241.138L329.455 241.159ZM329.491 241.102C330.211 240.243 330.814 239.478 331.298 238.809C331.756 238.133 332.232 237.645 332.729 237.343C333.243 237.031 333.691 236.959 334.073 237.125C334.456 237.291 334.746 237.537 334.943 237.863C335.151 238.205 335.235 238.576 335.196 238.975C335.157 239.374 334.881 239.729 334.367 240.041C333.87 240.343 333.235 240.552 332.463 240.669C331.68 240.77 330.713 240.934 329.563 241.164L329.491 241.102ZM329.537 241.179L329.558 241.097C330.679 241.283 331.652 241.419 332.477 241.504C333.292 241.572 333.944 241.739 334.433 242.005C334.961 242.294 335.255 242.643 335.315 243.052C335.358 243.471 335.281 243.846 335.084 244.177C334.89 244.552 334.62 244.822 334.273 244.985C333.9 245.141 333.441 245.08 332.896 244.801C332.396 244.519 331.91 244.064 331.436 243.438C330.944 242.821 330.312 242.069 329.537 241.179ZM328.051 245.914C328.031 245.34 328.176 244.69 328.485 243.963C328.766 243.23 329.103 242.298 329.496 241.169L329.589 241.148C329.989 242.194 330.36 243.094 330.701 243.849C331.024 244.613 331.199 245.269 331.226 245.815C331.239 246.416 331.085 246.838 330.763 247.08C330.425 247.333 330.063 247.47 329.678 247.493C329.266 247.509 328.897 247.404 328.573 247.179C328.239 246.937 328.065 246.515 328.051 245.914ZM324.1 244.444C323.903 244.119 323.824 243.757 323.863 243.358C323.892 242.942 324.163 242.578 324.677 242.266C325.157 241.975 325.796 241.774 326.597 241.663C327.38 241.563 328.349 241.385 329.506 241.128L329.553 241.205C328.843 242.081 328.245 242.854 327.761 243.523C327.276 244.192 326.794 244.673 326.314 244.964C325.801 245.276 325.358 245.357 324.986 245.208C324.604 245.041 324.308 244.787 324.1 244.444Z" fill="#3A001E"/>
<path d="M328.537 237.919C328.01 237.629 327.724 237.275 327.681 236.856C327.621 236.448 327.689 236.078 327.887 235.747C328.091 235.388 328.375 235.122 328.738 234.949C329.102 234.775 329.547 234.833 330.074 235.122C330.574 235.405 331.069 235.854 331.56 236.47C332.034 237.097 332.667 237.85 333.459 238.729L333.413 238.827C332.292 238.64 331.324 238.513 330.509 238.445C329.684 238.36 329.026 238.184 328.537 237.919ZM333.382 238.775C332.981 237.729 332.61 236.829 332.27 236.075C331.929 235.321 331.754 234.665 331.744 234.109C331.731 233.507 331.894 233.08 332.233 232.828C332.544 232.568 332.897 232.436 333.292 232.431C333.705 232.415 334.078 232.528 334.413 232.77C334.737 232.995 334.906 233.409 334.919 234.01C334.939 234.584 334.8 235.242 334.501 235.986C334.192 236.713 333.85 237.636 333.474 238.754L333.382 238.775ZM333.417 238.719C334.138 237.859 334.741 237.095 335.225 236.426C335.682 235.75 336.159 235.261 336.656 234.96C337.17 234.648 337.618 234.575 338 234.742C338.382 234.908 338.672 235.154 338.87 235.479C339.078 235.822 339.162 236.193 339.123 236.591C339.084 236.99 338.807 237.346 338.293 237.658C337.797 237.959 337.162 238.168 336.389 238.286C335.606 238.386 334.64 238.551 333.49 238.78L333.417 238.719ZM333.464 238.796L333.484 238.713C334.606 238.9 335.579 239.036 336.404 239.121C337.219 239.189 337.871 239.356 338.36 239.621C338.887 239.911 339.181 240.26 339.242 240.668C339.285 241.087 339.208 241.462 339.01 241.793C338.816 242.169 338.546 242.438 338.2 242.601C337.826 242.758 337.367 242.697 336.823 242.418C336.323 242.135 335.836 241.68 335.362 241.054C334.871 240.438 334.238 239.685 333.464 238.796ZM331.978 243.53C331.958 242.956 332.102 242.306 332.411 241.579C332.693 240.846 333.03 239.915 333.423 238.786L333.516 238.764C333.916 239.811 334.287 240.711 334.627 241.465C334.951 242.23 335.126 242.885 335.153 243.431C335.166 244.033 335.012 244.454 334.69 244.697C334.351 244.949 333.989 245.087 333.605 245.109C333.192 245.125 332.824 245.021 332.5 244.795C332.165 244.553 331.991 244.131 331.978 243.53ZM328.027 242.061C327.83 241.735 327.751 241.373 327.79 240.974C327.819 240.558 328.09 240.194 328.604 239.882C329.083 239.591 329.723 239.39 330.523 239.28C331.306 239.18 332.276 239.001 333.433 238.744L333.48 238.821C332.769 239.698 332.172 240.471 331.687 241.14C331.203 241.809 330.721 242.289 330.241 242.58C329.727 242.892 329.284 242.973 328.913 242.824C328.53 242.658 328.235 242.403 328.027 242.061Z" fill="#3A001E"/>
<path d="M366.617 247.717C366.09 247.427 365.804 247.073 365.761 246.654C365.701 246.245 365.769 245.876 365.967 245.545C366.171 245.186 366.455 244.92 366.818 244.747C367.182 244.573 367.627 244.631 368.154 244.92C368.654 245.203 369.149 245.652 369.641 246.268C370.115 246.895 370.747 247.647 371.539 248.527L371.493 248.625C370.372 248.438 369.404 248.311 368.589 248.243C367.764 248.158 367.106 247.982 366.617 247.717ZM371.462 248.573C371.061 247.527 370.691 246.627 370.35 245.873C370.009 245.119 369.834 244.463 369.824 243.906C369.811 243.305 369.974 242.878 370.313 242.626C370.624 242.366 370.977 242.234 371.372 242.228C371.785 242.213 372.158 242.326 372.493 242.568C372.817 242.793 372.986 243.206 372.999 243.808C373.019 244.381 372.88 245.04 372.581 245.784C372.272 246.511 371.93 247.433 371.554 248.552L371.462 248.573ZM371.497 248.516C372.218 247.657 372.821 246.893 373.305 246.224C373.762 245.548 374.239 245.059 374.736 244.758C375.25 244.446 375.698 244.373 376.08 244.539C376.463 244.706 376.752 244.952 376.95 245.277C377.158 245.62 377.242 245.99 377.203 246.389C377.164 246.788 376.887 247.143 376.373 247.455C375.877 247.757 375.242 247.966 374.469 248.084C373.686 248.184 372.72 248.349 371.57 248.578L371.497 248.516ZM371.544 248.593L371.564 248.511C372.686 248.698 373.659 248.834 374.484 248.919C375.299 248.987 375.951 249.153 376.44 249.419C376.967 249.708 377.261 250.057 377.322 250.466C377.365 250.885 377.288 251.26 377.091 251.591C376.897 251.966 376.626 252.236 376.28 252.399C375.906 252.556 375.447 252.495 374.903 252.216C374.403 251.933 373.916 251.478 373.442 250.852C372.951 250.236 372.319 249.483 371.544 248.593ZM370.058 253.328C370.038 252.754 370.182 252.104 370.491 251.377C370.773 250.644 371.11 249.713 371.503 248.583L371.596 248.562C371.996 249.608 372.367 250.509 372.707 251.263C373.031 252.027 373.206 252.683 373.233 253.229C373.246 253.831 373.092 254.252 372.77 254.494C372.431 254.747 372.07 254.885 371.685 254.907C371.272 254.923 370.904 254.818 370.58 254.593C370.245 254.351 370.072 253.929 370.058 253.328ZM366.107 251.858C365.91 251.533 365.831 251.171 365.87 250.772C365.899 250.356 366.17 249.992 366.684 249.68C367.163 249.389 367.803 249.188 368.603 249.078C369.386 248.977 370.356 248.799 371.513 248.542L371.56 248.619C370.85 249.496 370.252 250.268 369.768 250.938C369.283 251.607 368.801 252.087 368.321 252.378C367.807 252.69 367.365 252.771 366.993 252.622C366.61 252.456 366.315 252.201 366.107 251.858Z" fill="#3A001E"/>
<path d="M370.545 245.333C370.018 245.044 369.732 244.689 369.689 244.27C369.628 243.862 369.697 243.492 369.894 243.161C370.099 242.803 370.383 242.537 370.746 242.363C371.109 242.189 371.555 242.247 372.082 242.536C372.582 242.819 373.077 243.268 373.568 243.885C374.042 244.511 374.675 245.264 375.466 246.143L375.421 246.241C374.299 246.054 373.331 245.927 372.517 245.859C371.691 245.774 371.034 245.599 370.545 245.333ZM375.389 246.19C374.989 245.144 374.618 244.243 374.278 243.489C373.937 242.735 373.762 242.079 373.752 241.523C373.739 240.921 373.901 240.494 374.24 240.242C374.552 239.983 374.905 239.85 375.3 239.845C375.713 239.829 376.086 239.942 376.421 240.184C376.745 240.409 376.913 240.823 376.927 241.424C376.947 241.998 376.808 242.657 376.509 243.4C376.2 244.127 375.858 245.05 375.482 246.169L375.389 246.19ZM375.425 246.133C376.146 245.273 376.748 244.509 377.233 243.84C377.69 243.164 378.167 242.675 378.664 242.374C379.178 242.062 379.626 241.989 380.008 242.156C380.39 242.322 380.68 242.568 380.878 242.894C381.086 243.236 381.17 243.607 381.131 244.006C381.092 244.404 380.815 244.76 380.301 245.072C379.804 245.373 379.17 245.583 378.397 245.7C377.614 245.8 376.648 245.965 375.498 246.194L375.425 246.133ZM375.472 246.21L375.492 246.127C376.613 246.314 377.587 246.45 378.412 246.535C379.227 246.603 379.879 246.77 380.368 247.035C380.895 247.325 381.189 247.674 381.25 248.082C381.293 248.501 381.216 248.876 381.018 249.207C380.824 249.583 380.554 249.852 380.208 250.016C379.834 250.172 379.375 250.111 378.831 249.832C378.331 249.549 377.844 249.095 377.37 248.468C376.879 247.852 376.246 247.099 375.472 246.21ZM373.986 250.944C373.966 250.37 374.11 249.72 374.419 248.994C374.701 248.26 375.038 247.329 375.431 246.2L375.523 246.179C375.924 247.225 376.294 248.125 376.635 248.879C376.959 249.644 377.134 250.299 377.161 250.846C377.174 251.447 377.02 251.869 376.698 252.111C376.359 252.363 375.997 252.501 375.613 252.524C375.2 252.539 374.832 252.435 374.508 252.21C374.173 251.967 373.999 251.546 373.986 250.944ZM370.035 249.475C369.837 249.149 369.758 248.787 369.798 248.388C369.826 247.972 370.098 247.608 370.612 247.297C371.091 247.005 371.731 246.805 372.531 246.694C373.314 246.594 374.284 246.415 375.441 246.158L375.488 246.236C374.777 247.112 374.18 247.885 373.695 248.554C373.211 249.223 372.729 249.703 372.249 249.994C371.735 250.306 371.292 250.388 370.92 250.238C370.538 250.072 370.243 249.817 370.035 249.475Z" fill="#3A001E"/>
<path d="M362.654 288.574C362.127 288.285 361.842 287.931 361.798 287.512C361.738 287.103 361.806 286.733 362.004 286.402C362.208 286.044 362.492 285.778 362.855 285.604C363.219 285.431 363.664 285.488 364.191 285.778C364.691 286.061 365.187 286.51 365.678 287.126C366.152 287.752 366.784 288.505 367.576 289.384L367.53 289.482C366.409 289.296 365.441 289.168 364.626 289.1C363.801 289.015 363.143 288.84 362.654 288.574ZM367.499 289.431C367.098 288.385 366.728 287.485 366.387 286.731C366.046 285.976 365.871 285.321 365.861 284.764C365.848 284.163 366.011 283.736 366.35 283.483C366.661 283.224 367.014 283.092 367.41 283.086C367.822 283.07 368.195 283.184 368.53 283.426C368.854 283.651 369.023 284.064 369.036 284.665C369.056 285.239 368.917 285.898 368.619 286.642C368.31 287.369 367.967 288.291 367.591 289.41L367.499 289.431ZM367.535 289.374C368.255 288.515 368.858 287.751 369.342 287.081C369.799 286.406 370.276 285.917 370.773 285.615C371.287 285.303 371.735 285.231 372.117 285.397C372.5 285.564 372.79 285.81 372.987 286.135C373.195 286.478 373.279 286.848 373.24 287.247C373.201 287.646 372.924 288.001 372.411 288.313C371.914 288.615 371.279 288.824 370.507 288.941C369.724 289.042 368.757 289.206 367.607 289.436L367.535 289.374ZM367.581 289.451L367.602 289.369C368.723 289.555 369.696 289.691 370.521 289.776C371.336 289.844 371.988 290.011 372.477 290.277C373.005 290.566 373.298 290.915 373.359 291.324C373.402 291.743 373.325 292.118 373.128 292.449C372.934 292.824 372.664 293.094 372.317 293.257C371.944 293.414 371.484 293.352 370.94 293.073C370.44 292.791 369.953 292.336 369.479 291.71C368.988 291.094 368.356 290.341 367.581 289.451ZM366.095 294.186C366.075 293.612 366.22 292.962 366.529 292.235C366.81 291.502 367.147 290.57 367.54 289.441L367.633 289.42C368.033 290.466 368.404 291.366 368.744 292.121C369.068 292.885 369.243 293.541 369.27 294.087C369.283 294.688 369.129 295.11 368.807 295.352C368.468 295.605 368.107 295.742 367.722 295.765C367.31 295.781 366.941 295.676 366.617 295.451C366.283 295.209 366.109 294.787 366.095 294.186ZM362.144 292.716C361.947 292.391 361.868 292.029 361.907 291.63C361.936 291.214 362.207 290.85 362.721 290.538C363.201 290.247 363.84 290.046 364.641 289.935C365.424 289.835 366.393 289.657 367.55 289.4L367.597 289.477C366.887 290.353 366.289 291.126 365.805 291.795C365.32 292.465 364.838 292.945 364.358 293.236C363.845 293.548 363.402 293.629 363.03 293.48C362.647 293.313 362.352 293.059 362.144 292.716Z" fill="#3A001E"/>
<path d="M366.581 286.191C366.054 285.901 365.768 285.547 365.725 285.128C365.664 284.72 365.733 284.35 365.931 284.019C366.135 283.661 366.419 283.394 366.782 283.221C367.146 283.047 367.591 283.105 368.118 283.394C368.618 283.677 369.113 284.126 369.604 284.742C370.078 285.369 370.711 286.122 371.503 287.001L371.457 287.099C370.335 286.912 369.367 286.785 368.553 286.717C367.728 286.632 367.07 286.456 366.581 286.191ZM371.426 287.048C371.025 286.001 370.654 285.101 370.314 284.347C369.973 283.593 369.798 282.937 369.788 282.381C369.775 281.779 369.938 281.352 370.277 281.1C370.588 280.84 370.941 280.708 371.336 280.703C371.749 280.687 372.122 280.8 372.457 281.042C372.781 281.267 372.95 281.681 372.963 282.282C372.983 282.856 372.844 283.515 372.545 284.258C372.236 284.985 371.894 285.908 371.518 287.026L371.426 287.048ZM371.461 286.991C372.182 286.131 372.785 285.367 373.269 284.698C373.726 284.022 374.203 283.533 374.7 283.232C375.214 282.92 375.662 282.847 376.044 283.014C376.426 283.18 376.716 283.426 376.914 283.751C377.122 284.094 377.206 284.465 377.167 284.864C377.128 285.262 376.851 285.618 376.337 285.93C375.841 286.231 375.206 286.441 374.433 286.558C373.65 286.658 372.684 286.823 371.534 287.052L371.461 286.991ZM371.508 287.068L371.528 286.985C372.65 287.172 373.623 287.308 374.448 287.393C375.263 287.461 375.915 287.628 376.404 287.893C376.931 288.183 377.225 288.532 377.286 288.94C377.329 289.359 377.252 289.734 377.054 290.065C376.86 290.441 376.59 290.71 376.244 290.873C375.87 291.03 375.411 290.969 374.867 290.69C374.367 290.407 373.88 289.953 373.406 289.326C372.915 288.71 372.282 287.957 371.508 287.068ZM370.022 291.802C370.002 291.228 370.146 290.578 370.455 289.851C370.737 289.118 371.074 288.187 371.467 287.058L371.559 287.037C371.96 288.083 372.331 288.983 372.671 289.737C372.995 290.502 373.17 291.157 373.197 291.703C373.21 292.305 373.056 292.727 372.734 292.969C372.395 293.221 372.033 293.359 371.649 293.381C371.236 293.397 370.868 293.293 370.544 293.068C370.209 292.825 370.035 292.403 370.022 291.802ZM366.071 290.333C365.874 290.007 365.794 289.645 365.834 289.246C365.862 288.83 366.134 288.466 366.648 288.154C367.127 287.863 367.767 287.662 368.567 287.552C369.35 287.452 370.32 287.273 371.477 287.016L371.524 287.093C370.813 287.97 370.216 288.743 369.731 289.412C369.247 290.081 368.765 290.561 368.285 290.852C367.771 291.164 367.328 291.245 366.957 291.096C366.574 290.93 366.279 290.675 366.071 290.333Z" fill="#3A001E"/>
<path d="M321.816 274.78C322.111 274.256 322.468 273.974 322.887 273.935C323.296 273.878 323.665 273.95 323.994 274.151C324.351 274.358 324.614 274.645 324.784 275.01C324.955 275.375 324.893 275.819 324.598 276.344C324.311 276.841 323.857 277.332 323.236 277.817C322.605 278.286 321.847 278.911 320.96 279.694L320.863 279.648C321.06 278.528 321.196 277.561 321.272 276.747C321.365 275.923 321.546 275.267 321.816 274.78ZM320.914 279.617C321.964 279.226 322.868 278.864 323.625 278.53C324.382 278.197 325.04 278.028 325.596 278.023C326.198 278.016 326.623 278.182 326.872 278.524C327.129 278.838 327.258 279.192 327.26 279.587C327.272 280 327.155 280.372 326.91 280.704C326.681 281.026 326.267 281.191 325.665 281.199C325.091 281.214 324.434 281.068 323.693 280.763C322.969 280.447 322.05 280.096 320.934 279.71L320.914 279.617ZM320.971 279.653C321.823 280.382 322.582 280.992 323.246 281.482C323.918 281.946 324.402 282.427 324.699 282.927C325.006 283.444 325.075 283.892 324.905 284.273C324.735 284.654 324.486 284.941 324.159 285.136C323.814 285.341 323.443 285.421 323.044 285.378C322.646 285.336 322.293 285.056 321.986 284.539C321.689 284.039 321.486 283.403 321.376 282.629C321.283 281.845 321.127 280.877 320.909 279.725L320.971 279.653ZM320.893 279.699L320.976 279.72C320.778 280.84 320.633 281.811 320.54 282.636C320.465 283.45 320.292 284.1 320.022 284.587C319.727 285.112 319.376 285.402 318.967 285.459C318.547 285.498 318.173 285.418 317.844 285.217C317.47 285.02 317.203 284.747 317.043 284.399C316.89 284.024 316.956 283.566 317.24 283.024C317.527 282.527 317.986 282.044 318.617 281.576C319.238 281.091 319.996 280.465 320.893 279.699ZM316.173 278.169C316.747 278.154 317.396 278.305 318.119 278.62C318.85 278.909 319.778 279.255 320.904 279.658L320.924 279.751C319.874 280.142 318.971 280.504 318.213 280.837C317.445 281.154 316.788 281.323 316.242 281.344C315.64 281.352 315.22 281.194 314.981 280.87C314.732 280.529 314.597 280.165 314.578 279.78C314.566 279.368 314.675 279.001 314.903 278.679C315.148 278.346 315.572 278.176 316.173 278.169ZM317.68 274.232C318.007 274.037 318.37 273.962 318.768 274.005C319.184 274.037 319.545 274.312 319.852 274.829C320.139 275.311 320.334 275.953 320.437 276.754C320.53 277.538 320.699 278.509 320.945 279.668L320.867 279.715C319.998 278.996 319.23 278.391 318.566 277.901C317.901 277.41 317.426 276.923 317.139 276.441C316.832 275.924 316.755 275.48 316.908 275.11C317.078 274.729 317.335 274.437 317.68 274.232Z" fill="#3A001E"/>
<path d="M324.162 278.73C324.456 278.205 324.813 277.923 325.233 277.884C325.642 277.827 326.011 277.899 326.34 278.1C326.696 278.308 326.96 278.594 327.13 278.959C327.3 279.324 327.238 279.769 326.944 280.293C326.657 280.79 326.203 281.281 325.582 281.767C324.951 282.235 324.192 282.86 323.306 283.644L323.208 283.597C323.405 282.477 323.542 281.511 323.618 280.696C323.71 279.872 323.892 279.216 324.162 278.73ZM323.26 283.566C324.31 283.175 325.213 282.813 325.971 282.48C326.728 282.146 327.385 281.977 327.942 281.973C328.543 281.965 328.969 282.132 329.218 282.473C329.475 282.787 329.604 283.141 329.605 283.536C329.617 283.949 329.501 284.321 329.255 284.654C329.027 284.976 328.612 285.14 328.011 285.148C327.437 285.163 326.779 285.018 326.039 284.712C325.315 284.396 324.395 284.045 323.28 283.659L323.26 283.566ZM323.316 283.602C324.169 284.331 324.928 284.941 325.592 285.432C326.264 285.895 326.748 286.376 327.045 286.876C327.352 287.393 327.42 287.842 327.25 288.222C327.08 288.603 326.832 288.891 326.504 289.085C326.16 289.29 325.788 289.371 325.39 289.328C324.991 289.285 324.639 289.005 324.332 288.488C324.035 287.989 323.831 287.352 323.721 286.578C323.628 285.794 323.473 284.826 323.254 283.674L323.316 283.602ZM323.239 283.648L323.321 283.669C323.124 284.789 322.979 285.761 322.886 286.585C322.811 287.399 322.638 288.05 322.368 288.536C322.073 289.061 321.721 289.352 321.312 289.408C320.893 289.448 320.519 289.367 320.19 289.166C319.816 288.969 319.549 288.696 319.389 288.348C319.236 287.973 319.301 287.515 319.586 286.973C319.873 286.476 320.332 285.993 320.963 285.525C321.583 285.04 322.342 284.414 323.239 283.648ZM318.519 282.118C319.093 282.103 319.741 282.254 320.465 282.57C321.196 282.858 322.124 283.204 323.249 283.607L323.27 283.7C322.22 284.091 321.316 284.453 320.559 284.786C319.791 285.103 319.134 285.272 318.588 285.293C317.986 285.301 317.566 285.143 317.327 284.819C317.077 284.478 316.943 284.115 316.924 283.73C316.912 283.317 317.02 282.95 317.248 282.628C317.494 282.296 317.917 282.126 318.519 282.118ZM320.025 278.181C320.352 277.987 320.715 277.911 321.114 277.954C321.529 277.986 321.891 278.261 322.198 278.778C322.485 279.26 322.679 279.902 322.782 280.703C322.875 281.487 323.045 282.459 323.291 283.618L323.213 283.664C322.343 282.945 321.576 282.341 320.912 281.85C320.247 281.359 319.771 280.872 319.485 280.39C319.178 279.873 319.101 279.43 319.253 279.059C319.423 278.678 319.681 278.386 320.025 278.181Z" fill="#3A001E"/>
<path d="M343.445 269.22L343.103 269.586C341.391 268.109 339.512 267.078 337.465 266.493C335.436 265.908 333.107 265.61 330.48 265.601C327.853 265.592 325.514 265.873 323.462 266.443C321.429 267.014 319.551 268.032 317.83 269.497L317.489 269.128C319.107 267.365 320.995 265.962 323.153 264.919C325.328 263.893 327.773 263.385 330.488 263.394C333.202 263.404 335.635 263.929 337.786 264.97C339.954 266.029 341.84 267.445 343.445 269.22Z" fill="#3A001E"/>
<path d="M343.494 255.35C341.876 257.113 339.98 258.508 337.804 259.534C335.646 260.577 333.21 261.094 330.495 261.084C327.781 261.075 325.339 260.541 323.171 259.482C321.021 258.441 319.143 257.033 317.538 255.259L317.881 254.892C319.592 256.369 321.462 257.401 323.492 257.986C325.539 258.571 327.876 258.868 330.503 258.877C333.13 258.887 335.461 258.606 337.494 258.035C339.546 257.464 341.432 256.446 343.154 254.981L343.494 255.35Z" fill="#3A001E"/>
<path d="M354.879 259.963L355.222 259.596C356.933 261.073 358.812 262.105 360.859 262.69C362.889 263.275 365.217 263.572 367.844 263.581C370.471 263.591 372.811 263.31 374.862 262.739C376.895 262.168 378.773 261.15 380.495 259.685L380.835 260.054C379.217 261.817 377.33 263.221 375.172 264.264C372.996 265.29 370.551 265.798 367.836 265.788C365.122 265.779 362.689 265.253 360.538 264.213C358.37 263.154 356.484 261.737 354.879 259.963Z" fill="#3A001E"/>
<path d="M354.829 273.833C356.447 272.069 358.343 270.675 360.519 269.649C362.677 268.606 365.113 268.089 367.828 268.099C370.543 268.108 372.984 268.642 375.152 269.701C377.303 270.742 379.18 272.149 380.786 273.924L380.443 274.291C378.732 272.813 376.861 271.782 374.831 271.197C372.784 270.612 370.447 270.315 367.82 270.305C365.193 270.296 362.863 270.577 360.829 271.148C358.778 271.719 356.891 272.736 355.17 274.202L354.829 273.833Z" fill="#3A001E"/>
<path d="M361.884 235.272L362.15 235.698C360.28 236.969 358.797 238.517 357.702 240.343C356.612 242.152 355.722 244.324 355.033 246.859C354.344 249.395 354.01 251.727 354.03 253.856C354.055 255.968 354.553 258.045 355.522 260.087L355.078 260.32C353.793 258.301 352.927 256.115 352.477 253.76C352.05 251.394 352.192 248.9 352.904 246.281C353.615 243.661 354.752 241.447 356.314 239.639C357.898 237.819 359.755 236.363 361.884 235.272Z" fill="#3A001E"/>
<path d="M348.499 231.635C349.784 233.654 350.64 235.847 351.068 238.213C351.517 240.568 351.386 243.055 350.674 245.675C349.962 248.294 348.814 250.514 347.231 252.335C345.669 254.142 343.823 255.592 341.693 256.683L341.428 256.257C343.298 254.986 344.778 253.447 345.868 251.638C346.963 249.812 347.855 247.631 348.544 245.096C349.233 242.561 349.565 240.237 349.54 238.125C349.52 235.996 349.025 233.91 348.055 231.868L348.499 231.635Z" fill="#3A001E"/>
<path d="M336.419 294.04L336.153 293.614C338.023 292.343 339.505 290.795 340.601 288.969C341.691 287.16 342.581 284.988 343.27 282.453C343.958 279.918 344.293 277.585 344.272 275.456C344.247 273.344 343.75 271.267 342.78 269.225L343.225 268.992C344.509 271.011 345.376 273.197 345.825 275.552C346.253 277.918 346.111 280.412 345.399 283.031C344.687 285.651 343.55 287.865 341.988 289.673C340.405 291.493 338.548 292.949 336.419 294.04Z" fill="#3A001E"/>
<path d="M349.802 297.677C348.518 295.658 347.662 293.465 347.234 291.099C346.785 288.744 346.916 286.257 347.628 283.637C348.34 281.018 349.487 278.798 351.071 276.977C352.633 275.169 354.479 273.72 356.608 272.629L356.874 273.055C355.004 274.325 353.524 275.865 352.433 277.674C351.338 279.5 350.446 281.681 349.757 284.216C349.069 286.751 348.737 289.075 348.762 291.187C348.782 293.316 349.277 295.402 350.247 297.444L349.802 297.677Z" fill="#3A001E"/>
<path d="M303.165 218.785L308.862 221.133L308.45 222.133L303.587 220.129L298.26 233.05L297.427 232.706L303.165 218.785Z" fill="#3A001E"/>
<path d="M321.77 211.095L324.755 216.484L323.809 217.009L321.26 212.408L309.035 219.181L308.598 218.392L321.77 211.095Z" fill="#3A001E"/>
<path d="M340.863 207.162L342.739 213.031L341.708 213.36L340.107 208.35L326.794 212.604L326.52 211.745L340.863 207.162Z" fill="#3A001E"/>
<path d="M359.472 201.217L361.347 207.086L360.316 207.415L358.715 202.405L345.402 206.658L345.128 205.799L359.472 201.217Z" fill="#3A001E"/>
<path d="M377.467 210.122L375.34 215.905L374.324 215.532L376.14 210.595L363.023 205.771L363.334 204.924L377.467 210.122Z" fill="#3A001E"/>
<path d="M389.983 225.549L385.837 230.107L385.037 229.379L388.575 225.488L378.235 216.085L378.842 215.418L389.983 225.549Z" fill="#3A001E"/>
<path d="M404.385 238.645L400.24 243.204L399.439 242.476L402.978 238.584L392.638 229.182L393.244 228.515L404.385 238.645Z" fill="#3A001E"/>
<path d="M410.779 256.707L405.015 258.883L404.633 257.871L409.554 256.013L404.617 242.938L405.461 242.619L410.779 256.707Z" fill="#3A001E"/>
<path d="M403.742 275.635L397.722 274.324L397.952 273.267L403.091 274.386L406.064 260.729L406.945 260.921L403.742 275.635Z" fill="#3A001E"/>
<path d="M399.613 294.601L393.593 293.29L393.823 292.233L398.962 293.352L401.935 279.696L402.816 279.887L399.613 294.601Z" fill="#3A001E"/>
<path d="M390.969 311.607L385.556 308.662L386.073 307.712L390.694 310.225L397.373 297.949L398.165 298.38L390.969 311.607Z" fill="#3A001E"/>
<path d="M371.617 317.22L369.23 311.54L370.227 311.12L372.265 315.969L385.15 310.554L385.499 311.385L371.617 317.22Z" fill="#3A001E"/>
<path d="M352.806 322.106L350.93 316.237L351.961 315.908L353.562 320.918L366.875 316.665L367.149 317.523L352.806 322.106Z" fill="#3A001E"/>
<path d="M334.018 326.673L332.7 320.654L333.757 320.422L334.882 325.56L348.535 322.571L348.728 323.451L334.018 326.673Z" fill="#3A001E"/>
<path d="M317.117 315.718L319.847 310.194L320.817 310.673L318.486 315.389L331.016 321.581L330.616 322.389L317.117 315.718Z" fill="#3A001E"/>
<path d="M304.432 300.658L308.578 296.099L309.378 296.827L305.84 300.719L316.18 310.121L315.573 310.789L304.432 300.658Z" fill="#3A001E"/>
<path d="M290.078 287.606L294.223 283.048L295.024 283.775L291.485 287.667L301.825 297.07L301.219 297.737L290.078 287.606Z" fill="#3A001E"/>
<path d="M286.419 268.475L292.381 266.92L292.654 267.967L287.564 269.294L291.09 282.818L290.218 283.046L286.419 268.475Z" fill="#3A001E"/>
<path d="M293.611 249.705L299.632 251.016L299.402 252.073L294.262 250.954L291.289 264.611L290.408 264.419L293.611 249.705Z" fill="#3A001E"/>
<path d="M297.737 230.756L303.758 232.066L303.528 233.123L298.388 232.005L295.415 245.661L294.534 245.469L297.737 230.756Z" fill="#3A001E"/>
<path d="M401.802 278.402L397.593 275.326L397.053 276.065L400.646 278.691L393.668 288.238L394.284 288.688L401.802 278.402Z" fill="#3A001E"/>
<path d="M399.143 261.578L393.934 261.8L393.973 262.715L398.42 262.525L398.925 274.339L399.688 274.307L399.143 261.578Z" fill="#3A001E"/>
<path d="M393.557 246.057L388.492 247.294L388.709 248.183L393.033 247.128L395.837 258.615L396.578 258.434L393.557 246.057Z" fill="#3A001E"/>
<path d="M389.637 230.001L384.572 231.237L384.789 232.127L389.113 231.071L391.917 242.559L392.658 242.378L389.637 230.001Z" fill="#3A001E"/>
<path d="M375.266 220.94L372.03 225.027L372.748 225.596L375.51 222.106L384.781 229.447L385.255 228.848L375.266 220.94Z" fill="#3A001E"/>
<path d="M358.606 218.713L357.145 223.717L358.023 223.974L359.271 219.702L370.622 223.017L370.836 222.285L358.606 218.713Z" fill="#3A001E"/>
<path d="M342.797 214.096L341.335 219.1L342.214 219.356L343.462 215.085L354.812 218.4L355.026 217.667L342.797 214.096Z" fill="#3A001E"/>
<path d="M326.935 217.449L327.908 222.571L328.807 222.4L327.977 218.028L339.595 215.821L339.452 215.072L326.935 217.449Z" fill="#3A001E"/>
<path d="M316.377 230.882L319.98 234.65L320.641 234.017L317.566 230.801L326.112 222.628L325.585 222.077L316.377 230.882Z" fill="#3A001E"/>
<path d="M304.509 242.232L308.112 246L308.773 245.367L305.698 242.151L314.244 233.978L313.717 233.427L304.509 242.232Z" fill="#3A001E"/>
<path d="M296.047 255.978L300.561 258.586L301.019 257.793L297.165 255.567L303.081 245.328L302.42 244.946L296.047 255.978Z" fill="#3A001E"/>
<path d="M300.534 272.425L305.688 271.642L305.551 270.737L301.151 271.406L299.374 259.715L298.62 259.829L300.534 272.425Z" fill="#3A001E"/>
<path d="M305.308 288.162L310.372 286.926L310.155 286.036L305.832 287.092L303.027 275.604L302.286 275.785L305.308 288.162Z" fill="#3A001E"/>
<path d="M310.303 303.74L315.229 302.035L314.93 301.17L310.724 302.625L306.858 291.45L306.137 291.699L310.303 303.74Z" fill="#3A001E"/>
<path d="M325.669 311.106L328.452 306.698L327.678 306.209L325.302 309.972L315.303 303.66L314.896 304.305L325.669 311.106Z" fill="#3A001E"/>
<path d="M342.139 313.618L343.6 308.613L342.722 308.357L341.474 312.629L330.123 309.313L329.909 310.046L342.139 313.618Z" fill="#3A001E"/>
<path d="M357.894 318.22L359.355 313.215L358.477 312.959L357.229 317.231L345.878 313.915L345.664 314.648L357.894 318.22Z" fill="#3A001E"/>
<path d="M373.321 312.418L371.812 307.428L370.936 307.693L372.224 311.953L360.905 315.376L361.126 316.106L373.321 312.418Z" fill="#3A001E"/>
<path d="M383.696 298.943L380.093 295.175L379.431 295.808L382.507 299.024L373.96 307.197L374.487 307.748L383.696 298.943Z" fill="#3A001E"/>
<path d="M395.555 287.603L391.952 283.835L391.29 284.468L394.366 287.684L385.819 295.857L386.347 296.408L395.555 287.603Z" fill="#3A001E"/>
</svg>
