<svg width="1153" height="1806" viewBox="0 0 1153 1806" fill="none" xmlns="http://www.w3.org/2000/svg">
<path fill-rule="evenodd" clip-rule="evenodd" d="M1120.05 1090C1120.31 1089.14 1120.68 1088.28 1121.16 1087.45C1122.88 1084.47 1125.34 1082.46 1128.55 1081.41C1131.75 1080.35 1135.07 1080.82 1138.5 1082.8C1141.71 1084.65 1143.71 1087.26 1144.52 1090.63C1145.32 1093.99 1144.87 1097.16 1143.15 1100.14C1141.69 1102.66 1139.99 1104.42 1138.03 1105.43C1136.08 1106.44 1134 1107 1131.8 1107.1C1129.24 1107.3 1126.78 1106.95 1124.4 1106.04C1122.03 1105.12 1120.15 1104.27 1118.78 1103.48C1113.62 1100.49 1109.59 1096.55 1106.7 1091.65C1106.45 1091.22 1106.21 1090.79 1105.97 1090.36C1105.18 1088.87 1104.52 1087.3 1103.99 1085.66C1103.98 1085.62 1103.97 1085.59 1103.96 1085.56C1102.99 1082.49 1102.46 1079.14 1102.38 1075.52C1102.36 1074.65 1102.37 1073.77 1102.4 1072.88C1102.43 1072.1 1102.48 1071.31 1102.54 1070.52L1106.53 1070.76C1106.52 1070.79 1106.52 1070.82 1106.52 1070.85C1106.38 1071.95 1106.32 1073.05 1106.33 1074.14C1106.35 1077.41 1107.01 1080.67 1108.31 1083.92C1108.89 1085.45 1109.55 1086.82 1110.32 1088.05C1110.51 1088.36 1110.71 1088.66 1110.92 1088.96C1111.98 1090.47 1113.2 1091.72 1114.58 1092.72C1114.98 1093.01 1115.4 1093.28 1115.82 1093.53C1117.2 1094.32 1118.5 1094.84 1119.73 1095.09C1119.45 1093.34 1119.55 1091.64 1120.05 1090ZM1115.79 1087.08C1116.08 1086.36 1116.43 1085.65 1116.83 1084.95C1119.15 1080.93 1122.59 1078.1 1126.99 1076.66C1131.78 1075.08 1136.57 1075.92 1141 1078.47C1145.3 1080.96 1148.23 1084.66 1149.38 1089.46C1150.48 1094.07 1149.84 1098.55 1147.48 1102.64C1145.7 1105.73 1143.36 1108.31 1140.32 1109.88C1137.75 1111.2 1135 1111.94 1132.12 1112.09C1128.85 1112.34 1125.66 1111.88 1122.61 1110.7C1120.12 1109.74 1117.97 1108.78 1116.28 1107.81C1109.89 1104.12 1104.94 1099.07 1101.56 1092.7C1098.08 1086.17 1096.86 1078.55 1097.56 1070.1L1097.97 1065.23L1112.16 1066.08L1111.49 1071.39C1111.04 1074.9 1111.5 1078.43 1112.96 1082.06L1112.98 1082.11L1113 1082.16C1113.79 1084.27 1114.73 1085.87 1115.79 1087.08Z" fill="white"/>
<path fill-rule="evenodd" clip-rule="evenodd" d="M0.785156 1803.94L10.3597 1693.72L88.6184 1771.93L74.7157 1785.98L26.4219 1737.78L20.4689 1805.75L0.785156 1803.94ZM21.1219 1723.24L74.6856 1776.7L79.3805 1771.95L15.6679 1708.28L7.87299 1798.02L14.5192 1798.63L21.1219 1723.24Z" fill="white"/>
<path d="M1099 1691.11L1059.15 1744.58L1048.47 1736.62L1088.32 1683.15L1099 1691.11ZM1139.69 1636.51L1103.43 1685.15L1092.76 1677.2L1129.02 1628.55L1139.69 1636.51Z" fill="#F0572F"/>
<path fill-rule="evenodd" clip-rule="evenodd" d="M1060.17 1751.57L1041.47 1737.64L1128 1621.56L1146.69 1635.49L1060.17 1751.57ZM1099 1691.11L1059.15 1744.58L1048.47 1736.62L1088.32 1683.15L1099 1691.11ZM1139.69 1636.51L1103.43 1685.15L1092.76 1677.2L1129.02 1628.55L1139.69 1636.51Z" fill="black"/>
<path fill-rule="evenodd" clip-rule="evenodd" d="M37.5542 1581.79L33.1026 1570.62L37.4995 1568.67C41.7134 1566.8 45.7215 1565.28 49.5184 1564.12C53.1637 1562.97 56.7192 1562.12 60.1811 1561.58C62.6064 1561.15 64.9817 1560.86 67.3052 1560.7C60.9373 1558.91 54.6859 1558.33 48.5225 1558.89L48.5139 1558.89C41.5742 1559.52 34.2491 1561.22 26.5256 1564.04L21.9624 1565.71L17.5078 1554.53L21.9153 1552.59C27.5064 1550.11 32.7362 1548.22 37.5921 1546.94L37.614 1546.94L37.6359 1546.93C42.3547 1545.73 46.8757 1544.96 51.1901 1544.64C53.506 1544.46 55.8289 1544.39 58.1582 1544.43C58.2201 1542.03 58.4154 1539.63 58.7434 1537.22C59.2706 1532.86 60.2811 1528.28 61.7471 1523.5C63.2374 1518.63 65.3512 1513.41 68.055 1507.84L70.1499 1503.53L81.1606 1508.32L79.3508 1512.83C76.2899 1520.46 74.3992 1527.68 73.6192 1534.52L73.6146 1534.56L73.6094 1534.6C72.8504 1540.42 73.1283 1546.32 74.472 1552.32C74.7546 1550.44 75.1297 1548.51 75.5947 1546.55C76.3028 1543.06 77.3546 1539.46 78.7322 1535.76C80.0064 1532.02 81.6475 1528.08 83.6397 1523.94L85.7273 1519.61L96.7524 1524.4L94.9426 1528.91C91.8817 1536.54 89.991 1543.76 89.211 1550.6L89.2064 1550.64L89.2012 1550.68C88.3327 1557.34 88.8218 1564.1 90.7119 1571.01L91.492 1573.86L87.1549 1578.07L84.3289 1577.2C77.4655 1575.09 70.7391 1574.37 64.1143 1574.97L64.1057 1574.98C57.166 1575.6 49.8409 1577.3 42.1174 1580.12L37.5542 1581.79ZM73.7682 1559.85L73.0501 1560.54C73.2813 1560.55 73.5125 1560.55 73.7439 1560.55C73.7506 1560.32 73.7587 1560.08 73.7682 1559.85ZM78.7397 1560.77C78.6955 1562.41 78.725 1564.03 78.8284 1565.63C78.832 1565.69 78.8356 1565.74 78.8393 1565.8C77.1553 1565.67 75.4804 1565.59 73.8145 1565.55C72.5586 1565.53 71.3079 1565.54 70.0623 1565.57C67.8822 1565.63 65.6316 1565.82 63.3107 1566.15C63.3085 1566.15 63.3063 1566.15 63.3041 1566.15C62.5422 1566.25 61.7727 1566.38 60.9956 1566.51C57.7896 1567.01 54.4582 1567.8 51.0015 1568.89C47.4421 1569.98 43.6384 1571.42 39.5902 1573.21C39.5696 1573.22 39.549 1573.23 39.5285 1573.24L40.3998 1575.43C40.4283 1575.42 40.4567 1575.41 40.4852 1575.4C44.374 1573.98 48.1887 1572.82 51.9291 1571.94C51.9397 1571.93 51.9502 1571.93 51.9608 1571.93C55.2184 1571.15 58.4198 1570.58 61.5648 1570.21C61.5919 1570.21 61.6189 1570.21 61.6459 1570.2C62.3189 1570.12 62.9894 1570.06 63.6573 1570C65.8231 1569.8 67.9949 1569.73 70.1727 1569.79C72.928 1569.87 75.6927 1570.15 78.467 1570.64C78.8806 1570.72 79.2945 1570.79 79.7085 1570.88C79.9399 1570.92 80.1713 1570.97 80.4028 1571.02C82.1604 1571.39 83.9217 1571.85 85.6869 1572.39C85.7237 1572.4 85.7604 1572.41 85.7972 1572.42L85.8891 1572.33C85.8789 1572.29 85.8688 1572.26 85.8588 1572.22C85.3755 1570.44 84.9767 1568.67 84.6624 1566.9C84.1966 1564.27 83.9165 1561.66 83.822 1559.06C83.8017 1558.5 83.79 1557.94 83.7868 1557.39C83.7866 1557.36 83.7864 1557.33 83.7863 1557.3C83.7764 1554.87 83.9287 1552.45 84.2432 1550.04C84.299 1549.55 84.3599 1549.06 84.4261 1548.57C84.4325 1548.52 84.439 1548.47 84.4455 1548.42C84.8865 1545.2 85.5525 1541.91 86.4435 1538.56C86.4518 1538.53 86.4602 1538.5 86.4686 1538.47C87.4596 1534.76 88.7262 1530.99 90.2685 1527.13C90.2798 1527.11 90.2911 1527.08 90.3024 1527.05L88.1444 1526.11C88.1347 1526.13 88.1249 1526.15 88.1152 1526.17C86.1956 1530.16 84.6381 1533.92 83.4427 1537.44C82.1206 1540.98 81.1326 1544.38 80.4787 1547.63C80.3291 1548.25 80.1896 1548.88 80.0604 1549.49C80.0557 1549.51 80.051 1549.54 80.0463 1549.56C79.5147 1552.11 79.1582 1554.56 78.9768 1556.93C78.9107 1557.62 78.8573 1558.31 78.8167 1558.99C78.7814 1559.59 78.7557 1560.18 78.7397 1560.77ZM63.2238 1542.87C63.1911 1543.48 63.1676 1544.08 63.1534 1544.68C63.1149 1546.31 63.143 1547.93 63.2377 1549.55C63.2409 1549.6 63.2441 1549.66 63.2475 1549.71C61.5682 1549.56 59.8935 1549.46 58.2235 1549.43C55.9981 1549.39 53.7808 1549.45 51.5718 1549.62C50.3113 1549.72 49.0261 1549.85 47.7161 1550.03C47.7138 1550.03 47.7116 1550.03 47.7094 1550.03C44.8772 1550.42 41.9292 1551 38.8654 1551.78C34.3382 1552.97 29.3825 1554.76 23.9984 1557.13C23.9778 1557.14 23.9573 1557.15 23.9367 1557.16L24.808 1559.35C24.8352 1559.34 24.8625 1559.33 24.8897 1559.32C29.9567 1557.47 34.8977 1556.07 39.7128 1555.12C39.7231 1555.12 39.7333 1555.11 39.7435 1555.11C42.5606 1554.56 45.3346 1554.16 48.0655 1553.91C49.3345 1553.8 50.6055 1553.72 51.8786 1553.7C51.8824 1553.7 51.8863 1553.7 51.8901 1553.7C55.5104 1553.62 59.147 1553.9 62.8002 1554.55C63.301 1554.63 63.8021 1554.73 64.3035 1554.83C64.4726 1554.87 64.6418 1554.9 64.811 1554.94C66.5686 1555.31 68.3299 1555.76 70.0951 1556.3C70.1319 1556.32 70.1686 1556.33 70.2054 1556.34L70.2973 1556.25C70.2872 1556.21 70.277 1556.17 70.267 1556.14C69.7837 1554.36 69.3849 1552.58 69.0706 1550.81C68.602 1548.17 68.3213 1545.55 68.2285 1542.93C68.1758 1541.44 68.1836 1539.96 68.2518 1538.48C68.253 1538.46 68.2542 1538.43 68.2554 1538.41C68.3262 1536.92 68.4582 1535.44 68.6514 1533.95C68.9485 1531.35 69.3941 1528.7 69.9882 1526.02C71.0636 1521.16 72.6255 1516.17 74.6739 1511.06C74.6861 1511.03 74.6983 1511 74.7106 1510.97L72.5526 1510.03C72.5428 1510.05 72.533 1510.07 72.5232 1510.09C69.9194 1515.46 67.921 1520.41 66.5278 1524.96C65.6328 1527.88 64.9248 1530.7 64.4039 1533.4C64.3995 1533.42 64.3952 1533.45 64.3908 1533.47C64.1041 1534.97 63.8747 1536.43 63.7028 1537.86C63.4734 1539.54 63.3137 1541.21 63.2238 1542.87Z" fill="#F0572F"/>
<path d="M40.3996 1575.43L39.5283 1573.24C43.5996 1571.43 47.4239 1569.98 51.0013 1568.89C54.458 1567.8 57.7894 1567.01 60.9955 1566.51C64.1421 1565.96 67.1643 1565.64 70.0622 1565.57C72.96 1565.49 75.8857 1565.57 78.8391 1565.79C78.6427 1562.9 78.6885 1559.94 78.9766 1556.93C79.2035 1553.97 79.7041 1550.87 80.4786 1547.63C81.1324 1544.38 82.1204 1540.98 83.4426 1537.44C84.6441 1533.9 86.2113 1530.12 88.1443 1526.11L90.3022 1527.05C87.1009 1535.03 85.0812 1542.69 84.2431 1550.04C83.2843 1557.39 83.833 1564.82 85.889 1572.33L85.7971 1572.42C78.3495 1570.13 70.9695 1569.32 63.6571 1570C56.2241 1570.66 48.4716 1572.48 40.3996 1575.43ZM24.8078 1559.35L23.9365 1557.16C29.3445 1554.77 34.3207 1552.98 38.8653 1551.78C43.3486 1550.64 47.5841 1549.92 51.5716 1549.62C55.4385 1549.32 59.3304 1549.35 63.2474 1549.71C63.0065 1545.79 63.1582 1541.84 63.7026 1537.86C64.1876 1533.83 65.1293 1529.53 66.5277 1524.96C67.9261 1520.4 69.9344 1515.42 72.5525 1510.03L74.7104 1510.97C71.5091 1518.94 69.4894 1526.61 68.6513 1533.95C67.6925 1541.3 68.2412 1548.73 70.2972 1556.25L70.2053 1556.34C62.7577 1554.05 55.3777 1553.24 48.0653 1553.91C40.6323 1554.58 32.8798 1556.39 24.8078 1559.35Z" fill="black"/>
<path d="M951.435 5.92383L939.256 68.8306H936.744L948.924 5.92383H951.435ZM961.731 47.9872L961.229 50.4985H898.322L898.825 47.9872H961.731ZM927.955 5.92383L915.775 68.8306H913.264L925.444 5.92383H927.955ZM966.252 24.5071L965.875 27.0183H902.968L903.345 24.5071H966.252Z" fill="#F0572F"/>
<path fill-rule="evenodd" clip-rule="evenodd" d="M957.496 0.923828L953.898 19.5071H972.058L970.181 32.0183H951.476L949.352 42.9872H967.831L965.328 55.4985H946.93L943.381 73.8306H930.684L934.233 55.4985H923.45L919.901 73.8306H907.204L910.753 55.4985H892.224L894.726 42.9872H913.175L915.299 32.0183H897.163L899.039 19.5071H917.721L921.319 0.923828H934.016L930.418 19.5071H941.202L944.799 0.923828H957.496ZM945.326 24.5071H924.357L927.955 5.92383H925.444L921.846 24.5071H903.345L902.968 27.0183H921.36L917.3 47.9872H898.825L898.323 50.4985H916.814L913.265 68.8306H915.776L919.325 50.4985H940.294L936.745 68.8306H939.256L942.805 50.4985H961.229L961.732 47.9872H943.292L947.351 27.0183H965.875L966.252 24.5071H947.838L951.436 5.92383H948.924L945.326 24.5071ZM944.84 27.0183H923.871L919.811 47.9872H940.78L944.84 27.0183ZM927.996 32.0183H938.779L936.655 42.9872H925.872L927.996 32.0183Z" fill="black"/>
<path d="M1129.61 231.34C1134.28 234.034 1137.88 237.2 1140.42 240.839C1143 244.404 1144.38 248.261 1144.55 252.409C1144.84 256.526 1143.79 260.658 1141.4 264.806C1139 268.953 1135.79 272.036 1131.76 274.055C1127.8 276.116 1123.28 277.205 1118.17 277.32C1113.19 277.404 1107.85 276.643 1102.16 275.037L1092.8 291.256L1090.57 289.973L1100.52 272.754C1106.55 273.768 1111.43 273.869 1115.15 273.058C1118.88 272.247 1121.9 270.781 1124.21 268.659C1126.6 266.58 1128.62 264.096 1130.29 261.208C1134.35 254.172 1135.84 248.265 1134.74 243.487C1133.65 238.709 1130.81 234.994 1126.22 232.343C1124.44 231.317 1122.33 230.443 1119.88 229.721C1117.51 229.043 1115.22 229.154 1113.02 230.057C1114.26 231.166 1115.01 232.436 1115.26 233.87C1115.6 235.345 1115.31 236.861 1114.42 238.416C1113.35 240.268 1111.9 241.407 1110.07 241.834C1108.29 242.187 1106.55 241.871 1104.84 240.888C1103.14 239.904 1102.05 238.536 1101.58 236.784C1101.11 235.032 1101.37 233.304 1102.35 231.6C1103.25 230.045 1104.57 228.879 1106.3 228.102C1108.08 227.25 1110.04 226.755 1112.19 226.616C1114.35 226.477 1116.88 226.706 1119.8 227.303C1122.78 227.942 1126.06 229.288 1129.61 231.34ZM1084.1 304.01C1086.03 305.122 1087.29 306.787 1087.88 309.007C1088.48 311.227 1088.22 313.299 1087.11 315.225C1085.99 317.15 1084.33 318.41 1082.11 319.005C1079.89 319.6 1077.82 319.341 1075.89 318.23C1073.96 317.118 1072.7 315.452 1072.11 313.233C1071.52 311.013 1071.77 308.941 1072.89 307.015C1074 305.089 1075.66 303.829 1077.88 303.234C1080.1 302.64 1082.17 302.898 1084.1 304.01Z" fill="black"/>
<path fill-rule="evenodd" clip-rule="evenodd" d="M1131.66 236.95C1130.72 235.745 1129.58 234.655 1128.26 233.678C1127.62 233.207 1126.94 232.762 1126.22 232.343C1124.44 231.317 1122.33 230.443 1119.88 229.721C1119.7 229.669 1119.51 229.621 1119.33 229.578C1119.32 229.576 1119.32 229.575 1119.31 229.573C1118.56 229.398 1117.82 229.303 1117.09 229.287C1115.71 229.256 1114.35 229.513 1113.02 230.057C1113.05 230.086 1113.08 230.114 1113.12 230.143C1114.08 231.029 1114.73 232.017 1115.07 233.107C1115.15 233.356 1115.22 233.61 1115.26 233.869C1115.6 235.345 1115.31 236.861 1114.42 238.416C1113.35 240.268 1111.9 241.407 1110.07 241.834C1108.29 242.186 1106.55 241.871 1104.84 240.888C1103.14 239.904 1102.05 238.536 1101.58 236.784C1101.11 235.032 1101.37 233.304 1102.35 231.6C1103.25 230.045 1104.57 228.879 1106.3 228.102C1108.02 227.276 1109.92 226.786 1112 226.63C1112.06 226.625 1112.13 226.621 1112.19 226.616C1114.35 226.477 1116.88 226.706 1119.8 227.303C1120.04 227.354 1120.28 227.41 1120.52 227.471C1120.53 227.472 1120.54 227.474 1120.54 227.475C1122.71 228.015 1125.02 228.914 1127.47 230.172C1128.17 230.532 1128.89 230.921 1129.61 231.34C1131.26 232.294 1132.78 233.306 1134.17 234.378C1136.69 236.335 1138.78 238.488 1140.42 240.839C1143 244.404 1144.38 248.261 1144.55 252.409C1144.84 256.526 1143.79 260.658 1141.39 264.806C1139 268.953 1135.79 272.036 1131.76 274.055C1127.8 276.116 1123.28 277.204 1118.17 277.32C1116.29 277.351 1114.35 277.262 1112.36 277.052C1109.4 276.739 1106.34 276.158 1103.15 275.31C1102.82 275.222 1102.49 275.131 1102.16 275.037L1092.8 291.256L1090.57 289.973L1100.52 272.754C1101.26 272.88 1102 272.992 1102.71 273.09C1106.42 273.598 1109.65 273.725 1112.4 273.472C1113.38 273.382 1114.3 273.244 1115.15 273.058C1118.88 272.247 1121.9 270.781 1124.21 268.659C1126.6 266.58 1128.62 264.096 1130.29 261.208C1134.35 254.172 1135.84 248.265 1134.74 243.487C1134.18 241.026 1133.15 238.847 1131.66 236.95ZM1103.89 279.172L1094.1 296.124L1085.71 291.278L1098.67 268.83L1101.11 269.24C1106.93 270.218 1111.3 270.25 1114.4 269.576C1117.64 268.871 1120.04 267.646 1121.8 266.034L1121.83 266.003L1121.87 265.973C1123.94 264.166 1125.72 261.993 1127.2 259.426C1131.09 252.689 1132.07 247.761 1131.27 244.281C1130.42 240.554 1128.25 237.63 1124.44 235.429C1122.96 234.575 1121.12 233.803 1118.89 233.143C1118.84 233.13 1118.79 233.117 1118.75 233.104C1118.75 233.123 1118.75 233.142 1118.76 233.161C1119.29 235.643 1118.75 238.043 1117.5 240.198C1116.02 242.771 1113.81 244.62 1110.88 245.304L1110.82 245.317L1110.76 245.329C1108.06 245.864 1105.45 245.35 1103.06 243.973C1100.61 242.561 1098.88 240.453 1098.14 237.706C1097.41 234.96 1097.86 232.265 1099.27 229.819C1100.55 227.59 1102.44 225.935 1104.8 224.869C1107.01 223.815 1109.41 223.225 1111.96 223.06C1114.53 222.895 1117.39 223.174 1120.51 223.812L1120.54 223.818C1123.99 224.556 1127.62 226.075 1131.39 228.254C1136.4 231.148 1140.43 234.636 1143.32 238.774C1146.27 242.849 1147.9 247.349 1148.11 252.21C1148.45 257.127 1147.16 261.942 1144.48 266.587C1141.77 271.29 1138.06 274.877 1133.38 277.228C1128.88 279.567 1123.81 280.757 1118.25 280.882L1118.23 280.882C1113.66 280.959 1108.87 280.378 1103.89 279.172ZM1085.88 300.924C1088.66 302.526 1090.49 304.986 1091.32 308.085C1092.15 311.183 1091.79 314.232 1090.19 317.006C1088.59 319.78 1086.13 321.617 1083.03 322.447C1079.93 323.277 1076.88 322.917 1074.11 321.316C1071.33 319.714 1069.5 317.253 1068.67 314.155C1067.84 311.057 1068.2 308.007 1069.8 305.233C1071.4 302.459 1073.86 300.623 1076.96 299.793C1080.06 298.962 1083.11 299.322 1085.88 300.924ZM1087.88 309.007C1087.29 306.787 1086.03 305.122 1084.1 304.01C1082.17 302.898 1080.1 302.64 1077.88 303.234C1075.66 303.829 1074 305.089 1072.88 307.015C1071.77 308.94 1071.51 311.013 1072.11 313.233C1072.7 315.452 1073.96 317.118 1075.89 318.23C1077.82 319.341 1079.89 319.6 1082.11 319.005C1084.33 318.41 1085.99 317.15 1087.1 315.225C1088.22 313.299 1088.47 311.226 1087.88 309.007Z" fill="white"/>
<path d="M126.925 324.103L125.796 322.1L123.706 323.058C112.337 328.265 102.306 335.442 93.6256 344.576L93.6256 344.576L93.6198 344.582C84.9793 353.736 78.5252 365.083 74.2195 378.557C69.9136 392.032 68.5794 405.059 70.2814 417.606L70.283 417.619L70.2848 417.631C72.0883 430.02 76.1126 441.638 82.353 452.469L83.5008 454.461L85.582 453.484L87.8952 452.397L90.0698 451.376L89.1357 449.163C84.791 438.867 82.8036 428.549 83.1362 418.186C83.4997 407.628 85.6684 396.07 89.6855 383.499C93.7031 370.927 98.6245 360.297 104.422 351.572L104.425 351.567C110.192 342.845 117.808 335.551 127.315 329.685L129.359 328.423L128.18 326.33L126.925 324.103Z" fill="#3A001E" stroke="black" stroke-width="5"/>
<path d="M472.563 487.355C469.54 488.165 466.901 488.21 464.645 487.489C462.39 486.767 460.387 485.611 458.635 484.018C456.534 482.225 454.928 480.078 453.816 477.578C452.704 475.077 451.927 473.003 451.486 471.354C449.682 464.621 449.761 458.046 451.723 451.629C453.686 445.212 457.848 439.31 464.21 433.924L467.059 437.137C463.278 440.065 460.392 443.857 458.4 448.515C456.27 453.209 455.739 457.548 456.807 461.533C457.249 463.182 457.842 464.57 458.585 465.696C460.305 463.321 462.608 461.746 465.493 460.973C469.066 460.016 472.471 460.355 475.707 461.992C478.944 463.628 481.115 466.507 482.219 470.63C483.25 474.477 482.792 477.987 480.844 481.16C478.895 484.333 476.135 486.398 472.563 487.355ZM507.602 477.967C504.579 478.777 501.94 478.821 499.685 478.1C497.43 477.379 495.426 476.222 493.674 474.63C491.573 472.836 489.967 470.689 488.855 468.189C487.743 465.689 486.967 463.614 486.525 461.965C484.721 455.232 484.8 448.657 486.762 442.24C488.725 435.823 492.887 429.922 499.249 424.535L502.098 427.748C498.317 430.676 495.431 434.468 493.439 439.126C491.309 443.82 490.778 448.16 491.846 452.145C492.288 453.793 492.881 455.181 493.624 456.307C495.344 453.932 497.647 452.357 500.533 451.584C504.105 450.627 507.51 450.967 510.747 452.603C513.983 454.239 516.154 457.119 517.258 461.241C518.289 465.088 517.831 468.599 515.883 471.771C513.935 474.944 511.174 477.009 507.602 477.967Z" fill="black"/>
<path fill-rule="evenodd" clip-rule="evenodd" d="M462.367 462.253C460.891 463.104 459.63 464.252 458.585 465.696C457.842 464.57 457.249 463.182 456.807 461.533C456.709 461.167 456.624 460.798 456.553 460.427C455.855 456.771 456.458 452.826 458.364 448.593C458.376 448.567 458.388 448.541 458.4 448.515C459.881 445.051 461.857 442.066 464.327 439.56C465.156 438.718 466.041 437.931 466.982 437.197C467.007 437.177 467.033 437.157 467.059 437.137L464.21 433.924C463.552 434.481 462.917 435.044 462.306 435.612C461.697 436.179 461.11 436.752 460.547 437.33C457.73 440.223 455.499 443.254 453.856 446.423C452.977 448.119 452.266 449.854 451.723 451.629C449.761 458.046 449.682 464.621 451.486 471.354C451.927 473.003 452.704 475.077 453.816 477.578C454.928 480.078 456.534 482.225 458.635 484.018C460.387 485.611 462.39 486.767 464.645 487.489C466.901 488.21 469.54 488.166 472.563 487.356C476.135 486.398 478.895 484.333 480.844 481.16C482.792 477.987 483.25 474.477 482.219 470.63C481.115 466.507 478.944 463.628 475.707 461.992C472.471 460.355 469.066 460.016 465.493 460.973C464.362 461.276 463.319 461.703 462.367 462.253ZM455.329 487.771C452.695 485.507 450.655 482.774 449.247 479.609C448.085 476.994 447.193 474.653 446.656 472.648C444.619 465.047 444.694 457.516 446.942 450.167C449.246 442.633 454.063 435.964 460.979 430.108L464.709 426.95L474.346 437.818L470.12 441.09C467.052 443.466 464.675 446.558 462.997 450.481L462.975 450.531L462.953 450.58C461.82 453.079 461.312 455.263 461.275 457.195C462.202 456.768 463.178 456.417 464.199 456.143C468.934 454.875 473.605 455.326 477.963 457.53C479.006 458.057 479.963 458.671 480.836 459.365C479.748 453.086 480.118 446.87 481.981 440.778C484.285 433.245 489.102 426.575 496.019 420.719L499.748 417.562L509.385 428.43L505.16 431.702C502.091 434.077 499.714 437.169 498.036 441.092L498.015 441.142L497.992 441.191C496.859 443.69 496.351 445.874 496.314 447.806C497.241 447.379 498.217 447.028 499.238 446.755C503.973 445.486 508.644 445.937 513.002 448.141C517.735 450.534 520.687 454.717 522.088 459.947C523.447 465.017 522.864 469.956 520.144 474.388C517.531 478.643 513.713 481.506 508.896 482.796C505.239 483.776 501.58 483.956 498.162 482.862C495.249 481.931 492.638 480.43 490.369 478.382C489.403 477.553 488.518 476.66 487.714 475.706C487.525 478.516 486.668 481.23 485.105 483.776C482.492 488.031 478.674 490.894 473.857 492.185C470.199 493.165 466.541 493.344 463.122 492.251C460.21 491.32 457.598 489.818 455.329 487.771ZM493.674 474.63C495.426 476.222 497.43 477.379 499.685 478.1C501.94 478.821 504.579 478.777 507.602 477.967C511.174 477.01 513.935 474.944 515.883 471.772C517.831 468.599 518.289 465.088 517.258 461.241C516.154 457.119 513.983 454.239 510.747 452.603C507.51 450.967 504.105 450.627 500.533 451.584C499.401 451.888 498.359 452.314 497.406 452.864C495.93 453.716 494.67 454.864 493.624 456.307C492.881 455.181 492.288 453.793 491.846 452.145C491.748 451.779 491.664 451.41 491.593 451.038C490.894 447.382 491.497 443.438 493.404 439.204C493.415 439.178 493.427 439.152 493.439 439.126C494.92 435.663 496.896 432.678 499.366 430.171C500.196 429.33 501.08 428.542 502.021 427.809C502.047 427.788 502.073 427.768 502.098 427.748L499.249 424.535C498.591 425.092 497.957 425.655 497.346 426.223C496.736 426.79 496.15 427.363 495.587 427.941C492.769 430.834 490.539 433.865 488.896 437.034C488.016 438.73 487.305 440.465 486.762 442.24C484.8 448.657 484.721 455.232 486.525 461.965C486.967 463.614 487.743 465.689 488.855 468.189C489.967 470.689 491.573 472.836 493.674 474.63Z" fill="white"/>
<path fill-rule="evenodd" clip-rule="evenodd" d="M1114.59 524.922L1111.75 529.039C1105.64 537.903 1099.9 546.927 1094.55 556.111C1089.29 565.448 1084.37 574.428 1079.8 583.051C1075.42 591.702 1071.29 599.561 1067.41 606.624C1063.55 613.955 1060.03 619.97 1056.83 624.609C1053.76 629.062 1049.91 632.635 1045.04 633.529C1040.68 634.332 1036.53 633.295 1032.87 630.768C1029.28 628.291 1026.94 624.81 1025.99 620.551L1025.97 620.46L1025.96 620.369C1025.06 615.504 1027.03 610.637 1030.1 606.183C1033.28 601.574 1037.57 596.105 1042.91 589.799L1042.95 589.757L1042.99 589.715C1048.31 583.71 1054.17 577.079 1060.55 569.825L1060.58 569.797L1060.6 569.771C1067.15 562.547 1073.78 554.779 1080.49 546.464L1080.51 546.435L1080.54 546.406C1087.34 538.235 1093.8 529.722 1099.9 520.868L1102.74 516.751L1114.59 524.922ZM1063.01 604.257C1066.86 597.23 1070.98 589.394 1075.36 580.75C1079.97 572.064 1084.91 563.022 1090.21 553.624C1093.05 548.755 1095.99 543.93 1099.04 539.151C1101.82 534.797 1104.68 530.48 1107.63 526.201C1107.63 526.201 1107.63 526.201 1107.63 526.201L1104.02 523.706C1101.07 527.981 1098.04 532.177 1094.93 536.296C1091.51 540.827 1087.99 545.263 1084.38 549.605C1077.61 557.987 1070.92 565.828 1064.31 573.128C1057.92 580.387 1052.06 587.022 1046.73 593.033C1041.44 599.27 1037.27 604.6 1034.22 609.022C1031.45 613.041 1030.33 616.522 1030.87 619.465C1031.55 622.501 1033.16 624.896 1035.71 626.651C1038.39 628.499 1041.2 629.152 1044.14 628.611C1047.08 628.071 1049.94 625.79 1052.71 621.771C1055.76 617.349 1059.19 611.511 1063.01 604.257ZM1138.1 478.568C1142.72 481.75 1145.57 486.278 1146.59 491.835C1147.62 497.392 1146.56 502.639 1143.38 507.254C1140.19 511.87 1135.67 514.724 1130.11 515.745C1124.55 516.766 1119.31 515.709 1114.69 512.526C1110.07 509.344 1107.22 504.816 1106.2 499.259C1105.18 493.703 1106.24 488.456 1109.42 483.84C1112.6 479.224 1117.13 476.37 1122.68 475.349C1128.24 474.328 1133.49 475.385 1138.1 478.568ZM1141.68 492.739C1140.89 488.438 1138.75 485.086 1135.27 482.684C1131.78 480.282 1127.89 479.476 1123.59 480.267C1119.29 481.057 1115.94 483.195 1113.53 486.678C1111.13 490.162 1110.33 494.054 1111.12 498.355C1111.91 502.657 1114.04 506.008 1117.53 508.41C1121.01 510.812 1124.9 511.618 1129.21 510.827C1133.51 510.037 1136.86 507.9 1139.26 504.416C1141.66 500.932 1142.47 497.04 1141.68 492.739Z" fill="#F0572F"/>
<path fill-rule="evenodd" clip-rule="evenodd" d="M704.789 869.683L704.8 869.677C709.347 867.053 714.334 865.338 718.987 866.708C722.661 867.606 725.893 869.538 727.881 872.889C729.988 876.26 729.997 880.075 728.878 883.655C727.478 888.135 723.535 891.507 718.942 894.157L718.914 894.173L718.886 894.189C714.265 896.776 708.703 898.812 702.301 900.369L702.252 900.381L702.204 900.392C700.993 900.661 699.707 900.963 698.347 901.297C699.708 901.643 701.016 901.965 702.271 902.262C708.833 903.816 714.493 905.851 719.133 908.45L719.161 908.465L719.189 908.481C723.801 911.142 727.733 914.645 728.928 919.394C730.042 923.091 729.797 926.882 727.643 930.233C725.775 933.504 722.611 935.332 719.139 936.2C714.558 937.345 709.642 935.608 705.075 932.978C700.429 930.371 695.855 926.656 691.339 921.965L691.307 921.932L691.276 921.899C690.447 921.006 689.565 920.073 688.631 919.1C688.962 920.288 689.289 921.436 689.609 922.544C691.493 929.052 692.585 934.915 692.769 940.069L692.775 940.241L692.77 940.414C692.592 945.736 691.445 950.813 688.095 954.163C685.392 956.866 682.039 958.594 678.133 958.594C674.41 958.594 671.218 956.963 668.666 954.411L668.589 954.334L668.515 954.254C665.367 950.818 664.482 945.612 664.482 940.247C664.482 934.851 665.503 928.993 667.419 922.72C667.813 921.432 668.216 920.061 668.627 918.606C667.612 919.654 666.645 920.671 665.727 921.657C661.074 926.654 656.496 930.563 651.982 933.196L651.971 933.203L651.961 933.209C647.307 935.894 642.36 937.562 637.689 936.463L637.514 936.422L637.343 936.369C633.805 935.263 630.788 933.217 628.879 929.996C626.804 926.676 626.734 922.952 627.898 919.43C629.291 915.035 633.153 911.597 637.697 908.801L637.785 908.747L637.874 908.697C642.475 906.121 647.939 904.084 654.182 902.524L654.197 902.52L654.212 902.516C655.477 902.209 656.808 901.875 658.207 901.516C656.937 901.2 655.707 900.905 654.517 900.63L654.443 900.613L654.369 900.593C647.878 898.885 642.312 896.875 637.763 894.509L637.628 894.439L637.498 894.361C633.036 891.684 629.261 888.311 627.883 883.903L627.829 883.731L627.788 883.556C626.92 879.866 627.122 876.119 629.043 872.785C630.9 869.43 634.103 867.565 637.622 866.685L637.622 866.685C642.203 865.54 647.119 867.278 651.686 869.908C656.362 872.532 660.944 876.349 665.453 881.2C666.316 882.095 667.23 883.036 668.195 884.021C667.841 882.748 667.493 881.522 667.151 880.341C665.257 873.798 664.235 867.872 664.235 862.638C664.235 857.306 665.249 852.139 668.666 848.722C671.283 846.105 674.543 844.292 678.38 844.292C682.321 844.292 685.654 846.053 688.245 848.879C691.375 852.293 692.278 857.385 692.278 862.638C692.278 867.866 691.259 873.704 689.365 880.085C689.019 881.33 688.658 882.651 688.282 884.045C689.253 883.061 690.181 882.112 691.064 881.196C695.706 876.214 700.274 872.317 704.779 869.689L704.789 869.683ZM685.775 893.589C685.434 893.922 685.09 894.258 684.742 894.597C684.109 895.213 683.463 895.84 682.804 896.475C682.672 896.603 682.539 896.732 682.405 896.861C682.271 896.99 682.136 897.12 682 897.251C681.916 897.332 681.832 897.413 681.747 897.495C681.732 897.509 681.718 897.523 681.703 897.537C680.806 898.399 679.887 899.279 678.944 900.176C679.085 899.615 679.225 899.06 679.363 898.511C679.54 897.811 679.714 897.122 679.886 896.443C679.913 896.338 679.939 896.234 679.966 896.129C679.978 896.08 679.991 896.03 680.003 895.981C680.016 895.93 680.029 895.879 680.042 895.828C680.078 895.685 680.114 895.543 680.151 895.401C680.387 894.474 680.619 893.566 680.847 892.678C680.994 892.106 681.139 891.542 681.282 890.987C682.49 886.314 683.583 882.219 684.559 878.704C686.372 872.607 687.278 867.252 687.278 862.638C687.278 857.695 686.372 854.235 684.559 852.257C682.747 850.28 680.687 849.292 678.38 849.292C676.238 849.292 674.179 850.28 672.201 852.257C670.224 854.235 669.235 857.695 669.235 862.638C669.235 867.252 670.142 872.689 671.954 878.951C673.009 882.596 674.12 886.661 675.287 891.144C675.419 891.65 675.552 892.162 675.685 892.679C675.909 893.548 676.135 894.432 676.363 895.331C676.39 895.438 676.417 895.545 676.444 895.652C676.493 895.848 676.543 896.045 676.593 896.242C676.608 896.302 676.623 896.363 676.639 896.423C676.64 896.43 676.642 896.436 676.644 896.443C676.957 897.687 677.274 898.959 677.595 900.26C677.609 900.315 677.622 900.37 677.636 900.425C677.64 900.444 677.645 900.463 677.65 900.482C677.45 900.287 677.251 900.092 677.053 899.898C676.283 899.146 675.53 898.407 674.795 897.684C674.715 897.605 674.636 897.527 674.557 897.45C674.535 897.428 674.513 897.406 674.491 897.385C674.401 897.297 674.312 897.209 674.223 897.122C674.164 897.063 674.104 897.004 674.044 896.945C673.329 896.24 672.629 895.549 671.947 894.872C671.556 894.485 671.171 894.103 670.791 893.725C667.363 890.316 664.372 887.286 661.82 884.636C657.536 880.022 653.335 876.562 649.215 874.255C644.931 871.783 641.471 870.877 638.834 871.536C636.198 872.195 634.385 873.431 633.397 875.243C632.243 877.221 631.996 879.61 632.655 882.411C633.479 885.048 635.951 887.602 640.07 890.073C644.19 892.215 649.38 894.11 655.641 895.758C659.364 896.617 663.447 897.67 667.889 898.916C668.368 899.051 668.851 899.187 669.339 899.326C670.353 899.615 671.385 899.914 672.435 900.222C672.503 900.242 672.572 900.263 672.641 900.283C672.748 900.314 672.856 900.346 672.964 900.378C672.974 900.381 672.983 900.384 672.993 900.387C673.071 900.41 673.15 900.433 673.229 900.456C674.329 900.782 675.448 901.118 676.587 901.464C676.688 901.495 676.789 901.525 676.89 901.556C675.835 901.862 674.8 902.159 673.787 902.448C673.657 902.485 673.528 902.522 673.399 902.559C673.278 902.593 673.157 902.627 673.037 902.662C672.957 902.684 672.877 902.707 672.797 902.73C672.761 902.74 672.725 902.75 672.689 902.761C672.513 902.81 672.338 902.86 672.164 902.909C671.26 903.165 670.373 903.414 669.504 903.657C668.954 903.81 668.412 903.96 667.876 904.108C663.188 905.402 659.028 906.491 655.394 907.375C649.462 908.857 644.437 910.752 640.317 913.059C636.033 915.696 633.479 918.332 632.655 920.968C631.831 923.44 631.996 925.582 633.15 927.395C634.303 929.372 636.198 930.772 638.834 931.596C641.636 932.255 645.178 931.349 649.462 928.878C653.417 926.571 657.619 923.028 662.068 918.25C664.722 915.399 667.757 912.313 671.174 908.993C671.467 908.708 671.764 908.421 672.063 908.133C672.676 907.541 673.301 906.942 673.938 906.336C674.057 906.222 674.177 906.108 674.297 905.994C674.359 905.935 674.422 905.875 674.485 905.816C674.571 905.734 674.658 905.652 674.744 905.57C674.78 905.536 674.815 905.503 674.851 905.469C675.824 904.548 676.824 903.611 677.85 902.658C677.783 902.942 677.717 903.224 677.651 903.505C677.415 904.505 677.181 905.484 676.95 906.443C676.924 906.55 676.897 906.658 676.871 906.765C676.87 906.77 676.869 906.775 676.868 906.779C676.827 906.947 676.787 907.115 676.746 907.282C676.735 907.328 676.723 907.375 676.712 907.422C676.462 908.447 676.215 909.448 675.97 910.426C675.871 910.82 675.772 911.21 675.674 911.596C674.456 916.395 673.299 920.59 672.201 924.182C670.389 930.113 669.482 935.469 669.482 940.247C669.482 945.355 670.389 948.898 672.201 950.875C674.014 952.688 675.991 953.594 678.133 953.594C680.44 953.594 682.582 952.605 684.559 950.628C686.537 948.651 687.608 945.19 687.772 940.247C687.608 935.633 686.619 930.196 684.806 923.934C683.765 920.338 682.67 916.333 681.52 911.921C681.39 911.421 681.259 910.917 681.127 910.407C680.915 909.582 680.7 908.744 680.483 907.891C680.425 907.662 680.367 907.432 680.308 907.201C680.26 907.01 680.212 906.819 680.163 906.627C680.148 906.565 680.132 906.504 680.117 906.443C680.113 906.426 680.108 906.409 680.104 906.392C679.8 905.184 679.493 903.951 679.182 902.69C679.608 903.098 680.029 903.502 680.446 903.902C681.013 904.448 681.571 904.987 682.119 905.518C682.142 905.54 682.165 905.562 682.188 905.584C682.217 905.613 682.247 905.642 682.276 905.67C682.294 905.688 682.312 905.705 682.33 905.722C682.433 905.822 682.535 905.921 682.637 906.02C683.298 906.663 683.945 907.294 684.577 907.915C685.064 908.393 685.543 908.865 686.013 909.331C689.445 912.728 692.42 915.783 694.94 918.497C699.224 922.946 703.426 926.324 707.545 928.63C711.829 931.102 715.29 932.008 717.926 931.349C720.563 930.69 722.375 929.454 723.364 927.642C724.682 925.664 724.929 923.358 724.105 920.721C723.446 917.92 720.974 915.284 716.69 912.812C712.571 910.505 707.381 908.61 701.119 907.127C697.403 906.247 693.251 905.164 688.665 903.877C688.171 903.739 687.673 903.598 687.169 903.455C686.462 903.254 685.744 903.048 685.017 902.838C684.785 902.771 684.553 902.704 684.319 902.636C684.138 902.583 683.957 902.53 683.775 902.477C683.697 902.455 683.618 902.432 683.54 902.409C683.451 902.383 683.362 902.356 683.272 902.33C682.117 901.992 680.937 901.642 679.733 901.281C680.032 901.191 680.329 901.102 680.624 901.013C681.589 900.725 682.535 900.445 683.461 900.174C683.539 900.151 683.617 900.128 683.695 900.105C683.699 900.104 683.703 900.103 683.707 900.102C683.821 900.068 683.935 900.035 684.049 900.002C684.083 899.992 684.117 899.982 684.151 899.972C685.235 899.656 686.292 899.353 687.323 899.061C687.776 898.933 688.224 898.807 688.667 898.683C693.411 897.359 697.561 896.301 701.119 895.511C707.216 894.028 712.324 892.133 716.443 889.826C720.727 887.354 723.281 884.8 724.105 882.164C724.929 879.528 724.764 877.303 723.611 875.491C722.457 873.513 720.48 872.195 717.679 871.536C715.043 870.712 711.582 871.536 707.298 874.008C703.344 876.315 699.142 879.857 694.693 884.636C692.088 887.337 689.115 890.322 685.775 893.589Z" fill="black"/>
</svg>
