<svg width="645" height="488" viewBox="0 0 645 488" fill="none" xmlns="http://www.w3.org/2000/svg">
<path d="M15.1211 103.314L579.09 24.1413L629.86 385.793L65.8915 464.966L15.1211 103.314Z" fill="black"/>
<path d="M544.739 81.6028C547.524 86.0707 549.491 90.2213 550.64 94.0547C551.937 97.7953 552.835 101.061 553.334 103.852C554.442 110.606 554.063 116.632 552.197 121.932C550.572 127.287 547.823 131.172 543.951 133.585C540.675 135.628 537.195 136.349 533.513 135.749C529.923 135.299 526.922 133.137 524.508 129.265C522.466 125.989 521.698 122.435 522.205 118.603C522.953 114.828 525.115 111.826 528.689 109.598C531.221 108.02 534.068 107.28 537.23 107.376C540.392 107.473 543.488 108.956 546.516 111.824C548.101 109.389 548.578 106.506 547.95 103.176C547.563 99.9014 546.665 96.6357 545.255 93.3786C543.845 90.1215 542.444 87.376 541.052 85.1421C537.245 79.0361 532.991 74.8641 528.287 72.6262C523.825 70.4444 519.417 69.6764 515.064 70.3223C510.859 70.8753 507.044 72.2194 503.618 74.3545C497.81 77.975 493.609 83.1785 491.015 89.9652C488.663 96.8079 487.166 104.359 486.524 112.617C485.881 120.876 485.36 129.162 484.959 137.477C484.501 147.689 483.643 156.598 482.388 164.205C481.281 171.719 479.088 178.153 475.808 183.506C472.769 188.916 468.122 193.57 461.867 197.469C454.57 202.018 446.196 204.342 436.746 204.443C427.445 204.45 416.651 200.735 404.364 193.298L405.344 189.895C412.854 194.313 419.772 196.619 426.096 196.812C432.57 196.913 438.264 195.432 443.178 192.368C448.242 189.212 451.93 184.845 454.244 179.267C456.557 173.689 458.118 167.236 458.927 159.908C459.735 152.58 460.312 144.879 460.656 136.806C461.191 125.72 461.891 115.564 462.758 106.338C463.625 97.1127 465.653 88.9209 468.842 81.7629C472.274 74.6611 477.712 68.7893 485.159 64.1477C492.158 59.7846 499.239 57.5423 506.401 57.4206C513.656 57.4479 520.629 59.5118 527.321 63.6123C534.013 67.7128 539.819 73.7096 544.739 81.6028ZM466.782 101.348L465.633 105.477C458.421 100.873 451.504 98.5678 444.881 98.5598C438.408 98.459 432.714 99.9404 427.799 103.004C422.884 106.067 419.196 110.434 416.734 116.105C414.42 121.683 412.859 128.136 412.051 135.464C411.242 142.792 410.665 150.493 410.321 158.566C409.936 169.559 409.235 179.715 408.22 189.034C407.353 198.259 405.204 206.423 401.772 213.525C398.583 220.683 393.265 226.583 385.818 231.224C378.968 235.495 371.915 237.616 364.66 237.589C357.349 237.803 350.348 235.86 343.656 231.76C337.057 227.808 331.251 221.811 326.238 213.769C323.453 209.301 321.486 205.151 320.338 201.317C319.04 197.577 318.142 194.311 317.643 191.52C316.535 184.766 316.868 178.665 318.641 173.217C320.359 168.01 323.154 164.2 327.026 161.787C330.303 159.744 333.782 159.023 337.464 159.623C341.147 160.222 344.149 162.384 346.469 166.107C348.605 169.532 349.372 173.086 348.773 176.769C348.024 180.544 345.863 183.546 342.288 185.774C339.757 187.352 336.909 188.092 333.747 187.996C330.585 187.899 327.49 186.416 324.461 183.548C322.933 185.741 322.362 188.475 322.749 191.749C323.228 195.173 324.22 198.587 325.722 201.993C327.225 205.399 328.673 208.219 330.065 210.453C333.871 216.559 338.033 220.582 342.551 222.522C347.013 224.704 351.421 225.472 355.774 224.826C360.221 224.329 364.082 223.06 367.359 221.018C373.316 217.304 377.517 212.101 379.962 205.407C382.407 198.713 383.904 191.162 384.454 182.755C385.096 174.496 385.617 166.21 386.018 157.895C386.477 147.683 387.259 138.82 388.366 131.306C389.714 123.848 391.982 117.368 395.17 111.866C398.357 106.363 403.004 101.709 409.11 97.903C416.557 93.2614 424.958 90.816 434.315 90.5668C443.673 90.3176 454.495 93.9115 466.782 101.348Z" fill="white"/>
<path d="M234.546 201.432L231.711 203.646C229.746 201.336 227.794 199.657 225.855 198.609C223.915 197.562 221.551 197.406 218.762 198.142C216.052 198.978 212.452 200.829 207.962 203.694C203.551 206.659 197.813 210.9 190.75 216.417C184.084 221.623 178.047 225.378 172.637 227.681C167.306 230.083 162.47 231.377 158.131 231.563C153.791 231.749 149.815 231.17 146.203 229.827C142.69 228.406 139.448 226.613 136.477 224.449C137.857 227.856 138.761 231.475 139.189 235.305C139.717 239.057 139.365 243.016 138.134 247.181C136.902 251.347 134.475 255.725 130.853 260.316C127.309 265.006 122.204 269.954 115.538 275.16C108.176 280.91 102.473 285.605 98.428 289.245C94.4609 292.984 91.7436 296.068 90.276 298.495C88.7866 301.1 88.3651 303.431 89.0114 305.489C89.5583 307.625 90.7641 309.887 92.629 312.274L89.7936 314.489C84.8983 308.221 82.019 302.381 81.1555 296.969C80.2702 291.734 81.7428 286.339 85.5734 280.785C89.4039 275.23 95.8956 268.878 105.048 261.73C114.4 254.426 121.341 248.444 125.871 243.785C130.578 239.147 133.404 235.178 134.349 231.877C135.295 228.576 134.663 225.305 132.453 222.066L131.87 221.32L134.556 219.222L135.139 219.968C137.747 222.896 140.717 224.341 144.049 224.301C147.481 224.183 152.017 222.403 157.657 218.959C163.374 215.615 170.908 210.291 180.26 202.987C189.015 196.149 196.501 191.583 202.718 189.29C209.035 186.919 214.676 186.758 219.64 188.807C224.682 190.956 229.651 195.164 234.546 201.432Z" fill="white"/>
<path d="M171.489 271.437C186.003 269.399 199.574 271.194 212.204 276.821C224.783 282.085 235.334 290.038 243.858 300.682C252.745 311.274 258.207 323.827 260.245 338.34C262.231 352.491 260.436 366.063 254.861 379.055C249.597 391.634 241.643 402.185 231 410.709C220.357 419.233 207.779 424.514 193.265 426.551C179.114 428.538 165.568 426.925 152.626 421.712C140.048 416.448 129.496 408.494 120.972 397.851C112.397 386.845 107.117 374.267 105.13 360.116C103.093 345.602 104.706 332.056 109.97 319.477C115.234 306.899 123.187 296.347 133.831 287.823C144.786 278.886 157.338 273.424 171.489 271.437Z" fill="white"/>
<path d="M357.428 95.1846C360.961 94.6887 363.863 95.3866 366.134 97.2783C368.44 99.1243 369.912 102.315 370.549 106.852L349.291 109.836L349.071 108.7L364.607 106.519C364.411 104.541 363.997 102.757 363.364 101.167C362.726 99.5375 361.895 98.2828 360.871 97.4031C359.887 96.5178 358.713 96.171 357.348 96.3626C355.501 96.6219 353.985 97.7763 352.799 99.8259C351.653 101.87 351.221 104.919 351.504 108.973L351.718 109.188C351.722 109.802 351.755 110.473 351.816 111.201C351.878 111.929 351.959 112.655 352.06 113.377C352.444 116.107 353.215 118.394 354.374 120.237C355.534 122.08 356.889 123.425 358.441 124.272C360.027 125.072 361.583 125.366 363.109 125.152C364.313 124.982 365.432 124.641 366.465 124.128C367.493 123.574 368.406 122.791 369.205 121.778C370.005 120.765 370.641 119.468 371.115 117.887L372.387 118.2C372.132 119.586 371.589 120.973 370.761 122.358C369.932 123.743 368.811 124.945 367.398 125.962C365.979 126.939 364.267 127.568 362.259 127.85C359.369 128.256 356.787 127.943 354.513 126.911C352.28 125.873 350.437 124.269 348.986 122.099C347.57 119.882 346.648 117.249 346.219 114.197C345.723 110.665 345.86 107.555 346.629 104.868C347.392 102.141 348.702 99.9507 350.558 98.2983C352.408 96.6058 354.698 95.5679 357.428 95.1846Z" fill="#F0572F"/>
<path d="M327.095 99.4432C328.62 99.229 329.913 99.2522 330.973 99.5128C332.073 99.7677 333.015 100.209 333.799 100.835C334.675 101.531 335.358 102.459 335.848 103.618C336.338 104.777 336.727 106.381 337.015 108.428L339.272 124.507C339.508 126.193 340.01 127.289 340.777 127.796C341.584 128.296 342.811 128.431 344.457 128.2L344.635 129.465C343.946 129.52 342.897 129.627 341.486 129.784C340.07 129.901 338.699 130.052 337.374 130.238C336.05 130.424 334.751 130.648 333.477 130.908C332.238 131.123 331.3 131.296 330.664 131.426L330.486 130.161C331.931 129.958 332.913 129.514 333.431 128.827C333.948 128.14 334.089 126.954 333.852 125.268L331.409 107.864C331.234 106.62 330.973 105.49 330.626 104.474C330.279 103.458 329.699 102.68 328.886 102.139C328.113 101.593 327.004 101.421 325.559 101.624C323.873 101.861 322.455 102.551 321.306 103.695C320.196 104.833 319.399 106.296 318.913 108.083C318.461 109.825 318.379 111.72 318.667 113.767L320.544 127.136C320.78 128.822 321.242 129.924 321.929 130.442C322.615 130.959 323.681 131.117 325.127 130.914L325.304 132.178C324.656 132.228 323.687 132.323 322.397 132.464C321.141 132.558 319.851 132.698 318.526 132.884C317.201 133.07 315.842 133.302 314.448 133.58C313.048 133.817 312.01 134.004 311.333 134.14L311.156 132.875C312.802 132.644 313.924 132.179 314.522 131.481C315.16 130.778 315.361 129.583 315.124 127.897L312.478 109.048C312.224 107.242 311.717 105.962 310.956 105.209C310.19 104.416 308.924 104.143 307.157 104.391L306.98 103.127C308.281 103.067 309.534 102.952 310.739 102.783C311.903 102.62 312.998 102.405 314.025 102.138C315.087 101.825 316.039 101.466 316.883 101.061L317.881 108.167C318.541 105.29 319.722 103.201 321.422 101.898C323.156 100.549 325.047 99.7306 327.095 99.4432Z" fill="#F0572F"/>
<path d="M288.625 104.843C291.194 104.482 293.581 104.72 295.787 105.557C297.992 106.394 299.866 107.932 301.408 110.172C302.991 112.406 304.053 115.45 304.594 119.304C305.135 123.158 304.952 126.377 304.046 128.96C303.174 131.498 301.793 133.472 299.904 134.884C298.014 136.295 295.785 137.181 293.215 137.542C290.686 137.897 288.299 137.659 286.053 136.828C283.848 135.992 281.957 134.476 280.38 132.282C278.837 130.043 277.796 126.996 277.255 123.142C276.713 119.288 276.876 116.072 277.742 113.494C278.649 110.911 280.047 108.913 281.936 107.502C283.866 106.084 286.096 105.198 288.625 104.843ZM288.794 106.048C286.506 106.369 284.785 107.818 283.632 110.395C282.519 112.967 282.341 116.942 283.096 122.322C283.851 127.701 285.117 131.474 286.895 133.64C288.708 135.76 290.758 136.659 293.046 136.338C295.335 136.017 297.038 134.59 298.156 132.059C299.309 129.482 299.508 125.503 298.753 120.124C297.998 114.744 296.711 110.974 294.893 108.814C293.115 106.649 291.082 105.726 288.794 106.048Z" fill="#F0572F"/>
<path d="M264.648 92.5508L270.489 134.162C270.726 135.848 271.228 136.945 271.995 137.451C272.802 137.952 274.029 138.087 275.675 137.855L275.852 139.12C275.164 139.176 274.115 139.282 272.704 139.439C271.328 139.551 269.937 139.705 268.532 139.902C267.167 140.094 265.788 140.328 264.394 140.606C262.994 140.843 261.956 141.03 261.279 141.166L261.102 139.901C262.748 139.67 263.87 139.206 264.468 138.508C265.106 137.804 265.306 136.609 265.07 134.923L260.242 100.538C259.989 98.7313 259.482 97.4516 258.721 96.6987C257.955 95.9057 256.688 95.6331 254.922 95.8811L254.744 94.6165C256.046 94.5566 257.299 94.4421 258.503 94.273C259.668 94.1096 260.763 93.8944 261.79 93.6274C262.851 93.3147 263.804 92.9558 264.648 92.5508Z" fill="#F0572F"/>
<path d="M240.318 144.538C238.672 144.769 237.205 144.668 235.916 144.235C234.621 143.762 233.574 143.008 232.774 141.974C232.014 140.935 231.529 139.672 231.321 138.187C231.073 136.42 231.271 134.919 231.917 133.682C232.602 132.439 233.539 131.387 234.728 130.524C235.917 129.661 237.183 128.91 238.526 128.271C239.903 127.587 241.206 126.954 242.435 126.372C243.657 125.75 244.631 125.101 245.355 124.427C246.119 123.746 246.436 122.944 246.307 122.021L245.782 118.287C245.546 116.601 245.104 115.353 244.458 114.543C243.853 113.728 243.109 113.239 242.226 113.076C241.338 112.873 240.372 112.845 239.328 112.992C238.325 113.132 237.26 113.425 236.136 113.87C235.051 114.308 234.229 115.017 233.671 115.996C234.456 116.05 235.175 116.358 235.827 116.922C236.479 117.485 236.876 118.269 237.017 119.272C237.158 120.276 236.949 121.124 236.391 121.816C235.828 122.469 235.044 122.865 234.041 123.006C232.877 123.17 231.963 122.929 231.299 122.286C230.67 121.596 230.291 120.79 230.161 119.866C230.015 118.823 230.157 117.943 230.589 117.227C231.021 116.512 231.599 115.816 232.323 115.142C233.156 114.37 234.264 113.662 235.647 113.017C237.065 112.327 238.697 111.852 240.544 111.593C242.19 111.362 243.623 111.365 244.844 111.603C246.059 111.801 247.099 112.208 247.963 112.823C249.142 113.64 249.991 114.729 250.509 116.089C251.022 117.409 251.413 119.032 251.684 120.959L254.034 137.7C254.175 138.704 254.417 139.407 254.76 139.809C255.143 140.205 255.656 140.358 256.298 140.268C256.74 140.206 257.147 140.047 257.521 139.79C257.894 139.533 258.331 139.144 258.831 138.623L259.637 139.554C258.884 140.315 258.157 140.969 257.456 141.518C256.75 142.027 255.754 142.371 254.47 142.551C253.305 142.715 252.314 142.649 251.495 142.355C250.675 142.061 250.012 141.56 249.503 140.854C249.029 140.102 248.707 139.123 248.538 137.919C247.708 139.878 246.592 141.406 245.191 142.503C243.829 143.595 242.205 144.273 240.318 144.538ZM242.148 141.825C243.473 141.639 244.644 141.086 245.661 140.165C246.718 139.239 247.601 137.948 248.31 136.293L246.653 124.49C246.267 125.24 245.646 125.921 244.791 126.532C243.929 127.103 242.99 127.706 241.974 128.34C240.952 128.934 239.984 129.622 239.071 130.406C238.192 131.143 237.502 132.059 237 133.152C236.499 134.246 236.361 135.596 236.586 137.202C236.812 138.808 237.414 140.033 238.392 140.878C239.41 141.718 240.662 142.033 242.148 141.825Z" fill="#F0572F"/>
<path d="M196.411 117.789C199.944 117.293 202.846 117.991 205.118 119.883C207.424 121.729 208.895 124.92 209.532 129.456L188.275 132.441L188.054 131.305L203.59 129.124C203.395 127.145 202.98 125.361 202.348 123.772C201.71 122.142 200.879 120.887 199.854 120.008C198.87 119.122 197.696 118.775 196.331 118.967C194.484 119.226 192.968 120.381 191.782 122.43C190.636 124.474 190.204 127.523 190.487 131.577L190.701 131.793C190.706 132.406 190.738 133.077 190.8 133.806C190.861 134.534 190.942 135.259 191.044 135.982C191.427 138.712 192.198 140.998 193.358 142.842C194.517 144.685 195.873 146.03 197.424 146.876C199.011 147.677 200.566 147.97 202.092 147.756C203.296 147.587 204.415 147.246 205.448 146.732C206.476 146.179 207.389 145.395 208.189 144.382C208.988 143.37 209.625 142.073 210.099 140.491L211.371 140.804C211.115 142.191 210.573 143.577 209.744 144.962C208.915 146.348 207.794 147.549 206.381 148.566C204.963 149.543 203.25 150.173 201.243 150.454C198.352 150.86 195.77 150.547 193.496 149.515C191.263 148.478 189.421 146.874 187.97 144.703C186.553 142.487 185.631 139.853 185.203 136.802C184.707 133.269 184.843 130.159 185.612 127.472C186.376 124.745 187.685 122.555 189.541 120.903C191.391 119.21 193.681 118.172 196.411 117.789Z" fill="#F0572F"/>
<path d="M148.194 124.557C149.599 124.36 150.851 124.389 151.952 124.644C153.052 124.899 153.994 125.34 154.778 125.967C155.653 126.662 156.322 127.633 156.783 128.878C157.244 130.123 157.607 131.689 157.872 133.576L160.13 149.655C160.366 151.341 160.868 152.437 161.635 152.944C162.442 153.444 163.669 153.579 165.315 153.348L165.492 154.613C164.804 154.668 163.755 154.775 162.344 154.932C160.928 155.049 159.557 155.2 158.232 155.386C156.907 155.572 155.608 155.796 154.335 156.056C153.096 156.271 152.158 156.444 151.522 156.574L151.344 155.309C152.789 155.106 153.771 154.662 154.288 153.975C154.806 153.288 154.946 152.102 154.71 150.416L152.267 133.012C152.092 131.768 151.851 130.635 151.544 129.614C151.237 128.592 150.717 127.806 149.984 127.253C149.252 126.701 148.163 126.527 146.718 126.73C145.152 126.949 143.815 127.628 142.705 128.767C141.636 129.899 140.859 131.359 140.373 133.147C139.921 134.889 139.839 136.783 140.127 138.831L142.004 152.199C142.24 153.886 142.702 154.987 143.389 155.505C144.075 156.023 145.141 156.18 146.587 155.977L146.764 157.242C146.116 157.292 145.147 157.387 143.857 157.527C142.601 157.622 141.311 157.762 139.986 157.948C138.661 158.134 137.302 158.366 135.908 158.643C134.508 158.88 133.47 159.067 132.793 159.203L132.616 157.938C134.262 157.707 135.384 157.243 135.982 156.545C136.62 155.841 136.821 154.646 136.584 152.96L133.938 134.112C133.684 132.305 133.177 131.025 132.416 130.272C131.65 129.479 130.384 129.207 128.617 129.455L128.44 128.19C129.741 128.13 130.994 128.016 132.199 127.847C133.363 127.683 134.458 127.468 135.485 127.201C136.547 126.888 137.499 126.53 138.343 126.124L139.341 133.23C140.018 130.474 141.181 128.407 142.83 127.03C144.479 125.652 146.267 124.828 148.194 124.557ZM166.32 122.013C167.725 121.816 168.977 121.844 170.077 122.099C171.178 122.354 172.12 122.795 172.904 123.422C173.779 124.118 174.448 125.088 174.909 126.334C175.37 127.579 175.733 129.145 175.998 131.032L178.255 147.11C178.492 148.796 178.994 149.893 179.761 150.399C180.568 150.9 181.795 151.035 183.441 150.803L183.618 152.068C182.93 152.124 181.881 152.23 180.47 152.387C179.054 152.504 177.683 152.656 176.358 152.842C175.033 153.028 173.734 153.251 172.461 153.512C171.222 153.726 170.284 153.899 169.648 154.029L169.47 152.765C170.915 152.562 171.897 152.117 172.414 151.43C172.932 150.744 173.072 149.557 172.836 147.871L170.393 130.468C170.218 129.223 169.977 128.09 169.67 127.069C169.363 126.048 168.843 125.261 168.11 124.709C167.378 124.157 166.289 123.982 164.844 124.185C163.278 124.405 161.941 125.084 160.831 126.222C159.762 127.355 158.982 128.795 158.49 130.542C158.039 132.284 157.957 134.178 158.244 136.226L157.277 130.651C157.973 127.729 159.173 125.636 160.879 124.373C162.579 123.07 164.393 122.283 166.32 122.013Z" fill="#F0572F"/>
<path d="M110.085 129.908C112.654 129.547 115.041 129.785 117.247 130.622C119.452 131.458 121.326 132.996 122.868 135.236C124.451 137.47 125.513 140.514 126.054 144.368C126.595 148.222 126.412 151.441 125.506 154.024C124.634 156.562 123.253 158.537 121.364 159.948C119.474 161.36 117.245 162.246 114.675 162.607C112.146 162.962 109.759 162.724 107.513 161.893C105.308 161.056 103.417 159.541 101.84 157.347C100.297 155.107 99.2555 152.06 98.7145 148.206C98.1734 144.352 98.336 141.136 99.2023 138.558C100.109 135.975 101.507 133.977 103.396 132.566C105.326 131.149 107.556 130.263 110.085 129.908ZM110.254 131.112C107.966 131.433 106.245 132.882 105.092 135.46C103.979 138.031 103.801 142.007 104.556 147.386C105.311 152.766 106.577 156.538 108.355 158.704C110.168 160.824 112.218 161.723 114.506 161.402C116.794 161.081 118.498 159.655 119.616 157.123C120.769 154.546 120.968 150.568 120.213 145.188C119.458 139.809 118.171 136.039 116.353 133.879C114.575 131.713 112.542 130.791 110.254 131.112Z" fill="#F0572F"/>
<path d="M67.2356 120.326L70.3974 142.848C71.0579 139.971 72.2383 137.881 73.9385 136.578C75.6788 135.27 77.5727 134.472 79.6202 134.184C81.1457 133.97 82.4385 133.993 83.4985 134.254C84.5987 134.509 85.5407 134.95 86.3246 135.576C87.2001 136.272 87.883 137.2 88.3733 138.359C88.8635 139.518 89.2523 141.122 89.5398 143.169L91.7969 159.248C92.0337 160.934 92.5355 162.03 93.3025 162.537C94.1097 163.037 95.3363 163.172 96.9823 162.941L97.1598 164.206C96.4717 164.261 95.4223 164.368 94.0115 164.525C92.5951 164.642 91.2245 164.793 89.8997 164.979C88.5749 165.165 87.2758 165.389 86.0024 165.649C84.7635 165.864 83.8257 166.037 83.189 166.167L83.0114 164.902C84.4567 164.699 85.4382 164.255 85.9558 163.568C86.4735 162.881 86.6139 161.695 86.3772 160.009L83.9341 142.605C83.7593 141.361 83.4984 140.231 83.1511 139.215C82.8038 138.199 82.2238 137.421 81.411 136.88C80.6383 136.334 79.5294 136.162 78.0841 136.365C76.4381 136.596 75.0376 137.263 73.8826 138.367C72.7677 139.465 71.9644 140.888 71.4729 142.635C70.9813 144.383 70.8849 146.32 71.1836 148.448L73.0688 161.877C73.3055 163.563 73.7672 164.665 74.4539 165.183C75.1407 165.7 76.2067 165.858 77.6519 165.655L77.8295 166.919C77.1815 166.969 76.2123 167.064 74.922 167.205C73.6662 167.299 72.3759 167.439 71.0511 167.625C69.7263 167.811 68.367 168.043 66.9731 168.321C65.5736 168.558 64.5355 168.745 63.8586 168.881L63.6811 167.616C65.3271 167.385 66.449 166.92 67.047 166.222C67.6851 165.519 67.8858 164.324 67.6491 162.638L62.8304 128.313C62.5768 126.506 62.0696 125.227 61.3089 124.474C60.5426 123.681 59.2762 123.408 57.5098 123.656L57.3323 122.391C58.6338 122.332 59.8868 122.217 61.0912 122.048C62.2554 121.884 63.351 121.669 64.3779 121.402C65.4393 121.09 66.3919 120.731 67.2356 120.326Z" fill="#F0572F"/>
<path d="M589.122 255.279L589.111 256.509L570.383 259.138L570.515 257.891L589.122 255.279ZM577.453 283.26C577.278 284.636 577.494 285.588 578.1 286.117C578.741 286.6 579.503 286.78 580.386 286.656C581.269 286.532 582.099 286.026 582.875 285.14C583.692 284.247 584.367 282.494 584.9 279.881L585.414 277.414L586.558 277.254L585.826 281.225C585.309 283.959 584.416 285.906 583.146 287.067C581.916 288.222 580.378 288.929 578.531 289.188C576.885 289.419 575.573 289.255 574.594 288.697C573.649 288.093 573.006 287.16 572.665 285.897C572.325 284.635 572.279 283.147 572.53 281.434L577.299 247.605C578.257 247.43 579.189 247.217 580.095 246.967C581.042 246.711 581.877 246.389 582.6 246.001L577.453 283.26Z" fill="#F0572F"/>
<path d="M557.7 270.006C556.819 274.224 555.91 277.81 554.974 280.766C554.038 283.723 553.026 286.137 551.938 288.009C550.89 289.875 549.737 291.286 548.479 292.24C547.261 293.189 545.93 293.765 544.484 293.968C542.718 294.216 541.377 293.994 540.461 293.304C539.546 292.614 538.992 291.586 538.8 290.221C538.609 288.856 538.673 287.271 538.993 285.466L542.365 267.062C542.598 265.801 542.609 264.858 542.398 264.233C542.187 263.608 541.681 263.351 540.878 263.464C540.115 263.571 539.411 264.1 538.767 265.05C538.163 265.994 537.608 267.73 537.103 270.257L536.633 272.595L535.489 272.756L536.377 268.148C536.743 266.378 537.265 264.994 537.944 263.999C538.663 262.997 539.441 262.274 540.28 261.828C541.152 261.338 541.99 261.036 542.793 260.923C544.559 260.675 545.783 260.933 546.463 261.697C547.178 262.416 547.545 263.428 547.565 264.736C547.625 266.037 547.513 267.424 547.228 268.897L543.925 286.923C543.275 290.453 543.953 292.077 545.96 291.795C546.924 291.66 547.888 291.095 548.854 290.1C549.814 289.064 550.743 287.665 551.642 285.901C552.535 284.097 553.366 281.995 554.134 279.595C554.937 277.149 555.646 274.47 556.26 271.559C556.91 268.602 557.43 265.459 557.822 262.129L557.7 270.006ZM559.726 285.749C559.597 286.872 559.583 287.795 559.685 288.518C559.821 289.195 560.29 289.477 561.093 289.364C561.976 289.24 562.715 288.665 563.308 287.641C563.935 286.57 564.475 284.877 564.928 282.562L565.398 280.224L566.542 280.063L565.654 284.671C565.329 286.436 564.806 287.819 564.087 288.821C563.408 289.817 562.63 290.54 561.751 290.991C560.919 291.476 560.081 291.778 559.238 291.896C558.596 291.987 557.974 291.931 557.372 291.728C556.771 291.526 556.293 291.184 555.939 290.702C555.522 290.064 555.28 289.218 555.214 288.163C555.188 287.102 555.272 285.658 555.465 283.829L558.087 259.636C559.085 259.455 560.037 259.239 560.943 258.989C561.89 258.733 562.725 258.411 563.448 258.023L559.726 285.749Z" fill="#F0572F"/>
<path d="M521.326 265.165C520.042 265.345 518.87 266.042 517.813 267.255C516.789 268.422 515.9 269.959 515.144 271.866C514.423 273.728 513.833 275.796 513.375 278.071C512.956 280.341 512.71 282.668 512.635 285.052C512.561 287.437 512.673 289.694 512.972 291.821C513.225 293.628 513.692 294.913 514.373 295.677C515.093 296.436 516.015 296.736 517.139 296.579C518.424 296.398 519.578 295.724 520.602 294.557C521.659 293.344 522.569 291.804 523.33 289.937C524.086 288.03 524.673 285.942 525.091 283.672C525.509 281.403 525.759 279.096 525.839 276.751C525.914 274.366 525.799 272.09 525.494 269.922C525.235 268.075 524.768 266.79 524.093 266.066C523.413 265.302 522.491 265.002 521.326 265.165ZM507.37 289.537C507.122 287.771 507.092 285.81 507.281 283.655C507.47 281.5 507.902 279.331 508.578 277.148C509.254 274.965 510.156 272.935 511.285 271.057C512.453 269.174 513.89 267.601 515.596 266.338C517.296 265.035 519.27 264.225 521.519 263.91C524.008 263.56 526.105 264.064 527.81 265.421C529.55 266.733 530.645 268.994 531.096 272.206C531.344 273.973 531.373 275.933 531.185 278.089C530.996 280.244 530.564 282.413 529.888 284.595C529.212 286.778 528.289 288.811 527.121 290.695C525.993 292.572 524.578 294.163 522.878 295.466C521.172 296.729 519.195 297.518 516.947 297.834C514.458 298.183 512.341 297.682 510.596 296.33C508.89 294.973 507.815 292.709 507.37 289.537Z" fill="#F0572F"/>
<path d="M479.726 302.199L474.487 302.935L480.772 261.095C480.982 259.673 480.781 258.678 480.169 258.109C479.597 257.534 478.327 257.385 476.36 257.661L476.544 256.346C478.746 255.996 480.703 255.496 482.413 254.847C484.117 254.157 485.658 253.327 487.037 252.355L479.726 302.199ZM480.161 293.05C481.095 288.621 482.039 284.845 482.992 281.722C483.986 278.595 485.041 276.052 486.158 274.094C487.27 272.095 488.492 270.593 489.824 269.587C491.157 268.582 492.606 267.969 494.172 267.749C496.059 267.484 497.408 267.766 498.22 268.593C499.067 269.375 499.549 270.474 499.665 271.89C499.782 273.307 499.702 274.771 499.423 276.284L496.05 294.688C495.875 295.777 495.859 296.68 496 297.397C496.142 298.114 496.654 298.411 497.538 298.287C498.3 298.179 498.984 297.654 499.588 296.709C500.233 295.759 500.807 294.02 501.312 291.493L501.782 289.155L502.926 288.995L502.038 293.602C501.713 295.367 501.19 296.75 500.471 297.752C499.792 298.748 499.014 299.471 498.136 299.922C497.303 300.407 496.465 300.709 495.622 300.827C494.016 301.053 492.842 300.849 492.098 300.217C491.354 299.584 490.932 298.62 490.832 297.324C490.772 296.023 490.89 294.532 491.187 292.853L494.49 274.827C494.606 274.197 494.688 273.469 494.736 272.644C494.784 271.818 494.648 271.141 494.328 270.613C494.043 270.039 493.418 269.82 492.455 269.955C491.451 270.096 490.432 270.71 489.398 271.797C488.397 272.838 487.414 274.286 486.446 276.141C485.478 277.996 484.579 280.19 483.747 282.722C482.915 285.254 482.163 288.061 481.49 291.144C480.852 294.181 480.308 297.451 479.858 300.953L480.161 293.05Z" fill="#F0572F"/>
<path d="M459.082 291.28L460.596 291.129C459.264 292.135 458.023 293.067 456.874 293.924C455.76 294.735 454.861 295.475 454.177 296.145C453.493 296.814 453.188 297.409 453.261 297.931C453.318 298.333 453.652 298.675 454.265 298.957C454.872 299.199 455.841 299.391 457.17 299.532L461.727 300.059C463.057 300.199 464.254 300.42 465.32 300.721C466.42 300.976 467.316 301.382 468.009 301.94C468.701 302.498 469.121 303.299 469.267 304.342C469.408 305.346 469.225 306.518 468.717 307.858C468.255 309.233 467.403 310.601 466.161 311.963C464.96 313.319 463.309 314.533 461.208 315.606C459.107 316.679 456.491 317.435 453.359 317.874C451.272 318.167 449.497 318.212 448.036 318.008C446.54 317.849 445.402 317.477 444.624 316.89C443.806 316.309 443.334 315.577 443.21 314.694C443.12 314.051 443.205 313.343 443.465 312.57C443.73 311.837 444.177 311.078 444.803 310.294C445.396 309.556 446.192 308.81 447.191 308.056C448.156 307.347 449.333 306.691 450.722 306.086L451.27 306.93C449.892 307.902 448.989 308.908 448.562 309.951C448.136 310.993 447.99 311.996 448.125 312.96C448.351 314.566 449.073 315.631 450.293 316.156C451.519 316.72 452.954 316.887 454.6 316.656C455.925 316.47 457.259 316.058 458.602 315.419C459.951 314.82 461.177 314.075 462.28 313.183C463.388 312.332 464.239 311.394 464.832 310.369C465.425 309.344 465.651 308.33 465.51 307.326C465.426 306.724 465.169 306.351 464.739 306.206C464.35 306.056 463.699 305.943 462.788 305.866L453.245 304.811C452.247 304.705 451.408 304.414 450.727 303.936C450.04 303.419 449.626 302.658 449.486 301.654C449.373 300.851 449.538 299.989 449.982 299.067C450.426 298.145 451.36 297.072 452.785 295.849C454.204 294.585 456.303 293.062 459.082 291.28ZM459.744 273.687C458.459 273.867 457.429 274.401 456.653 275.287C455.871 276.134 455.261 277.182 454.822 278.431C454.418 279.634 454.142 280.88 453.996 282.169C453.89 283.453 453.85 284.626 453.876 285.687C453.896 286.707 453.94 287.458 454.008 287.94C454.188 289.225 454.599 290.109 455.24 290.592C455.921 291.069 456.743 291.24 457.707 291.105C459.232 290.891 460.392 290.257 461.186 289.204C462.02 288.146 462.602 286.897 462.932 285.459C463.262 284.021 463.412 282.608 463.381 281.22C463.39 279.827 463.33 278.669 463.2 277.746C463.008 276.381 462.676 275.322 462.201 274.57C461.727 273.818 460.908 273.523 459.744 273.687ZM459.833 272.569C462.201 272.237 464.184 272.511 465.782 273.392C467.414 274.227 468.396 275.829 468.729 278.198C468.999 280.125 468.725 282.108 467.906 284.147C467.087 286.186 465.781 287.966 463.988 289.486C462.19 290.967 459.946 291.896 457.257 292.274C455.049 292.584 453.109 292.324 451.436 291.494C449.799 290.619 448.822 289.057 448.507 286.809C448.355 285.725 448.401 284.449 448.645 282.982C448.924 281.469 449.475 280 450.298 278.574C451.116 277.109 452.289 275.839 453.816 274.765C455.378 273.645 457.384 272.913 459.833 272.569ZM464.548 275.1L463.405 274.831C463.775 273.387 464.57 272.047 465.788 270.812C467.007 269.577 468.358 268.855 469.844 268.646C470.888 268.499 471.773 268.682 472.5 269.194C473.221 269.666 473.669 270.524 473.844 271.769C474.002 272.893 473.836 273.755 473.347 274.356C472.859 274.957 472.293 275.302 471.651 275.393C471.008 275.483 470.358 275.369 469.699 275.053C469.075 274.69 468.638 274.055 468.388 273.149C468.138 272.242 468.233 271.021 468.672 269.486L469.48 269.557C467.885 270.436 466.776 271.287 466.155 272.111C465.528 272.895 464.992 273.892 464.548 275.1Z" fill="#F0572F"/>
<path d="M434.792 287.26C433.91 291.478 433.002 295.065 432.066 298.021C431.13 300.977 430.118 303.391 429.03 305.263C427.982 307.13 426.829 308.54 425.571 309.494C424.353 310.443 423.021 311.019 421.576 311.222C419.81 311.47 418.469 311.249 417.553 310.559C416.637 309.868 416.084 308.841 415.892 307.476C415.701 306.111 415.765 304.526 416.084 302.721L419.457 284.317C419.689 283.056 419.7 282.113 419.49 281.487C419.279 280.862 418.772 280.606 417.969 280.718C417.207 280.825 416.503 281.354 415.859 282.304C415.254 283.249 414.7 284.984 414.195 287.512L413.725 289.85L412.581 290.01L413.469 285.403C413.834 283.632 414.357 282.249 415.036 281.253C415.755 280.251 416.533 279.528 417.371 279.083C418.244 278.592 419.082 278.29 419.885 278.177C421.651 277.929 422.875 278.187 423.555 278.952C424.27 279.67 424.637 280.683 424.657 281.99C424.717 283.292 424.605 284.679 424.32 286.152L421.017 304.177C420.366 307.707 421.045 309.332 423.052 309.05C424.016 308.914 424.98 308.349 425.946 307.354C426.906 306.319 427.835 304.919 428.734 303.155C429.627 301.352 430.457 299.25 431.226 296.849C432.029 294.403 432.737 291.725 433.352 288.814C434.001 285.857 434.522 282.713 434.914 279.383L434.792 287.26ZM436.818 303.003C436.689 304.126 436.675 305.049 436.777 305.772C436.913 306.449 437.382 306.731 438.185 306.618C439.068 306.494 439.806 305.92 440.399 304.895C441.027 303.824 441.567 302.132 442.02 299.817L442.49 297.479L443.634 297.318L442.746 301.925C442.42 303.69 441.898 305.074 441.179 306.075C440.5 307.071 439.722 307.794 438.843 308.245C438.011 308.731 437.173 309.032 436.33 309.151C435.688 309.241 435.066 309.185 434.464 308.983C433.863 308.781 433.385 308.438 433.03 307.956C432.614 307.319 432.372 306.472 432.306 305.417C432.28 304.357 432.363 302.912 432.557 301.084L435.178 276.89C436.176 276.709 437.129 276.493 438.035 276.243C438.982 275.988 439.817 275.666 440.54 275.278L436.818 303.003Z" fill="#F0572F"/>
<path d="M398.419 282.419C397.134 282.6 395.963 283.296 394.905 284.509C393.882 285.676 392.992 287.214 392.237 289.121C391.516 290.982 390.926 293.051 390.467 295.326C390.049 297.595 389.803 299.922 389.728 302.307C389.654 304.692 389.766 306.948 390.064 309.076C390.318 310.882 390.785 312.168 391.465 312.932C392.186 313.69 393.108 313.991 394.232 313.833C395.517 313.653 396.671 312.979 397.694 311.812C398.752 310.599 399.662 309.059 400.423 307.192C401.179 305.284 401.766 303.196 402.184 300.927C402.602 298.657 402.852 296.35 402.932 294.006C403.006 291.621 402.891 289.344 402.587 287.177C402.328 285.33 401.861 284.044 401.186 283.32C400.506 282.556 399.583 282.256 398.419 282.419ZM384.463 306.792C384.215 305.025 384.185 303.065 384.374 300.909C384.562 298.754 384.995 296.585 385.671 294.402C386.347 292.22 387.249 290.189 388.377 288.312C389.546 286.428 390.983 284.855 392.689 283.592C394.389 282.289 396.363 281.48 398.611 281.164C401.1 280.815 403.198 281.319 404.903 282.676C406.642 283.987 407.738 286.249 408.189 289.46C408.437 291.227 408.466 293.188 408.278 295.343C408.089 297.498 407.656 299.667 406.98 301.85C406.304 304.033 405.382 306.066 404.214 307.949C403.085 309.827 401.671 311.417 399.971 312.72C398.265 313.983 396.288 314.772 394.04 315.088C391.551 315.437 389.434 314.936 387.688 313.585C385.983 312.228 384.908 309.963 384.463 306.792Z" fill="#F0572F"/>
<path d="M367.229 317.992L361.99 318.727L365.589 291.879C365.799 290.457 365.784 289.477 365.545 288.938C365.345 288.392 364.905 288.168 364.222 288.264C363.339 288.388 362.601 288.962 362.008 289.987C361.415 291.012 360.875 292.704 360.387 295.065L359.917 297.403L358.773 297.564L359.661 292.957C360.027 291.186 360.549 289.803 361.228 288.807C361.947 287.805 362.726 287.082 363.564 286.637C364.436 286.146 365.274 285.844 366.077 285.731C367.282 285.562 368.161 285.705 368.716 286.159C369.311 286.607 369.688 287.251 369.847 288.088C370.045 288.92 370.115 289.852 370.055 290.883C370.03 291.869 369.961 292.841 369.85 293.798L367.229 317.992ZM378.453 285.529C377.529 285.658 376.628 286.235 375.748 287.259C374.903 288.238 374.074 289.623 373.261 291.416C372.483 293.162 371.733 295.253 371.01 297.688C370.322 300.077 369.671 302.727 369.056 305.638C368.481 308.544 367.958 311.667 367.485 315.008L367.909 307.089C368.681 302.969 369.441 299.485 370.187 296.637C370.974 293.784 371.814 291.455 372.707 289.651C373.594 287.808 374.569 286.443 375.632 285.556C376.729 284.625 377.94 284.066 379.265 283.88C380.389 283.722 381.297 283.922 381.99 284.48C382.722 285.032 383.159 285.81 383.3 286.813C383.413 287.616 383.316 288.387 383.011 289.126C382.699 289.825 382.251 290.42 381.665 290.912C381.113 291.357 380.456 291.634 379.693 291.741C379.011 291.837 378.403 291.738 377.871 291.444C377.373 291.105 377.076 290.594 376.98 289.911C376.89 289.269 376.932 288.69 377.105 288.174C377.272 287.619 377.532 287.132 377.882 286.714C378.233 286.297 378.655 285.951 379.149 285.677C379.057 285.608 378.949 285.562 378.823 285.538C378.737 285.509 378.613 285.506 378.453 285.529Z" fill="#F0572F"/>
<path d="M332.353 322.888L327.114 323.623L333.399 281.783C333.609 280.362 333.408 279.367 332.796 278.798C332.224 278.223 330.954 278.074 328.987 278.35L329.171 277.034C331.373 276.684 333.329 276.185 335.04 275.535C336.744 274.846 338.285 274.015 339.664 273.044L332.353 322.888ZM332.788 313.739C333.722 309.309 334.666 305.533 335.619 302.411C336.613 299.283 337.668 296.74 338.785 294.782C339.897 292.784 341.119 291.282 342.451 290.276C343.784 289.27 345.233 288.657 346.799 288.438C348.685 288.173 350.035 288.454 350.847 289.282C351.694 290.063 352.175 291.162 352.292 292.579C352.409 293.995 352.328 295.46 352.05 296.973L348.677 315.377C348.502 316.466 348.486 317.369 348.627 318.086C348.769 318.802 349.281 319.099 350.165 318.975C350.927 318.868 351.611 318.342 352.215 317.398C352.86 316.447 353.434 314.709 353.939 312.182L354.409 309.844L355.553 309.683L354.665 314.29C354.34 316.055 353.817 317.439 353.098 318.44C352.419 319.436 351.641 320.16 350.763 320.61C349.93 321.096 349.092 321.398 348.249 321.516C346.643 321.741 345.469 321.538 344.725 320.905C343.981 320.273 343.559 319.309 343.459 318.013C343.399 316.711 343.517 315.221 343.814 313.542L347.117 295.516C347.233 294.886 347.315 294.158 347.363 293.332C347.411 292.507 347.275 291.83 346.955 291.302C346.67 290.728 346.045 290.508 345.082 290.644C344.078 290.784 343.059 291.398 342.025 292.485C341.024 293.526 340.041 294.974 339.073 296.829C338.105 298.685 337.205 300.878 336.374 303.41C335.542 305.942 334.79 308.75 334.117 311.833C333.479 314.87 332.935 318.139 332.485 321.641L332.788 313.739Z" fill="#F0572F"/>
<path d="M325.664 292.265L325.653 293.495L306.925 296.124L307.057 294.877L325.664 292.265ZM313.995 320.246C313.82 321.622 314.036 322.574 314.642 323.103C315.283 323.586 316.045 323.766 316.928 323.642C317.811 323.518 318.641 323.012 319.417 322.125C320.234 321.233 320.909 319.48 321.442 316.867L321.956 314.4L323.1 314.24L322.368 318.211C321.851 320.945 320.958 322.892 319.688 324.052C318.458 325.208 316.92 325.915 315.073 326.174C313.427 326.405 312.115 326.241 311.136 325.683C310.191 325.079 309.548 324.145 309.207 322.883C308.867 321.621 308.821 320.133 309.072 318.42L313.841 284.591C314.799 284.416 315.731 284.203 316.637 283.953C317.584 283.697 318.419 283.375 319.142 282.987L313.995 320.246Z" fill="#F0572F"/>
<path d="M588.741 310.125L594.582 351.737C594.819 353.423 595.321 354.519 596.088 355.026C596.895 355.526 598.121 355.661 599.767 355.43L599.945 356.695C599.257 356.75 598.207 356.857 596.797 357.014C595.42 357.125 594.03 357.28 592.625 357.477C591.26 357.668 589.88 357.903 588.486 358.181C587.087 358.418 586.049 358.605 585.372 358.741L585.194 357.476C586.84 357.245 587.962 356.78 588.56 356.082C589.198 355.379 589.399 354.184 589.162 352.498L584.335 318.113C584.082 316.306 583.574 315.026 582.814 314.273C582.047 313.48 580.781 313.208 579.015 313.456L578.837 312.191C580.139 312.131 581.392 312.017 582.596 311.848C583.76 311.684 584.856 311.469 585.883 311.202C586.944 310.889 587.897 310.53 588.741 310.125Z" fill="#F0572F"/>
<path d="M571.509 312.545L577.351 354.156C577.587 355.842 578.089 356.939 578.856 357.445C579.663 357.946 580.89 358.081 582.536 357.85L582.714 359.114C582.025 359.17 580.976 359.276 579.565 359.433C578.189 359.545 576.798 359.699 575.393 359.896C574.028 360.088 572.649 360.322 571.255 360.6C569.856 360.837 568.817 361.024 568.141 361.16L567.963 359.895C569.609 359.664 570.731 359.2 571.329 358.502C571.967 357.798 572.168 356.603 571.931 354.917L567.104 320.532C566.85 318.725 566.343 317.446 565.582 316.693C564.816 315.9 563.55 315.627 561.783 315.875L561.606 314.611C562.907 314.551 564.16 314.436 565.365 314.267C566.529 314.104 567.624 313.889 568.651 313.622C569.713 313.309 570.665 312.95 571.509 312.545Z" fill="#F0572F"/>
<path d="M547.18 364.532C545.534 364.763 544.067 364.662 542.778 364.229C541.483 363.756 540.436 363.002 539.636 361.968C538.876 360.929 538.392 359.666 538.183 358.181C537.935 356.414 538.134 354.913 538.779 353.676C539.464 352.434 540.401 351.381 541.59 350.518C542.779 349.655 544.045 348.904 545.388 348.266C546.766 347.581 548.069 346.948 549.297 346.366C550.52 345.744 551.493 345.096 552.217 344.421C552.981 343.74 553.298 342.939 553.169 342.015L552.645 338.282C552.408 336.595 551.967 335.347 551.321 334.537C550.715 333.722 549.971 333.233 549.088 333.07C548.2 332.867 547.234 332.839 546.19 332.986C545.187 333.127 544.123 333.419 542.998 333.864C541.913 334.303 541.092 335.011 540.533 335.99C541.318 336.044 542.037 336.352 542.689 336.916C543.342 337.479 543.738 338.263 543.879 339.267C544.02 340.27 543.812 341.118 543.254 341.811C542.69 342.463 541.907 342.859 540.903 343C539.739 343.164 538.825 342.924 538.162 342.28C537.533 341.59 537.153 340.784 537.024 339.86C536.877 338.817 537.02 337.937 537.451 337.221C537.883 336.506 538.461 335.811 539.185 335.136C540.018 334.364 541.126 333.656 542.51 333.011C543.927 332.321 545.56 331.846 547.406 331.587C549.052 331.356 550.486 331.359 551.706 331.597C552.921 331.795 553.961 332.202 554.825 332.817C556.004 333.634 556.853 334.723 557.371 336.083C557.884 337.403 558.276 339.026 558.546 340.953L560.896 357.694C561.037 358.698 561.279 359.401 561.622 359.803C562.005 360.199 562.518 360.353 563.161 360.262C563.602 360.2 564.01 360.041 564.383 359.784C564.756 359.527 565.193 359.138 565.693 358.617L566.499 359.548C565.746 360.309 565.019 360.963 564.319 361.512C563.612 362.021 562.617 362.365 561.332 362.546C560.168 362.709 559.176 362.643 558.357 362.349C557.538 362.055 556.874 361.554 556.365 360.848C555.891 360.096 555.57 359.117 555.401 357.913C554.57 359.872 553.454 361.4 552.053 362.497C550.691 363.589 549.067 364.267 547.18 364.532ZM549.01 361.819C550.335 361.633 551.506 361.08 552.523 360.159C553.58 359.233 554.463 357.942 555.172 356.287L553.515 344.484C553.13 345.234 552.509 345.915 551.653 346.526C550.792 347.098 549.853 347.7 548.836 348.334C547.814 348.928 546.847 349.616 545.933 350.4C545.054 351.137 544.364 352.053 543.863 353.147C543.361 354.24 543.223 355.59 543.449 357.196C543.674 358.802 544.276 360.027 545.254 360.873C546.273 361.712 547.525 362.028 549.01 361.819Z" fill="#F0572F"/>
<path d="M526.839 318.938C527.963 318.78 528.969 318.803 529.857 319.005C530.78 319.162 531.596 319.437 532.306 319.828C532.976 320.225 533.517 320.723 533.928 321.32C534.339 321.917 534.596 322.577 534.697 323.3C534.827 324.223 534.633 325.028 534.115 325.715C533.598 326.402 532.877 326.81 531.954 326.939C531.07 327.063 530.248 326.892 529.487 326.426C528.76 325.914 528.326 325.156 528.185 324.153C528.067 323.309 528.192 322.596 528.56 322.012C528.969 321.423 529.543 320.994 530.283 320.726C530.112 320.382 529.749 320.126 529.193 319.958C528.672 319.745 527.989 319.697 527.146 319.816C526.223 319.945 525.448 320.259 524.822 320.756C524.236 321.248 523.81 321.86 523.545 322.593C523.182 323.504 523.058 324.811 523.174 326.514C523.285 328.177 523.583 330.735 524.067 334.187L524.287 335.753L530.731 334.848L530.9 336.053L524.456 336.957L527.762 360.503C528.038 362.47 528.786 363.716 530.006 364.241C531.26 364.72 532.871 364.821 534.838 364.545L535.016 365.809C534.087 365.899 532.776 366.042 531.084 366.238C529.387 366.395 527.595 366.606 525.708 366.87C524.343 367.062 522.984 367.294 521.63 367.566C520.311 367.792 519.313 367.973 518.636 368.109L518.458 366.844C520.104 366.613 521.226 366.149 521.824 365.451C522.462 364.747 522.663 363.552 522.426 361.866L519.036 337.718L514.219 338.394L514.05 337.19L518.867 336.514C518.535 334.145 518.356 332.144 518.332 330.51C518.307 328.876 518.436 327.466 518.72 326.28C518.998 325.053 519.457 323.945 520.096 322.955C520.769 321.919 521.691 321.052 522.862 320.356C524.028 319.619 525.354 319.146 526.839 318.938Z" fill="#F0572F"/>
<path d="M483.278 340.589C486.811 340.093 489.714 340.791 491.985 342.683C494.291 344.529 495.762 347.72 496.399 352.256L475.142 355.24L474.921 354.105L490.458 351.924C490.262 349.945 489.848 348.161 489.215 346.572C488.577 344.942 487.746 343.687 486.722 342.807C485.738 341.922 484.563 341.575 483.198 341.767C481.351 342.026 479.835 343.181 478.649 345.23C477.503 347.274 477.072 350.323 477.354 354.377L477.569 354.593C477.573 355.206 477.606 355.877 477.667 356.605C477.728 357.334 477.81 358.059 477.911 358.782C478.294 361.512 479.066 363.798 480.225 365.641C481.384 367.485 482.74 368.829 484.292 369.676C485.878 370.477 487.434 370.77 488.959 370.556C490.163 370.387 491.282 370.045 492.316 369.532C493.343 368.978 494.257 368.195 495.056 367.182C495.855 366.169 496.492 364.872 496.966 363.291L498.238 363.604C497.982 364.991 497.44 366.377 496.611 367.762C495.782 369.148 494.661 370.349 493.248 371.366C491.83 372.343 490.117 372.972 488.11 373.254C485.219 373.66 482.637 373.347 480.364 372.315C478.13 371.278 476.288 369.674 474.837 367.503C473.421 365.287 472.498 362.653 472.07 359.602C471.574 356.069 471.71 352.959 472.479 350.272C473.243 347.545 474.552 345.355 476.408 343.703C478.258 342.01 480.549 340.972 483.278 340.589Z" fill="#F0572F"/>
<path d="M440.55 330.991L443.712 353.513C444.372 350.636 445.553 348.546 447.253 347.243C448.993 345.935 450.887 345.137 452.935 344.849C454.46 344.635 455.753 344.658 456.813 344.919C457.913 345.174 458.855 345.615 459.639 346.241C460.515 346.937 461.197 347.865 461.688 349.024C462.178 350.183 462.567 351.787 462.854 353.834L465.111 369.913C465.348 371.599 465.85 372.695 466.617 373.202C467.424 373.702 468.651 373.837 470.297 373.606L470.474 374.871C469.786 374.926 468.737 375.033 467.326 375.19C465.91 375.307 464.539 375.458 463.214 375.644C461.889 375.83 460.59 376.054 459.317 376.314C458.078 376.529 457.14 376.702 456.503 376.832L456.326 375.567C457.771 375.364 458.753 374.92 459.27 374.233C459.788 373.546 459.928 372.36 459.692 370.674L457.249 353.27C457.074 352.026 456.813 350.896 456.466 349.88C456.118 348.864 455.538 348.086 454.725 347.545C453.953 346.999 452.844 346.827 451.399 347.03C449.753 347.261 448.352 347.928 447.197 349.032C446.082 350.13 445.279 351.553 444.787 353.3C444.296 355.048 444.199 356.985 444.498 359.113L446.383 372.542C446.62 374.228 447.082 375.33 447.768 375.848C448.455 376.365 449.521 376.523 450.966 376.32L451.144 377.584C450.496 377.634 449.527 377.729 448.236 377.87C446.981 377.964 445.69 378.104 444.366 378.29C443.041 378.476 441.681 378.708 440.288 378.986C438.888 379.223 437.85 379.41 437.173 379.546L436.996 378.281C438.642 378.05 439.764 377.585 440.361 376.887C441 376.184 441.2 374.989 440.964 373.303L436.145 338.978C435.891 337.171 435.384 335.892 434.623 335.139C433.857 334.346 432.591 334.073 430.824 334.321L430.647 333.056C431.948 332.997 433.201 332.882 434.406 332.713C435.57 332.55 436.665 332.334 437.692 332.067C438.754 331.755 439.706 331.396 440.55 330.991Z" fill="#F0572F"/>
<path d="M420.366 340.088L421.778 350.144L430.69 348.893L430.859 350.098L421.947 351.349L425.218 374.654C425.483 376.54 426.01 377.817 426.8 378.484C427.59 379.151 428.587 379.4 429.791 379.231C430.995 379.062 431.971 378.434 432.719 377.346C433.462 376.219 433.991 374.445 434.306 372.027L435.553 372.159C435.478 374.544 434.951 376.624 433.972 378.398C433.034 380.168 431.34 381.224 428.891 381.568C427.526 381.76 426.376 381.737 425.443 381.5C424.514 381.302 423.664 380.93 422.891 380.384C421.878 379.585 421.101 378.568 420.559 377.334C420.058 376.094 419.658 374.411 419.359 372.283L416.527 352.11L410.746 352.921L410.577 351.717L416.358 350.905L415.064 341.692C416.062 341.511 417.015 341.295 417.921 341.045C418.828 340.795 419.642 340.476 420.366 340.088Z" fill="#F0572F"/>
<path d="M322.431 204.885L204.593 279.584L199.928 276.024L317.766 201.326L322.431 204.885Z" fill="#3A001E"/>
<path d="M328.872 220.321L211.035 295.019L206.37 291.46L324.208 216.761L328.872 220.321Z" fill="#3A001E"/>
<path d="M335.315 235.756L217.477 310.455L212.812 306.895L330.65 232.197L335.315 235.756Z" fill="#3A001E"/>
<path d="M76.2828 252.998L81.1703 233.687L88.4091 232.368L77.387 253.291L76.2828 252.998ZM88.2477 250.817L93.1352 231.507L100.374 230.188L89.3519 251.111L88.2477 250.817Z" fill="#3A001E"/>
<path d="M430.434 60.3236L441.988 101.165L430.036 111.311L428.084 60.9589L430.434 60.3236ZM410.678 77.0945L422.232 117.936L410.279 128.082L408.328 77.7297L410.678 77.0945Z" fill="#3A001E"/>
<path d="M490.653 148.605C496.303 147.576 501.567 147.556 506.444 148.546C511.386 149.524 515.582 151.745 519.031 155.21C522.469 158.609 524.767 163.491 525.927 169.855C526.921 175.31 526.944 180.406 525.995 185.141C525.046 189.877 523.427 194.063 521.138 197.701C518.913 201.327 516.299 204.286 513.295 206.578C510.343 208.793 507.309 210.185 504.192 210.753C501.594 211.226 499.676 211.006 498.435 210.091C497.195 209.176 496.433 207.94 496.149 206.381C495.853 204.758 495.764 203.163 495.881 201.599C495.999 200.034 496.09 198.877 496.155 198.127L496.807 168.016C498.301 167.744 499.809 167.368 501.332 166.889C502.855 166.41 504.186 165.799 505.326 165.054L503.657 202.295C503.528 203.795 503.546 205 503.712 205.909C503.866 206.753 504.205 207.329 504.731 207.635C505.31 207.865 506.054 207.898 506.963 207.732C508.846 207.389 510.956 206.266 513.294 204.364C515.619 202.397 517.761 199.792 519.72 196.55C521.732 193.231 523.171 189.346 524.038 184.894C524.969 180.43 524.943 175.503 523.961 170.113C522.861 164.073 520.68 159.472 517.42 156.309C514.159 153.145 510.238 151.142 505.656 150.3C501.063 149.392 496.201 149.406 491.07 150.341C486.329 151.205 481.873 152.889 477.699 155.394C473.526 157.899 469.808 161.059 466.544 164.875C463.334 168.613 460.679 172.821 458.578 177.498C456.532 182.098 455.14 186.981 454.404 192.148C453.733 197.302 453.877 202.51 454.835 207.77C456.054 214.459 458.303 219.618 461.581 223.248C464.871 226.943 468.895 229.329 473.655 230.408C478.414 231.487 483.586 231.517 489.171 230.499C492.678 229.86 496.01 228.817 499.168 227.369C502.403 225.975 505.44 224.046 508.279 221.582L509.192 222.725C507.097 224.851 504.358 226.759 500.975 228.449C497.605 230.204 493.744 231.478 489.393 232.27C483.353 233.371 477.806 233.308 472.752 232.082C467.698 230.856 463.443 228.31 459.987 224.444C456.532 220.578 454.177 215.203 452.922 208.32C451.964 203.06 451.814 197.82 452.474 192.6C453.121 187.316 454.483 182.27 456.559 177.463C458.689 172.58 461.406 168.159 464.711 164.202C468.004 160.18 471.822 156.834 476.167 154.164C480.564 151.417 485.393 149.564 490.653 148.605ZM488.766 168.072C490.259 167.8 491.611 167.855 492.822 168.239C494.097 168.61 495.146 169.392 495.967 170.584C496.841 171.7 497.382 173.379 497.589 175.623L496.881 176.155C496.573 174.466 496.098 173.144 495.454 172.188C494.81 171.231 493.992 170.609 493 170.32C492.008 170.031 490.862 170.005 489.564 170.241C487.42 170.632 485.567 171.875 484.003 173.972C482.504 176.057 481.307 178.691 480.411 181.873C479.568 184.979 479.07 188.324 478.918 191.908C478.766 195.492 479.003 199.005 479.631 202.447C480.21 205.629 481.064 207.922 482.193 209.327C483.386 210.72 484.794 211.268 486.418 210.972C488.95 210.511 491.155 208.063 493.03 203.628C494.971 199.181 496.12 193.336 496.478 186.091L497.541 187.508C497.094 193.158 496.346 197.891 495.297 201.705C494.247 205.52 492.773 208.472 490.872 210.563C489.037 212.642 486.626 213.954 483.638 214.498C481.17 214.948 479.095 214.789 477.412 214.022C475.794 213.244 474.501 212.037 473.532 210.402C472.551 208.702 471.859 206.748 471.457 204.54C470.783 200.838 470.784 196.98 471.461 192.965C472.127 188.885 473.28 185.085 474.92 181.565C476.613 177.969 478.646 174.948 481.018 172.503C483.391 170.058 485.973 168.581 488.766 168.072Z" fill="#3A001E"/>
</svg>
