<svg width="221" height="220" viewBox="0 0 221 220" fill="none" xmlns="http://www.w3.org/2000/svg">
<path d="M139.312 28.9725L147.546 42.0282L162.979 41.8178L166.775 56.7786L181.518 61.3477L180.504 76.7493L193.114 85.6506L187.391 99.9852L196.633 112.347L186.76 124.212L191.73 138.825L178.674 147.058L178.884 162.491L163.924 166.287L159.354 181.03L143.953 180.017L135.052 192.627L120.717 186.904L108.355 196.145L96.4902 186.273L81.8772 191.242L73.6441 178.186L58.2107 178.397L54.415 163.436L39.672 158.867L40.6852 143.465L28.0756 134.564L33.7986 120.229L24.5569 107.867L34.4294 96.0027L29.4601 81.3896L42.5158 73.1566L42.3053 57.7232L57.2662 53.9275L61.8353 39.1844L77.2368 40.1976L86.1381 27.5881L100.473 33.3111L112.835 24.0693L124.699 33.9418L139.312 28.9725Z" fill="white"/>
<path d="M134.945 82.1621L115.979 135.746C114.764 139.179 114.43 141.682 114.977 143.256C115.606 144.858 117.187 146.107 119.721 147.004L118.81 149.579C117.204 148.919 114.821 147.984 111.662 146.773C108.614 145.511 105.414 144.286 102.062 143.1C97.5661 141.508 93.2047 140.057 88.9779 138.744C84.8618 137.38 81.6448 136.333 79.327 135.604L80.2384 133.03C83.5899 134.216 86.3964 134.473 88.6577 133.802C91.0297 133.078 92.9245 130.713 94.3423 126.707L105.019 96.5437C106.408 92.62 107.108 89.6023 107.119 87.4907C107.212 85.4081 106.584 83.8058 105.233 82.6838C103.883 81.5619 101.858 80.5235 99.1609 79.5687L100.116 76.8711C107.939 79.4563 114.544 81.1962 119.931 82.0909C125.317 82.9856 130.322 83.0093 134.945 82.1621Z" fill="black"/>
<path fill-rule="evenodd" clip-rule="evenodd" d="M85.5977 180.652C124.563 194.444 167.332 174.037 181.124 135.071C194.916 96.105 174.509 53.3364 135.543 39.5444C96.5769 25.7525 53.8083 46.1599 40.0164 85.1257C26.2244 124.092 46.6319 166.86 85.5977 180.652ZM85.0366 182.237C124.878 196.339 168.607 175.473 182.709 135.632C196.811 95.7906 175.945 52.0612 136.104 37.9594C96.2625 23.8576 52.5331 44.7235 38.4313 84.5647C24.3295 124.406 45.1954 168.135 85.0366 182.237Z" fill="black"/>
<path fill-rule="evenodd" clip-rule="evenodd" d="M88.7303 171.802C122.808 183.864 160.212 166.016 172.274 131.938C184.336 97.8597 166.489 60.4558 132.41 48.3939C98.3324 36.3319 60.9284 54.1795 48.8665 88.2576C36.8045 122.336 54.6522 159.74 88.7303 171.802ZM88.5433 172.33C122.913 184.495 160.637 166.495 172.803 132.125C184.968 97.7549 166.967 60.0307 132.597 47.8655C98.2276 35.7003 60.5034 53.7007 48.3381 88.0706C36.1729 122.441 54.1733 160.165 88.5433 172.33Z" fill="black"/>
<path d="M179.919 140.268L179.669 140.168C179.76 139.915 179.803 139.71 179.798 139.554C179.797 139.409 179.73 139.286 179.597 139.184C179.472 139.086 179.255 138.976 178.947 138.853L172.748 136.386C172.448 136.267 172.215 136.198 172.048 136.18C171.878 136.17 171.744 136.218 171.644 136.323C171.544 136.428 171.436 136.602 171.32 136.846L171.07 136.746C171.183 136.511 171.316 136.202 171.468 135.819C171.626 135.447 171.782 135.065 171.938 134.674C172.117 134.224 172.282 133.797 172.433 133.394C172.589 133.002 172.707 132.683 172.786 132.434L173.036 132.534C172.95 132.799 172.907 133.004 172.907 133.148C172.908 133.293 172.974 133.416 173.108 133.518C173.241 133.619 173.458 133.73 173.758 133.849L179.957 136.316C180.265 136.439 180.498 136.508 180.657 136.522C180.823 136.54 180.958 136.493 181.061 136.379C181.169 136.277 181.277 136.103 181.385 135.857L181.635 135.956C181.53 136.194 181.396 136.508 181.232 136.896C181.064 137.293 180.891 137.716 180.712 138.166C180.556 138.557 180.408 138.942 180.267 139.321C180.123 139.707 180.006 140.023 179.919 140.268Z" fill="black"/>
<path d="M177.099 146.08L176.858 145.96C176.971 145.715 177.031 145.514 177.039 145.358C177.051 145.214 176.995 145.085 176.87 144.973C176.754 144.865 176.547 144.736 176.251 144.588L170.283 141.605C169.994 141.461 169.767 141.373 169.603 141.341C169.434 141.316 169.296 141.353 169.188 141.449C169.079 141.545 168.957 141.71 168.821 141.942L168.58 141.822C168.712 141.597 168.871 141.301 169.055 140.932C169.244 140.575 169.432 140.208 169.621 139.831C169.837 139.397 170.038 138.986 170.222 138.597C170.41 138.22 170.555 137.911 170.655 137.671L170.896 137.791C170.787 138.048 170.727 138.248 170.715 138.393C170.703 138.537 170.759 138.665 170.884 138.778C171.008 138.89 171.215 139.018 171.503 139.163L177.471 142.146C177.768 142.294 177.995 142.382 178.151 142.41C178.316 142.442 178.454 142.406 178.566 142.302C178.683 142.21 178.805 142.045 178.933 141.808L179.174 141.929C179.05 142.157 178.889 142.458 178.693 142.831C178.492 143.212 178.284 143.619 178.067 144.052C177.879 144.429 177.698 144.8 177.526 145.165C177.35 145.538 177.207 145.843 177.099 146.08Z" fill="black"/>
<path d="M173.837 151.563L173.607 151.423C173.74 151.188 173.817 150.994 173.838 150.839C173.862 150.696 173.817 150.563 173.702 150.441C173.596 150.323 173.4 150.178 173.117 150.005L167.421 146.53C167.146 146.362 166.927 146.255 166.766 146.21C166.6 146.171 166.46 146.196 166.344 146.283C166.228 146.369 166.092 146.523 165.936 146.743L165.707 146.603C165.857 146.391 166.04 146.108 166.255 145.756C166.473 145.416 166.692 145.066 166.911 144.706C167.163 144.293 167.398 143.9 167.614 143.528C167.834 143.168 168.003 142.873 168.124 142.641L168.353 142.781C168.224 143.028 168.147 143.223 168.123 143.366C168.099 143.509 168.144 143.641 168.258 143.764C168.373 143.886 168.568 144.031 168.843 144.199L174.539 147.674C174.823 147.847 175.041 147.954 175.194 147.995C175.356 148.041 175.496 148.016 175.617 147.922C175.741 147.84 175.876 147.686 176.024 147.461L176.254 147.601C176.111 147.818 175.926 148.105 175.699 148.46C175.467 148.823 175.225 149.211 174.973 149.624C174.753 149.984 174.542 150.338 174.34 150.688C174.132 151.044 173.965 151.336 173.837 151.563Z" fill="black"/>
<path d="M170.02 156.875L169.804 156.716C169.956 156.494 170.049 156.307 170.084 156.154C170.121 156.014 170.087 155.878 169.984 155.746C169.888 155.619 169.706 155.458 169.439 155.261L164.068 151.302C163.808 151.111 163.6 150.985 163.443 150.926C163.282 150.873 163.139 150.885 163.016 150.961C162.893 151.038 162.744 151.179 162.57 151.385L162.354 151.225C162.522 151.027 162.729 150.761 162.974 150.429C163.22 150.11 163.469 149.78 163.719 149.441C164.006 149.051 164.274 148.68 164.522 148.328C164.772 147.989 164.967 147.709 165.107 147.489L165.323 147.649C165.173 147.883 165.079 148.071 165.043 148.211C165.006 148.351 165.04 148.487 165.143 148.619C165.247 148.751 165.428 148.913 165.688 149.104L171.059 153.063C171.326 153.259 171.534 153.385 171.684 153.439C171.84 153.499 171.983 153.487 172.111 153.403C172.241 153.332 172.39 153.191 172.557 152.98L172.773 153.14C172.612 153.344 172.403 153.613 172.145 153.947C171.883 154.288 171.608 154.653 171.32 155.043C171.07 155.382 170.829 155.717 170.597 156.047C170.36 156.385 170.167 156.661 170.02 156.875Z" fill="black"/>
<path d="M165.799 161.789L165.597 161.611C165.768 161.404 165.878 161.225 165.925 161.076C165.974 160.939 165.952 160.801 165.861 160.661C165.776 160.526 165.609 160.349 165.36 160.13L160.351 155.723C160.109 155.509 159.912 155.366 159.761 155.293C159.605 155.227 159.462 155.227 159.332 155.292C159.203 155.357 159.043 155.485 158.852 155.675L158.65 155.498C158.835 155.314 159.064 155.068 159.336 154.758C159.61 154.461 159.886 154.154 160.164 153.838C160.484 153.474 160.783 153.128 161.06 152.799C161.339 152.482 161.557 152.221 161.716 152.014L161.918 152.191C161.747 152.412 161.638 152.59 161.59 152.727C161.541 152.864 161.563 153.002 161.654 153.142C161.746 153.283 161.913 153.459 162.155 153.673L167.164 158.08C167.413 158.299 167.61 158.443 167.754 158.51C167.904 158.583 168.047 158.583 168.183 158.511C168.319 158.451 168.479 158.323 168.663 158.127L168.865 158.305C168.687 158.494 168.455 158.744 168.17 159.055C167.879 159.372 167.573 159.712 167.253 160.076C166.975 160.392 166.706 160.705 166.446 161.014C166.18 161.33 165.965 161.588 165.799 161.789Z" fill="black"/>
<path d="M161.202 166.293L161.016 166.099C161.204 165.906 161.328 165.737 161.389 165.593C161.449 165.461 161.439 165.321 161.36 165.174C161.287 165.033 161.136 164.842 160.906 164.602L156.293 159.782C156.07 159.549 155.886 159.39 155.742 159.304C155.591 159.225 155.449 159.212 155.315 159.266C155.18 159.32 155.01 159.434 154.803 159.607L154.617 159.413C154.817 159.246 155.066 159.02 155.364 158.735C155.662 158.462 155.963 158.18 156.268 157.889C156.617 157.554 156.945 157.234 157.25 156.93C157.554 156.639 157.794 156.397 157.969 156.204L158.155 156.398C157.967 156.603 157.843 156.772 157.783 156.904C157.723 157.036 157.733 157.175 157.812 157.323C157.891 157.471 158.042 157.661 158.265 157.894L162.879 162.714C163.108 162.954 163.292 163.113 163.43 163.193C163.574 163.278 163.716 163.291 163.857 163.23C163.998 163.183 164.168 163.069 164.369 162.89L164.555 163.084C164.361 163.257 164.108 163.486 163.798 163.771C163.48 164.063 163.147 164.376 162.797 164.71C162.493 165.002 162.198 165.29 161.912 165.576C161.62 165.868 161.384 166.107 161.202 166.293Z" fill="black"/>
<path d="M156.257 170.376L156.088 170.166C156.292 169.99 156.43 169.833 156.502 169.694C156.573 169.568 156.575 169.428 156.509 169.274C156.448 169.127 156.313 168.924 156.105 168.666L151.917 163.472C151.714 163.221 151.545 163.047 151.408 162.949C151.265 162.857 151.124 162.833 150.986 162.875C150.847 162.918 150.668 163.017 150.447 163.171L150.278 162.962C150.492 162.813 150.759 162.609 151.08 162.35C151.4 162.103 151.724 161.848 152.052 161.583C152.429 161.279 152.782 160.989 153.112 160.712C153.44 160.447 153.7 160.226 153.891 160.049L154.06 160.258C153.855 160.447 153.716 160.604 153.646 160.73C153.575 160.857 153.572 160.997 153.639 161.151C153.705 161.304 153.84 161.507 154.042 161.758L158.231 166.952C158.439 167.21 158.608 167.385 158.739 167.475C158.875 167.573 159.016 167.597 159.162 167.549C159.306 167.514 159.485 167.415 159.7 167.253L159.869 167.462C159.661 167.619 159.39 167.826 159.056 168.083C158.716 168.346 158.357 168.63 157.98 168.934C157.652 169.199 157.334 169.461 157.025 169.721C156.71 169.987 156.453 170.205 156.257 170.376Z" fill="black"/>
<path d="M150.992 174.02L150.841 173.797C151.059 173.639 151.21 173.494 151.294 173.361C151.375 173.241 151.389 173.102 151.336 172.943C151.288 172.792 151.171 172.579 150.985 172.304L147.248 166.776C147.068 166.509 146.913 166.321 146.786 166.212C146.651 166.108 146.513 166.072 146.371 166.103C146.229 166.133 146.042 166.217 145.809 166.353L145.659 166.13C145.884 165.999 146.168 165.818 146.51 165.587C146.849 165.368 147.193 165.141 147.542 164.905C147.944 164.634 148.32 164.374 148.672 164.126C149.021 163.889 149.298 163.691 149.503 163.531L149.654 163.754C149.434 163.924 149.283 164.069 149.202 164.189C149.12 164.309 149.106 164.449 149.16 164.607C149.213 164.766 149.33 164.979 149.511 165.247L153.247 170.774C153.433 171.049 153.587 171.237 153.71 171.339C153.837 171.447 153.975 171.484 154.124 171.448C154.271 171.425 154.458 171.341 154.686 171.198L154.837 171.421C154.616 171.559 154.329 171.743 153.975 171.971C153.613 172.205 153.232 172.457 152.831 172.728C152.481 172.964 152.142 173.199 151.813 173.433C151.476 173.671 151.203 173.867 150.992 174.02Z" fill="black"/>
<path d="M145.441 177.207L145.31 176.972C145.54 176.833 145.703 176.7 145.797 176.576C145.888 176.463 145.914 176.325 145.874 176.162C145.839 176.007 145.74 175.785 145.578 175.496L142.317 169.675C142.159 169.393 142.021 169.193 141.903 169.074C141.778 168.96 141.643 168.912 141.499 168.93C141.355 168.949 141.162 169.017 140.918 169.132L140.787 168.898C141.023 168.786 141.32 168.63 141.68 168.428C142.037 168.239 142.399 168.041 142.767 167.835C143.189 167.598 143.586 167.371 143.957 167.153C144.325 166.947 144.618 166.772 144.836 166.63L144.967 166.864C144.733 167.016 144.571 167.148 144.48 167.261C144.389 167.373 144.363 167.511 144.403 167.674C144.443 167.837 144.542 168.059 144.699 168.34L147.96 174.161C148.122 174.451 148.26 174.651 148.374 174.762C148.492 174.881 148.627 174.929 148.778 174.906C148.926 174.895 149.12 174.827 149.359 174.704L149.49 174.938C149.259 175.058 148.957 175.216 148.585 175.415C148.205 175.617 147.804 175.837 147.382 176.073C147.014 176.279 146.656 176.485 146.308 176.69C145.953 176.899 145.664 177.072 145.441 177.207Z" fill="black"/>
<path d="M139.64 179.917L139.529 179.672C139.77 179.552 139.943 179.434 140.047 179.318C140.148 179.213 140.185 179.078 140.159 178.912C140.136 178.755 140.056 178.525 139.919 178.223L137.156 172.151C137.022 171.857 136.901 171.646 136.793 171.517C136.678 171.393 136.547 171.334 136.403 171.34C136.258 171.347 136.059 171.398 135.807 171.493L135.696 171.248C135.94 171.157 136.25 171.026 136.625 170.855C136.996 170.696 137.373 170.529 137.757 170.355C138.198 170.154 138.612 169.961 139 169.774C139.384 169.6 139.69 169.45 139.92 169.326L140.031 169.571C139.786 169.703 139.613 169.821 139.513 169.925C139.412 170.03 139.375 170.165 139.401 170.331C139.427 170.496 139.507 170.726 139.641 171.02L142.404 177.092C142.542 177.394 142.663 177.605 142.766 177.726C142.874 177.854 143.004 177.913 143.157 177.903C143.306 177.904 143.504 177.853 143.753 177.75L143.864 177.995C143.624 178.094 143.31 178.227 142.923 178.394C142.527 178.564 142.109 178.749 141.668 178.95C141.285 179.124 140.911 179.299 140.547 179.474C140.176 179.653 139.873 179.801 139.64 179.917Z" fill="black"/>
<path d="M133.624 182.131L133.534 181.878C133.784 181.779 133.966 181.676 134.08 181.568C134.189 181.472 134.237 181.341 134.225 181.174C134.216 181.015 134.155 180.78 134.044 180.467L131.797 174.185C131.688 173.881 131.586 173.66 131.489 173.523C131.384 173.39 131.259 173.32 131.115 173.315C130.97 173.309 130.768 173.343 130.508 173.417L130.418 173.164C130.669 173.093 130.988 172.988 131.377 172.849C131.76 172.722 132.15 172.587 132.547 172.445C133.003 172.282 133.432 172.124 133.834 171.971C134.231 171.829 134.549 171.706 134.788 171.601L134.878 171.854C134.622 171.965 134.44 172.068 134.332 172.164C134.223 172.26 134.175 172.392 134.187 172.559C134.199 172.726 134.26 172.961 134.368 173.265L136.615 179.548C136.726 179.86 136.829 180.081 136.923 180.209C137.019 180.346 137.144 180.416 137.297 180.418C137.445 180.432 137.647 180.398 137.904 180.316L137.994 180.569C137.746 180.648 137.422 180.754 137.022 180.888C136.614 181.024 136.182 181.174 135.726 181.337C135.329 181.479 134.942 181.622 134.565 181.766C134.18 181.914 133.866 182.035 133.624 182.131Z" fill="black"/>
<path d="M127.375 183.839L127.307 183.579C127.565 183.502 127.756 183.415 127.879 183.318C127.995 183.232 128.055 183.105 128.057 182.938C128.062 182.779 128.023 182.539 127.939 182.218L126.251 175.763C126.169 175.451 126.086 175.222 126.002 175.077C125.909 174.935 125.79 174.855 125.647 174.837C125.503 174.819 125.299 174.835 125.034 174.886L124.966 174.625C125.222 174.577 125.55 174.501 125.949 174.396C126.341 174.303 126.742 174.203 127.149 174.096C127.618 173.974 128.059 173.853 128.473 173.736C128.881 173.629 129.209 173.534 129.456 173.451L129.524 173.711C129.259 173.799 129.069 173.886 128.952 173.972C128.836 174.058 128.776 174.185 128.774 174.353C128.771 174.52 128.811 174.76 128.892 175.072L130.58 181.527C130.664 181.848 130.747 182.077 130.829 182.213C130.914 182.358 131.032 182.438 131.184 182.454C131.33 182.481 131.535 182.464 131.797 182.405L131.865 182.665C131.611 182.722 131.279 182.8 130.869 182.898C130.451 182.998 130.007 183.109 129.539 183.232C129.131 183.338 128.733 183.447 128.345 183.558C127.948 183.671 127.625 183.765 127.375 183.839Z" fill="black"/>
<path d="M121.069 185.002L121.023 184.737C121.286 184.683 121.484 184.612 121.614 184.526C121.738 184.45 121.808 184.329 121.824 184.162C121.842 184.004 121.823 183.762 121.767 183.435L120.63 176.86C120.574 176.542 120.511 176.307 120.439 176.156C120.359 176.006 120.248 175.916 120.106 175.886C119.964 175.856 119.759 175.855 119.491 175.883L119.445 175.618C119.705 175.591 120.038 175.543 120.444 175.473C120.843 175.413 121.251 175.347 121.666 175.275C122.143 175.192 122.593 175.11 123.016 175.028C123.431 174.956 123.765 174.889 124.018 174.827L124.064 175.092C123.793 175.157 123.596 175.228 123.473 175.304C123.349 175.38 123.279 175.501 123.263 175.668C123.246 175.834 123.265 176.077 123.32 176.395L124.457 182.969C124.514 183.296 124.577 183.531 124.648 183.674C124.719 183.825 124.83 183.915 124.981 183.943C125.124 183.982 125.329 183.983 125.596 183.946L125.642 184.211C125.384 184.247 125.046 184.296 124.63 184.359C124.204 184.424 123.753 184.497 123.275 184.58C122.86 184.652 122.454 184.726 122.058 184.804C121.653 184.883 121.323 184.949 121.069 185.002Z" fill="black"/>
<path d="M114.678 185.626L114.655 185.358C114.922 185.326 115.125 185.272 115.262 185.197C115.392 185.132 115.472 185.017 115.503 184.853C115.534 184.697 115.536 184.454 115.507 184.123L114.934 177.476C114.906 177.154 114.863 176.915 114.804 176.758C114.737 176.602 114.634 176.503 114.495 176.461C114.356 176.419 114.152 176.4 113.883 176.405L113.86 176.137C114.12 176.133 114.456 176.113 114.867 176.078C115.27 176.052 115.681 176.021 116.101 175.985C116.584 175.943 117.039 175.899 117.467 175.853C117.887 175.817 118.226 175.779 118.483 175.739L118.506 176.007C118.231 176.048 118.028 176.102 117.899 176.167C117.77 176.232 117.69 176.347 117.659 176.512C117.628 176.676 117.626 176.92 117.654 177.241L118.228 183.889C118.256 184.219 118.299 184.458 118.357 184.606C118.416 184.763 118.519 184.863 118.666 184.904C118.806 184.955 119.01 184.973 119.279 184.959L119.302 185.227C119.042 185.24 118.702 185.261 118.281 185.288C117.851 185.316 117.395 185.351 116.913 185.393C116.493 185.429 116.082 185.469 115.681 185.512C115.271 185.557 114.936 185.595 114.678 185.626Z" fill="black"/>
<path d="M108.253 185.699L108.253 185.43C108.522 185.421 108.728 185.385 108.872 185.323C109.006 185.269 109.096 185.161 109.141 185C109.185 184.847 109.208 184.605 109.208 184.273L109.208 177.601C109.208 177.278 109.185 177.036 109.141 176.875C109.087 176.714 108.993 176.606 108.858 176.552C108.724 176.498 108.522 176.462 108.253 176.444L108.253 176.175C108.513 176.193 108.849 176.202 109.262 176.202C109.665 176.211 110.078 176.216 110.499 176.216C110.983 176.216 111.441 176.211 111.871 176.202C112.293 176.202 112.634 176.193 112.894 176.175L112.894 176.445C112.616 176.462 112.409 176.498 112.275 176.552C112.14 176.606 112.051 176.714 112.006 176.875C111.961 177.036 111.939 177.279 111.939 177.601L111.939 184.273C111.938 184.605 111.961 184.847 112.006 185C112.051 185.161 112.145 185.269 112.288 185.323C112.423 185.385 112.625 185.421 112.894 185.43L112.894 185.699C112.633 185.69 112.293 185.681 111.871 185.672C111.441 185.663 110.983 185.659 110.499 185.659C110.078 185.659 109.665 185.663 109.262 185.672C108.849 185.681 108.513 185.69 108.253 185.699Z" fill="black"/>
<path d="M101.865 185.232L101.888 184.964C102.157 184.977 102.365 184.958 102.513 184.908C102.652 184.865 102.75 184.766 102.808 184.608C102.866 184.46 102.908 184.221 102.936 183.89L103.49 177.241C103.517 176.919 103.514 176.676 103.483 176.512C103.443 176.346 103.358 176.231 103.228 176.167C103.099 176.102 102.901 176.049 102.634 176.009L102.656 175.741C102.914 175.78 103.248 175.817 103.66 175.852C104.061 175.894 104.472 175.933 104.892 175.968C105.374 176.008 105.83 176.041 106.26 176.068C106.68 176.103 107.02 176.123 107.281 176.126L107.259 176.394C106.98 176.389 106.772 176.408 106.633 176.45C106.495 176.493 106.396 176.593 106.338 176.75C106.28 176.907 106.238 177.146 106.211 177.468L105.657 184.117C105.629 184.448 105.632 184.691 105.664 184.846C105.695 185.011 105.78 185.126 105.918 185.192C106.047 185.265 106.245 185.318 106.513 185.349L106.49 185.617C106.232 185.587 105.893 185.549 105.474 185.505C105.045 185.461 104.59 185.418 104.107 185.378C103.687 185.343 103.276 185.313 102.873 185.289C102.461 185.263 102.125 185.244 101.865 185.232Z" fill="black"/>
<path d="M95.5137 184.207L95.5594 183.941C95.8261 183.978 96.0354 183.978 96.1875 183.941C96.3292 183.91 96.4359 183.82 96.5075 183.668C96.5776 183.526 96.6408 183.291 96.6973 182.964L97.8316 176.389C97.8865 176.071 97.9055 175.828 97.8888 175.662C97.8632 175.494 97.7887 175.371 97.6653 175.296C97.5419 175.22 97.3492 175.15 97.0871 175.087L97.1328 174.822C97.3861 174.883 97.7159 174.949 98.1225 175.02C98.5186 175.097 98.9244 175.172 99.3397 175.243C99.8169 175.326 100.268 175.399 100.694 175.463C101.109 175.535 101.447 175.584 101.706 175.611L101.66 175.876C101.383 175.846 101.174 175.846 101.032 175.876C100.891 175.907 100.784 175.997 100.712 176.149C100.641 176.3 100.577 176.535 100.523 176.853L99.3882 183.428C99.3318 183.755 99.3127 183.998 99.331 184.155C99.3477 184.322 99.4222 184.444 99.5544 184.522C99.6763 184.606 99.8691 184.676 100.133 184.73L100.087 184.996C99.8322 184.943 99.4979 184.876 99.0841 184.795C98.6614 184.713 98.2115 184.631 97.7342 184.549C97.3189 184.477 96.9116 184.411 96.5124 184.352C96.1044 184.29 95.7715 184.242 95.5137 184.207Z" fill="black"/>
<path d="M89.289 182.656L89.3569 182.396C89.6195 182.455 89.8281 182.472 89.9828 182.448C90.1265 182.43 90.2405 182.348 90.3247 182.203C90.4065 182.067 90.4894 181.839 90.5732 181.518L92.2584 175.062C92.3399 174.75 92.3794 174.51 92.3768 174.342C92.3655 174.172 92.3015 174.044 92.185 173.958C92.0684 173.872 91.8822 173.787 91.6265 173.701L91.6944 173.441C91.9415 173.524 92.2646 173.618 92.6638 173.722C93.052 173.832 93.45 173.941 93.8578 174.047C94.3264 174.17 94.77 174.281 95.1888 174.381C95.5966 174.487 95.9286 174.565 96.1847 174.613L96.1168 174.873C95.8433 174.821 95.6347 174.803 95.4909 174.821C95.3472 174.839 95.2332 174.921 95.1491 175.066C95.0649 175.211 94.9821 175.439 94.9005 175.752L93.2153 182.207C93.1315 182.528 93.0921 182.768 93.0969 182.927C93.0996 183.095 93.1635 183.223 93.2887 183.311C93.403 183.406 93.5892 183.491 93.8472 183.568L93.7793 183.828C93.5299 183.754 93.2025 183.659 92.7969 183.544C92.3827 183.426 91.9413 183.307 91.4727 183.184C91.0649 183.078 90.6646 182.978 90.2719 182.885C89.8705 182.789 89.5429 182.713 89.289 182.656Z" fill="black"/>
<path d="M90.5418 174.483L90.4521 174.736C90.1955 174.655 89.9891 174.62 89.8328 174.631C89.6881 174.637 89.5676 174.709 89.4715 174.846C89.3784 174.974 89.2765 175.195 89.1657 175.508L86.9395 181.798C86.8318 182.102 86.7722 182.338 86.7606 182.505C86.7574 182.675 86.8103 182.808 86.9191 182.903C87.028 182.999 87.2062 183.1 87.4539 183.207L87.3641 183.46C87.1249 183.357 86.8109 183.236 86.422 183.099C86.0446 182.955 85.6572 182.814 85.2599 182.673C84.8034 182.511 84.3707 182.363 83.962 182.228C83.5646 182.087 83.2404 181.982 82.9893 181.912L83.079 181.658C83.3471 181.734 83.5535 181.769 83.6982 181.763C83.843 181.758 83.9634 181.686 84.0596 181.549C84.1557 181.412 84.2576 181.191 84.3653 180.887L86.5916 174.597C86.7023 174.284 86.7619 174.048 86.7705 173.89C86.7821 173.723 86.7293 173.59 86.612 173.491C86.5061 173.387 86.3278 173.286 86.0772 173.188L86.167 172.934C86.4092 173.029 86.7274 173.151 87.1217 173.301C87.5245 173.453 87.9542 173.609 88.4107 173.771C88.808 173.912 89.1984 174.045 89.5818 174.171C89.9737 174.3 90.2937 174.404 90.5418 174.483Z" fill="black"/>
<path d="M77.0817 177.897L77.1926 177.652C77.4414 177.755 77.6441 177.807 77.8007 177.809C77.9455 177.815 78.0715 177.754 78.1789 177.626C78.2827 177.505 78.4029 177.294 78.5397 176.992L81.291 170.913C81.4241 170.619 81.5035 170.389 81.5292 170.224C81.5468 170.055 81.5054 169.918 81.405 169.813C81.3047 169.709 81.1356 169.593 80.8979 169.466L81.0089 169.221C81.2384 169.344 81.5411 169.491 81.9169 169.661C82.2808 169.836 82.6548 170.01 83.0388 170.184C83.4799 170.383 83.8984 170.568 84.2943 170.737C84.6783 170.911 84.9924 171.043 85.2367 171.134L85.1258 171.379C84.8651 171.281 84.6624 171.229 84.5177 171.222C84.373 171.216 84.2469 171.277 84.1395 171.405C84.0321 171.534 83.9118 171.745 83.7787 172.039L81.0275 178.118C80.8906 178.42 80.8112 178.65 80.7892 178.807C80.7635 178.973 80.8049 179.11 80.9134 179.218C81.0101 179.33 81.1791 179.446 81.4205 179.565L81.3096 179.811C81.0763 179.695 80.7696 179.546 80.3893 179.364C80.0009 179.179 79.586 178.986 79.1449 178.786C78.7609 178.613 78.3832 178.447 78.0119 178.288C77.6324 178.126 77.3223 177.996 77.0817 177.897Z" fill="black"/>
<path d="M71.4546 174.821L71.5858 174.586C71.825 174.709 72.0226 174.779 72.1785 174.794C72.3221 174.812 72.4529 174.762 72.5708 174.643C72.6843 174.532 72.822 174.332 72.9838 174.042L76.2382 168.217C76.3957 167.936 76.4942 167.713 76.5338 167.551C76.5656 167.383 76.5359 167.244 76.4447 167.131C76.3535 167.018 76.1949 166.889 75.9687 166.742L76.1 166.507C76.3183 166.649 76.6074 166.821 76.9676 167.022C77.3155 167.227 77.6734 167.432 78.0413 167.638C78.4641 167.874 78.8655 168.093 79.2457 168.295C79.6136 168.501 79.9155 168.659 80.1513 168.771L80.02 169.005C79.7686 168.885 79.571 168.816 79.4274 168.798C79.2837 168.779 79.1529 168.829 79.035 168.948C78.9172 169.067 78.7795 169.268 78.622 169.549L75.3676 175.374C75.2058 175.664 75.1072 175.886 75.072 176.041C75.0324 176.204 75.0621 176.343 75.1611 176.46C75.248 176.581 75.4066 176.711 75.6371 176.85L75.5059 177.084C75.2832 176.95 74.9901 176.776 74.6265 176.562C74.2551 176.345 73.8581 176.118 73.4353 175.881C73.0674 175.676 72.7051 175.478 72.3484 175.289C71.9839 175.096 71.686 174.94 71.4546 174.821Z" fill="black"/>
<path d="M66.0991 171.262L66.2504 171.039C66.4779 171.183 66.6686 171.27 66.8226 171.298C66.964 171.329 67.0987 171.291 67.2266 171.183C67.3494 171.082 67.5041 170.894 67.6907 170.62L71.4427 165.103C71.6243 164.836 71.7419 164.623 71.7956 164.464C71.8419 164.301 71.8245 164.159 71.7436 164.039C71.6626 163.918 71.5159 163.775 71.3036 163.609L71.4549 163.387C71.6598 163.548 71.9328 163.744 72.2739 163.976C72.6026 164.211 72.9412 164.446 73.2897 164.683C73.6901 164.956 74.0708 165.209 74.4318 165.444C74.7803 165.681 75.0672 165.865 75.2923 165.996L75.141 166.219C74.901 166.077 74.7103 165.991 74.5688 165.96C74.4273 165.929 74.2927 165.967 74.1648 166.076C74.037 166.184 73.8823 166.371 73.7007 166.638L69.9486 172.155C69.762 172.43 69.6444 172.643 69.5958 172.794C69.5421 172.953 69.5594 173.095 69.6478 173.22C69.7237 173.347 69.8704 173.49 70.0878 173.649L69.9365 173.872C69.7265 173.718 69.4498 173.519 69.1063 173.274C68.7554 173.025 68.3797 172.764 67.9793 172.492C67.6308 172.255 67.2872 172.026 66.9484 171.807C66.6023 171.582 66.3192 171.401 66.0991 171.262Z" fill="black"/>
<path d="M61.0869 167.286L61.2561 167.077C61.4709 167.239 61.6538 167.341 61.8048 167.382C61.9432 167.425 62.0806 167.398 62.217 167.3C62.3478 167.21 62.5175 167.036 62.7263 166.778L66.9235 161.592C67.1266 161.341 67.2615 161.138 67.3282 160.985C67.3879 160.825 67.3824 160.682 67.3117 160.556C67.241 160.43 67.1067 160.275 66.9088 160.092L67.0781 159.882C67.2689 160.06 67.5247 160.279 67.8454 160.538C68.1534 160.799 68.4713 161.062 68.7989 161.327C69.1753 161.632 69.5337 161.916 69.8739 162.18C70.2016 162.445 70.4721 162.652 70.6855 162.802L70.5163 163.011C70.2889 162.85 70.106 162.748 69.9676 162.705C69.8292 162.663 69.6918 162.69 69.5554 162.787C69.419 162.884 69.2492 163.059 69.0462 163.309L64.8489 168.496C64.6402 168.754 64.5053 168.956 64.4442 169.103C64.3776 169.257 64.3831 169.399 64.4607 169.532C64.5258 169.665 64.6601 169.82 64.8636 169.996L64.6943 170.205C64.4978 170.035 64.2386 169.813 63.9166 169.541C63.5876 169.263 63.2349 168.972 62.8585 168.667C62.5308 168.402 62.2074 168.146 61.888 167.899C61.5617 167.647 61.2947 167.442 61.0869 167.286Z" fill="black"/>
<path d="M56.4205 162.878L56.6071 162.685C56.8071 162.865 56.9806 162.982 57.1275 163.036C57.2617 163.091 57.4009 163.075 57.5452 162.99C57.6832 162.912 57.8673 162.753 58.0975 162.514L62.725 157.707C62.9489 157.475 63.1007 157.285 63.1803 157.137C63.2535 156.984 63.2603 156.841 63.2007 156.709C63.1411 156.577 63.0207 156.411 62.8393 156.211L63.0259 156.018C63.2008 156.211 63.4368 156.451 63.734 156.737C64.0185 157.023 64.3126 157.312 64.6162 157.605C64.965 157.941 65.2976 158.255 65.6139 158.547C65.9176 158.839 66.1693 159.069 66.3691 159.236L66.1825 159.43C65.9698 159.25 65.7963 159.133 65.6621 159.079C65.5279 159.024 65.3886 159.039 65.2444 159.125C65.1001 159.21 64.916 159.369 64.6921 159.601L60.0646 164.408C59.8345 164.647 59.6827 164.837 59.6093 164.978C59.5296 165.125 59.5228 165.268 59.5888 165.406C59.6422 165.545 59.7627 165.71 59.9503 165.903L59.7637 166.097C59.5825 165.91 59.3433 165.668 59.0459 165.369C58.742 165.064 58.4156 164.743 58.0668 164.407C57.7631 164.115 57.4629 163.832 57.1659 163.559C56.8625 163.279 56.6141 163.052 56.4205 162.878Z" fill="black"/>
<path d="M52.15 158.096L52.3524 157.919C52.5364 158.115 52.6992 158.247 52.841 158.313C52.9701 158.379 53.1101 158.376 53.2611 158.303C53.4053 158.236 53.6023 158.094 53.8519 157.875L58.8718 153.48C59.1147 153.267 59.2821 153.091 59.374 152.951C59.46 152.804 59.4789 152.662 59.4308 152.526C59.3827 152.389 59.2767 152.214 59.113 151.999L59.3154 151.822C59.4733 152.03 59.688 152.289 59.9598 152.599C60.2189 152.908 60.4872 153.222 60.7649 153.539C61.0839 153.903 61.3885 154.244 61.6788 154.562C61.9564 154.879 62.1877 155.13 62.3725 155.314L62.1701 155.491C61.9734 155.294 61.8106 155.162 61.6815 155.096C61.5524 155.031 61.4124 155.034 61.2614 155.107C61.1104 155.179 60.9135 155.322 60.6706 155.535L55.6507 159.93C55.401 160.148 55.2336 160.325 55.1485 160.459C55.0566 160.599 55.0376 160.74 55.0917 160.884C55.133 161.026 55.239 161.202 55.4094 161.41L55.207 161.587C55.0425 161.386 54.8247 161.124 54.5538 160.801C54.277 160.471 53.9791 160.124 53.6601 159.759C53.3825 159.442 53.1074 159.135 52.8348 158.837C52.5563 158.533 52.328 158.286 52.15 158.096Z" fill="black"/>
<path d="M48.3043 152.976L48.5209 152.817C48.6876 153.028 48.8388 153.173 48.9744 153.251C49.0975 153.328 49.2373 153.336 49.3939 153.276C49.5433 153.222 49.7515 153.097 50.0187 152.9L55.3917 148.944C55.6516 148.753 55.8333 148.591 55.9367 148.459C56.0348 148.32 56.0657 148.181 56.0292 148.041C55.9928 147.9 55.9021 147.717 55.757 147.489L55.9737 147.33C56.1134 147.55 56.3056 147.826 56.5501 148.158C56.7822 148.488 57.0231 148.823 57.273 149.163C57.5601 149.553 57.8349 149.918 58.0973 150.26C58.3472 150.599 58.5564 150.868 58.7251 151.067L58.5084 151.227C58.3292 151.013 58.178 150.868 58.0549 150.792C57.9318 150.716 57.792 150.707 57.6354 150.767C57.4789 150.826 57.2706 150.952 57.0106 151.143L51.6377 155.099C51.3705 155.296 51.1888 155.457 51.0926 155.584C50.9892 155.716 50.9584 155.855 51.0001 156.003C51.0293 156.148 51.12 156.332 51.2723 156.554L51.0557 156.713C50.9087 156.499 50.7139 156.219 50.4712 155.874C50.2232 155.522 49.9557 155.151 49.6686 154.761C49.4187 154.422 49.1705 154.092 48.9241 153.773C48.6723 153.446 48.4657 153.18 48.3043 152.976Z" fill="black"/>
<path d="M44.9086 147.559L45.1379 147.418C45.2863 147.643 45.4248 147.8 45.5534 147.889C45.6696 147.976 45.8082 147.996 45.9693 147.949C46.1226 147.908 46.3407 147.8 46.6235 147.627L52.3092 144.136C52.5843 143.967 52.7789 143.821 52.893 143.698C53.0024 143.568 53.0449 143.431 53.0203 143.289C52.9958 143.146 52.9208 142.955 52.7953 142.716L53.0246 142.576C53.1454 142.807 53.3137 143.098 53.5295 143.449C53.733 143.798 53.9451 144.152 54.1656 144.511C54.419 144.924 54.6621 145.311 54.895 145.673C55.1155 146.032 55.3015 146.318 55.4529 146.53L55.2236 146.671C55.0628 146.444 54.9243 146.287 54.8081 146.2C54.6919 146.114 54.5532 146.094 54.3922 146.14C54.2312 146.186 54.0131 146.294 53.738 146.463L48.0523 149.954C47.7695 150.127 47.5749 150.273 47.4685 150.391C47.3544 150.514 47.3119 150.65 47.3412 150.801C47.358 150.948 47.433 151.139 47.5662 151.373L47.3369 151.514C47.2085 151.287 47.0378 150.992 46.8249 150.628C46.6073 150.257 46.3718 149.865 46.1184 149.452C45.8979 149.093 45.6782 148.744 45.4594 148.405C45.236 148.058 45.0523 147.776 44.9086 147.559Z" fill="black"/>
<path d="M41.954 141.803L42.1947 141.683C42.323 141.92 42.4472 142.088 42.5675 142.188C42.6758 142.285 42.8121 142.317 42.9766 142.285C43.133 142.257 43.3596 142.169 43.6564 142.02L49.6248 139.038C49.9136 138.894 50.1202 138.765 50.2446 138.653C50.3649 138.533 50.4191 138.401 50.4071 138.256C50.3951 138.112 50.337 137.915 50.2328 137.667L50.4735 137.546C50.5737 137.787 50.716 138.092 50.9003 138.461C51.0727 138.826 51.2531 139.197 51.4414 139.574C51.6579 140.007 51.8663 140.414 52.0668 140.795C52.2551 141.172 52.4155 141.473 52.5478 141.698L52.3071 141.818C52.1668 141.577 52.0425 141.409 51.9343 141.313C51.826 141.216 51.6897 141.184 51.5252 141.216C51.3608 141.248 51.1342 141.336 50.8454 141.481L44.8769 144.463C44.5801 144.611 44.3736 144.74 44.2572 144.848C44.1329 144.96 44.0787 145.092 44.0947 145.245C44.0987 145.393 44.1568 145.59 44.269 145.834L44.0283 145.955C43.9201 145.718 43.7758 145.409 43.5954 145.028C43.4111 144.639 43.2107 144.228 42.9942 143.795C42.8058 143.418 42.6174 143.051 42.429 142.694C42.2366 142.329 42.0783 142.032 41.954 141.803Z" fill="black"/>
<path d="M39.5207 135.895L39.7706 135.795C39.8787 136.042 39.9885 136.22 40.0999 136.33C40.1998 136.435 40.333 136.478 40.4995 136.46C40.6577 136.445 40.8909 136.376 41.1991 136.253L47.3956 133.78C47.6955 133.66 47.912 133.55 48.0453 133.448C48.1753 133.338 48.2403 133.211 48.2404 133.066C48.2405 132.921 48.1991 132.721 48.116 132.464L48.3658 132.364C48.4456 132.612 48.5619 132.928 48.7149 133.311C48.8561 133.689 49.0049 134.074 49.1612 134.466C49.3407 134.915 49.5144 135.338 49.6823 135.735C49.8386 136.126 49.9732 136.44 50.0863 136.674L49.8364 136.774C49.7167 136.523 49.6069 136.344 49.5071 136.239C49.4073 136.134 49.2741 136.091 49.1075 136.109C48.941 136.127 48.7078 136.196 48.408 136.316L42.2114 138.789C41.9032 138.912 41.6867 139.023 41.5617 139.121C41.4284 139.223 41.3634 139.35 41.3666 139.503C41.3582 139.651 41.3997 139.852 41.4911 140.105L41.2412 140.205C41.1531 139.96 41.0351 139.64 40.8872 139.246C40.7359 138.843 40.5706 138.416 40.391 137.966C40.2348 137.575 40.0777 137.193 39.9197 136.822C39.7585 136.442 39.6255 136.133 39.5207 135.895Z" fill="black"/>
<path d="M37.5935 129.808L37.8509 129.73C37.9379 129.984 38.0324 130.171 38.1343 130.29C38.225 130.403 38.3541 130.457 38.5216 130.453C38.6805 130.452 38.9186 130.402 39.236 130.306L45.6178 128.359C45.9266 128.265 46.1517 128.173 46.293 128.083C46.4317 127.985 46.5072 127.863 46.5194 127.719C46.5316 127.575 46.5071 127.371 46.4457 127.108L46.7031 127.03C46.7618 127.284 46.8513 127.608 46.9716 128.003C47.0808 128.391 47.1968 128.787 47.3198 129.19C47.461 129.654 47.5987 130.09 47.7329 130.499C47.8558 130.902 47.9638 131.225 48.0568 131.469L47.7995 131.547C47.7012 131.287 47.6067 131.1 47.516 130.987C47.4253 130.874 47.2962 130.82 47.1288 130.824C46.9613 130.828 46.7231 130.877 46.4143 130.971L40.0325 132.918C39.7152 133.014 39.4901 133.106 39.3574 133.194C39.216 133.284 39.1406 133.405 39.131 133.558C39.1102 133.705 39.1347 133.909 39.2046 134.169L38.9473 134.247C38.88 133.996 38.7892 133.667 38.6748 133.261C38.5578 132.847 38.4287 132.408 38.2874 131.945C38.1645 131.542 38.0398 131.149 37.9136 130.765C37.7846 130.373 37.678 130.054 37.5935 129.808Z" fill="black"/>
<path d="M36.1866 123.579L36.4496 123.522C36.5149 123.783 36.5934 123.977 36.6849 124.104C36.7658 124.225 36.8898 124.29 37.0571 124.3C37.2155 124.311 37.457 124.282 37.7814 124.213L44.3043 122.81C44.6199 122.742 44.8519 122.669 45.0003 122.592C45.1468 122.505 45.2322 122.39 45.2566 122.248C45.2809 122.105 45.2735 121.9 45.2345 121.633L45.4975 121.577C45.5347 121.835 45.5966 122.165 45.6833 122.569C45.7594 122.965 45.8417 123.369 45.9303 123.781C46.0321 124.255 46.1326 124.701 46.2319 125.12C46.3205 125.532 46.4009 125.863 46.4731 126.114L46.21 126.17C46.1341 125.902 46.0556 125.708 45.9748 125.588C45.8939 125.468 45.7698 125.403 45.6026 125.393C45.4353 125.383 45.1939 125.412 44.8783 125.48L38.3554 126.882C38.031 126.952 37.799 127.025 37.6593 127.101C37.511 127.178 37.4255 127.293 37.4031 127.445C37.37 127.589 37.3773 127.794 37.4251 128.059L37.1621 128.116C37.1162 127.86 37.0533 127.525 36.9735 127.111C36.8918 126.688 36.8 126.24 36.6983 125.766C36.6097 125.354 36.5186 124.952 36.425 124.559C36.3295 124.158 36.25 123.831 36.1866 123.579Z" fill="black"/>
<path d="M35.31 117.243L35.5769 117.209C35.6199 117.475 35.6815 117.675 35.762 117.809C35.8324 117.936 35.9505 118.011 36.1163 118.035C36.2732 118.061 36.5162 118.052 36.8453 118.01L43.4637 117.166C43.7839 117.125 44.0212 117.072 44.1757 117.007C44.329 116.933 44.4238 116.826 44.4602 116.686C44.4965 116.546 44.5066 116.341 44.4903 116.072L44.7572 116.038C44.7723 116.298 44.806 116.633 44.8582 117.042C44.9004 117.443 44.9481 117.853 45.0015 118.271C45.0628 118.752 45.1251 119.205 45.1885 119.63C45.2418 120.049 45.2939 120.385 45.3446 120.641L45.0777 120.675C45.0247 120.402 44.9631 120.202 44.8927 120.075C44.8223 119.948 44.7042 119.873 44.5384 119.849C44.3726 119.825 44.1295 119.833 43.8093 119.874L37.191 120.719C36.8618 120.761 36.6245 120.814 36.4789 120.877C36.3245 120.942 36.2297 121.049 36.1945 121.199C36.1492 121.34 36.1392 121.545 36.1643 121.813L35.8975 121.847C35.8734 121.588 35.8392 121.248 35.7947 120.829C35.7492 120.401 35.6957 119.947 35.6344 119.466C35.5811 119.048 35.5244 118.64 35.4644 118.241C35.4033 117.832 35.3519 117.5 35.31 117.243Z" fill="black"/>
<path d="M34.9756 110.833L35.2444 110.822C35.2644 111.091 35.3088 111.295 35.3774 111.436C35.4367 111.568 35.5479 111.653 35.7111 111.692C35.8652 111.73 36.1081 111.742 36.4396 111.729L43.1059 111.454C43.4285 111.44 43.6695 111.408 43.8289 111.356C43.988 111.296 44.0916 111.197 44.1398 111.061C44.188 110.924 44.2156 110.721 44.2224 110.452L44.4912 110.44C44.484 110.701 44.4889 111.037 44.5059 111.45C44.5136 111.853 44.5261 112.266 44.5435 112.687C44.5635 113.171 44.5868 113.627 44.6136 114.057C44.631 114.478 44.654 114.818 44.6826 115.077L44.4138 115.088C44.3844 114.811 44.3401 114.607 44.2808 114.475C44.2215 114.342 44.1102 114.257 43.9471 114.219C43.784 114.181 43.5411 114.169 43.2186 114.182L36.5522 114.457C36.2207 114.471 35.9797 114.503 35.8293 114.554C35.6698 114.606 35.5662 114.704 35.5183 114.85C35.4612 114.987 35.4337 115.19 35.4358 115.459L35.167 115.47C35.1652 115.21 35.1601 114.869 35.1517 114.448C35.1429 114.017 35.1285 113.56 35.1085 113.076C35.0912 112.655 35.0697 112.243 35.0441 111.84C35.0181 111.428 34.9952 111.093 34.9756 110.833Z" fill="black"/>
<path d="M35.1933 104.379L35.4621 104.391C35.4589 104.66 35.4854 104.868 35.5416 105.014C35.5893 105.151 35.6927 105.246 35.852 105.298C36.0022 105.349 36.2431 105.383 36.5746 105.398L43.2397 105.7C43.5622 105.714 43.8051 105.703 43.9684 105.665C44.1321 105.619 44.2438 105.53 44.3037 105.398C44.3635 105.266 44.4085 105.066 44.4386 104.798L44.7073 104.81C44.6776 105.069 44.6535 105.404 44.6348 105.817C44.6076 106.219 44.5845 106.631 44.5654 107.052C44.5435 107.536 44.5273 107.993 44.5168 108.424C44.4977 108.845 44.4912 109.185 44.4974 109.446L44.2286 109.434C44.2233 109.155 44.1968 108.948 44.1491 108.811C44.1014 108.674 43.998 108.58 43.8388 108.527C43.6796 108.475 43.4387 108.442 43.1162 108.427L36.451 108.126C36.1195 108.111 35.8767 108.122 35.7223 108.16C35.559 108.197 35.4473 108.287 35.387 108.427C35.3182 108.559 35.2733 108.759 35.2522 109.027L34.9834 109.015C35.0041 108.756 35.0285 108.416 35.0565 107.995C35.085 107.565 35.1101 107.109 35.132 106.625C35.1511 106.204 35.1653 105.792 35.1746 105.388C35.1843 104.976 35.1905 104.639 35.1933 104.379Z" fill="black"/>
<path d="M35.936 98.131L36.2028 98.1656C36.1771 98.4336 36.1862 98.6427 36.23 98.7931C36.2661 98.9334 36.3613 99.0361 36.5156 99.1013C36.661 99.1654 36.8983 99.2187 37.2273 99.2613L43.8441 100.118C44.1642 100.16 44.4072 100.169 44.5731 100.145C44.7401 100.112 44.8589 100.033 44.9295 99.9063C45.0002 99.7798 45.0616 99.5843 45.114 99.3198L45.3808 99.3544C45.3296 99.61 45.2775 99.9423 45.2245 100.351C45.1638 100.75 45.1064 101.159 45.0522 101.577C44.99 102.057 44.9357 102.511 44.8893 102.939C44.8352 103.357 44.8003 103.697 44.7847 103.957L44.5179 103.922C44.5358 103.644 44.5267 103.435 44.4906 103.295C44.4546 103.154 44.3594 103.052 44.205 102.986C44.0507 102.921 43.8135 102.868 43.4933 102.826L36.8766 101.969C36.5475 101.927 36.3045 101.918 36.1476 101.943C35.9817 101.967 35.8629 102.046 35.7911 102.181C35.7116 102.307 35.6501 102.502 35.6066 102.768L35.3398 102.733C35.3821 102.477 35.4348 102.14 35.4978 101.723C35.562 101.297 35.6252 100.844 35.6874 100.364C35.7416 99.946 35.7901 99.5364 35.833 99.135C35.8771 98.7248 35.9114 98.3901 35.936 98.131Z" fill="black"/>
<path d="M37.273 91.6774L37.5357 91.7353C37.4866 91.9999 37.4773 92.2091 37.5077 92.3627C37.5313 92.5056 37.6171 92.6164 37.7651 92.6949C37.9043 92.7715 38.1359 92.8455 38.46 92.9169L44.9757 94.3525C45.2909 94.422 45.5322 94.4522 45.6995 94.4432C45.8687 94.4254 45.9941 94.3566 46.0756 94.2368C46.1571 94.117 46.2355 93.9276 46.3109 93.6688L46.5736 93.7267C46.5002 93.9768 46.4191 94.3033 46.3303 94.7061C46.2347 95.0983 46.1416 95.5002 46.0509 95.9118C45.9467 96.3847 45.8526 96.8323 45.7688 97.2546C45.6781 97.6662 45.6135 98.0009 45.5751 98.2588L45.3123 98.2009C45.3546 97.9255 45.364 97.7164 45.3404 97.5734C45.3168 97.4305 45.231 97.3198 45.083 97.2412C44.935 97.1627 44.7034 97.0887 44.3881 97.0193L37.8724 95.5836C37.5484 95.5122 37.3071 95.482 37.1485 95.493C36.9813 95.502 36.8559 95.5708 36.7725 95.6994C36.6822 95.8172 36.6038 96.0066 36.5371 96.2674L36.2744 96.2095C36.3391 95.9574 36.4212 95.6266 36.5207 95.2169C36.622 94.7984 36.7248 94.3528 36.829 93.8799C36.9197 93.4682 37.0041 93.0644 37.0822 92.6684C37.1622 92.2636 37.2258 91.9333 37.273 91.6774Z" fill="black"/>
<path d="M39.1129 85.5062L39.3698 85.5861C39.2984 85.8456 39.2714 86.0532 39.2887 86.2089C39.3002 86.3533 39.3763 86.4709 39.5171 86.5617C39.6493 86.6498 39.8739 86.7431 40.1907 86.8417L46.5616 88.8236C46.8698 88.9194 47.1077 88.97 47.2751 88.9751C47.4453 88.9717 47.576 88.9137 47.6673 88.8013C47.7586 88.6888 47.8528 88.5068 47.9499 88.2552L48.2068 88.3351C48.1124 88.5781 48.0039 88.8966 47.8814 89.2905C47.753 89.6732 47.6261 90.0657 47.5009 90.4682C47.3571 90.9306 47.2255 91.3686 47.1062 91.7823C46.981 92.1848 46.8884 92.5128 46.8282 92.7665L46.5713 92.6866C46.6368 92.4158 46.6638 92.2082 46.6524 92.0637C46.641 91.9193 46.5649 91.8017 46.424 91.711C46.2832 91.6202 46.0587 91.5269 45.7504 91.431L39.3796 89.4491C39.0628 89.3505 38.8249 89.3 38.666 89.2975C38.4986 89.2924 38.3678 89.3504 38.2738 89.4714C38.1739 89.5812 38.0797 89.7632 37.9913 90.0174L37.7344 89.9375C37.8202 89.6918 37.93 89.3691 38.0637 88.9693C38.2002 88.561 38.3403 88.1256 38.4841 87.6632C38.6093 87.2607 38.7276 86.8655 38.8389 86.4775C38.9529 86.0809 39.0442 85.7572 39.1129 85.5062Z" fill="black"/>
<path d="M41.4935 79.4447L41.7427 79.5461C41.6496 79.7987 41.605 80.0032 41.6091 80.1598C41.6082 80.3047 41.6741 80.4283 41.8067 80.5307C41.931 80.6297 42.1468 80.7417 42.4542 80.8668L48.634 83.3818C48.933 83.5035 49.1657 83.574 49.3321 83.5933C49.5019 83.6043 49.6371 83.5576 49.7377 83.4533C49.8382 83.349 49.9475 83.1756 50.0655 82.9332L50.3147 83.0346C50.2 83.2687 50.065 83.5769 49.9095 83.9589C49.7491 84.3293 49.5894 84.7097 49.4305 85.1001C49.248 85.5487 49.0797 85.974 48.9258 86.3761C48.7669 86.7664 48.6468 87.0855 48.5654 87.3331L48.3162 87.2317C48.4043 86.9674 48.4489 86.7629 48.4497 86.618C48.4506 86.4731 48.3847 86.3495 48.2521 86.2471C48.1195 86.1447 47.9037 86.0327 47.6047 85.911L41.4248 83.396C41.1175 83.271 40.8848 83.2005 40.7267 83.1845C40.5603 83.1652 40.4251 83.2119 40.3212 83.3245C40.2123 83.4254 40.103 83.5988 39.9933 83.8446L39.7441 83.7432C39.8505 83.5057 39.9872 83.1934 40.1544 82.8064C40.325 82.4111 40.5015 81.9891 40.6841 81.5406C40.8429 81.1502 40.9943 80.7664 41.1381 80.3893C41.2853 80.0038 41.4038 79.689 41.4935 79.4447Z" fill="black"/>
<path d="M44.3391 73.6877L44.5788 73.8098C44.4647 74.0536 44.403 74.2536 44.3938 74.41C44.3807 74.5543 44.4359 74.683 44.5593 74.7963C44.6748 74.9054 44.8804 75.0353 45.176 75.1859L51.121 78.2146C51.4086 78.3612 51.6346 78.4511 51.7987 78.4845C51.967 78.5098 52.1056 78.4747 52.2146 78.3793C52.3236 78.2839 52.4472 78.1204 52.5853 77.8888L52.825 78.0109C52.691 78.2345 52.5303 78.5301 52.3431 78.8976C52.1519 79.2531 51.9606 79.6187 51.7693 79.9942C51.5495 80.4257 51.3459 80.8353 51.1585 81.2229C50.9671 81.5984 50.8204 81.9061 50.7183 82.146L50.4786 82.0239C50.5888 81.768 50.6505 81.568 50.6636 81.4237C50.6768 81.2794 50.6216 81.1506 50.4981 81.0374C50.3746 80.9242 50.1691 80.7943 49.8814 80.6478L43.9365 77.619C43.6408 77.4684 43.4149 77.3785 43.2587 77.3492C43.0945 77.3159 42.9559 77.3509 42.8428 77.4544C42.7258 77.5457 42.6023 77.7092 42.4721 77.9449L42.2324 77.8228C42.3585 77.5951 42.5212 77.2955 42.7205 76.924C42.9239 76.5446 43.1355 76.1391 43.3553 75.7076C43.5466 75.3321 43.7299 74.9625 43.9051 74.5988C44.0844 74.2272 44.229 73.9235 44.3391 73.6877Z" fill="black"/>
<path d="M47.6061 68.2823L47.8347 68.4242C47.7005 68.6575 47.6222 68.8517 47.5999 69.0067C47.5747 69.1493 47.6189 69.2823 47.7324 69.4055C47.8383 69.524 48.0322 69.6707 48.3141 69.8456L53.9833 73.3636C54.2576 73.5338 54.4752 73.6424 54.636 73.6894C54.8015 73.7288 54.9426 73.7056 55.0592 73.6196C55.1759 73.5337 55.3127 73.3812 55.4698 73.162L55.6984 73.3039C55.5461 73.5154 55.3611 73.7964 55.1436 74.1469C54.9232 74.4851 54.7019 74.8333 54.4797 75.1914C54.2243 75.6029 53.987 75.9938 53.7676 76.3643C53.5454 76.7225 53.3733 77.0167 53.2515 77.2472L53.0229 77.1053C53.1542 76.8596 53.2325 76.6655 53.2577 76.5228C53.2829 76.3801 53.2387 76.2472 53.1252 76.124C53.0117 76.0008 52.8178 75.8541 52.5435 75.6838L46.8743 72.1659C46.5924 71.9909 46.3748 71.8823 46.2216 71.84C46.0608 71.793 45.9198 71.8163 45.7984 71.9098C45.6741 71.991 45.5372 72.1436 45.3878 72.3674L45.1592 72.2256C45.3039 72.0093 45.4912 71.7245 45.7211 71.3711C45.9557 71.0101 46.2006 70.6238 46.456 70.2124C46.6782 69.8542 46.8919 69.5014 47.0971 69.1537C47.3069 68.7985 47.4766 68.508 47.6061 68.2823Z" fill="black"/>
<path d="M51.4719 62.9726L51.6872 63.1338C51.5332 63.3546 51.4383 63.5412 51.4025 63.6936C51.365 63.8336 51.3974 63.9699 51.4997 64.1025C51.5949 64.2298 51.7752 64.3928 52.0408 64.5917L57.3817 68.5905C57.6402 68.784 57.8474 68.9112 58.0035 68.972C58.165 69.0257 58.3075 69.0148 58.4312 68.9394C58.5549 68.864 58.7046 68.7239 58.8802 68.5193L59.0955 68.6806C58.9253 68.878 58.7166 69.1418 58.4693 69.472C58.2203 69.7897 57.9695 70.1172 57.7169 70.4546C57.4266 70.8423 57.1561 71.2111 56.9053 71.561C56.6527 71.8984 56.4556 72.1766 56.3141 72.3955L56.0987 72.2342C56.251 72.001 56.3459 71.8144 56.3835 71.6744C56.421 71.5345 56.3886 71.3982 56.2863 71.2656C56.1839 71.1329 56.0035 70.9699 55.7451 70.7764L50.4042 66.7776C50.1386 66.5787 49.9314 66.4515 49.7825 66.3961C49.6264 66.3352 49.4838 66.3461 49.3547 66.4287C49.2239 66.4987 49.0742 66.6388 48.9058 66.8487L48.6904 66.6875C48.8535 66.4847 49.0649 66.2173 49.3247 65.8853C49.5899 65.5461 49.8676 65.1826 50.1578 64.795C50.4104 64.4576 50.6541 64.1247 50.8887 63.7963C51.1288 63.4607 51.3232 63.1861 51.4719 62.9726Z" fill="black"/>
<path d="M55.7412 58.0684L55.9418 58.2476C55.7693 58.4542 55.6586 58.6319 55.6098 58.7808C55.5604 58.9169 55.5809 59.0555 55.6714 59.1965C55.7552 59.3315 55.9208 59.5095 56.1683 59.7306L61.144 64.1756C61.3847 64.3906 61.5802 64.5352 61.7305 64.6093C61.8867 64.6767 62.0297 64.6782 62.1594 64.6137C62.2892 64.5493 62.4504 64.4227 62.643 64.234L62.8436 64.4132C62.657 64.5952 62.4262 64.8401 62.1514 65.1477C61.8759 65.4427 61.5977 65.7473 61.3169 66.0616C60.9943 66.4228 60.6929 66.7668 60.4128 67.0938C60.132 67.4082 59.9117 67.6683 59.7518 67.8742L59.5512 67.6949C59.723 67.4757 59.8337 67.2979 59.8832 67.1618C59.9327 67.0256 59.9121 66.887 59.8216 66.7461C59.7311 66.6051 59.5655 66.4271 59.3247 66.212L54.349 61.767C54.1016 61.5459 53.9061 61.4013 53.7625 61.3332C53.6123 61.2591 53.4693 61.2576 53.3336 61.3288C53.1971 61.3873 53.036 61.5139 52.85 61.7085L52.6494 61.5293C52.8294 61.3413 53.0631 61.0932 53.3506 60.7848C53.644 60.4698 53.9521 60.1317 54.2747 59.7705C54.5555 59.4562 54.827 59.1456 55.0891 58.8387C55.3573 58.5251 55.5746 58.2683 55.7412 58.0684Z" fill="black"/>
<path d="M60.3743 53.5924L60.5589 53.7881C60.3693 53.9792 60.2439 54.1468 60.1826 54.2909C60.1216 54.4224 60.1302 54.5622 60.2083 54.7104C60.2803 54.8521 60.4301 55.0436 60.6578 55.285L65.2353 60.139C65.4568 60.3739 65.6392 60.5347 65.7826 60.6214C65.9325 60.7019 66.0748 60.7156 66.2096 60.6624C66.3444 60.6093 66.5158 60.4969 66.7238 60.3254L66.9084 60.5211C66.7069 60.6865 66.4561 60.9107 66.156 61.1937C65.8562 61.4641 65.553 61.7438 65.2464 62.033C64.8941 62.3652 64.5644 62.6823 64.2574 62.9841C63.9508 63.2733 63.709 63.5136 63.5321 63.7051L63.3475 63.5094C63.5375 63.3056 63.6629 63.138 63.7239 63.0066C63.7848 62.8751 63.7762 62.7353 63.6981 62.5871C63.62 62.4389 63.4702 62.2474 63.2487 62.0125L58.6711 57.1585C58.4435 56.9171 58.2611 56.7563 58.1238 56.6762C57.9805 56.5895 57.8381 56.5758 57.6968 56.6351C57.5559 56.6817 57.3845 56.794 57.1826 56.9721L56.998 56.7764C57.1934 56.6045 57.4475 56.3772 57.7603 56.0945C58.0796 55.8057 58.4154 55.4952 58.7677 55.163C59.0743 54.8738 59.3714 54.5875 59.6588 54.3041C59.9528 54.0146 60.1913 53.7773 60.3743 53.5924Z" fill="black"/>
<path d="M65.3301 49.5588L65.4975 49.7694C65.2924 49.9438 65.1532 50.1002 65.0799 50.2386C65.008 50.3644 65.0047 50.5044 65.07 50.6587C65.1298 50.8059 65.2628 51.0095 65.4692 51.2693L69.6191 56.4936C69.8199 56.7464 69.9881 56.922 70.1236 57.0205C70.2661 57.1135 70.4068 57.1392 70.5456 57.0976C70.6844 57.0561 70.8647 56.9587 71.0865 56.8054L71.2538 57.016C71.0391 57.1638 70.7702 57.3659 70.4471 57.6225C70.1256 57.8665 69.7998 58.1195 69.4698 58.3817C69.0906 58.6829 68.7352 58.9709 68.4038 59.2457C68.0737 59.5078 67.8125 59.7268 67.62 59.9026L67.4527 59.6919C67.6592 59.505 67.7984 59.3486 67.8702 59.2228C67.9421 59.097 67.9454 58.957 67.8801 58.8027C67.8148 58.6484 67.6818 58.4449 67.481 58.1921L63.331 52.9678C63.1246 52.7079 62.9565 52.5323 62.8265 52.4408C62.691 52.3423 62.5504 52.3166 62.4045 52.3637C62.2602 52.3982 62.0799 52.4957 61.8636 52.656L61.6963 52.4453C61.9055 52.2906 62.1779 52.0856 62.5135 51.8305C62.8562 51.5698 63.2171 51.2888 63.5962 50.9876C63.9263 50.7255 64.2465 50.4654 64.5569 50.2073C64.8743 49.9437 65.1321 49.7275 65.3301 49.5588Z" fill="black"/>
<path d="M70.5746 45.979L70.7236 46.203C70.5046 46.3595 70.3528 46.5036 70.2681 46.6353C70.1859 46.7547 70.1709 46.8939 70.223 47.0532C70.2701 47.2049 70.3855 47.4189 70.5693 47.6952L74.2654 53.2499C74.4442 53.5187 74.597 53.7078 74.7237 53.8174C74.858 53.922 74.996 53.9594 75.1378 53.9297C75.2796 53.8999 75.4674 53.818 75.7013 53.6839L75.8504 53.9079C75.6239 54.0371 75.339 54.2159 74.9955 54.4444C74.6546 54.6605 74.3087 54.8853 73.9578 55.1187C73.5546 55.387 73.1763 55.6441 72.8229 55.89C72.472 56.1235 72.1933 56.3197 71.9867 56.4787L71.8377 56.2548C72.0592 56.0858 72.211 55.9417 72.2932 55.8224C72.3754 55.7031 72.3904 55.5638 72.3383 55.4046C72.2863 55.2453 72.1708 55.0313 71.9919 54.7626L68.2959 49.2078C68.1121 48.9316 67.9593 48.7424 67.8376 48.6403C67.7108 48.5308 67.5728 48.4934 67.4235 48.5281C67.2768 48.5503 67.0889 48.6322 66.86 48.7738L66.7109 48.5498C66.9324 48.4132 67.2211 48.2319 67.577 48.0059C67.9403 47.7749 68.3236 47.5253 68.7267 47.257C69.0776 47.0235 69.4186 46.7913 69.7496 46.5603C70.0881 46.3243 70.3631 46.1305 70.5746 45.979Z" fill="black"/>
<path d="M76.072 42.8645L76.2018 43.1001C75.9705 43.2378 75.8071 43.3687 75.7117 43.4929C75.6198 43.6049 75.5932 43.7424 75.6318 43.9054C75.666 44.0606 75.7632 44.2835 75.9232 44.5742L79.1416 50.4186C79.2973 50.7014 79.4337 50.9027 79.5509 51.0225C79.6759 51.1379 79.8103 51.1868 79.954 51.169C80.0978 51.1513 80.2919 51.0854 80.5362 50.9713L80.666 51.207C80.4295 51.3167 80.1306 51.4711 79.7692 51.67C79.4114 51.8568 79.0479 52.0519 78.6787 52.2552C78.2545 52.4888 77.856 52.7133 77.4833 52.9288C77.1141 53.1321 76.8199 53.3044 76.6008 53.4455L76.471 53.2099C76.7059 53.0601 76.8692 52.9291 76.9611 52.8171C77.053 52.7051 77.0796 52.5676 77.041 52.4045C77.0025 52.2415 76.9053 52.0186 76.7496 51.7358L73.5312 45.8914C73.3712 45.6007 73.2347 45.3994 73.1219 45.2875C73.0048 45.1677 72.8704 45.1189 72.7188 45.141C72.5706 45.1509 72.3766 45.2168 72.1366 45.3387L72.0068 45.103C72.239 44.9854 72.5418 44.8289 72.9153 44.6335C73.2967 44.4337 73.6995 44.217 74.1237 43.9834C74.4929 43.7801 74.8521 43.5772 75.2013 43.3747C75.5583 43.1678 75.8486 42.9978 76.072 42.8645Z" fill="black"/>
<path d="M81.7955 40.2229L81.9052 40.4686C81.6631 40.5864 81.4894 40.7032 81.384 40.819C81.283 40.923 81.245 41.0578 81.2699 41.2235C81.291 41.3809 81.3693 41.6112 81.5045 41.9142L84.2237 48.0069C84.3553 48.3017 84.4744 48.5137 84.5811 48.6428C84.6961 48.7683 84.8259 48.8282 84.9707 48.8225C85.1154 48.8168 85.3143 48.7674 85.5673 48.6741L85.677 48.9198C85.4322 49.0094 85.1214 49.1382 84.7447 49.3064C84.3725 49.4626 83.994 49.6267 83.6091 49.7984C83.1669 49.9958 82.7511 50.1863 82.3617 50.3699C81.9768 50.5417 81.6692 50.6888 81.4391 50.8111L81.3294 50.5655C81.576 50.4358 81.7497 50.319 81.8506 50.215C81.9515 50.1111 81.9896 49.9762 81.9647 49.8106C81.9399 49.6449 81.8617 49.4146 81.7301 49.1198L79.0109 43.0271C78.8757 42.7241 78.7565 42.5121 78.6534 42.3912C78.5467 42.2621 78.4168 42.2022 78.2639 42.2115C78.1155 42.209 77.9166 42.2585 77.6673 42.3599L77.5576 42.1143C77.7988 42.0165 78.1136 41.8858 78.5021 41.7222C78.8989 41.5549 79.3184 41.3726 79.7606 41.1753C80.1455 41.0035 80.5203 40.8313 80.8852 40.6586C81.2582 40.4823 81.5617 40.3371 81.7955 40.2229Z" fill="black"/>
<path d="M87.717 38.0655L87.8058 38.3195C87.5548 38.4167 87.3719 38.5186 87.2571 38.6252C87.1479 38.7204 87.0987 38.8515 87.1096 39.0187C87.1176 39.1774 87.1763 39.4134 87.2857 39.7266L89.4863 46.0253C89.5928 46.33 89.6938 46.5512 89.7894 46.6888C89.8934 46.8235 90.0178 46.894 90.1625 46.9004C90.3073 46.9069 90.5096 46.8742 90.7695 46.8024L90.8582 47.0563C90.6068 47.1252 90.2863 47.2276 89.8969 47.3637C89.513 47.4883 89.1221 47.6202 88.7242 47.7592C88.267 47.9189 87.8367 48.074 87.4333 48.2244C87.0354 48.3634 86.7167 48.4843 86.4771 48.587L86.3884 48.333C86.6449 48.2244 86.8278 48.1225 86.937 48.0273C87.0463 47.9322 87.0954 47.801 87.0845 47.6338C87.0736 47.4667 87.0149 47.2307 86.9084 46.9259L84.7078 40.6273C84.5984 40.314 84.4974 40.0928 84.4048 39.9637C84.3092 39.8261 84.1848 39.7556 84.0316 39.7521C83.8839 39.7372 83.6816 39.7699 83.4247 39.8502L83.3359 39.5962C83.5844 39.5189 83.9091 39.415 84.3099 39.2844C84.7192 39.1509 85.1525 39.0043 85.6096 38.8446C86.0075 38.7055 86.3955 38.5653 86.7735 38.4237C87.16 38.2792 87.4745 38.1598 87.717 38.0655Z" fill="black"/>
<path d="M94.2942 36.2889L94.3603 36.5497C94.1018 36.6245 93.9107 36.71 93.787 36.8062C93.6699 36.8914 93.6094 37.0177 93.6057 37.1852C93.5997 37.344 93.6375 37.5842 93.7191 37.9059L95.3599 44.3729C95.4393 44.6859 95.5205 44.9151 95.6037 45.0605C95.6956 45.2037 95.8133 45.2849 95.9569 45.3039C96.1005 45.323 96.3049 45.3082 96.5701 45.2594L96.6363 45.5202C96.3798 45.5667 96.0516 45.6407 95.6518 45.7422C95.2584 45.8327 94.8575 45.9298 94.4489 46.0335C93.9795 46.1526 93.5373 46.2694 93.1223 46.3839C92.7138 46.4876 92.3857 46.5801 92.138 46.6614L92.0718 46.4007C92.3369 46.3149 92.528 46.2294 92.6451 46.1442C92.7623 46.0589 92.8227 45.9326 92.8265 45.7651C92.8303 45.5976 92.7925 45.3574 92.7131 45.0445L91.0723 38.5774C90.9907 38.2558 90.9094 38.0266 90.8285 37.8898C90.7453 37.7444 90.6276 37.6633 90.4753 37.6464C90.3294 37.6186 90.125 37.6335 89.8621 37.6909L89.7959 37.4302C90.0502 37.3749 90.3827 37.2998 90.7934 37.2048C91.2129 37.1077 91.6573 36.9996 92.1267 36.8805C92.5352 36.7768 92.934 36.671 93.3229 36.5631C93.7206 36.4529 94.0443 36.3616 94.2942 36.2889Z" fill="black"/>
<path d="M100.563 35.1749L100.607 35.4403C100.343 35.493 100.145 35.5621 100.014 35.6474C99.89 35.7225 99.8191 35.8433 99.8012 36.0099C99.7818 36.1676 99.7992 36.4101 99.8534 36.7375L100.942 43.32C100.995 43.6386 101.056 43.8738 101.127 44.0257C101.206 44.1762 101.317 44.267 101.458 44.2981C101.6 44.3293 101.805 44.3317 102.073 44.3055L102.117 44.571C101.857 44.5957 101.524 44.6417 101.117 44.709C100.718 44.766 100.31 44.8289 99.8941 44.8977C99.4163 44.9767 98.9658 45.0558 98.5426 45.1349C98.1268 45.2036 97.792 45.2681 97.5384 45.3282L97.4945 45.0628C97.7658 44.9997 97.9635 44.9307 98.0874 44.8557C98.2113 44.7806 98.2823 44.6598 98.3002 44.4932C98.3181 44.3267 98.3007 44.0841 98.248 43.7656L97.1593 37.183C97.1052 36.8557 97.0435 36.6205 96.9744 36.4774C96.9038 36.3254 96.7934 36.2346 96.643 36.205C96.5001 36.165 96.2952 36.1625 96.0283 36.1976L95.9844 35.9321C96.2424 35.8985 96.5801 35.8518 96.9974 35.7919C97.4235 35.7305 97.8755 35.6603 98.3533 35.5812C98.7691 35.5125 99.1753 35.4407 99.572 35.366C99.9775 35.2899 100.308 35.2262 100.563 35.1749Z" fill="black"/>
<path d="M106.962 34.5897L106.984 34.8579C106.716 34.8879 106.513 34.9399 106.375 35.0137C106.245 35.0779 106.164 35.1923 106.132 35.3567C106.1 35.5122 106.096 35.7554 106.122 36.0861L106.646 42.7375C106.672 43.0594 106.713 43.299 106.77 43.4564C106.837 43.6131 106.939 43.713 107.077 43.756C107.216 43.7991 107.42 43.819 107.689 43.8158L107.71 44.084C107.45 44.0865 107.114 44.104 106.702 44.1364C106.299 44.1591 105.888 44.1871 105.468 44.2202C104.985 44.2582 104.529 44.2986 104.101 44.3413C103.681 44.3744 103.342 44.4101 103.084 44.4484L103.063 44.1802C103.338 44.1405 103.541 44.0886 103.671 44.0243C103.801 43.9601 103.882 43.8458 103.914 43.6814C103.946 43.5169 103.949 43.2738 103.924 42.952L103.4 36.3006C103.374 35.9698 103.333 35.7302 103.276 35.5817C103.219 35.4243 103.116 35.3244 102.969 35.282C102.83 35.23 102.626 35.2101 102.357 35.2223L102.336 34.9541C102.596 34.9426 102.936 34.9248 103.357 34.9006C103.787 34.8758 104.243 34.8443 104.726 34.8063C105.146 34.7732 105.557 34.7363 105.959 34.6957C106.369 34.6544 106.704 34.619 106.962 34.5897Z" fill="black"/>
<path d="M113.472 34.5564L113.47 34.8255C113.201 34.8324 112.994 34.8667 112.85 34.9284C112.715 34.9812 112.625 35.0881 112.579 35.2492C112.533 35.4013 112.508 35.6433 112.506 35.9751L112.456 42.6469C112.453 42.9697 112.474 43.212 112.517 43.3737C112.57 43.5356 112.663 43.6439 112.798 43.6987C112.932 43.7535 113.133 43.7909 113.402 43.8109L113.4 44.0799C113.14 44.06 112.804 44.0485 112.391 44.0454C111.988 44.0334 111.575 44.0258 111.154 44.0226C110.67 44.019 110.212 44.02 109.782 44.0257C109.36 44.0226 109.02 44.029 108.759 44.0449L108.761 43.7759C109.039 43.7601 109.246 43.7258 109.381 43.673C109.516 43.6202 109.606 43.5132 109.652 43.3522C109.698 43.1911 109.723 42.9491 109.725 42.6263L109.775 35.9545C109.778 35.6227 109.757 35.3804 109.714 35.2276C109.67 35.0659 109.577 34.9576 109.434 34.9027C109.299 34.8389 109.098 34.8015 108.829 34.7905L108.831 34.5215C109.091 34.5324 109.432 34.5439 109.853 34.5561C110.284 34.5683 110.741 34.5762 111.225 34.5799C111.647 34.583 112.059 34.5817 112.463 34.5757C112.875 34.5699 113.212 34.5634 113.472 34.5564Z" fill="black"/>
<path d="M119.533 35.0401L119.508 35.3081C119.24 35.2926 119.031 35.3097 118.882 35.3592C118.744 35.4006 118.645 35.4996 118.585 35.6563C118.527 35.8041 118.483 36.0432 118.453 36.3736L117.848 43.0182C117.819 43.3397 117.819 43.5828 117.849 43.7476C117.888 43.9133 117.972 44.029 118.101 44.0948C118.23 44.1605 118.428 44.2145 118.694 44.2568L118.67 44.5247C118.413 44.4833 118.078 44.4439 117.668 44.4065C117.267 44.361 116.856 44.3191 116.436 44.281C115.954 44.2371 115.498 44.2001 115.069 44.17C114.649 44.1318 114.309 44.1099 114.048 44.1042L114.073 43.8363C114.351 43.8436 114.56 43.8265 114.699 43.7852C114.837 43.7438 114.936 43.6447 114.996 43.488C115.055 43.3313 115.099 43.0922 115.128 42.7707L115.733 36.1262C115.763 35.7957 115.763 35.5526 115.732 35.3967C115.702 35.2319 115.618 35.1162 115.48 35.0496C115.352 34.9749 115.154 34.9209 114.887 34.8876L114.911 34.6196C115.169 34.6521 115.508 34.6919 115.927 34.7391C116.355 34.787 116.81 34.8329 117.292 34.8768C117.712 34.915 118.123 34.9479 118.526 34.9755C118.937 35.004 119.273 35.0255 119.533 35.0401Z" fill="black"/>
<path d="M125.658 36.035L125.611 36.3C125.345 36.262 125.135 36.2615 124.983 36.2984C124.841 36.328 124.734 36.4184 124.662 36.5696C124.592 36.7119 124.527 36.9465 124.47 37.2732L123.31 43.8437C123.254 44.1616 123.234 44.404 123.25 44.5707C123.275 44.739 123.349 44.8614 123.472 44.9377C123.595 45.0141 123.788 45.0845 124.05 45.1489L124.003 45.4138C123.75 45.351 123.42 45.2837 123.014 45.212C122.618 45.1331 122.213 45.0569 121.798 44.9837C121.321 44.8995 120.87 44.8245 120.444 44.7585C120.029 44.6853 119.692 44.6349 119.433 44.6073L119.48 44.3424C119.756 44.373 119.966 44.3736 120.108 44.3439C120.249 44.3143 120.356 44.2239 120.429 44.0728C120.501 43.9216 120.565 43.6871 120.621 43.3691L121.781 36.7987C121.838 36.4719 121.858 36.2296 121.841 36.0716C121.825 35.9049 121.75 35.7825 121.619 35.7046C121.497 35.6194 121.305 35.549 121.041 35.4935L121.088 35.2285C121.342 35.2825 121.676 35.3506 122.09 35.4327C122.512 35.5163 122.962 35.6002 123.439 35.6844C123.854 35.7576 124.261 35.8249 124.66 35.8862C125.068 35.9491 125.4 35.9987 125.658 36.035Z" fill="black"/>
<path d="M132.389 37.7301L132.319 37.9899C132.057 37.9286 131.849 37.9096 131.694 37.9329C131.55 37.9499 131.435 38.0305 131.35 38.1747C131.267 38.3103 131.183 38.5382 131.096 38.8586L129.362 45.3011C129.278 45.6129 129.236 45.8525 129.238 46.02C129.248 46.1899 129.311 46.3183 129.426 46.4052C129.542 46.4921 129.728 46.5792 129.983 46.6665L129.913 46.9263C129.667 46.8413 129.344 46.7452 128.946 46.638C128.559 46.5244 128.161 46.4128 127.754 46.3032C127.287 46.1773 126.844 46.0627 126.426 45.9594C126.019 45.8498 125.688 45.7699 125.432 45.7196L125.502 45.4598C125.775 45.5148 125.983 45.5338 126.127 45.5168C126.271 45.4998 126.386 45.4192 126.471 45.275C126.556 45.1308 126.641 44.9028 126.725 44.5911L128.46 38.1486C128.546 37.8282 128.587 37.5886 128.584 37.4297C128.582 37.2622 128.519 37.1338 128.395 37.0445C128.281 36.9489 128.096 36.8618 127.838 36.7832L127.908 36.5234C128.157 36.5997 128.484 36.697 128.888 36.8152C129.302 36.9358 129.742 37.0591 130.21 37.185C130.617 37.2946 131.016 37.3975 131.408 37.4938C131.809 37.5924 132.136 37.6712 132.389 37.7301Z" fill="black"/>
<path d="M138.345 39.8049L138.253 40.0578C137.997 39.9745 137.791 39.9379 137.635 39.948C137.49 39.9527 137.369 40.0233 137.272 40.1598C137.178 40.2878 137.074 40.5078 136.961 40.8197L134.687 47.0919C134.576 47.3954 134.515 47.6307 134.502 47.7977C134.498 47.9678 134.549 48.1011 134.658 48.1975C134.766 48.294 134.943 48.3965 135.19 48.5051L135.098 48.758C134.86 48.6525 134.547 48.5294 134.159 48.3888C133.783 48.2427 133.396 48.0979 133 47.9542C132.545 47.7891 132.113 47.6374 131.706 47.499C131.309 47.3553 130.986 47.2476 130.735 47.1758L130.827 46.9229C131.095 47.0008 131.301 47.0374 131.446 47.0327C131.59 47.028 131.711 46.9574 131.809 46.8209C131.906 46.6844 132.009 46.4645 132.119 46.161L134.394 39.8887C134.507 39.5768 134.569 39.3415 134.579 39.1829C134.591 39.0159 134.54 38.8826 134.423 38.7831C134.318 38.6782 134.141 38.5757 133.891 38.4756L133.982 38.2227C134.224 38.3198 134.541 38.4444 134.934 38.5965C135.336 38.7517 135.764 38.9118 136.22 39.0769C136.616 39.2206 137.005 39.357 137.388 39.4862C137.778 39.6184 138.098 39.7246 138.345 39.8049Z" fill="black"/>
<path d="M144.331 42.4637L144.218 42.708C143.97 42.6033 143.768 42.5494 143.611 42.5462C143.467 42.5386 143.34 42.5987 143.232 42.7264C143.127 42.846 143.005 43.0564 142.866 43.3577L140.068 49.4146C139.933 49.7077 139.852 49.9369 139.825 50.1023C139.806 50.2714 139.846 50.4085 139.946 50.5138C140.045 50.6191 140.213 50.7362 140.45 50.8653L140.337 51.1096C140.109 50.9842 139.807 50.8351 139.433 50.6621C139.07 50.4847 138.698 50.3076 138.315 50.1309C137.875 49.9278 137.458 49.7401 137.064 49.5677C136.681 49.391 136.368 49.2562 136.124 49.1634L136.237 48.9192C136.497 49.0195 136.699 49.0734 136.844 49.081C136.989 49.0885 137.115 49.0285 137.224 48.9007C137.332 48.773 137.454 48.5626 137.589 48.2695L140.387 42.2125C140.526 41.9113 140.608 41.6821 140.631 41.5249C140.658 41.3595 140.617 41.2224 140.51 41.1134C140.414 41 140.246 40.8828 140.005 40.7618L140.118 40.5176C140.35 40.6348 140.656 40.7858 141.035 40.9707C141.422 41.1594 141.835 41.3552 142.275 41.5583C142.658 41.7351 143.034 41.904 143.404 42.0651C143.782 42.2299 144.091 42.3628 144.331 42.4637Z" fill="black"/>
<path d="M149.894 45.5295L149.761 45.7633C149.523 45.6381 149.326 45.5673 149.17 45.5509C149.027 45.5312 148.895 45.5804 148.777 45.6985C148.662 45.8088 148.523 46.0082 148.359 46.2966L145.06 52.096C144.901 52.3766 144.8 52.5982 144.759 52.7606C144.726 52.9275 144.755 53.0676 144.845 53.1809C144.936 53.2942 145.093 53.4251 145.318 53.5738L145.185 53.8076C144.968 53.6634 144.68 53.4894 144.322 53.2854C143.975 53.0781 143.619 52.8702 143.253 52.6618C142.832 52.4224 142.432 52.2001 142.053 51.9951C141.687 51.7867 141.386 51.626 141.151 51.513L141.284 51.2792C141.535 51.401 141.732 51.4718 141.876 51.4916C142.019 51.5113 142.15 51.4621 142.269 51.344C142.388 51.2258 142.527 51.0265 142.687 50.7458L145.985 44.9465C146.15 44.6581 146.25 44.4365 146.286 44.2818C146.327 44.1194 146.298 43.9793 146.2 43.8615C146.114 43.7405 145.957 43.6095 145.727 43.4687L145.86 43.2349C146.082 43.3712 146.374 43.5475 146.736 43.7637C147.105 43.9844 147.501 44.2144 147.922 44.4538C148.288 44.6622 148.649 44.8623 149.004 45.054C149.367 45.2502 149.664 45.4087 149.894 45.5295Z" fill="black"/>
<path d="M155.495 49.2785L155.342 49.4998C155.116 49.3542 154.926 49.2664 154.772 49.2365C154.631 49.2043 154.496 49.2418 154.367 49.3491C154.244 49.449 154.088 49.6354 153.899 49.9084L150.105 55.3967C149.921 55.6623 149.802 55.8742 149.747 56.0325C149.7 56.1959 149.716 56.3379 149.796 56.4587C149.876 56.5794 150.022 56.7237 150.233 56.8914L150.08 57.1127C149.876 56.9501 149.605 56.7515 149.265 56.5169C148.938 56.2801 148.602 56.0418 148.255 55.8022C147.857 55.5268 147.478 55.2704 147.119 55.0331C146.772 54.7934 146.486 54.607 146.262 54.4739L146.415 54.2526C146.654 54.3959 146.844 54.4837 146.986 54.5159C147.127 54.5481 147.262 54.5106 147.39 54.4033C147.519 54.296 147.675 54.1096 147.859 53.844L151.653 48.3556C151.841 48.0827 151.961 47.8708 152.01 47.7199C152.065 47.5616 152.049 47.4195 151.962 47.2937C151.887 47.1655 151.741 47.0213 151.525 46.861L151.678 46.6396C151.887 46.7949 152.162 46.9961 152.503 47.2431C152.852 47.4952 153.226 47.759 153.624 48.0343C153.971 48.274 154.313 48.5049 154.65 48.727C154.994 48.9542 155.276 49.138 155.495 49.2785Z" fill="black"/>
<path d="M160.223 53.0754L160.052 53.2832C159.839 53.1194 159.657 53.0161 159.506 52.9735C159.368 52.9297 159.23 52.9559 159.093 53.0521C158.962 53.1414 158.791 53.3143 158.58 53.5706L154.344 58.7253C154.139 58.9747 154.002 59.176 153.935 59.3292C153.874 59.4881 153.878 59.631 153.948 59.758C154.018 59.885 154.151 60.0408 154.347 60.2255L154.176 60.4333C153.987 60.2543 153.733 60.0339 153.414 59.772C153.108 59.5088 152.792 59.2435 152.466 58.9759C152.092 58.6684 151.736 58.3815 151.398 58.1151C151.072 57.8475 150.803 57.6381 150.591 57.4868L150.762 57.279C150.988 57.4416 151.17 57.5449 151.308 57.5887C151.446 57.6325 151.584 57.6063 151.721 57.5101C151.858 57.4138 152.029 57.241 152.234 56.9916L156.47 51.8369C156.681 51.5805 156.817 51.3792 156.879 51.233C156.947 51.0798 156.943 50.9369 156.866 50.8042C156.802 50.6703 156.669 50.5145 156.467 50.3368L156.638 50.1289C156.833 50.301 157.091 50.5242 157.41 50.7988C157.737 51.079 158.088 51.3728 158.462 51.6803C158.788 51.9479 159.109 52.2063 159.427 52.4556C159.751 52.7106 160.017 52.9172 160.223 53.0754Z" fill="black"/>
<path d="M164.937 57.5507L164.749 57.7431C164.551 57.5615 164.378 57.4429 164.231 57.3876C164.098 57.332 163.958 57.3463 163.813 57.4304C163.675 57.5081 163.49 57.6656 163.258 57.9029L158.595 62.6748C158.369 62.9057 158.216 63.0945 158.135 63.2413C158.061 63.3944 158.053 63.5371 158.111 63.6696C158.17 63.8021 158.289 63.9688 158.469 64.1697L158.281 64.3621C158.108 64.1675 157.873 63.926 157.578 63.6377C157.296 63.3493 157.004 63.0577 156.703 62.7632C156.356 62.4247 156.026 62.1083 155.712 61.8138C155.41 61.5192 155.16 61.2875 154.962 61.1185L155.15 60.9261C155.361 61.1076 155.534 61.2261 155.668 61.2816C155.801 61.3372 155.941 61.3229 156.086 61.2388C156.231 61.1547 156.416 60.9972 156.642 60.7663L161.305 55.9944C161.537 55.7571 161.69 55.5683 161.764 55.4279C161.845 55.2811 161.853 55.1383 161.788 54.9996C161.736 54.8607 161.616 54.694 161.43 54.4995L161.618 54.3071C161.798 54.4953 162.035 54.7399 162.331 55.0409C162.632 55.3481 162.956 55.671 163.302 56.0095C163.604 56.304 163.902 56.5891 164.197 56.8648C164.498 57.1467 164.745 57.3753 164.937 57.5507Z" fill="black"/>
<path d="M169.198 62.3559L168.994 62.5316C168.812 62.3337 168.65 62.201 168.509 62.1334C168.38 62.0666 168.24 62.069 168.089 62.1405C167.944 62.2061 167.746 62.3473 167.495 62.564L162.443 66.9219C162.198 67.1328 162.029 67.3079 161.936 67.4473C161.849 67.5935 161.829 67.7351 161.877 67.8721C161.924 68.0091 162.028 68.1853 162.19 68.4007L161.987 68.5764C161.83 68.3678 161.618 68.1073 161.348 67.7949C161.091 67.4835 160.825 67.1682 160.55 66.8491C160.234 66.4824 159.932 66.139 159.644 65.8189C159.368 65.4998 159.139 65.2476 158.955 65.0624L159.159 64.8866C159.354 65.0854 159.516 65.2182 159.645 65.2849C159.773 65.3516 159.913 65.3492 160.065 65.2777C160.217 65.2063 160.415 65.0651 160.659 64.8542L165.711 60.4963C165.962 60.2796 166.131 60.1045 166.217 59.9709C166.31 59.8315 166.33 59.69 166.277 59.5462C166.237 59.4033 166.132 59.2271 165.963 59.0175L166.167 58.8418C166.33 59.0446 166.546 59.3085 166.814 59.6335C167.089 59.9653 167.384 60.3145 167.7 60.6812C167.976 61.0004 168.248 61.3098 168.519 61.6095C168.795 61.916 169.022 62.1648 169.198 62.3559Z" fill="black"/>
<path d="M173.005 67.4618L172.787 67.6198C172.622 67.4072 172.472 67.2613 172.337 67.182C172.215 67.1046 172.075 67.0952 171.918 67.1536C171.768 67.2068 171.559 67.3308 171.29 67.5255L165.889 71.4418C165.627 71.6313 165.444 71.7915 165.34 71.9226C165.241 72.0609 165.209 72.2003 165.244 72.3408C165.28 72.4813 165.369 72.6657 165.513 72.894L165.295 73.0519C165.157 72.8309 164.966 72.5533 164.724 72.2193C164.495 71.8874 164.256 71.5508 164.009 71.2095C163.725 70.8175 163.452 70.4498 163.193 70.1066C162.945 69.7653 162.738 69.4947 162.571 69.2947L162.789 69.1368C162.966 69.3513 163.116 69.4972 163.239 69.5746C163.361 69.6519 163.501 69.6613 163.658 69.6029C163.815 69.5444 164.024 69.4205 164.286 69.231L169.687 65.3148C169.956 65.12 170.139 64.9597 170.236 64.8339C170.34 64.7029 170.372 64.5635 170.332 64.4157C170.303 64.27 170.214 64.0856 170.063 63.8625L170.281 63.7046C170.427 63.9204 170.619 64.2016 170.86 64.5481C171.105 64.9018 171.37 65.2747 171.654 65.6668C171.901 66.008 172.147 66.3394 172.391 66.6608C172.641 66.9896 172.845 67.2566 173.005 67.4618Z" fill="black"/>
<path d="M176.355 72.843L176.125 72.9821C175.978 72.7564 175.841 72.5984 175.713 72.5081C175.598 72.4207 175.459 72.3996 175.298 72.4447C175.144 72.4851 174.925 72.5911 174.641 72.7627L168.93 76.2123C168.654 76.3792 168.458 76.5236 168.343 76.6454C168.233 76.7749 168.189 76.9112 168.213 77.0541C168.236 77.1971 168.31 77.3884 168.434 77.6279L168.203 77.767C168.084 77.5351 167.918 77.2426 167.705 76.8895C167.504 76.5395 167.294 76.1841 167.077 75.8233C166.826 75.4088 166.586 75.0196 166.356 74.6558C166.138 74.295 165.954 74.008 165.804 73.7946L166.034 73.6555C166.193 73.8842 166.331 74.0422 166.446 74.1296C166.562 74.2169 166.7 74.238 166.862 74.1929C167.023 74.1478 167.242 74.0418 167.518 73.8749L173.229 70.4253C173.513 70.2538 173.709 70.1094 173.816 69.9922C173.931 69.8704 173.975 69.7341 173.947 69.5835C173.931 69.4359 173.857 69.2446 173.726 69.0097L173.956 68.8706C174.083 69.0978 174.251 69.3942 174.462 69.7596C174.676 70.1327 174.909 70.5265 175.159 70.941C175.377 71.3018 175.595 71.6525 175.811 71.9933C176.032 72.3418 176.213 72.625 176.355 72.843Z" fill="black"/>
<path d="M179.439 78.8939L179.197 79.0124C179.071 78.7748 178.947 78.6055 178.828 78.5043C178.72 78.4072 178.584 78.3741 178.42 78.405C178.263 78.4319 178.036 78.5184 177.738 78.6645L171.748 81.6033C171.458 81.7455 171.251 81.8722 171.125 81.9836C171.004 82.103 170.949 82.2349 170.96 82.3794C170.971 82.5239 171.028 82.7208 171.13 82.9702L170.888 83.0887C170.79 82.8473 170.65 82.5415 170.468 82.1711C170.299 81.8049 170.121 81.4326 169.935 81.0542C169.722 80.6194 169.516 80.2108 169.319 79.8283C169.133 79.4499 168.975 79.1479 168.844 78.9223L169.086 78.8038C169.224 79.0455 169.348 79.2149 169.455 79.312C169.563 79.409 169.699 79.4421 169.863 79.4113C170.028 79.3805 170.255 79.2939 170.545 79.1517L176.535 76.213C176.833 76.0669 177.04 75.9401 177.158 75.8327C177.283 75.7213 177.338 75.5894 177.323 75.4369C177.32 75.2885 177.263 75.0915 177.153 74.846L177.395 74.7275C177.501 74.965 177.643 75.2749 177.821 75.6572C178.002 76.0476 178.2 76.4602 178.413 76.8949C178.599 77.2733 178.784 77.6417 178.97 78C179.16 78.3664 179.316 78.6644 179.439 78.8939Z" fill="black"/>
<path d="M181.806 84.7512L181.556 84.8491C181.449 84.6018 181.341 84.4228 181.23 84.312C181.131 84.2063 180.998 84.1619 180.832 84.1789C180.673 84.1926 180.44 84.2599 180.131 84.3806L173.916 86.809C173.615 86.9265 173.398 87.0355 173.264 87.136C173.133 87.2448 173.067 87.3717 173.066 87.5166C173.065 87.6615 173.105 87.8625 173.186 88.1196L172.936 88.2175C172.858 87.9687 172.744 87.6522 172.594 87.268C172.455 86.8889 172.309 86.503 172.156 86.1104C171.979 85.6594 171.809 85.235 171.644 84.8374C171.49 84.4448 171.358 84.1307 171.247 83.895L171.497 83.7971C171.615 84.0495 171.724 84.2285 171.823 84.3342C171.922 84.4399 172.055 84.4843 172.221 84.4673C172.388 84.4503 172.622 84.3831 172.922 84.2656L179.137 81.8372C179.446 81.7165 179.663 81.6075 179.789 81.5102C179.923 81.4097 179.989 81.2828 179.987 81.1296C179.996 80.9815 179.956 80.7805 179.867 80.5266L180.117 80.4287C180.203 80.6742 180.319 80.9949 180.464 81.3907C180.613 81.7949 180.775 82.2225 180.951 82.6736C181.104 83.0661 181.259 83.4487 181.414 83.8213C181.572 84.2023 181.703 84.5123 181.806 84.7512Z" fill="black"/>
<path d="M183.685 90.8042L183.427 90.8808C183.341 90.6255 183.248 90.4379 183.147 90.3183C183.057 90.2046 182.929 90.1493 182.761 90.1523C182.602 90.1527 182.364 90.2002 182.046 90.2946L175.65 92.1942C175.34 92.2861 175.115 92.3765 174.973 92.4655C174.833 92.563 174.757 92.6839 174.744 92.8282C174.73 92.9725 174.753 93.1761 174.813 93.4391L174.555 93.5157C174.498 93.2613 174.411 92.9364 174.294 92.5409C174.187 92.1515 174.074 91.7548 173.954 91.3508C173.816 90.8865 173.682 90.4494 173.551 90.0393C173.431 89.6353 173.325 89.3112 173.234 89.067L173.492 88.9904C173.588 89.2518 173.681 89.4393 173.771 89.5529C173.861 89.6665 173.989 89.7218 174.157 89.7189C174.325 89.7159 174.563 89.6685 174.872 89.5765L181.268 87.677C181.586 87.5825 181.812 87.4921 181.946 87.4057C182.087 87.3167 182.164 87.1958 182.175 87.043C182.196 86.8962 182.173 86.6925 182.105 86.4321L182.363 86.3555C182.429 86.6073 182.517 86.9365 182.629 87.3431C182.743 87.7583 182.868 88.198 183.006 88.6622C183.126 89.0663 183.248 89.4605 183.372 89.8447C183.498 90.2376 183.602 90.5575 183.685 90.8042Z" fill="black"/>
<path d="M185.056 97.0241L184.793 97.0788C184.73 96.8172 184.653 96.6225 184.562 96.4947C184.482 96.3739 184.358 96.308 184.191 96.2968C184.033 96.2839 183.791 96.3111 183.466 96.3784L176.933 97.7329C176.617 97.7985 176.385 97.8696 176.236 97.9462C176.089 98.0317 176.002 98.1457 175.977 98.2884C175.952 98.431 175.957 98.6359 175.994 98.9029L175.731 98.9576C175.696 98.6993 175.636 98.3682 175.553 97.9642C175.479 97.5673 175.4 97.1624 175.314 96.7497C175.216 96.2756 175.119 95.8286 175.023 95.409C174.937 94.9963 174.859 94.6644 174.789 94.4134L175.052 94.3588C175.126 94.6274 175.203 94.822 175.283 94.9428C175.363 95.0636 175.487 95.1296 175.654 95.1407C175.821 95.1518 176.063 95.1246 176.379 95.0591L182.912 93.7046C183.237 93.6373 183.469 93.5662 183.61 93.4913C183.759 93.4146 183.845 93.3006 183.868 93.1492C183.903 93.0047 183.897 92.7998 183.851 92.5346L184.114 92.48C184.158 92.7364 184.219 93.0719 184.295 93.4865C184.374 93.9098 184.463 94.3585 184.561 94.8327C184.646 95.2454 184.735 95.6484 184.825 96.0417C184.918 96.4438 184.995 96.7713 185.056 97.0241Z" fill="black"/>
<path d="M185.903 103.383L185.636 103.415C185.595 103.149 185.535 102.948 185.455 102.813C185.386 102.686 185.268 102.61 185.103 102.585C184.946 102.558 184.703 102.565 184.373 102.604L177.749 103.4C177.428 103.438 177.191 103.489 177.036 103.553C176.882 103.626 176.786 103.732 176.749 103.872C176.711 104.012 176.7 104.217 176.714 104.486L176.447 104.518C176.434 104.258 176.403 103.923 176.354 103.513C176.314 103.111 176.27 102.701 176.219 102.283C176.162 101.802 176.103 101.348 176.042 100.922C175.992 100.504 175.943 100.166 175.894 99.9103L176.161 99.8782C176.212 100.152 176.272 100.353 176.342 100.48C176.411 100.607 176.529 100.683 176.694 100.708C176.86 100.734 177.103 100.727 177.423 100.689L184.048 99.8931C184.377 99.8536 184.615 99.8025 184.761 99.7398C184.916 99.676 185.011 99.5697 185.048 99.4208C185.094 99.2798 185.106 99.0752 185.082 98.807L185.35 98.7749C185.372 99.0342 185.403 99.3736 185.445 99.7931C185.487 100.222 185.537 100.676 185.595 101.157C185.645 101.575 185.699 101.985 185.756 102.384C185.814 102.793 185.863 103.125 185.903 103.383Z" fill="black"/>
<path d="M186.207 109.843L185.938 109.852C185.92 109.584 185.877 109.379 185.809 109.238C185.751 109.105 185.64 109.019 185.477 108.98C185.324 108.94 185.081 108.926 184.749 108.937L178.081 109.162C177.758 109.173 177.517 109.204 177.357 109.254C177.198 109.313 177.093 109.411 177.044 109.547C176.995 109.683 176.966 109.886 176.957 110.156L176.688 110.165C176.697 109.904 176.695 109.568 176.681 109.156C176.676 108.752 176.667 108.34 176.653 107.918C176.636 107.434 176.616 106.977 176.593 106.548C176.579 106.126 176.558 105.786 176.532 105.527L176.8 105.518C176.828 105.795 176.871 106 176.929 106.132C176.987 106.265 177.098 106.351 177.261 106.39C177.423 106.43 177.666 106.444 177.989 106.433L184.657 106.208C184.989 106.197 185.23 106.166 185.381 106.116C185.541 106.066 185.645 105.968 185.694 105.823C185.752 105.686 185.781 105.483 185.781 105.214L186.05 105.205C186.05 105.465 186.052 105.806 186.057 106.228C186.063 106.658 186.074 107.115 186.09 107.599C186.105 108.021 186.123 108.433 186.146 108.836C186.168 109.248 186.189 109.584 186.207 109.843Z" fill="black"/>
<path d="M185.946 116.369L185.678 116.354C185.683 116.085 185.658 115.878 185.603 115.731C185.556 115.594 185.454 115.499 185.295 115.445C185.145 115.392 184.904 115.357 184.573 115.34L177.91 114.987C177.588 114.97 177.345 114.98 177.181 115.016C177.017 115.061 176.905 115.15 176.844 115.281C176.783 115.413 176.737 115.612 176.705 115.88L176.436 115.866C176.468 115.607 176.494 115.272 176.516 114.86C176.546 114.457 176.573 114.046 176.595 113.625C176.62 113.141 176.64 112.684 176.654 112.254C176.676 111.833 176.685 111.492 176.681 111.232L176.95 111.246C176.953 111.524 176.978 111.732 177.024 111.869C177.071 112.007 177.174 112.102 177.333 112.155C177.491 112.208 177.732 112.244 178.054 112.261L184.717 112.613C185.048 112.63 185.291 112.621 185.446 112.584C185.61 112.548 185.722 112.459 185.783 112.319C185.853 112.188 185.9 111.988 185.923 111.72L186.191 111.734C186.169 111.994 186.142 112.333 186.111 112.754C186.079 113.183 186.05 113.64 186.025 114.123C186.002 114.544 185.985 114.956 185.973 115.36C185.96 115.772 185.951 116.109 185.946 116.369Z" fill="black"/>
<path d="M185.166 122.577L184.899 122.54C184.927 122.272 184.919 122.063 184.877 121.912C184.842 121.772 184.747 121.668 184.593 121.602C184.448 121.537 184.212 121.482 183.883 121.437L177.273 120.529C176.953 120.485 176.71 120.474 176.544 120.497C176.377 120.528 176.258 120.607 176.186 120.733C176.114 120.859 176.051 121.054 175.997 121.318L175.73 121.281C175.784 121.026 175.838 120.694 175.894 120.285C175.958 119.887 176.019 119.479 176.076 119.061C176.142 118.582 176.2 118.128 176.249 117.7C176.307 117.283 176.344 116.944 176.362 116.684L176.628 116.72C176.608 116.998 176.616 117.207 176.651 117.348C176.686 117.488 176.78 117.592 176.934 117.658C177.088 117.725 177.325 117.78 177.644 117.824L184.254 118.731C184.583 118.776 184.826 118.787 184.983 118.763C185.149 118.741 185.269 118.662 185.341 118.527C185.422 118.403 185.485 118.208 185.53 117.942L185.797 117.979C185.753 118.235 185.697 118.572 185.631 118.988C185.564 119.413 185.497 119.866 185.431 120.346C185.374 120.763 185.322 121.173 185.276 121.574C185.229 121.983 185.192 122.318 185.166 122.577Z" fill="black"/>
<path d="M183.765 129.118L183.503 129.058C183.554 128.793 183.565 128.584 183.536 128.43C183.514 128.287 183.429 128.176 183.281 128.096C183.143 128.019 182.912 127.943 182.588 127.869L176.084 126.383C175.769 126.311 175.528 126.279 175.36 126.287C175.191 126.304 175.065 126.371 174.983 126.491C174.9 126.61 174.82 126.798 174.743 127.057L174.481 126.997C174.556 126.747 174.64 126.421 174.732 126.019C174.83 125.628 174.927 125.227 175.02 124.816C175.128 124.344 175.226 123.897 175.313 123.475C175.407 123.064 175.474 122.73 175.514 122.473L175.776 122.532C175.732 122.807 175.721 123.017 175.744 123.16C175.766 123.303 175.851 123.414 175.998 123.494C176.146 123.573 176.377 123.649 176.692 123.721L183.196 125.207C183.52 125.281 183.761 125.313 183.919 125.303C184.087 125.295 184.212 125.227 184.297 125.1C184.388 124.982 184.468 124.794 184.537 124.533L184.799 124.593C184.732 124.845 184.648 125.175 184.545 125.584C184.44 126.002 184.334 126.446 184.226 126.919C184.132 127.329 184.045 127.733 183.964 128.128C183.881 128.532 183.815 128.862 183.765 129.118Z" fill="black"/>
<path d="M181.975 135.002L181.718 134.921C181.79 134.661 181.818 134.454 181.801 134.298C181.791 134.154 181.715 134.036 181.574 133.945C181.442 133.856 181.218 133.762 180.902 133.662L174.539 131.656C174.231 131.558 173.993 131.507 173.826 131.501C173.656 131.504 173.525 131.561 173.433 131.674C173.341 131.786 173.246 131.967 173.148 132.219L172.892 132.138C172.987 131.895 173.097 131.577 173.221 131.184C173.351 130.801 173.479 130.409 173.606 130.007C173.751 129.545 173.885 129.108 174.005 128.695C174.132 128.293 174.226 127.965 174.287 127.712L174.544 127.793C174.477 128.063 174.45 128.271 174.46 128.415C174.471 128.56 174.547 128.677 174.687 128.769C174.828 128.86 175.052 128.954 175.36 129.051L181.723 131.058C182.039 131.158 182.277 131.209 182.436 131.212C182.603 131.218 182.734 131.16 182.829 131.04C182.929 130.93 183.024 130.749 183.114 130.495L183.37 130.576C183.283 130.821 183.172 131.143 183.037 131.543C182.899 131.95 182.757 132.385 182.612 132.847C182.485 133.249 182.365 133.644 182.252 134.031C182.137 134.428 182.044 134.751 181.975 135.002Z" fill="black"/>
<path d="M59.8477 82.1406L60.6559 82.4267C60.9127 85.2283 61.581 87.6228 62.661 89.6101C63.7727 91.6087 65.336 93.339 67.3508 94.8012C64.8648 94.6703 62.561 95.0319 60.4396 95.8861C58.3499 96.7515 56.324 98.1924 54.362 100.209L53.5537 99.9226C55.5158 97.9063 57.4251 96.442 59.2817 95.5298C61.1495 94.5858 63.1578 94.1018 65.3064 94.0776C63.6626 92.6754 62.4061 91.0358 61.5368 89.1587C60.6674 87.2816 60.1044 84.9423 59.8477 82.1406ZM77.5345 88.4009L78.3428 88.687C78.5995 91.4886 79.2679 93.8831 80.3479 95.8704C81.4596 97.8689 83.0228 99.5993 85.0377 101.061C82.5516 100.931 80.2479 101.292 78.1265 102.146C76.0368 103.012 74.0109 104.453 72.0489 106.469L71.2406 106.183C73.6357 103.749 75.3662 101.027 76.432 98.0155C77.4978 95.0043 77.8653 91.7994 77.5345 88.4009ZM70.0054 95.3128L77.0421 97.8034L76.7728 98.5641L69.7361 96.0735L70.0054 95.3128ZM64.1267 83.6552L64.935 83.9413C65.1917 86.7429 65.8601 89.1374 66.9401 91.1247C68.0518 93.1233 69.615 94.8536 71.6299 96.3158C69.1438 96.1849 66.8401 96.5465 64.7187 97.4007C62.629 98.2661 60.6031 99.707 58.6411 101.723L57.8328 101.437C59.7949 99.4209 61.7042 97.9566 63.5608 97.0444C65.4286 96.1004 67.4368 95.6164 69.5855 95.5922C67.9417 94.19 66.6852 92.5504 65.8158 90.6733C64.9465 88.7962 64.3835 86.4568 64.1267 83.6552Z" fill="black"/>
<path d="M167.254 120.157C165.292 122.174 163.383 123.638 161.526 124.55C159.669 125.462 157.661 125.946 155.501 126.002C157.156 127.373 158.413 129.012 159.271 130.921C160.14 132.798 160.703 135.138 160.96 137.939L160.152 137.653C159.927 134.863 159.258 132.468 158.147 130.47C157.035 128.471 155.472 126.741 153.457 125.279C155.943 125.41 158.247 125.048 160.368 124.194C162.49 123.34 164.515 121.899 166.446 119.871L167.254 120.157ZM149.567 113.897C147.172 116.331 145.442 119.053 144.376 122.064C143.31 125.076 142.942 128.28 143.273 131.679L142.465 131.393C142.24 128.603 141.572 126.208 140.46 124.21C139.348 122.211 137.785 120.481 135.77 119.018C138.256 119.149 140.56 118.788 142.681 117.934C144.803 117.079 146.829 115.638 148.759 113.611L149.567 113.897ZM151.072 124.006L150.802 124.767L143.766 122.276L144.035 121.516L151.072 124.006ZM162.975 118.643C161.013 120.659 159.104 122.123 157.247 123.036C155.39 123.948 153.382 124.432 151.222 124.488C152.877 125.858 154.134 127.498 154.992 129.407C155.861 131.284 156.424 133.623 156.681 136.425L155.873 136.139C155.648 133.348 154.979 130.954 153.868 128.955C152.756 126.957 151.193 125.226 149.178 123.764C151.664 123.895 153.968 123.533 156.089 122.679C158.21 121.825 160.236 120.384 162.167 118.357L162.975 118.643Z" fill="black"/>
</svg>
