<svg width="199" height="177" viewBox="0 0 199 177" fill="none" xmlns="http://www.w3.org/2000/svg">
<path fill-rule="evenodd" clip-rule="evenodd" d="M0.671875 83.7936L145.096 0.410278L198.81 93.4449L198.698 93.5096C198.56 93.1031 198.378 92.6976 198.15 92.3025C196.747 89.8736 194.142 88.7526 192.33 89.7986C191.304 90.3909 190.753 91.5509 190.722 92.8867C189.55 92.2455 188.269 92.143 187.244 92.7353C186.218 93.3273 185.667 94.4866 185.636 95.8217C184.464 95.1812 183.184 95.0791 182.159 95.6711C181.133 96.2634 180.581 97.4234 180.55 98.7592C179.378 98.118 178.098 98.0156 177.072 98.6078C176.047 99.1998 175.495 100.359 175.464 101.694C174.292 101.054 173.013 100.952 171.987 101.544C170.961 102.136 170.409 103.297 170.379 104.633C169.206 103.991 167.925 103.889 166.899 104.481C165.873 105.073 165.322 106.233 165.291 107.569C164.119 106.928 162.838 106.826 161.813 107.418C160.787 108.01 160.236 109.169 160.205 110.504C159.033 109.864 157.753 109.762 156.728 110.354C155.701 110.946 155.15 112.107 155.119 113.443C153.947 112.802 152.666 112.699 151.64 113.291C150.614 113.883 150.063 115.043 150.032 116.378C148.86 115.737 147.58 115.635 146.555 116.227C145.529 116.819 144.978 117.978 144.947 119.313C143.775 118.673 142.495 118.571 141.47 119.163C140.444 119.755 139.892 120.915 139.862 122.251C138.689 121.61 137.409 121.507 136.383 122.1C135.357 122.692 134.806 123.852 134.775 125.188C133.603 124.546 132.322 124.444 131.297 125.036C130.271 125.629 129.719 126.789 129.689 128.124C128.516 127.483 127.236 127.381 126.21 127.973C125.185 128.565 124.633 129.724 124.602 131.059C123.43 130.419 122.151 130.317 121.125 130.909C119.932 131.598 119.38 133.056 119.544 134.665C118.232 133.718 116.694 133.467 115.501 134.156C114.475 134.748 113.923 135.908 113.893 137.244C112.72 136.603 111.44 136.501 110.414 137.093C109.389 137.685 108.837 138.844 108.806 140.179C107.634 139.539 106.355 139.437 105.329 140.029C104.303 140.621 103.752 141.781 103.721 143.117C102.549 142.475 101.269 142.373 100.243 142.965C99.2169 143.558 98.6654 144.718 98.6346 146.053C97.4623 145.412 96.182 145.31 95.1562 145.902C94.1304 146.494 93.5789 147.654 93.5481 148.99C92.3758 148.349 91.0955 148.246 90.0697 148.839C89.0439 149.431 88.4924 150.591 88.4616 151.927C87.2893 151.286 86.009 151.183 84.9832 151.775C83.9574 152.368 83.4059 153.528 83.3751 154.863C82.2028 154.222 80.9225 154.12 79.8967 154.712C78.8713 155.304 78.3199 156.463 78.2886 157.798C77.1168 157.158 75.8371 157.056 74.8117 157.648C73.7859 158.24 73.2344 159.4 73.2036 160.736C72.0313 160.095 70.751 159.992 69.7252 160.585C68.6994 161.177 68.1479 162.337 68.1171 163.673C66.9448 163.031 65.6645 162.929 64.6387 163.521C63.6129 164.114 63.0614 165.274 63.0306 166.609C61.8583 165.968 60.578 165.866 59.5522 166.458C58.5268 167.05 57.9754 168.209 57.9441 169.544C56.7723 168.904 55.4926 168.802 54.4672 169.394C52.6554 170.44 52.3235 173.257 53.7258 175.686L0.671875 83.7936ZM53.7258 175.686C53.9539 176.081 54.214 176.441 54.4972 176.764L54.3854 176.828L53.7258 175.686Z" fill="white"/>
<path fill-rule="evenodd" clip-rule="evenodd" d="M142.599 11.8669L12.1641 87.1735L53.2372 158.314L183.672 83.0074L142.599 11.8669ZM8.85156 86.2859L52.3495 161.627L186.985 83.895L143.487 8.55432L8.85156 86.2859Z" fill="#3A001E"/>
<path fill-rule="evenodd" clip-rule="evenodd" d="M165.154 94.19L123.656 22.3132L125.756 21.1007L167.254 92.9775L165.154 94.19Z" fill="#3A001E"/>
<path d="M101.863 50.208C102.165 50.0334 102.464 49.943 102.759 49.9369C103.065 49.9243 103.338 49.9833 103.578 50.1137C103.822 50.2265 104.016 50.4061 104.158 50.6526C104.32 50.9326 104.372 51.2307 104.316 51.547C104.271 51.8568 104.103 52.0958 103.811 52.2639C103.576 52.3997 103.327 52.4465 103.064 52.4044C102.794 52.351 102.578 52.1844 102.417 51.9044C102.294 51.6915 102.246 51.48 102.274 51.2697C102.307 51.0418 102.37 50.841 102.464 50.6673C102.321 50.6006 102.171 50.6125 102.014 50.703C101.667 50.9035 101.409 51.1942 101.241 51.5751C101.066 51.9449 100.972 52.3503 100.957 52.7915C100.943 53.2328 100.987 53.6705 101.088 54.1048C101.183 54.5279 101.321 54.8962 101.502 55.2098L103.559 58.7716C103.876 59.3204 104.246 59.5995 104.669 59.6088C105.098 59.6005 105.586 59.4379 106.135 59.1211L106.339 59.4739C106.075 59.6114 105.704 59.8104 105.227 60.0708C104.744 60.32 104.239 60.5965 103.713 60.9004C103.332 61.1203 102.958 61.3514 102.59 61.5936C102.226 61.8182 101.953 61.9911 101.769 62.1122L101.565 61.7594C102.025 61.4943 102.301 61.2228 102.394 60.9448C102.499 60.6604 102.415 60.283 102.144 59.8126L99.1077 54.554C98.8167 54.0499 98.5137 53.7321 98.1987 53.6003C97.8772 53.4574 97.4701 53.5282 96.9772 53.8127L96.7736 53.4599C97.1514 53.2865 97.5083 53.1029 97.8443 52.9089C98.1691 52.7213 98.4674 52.5267 98.7392 52.325C99.0158 52.1056 99.2546 51.8855 99.4558 51.6649L100.668 53.765C100.604 53.369 100.59 52.944 100.626 52.4898C100.668 52.018 100.786 51.5763 100.982 51.1648C101.177 50.7533 101.471 50.4343 101.863 50.208Z" fill="black"/>
<path d="M91.3415 50.995C91.6327 50.8269 91.9462 50.7878 92.2818 50.8777C92.6175 50.9677 92.8694 51.1583 93.0376 51.4495C93.2057 51.7407 93.2448 52.0541 93.1548 52.3898C93.0649 52.7255 92.8743 52.9774 92.5831 53.1455C92.2919 53.3136 91.9785 53.3527 91.6428 53.2628C91.3071 53.1728 91.0552 52.9823 90.8871 52.6911C90.7189 52.3998 90.6798 52.0864 90.7698 51.7507C90.8597 51.4151 91.0503 51.1631 91.3415 50.995ZM94.5334 54.506L98.7335 61.7807C99.0051 62.2511 99.2846 62.5154 99.572 62.5734C99.8706 62.6251 100.25 62.5183 100.709 62.2532L100.912 62.606C100.716 62.7047 100.418 62.8616 100.019 63.0768C99.6256 63.2742 99.2328 63.4861 98.8407 63.7125C98.4599 63.9323 98.08 64.1666 97.7009 64.4154C97.3153 64.6529 97.0306 64.8322 96.8467 64.9534L96.643 64.6005C97.1022 64.3354 97.3785 64.0639 97.4719 63.7859C97.5765 63.5015 97.493 63.1241 97.2214 62.6537L94.1854 57.3951C93.8944 56.891 93.5914 56.5732 93.2764 56.4414C92.9549 56.2985 92.5477 56.3693 92.0549 56.6538L91.8512 56.301C92.229 56.1277 92.5859 55.944 92.922 55.75C93.2468 55.5625 93.5451 55.3678 93.8169 55.1661C94.0934 54.9467 94.3323 54.7267 94.5334 54.506Z" fill="black"/>
<path d="M90.933 68.5251C90.4738 68.7902 90.0276 68.9357 89.5946 68.9617C89.1551 68.9765 88.7553 68.8788 88.395 68.6687C88.0459 68.4521 87.7518 68.1366 87.5125 67.7222C87.228 67.2293 87.1072 66.7614 87.1501 66.3185C87.2043 65.8691 87.3556 65.4457 87.6041 65.0484C87.8525 64.651 88.1372 64.2776 88.4581 63.9281C88.7837 63.5609 89.0934 63.2178 89.3872 62.8989C89.6744 62.5687 89.8848 62.2606 90.0183 61.9744C90.163 61.6818 90.161 61.4067 90.0122 61.1491L89.4108 60.1075C89.1392 59.6371 88.8595 59.3207 88.5716 59.1583C88.295 58.9895 88.0164 58.9338 87.7359 58.9912C87.449 59.0374 87.1599 59.1446 86.8687 59.3127C86.5887 59.4744 86.3089 59.6882 86.0293 59.9541C85.761 60.2136 85.6027 60.5215 85.5546 60.8778C85.7933 60.7997 86.0427 60.805 86.303 60.8937C86.5633 60.9824 86.7743 61.1667 86.9359 61.4468C87.0976 61.7268 87.1373 62.0025 87.0551 62.274C86.9664 62.5343 86.7821 62.7452 86.5021 62.9069C86.1773 63.0944 85.8782 63.1326 85.605 63.0216C85.3366 62.8928 85.128 62.6997 84.9792 62.442C84.8111 62.1508 84.7481 61.8736 84.7903 61.6103C84.8324 61.347 84.9202 61.0723 85.0537 60.7862C85.2078 60.4583 85.4509 60.1163 85.783 59.7603C86.1198 59.3866 86.5459 59.051 87.0611 58.7536C87.5203 58.4884 87.9447 58.3181 88.3341 58.2426C88.7172 58.1559 89.0733 58.1519 89.4025 58.2306C89.8489 58.3313 90.2301 58.5518 90.546 58.8921C90.8555 59.2211 91.1654 59.6545 91.4758 60.1921L94.1724 64.8627C94.334 65.1427 94.4896 65.3217 94.6392 65.3996C94.7999 65.4711 94.9699 65.4551 95.1491 65.3517C95.2723 65.2805 95.3737 65.1846 95.4534 65.064C95.5331 64.9433 95.6157 64.7761 95.7014 64.5623L96.0511 64.7413C95.9194 65.0563 95.7827 65.3368 95.641 65.5829C95.4928 65.8177 95.2396 66.0386 94.8811 66.2456C94.5563 66.4331 94.2552 66.5323 93.9777 66.5432C93.7002 66.554 93.4441 66.4854 93.2092 66.3372C92.9791 66.1714 92.767 65.9205 92.573 65.5845C92.5616 66.2631 92.4142 66.8485 92.1308 67.3406C91.8587 67.8263 91.4594 68.2211 90.933 68.5251ZM91.1498 67.5038C91.5194 67.2904 91.7996 66.9868 91.9904 66.5929C92.1923 66.1926 92.2992 65.7052 92.3111 65.1309L90.4099 61.8379C90.3854 62.106 90.2832 62.3815 90.1032 62.6647C89.9167 62.9366 89.7111 63.2271 89.4863 63.5361C89.255 63.8339 89.0511 64.1532 88.8745 64.4941C88.7027 64.8173 88.608 65.1706 88.5905 65.5541C88.5729 65.9376 88.6935 66.3533 88.9522 66.8014C89.2108 67.2494 89.5354 67.5399 89.9258 67.6729C90.3274 67.7995 90.7354 67.7431 91.1498 67.5038Z" fill="black"/>
<path d="M79.4658 57.4714C79.7794 57.2903 80.0797 57.1767 80.3667 57.1305C80.6583 57.0666 80.9326 57.0502 81.1894 57.0811C81.435 57.1185 81.6543 57.201 81.8474 57.3284C82.0405 57.4559 82.1952 57.6205 82.3116 57.8221C82.4603 58.0797 82.4992 58.341 82.4282 58.606C82.3572 58.871 82.1929 59.0779 81.9353 59.2266C81.6889 59.3689 81.4252 59.4166 81.1442 59.3697C80.868 59.3052 80.6491 59.1329 80.4874 58.8529C80.3516 58.6177 80.3033 58.3917 80.3424 58.1749C80.3928 57.9517 80.5114 57.7563 80.6984 57.5886C80.6066 57.5072 80.4685 57.475 80.2841 57.4918C80.1044 57.491 79.8969 57.5585 79.6617 57.6943C79.4041 57.843 79.2124 58.0284 79.0867 58.2503C78.9722 58.4658 78.9195 58.6978 78.9286 58.9464C78.93 59.2592 79.0497 59.6606 79.2877 60.1504C79.5192 60.629 79.913 61.3499 80.4691 62.3132L80.7213 62.75L82.519 61.7121L82.713 62.0481L80.9153 63.086L84.708 69.6551C85.0249 70.2039 85.3951 70.483 85.8186 70.4923C86.2469 70.484 86.7354 70.3214 87.2843 70.0045L87.488 70.3574C87.2239 70.4949 86.8534 70.6939 86.3765 70.9543C85.8932 71.2035 85.3883 71.48 84.8619 71.7839C84.481 72.0038 84.1067 72.2349 83.7388 72.4771C83.3757 72.7017 83.1021 72.8746 82.9182 72.9957L82.7145 72.6429C83.1737 72.3778 83.45 72.1063 83.5434 71.8283C83.648 71.5439 83.5645 71.1665 83.2929 70.6961L79.4033 63.959L78.0592 64.735L77.8652 64.399L79.2093 63.623C78.8278 62.9621 78.5357 62.3916 78.333 61.9112C78.1303 61.4308 78.0001 60.9983 77.9422 60.6136C77.8779 60.2176 77.881 59.835 77.9515 59.4657C78.0268 59.0788 78.196 58.7123 78.4592 58.3662C78.7159 58.0089 79.0514 57.7107 79.4658 57.4714Z" fill="black"/>
<path d="M77.3662 64.6639L77.5602 64.9999C77.3603 65.1452 77.2193 65.3536 77.1371 65.6251C77.0549 65.8965 77.0582 66.2903 77.1471 66.8065L78.5628 75.6216L78.2772 75.7865L70.8888 70.1285C70.4238 69.8146 70.059 69.6742 69.7945 69.7075C69.5347 69.7231 69.3376 69.7697 69.2031 69.8473L68.9995 69.4945C69.2653 69.3858 69.539 69.2651 69.8208 69.1323C70.0961 68.9883 70.3905 68.8258 70.7041 68.6447C71.0513 68.4442 71.4089 68.2229 71.7768 67.9806C72.1558 67.7319 72.5069 67.4993 72.83 67.2829L73.0337 67.6357C72.7537 67.7974 72.5146 67.9653 72.3165 68.1394C72.1231 68.2959 72.0566 68.4911 72.117 68.725C72.1709 68.9478 72.4289 69.2394 72.8909 69.5999L77.9158 73.531L77.8344 73.6228L76.8591 67.5104C76.7913 67.0567 76.6792 66.7332 76.5227 66.5398C76.371 66.3287 76.162 66.2253 75.8957 66.2297C75.6294 66.2341 75.2882 66.3415 74.8721 66.5519L74.6781 66.2159C74.8862 66.1107 75.0662 66.0217 75.2183 65.9488C75.3639 65.8648 75.5072 65.7895 75.648 65.7231C75.7936 65.6391 75.9504 65.5485 76.1185 65.4515C76.3761 65.3028 76.6024 65.1646 76.7976 65.037C77.0039 64.903 77.1935 64.7786 77.3662 64.6639ZM78.5628 75.6216L78.8354 77.413C78.8851 77.7577 78.9033 78.0608 78.89 78.3224C78.888 78.5774 78.8553 78.8054 78.792 79.0062C78.7098 79.2777 78.5617 79.5125 78.3476 79.7108C78.14 79.9203 77.9354 80.0832 77.7338 80.1996C77.5209 80.3225 77.3023 80.3964 77.0778 80.4215C76.8646 80.4401 76.6623 80.4001 76.4709 80.3015C76.286 80.2141 76.1322 80.064 76.0093 79.8512C75.8541 79.5823 75.8064 79.3187 75.8662 79.0601C75.9325 78.8128 76.1056 78.6083 76.3857 78.4466C76.6209 78.3108 76.8613 78.2616 77.1069 78.299C77.3525 78.3364 77.5497 78.4839 77.6984 78.7416C77.8083 78.932 77.8541 79.1146 77.8356 79.2896C77.8171 79.4645 77.7657 79.6211 77.6813 79.7595C77.7101 79.7578 77.7302 79.7537 77.7414 79.7472C77.7638 79.7343 77.7806 79.7246 77.7918 79.7181C78.0942 79.5435 78.3016 79.2819 78.4139 78.9333C78.5327 78.5959 78.5492 78.1458 78.4632 77.5831L78.166 75.6715L78.5628 75.6216Z" fill="black"/>
<path d="M68.7344 81.3415C68.2751 81.6066 67.829 81.7522 67.396 81.7782C66.9565 81.793 66.5567 81.6953 66.1964 81.4851C65.8473 81.2685 65.5532 80.953 65.3139 80.5386C65.0294 80.0458 64.9086 79.5779 64.9515 79.1349C65.0057 78.6855 65.157 78.2621 65.4054 77.8648C65.6539 77.4675 65.9386 77.094 66.2595 76.7445C66.5851 76.3773 66.8948 76.0342 67.1886 75.7153C67.4758 75.3851 67.6862 75.077 67.8197 74.7909C67.9644 74.4983 67.9623 74.2232 67.8136 73.9655L67.2122 72.9239C66.9406 72.4535 66.6609 72.1371 66.373 71.9747C66.0963 71.8059 65.8178 71.7502 65.5373 71.8076C65.2503 71.8538 64.9613 71.961 64.6701 72.1291C64.39 72.2908 64.1103 72.5046 63.8307 72.7705C63.5624 73.03 63.4041 73.3379 63.356 73.6942C63.5947 73.6162 63.8441 73.6215 64.1044 73.7102C64.3647 73.7988 64.5756 73.9832 64.7373 74.2632C64.899 74.5432 64.9387 74.8189 64.8565 75.0904C64.7678 75.3507 64.5835 75.5616 64.3035 75.7233C63.9787 75.9108 63.6796 75.9491 63.4064 75.838C63.138 75.7093 62.9294 75.5161 62.7806 75.2585C62.6125 74.9673 62.5495 74.69 62.5916 74.4267C62.6338 74.1635 62.7216 73.8888 62.8551 73.6026C63.0092 73.2747 63.2523 72.9327 63.5844 72.5767C63.9212 72.203 64.3473 71.8675 64.8625 71.57C65.3217 71.3049 65.746 71.1345 66.1355 71.059C66.5185 70.9723 66.8746 70.9683 67.2039 71.047C67.6503 71.1477 68.0314 71.3682 68.3474 71.7085C68.6568 72.0376 68.9668 72.4709 69.2772 73.0085L71.9737 77.6791C72.1354 77.9592 72.291 78.1381 72.4406 78.2161C72.6013 78.2875 72.7713 78.2715 72.9505 78.1681C73.0737 78.097 73.1751 78.0011 73.2548 77.8804C73.3344 77.7597 73.4171 77.5925 73.5028 77.3788L73.8525 77.5577C73.7208 77.8727 73.584 78.1532 73.4424 78.3993C73.2942 78.6342 73.0409 78.8551 72.6825 79.062C72.3577 79.2495 72.0566 79.3487 71.7791 79.3596C71.5016 79.3704 71.2455 79.3018 71.0106 79.1537C70.7804 78.9879 70.5684 78.7369 70.3744 78.4009C70.363 79.0796 70.2156 79.6649 69.9322 80.1571C69.6601 80.6427 69.2608 81.0375 68.7344 81.3415ZM68.9512 80.3203C69.3208 80.1069 69.601 79.8032 69.7917 79.4093C69.9937 79.009 70.1006 78.5217 70.1125 77.9473L68.2113 74.6544C68.1868 74.9224 68.0846 75.1979 67.9046 75.4811C67.7181 75.753 67.5124 76.0435 67.2876 76.3525C67.0564 76.6503 66.8524 76.9696 66.6759 77.3105C66.5041 77.6337 66.4094 77.9871 66.3919 78.3705C66.3743 78.754 66.4949 79.1698 66.7535 79.6178C67.0122 80.0658 67.3367 80.3563 67.7272 80.4893C68.1288 80.6159 68.5368 80.5595 68.9512 80.3203Z" fill="black"/>
<path d="M56.5399 70.6625L63.2425 82.2718C63.5141 82.7422 63.7936 83.0064 64.081 83.0645C64.3796 83.1161 64.7585 83.0094 65.2177 82.7442L65.4214 83.097C65.2246 83.1958 64.9269 83.3527 64.5284 83.5678C64.1347 83.7653 63.7418 83.9772 63.3498 84.2035C62.9689 84.4234 62.589 84.6577 62.2099 84.9064C61.8244 85.1439 61.5396 85.3233 61.3557 85.4444L61.152 85.0916C61.6112 84.8265 61.8875 84.5549 61.9809 84.277C62.0855 83.9926 62.002 83.6152 61.7304 83.1448L56.1918 73.5516C55.9008 73.0475 55.5978 72.7296 55.2828 72.5979C54.9613 72.455 54.5542 72.5257 54.0613 72.8103L53.8576 72.4575C54.2355 72.2841 54.5924 72.1005 54.9284 71.9065C55.2532 71.7189 55.5515 71.5243 55.8233 71.3226C56.0999 71.1032 56.3387 70.8831 56.5399 70.6625Z" fill="black"/>
<path d="M49.2799 80.6338L55.2356 90.9495C55.5137 91.4311 55.838 91.6695 56.2085 91.6646C56.5967 91.6645 57.0429 91.5189 57.5469 91.2279L57.7506 91.5807C57.4977 91.7118 57.1464 91.8922 56.6966 92.122C56.2533 92.363 55.7853 92.6258 55.2925 92.9103C54.9453 93.1108 54.6013 93.3169 54.2605 93.5285C53.9374 93.7449 53.6895 93.9104 53.5168 94.0251L53.3131 93.6723C53.7163 93.4395 53.9599 93.2018 54.0438 92.9592C54.1278 92.7166 54.0533 92.3937 53.8205 91.9905L48.9318 83.5229C48.6408 83.0189 48.3378 82.701 48.0228 82.5692C47.7013 82.4263 47.2942 82.4971 46.8014 82.7816L46.5977 82.4288C46.9755 82.2555 47.3324 82.0718 47.6684 81.8778C47.9932 81.6903 48.2915 81.4957 48.5633 81.2939C48.8399 81.0745 49.0787 80.8545 49.2799 80.6338ZM51.9389 79.0314C52.5325 78.6887 53.1583 78.544 53.8163 78.5972C54.4677 78.6392 55.1057 78.8906 55.7302 79.3514C56.3659 79.8058 56.9456 80.4866 57.4694 81.3938C57.8186 81.9987 58.0918 82.6399 58.2889 83.3176C58.4795 83.9841 58.5571 84.6487 58.5215 85.3114C58.4907 85.9564 58.313 86.5668 57.9883 87.1425C57.6683 87.7006 57.1667 88.1769 56.4835 88.5713C55.9571 88.8752 55.4267 89.0172 54.8924 88.9971C54.3694 88.9706 53.9404 88.8225 53.6055 88.5529L53.6377 88.2206C53.9756 88.4437 54.3516 88.5776 54.7657 88.6223C55.1909 88.6605 55.6276 88.5503 56.0756 88.2916C56.7028 87.9295 57.0769 87.4522 57.1978 86.8597C57.3186 86.2672 57.2588 85.6074 57.0181 84.8801C56.7822 84.1352 56.4347 83.3652 55.9755 82.5699C55.4582 81.6739 54.9618 80.9823 54.4864 80.4951C54.011 80.008 53.5469 79.7085 53.094 79.5966C52.6411 79.4847 52.2019 79.5516 51.7763 79.7974C51.2274 80.1142 50.8616 80.6316 50.6787 81.3495C50.4893 82.0562 50.5982 82.9043 51.0053 83.8939L50.6678 83.775C50.2414 82.7519 50.1506 81.8186 50.3955 80.9754C50.6516 80.1256 51.1661 79.4776 51.9389 79.0314Z" fill="black"/>
<path d="M123.813 93.85L124.007 94.186C123.807 94.3313 123.666 94.5397 123.584 94.8111C123.502 95.0826 123.505 95.4764 123.594 95.9926L125.01 104.808L124.724 104.973L117.336 99.3146C116.871 99.0007 116.506 98.8603 116.242 98.8936C115.982 98.9092 115.785 98.9558 115.65 99.0334L115.447 98.6806C115.712 98.5719 115.986 98.4512 116.268 98.3184C116.543 98.1744 116.838 98.0118 117.151 97.8308C117.499 97.6303 117.856 97.4089 118.224 97.1667C118.603 96.9179 118.954 96.6854 119.277 96.469L119.481 96.8218C119.201 96.9835 118.962 97.1514 118.764 97.3255C118.57 97.482 118.504 97.6772 118.564 97.9111C118.618 98.1338 118.876 98.4255 119.338 98.7859L124.363 102.717L124.282 102.809L123.306 96.6965C123.239 96.2428 123.126 95.9193 122.97 95.7258C122.818 95.5148 122.609 95.4114 122.343 95.4158C122.077 95.4202 121.735 95.5276 121.319 95.738L121.125 95.402C121.333 95.2968 121.513 95.2078 121.665 95.1349C121.811 95.0508 121.954 94.9756 122.095 94.9092C122.241 94.8251 122.398 94.7346 122.566 94.6376C122.823 94.4889 123.05 94.3507 123.245 94.2231C123.451 94.089 123.641 93.9647 123.813 93.85ZM125.01 104.808L125.283 106.599C125.332 106.944 125.35 107.247 125.337 107.508C125.335 107.764 125.302 107.991 125.239 108.192C125.157 108.464 125.009 108.699 124.795 108.897C124.587 109.106 124.383 109.269 124.181 109.386C123.968 109.509 123.749 109.583 123.525 109.608C123.312 109.626 123.109 109.586 122.918 109.488C122.733 109.4 122.579 109.25 122.456 109.037C122.301 108.768 122.254 108.505 122.313 108.246C122.38 107.999 122.553 107.794 122.833 107.633C123.068 107.497 123.308 107.448 123.554 107.485C123.8 107.523 123.997 107.67 124.146 107.928C124.255 108.118 124.301 108.301 124.283 108.476C124.264 108.651 124.213 108.807 124.128 108.946C124.157 108.944 124.177 108.94 124.189 108.933C124.211 108.92 124.228 108.911 124.239 108.904C124.541 108.73 124.749 108.468 124.861 108.119C124.98 107.782 124.996 107.332 124.91 106.769L124.613 104.858L125.01 104.808Z" fill="black"/>
<path d="M115.182 110.527C114.723 110.792 114.277 110.938 113.844 110.964C113.404 110.979 113.004 110.881 112.644 110.671C112.295 110.454 112.001 110.139 111.762 109.724C111.477 109.231 111.356 108.763 111.399 108.321C111.453 107.871 111.605 107.448 111.853 107.05C112.102 106.653 112.386 106.28 112.707 105.93C113.033 105.563 113.343 105.22 113.636 104.901C113.924 104.571 114.134 104.263 114.267 103.976C114.412 103.684 114.41 103.409 114.261 103.151L113.66 102.11C113.388 101.639 113.109 101.323 112.821 101.16C112.544 100.992 112.266 100.936 111.985 100.993C111.698 101.039 111.409 101.147 111.118 101.315C110.838 101.476 110.558 101.69 110.278 101.956C110.01 102.216 109.852 102.524 109.804 102.88C110.042 102.802 110.292 102.807 110.552 102.896C110.812 102.984 111.023 103.169 111.185 103.449C111.347 103.729 111.386 104.005 111.304 104.276C111.216 104.536 111.031 104.747 110.751 104.909C110.426 105.096 110.127 105.135 109.854 105.024C109.586 104.895 109.377 104.702 109.228 104.444C109.06 104.153 108.997 103.876 109.039 103.612C109.082 103.349 109.169 103.074 109.303 102.788C109.457 102.46 109.7 102.118 110.032 101.762C110.369 101.389 110.795 101.053 111.31 100.756C111.769 100.49 112.194 100.32 112.583 100.245C112.966 100.158 113.322 100.154 113.652 100.233C114.098 100.333 114.479 100.554 114.795 100.894C115.105 101.223 115.415 101.657 115.725 102.194L118.422 106.865C118.583 107.145 118.739 107.324 118.888 107.402C119.049 107.473 119.219 107.457 119.398 107.354C119.521 107.283 119.623 107.187 119.703 107.066C119.782 106.945 119.865 106.778 119.951 106.564L120.3 106.743C120.169 107.058 120.032 107.339 119.89 107.585C119.742 107.82 119.489 108.041 119.13 108.248C118.805 108.435 118.504 108.534 118.227 108.545C117.949 108.556 117.693 108.487 117.458 108.339C117.228 108.173 117.016 107.923 116.822 107.587C116.811 108.265 116.663 108.851 116.38 109.343C116.108 109.828 115.709 110.223 115.182 110.527ZM115.399 109.506C115.769 109.292 116.049 108.989 116.24 108.595C116.441 108.195 116.548 107.707 116.56 107.133L114.659 103.84C114.635 104.108 114.532 104.384 114.352 104.667C114.166 104.939 113.96 105.229 113.735 105.538C113.504 105.836 113.3 106.155 113.124 106.496C112.952 106.819 112.857 107.173 112.84 107.556C112.822 107.94 112.943 108.355 113.201 108.803C113.46 109.251 113.785 109.542 114.175 109.675C114.577 109.801 114.985 109.745 115.399 109.506Z" fill="black"/>
<path d="M102.988 99.8482L109.69 111.457C109.962 111.928 110.241 112.192 110.529 112.25C110.827 112.302 111.206 112.195 111.666 111.93L111.869 112.283C111.672 112.381 111.375 112.538 110.976 112.754C110.582 112.951 110.19 113.163 109.798 113.389C109.417 113.609 109.037 113.843 108.658 114.092C108.272 114.33 107.987 114.509 107.803 114.63L107.6 114.277C108.059 114.012 108.335 113.741 108.429 113.463C108.533 113.178 108.45 112.801 108.178 112.33L102.64 102.737C102.349 102.233 102.046 101.915 101.731 101.784C101.409 101.641 101.002 101.711 100.509 101.996L100.305 101.643C100.683 101.47 101.04 101.286 101.376 101.092C101.701 100.905 101.999 100.71 102.271 100.508C102.548 100.289 102.787 100.069 102.988 99.8482Z" fill="black"/>
<path d="M95.7278 109.82L101.684 120.135C101.962 120.617 102.286 120.855 102.656 120.85C103.045 120.85 103.491 120.705 103.995 120.414L104.198 120.766C103.946 120.898 103.594 121.078 103.145 121.308C102.701 121.549 102.233 121.812 101.74 122.096C101.393 122.297 101.049 122.503 100.708 122.714C100.385 122.931 100.137 123.096 99.9647 123.211L99.761 122.858C100.164 122.625 100.408 122.388 100.492 122.145C100.576 121.902 100.501 121.579 100.268 121.176L95.3797 112.709C95.0887 112.205 94.7857 111.887 94.4707 111.755C94.1492 111.612 93.7421 111.683 93.2492 111.967L93.0455 111.615C93.4234 111.441 93.7803 111.258 94.1163 111.064C94.4411 110.876 94.7394 110.681 95.0112 110.48C95.2878 110.26 95.5266 110.04 95.7278 109.82ZM98.3868 108.217C98.9804 107.874 99.6062 107.73 100.264 107.783C100.916 107.825 101.554 108.076 102.178 108.537C102.814 108.992 103.393 109.672 103.917 110.58C104.266 111.184 104.54 111.826 104.737 112.503C104.927 113.17 105.005 113.834 104.969 114.497C104.939 115.142 104.761 115.753 104.436 116.328C104.116 116.886 103.615 117.363 102.931 117.757C102.405 118.061 101.875 118.203 101.34 118.183C100.817 118.156 100.388 118.008 100.053 117.739L100.086 117.406C100.423 117.629 100.799 117.763 101.214 117.808C101.639 117.846 102.075 117.736 102.523 117.477C103.151 117.115 103.525 116.638 103.646 116.045C103.767 115.453 103.707 114.793 103.466 114.066C103.23 113.321 102.883 112.551 102.423 111.756C101.906 110.86 101.41 110.168 100.934 109.681C100.459 109.194 99.9948 108.894 99.5419 108.782C99.089 108.67 98.6498 108.737 98.2242 108.983C97.6753 109.3 97.3095 109.817 97.1266 110.535C96.9372 111.242 97.0461 112.09 97.4531 113.08L97.1157 112.961C96.6893 111.938 96.5985 111.004 96.8434 110.161C97.0995 109.311 97.6139 108.663 98.3868 108.217Z" fill="black"/>
<path d="M88.5214 113.913C88.9695 113.654 89.3923 113.507 89.79 113.472C90.1877 113.436 90.4949 113.438 90.7116 113.477C91.2558 113.566 91.3634 113.235 91.0345 112.484L91.4209 112.261C91.5795 112.588 91.7794 112.973 92.0204 113.416C92.2549 113.848 92.5823 114.428 93.0027 115.156L92.6162 115.379C92.3098 115.004 91.9594 114.668 91.565 114.373C91.1819 114.072 90.7624 113.888 90.3065 113.823C89.8442 113.746 89.361 113.854 88.8569 114.145C88.4649 114.371 88.1992 114.674 88.0597 115.053C87.925 115.415 87.9805 115.808 88.2262 116.234C88.4202 116.57 88.6891 116.803 89.033 116.933C89.3704 117.052 89.7629 117.124 90.2106 117.149C90.6518 117.163 91.134 117.183 91.6571 117.21C92.2379 117.233 92.7827 117.284 93.2916 117.364C93.8005 117.443 94.2527 117.593 94.6483 117.813C95.0551 118.026 95.3911 118.362 95.6562 118.821C95.9537 119.336 96.0683 119.845 95.9999 120.348C95.9316 120.85 95.7307 121.317 95.3974 121.748C95.0752 122.173 94.6565 122.534 94.1413 122.832C93.8949 122.974 93.6468 123.088 93.3969 123.172C93.1647 123.261 92.9251 123.325 92.6783 123.363C92.5339 123.372 92.3775 123.372 92.209 123.365C92.0518 123.351 91.8913 123.332 91.7275 123.307C91.5638 123.282 91.4662 123.346 91.4348 123.498C91.3969 123.64 91.4364 123.863 91.5533 124.169L91.1669 124.392C90.9824 124.021 90.747 123.575 90.4607 123.053C90.1744 122.531 89.7856 121.845 89.2941 120.993L89.6805 120.77C90.1211 121.352 90.5499 121.836 90.9671 122.223C91.3843 122.609 91.8273 122.846 92.2962 122.934C92.7585 123.01 93.2697 122.887 93.8297 122.564C94.0537 122.434 94.2486 122.255 94.4144 122.025C94.5914 121.788 94.6905 121.507 94.7115 121.181C94.7325 120.855 94.6298 120.496 94.4035 120.104C94.119 119.612 93.7069 119.312 93.1675 119.205C92.628 119.098 91.9836 119.03 91.2343 119C90.6824 118.975 90.1528 118.937 89.6457 118.886C89.1497 118.829 88.696 118.703 88.2844 118.507C87.8841 118.305 87.5514 117.975 87.2862 117.516C86.9952 117.012 86.8712 116.538 86.9142 116.095C86.9618 115.635 87.134 115.222 87.4308 114.856C87.7211 114.479 88.0846 114.165 88.5214 113.913Z" fill="black"/>
<path d="M80.2169 113.42C80.5081 113.252 80.8216 113.213 81.1572 113.303C81.4929 113.393 81.7448 113.583 81.913 113.875C82.0811 114.166 82.1202 114.479 82.0302 114.815C81.9403 115.151 81.7497 115.403 81.4585 115.571C81.1673 115.739 80.8538 115.778 80.5182 115.688C80.1825 115.598 79.9306 115.408 79.7625 115.116C79.5943 114.825 79.5552 114.512 79.6452 114.176C79.7351 113.84 79.9257 113.588 80.2169 113.42ZM83.4088 116.931L87.6089 124.206C87.8805 124.676 88.16 124.941 88.4474 124.999C88.746 125.05 89.1249 124.944 89.5841 124.678L89.7878 125.031C89.591 125.13 89.2933 125.287 88.8948 125.502C88.501 125.699 88.1082 125.911 87.7161 126.138C87.3353 126.358 86.9554 126.592 86.5763 126.841C86.1907 127.078 85.906 127.257 85.7221 127.379L85.5184 127.026C85.9776 126.761 86.2539 126.489 86.3473 126.211C86.4519 125.927 86.3684 125.549 86.0968 125.079L83.0608 119.82C82.7698 119.316 82.4668 118.998 82.1517 118.867C81.8303 118.724 81.4231 118.795 80.9303 119.079L80.7266 118.726C81.1044 118.553 81.4613 118.369 81.7973 118.175C82.1222 117.988 82.4205 117.793 82.6923 117.591C82.9688 117.372 83.2077 117.152 83.4088 116.931Z" fill="black"/>
<path d="M75.9997 115.43L82.5472 126.77C82.8382 127.274 83.1444 127.598 83.4659 127.741C83.7921 127.866 84.196 127.79 84.6776 127.512L84.8813 127.864C84.5147 128.031 84.1578 128.215 83.8106 128.415C83.4857 128.603 83.1818 128.801 82.8988 129.009C82.627 129.211 82.3938 129.427 82.1991 129.659L75.6517 118.319C75.3607 117.815 75.0577 117.497 74.7427 117.365C74.4212 117.222 74.014 117.293 73.5212 117.578L73.3175 117.225C73.6953 117.051 74.0522 116.868 74.3883 116.674C74.7131 116.486 75.0114 116.292 75.2832 116.09C75.5597 115.87 75.7986 115.65 75.9997 115.43ZM74.9451 121.751C75.4379 121.466 75.965 121.319 76.5264 121.308C77.099 121.291 77.623 121.526 78.0984 122.014L77.977 122.308C77.5486 121.928 77.105 121.728 76.6461 121.71C76.1984 121.684 75.7506 121.801 75.3026 122.06C74.6417 122.441 74.2845 123.103 74.231 124.045C74.1886 124.98 74.5837 126.156 75.4161 127.572C75.9399 128.479 76.4604 129.187 76.9776 129.695C77.4996 130.185 78.0158 130.484 78.5265 130.592C79.0418 130.683 79.5459 130.586 80.0387 130.302C80.5091 130.03 80.8184 129.583 80.9664 128.96C81.1144 128.337 81.0013 127.611 80.627 126.781L80.9644 126.9C81.3663 127.803 81.4702 128.617 81.2761 129.341C81.0932 130.059 80.6153 130.641 79.8425 131.087C79.1481 131.488 78.4406 131.672 77.7202 131.64C77.011 131.602 76.3224 131.327 75.6544 130.817C74.9976 130.3 74.3749 129.532 73.7865 128.513C73.198 127.494 72.8834 126.548 72.8426 125.675C72.8066 124.785 72.9772 124.007 73.3544 123.341C73.7428 122.669 74.273 122.139 74.9451 121.751Z" fill="black"/>
<path fill-rule="evenodd" clip-rule="evenodd" d="M145.124 57.0792L30.14 123.164L28.9316 121.062L143.915 54.9767L145.124 57.0792Z" fill="#3A001E"/>
<path d="M67.878 67.2165C66.758 67.8632 66.0827 68.9699 65.8523 70.5366C65.6218 72.1033 65.7069 73.906 66.1074 75.9447C66.482 77.9387 67.0298 79.9222 67.7509 81.8953C68.5167 83.8426 69.3135 85.5331 70.1412 86.9668C70.8914 88.266 71.6207 89.2189 72.3292 89.8253C73.0119 90.3869 73.5772 90.5384 74.0253 90.2797C75.1453 89.6331 75.8206 88.5264 76.051 86.9597C76.2815 85.393 76.2094 83.6127 75.8347 81.6187C75.4342 79.58 74.8511 77.587 74.0852 75.6397C73.3383 73.6218 72.551 71.896 71.7233 70.4623C70.9731 69.163 70.2567 68.2326 69.5741 67.671C68.9362 67.0835 68.3708 66.932 67.878 67.2165ZM59.7053 88.6014C58.7741 86.9885 58.2367 85.1782 58.093 83.1704C57.9941 81.1367 58.2864 79.0564 58.9699 76.9294C59.6535 74.8024 60.7386 72.802 62.2254 70.9281C63.7311 68.9835 65.6263 67.3517 67.9112 66.0325C70.8682 64.3253 73.6023 63.7324 76.1135 64.2538C78.6437 64.7046 80.6719 66.2516 82.198 68.8949C83.1292 70.5078 83.6442 72.331 83.7431 74.3647C83.8868 76.3725 83.6169 78.4399 82.9334 80.5669C82.2946 82.668 81.2224 84.6908 79.7167 86.6354C78.23 88.5092 76.3441 90.1058 74.0592 91.425C71.1023 93.1322 68.3588 93.7604 65.8286 93.3096C63.2725 92.8141 61.2314 91.2447 59.7053 88.6014ZM102.754 87.5819C101.634 88.2286 100.958 89.3353 100.728 90.902C100.498 92.4687 100.583 94.2714 100.983 96.3101C101.358 98.3041 101.906 100.288 102.627 102.261C103.392 104.208 104.189 105.898 105.017 107.332C105.767 108.631 106.496 109.584 107.205 110.191C107.888 110.752 108.453 110.904 108.901 110.645C110.021 109.998 110.696 108.892 110.927 107.325C111.157 105.758 111.085 103.978 110.71 101.984C110.31 99.9454 109.727 97.9524 108.961 96.0051C108.214 93.9872 107.427 92.2614 106.599 90.8277C105.849 89.5285 105.132 88.598 104.45 88.0364C103.812 87.4489 103.247 87.2974 102.754 87.5819ZM94.581 108.967C93.6499 107.354 93.1124 105.544 92.9687 103.536C92.8698 101.502 93.1622 99.4218 93.8457 97.2948C94.5292 95.1678 95.6144 93.1674 97.1011 91.2935C98.6068 89.3489 100.502 87.7171 102.787 86.3979C105.744 84.6907 108.478 84.0978 110.989 84.6192C113.519 85.07 115.548 86.617 117.074 89.2603C118.005 90.8732 118.52 92.6964 118.619 94.7301C118.763 96.7379 118.493 98.8053 117.809 100.932C117.17 103.033 116.098 105.056 114.592 107.001C113.106 108.875 111.22 110.471 108.935 111.79C105.978 113.498 103.235 114.126 100.704 113.675C98.1483 113.18 96.1072 111.61 94.581 108.967ZM98.9339 42.4765L100.446 42.7681L78.0668 133.286L76.5544 132.994L98.9339 42.4765Z" fill="#F0572F"/>
</svg>
