<svg width="543" height="161" viewBox="0 0 543 161" fill="none" xmlns="http://www.w3.org/2000/svg">
<path d="M54.4851 95.7154L1.78171 139.908L67.2318 155.202L74.7942 121.733L54.4851 95.7154Z" fill="white"/>
<path d="M54.5105 95.7251L519.297 0.404114L542.706 21.0508L539.129 52.3992L67.3386 155.199L74.619 122.266L54.5105 95.7251Z" fill="black"/>
<path d="M19.5376 124.969L1.69766 139.956L25.6741 145.409L27.1559 133.913L19.5376 124.969Z" fill="#F0572F"/>
<path d="M131.9 118.84C132.587 118.686 133.127 118.665 133.519 118.775C133.924 118.873 134.269 119.019 134.554 119.213C134.728 119.323 134.88 119.309 135.009 119.171C135.15 119.02 135.29 118.716 135.428 118.258L135.787 118.178C135.683 118.568 135.567 119.041 135.437 119.596C135.308 120.151 135.146 120.882 134.95 121.789L134.591 121.87C134.615 121.438 134.624 121.098 134.617 120.851C134.613 120.594 134.585 120.382 134.531 120.216C134.488 120.047 134.414 119.885 134.309 119.73C134.078 119.374 133.739 119.158 133.29 119.08C132.843 118.991 132.349 119.007 131.808 119.129C131.298 119.243 130.807 119.477 130.334 119.831C129.875 120.172 129.442 120.616 129.037 121.164C128.642 121.709 128.289 122.339 127.976 123.054C127.674 123.767 127.432 124.545 127.251 125.39C127.062 126.266 126.983 127.023 127.014 127.661C127.048 128.289 127.171 128.797 127.385 129.186C127.608 129.573 127.908 129.838 128.283 129.982C128.671 130.114 129.115 130.124 129.614 130.012C130.083 129.907 130.592 129.703 131.142 129.401C131.693 129.099 132.159 128.707 132.54 128.225C132.834 127.871 133.061 127.508 133.22 127.134C133.39 126.759 133.58 126.245 133.79 125.592L134.149 125.512C133.945 126.461 133.785 127.226 133.67 127.808C133.557 128.379 133.468 128.86 133.404 129.252L133.044 129.332C133.099 128.893 133.087 128.628 133.008 128.537C132.939 128.443 132.774 128.495 132.514 128.692C132.07 129.049 131.607 129.381 131.125 129.688C130.656 129.982 130.083 130.204 129.406 130.356C128.418 130.577 127.597 130.548 126.944 130.267C126.301 129.985 125.863 129.467 125.628 128.716C125.404 127.962 125.42 126.991 125.676 125.802C125.927 124.634 126.361 123.565 126.976 122.593C127.591 121.622 128.321 120.808 129.166 120.152C130.021 119.494 130.932 119.057 131.9 118.84Z" fill="white"/>
<path d="M140.932 116.817C141.921 116.595 142.736 116.626 143.379 116.909C144.032 117.189 144.47 117.706 144.694 118.46C144.931 119.201 144.92 120.171 144.662 121.37C144.411 122.538 143.977 123.608 143.362 124.579C142.757 125.549 142.027 126.362 141.172 127.02C140.318 127.678 139.406 128.116 138.438 128.333C137.449 128.554 136.628 128.525 135.975 128.244C135.333 127.961 134.894 127.444 134.66 126.693C134.436 125.939 134.452 124.968 134.708 123.779C134.959 122.611 135.392 121.541 136.008 120.57C136.623 119.598 137.353 118.785 138.197 118.129C139.052 117.471 139.964 117.034 140.932 116.817ZM140.809 117.112C140.132 117.264 139.494 117.63 138.893 118.211C138.292 118.793 137.763 119.527 137.304 120.413C136.856 121.298 136.516 122.282 136.282 123.367C136.044 124.472 135.988 125.403 136.112 126.159C136.249 126.902 136.53 127.44 136.954 127.772C137.39 128.091 137.926 128.179 138.561 128.037C139.238 127.885 139.876 127.519 140.477 126.938C141.078 126.357 141.602 125.624 142.05 124.739C142.51 123.842 142.856 122.857 143.087 121.783C143.328 120.667 143.379 119.737 143.242 118.994C143.115 118.248 142.839 117.714 142.413 117.393C141.989 117.061 141.454 116.968 140.809 117.112Z" fill="white"/>
<path d="M145.481 116.006C145.697 115.967 145.981 115.914 146.333 115.845C146.685 115.776 147.032 115.703 147.376 115.626C147.865 115.517 148.334 115.406 148.784 115.296C149.234 115.185 149.553 115.109 149.74 115.067C150.999 114.785 151.88 114.86 152.381 115.294C152.882 115.727 153.035 116.398 152.839 117.305C152.759 117.681 152.611 118.091 152.396 118.536C152.184 118.971 151.883 119.4 151.495 119.825C151.119 120.236 150.642 120.611 150.064 120.949C149.486 121.287 148.791 121.547 147.979 121.729L146.48 122.065L146.548 121.752L147.89 121.451C148.629 121.285 149.222 121.019 149.667 120.651C150.124 120.281 150.469 119.851 150.703 119.362C150.947 118.87 151.127 118.359 151.241 117.827C151.454 116.836 151.416 116.14 151.126 115.739C150.846 115.335 150.233 115.239 149.286 115.451C148.807 115.559 148.476 115.717 148.292 115.927C148.108 116.137 147.958 116.513 147.841 117.055L146.171 124.814C146.09 125.189 146.066 125.462 146.098 125.634C146.141 125.803 146.27 125.893 146.486 125.904C146.701 125.916 147.026 125.883 147.458 125.806L147.391 126.118C147.125 126.158 146.783 126.225 146.367 126.318C145.953 126.401 145.533 126.49 145.106 126.586C144.7 126.677 144.319 126.767 143.963 126.857C143.609 126.936 143.32 127.01 143.097 127.08L143.165 126.767C143.523 126.667 143.797 126.566 143.988 126.464C144.189 126.359 144.34 126.206 144.443 126.005C144.546 125.803 144.638 125.514 144.719 125.139L146.389 117.381C146.472 116.995 146.501 116.72 146.477 116.557C146.455 116.383 146.357 116.286 146.183 116.266C146.022 116.232 145.765 116.25 145.414 116.319L145.481 116.006Z" fill="white"/>
<path d="M161.421 112.435L161.354 112.748C161.147 112.834 160.921 113.008 160.676 113.272C160.434 113.524 160.143 113.907 159.805 114.42L155.305 121.383L155.039 121.442L152.84 115.504C152.715 115.164 152.59 114.964 152.464 114.903C152.351 114.829 152.238 114.805 152.123 114.83L152.194 114.502C152.4 114.466 152.611 114.428 152.827 114.39C153.054 114.349 153.298 114.299 153.558 114.241C153.901 114.164 154.266 114.083 154.651 113.996C155.049 113.897 155.416 113.8 155.754 113.705L155.683 114.033C155.423 114.091 155.187 114.174 154.976 114.281C154.765 114.388 154.61 114.531 154.511 114.712C154.413 114.893 154.409 115.117 154.5 115.385L156.048 119.862L155.903 119.983L158.872 115.373C159.287 114.734 159.523 114.26 159.58 113.949C159.647 113.636 159.573 113.449 159.359 113.388C159.146 113.317 158.822 113.325 158.387 113.412L158.455 113.099C158.754 113.042 159.059 112.984 159.369 112.924C159.679 112.865 159.97 112.805 160.24 112.744C160.511 112.683 160.736 112.628 160.915 112.578C161.094 112.528 161.263 112.48 161.421 112.435ZM156.361 119.583L155.694 122.68C155.613 123.056 155.584 123.33 155.606 123.504C155.628 123.678 155.721 123.776 155.884 123.799C156.058 123.819 156.32 123.8 156.669 123.742L156.602 124.055C156.367 124.088 156.067 124.145 155.703 124.226C155.351 124.295 154.993 124.371 154.629 124.452C154.223 124.543 153.842 124.633 153.486 124.723C153.132 124.802 152.844 124.877 152.621 124.947L152.688 124.634C153.046 124.534 153.321 124.433 153.511 124.33C153.712 124.226 153.864 124.073 153.967 123.871C154.069 123.669 154.161 123.381 154.242 123.005L154.932 119.799L155.567 120.58L156.361 119.583Z" fill="white"/>
<path d="M170.209 110.466L170.141 110.779C169.785 110.869 169.503 110.982 169.296 111.117C169.099 111.251 168.946 111.429 168.839 111.651C168.732 111.874 168.636 112.178 168.553 112.564L166.543 121.902C166.481 121.916 166.418 121.93 166.356 121.944C166.304 121.956 166.247 121.969 166.184 121.983L161.812 113.3L160.034 121.559C159.953 121.934 159.921 122.225 159.936 122.43C159.964 122.622 160.067 122.743 160.244 122.792C160.434 122.829 160.73 122.812 161.132 122.742L161.064 123.055C160.882 123.076 160.639 123.121 160.337 123.188C160.038 123.245 159.753 123.304 159.482 123.365C159.222 123.423 158.955 123.488 158.682 123.559C158.422 123.617 158.201 123.677 158.02 123.737L158.087 123.424C158.446 123.324 158.722 123.213 158.917 123.09C159.125 122.954 159.282 122.775 159.389 122.552C159.499 122.319 159.594 122.015 159.675 121.639L161.311 114.038C161.394 113.652 161.424 113.377 161.4 113.214C161.377 113.04 161.28 112.943 161.106 112.922C160.944 112.889 160.688 112.907 160.336 112.976L160.404 112.663C160.578 112.634 160.795 112.595 161.053 112.547C161.321 112.497 161.585 112.443 161.846 112.384C162.075 112.333 162.294 112.279 162.505 112.222C162.715 112.165 162.905 112.112 163.073 112.065L166.753 119.339L168.194 112.644C168.277 112.259 168.305 111.97 168.277 111.777C168.259 111.583 168.157 111.462 167.969 111.415C167.791 111.365 167.5 111.381 167.097 111.461L167.164 111.148C167.349 111.117 167.592 111.072 167.891 111.015C168.201 110.956 168.486 110.897 168.746 110.838C169.017 110.778 169.284 110.713 169.546 110.644C169.819 110.573 170.04 110.514 170.209 110.466Z" fill="white"/>
<path d="M174.787 109.232C175.776 109.011 176.591 109.041 177.234 109.324C177.887 109.605 178.325 110.122 178.549 110.875C178.786 111.616 178.776 112.586 178.517 113.786C178.266 114.954 177.833 116.023 177.217 116.995C176.612 117.964 175.883 118.778 175.028 119.436C174.173 120.094 173.261 120.531 172.293 120.748C171.304 120.969 170.484 120.94 169.831 120.659C169.188 120.377 168.75 119.859 168.515 119.108C168.291 118.354 168.307 117.383 168.563 116.194C168.814 115.026 169.247 113.957 169.863 112.985C170.478 112.014 171.208 111.2 172.053 110.544C172.907 109.886 173.819 109.449 174.787 109.232ZM174.664 109.528C173.987 109.679 173.349 110.046 172.748 110.627C172.147 111.208 171.618 111.942 171.16 112.829C170.712 113.713 170.371 114.698 170.138 115.782C169.9 116.887 169.843 117.818 169.967 118.574C170.105 119.318 170.385 119.855 170.809 120.187C171.246 120.506 171.781 120.595 172.416 120.452C173.093 120.301 173.731 119.934 174.332 119.353C174.933 118.772 175.457 118.039 175.905 117.155C176.366 116.258 176.711 115.272 176.943 114.198C177.183 113.082 177.234 112.153 177.097 111.409C176.97 110.663 176.694 110.13 176.268 109.808C175.844 109.477 175.309 109.383 174.664 109.528Z" fill="white"/>
<path d="M179.336 108.421C179.553 108.383 179.837 108.329 180.188 108.26C180.54 108.191 180.887 108.118 181.231 108.042C181.72 107.932 182.19 107.822 182.639 107.711C183.089 107.6 183.408 107.524 183.595 107.482C184.438 107.293 185.11 107.257 185.61 107.373C186.12 107.487 186.466 107.722 186.647 108.079C186.84 108.422 186.882 108.85 186.772 109.361C186.705 109.674 186.57 110.021 186.369 110.404C186.168 110.786 185.878 111.169 185.498 111.552C185.129 111.932 184.656 112.286 184.081 112.614C183.507 112.931 182.814 113.18 182.003 113.362L180.504 113.698L180.571 113.385L181.914 113.084C182.653 112.919 183.24 112.678 183.674 112.362C184.121 112.034 184.454 111.662 184.672 111.245C184.903 110.817 185.07 110.362 185.174 109.883C185.351 109.059 185.29 108.467 184.991 108.107C184.705 107.735 184.088 107.654 183.141 107.867C182.662 107.974 182.331 108.133 182.147 108.342C181.963 108.552 181.813 108.928 181.696 109.471L180.026 117.229C179.945 117.604 179.916 117.879 179.938 118.053C179.96 118.226 180.053 118.325 180.216 118.348C180.39 118.368 180.652 118.349 181.001 118.291L180.934 118.604C180.699 118.637 180.399 118.694 180.035 118.775C179.683 118.844 179.325 118.919 178.961 119.001C178.555 119.092 178.174 119.182 177.818 119.272C177.464 119.351 177.176 119.426 176.952 119.496L177.02 119.183C177.378 119.083 177.653 118.982 177.843 118.879C178.044 118.775 178.196 118.622 178.298 118.42C178.401 118.218 178.493 117.93 178.574 117.554L180.244 109.796C180.327 109.41 180.356 109.136 180.332 108.972C180.31 108.799 180.212 108.701 180.038 108.681C179.877 108.648 179.621 108.665 179.269 108.734L179.336 108.421ZM180.623 113.418C181.181 113.313 181.618 113.24 181.934 113.199C182.252 113.147 182.508 113.11 182.701 113.087C182.905 113.061 183.097 113.043 183.277 113.032C183.95 112.99 184.404 113.092 184.638 113.337C184.885 113.57 185.012 113.993 185.019 114.607L185.066 116.115C185.071 116.55 185.103 116.861 185.162 117.046C185.234 117.218 185.386 117.274 185.617 117.212C185.796 117.162 185.954 117.072 186.091 116.942C186.239 116.81 186.399 116.64 186.572 116.432L186.77 116.552C186.481 116.924 186.199 117.226 185.921 117.457C185.656 117.675 185.31 117.832 184.884 117.927C184.498 118.014 184.185 117.975 183.943 117.811C183.701 117.646 183.579 117.247 183.577 116.612L183.57 115.125C183.573 114.698 183.546 114.336 183.491 114.041C183.448 113.733 183.338 113.51 183.16 113.371C182.992 113.23 182.7 113.206 182.284 113.299L180.597 113.677L180.623 113.418Z" fill="white"/>
<path d="M325.571 78.5814C325.947 78.5021 326.22 78.5236 326.391 78.6459C326.564 78.7578 326.664 78.9297 326.69 79.1617C326.719 79.3832 326.706 79.6136 326.652 79.8528C326.545 80.3208 326.324 80.7238 325.988 81.0619C325.666 81.3874 325.291 81.5953 324.863 81.6857C324.404 81.7827 324.078 81.7525 323.885 81.5952C323.703 81.4357 323.65 81.1896 323.726 80.8568C323.806 80.5032 323.946 80.1966 324.144 79.9369C324.353 79.6751 324.59 79.4419 324.855 79.2374C324.667 79.2771 324.492 79.3488 324.329 79.4524C324.192 79.5309 324.055 79.629 323.919 79.7468C323.783 79.8647 323.659 79.9948 323.547 80.1372C323.438 80.2693 323.34 80.4136 323.255 80.5702C323.18 80.7246 323.124 80.8798 323.089 81.0358L322.021 85.7156C321.907 86.2148 321.935 86.5307 322.103 86.6634C322.271 86.7961 322.596 86.8118 323.076 86.7104L323.001 87.038C322.763 87.0783 322.406 87.1439 321.928 87.2349C321.463 87.3133 320.98 87.4054 320.479 87.5112C320.01 87.6104 319.532 87.721 319.048 87.8432C318.565 87.955 318.203 88.0414 317.96 88.1025L318.035 87.7749C318.359 87.7066 318.601 87.5812 318.762 87.3988C318.933 87.2142 319.068 86.9034 319.168 86.4667L320.296 81.5217C320.403 81.0537 320.418 80.7238 320.343 80.5318C320.27 80.3295 320.066 80.2636 319.732 80.3341L319.807 80.0065C320.134 79.9672 320.454 79.9145 320.767 79.8483C321.289 79.7381 321.778 79.62 322.234 79.4941C322.702 79.3555 323.138 79.209 323.541 79.0547L323.285 80.1778C323.482 79.8788 323.699 79.6251 323.935 79.4169C324.174 79.1982 324.428 79.0208 324.697 78.8847C324.977 78.7464 325.268 78.6453 325.571 78.5814Z" fill="white"/>
<path d="M331.421 77.346C332.339 77.1521 332.998 77.2704 333.396 77.701C333.807 78.1189 333.869 78.9571 333.582 80.2154L328.682 81.2502L328.719 80.9604L331.364 80.4017C331.491 79.8899 331.577 79.4264 331.622 79.011C331.669 78.5852 331.665 78.2545 331.61 78.0187C331.554 77.783 331.428 77.6861 331.229 77.728C330.948 77.7875 330.667 78.0595 330.387 78.5442C330.11 79.0184 329.824 79.7966 329.527 80.8788L329.561 80.9904C329.527 81.0966 329.498 81.2017 329.474 81.3057C329.451 81.4097 329.426 81.5189 329.4 81.6333C329.234 82.3612 329.193 82.9093 329.278 83.2774C329.373 83.6433 329.539 83.8756 329.775 83.9743C330.021 84.0708 330.285 84.0892 330.567 84.0297C330.713 83.9989 330.89 83.9417 331.097 83.8582C331.316 83.7726 331.561 83.6316 331.835 83.4353C332.11 83.2286 332.398 82.945 332.699 82.5845L332.944 82.6219C332.724 83.0644 332.425 83.5233 332.049 83.9988C331.685 84.4617 331.253 84.8746 330.753 85.2376C330.255 85.5901 329.693 85.8325 329.067 85.9648C328.399 86.1058 327.82 86.0996 327.328 85.946C326.847 85.7902 326.516 85.4345 326.335 84.8789C326.154 84.3232 326.183 83.5202 326.422 82.4699C326.65 81.4715 327.013 80.6229 327.51 79.924C328.009 79.2147 328.595 78.6505 329.267 78.2315C329.951 77.7999 330.669 77.5047 331.421 77.346Z" fill="white"/>
<path d="M335.306 84.5433C334.815 84.6469 334.435 84.6382 334.165 84.5171C333.894 84.396 333.72 84.2001 333.643 83.9294C333.576 83.6565 333.581 83.3536 333.657 83.0208C333.756 82.584 333.936 82.2095 334.196 81.8973C334.458 81.5746 334.765 81.297 335.116 81.0645C335.48 80.8194 335.852 80.6022 336.233 80.4128C336.614 80.2235 336.973 80.0438 337.31 79.8736C337.66 79.6909 337.95 79.5058 338.182 79.3184C338.416 79.1205 338.56 78.902 338.614 78.6628L338.931 77.2744C338.969 77.1081 338.979 76.9327 338.962 76.7483C338.955 76.5617 338.889 76.4122 338.766 76.2997C338.643 76.1871 338.424 76.1639 338.111 76.23C337.944 76.2653 337.777 76.3255 337.608 76.4105C337.453 76.483 337.308 76.5729 337.174 76.6804C337.509 76.7384 337.731 76.8746 337.841 77.0889C337.953 77.2929 337.976 77.5404 337.91 77.8316C337.815 78.2476 337.594 78.606 337.247 78.9069C336.901 79.2078 336.529 79.4001 336.132 79.4839C335.715 79.5721 335.421 79.5104 335.251 79.2989C335.08 79.0874 335.039 78.7892 335.127 78.4045C335.2 78.0821 335.34 77.7952 335.547 77.5437C335.766 77.2797 336.059 77.0199 336.425 76.7644C336.778 76.5214 337.182 76.3173 337.637 76.1519C338.095 75.9762 338.563 75.8376 339.043 75.7362C339.555 75.6282 340.018 75.5799 340.432 75.5914C340.849 75.5924 341.178 75.721 341.417 75.9773C341.584 76.1598 341.66 76.416 341.644 76.746C341.629 77.076 341.559 77.5113 341.436 78.0521L340.482 82.2327C340.423 82.4927 340.398 82.6662 340.408 82.7532C340.428 82.8379 340.486 82.8704 340.579 82.8506C340.663 82.8329 340.747 82.7904 340.832 82.723C340.927 82.6534 341.018 82.5848 341.103 82.5174L341.199 82.7495C340.924 82.9956 340.604 83.2018 340.238 83.3681C339.883 83.5323 339.517 83.654 339.141 83.7333C338.693 83.8281 338.355 83.85 338.128 83.7989C337.914 83.7352 337.775 83.6259 337.711 83.4712C337.66 83.3038 337.653 83.1172 337.69 82.9115C337.392 83.3009 337.051 83.6453 336.664 83.9446C336.291 84.2314 335.838 84.4309 335.306 84.5433ZM337.078 82.9813C337.193 82.9571 337.295 82.9205 337.386 82.8717C337.489 82.8103 337.6 82.7176 337.718 82.5938L338.468 79.3024C338.364 79.453 338.235 79.6091 338.078 79.7707C337.935 79.9198 337.786 80.0751 337.629 80.2368C337.473 80.3984 337.32 80.5694 337.17 80.7496C337.03 80.9276 336.9 81.1283 336.779 81.3518C336.671 81.5626 336.587 81.8032 336.525 82.0736C336.435 82.4687 336.444 82.7341 336.552 82.8696C336.673 82.9926 336.848 83.0298 337.078 82.9813Z" fill="white"/>
<path d="M352.395 69.2196L350.003 79.7023C349.897 80.1703 349.88 80.5054 349.953 80.7078C350.039 80.8975 350.243 80.9582 350.567 80.8899L350.492 81.2175C350.176 81.2546 349.856 81.3073 349.532 81.3756C349.01 81.4858 348.521 81.6039 348.066 81.7299C347.61 81.8559 347.174 82.0023 346.758 82.1693L349.15 71.6866C349.257 71.2186 349.272 70.8886 349.197 70.6967C349.124 70.4944 348.92 70.4284 348.586 70.499L348.661 70.1714C348.988 70.1321 349.308 70.0793 349.621 70.0132C350.143 69.903 350.632 69.7849 351.087 69.659C351.556 69.5204 351.992 69.3739 352.395 69.2196ZM347.063 74.0427C347.522 73.9457 347.895 73.9214 348.182 73.9697C348.471 74.0075 348.709 74.1207 348.894 74.3092L348.683 74.5172C348.573 74.4314 348.441 74.3802 348.286 74.3634C348.133 74.3363 347.984 74.3382 347.838 74.369C347.357 74.4704 346.927 74.8532 346.547 75.5175C346.167 76.1818 345.833 77.1483 345.543 78.417C345.334 79.3322 345.219 80.0346 345.197 80.5244C345.177 81.0037 345.222 81.3256 345.334 81.4902C345.458 81.6421 345.614 81.6982 345.802 81.6585C346.094 81.5968 346.379 81.4377 346.656 81.1813C346.935 80.9144 347.112 80.6197 347.185 80.2974L347.011 81.0617C346.712 81.501 346.389 81.8514 346.041 82.1129C345.696 82.364 345.294 82.538 344.834 82.635C344.239 82.7606 343.73 82.7297 343.306 82.5421C342.895 82.3419 342.62 81.9543 342.483 81.3795C342.346 80.8046 342.394 80.0076 342.626 78.9884C342.842 78.0421 343.161 77.2324 343.583 76.5593C344.018 75.8736 344.531 75.3197 345.124 74.8975C345.717 74.4753 346.363 74.1904 347.063 74.0427Z" fill="white"/>
<path d="M360.81 71.3472L360.736 71.6748C360.521 71.7895 360.295 71.9759 360.057 72.2339C359.832 72.4794 359.573 72.8756 359.279 73.4227L355.999 79.6389L354.784 81.6326L352.913 74.1584C352.825 73.8007 352.714 73.5916 352.579 73.5311C352.444 73.4705 352.319 73.4524 352.204 73.4766L352.279 73.149C352.689 73.0921 353.116 73.0266 353.56 72.9526C354.007 72.8682 354.423 72.7853 354.809 72.7037C355.3 72.6002 355.725 72.5005 356.084 72.4048C356.444 72.309 356.782 72.2177 357.1 72.1308L357.026 72.4584C356.838 72.498 356.658 72.5459 356.486 72.602C356.314 72.658 356.183 72.7354 356.091 72.834C356.001 72.9222 355.975 73.0563 356.014 73.2363L356.936 77.5553L356.735 77.7164L358.01 75.2646C358.411 74.5068 358.643 73.9035 358.706 73.4547C358.779 73.0037 358.737 72.6859 358.58 72.5012C358.426 72.3061 358.195 72.2312 357.887 72.2765L357.961 71.9489C358.105 71.9285 358.28 71.9014 358.486 71.8677C358.693 71.834 358.894 71.8015 359.09 71.77C359.299 71.7259 359.466 71.6906 359.591 71.6642C359.779 71.6245 359.999 71.573 360.252 71.5098C360.505 71.4465 360.691 71.3923 360.81 71.3472ZM355.999 79.6389L354.91 81.6652C354.757 81.9451 354.602 82.1907 354.444 82.4021C354.297 82.6113 354.138 82.7886 353.965 82.9338C353.806 83.0665 353.603 83.1935 353.357 83.3147C353.121 83.4338 352.81 83.5341 352.424 83.6157C352.132 83.6774 351.829 83.6967 351.517 83.6737C351.215 83.6484 350.968 83.5519 350.778 83.3842C350.596 83.2247 350.547 82.963 350.63 82.599C350.713 82.235 350.92 81.9141 351.252 81.6362C351.583 81.3583 351.979 81.1708 352.438 81.0738C352.866 80.9835 353.183 81.0054 353.391 81.1397C353.607 81.2822 353.671 81.5459 353.583 81.9306C353.531 82.1594 353.395 82.4059 353.176 82.6699C352.968 82.9318 352.673 83.1573 352.292 83.3467C352.373 83.3394 352.466 83.3248 352.57 83.3028C352.672 83.2911 352.754 83.2787 352.817 83.2655C353.151 83.1949 353.472 83.0281 353.78 82.765C354.086 82.5123 354.356 82.1585 354.589 81.7035L355.525 79.8874L355.999 79.6389Z" fill="white"/>
<path d="M366.318 73.1239L365.966 74.6683L360.315 75.8617L360.667 74.3174L366.318 73.1239Z" fill="white"/>
<path d="M371.53 68.8755C371.99 68.7785 372.379 68.7457 372.7 68.7769C373.034 68.7956 373.269 68.83 373.407 68.8801C373.722 69.0214 373.977 68.8388 374.172 68.3324L374.486 68.2663C374.396 68.5723 374.296 68.9447 374.186 69.3837C374.078 69.8123 373.944 70.3802 373.782 71.0874L373.469 71.1535C373.515 70.7775 373.508 70.4178 373.447 70.0742C373.397 69.7285 373.265 69.4595 373.05 69.2672C372.846 69.0727 372.53 69.0207 372.102 69.111C371.842 69.1661 371.605 69.2904 371.392 69.4839C371.179 69.6773 371.041 69.9093 370.98 70.1796C370.908 70.4916 370.938 70.7526 371.069 70.9625C371.202 71.162 371.389 71.3453 371.629 71.5124C371.872 71.6691 372.11 71.8413 372.346 72.0292C372.61 72.2209 372.839 72.4151 373.032 72.6118C373.226 72.8084 373.361 73.0422 373.439 73.3129C373.529 73.571 373.528 73.9029 373.435 74.3084C373.328 74.7764 373.087 75.2233 372.712 75.649C372.347 76.0724 371.901 76.4389 371.373 76.7483C370.859 77.045 370.309 77.2551 369.725 77.3785C369.359 77.4557 369.051 77.4813 368.798 77.4554C368.544 77.4399 368.345 77.3978 368.201 77.3291C368.053 77.2812 367.921 77.2496 367.806 77.2345C367.703 77.2067 367.594 77.205 367.479 77.2292C367.375 77.2512 367.273 77.3272 367.174 77.457C367.077 77.5764 366.991 77.7133 366.916 77.8677L366.603 77.9339C366.7 77.5967 366.808 77.1878 366.928 76.7072C367.047 76.2266 367.197 75.5912 367.377 74.8008L367.69 74.7347C367.627 75.2726 367.636 75.7361 367.716 76.125C367.807 76.5117 367.964 76.8001 368.189 76.9901C368.427 77.1676 368.734 77.2167 369.109 77.1373C369.276 77.1021 369.435 77.0389 369.585 76.9479C369.734 76.8568 369.865 76.7401 369.977 76.5977C370.089 76.4552 370.168 76.2852 370.213 76.0876C370.317 75.6301 370.264 75.275 370.054 75.0225C369.853 74.7679 369.587 74.4974 369.255 74.2112C369.009 73.9861 368.775 73.7682 368.555 73.5573C368.348 73.3338 368.192 73.0796 368.088 72.7947C367.987 72.4994 367.982 72.1489 368.075 71.7433C368.182 71.2754 368.409 70.8463 368.756 70.4562C369.114 70.0639 369.537 69.732 370.026 69.4604C370.518 69.1785 371.019 68.9835 371.53 68.8755Z" fill="white"/>
<path d="M379.807 67.1277C380.725 66.9337 381.384 67.052 381.782 67.4826C382.193 67.9006 382.255 68.7387 381.968 69.9971L377.068 71.0319L377.105 70.7421L379.75 70.1834C379.877 69.6716 379.963 69.208 380.008 68.7927C380.055 68.3669 380.051 68.0361 379.996 67.8004C379.94 67.5647 379.814 67.4677 379.615 67.5096C379.333 67.5691 379.053 67.8412 378.773 68.3258C378.496 68.8001 378.21 69.5783 377.913 70.6605L377.947 70.772C377.913 70.8782 377.884 70.9833 377.86 71.0873C377.837 71.1913 377.812 71.3005 377.786 71.4149C377.62 72.1429 377.579 72.6909 377.664 73.059C377.759 73.4249 377.925 73.6572 378.161 73.7559C378.407 73.8524 378.671 73.8709 378.953 73.8114C379.099 73.7805 379.276 73.7234 379.483 73.6399C379.702 73.5542 379.947 73.4132 380.221 73.2169C380.496 73.0103 380.784 72.7267 381.085 72.3662L381.33 72.4036C381.11 72.846 380.811 73.305 380.435 73.7805C380.071 74.2434 379.639 74.6563 379.139 75.0192C378.641 75.3718 378.079 75.6142 377.453 75.7464C376.785 75.8875 376.206 75.8812 375.714 75.7277C375.233 75.5719 374.902 75.2162 374.721 74.6605C374.54 74.1049 374.569 73.3019 374.808 72.2515C375.036 71.2532 375.399 70.4045 375.896 69.7056C376.395 68.9963 376.981 68.4322 377.653 68.0131C378.337 67.5815 379.055 67.2864 379.807 67.1277Z" fill="white"/>
<path d="M387.643 63.2753L387.066 65.8024L388.601 65.4784L388.529 65.7904L386.995 66.1144L385.519 72.5881C385.473 72.7856 385.477 72.9235 385.529 73.0017C385.583 73.0695 385.693 73.0857 385.86 73.0505C385.975 73.0262 386.118 72.9664 386.288 72.8709C386.462 72.765 386.635 72.6146 386.809 72.4195L387.001 72.5572C386.696 72.9778 386.335 73.3411 385.918 73.647C385.513 73.9404 385.039 74.1443 384.497 74.2589C384.152 74.3317 383.85 74.351 383.589 74.3169C383.337 74.291 383.142 74.2084 383.005 74.0691C382.828 73.8888 382.746 73.6389 382.759 73.3193C382.775 72.9893 382.844 72.554 382.968 72.0132L384.177 66.7094L382.988 66.9607L383.059 66.6487L384.249 66.3975L384.669 64.5568C385.222 64.4399 385.735 64.2821 386.207 64.0834C386.692 63.872 387.171 63.6026 387.643 63.2753Z" fill="white"/>
<path d="M395.746 63.7615C396.205 63.6645 396.595 63.6317 396.916 63.6629C397.25 63.6816 397.485 63.716 397.623 63.7661C397.938 63.9074 398.193 63.7248 398.388 63.2184L398.701 63.1522C398.612 63.4582 398.512 63.8307 398.402 64.2697C398.294 64.6983 398.16 65.2662 397.998 65.9733L397.685 66.0395C397.731 65.6635 397.724 65.3037 397.663 64.9602C397.613 64.6145 397.481 64.3455 397.266 64.1532C397.062 63.9587 396.746 63.9067 396.318 63.997C396.057 64.0521 395.82 64.1764 395.607 64.3699C395.394 64.5633 395.257 64.7952 395.195 65.0656C395.124 65.3776 395.154 65.6386 395.285 65.8485C395.418 66.048 395.605 66.2313 395.845 66.3984C396.087 66.5551 396.326 66.7273 396.562 66.9152C396.826 67.1069 397.055 67.301 397.248 67.4977C397.442 67.6944 397.577 67.9281 397.654 68.1989C397.745 68.457 397.743 68.7888 397.651 69.1944C397.544 69.6624 397.303 70.1092 396.928 70.5349C396.563 70.9584 396.117 71.3249 395.589 71.6342C395.075 71.931 394.525 72.1411 393.941 72.2645C393.575 72.3417 393.267 72.3673 393.014 72.3414C392.759 72.3259 392.56 72.2838 392.417 72.2151C392.269 72.1671 392.137 72.1356 392.022 72.1205C391.919 72.0927 391.81 72.0909 391.695 72.1152C391.591 72.1372 391.489 72.2132 391.39 72.343C391.293 72.4624 391.207 72.5993 391.132 72.7537L390.819 72.8198C390.916 72.4827 391.024 72.0738 391.143 71.5932C391.263 71.1126 391.413 70.4771 391.593 69.6868L391.906 69.6207C391.843 70.1586 391.852 70.622 391.932 71.0109C392.023 71.3976 392.18 71.686 392.405 71.8761C392.643 72.0536 392.949 72.1027 393.325 72.0233C393.492 71.9881 393.651 71.9249 393.8 71.8339C393.95 71.7428 394.081 71.6261 394.193 71.4836C394.305 71.3412 394.384 71.1712 394.429 70.9736C394.533 70.516 394.48 70.161 394.269 69.9085C394.069 69.6539 393.803 69.3834 393.471 69.0972C393.224 68.8721 392.991 68.6541 392.771 68.4433C392.564 68.2198 392.408 67.9656 392.304 67.6807C392.203 67.3853 392.198 67.0349 392.291 66.6293C392.397 66.1613 392.624 65.7323 392.972 65.3422C393.329 64.9499 393.753 64.618 394.242 64.3464C394.733 64.0645 395.235 63.8695 395.746 63.7615Z" fill="white"/>
<path d="M404.023 62.0137C404.941 61.8197 405.599 61.938 405.998 62.3686C406.409 62.7866 406.471 63.6247 406.184 64.883L401.284 65.9178L401.321 65.6281L403.966 65.0693C404.093 64.5576 404.179 64.094 404.224 63.6786C404.271 63.2529 404.267 62.9221 404.212 62.6864C404.156 62.4506 404.029 62.3537 403.831 62.3956C403.549 62.4551 403.269 62.7272 402.989 63.2118C402.712 63.6861 402.425 64.4643 402.129 65.5464L402.163 65.658C402.129 65.7642 402.1 65.8693 402.076 65.9733C402.053 66.0773 402.028 66.1865 402.002 66.3009C401.835 67.0289 401.795 67.5769 401.88 67.945C401.975 68.3109 402.141 68.5432 402.376 68.6419C402.623 68.7384 402.887 68.7569 403.168 68.6974C403.315 68.6665 403.491 68.6093 403.699 68.5259C403.917 68.4402 404.163 68.2992 404.436 68.1029C404.712 67.8962 405 67.6127 405.301 67.2522L405.546 67.2896C405.326 67.732 405.027 68.191 404.651 68.6665C404.287 69.1293 403.855 69.5423 403.355 69.9052C402.857 70.2578 402.295 70.5002 401.669 70.6324C401.001 70.7735 400.421 70.7672 399.93 70.6136C399.449 70.4579 399.118 70.1021 398.937 69.5465C398.755 68.9909 398.785 68.1879 399.024 67.1375C399.252 66.1392 399.614 65.2905 400.112 64.5916C400.611 63.8823 401.197 63.3181 401.869 62.8991C402.553 62.4675 403.271 62.1723 404.023 62.0137Z" fill="white"/>
<path d="M413.277 60.0592C413.653 59.9799 413.926 60.0014 414.097 60.1237C414.27 60.2356 414.37 60.4075 414.396 60.6395C414.425 60.8611 414.412 61.0914 414.358 61.3306C414.251 61.7986 414.03 62.2016 413.695 62.5397C413.372 62.8652 412.997 63.0731 412.569 63.1635C412.11 63.2605 411.784 63.2303 411.591 63.073C411.409 62.9135 411.356 62.6674 411.432 62.3346C411.513 61.981 411.652 61.6744 411.85 61.4147C412.059 61.1529 412.296 60.9197 412.561 60.7153C412.373 60.7549 412.198 60.8266 412.035 60.9302C411.898 61.0087 411.762 61.1068 411.625 61.2247C411.489 61.3425 411.365 61.4726 411.253 61.6151C411.144 61.7471 411.046 61.8914 410.961 62.048C410.886 62.2024 410.831 62.3576 410.795 62.5136L409.727 67.1934C409.614 67.6926 409.641 68.0085 409.809 68.1412C409.978 68.274 410.302 68.2896 410.782 68.1882L410.707 68.5158C410.47 68.5561 410.112 68.6218 409.634 68.7127C409.169 68.7911 408.686 68.8832 408.185 68.989C407.716 69.0882 407.239 69.1989 406.754 69.321C406.271 69.4328 405.909 69.5193 405.666 69.5804L405.741 69.2528C406.065 69.1845 406.307 69.0591 406.468 68.8766C406.639 68.692 406.774 68.3813 406.874 67.9445L408.002 62.9995C408.109 62.5315 408.124 62.2016 408.049 62.0096C407.976 61.8073 407.773 61.7414 407.439 61.8119L407.513 61.4843C407.84 61.445 408.16 61.3923 408.473 61.3262C408.995 61.216 409.484 61.0979 409.94 60.9719C410.408 60.8333 410.844 60.6869 411.247 60.5325L410.991 61.6557C411.188 61.3566 411.405 61.103 411.641 60.8947C411.88 60.676 412.134 60.4987 412.403 60.3626C412.683 60.2243 412.974 60.1232 413.277 60.0592Z" fill="white"/>
<path d="M418.178 55.3272C418.72 55.2126 419.112 55.2388 419.352 55.4059C419.605 55.5604 419.68 55.8612 419.578 56.3084C419.476 56.7556 419.248 57.1255 418.893 57.4182C418.551 57.6983 418.108 57.8957 417.566 58.0103C417.023 58.1249 416.625 58.105 416.372 57.9505C416.132 57.7834 416.063 57.4763 416.165 57.0291C416.267 56.5819 416.489 56.2183 416.831 55.9382C417.186 55.6455 417.635 55.4418 418.178 55.3272ZM418.784 58.9409L417.229 65.7577C417.129 66.1945 417.124 66.4777 417.214 66.6072C417.314 66.7346 417.526 66.7641 417.849 66.6957L417.774 67.0233C417.568 67.057 417.257 67.1127 416.842 67.1905C416.43 67.2579 416.004 67.3378 415.566 67.4304C415.127 67.523 414.681 67.627 414.228 67.7426C413.777 67.8478 413.435 67.9298 413.203 67.9887L413.278 67.6611C413.602 67.5928 413.844 67.4674 414.005 67.285C414.176 67.1003 414.311 66.7896 414.411 66.3528L415.539 61.4078C415.646 60.9399 415.661 60.6099 415.586 60.418C415.513 60.2156 415.309 60.1497 414.975 60.2203L415.05 59.8927C415.377 59.8533 415.697 59.8006 416.01 59.7345C416.532 59.6243 417.021 59.5062 417.477 59.3802C417.945 59.2417 418.381 59.0952 418.784 58.9409Z" fill="white"/>
<path d="M424.447 57.7003C425.365 57.5064 426.024 57.6247 426.422 58.0552C426.834 58.4732 426.896 59.3114 426.609 60.5697L421.709 61.6045L421.745 61.3147L424.391 60.756C424.517 60.2442 424.603 59.7807 424.648 59.3653C424.696 58.9395 424.692 58.6088 424.636 58.373C424.581 58.1373 424.454 58.0404 424.256 58.0822C423.974 58.1418 423.693 58.4138 423.414 58.8985C423.137 59.3727 422.85 60.1509 422.553 61.2331L422.588 61.3447C422.553 61.4509 422.524 61.556 422.501 61.66C422.477 61.764 422.452 61.8732 422.426 61.9875C422.26 62.7155 422.219 63.2636 422.304 63.6317C422.4 63.9976 422.565 64.2299 422.801 64.3286C423.047 64.425 423.311 64.4435 423.593 64.384C423.739 64.3532 423.916 64.296 424.124 64.2125C424.342 64.1268 424.588 63.9859 424.861 63.7896C425.137 63.5829 425.425 63.2993 425.726 62.9388L425.97 62.9762C425.75 63.4187 425.452 63.8776 425.075 64.3531C424.711 64.816 424.279 65.2289 423.779 65.5919C423.282 65.9444 422.72 66.1868 422.094 66.3191C421.426 66.4601 420.846 66.4539 420.354 66.3003C419.873 66.1445 419.542 65.7888 419.361 65.2332C419.18 64.6775 419.209 63.8745 419.449 62.8242C419.677 61.8258 420.039 60.9772 420.536 60.2783C421.036 59.569 421.621 59.0048 422.293 58.5858C422.978 58.1542 423.696 57.859 424.447 57.7003Z" fill="white"/>
<path d="M431.428 56.2261C431.887 56.1291 432.277 56.0962 432.598 56.1275C432.931 56.1461 433.167 56.1805 433.304 56.2307C433.62 56.3719 433.875 56.1894 434.07 55.6829L434.383 55.6168C434.293 55.9228 434.194 56.2953 434.084 56.7343C433.976 57.1629 433.841 57.7307 433.68 58.4379L433.367 58.504C433.413 58.1281 433.406 57.7683 433.345 57.4248C433.295 57.0791 433.162 56.8101 432.948 56.6178C432.744 56.4233 432.428 56.3712 432 56.4616C431.739 56.5167 431.502 56.641 431.289 56.8344C431.076 57.0279 430.939 57.2598 430.877 57.5302C430.806 57.8422 430.836 58.1031 430.967 58.3131C431.1 58.5126 431.287 58.6959 431.527 58.8629C431.769 59.0196 432.008 59.1919 432.243 59.3798C432.508 59.5714 432.736 59.7656 432.93 59.9623C433.123 60.159 433.259 60.3927 433.336 60.6634C433.426 60.9216 433.425 61.2534 433.333 61.659C433.226 62.127 432.985 62.5738 432.61 62.9995C432.245 63.423 431.799 63.7894 431.271 64.0988C430.756 64.3956 430.207 64.6057 429.622 64.7291C429.257 64.8062 428.948 64.8319 428.696 64.806C428.441 64.7905 428.242 64.7484 428.099 64.6796C427.951 64.6317 427.819 64.6002 427.703 64.585C427.6 64.5573 427.491 64.5555 427.377 64.5798C427.272 64.6018 427.171 64.6777 427.071 64.8076C426.975 64.927 426.889 65.0639 426.814 65.2183L426.501 65.2844C426.597 64.9472 426.706 64.5383 426.825 64.0578C426.945 63.5772 427.095 62.9417 427.275 62.1513L427.588 62.0852C427.525 62.6232 427.533 63.0866 427.614 63.4755C427.704 63.8622 427.862 64.1506 428.087 64.3407C428.324 64.5182 428.631 64.5672 429.007 64.4879C429.174 64.4526 429.332 64.3895 429.482 64.2984C429.632 64.2074 429.763 64.0906 429.875 63.9482C429.987 63.8058 430.065 63.6358 430.111 63.4382C430.215 62.9806 430.162 62.6256 429.951 62.3731C429.751 62.1184 429.485 61.848 429.153 61.5617C428.906 61.3367 428.673 61.1187 428.453 60.9078C428.245 60.6844 428.09 60.4301 427.986 60.1452C427.884 59.8499 427.88 59.4995 427.972 59.0939C428.079 58.6259 428.306 58.1969 428.653 57.8068C429.011 57.4145 429.435 57.0826 429.924 56.811C430.415 56.529 430.917 56.3341 431.428 56.2261Z" fill="white"/>
<path d="M467.875 49.2562L468.141 49.2C468.326 49.9132 468.626 50.4487 469.041 50.8065C469.467 51.162 470.025 51.3708 470.716 51.4327C469.925 51.8076 469.211 52.2852 468.572 52.8656C467.943 53.4437 467.356 54.1666 466.81 55.0341L466.544 55.0903C467.09 54.2228 467.639 53.5129 468.192 52.9605C468.748 52.3978 469.365 51.9359 470.043 51.5748C469.472 51.4679 469.014 51.233 468.669 50.8702C468.325 50.5074 468.06 49.9694 467.875 49.2562ZM473.699 48.0263L473.965 47.9701C474.15 48.6833 474.45 49.2188 474.865 49.5766C475.29 49.9322 475.849 50.1409 476.54 50.2028C475.749 50.5777 475.034 51.0553 474.395 51.6357C473.767 52.2139 473.179 52.9367 472.634 53.8042L472.368 53.8605C473.035 52.8089 473.481 51.7892 473.706 50.8012C473.932 49.8133 473.929 48.8883 473.699 48.0263ZM471.574 51.1327L473.891 50.6434L473.834 50.893L471.518 51.3823L471.574 51.1327ZM469.284 48.9586L469.55 48.9024C469.735 49.6156 470.035 50.1511 470.45 50.5089C470.876 50.8645 471.434 51.0732 472.125 51.1351C471.334 51.51 470.62 51.9876 469.98 52.568C469.352 53.1462 468.765 53.869 468.219 54.7365L467.953 54.7928C468.499 53.9252 469.048 53.2153 469.601 52.663C470.157 52.1002 470.774 51.6383 471.452 51.2773C470.88 51.1704 470.422 50.9355 470.078 50.5727C469.734 50.2099 469.469 49.6718 469.284 48.9586Z" fill="white"/>
<path d="M482.644 44.9792C483.385 44.8227 483.998 44.8565 484.483 45.0807C484.981 45.2922 485.322 45.6706 485.506 46.2159C485.689 46.7611 485.686 47.4497 485.496 48.2817C485.306 49.1137 484.969 49.8977 484.483 50.6338C483.999 51.3595 483.416 51.9775 482.734 52.4879C482.064 52.9858 481.332 53.3184 480.539 53.4859C479.819 53.638 479.21 53.6083 478.712 53.3967C478.216 53.1747 477.871 52.7922 477.677 52.2492C477.496 51.6935 477.5 50.9997 477.69 50.1678C477.878 49.3462 478.208 48.5737 478.681 47.8502C479.164 47.1245 479.747 46.5064 480.43 45.996C481.113 45.4856 481.851 45.1467 482.644 44.9792ZM482.439 45.2897C481.771 45.4307 481.137 45.9011 480.537 46.7009C479.948 47.4984 479.509 48.5315 479.219 49.8003C479.006 50.7362 478.943 51.4671 479.032 51.9928C479.123 52.508 479.322 52.8571 479.628 53.04C479.944 53.2206 480.316 53.2657 480.744 53.1754C481.423 53.0321 482.056 52.5617 482.646 51.7642C483.237 50.9563 483.678 49.9179 483.967 48.6492C484.181 47.7132 484.242 46.9876 484.151 46.4723C484.062 45.9466 483.864 45.5976 483.555 45.4251C483.249 45.2423 482.877 45.1971 482.439 45.2897Z" fill="white"/>
<path d="M492.61 42.8745L492.58 43.2669L486.764 50.4044L486.806 50.1581L491.596 49.1464C492.024 49.0561 492.308 48.9416 492.449 48.8029C492.593 48.6539 492.718 48.4294 492.826 48.1294L493.093 48.0732C492.976 48.5827 492.893 48.9716 492.841 49.2398C492.79 49.508 492.749 49.7543 492.717 49.9786C492.649 49.9733 492.532 49.9882 492.365 50.0235C492.21 50.0462 492.025 50.0754 491.808 50.1113C491.591 50.1472 491.363 50.1905 491.123 50.2412C490.883 50.2919 490.643 50.3426 490.403 50.3933L485.832 51.3586L485.906 51.031L492.61 42.8745ZM492.86 42.8216L490.476 53.2731L489.224 53.5376L491.23 44.7396L492.61 42.8745L492.86 42.8216Z" fill="white"/>
<path d="M500.985 38.2401L494.108 50.6204L493.591 50.7295L500.468 38.3492L500.985 38.2401Z" fill="white"/>
<path d="M504.003 40.4685C504.441 40.3759 504.811 40.3671 505.111 40.4422C505.425 40.5047 505.645 40.6513 505.771 40.882C505.91 41.1001 505.937 41.3963 505.851 41.7707C505.759 42.1763 505.559 42.5749 505.251 42.9666C504.956 43.3457 504.602 43.6975 504.19 44.022C503.781 44.3361 503.361 44.6078 502.932 44.8372C503.42 44.744 503.863 44.7395 504.261 44.8237C504.661 44.8976 504.963 45.0763 505.167 45.36C505.37 45.6437 505.41 46.0559 505.287 46.5967C505.178 47.075 504.962 47.5413 504.64 47.9953C504.331 48.4368 503.942 48.8554 503.474 49.2511C503.015 49.6551 502.509 50.0191 501.959 50.3433C501.406 50.6779 500.839 50.9608 500.26 51.192C499.691 51.421 499.141 51.5917 498.609 51.7041L498.673 51.4233C499.207 51.3005 499.749 51.1019 500.299 50.8275C500.846 50.5635 501.357 50.2378 501.833 49.8502C502.319 49.4605 502.733 49.0167 503.075 48.5188C503.428 48.0187 503.669 47.4827 503.8 46.9107C503.94 46.2972 503.903 45.8247 503.691 45.4935C503.491 45.1496 503.14 45.0109 502.638 45.0773C502.468 45.1727 502.314 45.2597 502.177 45.3381C502.052 45.404 501.943 45.4468 501.849 45.4666C501.766 45.4843 501.707 45.4819 501.672 45.4595C501.64 45.4267 501.631 45.3791 501.645 45.3167C501.666 45.2232 501.725 45.1415 501.82 45.0719C501.915 45.0023 502.015 44.9564 502.12 44.9344C502.203 44.9168 502.284 44.9095 502.363 44.9127C502.455 44.9033 502.551 44.8927 502.653 44.8811C503.155 44.4683 503.543 44.0497 503.819 43.6253C504.097 43.1904 504.281 42.7754 504.371 42.3802C504.483 41.8915 504.438 41.5643 504.237 41.3988C504.05 41.2207 503.747 41.1758 503.33 41.2639C502.902 41.3543 502.479 41.5524 502.061 41.8584C501.654 42.1621 501.278 42.5733 500.931 43.092L500.693 43.0234C500.928 42.6471 501.204 42.287 501.521 41.9429C501.84 41.5884 502.202 41.2842 502.608 41.0303C503.026 40.7637 503.491 40.5765 504.003 40.4685Z" fill="white"/>
<path d="M511.332 38.9207C512.052 38.7686 512.582 38.8201 512.921 39.0751C513.273 39.3175 513.376 39.7559 513.232 40.3903C513.137 40.8063 512.947 41.2224 512.664 41.6386C512.393 42.0423 512.062 42.4488 511.67 42.8581C511.281 43.257 510.873 43.6551 510.444 44.0524C510.018 44.4393 509.603 44.824 509.198 45.2066C508.795 45.5787 508.443 45.945 508.142 46.3054L511.32 45.6343C511.748 45.544 512.032 45.4295 512.173 45.2908C512.317 45.1418 512.442 44.9173 512.55 44.6173L512.817 44.5611C512.691 45.1122 512.599 45.5375 512.54 45.8369C512.484 46.1259 512.44 46.3878 512.406 46.6225C512.317 46.6216 512.148 46.6423 511.9 46.6848C511.652 46.7273 511.367 46.7775 511.046 46.8355C510.723 46.9038 510.404 46.971 510.091 47.0371L506.428 47.8107L506.488 47.5456C506.88 47.1363 507.339 46.6929 507.865 46.2156C508.393 45.7278 508.913 45.2122 509.425 44.6686C509.949 44.1125 510.408 43.5354 510.803 42.9373C511.21 42.3266 511.488 41.6989 511.635 41.0541C511.77 40.4614 511.726 40.0647 511.504 39.8643C511.294 39.6512 510.944 39.5964 510.454 39.7C510.036 39.7882 509.622 39.9945 509.21 40.319C508.8 40.6332 508.404 41.0633 508.021 41.6094L507.803 41.5219C508.035 41.156 508.315 40.8 508.643 40.4537C508.983 40.0948 509.373 39.7799 509.812 39.5089C510.262 39.2358 510.768 39.0397 511.332 38.9207Z" fill="white"/>
</svg>
