<svg width="743" height="435" viewBox="0 0 743 435" fill="none" xmlns="http://www.w3.org/2000/svg">
<path d="M-42.9629 13.5955C-22.6115 9.69838 -2.27095 5.66169 18.3206 3.20427C44.3979 0.0921589 58.9689 2.0961 58.658 32.2505C58.1646 80.1076 38.6187 125.271 35.8301 172.9C33.5328 212.139 34.025 218.478 79.7677 238.601C161.382 274.505 310.07 302.155 386.84 317.722C499.643 340.596 615.434 363.85 730.076 377.86C742.991 379.438 745.817 386.618 733.676 397.006C724.885 404.527 714.267 408.566 704.057 413.533C699.554 415.724 693.973 417.289 691.293 422.043C689.636 424.981 689.673 429.978 689.002 433.334" stroke="#F0572F" stroke-width="3" stroke-linecap="round"/>
</svg>
