<svg width="1524" height="711" viewBox="0 0 1524 711" fill="none" xmlns="http://www.w3.org/2000/svg">
<path d="M1294.28 145.022C1303.07 145.05 1310 147.711 1315.07 153.004C1320.33 158.102 1322.95 163.876 1322.93 170.325C1322.9 177.556 1320.73 183.901 1316.42 189.359C1312.29 194.623 1306.22 198.903 1298.2 202.199C1291.74 204.719 1284.21 206.65 1275.61 207.99C1267.2 209.331 1257.82 209.985 1247.46 209.952C1241.01 209.931 1233.58 209.614 1225.18 209.001C1216.78 208.387 1207.89 207.675 1198.51 206.863C1189.33 206.052 1180.24 205.338 1171.26 204.723C1162.46 204.109 1154.55 203.79 1147.51 203.768C1140.48 203.745 1134.03 204.115 1128.16 204.878C1122.49 205.642 1117.8 206.897 1114.08 208.644C1121.5 209.645 1127.65 212.694 1132.52 217.791C1137.58 222.693 1140.1 229.151 1140.08 237.163C1140.05 245.567 1137.29 252.594 1131.8 258.244C1126.31 263.698 1119.56 266.413 1111.55 266.387C1103.14 266.36 1096.61 263.505 1091.93 257.823C1087.46 251.945 1085.23 245.293 1085.25 237.867C1085.27 232.59 1086.76 226.927 1089.71 220.878C1092.66 214.634 1098.34 209.473 1106.76 205.396C1111.46 203.065 1116.25 201.42 1121.14 200.458C1126.22 199.497 1130.92 198.926 1135.22 198.744C1139.71 198.563 1143.33 198.477 1146.06 198.486C1158.38 198.526 1170.69 199.054 1183 200.071C1195.31 200.892 1207.22 201.81 1218.75 202.824C1230.28 203.643 1240.83 204.067 1250.41 204.098C1257.25 204.12 1262.92 203.845 1267.41 203.273C1272.11 202.702 1276.31 202.031 1280.03 201.262L1279.14 203.897C1275.63 201.15 1272.42 197.231 1269.5 192.14C1266.59 187.049 1265.14 181.084 1265.16 174.244C1265.19 165.254 1267.95 158.129 1273.44 152.87C1278.93 147.611 1285.87 144.995 1294.28 145.022ZM1181.52 202.997C1181.52 202.997 1183.47 203.199 1187.38 203.602C1191.29 203.81 1196.08 204.119 1201.74 204.528C1207.61 204.938 1213.37 205.347 1219.04 205.756C1224.9 206.166 1229.78 206.572 1233.69 206.976C1237.6 207.184 1239.55 207.288 1239.55 207.288L1195.93 370.435C1194.15 377.269 1193.55 382.642 1194.12 386.552C1194.7 390.463 1196.84 393.304 1200.55 395.075C1204.45 396.846 1210.21 398.037 1217.83 398.648L1216.64 404.507C1209.8 404.094 1200.81 403.87 1189.67 403.834C1178.73 403.604 1167.29 403.469 1155.37 403.431C1144.04 403.395 1133.19 403.457 1122.83 403.62C1112.47 403.586 1104.17 403.755 1097.91 404.126L1099.1 398.267C1107.31 397.902 1113.77 396.946 1118.46 395.397C1123.35 393.654 1127.07 390.832 1129.63 386.932C1132.38 382.836 1134.64 377.274 1136.42 370.244L1181.52 202.997Z" fill="white"/>
<path d="M1209.67 172.807L1196.52 404.023L1216.89 404.653L1260.96 257.823L1333.87 170.325L1303.1 140.212L1273.44 148.625L1246.05 178.031L1209.67 172.807Z" fill="#3A001E"/>
<path d="M1064.03 279.541C1057.92 279.521 1051.98 282.377 1046.21 288.109C1040.62 293.661 1035.57 301.102 1031.05 310.431C1026.71 319.761 1023.26 330.082 1020.71 341.395C1018.15 352.527 1016.86 363.664 1016.83 374.804C1016.79 385.765 1018.11 393.496 1020.79 397.997C1023.65 402.499 1027.96 404.759 1033.71 404.777C1038.92 404.794 1044.14 403.193 1049.36 399.976C1054.76 396.579 1060.08 391.026 1065.31 383.316L1070.7 385.489C1066.9 391.587 1062.03 397.411 1056.09 402.962C1050.32 408.334 1043.57 412.805 1035.83 416.374C1028.27 419.764 1019.64 421.443 1009.94 421.412C997.718 421.373 987.846 417.927 980.321 411.074C972.797 404.042 969.059 392.89 969.108 377.616C969.138 368.452 970.515 359.113 973.241 349.598C976.148 339.904 980.221 330.573 985.46 321.605C990.7 312.638 997.015 304.572 1004.41 297.408C1011.8 290.244 1019.99 284.61 1028.99 280.507C1038.17 276.223 1048.06 274.099 1058.66 274.133C1071.23 274.173 1080.48 276.988 1086.39 282.578C1092.3 288.167 1095.25 294.825 1095.22 302.551C1095.2 308.122 1093.75 313.598 1090.86 318.979C1087.96 324.36 1084.09 328.84 1079.22 332.418C1074.54 335.817 1069.41 337.508 1063.84 337.49C1058.99 337.475 1054.68 335.933 1050.92 332.867C1047.16 329.62 1045.29 324.673 1045.31 318.024C1045.33 310.118 1048.05 302.849 1053.46 296.218C1058.88 289.587 1065.36 285.116 1072.91 282.804C1071.66 281.722 1070.31 280.909 1068.88 280.365C1067.44 279.821 1065.83 279.547 1064.03 279.541Z" fill="white"/>
<path fill-rule="evenodd" clip-rule="evenodd" d="M1210.64 155.826L980.778 142.756L959.224 521.806L1189.08 534.877L1210.64 155.826ZM1199.16 185.617L986.241 173.51L970.46 451.035L1183.38 463.142L1199.16 185.617Z" fill="white"/>
<path fill-rule="evenodd" clip-rule="evenodd" d="M743.785 53.7466L430.138 222.973L618.275 571.671L931.923 402.444L743.785 53.7466ZM737.592 88.2344L463.752 235.983L595.015 479.268L868.855 331.52L737.592 88.2344Z" fill="white"/>
<path d="M650.055 300.708C640.903 305.646 631.9 308.766 623.046 310.068C614.253 311.163 606.252 310.18 599.041 307.121C591.829 304.061 586.082 298.561 581.797 290.62C577.15 282.007 575.356 272.723 576.414 262.769C577.4 252.68 580.747 242.621 586.456 232.59C592.092 222.425 599.562 212.921 608.866 204.079C618.232 195.029 628.904 187.273 640.881 180.81C653.532 173.985 665.745 169.567 677.519 167.559C689.294 165.55 699.641 166.049 708.561 169.055C717.616 171.989 724.321 177.493 728.678 185.568C732.382 192.432 734.253 200.892 734.292 210.949C734.259 220.872 732.818 231.727 729.97 243.516C727.048 255.17 723.009 267.167 717.851 279.507C712.693 291.847 706.779 304.073 700.109 316.186C693.5 328.092 686.456 339.191 678.977 349.482C671.704 359.835 664.286 368.79 656.721 376.346C649.229 384.038 642.118 389.699 635.389 393.329C629.198 396.67 623.425 398.047 618.07 397.461C612.715 396.875 608.403 393.554 605.136 387.498C602.449 382.518 601.435 377.418 602.093 372.197C602.679 366.842 604.643 361.786 607.984 357.03C611.46 352.2 616.092 348.224 621.879 345.102C629.012 341.253 636.845 339.025 645.379 338.417C653.975 337.602 662.903 337.564 672.163 338.302C681.557 338.967 690.884 339.669 700.144 340.407C709.539 341.072 718.534 340.997 727.13 340.182C735.798 339.502 743.632 337.274 750.63 333.498C755.879 330.666 759.615 327.607 761.839 324.322C764.198 320.964 765.598 317.602 766.041 314.236C766.556 311.004 766.709 308.228 766.5 305.908C765.374 309.296 763.554 312.363 761.039 315.11C758.732 317.919 756.031 320.158 752.935 321.828C747.552 324.733 742.074 325.69 736.501 324.701C731.062 323.638 726.782 320.214 723.659 314.427C720.464 308.505 719.936 302.535 722.075 296.515C724.214 290.496 728.581 285.707 735.175 282.149C741.097 278.954 746.984 277.95 752.837 279.136C758.69 280.322 763.468 284.347 767.171 291.211C770.076 296.594 771.635 302.704 771.847 309.539C772.06 316.375 770.704 323.362 767.779 330.5C765.061 337.701 760.795 344.608 754.979 351.22C749.164 357.833 741.613 363.645 732.327 368.655C723.983 373.157 715.933 376.11 708.176 377.515C700.493 379.054 693.119 379.558 686.055 379.025C678.991 378.492 672.221 377.54 665.747 376.168C659.345 374.93 653.218 373.719 647.365 372.532C641.647 371.274 636.292 370.688 631.3 370.775C626.235 370.727 621.482 371.902 617.041 374.298C613.676 376.113 611.482 378.166 610.459 380.456C609.57 382.673 609.779 384.993 611.086 387.415C612.901 390.78 615.834 392.672 619.884 393.094C624.141 393.577 629.096 392.294 634.748 389.244C639.324 386.775 644.267 382.892 649.575 377.595C654.957 372.433 660.25 366.623 665.454 360.166C670.731 353.844 675.464 347.641 679.654 341.558C684.826 334.076 689.17 326.346 692.684 318.368C696.261 310.182 698.942 301.786 700.726 293.177C702.511 284.569 703.234 275.925 702.895 267.246C702.691 258.495 701.389 249.64 698.989 240.683C696.589 231.726 693.029 222.874 688.309 214.126C681.048 200.668 673.101 191.576 664.47 186.85C655.838 182.124 647.014 182.193 637.997 187.058C631.268 190.689 626.161 195.877 622.676 202.622C619.326 209.295 617.406 216.847 616.916 225.278C616.488 233.502 617.297 241.927 619.345 250.553C621.393 259.179 624.45 267.26 628.516 274.797C630.84 279.104 633.416 282.752 636.246 285.743C639.138 288.527 642.439 290.135 646.147 290.566C649.99 290.926 654.535 289.689 659.784 286.858C665.033 284.026 669.37 280.469 672.794 276.189C676.219 271.909 678.675 267.282 680.162 262.309C681.784 257.264 682.313 252.287 681.75 247.378C681.479 245.266 681.073 243.225 680.533 241.258C679.92 239.156 679.209 237.194 678.4 235.372C679.824 241.554 678.994 246.78 675.911 251.049C672.963 255.247 669.739 258.289 666.24 260.177C660.857 263.082 655.606 263.656 650.488 261.899C645.298 260.008 641.25 256.371 638.346 250.988C634.788 244.393 634.067 237.744 636.185 231.042C638.303 224.339 642.457 219.317 648.648 215.977C654.839 212.637 660.814 212.28 666.575 214.905C672.398 217.324 677.27 222.167 681.191 229.435C685.766 237.913 687.471 246.55 686.308 255.344C685.145 264.138 681.403 272.5 675.082 280.428C668.895 288.284 660.552 295.044 650.055 300.708Z" fill="white"/>
<path fill-rule="evenodd" clip-rule="evenodd" d="M348.542 308.14L60.2178 354.176L117.035 710.023L405.359 663.987L348.542 308.14ZM334.815 335.578L83.0841 375.771L122.725 624.044L374.456 583.851L334.815 335.578Z" fill="white"/>
<path d="M226.963 368.37L320.928 529.372C324.491 535.196 327.959 539.25 331.332 541.532C334.675 543.63 337.554 544.581 339.967 544.384L340.845 549.885C334.185 550.572 326.455 551.618 317.653 553.023C308.823 554.245 299.823 555.588 290.655 557.052C281.303 558.545 272.516 560.042 264.294 561.543C256.043 562.861 249.471 564.098 244.579 565.255L243.7 559.754C252.993 557.894 258.612 555.399 260.557 552.268C262.656 548.924 261.125 542.869 255.964 534.103L192.502 419.284L196.466 408.779L174.275 513.581C171.594 526.232 170.289 536.312 170.36 543.823C170.585 551.12 171.922 556.548 174.37 560.106C176.819 563.664 180.177 565.854 184.445 566.677C188.713 567.5 193.613 567.564 199.143 566.869L200.021 572.37C193.178 573.086 187.006 573.884 181.505 574.762C176.158 575.428 170.276 576.273 163.858 577.298C160.374 577.854 156.63 578.546 152.625 579.373C148.775 579.988 145.503 580.698 142.811 581.504L141.933 576.003C146.033 574.596 149.735 571.279 153.037 566.051C156.493 560.61 159.514 551.854 162.099 539.783L198.084 372.981C202.543 372.646 207.34 372.068 212.474 371.248C217.791 370.399 222.621 369.44 226.963 368.37ZM255.035 482.353L255.913 487.854L173.949 500.941L175.821 495.001L255.035 482.353Z" fill="white"/>
<path d="M1138.4 213.943C1120 202.876 1096.9 187.696 1075.39 202.115C1067.11 207.668 1060.02 219.453 1059.7 229.523C1058.98 251.772 1077.01 268.806 1096.34 275.828C1110.56 280.998 1125.05 282.223 1138.92 275.107C1151.46 268.671 1155.32 259.762 1156.06 246.371C1156.69 234.809 1153.15 225.99 1148.01 216.107C1144.09 208.584 1139.2 204.336 1133.73 198.364" stroke="#F0572F" stroke-width="3" stroke-linecap="round"/>
<path d="M683.434 333.461C660.35 327.359 638.126 319.846 614.253 327.014C599.018 331.588 583.922 342.674 574.151 355.191C567.155 364.153 563.648 375.507 565.13 386.809C566.889 400.221 575.436 414.676 587.572 421.41C609.554 433.605 635.588 424.898 655.312 412.828C676.36 399.947 695.18 380.363 694.408 353.956C693.937 337.85 683.234 323.344 669.519 316.063" stroke="#F0572F" stroke-width="3" stroke-linecap="round"/>
<path d="M130.571 571.707C134.068 565.969 134.679 564.492 140.574 558.561C152.106 546.957 168.87 530.514 187.257 533.921C198.149 535.94 203.397 544.666 206.453 554.206C211.243 569.16 206.848 585.566 194.816 595.951C187.005 602.693 173.331 607.822 163.014 607.557C144.374 607.079 129.72 594.79 126.462 576.505C123.058 557.396 132.352 540.194 143.187 525.559" stroke="#F0572F" stroke-width="3" stroke-linecap="round"/>
<path d="M1.61035 354.249C129.486 368.902 262.78 353.492 375.463 288.67C432.791 255.692 433.838 247.853 487.851 208.95C547.166 166.229 568.265 153.246 635.344 119.601C664.981 104.736 724.328 76.6545 761.018 67.6734C788.699 60.8978 794.407 64.9191 819.528 74.3777C854.743 87.6366 888.855 103.802 923.139 119.235C997.034 152.5 1099.16 157.444 1179.44 171.54C1288.32 190.658 1380.87 227.223 1490.68 203.587C1505.09 200.486 1519.64 195.883 1522.13 180.914" stroke="white" stroke-width="3" stroke-linecap="round"/>
<path d="M1102.94 72.5984L1093.54 72.5984L1085.79 85.0983L1079.83 67.2981L1058.67 147.204L1068.85 148.197L1082.2 163.964L1102.94 72.5984Z" fill="#F0572F"/>
<path d="M795.714 4.27884L802.48 11.0444L806.228 7.29697L816.102 17.1711L763.46 99.4355L752.183 91.3297L745.6 84.7469L795.714 4.27884Z" fill="#F0572F"/>
<path d="M503.797 136.405L495.377 140.948L493.13 136.784L480.841 143.415L502.846 228.312L515.858 223.566L524.051 219.145L503.797 136.405Z" fill="#F0572F"/>
<path d="M267.988 225.722L277.436 224.213L276.367 217.52L290.157 215.318L330.077 332.489L316.995 337.481L307.802 338.949L267.988 225.722Z" fill="#F0572F"/>
<path d="M138.762 265.148L129.314 266.657L128.245 259.964L114.456 262.166L113.007 385.941L126.993 386.612L136.186 385.144L138.762 265.148Z" fill="#F0572F"/>
</svg>
