<svg width="238" height="718" viewBox="0 0 238 718" fill="none" xmlns="http://www.w3.org/2000/svg">
<rect x="-199.504" y="0.274536" width="515.861" height="515.861" transform="rotate(32.0292 -199.504 0.274536)" fill="white"/>
<rect x="-93.7721" y="97.4053" width="329.555" height="525.271" transform="rotate(30 -93.7721 97.4053)" fill="white" stroke="black"/>
<path d="M13.9717 330.072C15.547 331.055 17.6212 332.327 20.1942 333.886C22.8226 335.478 25.4671 337.041 28.1275 338.577C30.8988 340.177 33.5752 341.686 36.1568 343.102C38.7384 344.519 40.5557 345.531 41.6088 346.139C47.2622 349.403 51.6139 352.618 54.664 355.783C57.7695 358.98 59.6128 362.187 60.1939 365.405C60.8069 368.567 60.1694 371.783 58.2814 375.053C57.0974 377.104 55.5298 378.859 53.5784 380.319C51.627 381.779 49.1896 382.737 46.2663 383.192C43.375 383.592 39.9114 383.255 35.8756 382.181C31.9272 381.084 27.2926 378.999 21.9717 375.927L13.9904 371.319L14.9504 369.657L22.1003 373.785C24.927 375.417 27.4129 376.039 29.558 375.652C31.7905 375.241 33.7482 374.154 35.431 372.391C37.2013 370.605 38.8224 368.437 40.2944 365.888C42.8224 361.509 44.1647 357.776 44.3213 354.689C44.5654 351.578 43.2186 349.175 40.2811 347.479C38.3966 346.391 36.9052 346.158 35.807 346.78C34.7087 347.402 33.3276 349.154 31.6636 352.037L7.85561 393.273C6.70361 395.269 5.97817 396.845 5.6793 398.003C5.43586 399.192 5.63383 400.193 6.27321 401.006C6.9126 401.819 8.03166 402.76 9.63043 403.831L8.67044 405.494C7.12709 404.455 5.08063 403.2 2.53106 401.728C0.0689048 400.232 -2.46468 398.732 -5.06968 397.228C-8.06267 395.5 -10.9054 393.896 -13.5978 392.416C-16.2028 390.912 -18.341 389.751 -20.0123 388.934L-19.0523 387.271C-17.2701 388.152 -15.8673 388.667 -14.844 388.814C-13.8206 388.961 -12.8823 388.616 -12.0292 387.779C-11.1761 386.941 -10.1735 385.525 -9.0215 383.529L14.7865 342.293C15.9705 340.242 16.6959 338.665 16.9628 337.563C17.2617 336.405 17.0637 335.404 16.3689 334.56C15.7615 333.692 14.6424 332.75 13.0117 331.735L13.9717 330.072ZM14.3076 369.618C16.2709 370.825 18.0914 372.024 19.769 373.215C21.4466 374.405 22.9857 375.515 24.3862 376.545C25.8187 377.52 27.0455 378.339 28.0666 379.003C33.8371 382.704 37.6791 386.289 39.5927 389.759C41.5617 393.261 41.8867 396.922 40.5678 400.742L37.3218 410.396C36.5812 412.703 36.264 414.404 36.3702 415.5C36.4765 416.596 37.0007 417.416 37.943 417.96C38.4972 418.28 39.0164 418.469 39.5003 418.527C39.9843 418.585 40.5323 418.532 41.1443 418.368L41.6011 420.072C38.8909 420.799 36.3344 420.874 33.9317 420.3C31.5523 419.813 29.0879 418.834 26.5383 417.362C22.9356 415.282 20.3938 412.964 18.9128 410.41C17.4638 407.799 17.4658 404.66 18.919 400.991L22.4719 391.957C23.4514 389.493 24.2037 387.23 24.7288 385.168C25.254 383.106 25.3889 381.337 25.1335 379.859C24.9101 378.326 24.0779 377.143 22.6368 376.311L13.6579 371.127L14.3076 369.618Z" fill="black"/>
<path d="M9.2853 327.366L8.3253 329.029C6.63053 328.124 5.22774 327.61 4.11693 327.486C3.09354 327.339 2.15529 327.684 1.30216 328.521C0.481031 329.304 -0.521526 330.72 -1.70553 332.771L-25.5135 374.008C-26.6655 376.003 -27.391 377.579 -27.6898 378.737C-27.9333 379.927 -27.7353 380.928 -27.0959 381.74C-26.4565 382.553 -25.3375 383.495 -23.7387 384.565L-24.6987 386.228C-26.2421 385.189 -28.2885 383.934 -30.8381 382.462C-33.3002 380.967 -35.8338 379.467 -38.4388 377.963C-41.4318 376.235 -44.2745 374.631 -46.9669 373.15C-49.572 371.646 -51.7101 370.485 -53.3815 369.668L-52.4215 368.005C-50.6393 368.887 -49.2365 369.401 -48.2131 369.548C-47.1897 369.696 -46.2515 369.351 -45.3983 368.513C-44.5452 367.675 -43.5426 366.259 -42.3906 364.264L-18.5826 323.027C-17.3986 320.976 -16.6732 319.4 -16.4063 318.297C-16.1075 317.14 -16.3054 316.139 -17.0002 315.294C-17.6076 314.426 -18.7267 313.484 -20.3575 312.469L-19.3975 310.806C-17.8221 311.79 -15.748 313.061 -13.1749 314.62C-10.5465 316.212 -7.7358 317.872 -4.74282 319.6C-2.13781 321.104 0.427763 322.548 2.95391 323.932C5.53549 325.349 7.64595 326.494 9.2853 327.366Z" fill="black"/>
<path d="M96.3696 287.577L95.4096 289.24C93.4931 288.208 91.9241 287.597 90.7024 287.409C89.5682 287.198 88.5468 287.495 87.6382 288.301C86.7617 289.051 85.7314 290.451 84.5474 292.502L59.7794 335.402C58.9154 336.898 58.3703 338.098 58.144 339.002C57.9497 339.851 58.0773 340.59 58.527 341.219C59.0087 341.792 59.8315 342.415 60.9955 343.087L63.739 344.671C65.1801 345.503 67.052 345.845 69.3548 345.697C71.6575 345.548 74.1449 344.952 76.8168 343.908C79.5441 342.896 82.1938 341.507 84.7657 339.74C87.3697 337.918 89.6891 335.821 91.7239 333.448L93.6361 334.552C92.3178 336.451 90.7627 338.953 88.9707 342.057C88.1387 343.498 86.9504 345.62 85.4058 348.423C83.8932 351.171 82.4275 354.094 81.0086 357.191C78.2459 355.449 75.0909 353.553 71.5437 351.505C68.0285 349.402 64.8852 347.55 62.1139 345.95C60.6174 345.086 58.7052 343.982 56.3774 342.638C54.1049 341.326 51.5948 339.914 48.8469 338.401C46.1865 336.865 43.4546 335.325 40.6513 333.78C37.9355 332.212 35.3422 330.752 32.8715 329.399L33.8315 327.737C35.6137 328.618 37.0165 329.132 38.0398 329.28C39.0632 329.427 40.0015 329.082 40.8546 328.244C41.7077 327.407 42.7103 325.99 43.8623 323.995L67.6703 282.758C68.8543 280.707 69.5797 279.131 69.8466 278.029C70.1455 276.871 69.9475 275.87 69.2527 275.025C68.6453 274.157 67.5262 273.216 65.8955 272.2L66.8555 270.537C68.4308 271.521 70.505 272.792 73.078 274.352C75.7064 275.943 78.5171 277.603 81.5101 279.331C84.2814 280.931 87.0132 282.471 89.7057 283.952C92.3981 285.432 94.6194 286.641 96.3696 287.577Z" fill="black"/>
<path d="M44.3266 257.531L43.3666 259.193C41.4502 258.161 39.8811 257.55 38.6594 257.362C37.5252 257.151 36.5038 257.448 35.5953 258.254C34.7187 259.004 33.6884 260.405 32.5044 262.455L7.73643 305.355C6.87243 306.851 6.32728 308.051 6.10099 308.955C5.90669 309.804 6.03437 310.543 6.48405 311.172C6.96574 311.746 7.78855 312.368 8.95249 313.04L11.6961 314.624C13.1371 315.456 15.009 315.798 17.3118 315.65C19.6146 315.501 22.1019 314.905 24.7738 313.861C27.5012 312.849 30.1508 311.46 32.7228 309.693C35.3267 307.871 37.6461 305.774 39.6809 303.401L41.5931 304.505C40.2748 306.405 38.7197 308.906 36.9277 312.01C36.0957 313.451 34.9074 315.573 33.3628 318.376C31.8502 321.124 30.3845 324.047 28.9657 327.145C26.2029 325.402 23.048 323.506 19.5007 321.458C15.9855 319.355 12.8422 317.503 10.0709 315.903C8.57445 315.039 6.66227 313.935 4.3344 312.591C2.06195 311.279 -0.448203 309.867 -3.19606 308.354C-5.85649 306.818 -8.58835 305.278 -11.3916 303.733C-14.1075 302.165 -16.7008 300.705 -19.1715 299.353L-18.2115 297.69C-16.4293 298.571 -15.0265 299.085 -14.0031 299.233C-12.9797 299.38 -12.0415 299.035 -11.1884 298.197C-10.3352 297.36 -9.33268 295.943 -8.18068 293.948L15.6273 252.711C16.8113 250.661 17.5368 249.084 17.8036 247.982C18.1025 246.824 17.9045 245.823 17.2097 244.978C16.6023 244.11 15.4833 243.169 13.8525 242.153L14.8125 240.491C16.3878 241.474 18.462 242.745 21.035 244.305C23.6634 245.896 26.4742 247.556 29.4671 249.284C32.2384 250.884 34.9703 252.424 37.6627 253.905C40.3551 255.385 42.5765 256.594 44.3266 257.531Z" fill="black"/>
<path d="M-10.3662 225.954L-20.1987 289.448C-20.5107 291.781 -20.4633 293.618 -20.0565 294.962C-19.6177 296.25 -19.054 297.129 -18.3655 297.601L-19.3255 299.264C-21.2568 298.001 -23.5527 296.601 -26.2131 295.065C-28.8416 293.474 -31.5414 291.878 -34.3127 290.278C-37.1394 288.646 -39.8158 287.138 -42.342 285.753C-44.8361 284.313 -46.8635 283.217 -48.424 282.464L-47.464 280.801C-44.5732 282.322 -42.5276 282.875 -41.3271 282.46C-40.0391 282.021 -39.1334 280.068 -38.6099 276.601L-30.6481 232.091L-27.3053 230.141L-56.0104 253.364C-59.476 256.166 -62.0151 258.58 -63.6277 260.605C-65.1528 262.607 -65.9743 264.35 -66.092 265.834C-66.2098 267.318 -65.7869 268.633 -64.8236 269.781C-63.8602 270.928 -62.5631 272.009 -60.9324 273.025L-61.8924 274.688C-63.8791 273.393 -65.7039 272.265 -67.3667 271.305C-68.942 270.322 -70.6996 269.27 -72.6395 268.15C-73.6926 267.542 -74.8448 266.914 -76.0962 266.265C-77.2601 265.593 -78.2898 265.073 -79.1852 264.704L-78.2252 263.041C-76.8224 263.555 -75.1113 263.472 -73.0919 262.79C-70.9852 262.085 -68.2747 260.398 -64.9604 257.73L-19.0957 220.914C-17.8295 221.793 -16.4204 222.68 -14.8685 223.576C-13.2612 224.504 -11.7604 225.297 -10.3662 225.954ZM-27.6163 262.552L-28.5763 264.215L-53.3516 249.911L-51.5602 248.728L-27.6163 262.552Z" fill="black"/>
<path d="M-156.257 345.697C-156.536 346.075 -156.797 346.448 -157.041 346.815C-157.272 347.19 -157.445 347.475 -157.558 347.671C-157.678 347.879 -157.789 348.085 -157.891 348.287C-157.986 348.479 -158.064 348.641 -158.126 348.775L-158.524 348.545C-158.2 347.824 -157.988 347.23 -157.889 346.764C-157.782 346.287 -157.838 345.877 -158.057 345.536C-158.257 345.189 -158.663 344.839 -159.275 344.486L-160.713 343.656C-161.105 343.429 -161.426 343.29 -161.674 343.24C-161.903 343.184 -162.113 343.24 -162.302 343.408C-162.484 343.564 -162.699 343.856 -162.946 344.283L-167.906 352.874C-168.146 353.29 -168.291 353.622 -168.342 353.87C-168.393 354.118 -168.34 354.333 -168.184 354.515C-168.009 354.693 -167.725 354.895 -167.333 355.122L-166.068 355.852C-165.341 356.272 -164.736 356.491 -164.253 356.508C-163.759 356.531 -163.304 356.37 -162.889 356.025C-162.456 355.675 -161.979 355.142 -161.458 354.426L-161.06 354.656C-161.274 354.948 -161.531 355.354 -161.831 355.873C-161.958 356.093 -162.136 356.414 -162.364 356.836C-162.574 357.253 -162.783 357.695 -162.99 358.16C-163.566 357.797 -164.223 357.402 -164.962 356.976C-165.694 356.538 -166.349 356.152 -166.927 355.818C-167.181 355.672 -167.51 355.482 -167.914 355.248C-168.306 355.022 -168.737 354.781 -169.206 354.526C-169.667 354.259 -170.138 353.995 -170.619 353.733C-171.092 353.46 -171.546 353.205 -171.98 352.97L-171.78 352.624C-171.374 352.828 -171.053 352.951 -170.816 352.995C-170.568 353.046 -170.35 352.988 -170.161 352.82C-169.971 352.652 -169.757 352.36 -169.517 351.944L-164.557 343.353C-164.31 342.926 -164.165 342.594 -164.121 342.358C-164.07 342.11 -164.128 341.892 -164.296 341.702C-164.446 341.508 -164.714 341.292 -165.1 341.054L-164.9 340.707C-164.479 340.966 -164.035 341.237 -163.569 341.522C-163.095 341.795 -162.631 342.071 -162.176 342.349C-161.714 342.616 -161.286 342.863 -160.894 343.089C-160.49 343.323 -160.161 343.513 -159.907 343.659C-159.375 343.966 -158.775 344.313 -158.105 344.699C-157.417 345.081 -156.801 345.414 -156.257 345.697ZM-162.656 349.901C-162.656 349.901 -162.689 349.959 -162.756 350.074C-162.822 350.19 -162.856 350.247 -162.856 350.247L-166.025 348.417C-166.025 348.417 -165.992 348.36 -165.925 348.244C-165.859 348.129 -165.825 348.071 -165.825 348.071L-162.656 349.901ZM-160.833 347.905C-161.26 348.536 -161.573 349.025 -161.773 349.372C-161.961 349.725 -162.139 350.046 -162.305 350.334C-162.472 350.623 -162.65 350.944 -162.838 351.297C-163.027 351.65 -163.288 352.169 -163.622 352.854L-164.02 352.624C-163.853 352.228 -163.704 351.836 -163.573 351.45C-163.424 351.059 -163.396 350.69 -163.489 350.344C-163.563 349.993 -163.855 349.671 -164.363 349.377L-164.163 349.031C-163.782 349.251 -163.45 349.343 -163.167 349.306C-162.865 349.264 -162.599 349.149 -162.366 348.96C-162.134 348.771 -161.927 348.559 -161.746 348.325C-161.558 348.079 -161.386 347.863 -161.232 347.675L-160.833 347.905ZM-159.261 360.475C-159.734 360.202 -160.094 359.879 -160.34 359.506C-160.58 359.121 -160.699 358.713 -160.697 358.283C-160.684 357.86 -160.554 357.435 -160.307 357.008C-160.014 356.5 -159.658 356.151 -159.24 355.961C-158.811 355.777 -158.355 355.694 -157.872 355.711C-157.39 355.728 -156.909 355.79 -156.432 355.896C-155.936 355.998 -155.47 356.097 -155.034 356.195C-154.591 356.281 -154.208 356.31 -153.884 356.282C-153.548 356.26 -153.303 356.117 -153.15 355.851L-152.53 354.777C-152.25 354.292 -152.112 353.88 -152.115 353.539C-152.107 353.205 -152.201 352.927 -152.397 352.707C-152.586 352.474 -152.83 352.271 -153.131 352.098C-153.419 351.931 -153.754 351.792 -154.136 351.679C-154.506 351.573 -154.862 351.591 -155.205 351.732C-155.013 351.904 -154.889 352.13 -154.834 352.408C-154.779 352.686 -154.835 352.969 -155.001 353.258C-155.168 353.547 -155.394 353.724 -155.678 353.791C-155.956 353.846 -156.24 353.79 -156.529 353.623C-156.863 353.43 -157.052 353.183 -157.093 352.882C-157.117 352.576 -157.052 352.29 -156.898 352.024C-156.725 351.724 -156.51 351.525 -156.253 351.427C-155.997 351.329 -155.706 351.265 -155.382 351.237C-155.009 351.206 -154.579 351.246 -154.09 351.359C-153.583 351.468 -153.063 351.675 -152.532 351.982C-152.059 352.255 -151.688 352.546 -151.42 352.855C-151.145 353.152 -150.958 353.468 -150.858 353.802C-150.718 354.253 -150.719 354.707 -150.86 355.164C-150.994 355.61 -151.221 356.11 -151.541 356.665L-154.321 361.48C-154.488 361.768 -154.567 362 -154.56 362.173C-154.541 362.354 -154.439 362.497 -154.254 362.604C-154.127 362.677 -153.989 362.718 -153.84 362.727C-153.691 362.736 -153.5 362.724 -153.265 362.69L-153.244 363.094C-153.593 363.139 -153.914 363.162 -154.207 363.162C-154.493 363.151 -154.821 363.039 -155.19 362.825C-155.525 362.632 -155.769 362.414 -155.922 362.172C-156.074 361.93 -156.145 361.666 -156.134 361.38C-156.104 361.089 -155.99 360.77 -155.79 360.424C-156.402 360.763 -157 360.934 -157.586 360.934C-158.16 360.942 -158.718 360.789 -159.261 360.475ZM-158.237 360.143C-157.856 360.363 -157.44 360.456 -156.99 360.423C-156.529 360.397 -156.039 360.242 -155.52 359.956L-153.56 356.561C-153.812 356.678 -154.11 356.728 -154.456 356.714C-154.795 356.687 -155.16 356.653 -155.552 356.612C-155.937 356.559 -156.327 356.542 -156.723 356.56C-157.1 356.573 -157.464 356.67 -157.816 356.852C-158.167 357.035 -158.476 357.356 -158.743 357.818C-159.009 358.28 -159.101 358.72 -159.019 359.137C-158.925 359.561 -158.664 359.896 -158.237 360.143ZM-143.425 353.729L-145.095 356.622L-142.532 358.102L-142.732 358.448L-145.295 356.968L-149.165 363.671C-149.478 364.214 -149.6 364.652 -149.531 364.984C-149.461 365.317 -149.253 365.584 -148.907 365.784C-148.56 365.984 -148.18 366.018 -147.766 365.888C-147.345 365.746 -146.849 365.393 -146.278 364.83L-145.981 365.117C-146.483 365.72 -147.041 366.152 -147.654 366.414C-148.256 366.683 -148.909 366.614 -149.613 366.207C-150.006 365.98 -150.299 365.742 -150.493 365.491C-150.694 365.252 -150.839 364.984 -150.928 364.685C-151.029 364.273 -151.025 363.852 -150.915 363.423C-150.794 363 -150.557 362.483 -150.204 361.871L-146.854 356.068L-148.517 355.108L-148.317 354.762L-146.654 355.722L-145.124 353.072C-144.829 353.227 -144.538 353.364 -144.252 353.483C-143.967 353.601 -143.691 353.683 -143.425 353.729ZM-144.08 366.445C-143.826 366.592 -143.649 366.764 -143.547 366.961C-143.445 367.158 -143.389 367.368 -143.379 367.589C-143.358 367.848 -143.394 368.096 -143.486 368.336C-143.578 368.575 -143.664 368.764 -143.744 368.903C-144.071 369.468 -144.512 369.899 -145.067 370.194C-145.622 370.489 -146.289 370.605 -147.068 370.54L-147.044 370.138C-146.599 370.195 -146.157 370.135 -145.716 369.958C-145.264 369.788 -144.941 369.536 -144.748 369.201C-144.668 369.062 -144.615 368.931 -144.59 368.807C-144.861 368.851 -145.118 368.802 -145.36 368.662C-145.661 368.489 -145.864 368.241 -145.97 367.918C-146.076 367.595 -146.029 367.26 -145.829 366.914C-145.642 366.59 -145.379 366.388 -145.04 366.307C-144.7 366.226 -144.381 366.272 -144.08 366.445ZM-126.037 363.144C-123.971 364.338 -122.735 365.744 -122.33 367.363C-121.919 368.971 -122.27 370.739 -123.383 372.667C-124.11 373.926 -124.995 374.885 -126.038 375.546C-127.063 376.201 -128.193 376.518 -129.429 376.498C-130.664 376.478 -131.945 376.084 -133.273 375.317C-133.447 375.217 -133.674 375.078 -133.956 374.9C-134.238 374.722 -134.535 374.543 -134.847 374.363C-135.14 374.178 -135.414 374.012 -135.668 373.865C-136.072 373.632 -136.474 373.408 -136.873 373.193C-137.266 372.966 -137.59 372.794 -137.846 372.677L-137.646 372.331C-137.24 372.535 -136.919 372.658 -136.683 372.702C-136.435 372.753 -136.216 372.695 -136.027 372.527C-135.838 372.359 -135.623 372.067 -135.383 371.651L-130.423 363.06C-130.176 362.633 -130.031 362.301 -129.987 362.065C-129.936 361.817 -129.995 361.599 -130.163 361.409C-130.312 361.215 -130.58 360.999 -130.966 360.761L-130.766 360.414C-130.53 360.566 -130.223 360.767 -129.843 361.016C-129.457 361.255 -129.071 361.478 -128.683 361.686C-128.272 361.908 -127.809 362.16 -127.295 362.442C-126.78 362.724 -126.361 362.958 -126.037 363.144ZM-126.651 363.206C-127.182 362.9 -127.585 362.798 -127.86 362.901C-128.135 363.004 -128.446 363.355 -128.792 363.956L-133.792 372.616C-134.139 373.217 -134.288 373.662 -134.24 373.951C-134.18 374.247 -133.884 374.549 -133.353 374.856C-132.095 375.582 -130.989 375.92 -130.036 375.87C-129.077 375.808 -128.205 375.419 -127.421 374.701C-126.637 373.983 -125.882 372.995 -125.155 371.737C-124.409 370.443 -123.948 369.285 -123.773 368.262C-123.58 367.235 -123.716 366.309 -124.18 365.487C-124.626 364.66 -125.45 363.9 -126.651 363.206ZM-114.878 373.721C-114.566 373.901 -114.331 374.122 -114.174 374.382C-114.004 374.649 -113.916 374.923 -113.909 375.204C-113.884 375.481 -113.945 375.746 -114.092 376C-114.258 376.288 -114.497 376.489 -114.809 376.602C-115.109 376.721 -115.409 376.694 -115.709 376.521C-115.951 376.381 -116.122 376.183 -116.22 375.926C-116.311 375.657 -116.273 375.379 -116.107 375.09C-115.98 374.871 -115.816 374.719 -115.614 374.636C-115.393 374.548 -115.181 374.501 -114.978 374.495C-114.992 374.333 -115.08 374.205 -115.242 374.112C-115.6 373.905 -115.992 373.825 -116.419 373.871C-116.839 373.905 -117.25 374.03 -117.651 374.245C-118.052 374.46 -118.421 374.724 -118.756 375.039C-119.085 375.342 -119.343 375.655 -119.529 375.978L-121.649 379.65C-121.976 380.216 -122.034 380.69 -121.824 381.073C-121.596 381.451 -121.199 381.804 -120.633 382.13L-120.843 382.494C-121.102 382.329 -121.471 382.101 -121.949 381.809C-122.421 381.506 -122.928 381.198 -123.471 380.885C-123.863 380.658 -124.262 380.443 -124.668 380.239C-125.056 380.031 -125.351 379.876 -125.554 379.774L-125.344 379.41C-124.871 379.684 -124.486 379.79 -124.19 379.73C-123.882 379.677 -123.588 379.408 -123.308 378.923L-120.178 373.502C-119.878 372.982 -119.75 372.548 -119.795 372.199C-119.833 371.838 -120.106 371.511 -120.614 371.218L-120.404 370.854C-120.055 371.102 -119.707 371.326 -119.361 371.526C-119.026 371.719 -118.698 371.885 -118.378 372.024C-118.039 372.158 -117.72 372.258 -117.419 372.323L-118.669 374.488C-118.349 374.227 -117.977 373.995 -117.552 373.794C-117.11 373.587 -116.654 373.465 -116.186 373.428C-115.718 373.39 -115.282 373.488 -114.878 373.721ZM-108.217 372.117C-107.917 372.29 -107.72 372.55 -107.627 372.896C-107.535 373.242 -107.575 373.565 -107.748 373.865C-107.922 374.166 -108.181 374.362 -108.527 374.455C-108.873 374.548 -109.197 374.507 -109.497 374.334C-109.797 374.161 -109.994 373.901 -110.086 373.555C-110.179 373.209 -110.139 372.886 -109.965 372.585C-109.792 372.285 -109.532 372.089 -109.186 371.996C-108.84 371.903 -108.517 371.944 -108.217 372.117ZM-109.706 376.776L-114.036 384.276C-114.316 384.761 -114.408 385.147 -114.312 385.434C-114.204 385.727 -113.913 386.01 -113.44 386.283L-113.65 386.647C-113.839 386.522 -114.133 386.337 -114.53 386.092C-114.91 385.843 -115.301 385.601 -115.706 385.368C-116.098 385.141 -116.503 384.923 -116.921 384.712C-117.331 384.491 -117.638 384.329 -117.841 384.227L-117.631 383.863C-117.158 384.137 -116.773 384.243 -116.477 384.184C-116.169 384.13 -115.875 383.861 -115.595 383.376L-112.465 377.955C-112.165 377.435 -112.037 377.001 -112.082 376.652C-112.12 376.291 -112.393 375.964 -112.901 375.671L-112.691 375.307C-112.342 375.555 -111.994 375.779 -111.647 375.979C-111.313 376.172 -110.985 376.338 -110.665 376.477C-110.326 376.611 -110.007 376.711 -109.706 376.776ZM-101.657 381.354C-101.219 381.608 -100.888 381.875 -100.666 382.157C-100.433 382.446 -100.278 382.751 -100.201 383.072C-100.115 383.43 -100.126 383.809 -100.234 384.208C-100.341 384.608 -100.565 385.102 -100.905 385.691L-103.575 390.316C-103.855 390.801 -103.947 391.187 -103.851 391.473C-103.743 391.766 -103.452 392.05 -102.979 392.323L-103.189 392.687C-103.378 392.562 -103.672 392.377 -104.069 392.132C-104.46 391.876 -104.846 391.637 -105.227 391.417C-105.608 391.197 -105.99 390.992 -106.373 390.802C-106.738 390.607 -107.016 390.462 -107.207 390.367L-106.997 390.003C-106.581 390.243 -106.237 390.326 -105.964 390.253C-105.691 390.18 -105.414 389.901 -105.134 389.416L-102.244 384.41C-102.037 384.052 -101.876 383.707 -101.761 383.373C-101.645 383.04 -101.638 382.72 -101.739 382.416C-101.829 382.118 -102.081 381.848 -102.497 381.608C-102.982 381.328 -103.489 381.22 -104.019 381.284C-104.537 381.355 -105.039 381.572 -105.527 381.937C-105.997 382.297 -106.402 382.772 -106.742 383.361L-108.962 387.206C-109.242 387.691 -109.345 388.07 -109.272 388.343C-109.199 388.616 -108.954 388.873 -108.539 389.113L-108.749 389.477C-108.927 389.359 -109.197 389.187 -109.56 388.962C-109.905 388.732 -110.267 388.507 -110.649 388.287C-111.03 388.067 -111.429 387.852 -111.846 387.642C-112.257 387.42 -112.564 387.259 -112.767 387.157L-112.557 386.793C-112.084 387.066 -111.699 387.173 -111.402 387.113C-111.095 387.06 -110.801 386.791 -110.521 386.306L-107.391 380.885C-107.091 380.365 -106.963 379.931 -107.008 379.581C-107.046 379.221 -107.319 378.894 -107.827 378.6L-107.617 378.237C-107.267 378.485 -106.92 378.709 -106.573 378.909C-106.238 379.102 -105.911 379.268 -105.59 379.407C-105.252 379.541 -104.932 379.64 -104.632 379.706L-105.812 381.75C-105.058 381.138 -104.329 380.835 -103.625 380.842C-102.902 380.843 -102.246 381.014 -101.657 381.354ZM-91.8729 381.114L-98.7829 393.083C-99.0629 393.568 -99.1663 393.947 -99.0931 394.22C-99.0199 394.493 -98.7754 394.75 -98.3597 394.99L-98.5697 395.354C-98.7478 395.235 -99.0183 395.064 -99.3811 394.839C-99.7257 394.609 -100.083 394.388 -100.452 394.174C-100.845 393.948 -101.25 393.729 -101.667 393.519C-102.078 393.297 -102.385 393.135 -102.588 393.034L-102.378 392.67C-101.905 392.943 -101.52 393.05 -101.223 392.99C-100.916 392.937 -100.622 392.668 -100.342 392.183L-94.6317 382.293C-94.3317 381.773 -94.2041 381.339 -94.2488 380.99C-94.2869 380.629 -94.56 380.302 -95.0681 380.009L-94.8581 379.645C-94.5086 379.893 -94.1606 380.117 -93.8142 380.317C-93.4793 380.51 -93.1518 380.676 -92.8316 380.815C-92.4931 380.949 -92.1736 381.048 -91.8729 381.114ZM-89.0549 388.954L-89.2549 389.3C-89.5569 389.156 -89.875 389.081 -90.209 389.072C-90.5364 389.053 -90.8946 389.1 -91.2838 389.214L-95.206 390.367L-94.6835 390.022L-94.0119 396.299C-93.9689 396.678 -93.9042 396.993 -93.8176 397.243C-93.7195 397.499 -93.5535 397.719 -93.3194 397.9L-93.5294 398.264C-93.6498 398.179 -93.8452 398.05 -94.1157 397.879C-94.3679 397.702 -94.6268 397.538 -94.8924 397.384C-95.2504 397.178 -95.6208 396.979 -96.0036 396.789C-96.3798 396.587 -96.6636 396.439 -96.855 396.344L-96.645 395.98C-96.414 396.113 -96.219 396.149 -96.06 396.087C-95.901 396.024 -95.8383 395.876 -95.872 395.641L-96.1838 391.581C-96.2232 391.143 -96.3086 390.824 -96.44 390.625C-96.5599 390.432 -96.7839 390.234 -97.1121 390.029L-96.9121 389.683C-96.516 389.85 -96.1724 389.948 -95.8815 389.977C-95.5839 389.995 -95.2678 389.955 -94.9333 389.855L-92.8816 389.261C-92.2921 389.094 -91.934 388.9 -91.8073 388.681C-91.674 388.45 -91.7019 388.218 -91.8911 387.986C-92.062 387.749 -92.338 387.52 -92.719 387.3L-92.519 386.954C-92.2255 387.138 -91.9006 387.349 -91.5445 387.585C-91.1701 387.817 -90.8559 388.006 -90.6018 388.153C-90.4055 388.266 -90.215 388.376 -90.0302 388.483C-89.8388 388.578 -89.659 388.666 -89.4906 388.748C-89.3223 388.83 -89.1771 388.898 -89.0549 388.954ZM-90.0892 397.617C-89.8352 397.764 -89.6573 397.936 -89.5557 398.133C-89.454 398.33 -89.3979 398.54 -89.3873 398.761C-89.3669 399.019 -89.4028 399.268 -89.4948 399.508C-89.5868 399.747 -89.6728 399.936 -89.7528 400.074C-90.0795 400.64 -90.5205 401.071 -91.0759 401.366C-91.6312 401.661 -92.2982 401.776 -93.0769 401.712L-93.0527 401.31C-92.6081 401.367 -92.1654 401.307 -91.7247 401.13C-91.2725 400.96 -90.9497 400.708 -90.7564 400.373C-90.6764 400.234 -90.6237 400.103 -90.5983 399.979C-90.8698 400.022 -91.1267 399.974 -91.3692 399.834C-91.6694 399.661 -91.8726 399.413 -91.9786 399.09C-92.0847 398.767 -92.0377 398.432 -91.8377 398.086C-91.651 397.762 -91.388 397.56 -91.0486 397.479C-90.7092 397.398 -90.3894 397.444 -90.0892 397.617ZM-77.2713 391.046C-76.694 391.379 -76.2952 391.702 -76.075 392.013C-75.8481 392.314 -75.6658 392.611 -75.5282 392.906C-75.4363 393.067 -75.3633 393.194 -75.3092 393.287C-75.2368 393.375 -75.1602 393.442 -75.0793 393.489C-74.9639 393.556 -74.8464 393.539 -74.7269 393.438C-74.5958 393.345 -74.4396 393.181 -74.2583 392.947L-73.8599 393.177C-73.9848 393.366 -74.1388 393.593 -74.3219 393.857C-74.4868 394.116 -74.705 394.467 -74.9765 394.911C-75.2299 395.35 -75.5665 395.933 -75.9865 396.66L-76.3849 396.43C-76.0995 395.856 -75.9141 395.255 -75.8286 394.627C-75.7431 393.999 -75.8091 393.406 -76.0266 392.85C-76.2325 392.3 -76.6588 391.838 -77.3055 391.465C-77.9175 391.111 -78.5322 391.003 -79.1497 391.139C-79.7556 391.282 -80.2319 391.653 -80.5786 392.254C-80.8786 392.773 -80.9991 393.289 -80.9402 393.8C-80.8746 394.3 -80.7058 394.821 -80.4336 395.363C-80.1433 395.9 -79.8317 396.48 -79.4987 397.104C-79.1116 397.82 -78.7938 398.496 -78.5452 399.132C-78.2785 399.763 -78.139 400.375 -78.1267 400.967C-78.1029 401.566 -78.271 402.177 -78.631 402.801C-79.0577 403.54 -79.5785 404.055 -80.1933 404.347C-80.8082 404.638 -81.4627 404.745 -82.157 404.668C-82.8513 404.59 -83.5332 404.358 -84.203 403.972C-84.815 403.618 -85.2599 403.269 -85.5379 402.924C-85.8159 402.578 -86.0385 402.257 -86.2059 401.961C-86.3666 401.652 -86.5162 401.458 -86.6548 401.378C-86.7702 401.312 -86.8935 401.325 -87.0246 401.419C-87.1441 401.519 -87.2945 401.686 -87.4758 401.92L-87.8742 401.69C-87.7111 401.461 -87.5362 401.185 -87.3496 400.862C-87.1447 400.533 -86.8889 400.104 -86.5822 399.573C-86.264 399.048 -85.8716 398.382 -85.4049 397.573L-85.0065 397.803C-85.3604 398.523 -85.6067 399.243 -85.7455 399.963C-85.8728 400.69 -85.8237 401.365 -85.5982 401.988C-85.3546 402.606 -84.8632 403.128 -84.1242 403.555C-83.7432 403.775 -83.3419 403.907 -82.9203 403.95C-82.4806 403.988 -82.0544 403.903 -81.6416 403.695C-81.2222 403.475 -80.8559 403.094 -80.5426 402.551C-80.2692 402.078 -80.148 401.601 -80.179 401.122C-80.1917 400.637 -80.3135 400.128 -80.5443 399.594C-80.7684 399.049 -81.0585 398.458 -81.4145 397.822C-81.7639 397.174 -82.0753 396.54 -82.3488 395.92C-82.6222 395.3 -82.7732 394.682 -82.8019 394.065C-82.8124 393.443 -82.6309 392.809 -82.2576 392.162C-81.8643 391.481 -81.3908 391.007 -80.8373 390.742C-80.2655 390.472 -79.6714 390.376 -79.0548 390.455C-78.4316 390.522 -77.8371 390.719 -77.2713 391.046ZM-68.49 394.637L-72.23 401.115C-71.4765 400.503 -70.7474 400.201 -70.043 400.207C-69.3269 400.22 -68.6744 400.397 -68.0855 400.737C-67.6468 400.99 -67.3164 401.258 -67.0943 401.54C-66.8608 401.829 -66.7059 402.134 -66.6296 402.455C-66.5435 402.813 -66.5543 403.191 -66.6619 403.591C-66.7695 403.991 -66.9934 404.485 -67.3334 405.074L-70.0034 409.699C-70.2834 410.184 -70.3752 410.569 -70.2789 410.856C-70.1711 411.149 -69.8804 411.432 -69.407 411.706L-69.617 412.069C-69.8066 411.945 -70.1002 411.76 -70.4977 411.515C-70.8885 411.258 -71.2744 411.02 -71.6555 410.8C-72.0365 410.58 -72.4184 410.375 -72.8013 410.185C-73.1659 409.99 -73.4439 409.845 -73.6354 409.749L-73.4254 409.386C-73.0097 409.626 -72.6652 409.709 -72.392 409.636C-72.1188 409.563 -71.8422 409.284 -71.5622 408.799L-68.6722 403.793C-68.4655 403.435 -68.3044 403.089 -68.1888 402.756C-68.0732 402.422 -68.066 402.103 -68.1672 401.798C-68.2568 401.5 -68.5095 401.231 -68.9252 400.991C-69.3986 400.718 -69.8967 400.607 -70.4196 400.66C-70.9308 400.718 -71.4271 400.925 -71.9083 401.278C-72.3894 401.631 -72.8067 402.114 -73.16 402.726L-75.39 406.589C-75.67 407.074 -75.7734 407.453 -75.7002 407.726C-75.627 407.999 -75.3826 408.256 -74.9669 408.496L-75.1769 408.859C-75.355 408.741 -75.6254 408.57 -75.9883 408.345C-76.3329 408.115 -76.6957 407.89 -77.0768 407.67C-77.4578 407.45 -77.8571 407.235 -78.2746 407.025C-78.6854 406.803 -78.9923 406.641 -79.1952 406.539L-78.9852 406.176C-78.5118 406.449 -78.1269 406.556 -77.8306 406.496C-77.5228 406.443 -77.2289 406.174 -76.9489 405.689L-71.2489 395.816C-70.9489 395.296 -70.8213 394.862 -70.866 394.513C-70.9041 394.152 -71.1772 393.825 -71.6852 393.532L-71.4752 393.168C-71.1257 393.416 -70.7778 393.64 -70.4314 393.84C-70.0965 394.033 -69.769 394.199 -69.4487 394.338C-69.1103 394.472 -68.7907 394.572 -68.49 394.637ZM-66.4673 414.05C-66.9407 413.776 -67.3006 413.453 -67.547 413.08C-67.7868 412.695 -67.9057 412.288 -67.9038 411.858C-67.8903 411.434 -67.7602 411.009 -67.5136 410.582C-67.2202 410.074 -66.8648 409.725 -66.4472 409.535C-66.018 409.351 -65.562 409.268 -65.0792 409.285C-64.5963 409.302 -64.1162 409.364 -63.6387 409.47C-63.143 409.572 -62.6771 409.671 -62.2409 409.769C-61.7981 409.856 -61.4145 409.885 -61.0902 409.856C-60.7544 409.835 -60.5098 409.691 -60.3565 409.425L-59.7365 408.352C-59.4565 407.867 -59.3182 407.454 -59.3217 407.113C-59.3136 406.779 -59.4074 406.502 -59.6033 406.281C-59.7924 406.048 -60.0371 405.846 -60.3373 405.672C-60.626 405.506 -60.9611 405.366 -61.3426 405.253C-61.7126 405.148 -62.0691 405.165 -62.4121 405.306C-62.2193 405.479 -62.0955 405.704 -62.0405 405.982C-61.9855 406.26 -62.0413 406.544 -62.208 406.832C-62.3747 407.121 -62.6004 407.299 -62.8851 407.365C-63.1632 407.42 -63.4466 407.364 -63.7353 407.198C-64.0701 407.004 -64.2584 406.757 -64.3 406.456C-64.3235 406.15 -64.2585 405.864 -64.1052 405.598C-63.9319 405.298 -63.7168 405.099 -63.46 405.001C-63.2033 404.903 -62.9127 404.84 -62.5885 404.811C-62.2162 404.78 -61.7856 404.821 -61.2966 404.934C-60.7893 405.042 -60.2701 405.249 -59.739 405.556C-59.2655 405.829 -58.8947 406.12 -58.6265 406.429C-58.3517 406.726 -58.1645 407.042 -58.0651 407.377C-57.9249 407.827 -57.9253 408.281 -58.0662 408.739C-58.2005 409.184 -58.4277 409.685 -58.7477 410.239L-61.5277 415.054C-61.6943 415.343 -61.7739 415.574 -61.7664 415.747C-61.7474 415.928 -61.6455 416.071 -61.4607 416.178C-61.3337 416.251 -61.1958 416.292 -61.047 416.301C-60.8982 416.31 -60.7063 416.298 -60.4713 416.264L-60.4508 416.669C-60.7999 416.713 -61.1209 416.736 -61.4136 416.736C-61.6997 416.725 -62.0274 416.613 -62.397 416.4C-62.7318 416.206 -62.9756 415.989 -63.1283 415.746C-63.2811 415.504 -63.3518 415.24 -63.3406 414.954C-63.3112 414.663 -63.1965 414.344 -62.9965 413.998C-63.6083 414.338 -64.2069 414.508 -64.7923 414.509C-65.3663 414.516 -65.9246 414.363 -66.4673 414.05ZM-65.4437 413.717C-65.0627 413.937 -64.6472 414.03 -64.1972 413.998C-63.7357 413.972 -63.2454 413.816 -62.7265 413.53L-60.7665 410.136C-61.0184 410.252 -61.3172 410.303 -61.6627 410.288C-62.0016 410.262 -62.367 410.228 -62.7588 410.186C-63.1439 410.133 -63.5341 410.116 -63.9294 410.134C-64.3066 410.147 -64.6708 410.245 -65.0222 410.427C-65.3737 410.609 -65.6827 410.931 -65.9494 411.393C-66.216 411.854 -66.3081 412.294 -66.2256 412.711C-66.1316 413.135 -65.871 413.47 -65.4437 413.717ZM-49.5537 411.436C-49.2419 411.616 -49.0072 411.836 -48.8496 412.097C-48.6805 412.364 -48.5924 412.638 -48.5854 412.919C-48.5601 413.195 -48.6208 413.461 -48.7675 413.715C-48.9342 414.003 -49.1732 414.204 -49.4846 414.317C-49.7845 414.436 -50.0846 414.409 -50.3848 414.236C-50.6273 414.096 -50.7976 413.897 -50.8956 413.641C-50.9871 413.372 -50.9494 413.094 -50.7828 412.805C-50.6561 412.586 -50.4917 412.434 -50.2896 412.351C-50.0692 412.263 -49.8573 412.215 -49.6539 412.21C-49.668 412.048 -49.7559 411.92 -49.9176 411.827C-50.2756 411.62 -50.668 411.54 -51.0949 411.586C-51.5151 411.62 -51.9258 411.745 -52.327 411.96C-52.7282 412.175 -53.0965 412.439 -53.432 412.754C-53.7608 413.056 -54.0185 413.37 -54.2052 413.693L-56.3252 417.365C-56.6518 417.931 -56.7102 418.405 -56.5002 418.788C-56.272 419.166 -55.875 419.518 -55.3092 419.845L-55.5192 420.209C-55.7781 420.044 -56.1467 419.816 -56.625 419.524C-57.0967 419.221 -57.6038 418.913 -58.1465 418.6C-58.5391 418.373 -58.9384 418.158 -59.3443 417.954C-59.7321 417.746 -60.0274 417.591 -60.2304 417.489L-60.0204 417.125C-59.5469 417.398 -59.1621 417.505 -58.8658 417.445C-58.5579 417.392 -58.264 417.123 -57.984 416.638L-54.854 411.217C-54.554 410.697 -54.4264 410.263 -54.4711 409.914C-54.5092 409.553 -54.7823 409.226 -55.2904 408.932L-55.0804 408.569C-54.7309 408.817 -54.3829 409.041 -54.0365 409.241C-53.7016 409.434 -53.3741 409.6 -53.0539 409.739C-52.7154 409.873 -52.3959 409.972 -52.0952 410.038L-53.3452 412.203C-53.0248 411.942 -52.6525 411.71 -52.2282 411.509C-51.7857 411.302 -51.3304 411.18 -50.8622 411.143C-50.394 411.105 -49.9578 411.203 -49.5537 411.436ZM-43.3567 415.014C-42.3406 415.601 -41.7296 416.369 -41.5238 417.319C-41.2998 418.265 -41.5645 419.39 -42.3178 420.695L-48.4319 417.165L-48.2593 416.825L-43.7906 419.405C-43.4408 418.853 -43.187 418.307 -43.0291 417.767C-42.8646 417.215 -42.826 416.722 -42.9134 416.286C-42.9892 415.857 -43.2234 415.53 -43.616 415.303C-44.1472 414.996 -44.7739 414.989 -45.4963 415.28C-46.2071 415.578 -46.9363 416.281 -47.6838 417.389L-47.6718 417.488C-47.7949 417.648 -47.9222 417.828 -48.0538 418.03C-48.1853 418.231 -48.3111 418.435 -48.4311 418.643C-48.8844 419.428 -49.1474 420.177 -49.22 420.89C-49.2927 421.602 -49.2136 422.225 -48.9828 422.759C-48.7337 423.287 -48.3898 423.678 -47.951 423.932C-47.6046 424.132 -47.2455 424.27 -46.8738 424.346C-46.4953 424.41 -46.1 424.392 -45.6877 424.291C-45.2755 424.191 -44.8479 423.983 -44.4049 423.67L-44.1385 424.008C-44.4855 424.316 -44.9067 424.565 -45.4021 424.757C-45.8974 424.948 -46.4311 425.032 -47.0032 425.01C-47.5687 424.976 -48.1401 424.792 -48.7174 424.459C-49.5488 423.979 -50.1547 423.375 -50.5352 422.648C-50.9041 421.926 -51.0569 421.138 -50.9935 420.281C-50.9119 419.42 -50.6178 418.551 -50.1112 417.673C-49.5245 416.657 -48.8595 415.878 -48.1162 415.338C-47.3662 414.785 -46.5834 414.483 -45.7679 414.43C-44.9456 414.366 -44.1419 414.561 -43.3567 415.014ZM-32.2588 417.426C-31.82 417.68 -31.4863 417.942 -31.2576 418.212C-31.0222 418.471 -30.8555 418.729 -30.7574 418.986C-30.674 419.188 -30.6261 419.385 -30.6137 419.577C-30.6013 419.769 -30.612 419.947 -30.6459 420.113C-30.6797 420.278 -30.7332 420.424 -30.8066 420.551C-30.9732 420.84 -31.2072 421.005 -31.5083 421.046C-31.798 421.095 -32.064 421.049 -32.3065 420.909C-32.5375 420.776 -32.702 420.581 -32.8001 420.324C-32.8982 420.067 -32.8672 419.8 -32.7072 419.523C-32.5605 419.269 -32.3506 419.105 -32.0774 419.032C-31.7975 418.947 -31.5181 418.97 -31.2392 419.1C-31.1987 418.923 -31.2697 418.713 -31.4522 418.469C-31.6165 418.22 -31.8776 417.993 -32.2356 417.786C-32.8245 417.446 -33.4128 417.345 -34.0005 417.483C-34.57 417.616 -35.0481 418.017 -35.4347 418.687C-35.6214 419.01 -35.7537 419.373 -35.8315 419.774C-35.8979 420.183 -35.8511 420.648 -35.6914 421.172C-35.4751 421.25 -35.2597 421.344 -35.0452 421.452C-34.824 421.549 -34.6614 421.628 -34.5575 421.688C-34.3497 421.808 -34.2022 421.939 -34.1152 422.082C-34.0282 422.224 -34.0214 422.359 -34.0947 422.486C-34.1547 422.59 -34.2476 422.644 -34.3733 422.649C-34.4874 422.66 -34.6196 422.622 -34.7697 422.535C-34.9891 422.409 -35.1933 422.229 -35.3825 421.997C-35.565 421.753 -35.7088 421.562 -35.8141 421.424C-36.5971 421.234 -37.3265 421.244 -38.0022 421.454C-38.6712 421.653 -39.2391 422.156 -39.7057 422.965C-40.1657 423.761 -40.3479 424.557 -40.2522 425.351C-40.1565 426.146 -39.8489 426.893 -39.3294 427.593C-38.7917 428.288 -38.0899 428.886 -37.2238 429.386C-36.6119 429.739 -35.9945 430.003 -35.3718 430.178C-34.7309 430.348 -34.1226 430.414 -33.5469 430.377C-32.9596 430.347 -32.4348 430.211 -31.9723 429.97C-31.5031 429.717 -31.1252 429.343 -30.8386 428.846C-30.7119 428.627 -30.5981 428.323 -30.4971 427.935C-30.3895 427.535 -30.3867 427.09 -30.4887 426.6C-30.584 426.099 -30.8786 425.582 -31.3724 425.051L-31.0645 424.998C-30.3683 425.738 -30.0045 426.495 -29.9732 427.267C-29.9352 428.028 -30.1163 428.755 -30.5163 429.448C-30.9163 430.141 -31.5074 430.685 -32.2898 431.08C-33.0722 431.475 -33.9726 431.648 -34.9911 431.599C-36.003 431.538 -37.069 431.184 -38.189 430.538C-38.9396 430.104 -39.5988 429.593 -40.1668 429.003C-40.7232 428.42 -41.1545 427.794 -41.4608 427.125C-41.7604 426.443 -41.907 425.751 -41.9005 425.046C-41.8941 424.342 -41.6975 423.655 -41.3109 422.985C-40.9509 422.361 -40.5229 421.9 -40.0271 421.601C-39.5246 421.291 -39.0111 421.095 -38.4865 421.013C-37.9618 420.931 -37.4772 420.918 -37.0326 420.975C-36.5813 421.02 -36.2293 421.077 -35.9766 421.146C-36.2576 420.752 -36.4643 420.364 -36.5965 419.979C-36.7105 419.59 -36.7568 419.217 -36.7354 418.86C-36.6958 418.498 -36.5959 418.178 -36.4359 417.901C-36.2759 417.624 -36.0591 417.395 -35.7854 417.215C-35.5051 417.022 -35.1836 416.892 -34.8212 416.824C-34.4587 416.757 -34.0651 416.768 -33.6405 416.859C-33.2043 416.957 -32.7437 417.146 -32.2588 417.426ZM-25.7541 420.72C-25.0382 421.133 -24.5577 421.688 -24.3128 422.383C-24.0611 423.067 -24.1486 423.779 -24.5753 424.518C-24.802 424.911 -25.0804 425.22 -25.4105 425.445C-25.7224 425.665 -26.072 425.817 -26.4594 425.901C-26.8352 425.992 -27.2223 426.023 -27.6208 425.993C-27.9597 425.967 -28.3919 425.902 -28.9173 425.799C-29.4312 425.702 -29.9798 425.586 -30.563 425.449C-31.1346 425.319 -31.6889 425.199 -32.2259 425.089C-32.7447 424.975 -33.1727 424.889 -33.5098 424.833C-34.0304 424.748 -34.5108 424.74 -34.951 424.809C-35.373 424.874 -35.6907 425.09 -35.904 425.46C-36.0773 425.76 -36.1374 426.064 -36.0842 426.372C-36.031 426.68 -35.9131 426.956 -35.7306 427.2C-35.5366 427.45 -35.3299 427.639 -35.1105 427.766C-35.0066 427.826 -34.8729 427.887 -34.7095 427.951C-34.5278 428.01 -34.3568 428.047 -34.1964 428.062C-34.0361 428.078 -33.921 428.052 -33.8513 427.985C-34.016 427.843 -34.1541 427.656 -34.2655 427.422C-34.3587 427.183 -34.322 426.92 -34.1553 426.631C-33.9953 426.354 -33.7763 426.188 -33.4982 426.133C-33.2201 426.078 -32.9483 426.127 -32.6827 426.28C-32.4056 426.44 -32.2362 426.654 -32.1745 426.92C-32.1013 427.194 -32.1447 427.469 -32.3047 427.746C-32.4914 428.069 -32.7611 428.283 -33.1138 428.387C-33.4483 428.487 -33.8106 428.501 -34.2006 428.429C-34.5723 428.353 -34.9141 428.225 -35.2259 428.045C-35.5492 427.859 -35.8383 427.599 -36.0931 427.268C-36.348 426.936 -36.5018 426.562 -36.5545 426.147C-36.6006 425.72 -36.4836 425.264 -36.2036 424.779C-35.9703 424.375 -35.677 424.067 -35.3238 423.855C-34.959 423.65 -34.5277 423.529 -34.0297 423.494C-33.5318 423.458 -32.973 423.503 -32.3534 423.63C-31.9403 423.715 -31.4455 423.831 -30.869 423.979C-30.2925 424.127 -29.6977 424.27 -29.0848 424.409C-28.4603 424.554 -27.8777 424.651 -27.3372 424.702C-26.6065 424.769 -26.0572 424.725 -25.6894 424.568C-25.3215 424.411 -25.0543 424.188 -24.8876 423.899C-24.6943 423.564 -24.6166 423.216 -24.6547 422.856C-24.6862 422.483 -24.8144 422.132 -25.0395 421.802C-25.2464 421.467 -25.5288 421.196 -25.8868 420.99C-26.0253 420.91 -26.1475 420.854 -26.2532 420.824C-26.3589 420.794 -26.44 420.801 -26.4964 420.845C-26.3814 421.02 -26.3268 421.205 -26.3327 421.402C-26.3385 421.599 -26.3848 421.772 -26.4714 421.922C-26.6114 422.165 -26.8262 422.31 -27.1159 422.358C-27.394 422.413 -27.6658 422.364 -27.9314 422.211C-28.1508 422.084 -28.3186 421.895 -28.4349 421.643C-28.5445 421.38 -28.516 421.104 -28.3494 420.815C-28.176 420.515 -27.9412 420.335 -27.6449 420.275C-27.3371 420.222 -27.0188 420.244 -26.6901 420.341C-26.3432 420.434 -26.0312 420.56 -25.7541 420.72ZM-22.2929 423.041C-22.0571 423.193 -21.7462 423.388 -21.3603 423.626C-20.9744 423.864 -20.5909 424.093 -20.2098 424.313C-19.6671 424.627 -19.1442 424.921 -18.641 425.196C-18.1378 425.471 -17.7823 425.669 -17.5744 425.789C-16.1772 426.595 -15.3156 427.516 -14.9894 428.551C-14.6633 429.586 -14.7902 430.606 -15.3702 431.611C-15.6102 432.027 -15.9328 432.425 -16.338 432.807C-16.7366 433.178 -17.2224 433.459 -17.7955 433.652C-18.3504 433.839 -18.9922 433.884 -19.7211 433.787C-20.45 433.689 -21.2648 433.381 -22.1655 432.861L-23.8282 431.901L-23.6282 431.554L-22.1387 432.414C-21.3188 432.888 -20.6053 433.092 -19.9981 433.027C-19.3793 432.968 -18.8482 432.728 -18.4047 432.307C-17.9497 431.892 -17.5522 431.39 -17.2122 430.801C-16.5789 429.704 -16.325 428.758 -16.4504 427.962C-16.5643 427.173 -17.1467 426.475 -18.1974 425.868C-18.7286 425.561 -19.1317 425.459 -19.4067 425.562C-19.6817 425.665 -19.9925 426.017 -20.3392 426.617L-25.2992 435.208C-25.5392 435.624 -25.6787 435.959 -25.7179 436.214C-25.7455 436.475 -25.6523 436.713 -25.4383 436.929C-25.2243 437.145 -24.8814 437.405 -24.4098 437.708L-24.6098 438.054C-24.8967 437.858 -25.2711 437.626 -25.7329 437.36C-26.1882 437.081 -26.6525 436.806 -27.1259 436.532C-27.5762 436.272 -28.001 436.035 -28.4003 435.82C-28.7929 435.593 -29.1171 435.421 -29.3729 435.304L-29.1729 434.958C-28.767 435.162 -28.4459 435.285 -28.2096 435.329C-27.9617 435.38 -27.7432 435.322 -27.5539 435.154C-27.3646 434.986 -27.15 434.694 -26.91 434.278L-21.95 425.687C-21.7033 425.26 -21.5579 424.928 -21.5139 424.692C-21.4632 424.444 -21.5217 424.226 -21.6896 424.036C-21.8392 423.842 -22.107 423.626 -22.4929 423.388L-22.2929 423.041ZM-9.02454 428.947L-15.9345 440.915C-16.2145 441.4 -16.3064 441.786 -16.2101 442.073C-16.1022 442.366 -15.8116 442.649 -15.3382 442.922L-15.5482 443.286C-15.7378 443.161 -16.0314 442.976 -16.4289 442.731C-16.8081 442.482 -17.1998 442.24 -17.604 442.007C-17.9966 441.78 -18.4016 441.562 -18.8191 441.351C-19.2299 441.13 -19.5368 440.968 -19.7397 440.866L-19.5297 440.502C-19.0563 440.776 -18.6715 440.882 -18.3752 440.823C-18.0673 440.769 -17.7734 440.5 -17.4934 440.015L-11.7834 430.125C-11.4834 429.606 -11.3558 429.171 -11.4005 428.822C-11.4386 428.461 -11.7117 428.134 -12.2197 427.841L-12.0097 427.477C-11.6602 427.725 -11.3123 427.949 -10.9659 428.149C-10.631 428.343 -10.3035 428.509 -9.98325 428.647C-9.64481 428.781 -9.32525 428.881 -9.02454 428.947ZM-12.273 445.339C-12.7465 445.065 -13.1064 444.742 -13.3528 444.369C-13.5925 443.984 -13.7114 443.577 -13.7095 443.147C-13.6961 442.723 -13.566 442.298 -13.3193 441.871C-13.026 441.363 -12.6705 441.014 -12.2529 440.824C-11.8238 440.641 -11.3678 440.557 -10.8849 440.574C-10.4021 440.591 -9.92194 440.653 -9.44446 440.759C-8.94877 440.861 -8.48284 440.961 -8.04667 441.058C-7.60383 441.145 -7.22028 441.174 -6.896 441.145C-6.56018 441.124 -6.3156 440.98 -6.16227 440.714L-5.54227 439.641C-5.26227 439.156 -5.12399 438.743 -5.12744 438.402C-5.11934 438.068 -5.21319 437.791 -5.40901 437.57C-5.59817 437.337 -5.84286 437.135 -6.14308 436.961C-6.43175 436.795 -6.76686 436.655 -7.14839 436.542C-7.51837 436.437 -7.87484 436.454 -8.21781 436.595C-8.02508 436.768 -7.90122 436.993 -7.84623 437.271C-7.79124 437.549 -7.84708 437.833 -8.01375 438.121C-8.18041 438.41 -8.40612 438.588 -8.69087 438.654C-8.96896 438.709 -9.25234 438.653 -9.54101 438.487C-9.87588 438.293 -10.0641 438.046 -10.1058 437.745C-10.1292 437.439 -10.0643 437.153 -9.91096 436.887C-9.73763 436.587 -9.52257 436.388 -9.2658 436.29C-9.00902 436.192 -8.71849 436.129 -8.39422 436.1C-8.02197 436.069 -7.59133 436.11 -7.10231 436.223C-6.59507 436.331 -6.07587 436.538 -5.54471 436.845C-5.07128 437.118 -4.70047 437.409 -4.43227 437.718C-4.15741 438.015 -3.97028 438.331 -3.87089 438.666C-3.73066 439.116 -3.73103 439.57 -3.87199 440.028C-4.00628 440.474 -4.23343 440.974 -4.55343 441.528L-7.33343 446.343C-7.50009 446.632 -7.57968 446.863 -7.57218 447.037C-7.55314 447.217 -7.45124 447.36 -7.26649 447.467C-7.13947 447.54 -7.00156 447.582 -6.85276 447.59C-6.70396 447.599 -6.51206 447.587 -6.27707 447.553L-6.25654 447.958C-6.6057 448.003 -6.92664 448.025 -7.21936 448.025C-7.50542 448.014 -7.8332 447.902 -8.20271 447.689C-8.53757 447.495 -8.78137 447.278 -8.93409 447.035C-9.08682 446.793 -9.15758 446.529 -9.14639 446.243C-9.11698 445.952 -9.00227 445.634 -8.80227 445.287C-9.41404 445.627 -10.0127 445.797 -10.5981 445.798C-11.172 445.805 -11.7303 445.652 -12.273 445.339ZM-11.2495 445.006C-10.8684 445.226 -10.4529 445.319 -10.0029 445.287C-9.54141 445.261 -9.05119 445.105 -8.53227 444.819L-6.57227 441.425C-6.82417 441.541 -7.12291 441.592 -7.46849 441.577C-7.8074 441.551 -8.17275 441.517 -8.56451 441.475C-8.94962 441.422 -9.33984 441.405 -9.73518 441.423C-10.1123 441.436 -10.4766 441.534 -10.828 441.716C-11.1794 441.898 -11.4885 442.22 -11.7551 442.682C-12.0218 443.143 -12.1139 443.583 -12.0314 444C-11.9374 444.424 -11.6767 444.759 -11.2495 445.006ZM7.06643 444.449L6.86643 444.796C6.63371 444.692 6.37497 444.674 6.09022 444.74C5.80546 444.807 5.45559 445.013 5.0406 445.358L-2.09996 451.166L-2.39441 450.996L-1.15138 441.483C-1.11078 440.906 -1.1735 440.508 -1.33956 440.289C-1.48741 440.065 -1.63062 439.913 -1.76918 439.833L-1.55918 439.469C-1.32514 439.651 -1.07623 439.833 -0.812435 440.016C-0.541974 440.187 -0.245086 440.366 0.0782306 440.553C0.436188 440.76 0.818132 440.965 1.22406 441.168C1.64154 441.379 2.03015 441.572 2.3899 441.749L2.1799 442.113C1.89122 441.946 1.61808 441.819 1.36047 441.732C1.12108 441.64 0.912517 441.681 0.734782 441.856C0.563713 442.019 0.436329 442.4 0.352628 442.998L-0.56695 449.511L-0.690873 449.485L4.26367 445.464C4.63378 445.169 4.86484 444.902 4.95687 444.663C5.06711 444.419 5.05164 444.179 4.91046 443.943C4.76928 443.708 4.49751 443.459 4.09515 443.196L4.29515 442.849C4.49633 442.981 4.66864 443.096 4.81209 443.194C4.9622 443.281 5.1032 443.37 5.2351 443.461C5.38521 443.548 5.54687 443.641 5.72008 443.741C5.98566 443.895 6.2257 444.025 6.44022 444.134C6.66628 444.249 6.87502 444.354 7.06643 444.449ZM-2.09996 451.166L-3.55886 452.333C-3.841 452.555 -4.10224 452.727 -4.34259 452.85C-4.57139 452.98 -4.79174 453.068 -5.00364 453.115C-5.28839 453.182 -5.57445 453.171 -5.86182 453.082C-6.15586 453.004 -6.4068 452.906 -6.61464 452.786C-6.83403 452.659 -7.01277 452.502 -7.15086 452.314C-7.2774 452.133 -7.34596 451.932 -7.35655 451.711C-7.37381 451.5 -7.3191 451.286 -7.19244 451.066C-7.03244 450.789 -6.82161 450.611 -6.55995 450.531C-6.30496 450.462 -6.03312 450.512 -5.74445 450.678C-5.50196 450.818 -5.33412 451.008 -5.24091 451.246C-5.14771 451.485 -5.17777 451.737 -5.3311 452.002C-5.44444 452.199 -5.58396 452.334 -5.74967 452.407C-5.91538 452.481 -6.08174 452.516 -6.24876 452.512C-6.23233 452.537 -6.21834 452.552 -6.2068 452.559C-6.1837 452.572 -6.16638 452.582 -6.15483 452.589C-5.84306 452.769 -5.5026 452.819 -5.13345 452.74C-4.77096 452.672 -4.36068 452.455 -3.90259 452.088L-2.34905 450.837L-2.09996 451.166ZM12.177 441.234C12.3964 441.36 12.5378 441.542 12.6013 441.779C12.6762 442.022 12.6137 442.317 12.4137 442.664C12.1537 443.114 11.7958 443.654 11.3398 444.284C10.8954 444.92 10.3904 445.622 9.82466 446.388C9.27716 447.15 8.70877 447.961 8.11949 448.822C7.54842 449.677 6.99955 450.561 6.47289 451.474L6.16112 451.294C6.68778 450.381 7.17314 449.461 7.61719 448.532C8.07946 447.598 8.49774 446.7 8.87203 445.838C9.26453 444.972 9.61948 444.183 9.93686 443.474C10.2658 442.771 10.5603 442.194 10.8203 441.744C11.0203 441.397 11.2386 441.192 11.4754 441.129C11.7238 441.072 11.9576 441.107 12.177 441.234ZM5.497 452.804C5.79722 452.977 5.9937 453.237 6.08642 453.583C6.17915 453.929 6.13885 454.252 5.96551 454.552C5.79218 454.853 5.53248 455.049 5.18642 455.142C4.84036 455.234 4.51722 455.194 4.217 455.021C3.91678 454.847 3.72031 454.588 3.62758 454.242C3.53485 453.896 3.57516 453.573 3.74849 453.272C3.92182 452.972 4.18152 452.776 4.52758 452.683C4.87364 452.59 5.19678 452.63 5.497 452.804Z" fill="black"/>
</svg>
