<svg width="314" height="104" viewBox="0 0 314 104" fill="none" xmlns="http://www.w3.org/2000/svg">
<rect x="2.62402" y="2.92773" width="307.991" height="97.8682" fill="#3A001E" stroke="white" stroke-width="5"/>
<path d="M308.654 90.2397V94.5487H292.689V90.2397H308.654Z" fill="white"/>
<path d="M289.039 78.3359V81.4049H277.848V78.3359H289.039Z" fill="white"/>
<path d="M274.501 77.7158V82.0248H249.422V77.7158H274.501Z" fill="white"/>
<path d="M246.073 77.7158V82.0248H220.994V77.7158H246.073Z" fill="white"/>
<path d="M217.645 77.7158V82.0248H201.68V77.7158H217.645Z" fill="white"/>
<path d="M198.762 90.2397V94.5487H182.797V90.2397H198.762Z" fill="white"/>
<path d="M179.146 78.3359V81.4049H167.955V78.3359H179.146Z" fill="white"/>
<path d="M164.607 77.7158V82.0248H139.528V77.7158H164.607Z" fill="white"/>
<path d="M136.179 77.7158V82.0248H120.214V77.7158H136.179Z" fill="white"/>
<path d="M117.295 90.2397V94.5487H101.33V90.2397H117.295Z" fill="white"/>
<path d="M97.6803 78.3359V81.4049H86.4893V78.3359H97.6803Z" fill="white"/>
<path d="M83.1415 77.7158V82.0248H58.0625V77.7158H83.1415Z" fill="white"/>
<path d="M54.713 77.7158V82.0248H38.748V77.7158H54.713Z" fill="white"/>
<path d="M35.8293 90.2397V94.5487H19.8643V90.2397H35.8293Z" fill="white"/>
<path d="M16.2144 78.3359V81.4049H5.02344V78.3359H16.2144Z" fill="white"/>
<path d="M308.654 23.9497V28.2587H292.689V23.9497H308.654Z" fill="white"/>
<path d="M289.039 12.0459V15.1149H277.848V12.0459H289.039Z" fill="white"/>
<path d="M274.501 11.4258V15.7348H249.422V11.4258H274.501Z" fill="white"/>
<path d="M246.073 11.4258V15.7348H220.994V11.4258H246.073Z" fill="white"/>
<path d="M217.645 11.4258V15.7348H201.68V11.4258H217.645Z" fill="white"/>
<path d="M198.762 23.9497V28.2587H182.797V23.9497H198.762Z" fill="white"/>
<path d="M179.146 12.0459V15.1149H167.955V12.0459H179.146Z" fill="white"/>
<path d="M164.607 11.4258V15.7348H139.528V11.4258H164.607Z" fill="white"/>
<path d="M136.179 11.4258V15.7348H120.214V11.4258H136.179Z" fill="white"/>
<path d="M117.295 23.9497V28.2587H101.33V23.9497H117.295Z" fill="white"/>
<path d="M97.6803 12.0459V15.1149H86.4893V12.0459H97.6803Z" fill="white"/>
<path d="M83.1415 11.4258V15.7348H58.0625V11.4258H83.1415Z" fill="white"/>
<path d="M54.713 11.4258V15.7348H38.748V11.4258H54.713Z" fill="white"/>
<path d="M35.8293 23.9497V28.2587H19.8643V23.9497H35.8293Z" fill="white"/>
<path d="M16.2144 12.0459V15.1149H5.02344V12.0459H16.2144Z" fill="white"/>
</svg>
