<svg width="238" height="237" viewBox="0 0 238 237" fill="none" xmlns="http://www.w3.org/2000/svg">
<path d="M11.4564 15.4101C11.9028 6.89423 19.1681 0.352569 27.684 0.79893L222.036 10.9859C230.552 11.4323 237.094 18.6976 236.647 27.2135L226.46 221.565C226.014 230.081 218.749 236.623 210.233 236.177L15.8806 225.99C7.36477 225.543 0.823102 218.278 1.26946 209.762L11.4564 15.4101Z" fill="black"/>
<path d="M18.5414 23.2797C18.9878 14.7638 26.2531 8.2222 34.769 8.66856L214.166 18.0717C222.682 18.518 229.224 25.7834 228.777 34.2992L219.374 213.696C218.928 222.212 211.663 228.754 203.147 228.308L23.7494 218.904C15.2336 218.458 8.69192 211.193 9.13828 202.677L18.5414 23.2797Z" fill="black"/>
<path fill-rule="evenodd" clip-rule="evenodd" d="M214.005 21.1556L34.6073 11.7524C27.7946 11.3953 21.9824 16.6286 21.6253 23.4413L12.2222 202.839C11.8651 209.651 17.0984 215.464 23.9111 215.821L203.308 225.224C210.121 225.581 215.933 220.348 216.29 213.535L225.693 34.1376C226.051 27.3249 220.817 21.5126 214.005 21.1556ZM34.769 8.66856C26.2531 8.2222 18.9878 14.7638 18.5414 23.2797L9.13828 202.677C8.69192 211.193 15.2336 218.458 23.7494 218.904L203.147 228.308C211.663 228.754 218.928 222.212 219.374 213.696L228.777 34.2992C229.224 25.7834 222.682 18.518 214.166 18.0717L34.769 8.66856Z" fill="#F0572F"/>
<path d="M28.1078 33.0585C28.5542 24.5426 35.8195 18.001 44.3354 18.4474L203.631 26.7969C212.147 27.2432 218.689 34.5086 218.242 43.0244L209.809 203.918C209.363 212.433 202.097 218.975 193.582 218.529L34.2857 210.179C25.7698 209.733 19.2282 202.468 19.6746 193.952L28.1078 33.0585Z" fill="black"/>
<path fill-rule="evenodd" clip-rule="evenodd" d="M203.591 27.5678L44.295 19.2183C36.2049 18.7943 29.3028 25.0088 28.8788 33.0989L20.4455 193.992C20.0215 202.082 26.236 208.984 34.3261 209.408L193.622 217.758C201.712 218.182 208.614 211.967 209.038 203.877L217.471 42.984C217.895 34.8939 211.681 27.9919 203.591 27.5678ZM44.3354 18.4474C35.8195 18.001 28.5542 24.5426 28.1078 33.0585L19.6746 193.952C19.2282 202.468 25.7698 209.733 34.2857 210.179L193.582 218.529C202.097 218.975 209.363 212.433 209.809 203.918L218.242 43.0244C218.689 34.5086 212.147 27.2432 203.631 26.7969L44.3354 18.4474Z" fill="#F0572F"/>
<path d="M57.476 66.5204C57.9223 58.0046 65.1877 51.4629 73.7035 51.9093L170.926 57.0052C179.442 57.4516 185.984 64.7169 185.537 73.2328L180.441 170.455C179.995 178.971 172.73 185.513 164.214 185.066L66.9912 179.971C58.4753 179.524 51.9337 172.259 52.38 163.743L57.476 66.5204Z" fill="black"/>
<path fill-rule="evenodd" clip-rule="evenodd" d="M66.2352 179.913L66.3128 179.144C66.5506 179.168 66.7902 179.187 67.0316 179.2L67.7912 179.239L67.7507 180.01L66.9912 179.971C66.7374 179.957 66.4854 179.938 66.2352 179.913ZM64.7365 179.687L64.8887 178.93C64.4144 178.835 63.9489 178.717 63.4933 178.577L63.2673 179.315C63.7471 179.462 64.2372 179.587 64.7365 179.687ZM61.842 178.801L62.1398 178.088C61.6951 177.902 61.2618 177.695 60.8411 177.468L60.4745 178.148C60.9174 178.387 61.3737 178.605 61.842 178.801ZM59.1779 177.363L59.6095 176.723C59.2107 176.454 58.826 176.166 58.4567 175.861L57.9645 176.456C58.3532 176.777 58.7581 177.08 59.1779 177.363ZM56.8455 175.434L57.3934 174.89C57.055 174.549 56.7333 174.192 56.4297 173.819L55.8315 174.307C56.151 174.699 56.4894 175.075 56.8455 175.434ZM54.9321 173.088L55.5751 172.66C55.3098 172.261 55.0636 171.848 54.8378 171.424L54.1561 171.786C54.3938 172.233 54.6529 172.667 54.9321 173.088ZM53.5115 170.414L54.2256 170.121C54.0438 169.679 53.8831 169.226 53.7447 168.764L53.0052 168.986C53.1509 169.472 53.3201 169.949 53.5115 170.414ZM52.6423 167.515L53.4001 167.367C53.309 166.9 53.2402 166.424 53.195 165.943L52.4264 166.015C52.474 166.522 52.5464 167.022 52.6423 167.515ZM52.3586 164.501L53.1306 164.504C53.1316 164.265 53.1384 164.025 53.151 163.783L53.1908 163.024L52.4199 162.983L52.38 163.743C52.3667 163.997 52.3596 164.249 52.3586 164.501ZM52.4995 161.464L53.2704 161.505L53.3501 159.986L52.5791 159.945L52.4995 161.464ZM52.6587 158.426L53.4297 158.466L53.5093 156.947L52.7384 156.907L52.6587 158.426ZM52.818 155.388L53.5889 155.428L53.6686 153.909L52.8976 153.869L52.818 155.388ZM52.9772 152.35L53.7482 152.39L53.8278 150.871L53.0568 150.831L52.9772 152.35ZM53.1365 149.311L53.9074 149.352L53.9871 147.833L53.2161 147.792L53.1365 149.311ZM53.2957 146.273L54.0667 146.314L54.1463 144.795L53.3753 144.754L53.2957 146.273ZM53.455 143.235L54.2259 143.275L54.3056 141.756L53.5346 141.716L53.455 143.235ZM53.6142 140.197L54.3852 140.237L54.4648 138.718L53.6938 138.678L53.6142 140.197ZM53.7735 137.159L54.5444 137.199L54.6241 135.68L53.8531 135.64L53.7735 137.159ZM53.9327 134.12L54.7037 134.161L54.7833 132.642L54.0123 132.601L53.9327 134.12ZM54.092 131.082L54.8629 131.123L54.9426 129.604L54.1716 129.563L54.092 131.082ZM54.2512 128.044L55.0222 128.084L55.1018 126.565L54.3308 126.525L54.2512 128.044ZM54.4105 125.006L55.1814 125.046L55.261 123.527L54.4901 123.487L54.4105 125.006ZM54.5697 121.968L55.3407 122.008L55.4203 120.489L54.6493 120.449L54.5697 121.968ZM54.7289 118.929L55.4999 118.97L55.5795 117.451L54.8086 117.41L54.7289 118.929ZM54.8882 115.891L55.6592 115.932L55.7388 114.413L54.9678 114.372L54.8882 115.891ZM55.0474 112.853L55.8184 112.893L55.898 111.374L55.1271 111.334L55.0474 112.853ZM55.2067 109.815L55.9777 109.855L56.0573 108.336L55.2863 108.296L55.2067 109.815ZM55.3659 106.777L56.1369 106.817L56.2165 105.298L55.4456 105.258L55.3659 106.777ZM55.5252 103.738L56.2962 103.779L56.3758 102.26L55.6048 102.219L55.5252 103.738ZM55.6844 100.7L56.4554 100.741L56.535 99.2215L55.7641 99.1811L55.6844 100.7ZM55.8437 97.662L56.6147 97.7024L56.6943 96.1833L55.9233 96.1429L55.8437 97.662ZM56.0029 94.6238L56.7739 94.6642L56.8535 93.1451L56.0826 93.1047L56.0029 94.6238ZM56.1622 91.5856L56.9331 91.626L57.0128 90.1069L56.2418 90.0665L56.1622 91.5856ZM56.3214 88.5474L57.0924 88.5878L57.172 87.0687L56.4011 87.0283L56.3214 88.5474ZM56.4807 85.5092L57.2516 85.5496L57.3313 84.0305L56.5603 83.9901L56.4807 85.5092ZM56.6399 82.471L57.4109 82.5114L57.4905 80.9923L56.7195 80.9519L56.6399 82.471ZM56.7992 79.4328L57.5701 79.4732L57.6498 77.9541L56.8788 77.9137L56.7992 79.4328ZM56.9584 76.3946L57.7294 76.435L57.809 74.9159L57.038 74.8755L56.9584 76.3946ZM57.1177 73.3564L57.8886 73.3968L57.9683 71.8777L57.1973 71.8373L57.1177 73.3564ZM57.2769 70.3182L58.0479 70.3586L58.1275 68.8395L57.3565 68.7991L57.2769 70.3182ZM57.4362 67.28L58.2071 67.3204L58.2469 66.5608C58.2596 66.3195 58.278 66.0799 58.302 65.8421L57.5339 65.7645C57.5086 66.0146 57.4893 66.2667 57.476 66.5204L57.4362 67.28ZM57.7595 64.2657L58.5164 64.4179C58.6118 63.9436 58.7298 63.4781 58.8693 63.0225L58.1311 62.7965C57.9842 63.2763 57.8599 63.7664 57.7595 64.2657ZM58.6458 61.3712L59.3581 61.669C59.544 61.2243 59.7512 60.791 59.9782 60.3704L59.2987 60.0037C59.0597 60.4467 58.8416 60.9029 58.6458 61.3712ZM60.0832 58.7072L60.7233 59.1388C60.9922 58.7399 61.2801 58.3552 61.5857 57.9859L60.9909 57.4937C60.6693 57.8824 60.3662 58.2873 60.0832 58.7072ZM62.013 56.3748L62.5569 56.9226C62.8977 56.5842 63.255 56.2626 63.6272 55.959L63.1392 55.3607C62.7475 55.6802 62.3716 56.0187 62.013 56.3748ZM64.3588 54.4613L64.7861 55.1043C65.1854 54.839 65.5981 54.5928 66.0228 54.3671L65.6605 53.6854C65.2134 53.923 64.779 54.1821 64.3588 54.4613ZM67.032 53.0408L67.3256 53.7548C67.7677 53.573 68.2202 53.4123 68.682 53.2739L68.4603 52.5344C67.974 52.6802 67.4975 52.8494 67.032 53.0408ZM69.9316 52.1715L70.0791 52.9293C70.5468 52.8382 71.0221 52.7695 71.5038 52.7242L71.4316 51.9556C70.9245 52.0032 70.4241 52.0756 69.9316 52.1715ZM72.9457 51.8879C73.1971 51.8889 73.4498 51.896 73.7035 51.9093L74.4631 51.9491L74.4227 52.7201L73.6631 52.6802C73.4218 52.6676 73.1815 52.6609 72.9425 52.6599L72.9457 51.8879ZM75.9822 52.0287L75.9418 52.7997L77.4609 52.8793L77.5013 52.1083L75.9822 52.0287ZM79.0204 52.188L78.98 52.9589L80.4991 53.0386L80.5395 52.2676L79.0204 52.188ZM82.0586 52.3472L82.0182 53.1182L83.5373 53.1978L83.5777 52.4268L82.0586 52.3472ZM85.0968 52.5065L85.0564 53.2774L86.5755 53.3571L86.6159 52.5861L85.0968 52.5065ZM88.135 52.6657L88.0946 53.4367L89.6137 53.5163L89.6541 52.7453L88.135 52.6657ZM91.1732 52.825L91.1328 53.5959L92.6519 53.6755L92.6923 52.9046L91.1732 52.825ZM94.2114 52.9842L94.171 53.7552L95.6901 53.8348L95.7305 53.0638L94.2114 52.9842ZM97.2496 53.1435L97.2092 53.9144L98.7283 53.994L98.7687 53.2231L97.2496 53.1435ZM100.288 53.3027L100.247 54.0737L101.767 54.1533L101.807 53.3823L100.288 53.3027ZM103.326 53.4619L103.286 54.2329L104.805 54.3125L104.845 53.5416L103.326 53.4619ZM106.364 53.6212L106.324 54.3922L107.843 54.4718L107.883 53.7008L106.364 53.6212ZM109.402 53.7804L109.362 54.5514L110.881 54.631L110.922 53.8601L109.402 53.7804ZM112.441 53.9397L112.4 54.7107L113.919 54.7903L113.96 54.0193L112.441 53.9397ZM115.479 54.0989L115.438 54.8699L116.958 54.9495L116.998 54.1786L115.479 54.0989ZM118.517 54.2582L118.477 55.0292L119.996 55.1088L120.036 54.3378L118.517 54.2582ZM121.555 54.4174L121.515 55.1884L123.034 55.268L123.074 54.4971L121.555 54.4174ZM124.593 54.5767L124.553 55.3476L126.072 55.4273L126.113 54.6563L124.593 54.5767ZM127.632 54.7359L127.591 55.5069L129.11 55.5865L129.151 54.8156L127.632 54.7359ZM130.67 54.8952L130.629 55.6661L132.149 55.7458L132.189 54.9748L130.67 54.8952ZM133.708 55.0544L133.668 55.8254L135.187 55.905L135.227 55.134L133.708 55.0544ZM136.746 55.2137L136.706 55.9846L138.225 56.0643L138.265 55.2933L136.746 55.2137ZM139.784 55.3729L139.744 56.1439L141.263 56.2235L141.304 55.4525L139.784 55.3729ZM142.823 55.5322L142.782 56.3031L144.301 56.3828L144.342 55.6118L142.823 55.5322ZM145.861 55.6914L145.82 56.4624L147.34 56.542L147.38 55.771L145.861 55.6914ZM148.899 55.8507L148.859 56.6216L150.378 56.7013L150.418 55.9303L148.899 55.8507ZM151.937 56.0099L151.897 56.7809L153.416 56.8605L153.456 56.0895L151.937 56.0099ZM154.975 56.1692L154.935 56.9401L156.454 57.0197L156.495 56.2488L154.975 56.1692ZM158.014 56.3284L157.973 57.0994L159.492 57.179L159.533 56.408L158.014 56.3284ZM161.052 56.4877L161.011 57.2586L162.531 57.3382L162.571 56.5673L161.052 56.4877ZM164.09 56.6469L164.05 57.4179L165.569 57.4975L165.609 56.7265L164.09 56.6469ZM167.128 56.8061L167.088 57.5771L168.607 57.6567L168.647 56.8858L167.128 56.8061ZM170.166 56.9654L170.126 57.7364L170.886 57.7762C171.127 57.7888 171.367 57.8072 171.604 57.8313L171.682 57.0631C171.432 57.0379 171.18 57.0185 170.926 57.0052L170.166 56.9654ZM173.181 57.2888L173.029 58.0457C173.503 58.141 173.968 58.2591 174.424 58.3985L174.65 57.6603C174.17 57.5135 173.68 57.3892 173.181 57.2888ZM176.075 58.175L175.777 58.8873C176.222 59.0733 176.655 59.2804 177.076 59.5074L177.443 58.828C177 58.589 176.544 58.3709 176.075 58.175ZM178.739 59.6124L178.308 60.2525C178.707 60.5214 179.091 60.8094 179.461 61.115L179.953 60.5202C179.564 60.1986 179.159 59.8955 178.739 59.6124ZM181.072 61.5422L180.524 62.0861C180.862 62.427 181.184 62.7842 181.487 63.1564L182.086 62.6684C181.766 62.2767 181.428 61.9009 181.072 61.5422ZM182.985 63.8881L182.342 64.3154C182.607 64.7146 182.854 65.1273 183.079 65.5521L183.761 65.1898C183.523 64.7426 183.264 64.3082 182.985 63.8881ZM184.406 66.5612L183.692 66.8548C183.873 67.2969 184.034 67.7495 184.173 68.2112L184.912 67.9895C184.766 67.5033 184.597 67.0267 184.406 66.5612ZM185.275 69.4608L184.517 69.6084C184.608 70.0761 184.677 70.5513 184.722 71.033L185.491 70.9608C185.443 70.4537 185.371 69.9533 185.275 69.4608ZM185.559 72.4749L184.787 72.4718C184.786 72.7108 184.779 72.951 184.766 73.1924L184.726 73.9519L185.497 73.9923L185.537 73.2328C185.55 72.979 185.558 72.7263 185.559 72.4749ZM185.418 75.5114L184.647 75.471L184.567 76.9901L185.338 77.0305L185.418 75.5114ZM185.259 78.5496L184.488 78.5092L184.408 80.0283L185.179 80.0687L185.259 78.5496ZM185.099 81.5878L184.328 81.5474L184.249 83.0665L185.02 83.1069L185.099 81.5878ZM184.94 84.626L184.169 84.5856L184.089 86.1047L184.86 86.1451L184.94 84.626ZM184.781 87.6642L184.01 87.6238L183.93 89.1429L184.701 89.1833L184.781 87.6642ZM184.622 90.7024L183.851 90.662L183.771 92.1811L184.542 92.2215L184.622 90.7024ZM184.462 93.7406L183.691 93.7002L183.612 95.2193L184.383 95.2597L184.462 93.7406ZM184.303 96.7788L183.532 96.7384L183.452 98.2575L184.223 98.2979L184.303 96.7788ZM184.144 99.8171L183.373 99.7766L183.293 101.296L184.064 101.336L184.144 99.8171ZM183.985 102.855L183.214 102.815L183.134 104.334L183.905 104.374L183.985 102.855ZM183.825 105.893L183.054 105.853L182.975 107.372L183.746 107.413L183.825 105.893ZM183.666 108.932L182.895 108.891L182.815 110.41L183.586 110.451L183.666 108.932ZM183.507 111.97L182.736 111.929L182.656 113.449L183.427 113.489L183.507 111.97ZM183.348 115.008L182.577 114.968L182.497 116.487L183.268 116.527L183.348 115.008ZM183.188 118.046L182.417 118.006L182.338 119.525L183.109 119.565L183.188 118.046ZM183.029 121.084L182.258 121.044L182.178 122.563L182.949 122.604L183.029 121.084ZM182.87 124.123L182.099 124.082L182.019 125.601L182.79 125.642L182.87 124.123ZM182.711 127.161L181.94 127.12L181.86 128.64L182.631 128.68L182.711 127.161ZM182.551 130.199L181.78 130.159L181.701 131.678L182.472 131.718L182.551 130.199ZM182.392 133.237L181.621 133.197L181.541 134.716L182.312 134.756L182.392 133.237ZM182.233 136.275L181.462 136.235L181.382 137.754L182.153 137.795L182.233 136.275ZM182.074 139.314L181.303 139.273L181.223 140.792L181.994 140.833L182.074 139.314ZM181.914 142.352L181.143 142.311L181.064 143.831L181.835 143.871L181.914 142.352ZM181.755 145.39L180.984 145.35L180.904 146.869L181.675 146.909L181.755 145.39ZM181.596 148.428L180.825 148.388L180.745 149.907L181.516 149.947L181.596 148.428ZM181.437 151.467L180.666 151.426L180.586 152.945L181.357 152.986L181.437 151.467ZM181.277 154.505L180.506 154.464L180.427 155.983L181.198 156.024L181.277 154.505ZM181.118 157.543L180.347 157.502L180.267 159.022L181.038 159.062L181.118 157.543ZM180.959 160.581L180.188 160.541L180.108 162.06L180.879 162.1L180.959 160.581ZM180.8 163.619L180.029 163.579L179.949 165.098L180.72 165.138L180.8 163.619ZM180.64 166.658L179.869 166.617L179.79 168.136L180.561 168.177L180.64 166.658ZM180.481 169.696L179.71 169.655L179.67 170.415C179.658 170.656 179.639 170.896 179.615 171.134L180.383 171.211C180.409 170.961 180.428 170.709 180.441 170.455L180.481 169.696ZM180.158 172.71L179.401 172.558C179.305 173.032 179.187 173.498 179.048 173.953L179.786 174.179C179.933 173.699 180.057 173.209 180.158 172.71ZM179.271 175.604L178.559 175.307C178.373 175.751 178.166 176.185 177.939 176.605L178.619 176.972C178.858 176.529 179.076 176.073 179.271 175.604ZM177.834 178.269L177.194 177.837C176.925 178.236 176.637 178.62 176.332 178.99L176.926 179.482C177.248 179.093 177.551 178.688 177.834 178.269ZM175.904 180.601L175.36 180.053C175.019 180.392 174.662 180.713 174.29 181.017L174.778 181.615C175.17 181.295 175.546 180.957 175.904 180.601ZM173.558 182.514L173.131 181.871C172.732 182.137 172.319 182.383 171.894 182.609L172.257 183.29C172.704 183.053 173.138 182.794 173.558 182.514ZM170.885 183.935L170.592 183.221C170.15 183.403 169.697 183.563 169.235 183.702L169.457 184.441C169.943 184.296 170.42 184.126 170.885 183.935ZM167.986 184.804L167.838 184.046C167.37 184.137 166.895 184.206 166.413 184.251L166.486 185.02C166.993 184.972 167.493 184.9 167.986 184.804ZM164.972 185.088L164.975 184.316C164.736 184.315 164.495 184.308 164.254 184.295L163.495 184.256L163.454 185.027L164.214 185.066C164.467 185.08 164.72 185.087 164.972 185.088ZM161.935 184.947L161.975 184.176L160.456 184.096L160.416 184.867L161.935 184.947ZM158.897 184.788L158.937 184.017L157.418 183.937L157.378 184.708L158.897 184.788ZM155.859 184.628L155.899 183.858L154.38 183.778L154.34 184.549L155.859 184.628ZM152.82 184.469L152.861 183.698L151.342 183.619L151.301 184.39L152.82 184.469ZM149.782 184.31L149.823 183.539L148.304 183.459L148.263 184.23L149.782 184.31ZM146.744 184.151L146.784 183.38L145.265 183.3L145.225 184.071L146.744 184.151ZM143.706 183.992L143.746 183.221L142.227 183.141L142.187 183.912L143.706 183.992ZM140.668 183.832L140.708 183.061L139.189 182.982L139.149 183.753L140.668 183.832ZM137.629 183.673L137.67 182.902L136.151 182.822L136.11 183.593L137.629 183.673ZM134.591 183.514L134.632 182.743L133.113 182.663L133.072 183.434L134.591 183.514ZM131.553 183.355L131.593 182.584L130.074 182.504L130.034 183.275L131.553 183.355ZM128.515 183.195L128.555 182.424L127.036 182.345L126.996 183.116L128.515 183.195ZM125.477 183.036L125.517 182.265L123.998 182.185L123.958 182.956L125.477 183.036ZM122.438 182.877L122.479 182.106L120.96 182.026L120.919 182.797L122.438 182.877ZM119.4 182.718L119.441 181.947L117.922 181.867L117.881 182.638L119.4 182.718ZM116.362 182.558L116.402 181.787L114.883 181.708L114.843 182.479L116.362 182.558ZM113.324 182.399L113.364 181.628L111.845 181.548L111.805 182.319L113.324 182.399ZM110.286 182.24L110.326 181.469L108.807 181.389L108.766 182.16L110.286 182.24ZM107.247 182.081L107.288 181.31L105.769 181.23L105.728 182.001L107.247 182.081ZM104.209 181.921L104.25 181.15L102.73 181.071L102.69 181.842L104.209 181.921ZM101.171 181.762L101.211 180.991L99.6923 180.911L99.6519 181.682L101.171 181.762ZM98.1328 181.603L98.1732 180.832L96.6541 180.752L96.6137 181.523L98.1328 181.603ZM95.0946 181.444L95.135 180.673L93.6159 180.593L93.5755 181.364L95.0946 181.444ZM92.0564 181.284L92.0968 180.513L90.5777 180.434L90.5373 181.205L92.0564 181.284ZM89.0182 181.125L89.0586 180.354L87.5395 180.274L87.4991 181.045L89.0182 181.125ZM85.98 180.966L86.0204 180.195L84.5013 180.115L84.4609 180.886L85.98 180.966ZM82.9418 180.807L82.9822 180.036L81.4631 179.956L81.4227 180.727L82.9418 180.807ZM79.9036 180.647L79.944 179.876L78.4249 179.797L78.3845 180.568L79.9036 180.647ZM76.8654 180.488L76.9058 179.717L75.3867 179.637L75.3463 180.408L76.8654 180.488ZM73.8272 180.329L73.8676 179.558L72.3485 179.478L72.3081 180.249L73.8272 180.329ZM70.789 180.17L70.8294 179.399L69.3103 179.319L69.2698 180.09L70.789 180.17Z" fill="#F0572F"/>
<path d="M193.863 49.0782C194.023 49.0866 194.191 49.0768 194.366 49.0488C194.54 49.0209 194.698 48.9611 194.839 48.8695C195.031 48.7435 195.176 48.578 195.273 48.3728C195.371 48.1553 195.486 47.8397 195.619 47.4261L196.13 45.8202C196.293 45.3215 196.362 44.9479 196.338 44.6992C196.326 44.4512 196.199 44.2776 195.957 44.1783C195.727 44.0797 195.353 44.0106 194.836 43.9711L194.948 43.6059C195.231 43.6331 195.575 43.6635 195.982 43.6972C196.389 43.7185 196.808 43.7467 197.239 43.7817C197.683 43.8049 198.09 43.8263 198.46 43.8457C199.089 43.8787 199.67 43.9029 200.201 43.9183C200.744 43.9345 201.183 43.9451 201.516 43.9502L201.404 44.3154C201.132 44.3135 200.914 44.3454 200.75 44.411C200.598 44.4772 200.461 44.6185 200.338 44.8347C200.228 45.0516 200.099 45.385 199.952 45.8349L198.779 49.4472L198.409 49.4278C198.442 49.0337 198.401 48.7594 198.285 48.6049C198.17 48.4381 197.989 48.3482 197.743 48.3352C197.397 48.3171 197.028 48.3968 196.635 48.5741C196.256 48.7397 195.902 48.882 195.574 49.0008C195.107 49.1866 194.68 49.3065 194.294 49.3605C193.92 49.4151 193.548 49.4327 193.178 49.4133C191.512 49.326 190.218 48.8871 189.295 48.0965C188.383 47.3066 187.963 46.2394 188.034 44.8948C188.078 44.056 188.264 43.2061 188.594 42.3452C188.936 41.4849 189.4 40.6619 189.985 39.8762C190.583 39.0911 191.281 38.3979 192.079 37.7966C192.89 37.1959 193.786 36.7357 194.768 36.4161C195.75 36.0841 196.803 35.9475 197.925 36.0064C198.727 36.0484 199.337 36.1979 199.757 36.4549C200.189 36.7126 200.569 37.017 200.897 37.3681C201.072 37.5629 201.243 37.6027 201.41 37.4878C201.577 37.3728 201.774 37.0368 202.001 36.4797L202.408 36.5011C202.197 36.9725 201.976 37.5484 201.742 38.2288C201.509 38.8969 201.262 39.7189 201 40.6947L200.593 40.6734C200.631 40.428 200.662 40.1946 200.686 39.9732C200.723 39.7401 200.747 39.5126 200.759 39.2905C200.772 39.0315 200.766 38.7961 200.74 38.5845C200.726 38.3735 200.67 38.1541 200.57 37.9262C200.361 37.4452 200.022 37.0687 199.553 36.7968C199.098 36.5255 198.512 36.3711 197.797 36.3336C197.081 36.2961 196.416 36.4839 195.8 36.8969C195.198 37.2983 194.649 37.8509 194.155 38.5547C193.673 39.2469 193.262 40.017 192.921 40.865C192.58 41.7006 192.307 42.546 192.101 43.401C191.908 44.2444 191.794 45.0115 191.758 45.7023C191.7 46.8125 191.848 47.6428 192.202 48.1933C192.557 48.7438 193.111 49.0387 193.863 49.0782Z" fill="#F0572F"/>
<path d="M181.556 48.6369L177.07 39.3474C177.07 39.3474 177.088 39.237 177.125 39.0163C177.161 38.7955 177.199 38.544 177.238 38.2615C177.279 37.9668 177.317 37.709 177.353 37.4883C177.389 37.2675 177.408 37.1572 177.408 37.1572C177.53 36.7059 177.579 36.3745 177.553 36.1628C177.54 35.9395 177.424 35.785 177.206 35.6994C177.001 35.602 176.658 35.5346 176.177 35.497L176.289 35.1318C176.486 35.1545 176.726 35.1794 177.009 35.2066C177.304 35.2345 177.612 35.2568 177.933 35.2736C178.513 35.304 179.013 35.3117 179.435 35.2967L183.157 43.5813C183.157 43.5813 183.126 43.7034 183.063 43.9475C183.013 44.1923 182.941 44.5101 182.846 44.901C182.752 45.2795 182.657 45.6888 182.559 46.129C182.463 46.5569 182.367 46.9663 182.272 47.3571C182.178 47.7356 182.1 48.047 182.038 48.2911C181.988 48.5359 181.963 48.6582 181.963 48.6582L181.556 48.6369ZM187.974 35.2062C187.666 35.1901 187.371 35.2735 187.089 35.4567C186.808 35.6398 186.561 35.8681 186.348 36.1415C185.737 36.9505 185.08 38.3942 184.377 40.4726C183.675 42.5509 182.87 45.2795 181.963 48.6582L181.731 48.1266C181.959 47.3098 182.203 46.432 182.463 45.4931C182.723 44.542 182.995 43.5914 183.28 42.6416C183.577 41.6923 183.872 40.7863 184.165 39.9234C184.47 39.0611 184.776 38.2917 185.084 37.6152C185.404 36.9269 185.717 36.3805 186.023 35.976C186.275 35.6552 186.567 35.3922 186.899 35.187C187.232 34.9694 187.627 34.8726 188.083 34.8965C188.737 34.9308 189.251 35.1495 189.626 35.5526C190.001 35.9556 190.174 36.4347 190.145 36.9898C190.113 37.5819 189.885 38.0462 189.459 38.3826C189.046 38.7073 188.55 38.8544 187.97 38.824C187.477 38.7982 187.082 38.66 186.786 38.4094C186.503 38.1472 186.373 37.8002 186.395 37.3685C186.424 36.8134 186.634 36.3605 187.023 36.0098C187.413 35.6468 187.882 35.4364 188.429 35.3785C188.382 35.3266 188.317 35.286 188.232 35.2568C188.159 35.2283 188.073 35.2114 187.974 35.2062ZM172.143 49.1083C172.488 49.1264 172.795 49.0436 173.065 48.8598C173.334 48.6883 173.575 48.4536 173.788 48.1556C174.176 47.6069 174.58 46.7375 175.001 45.5473C175.435 44.3579 175.881 42.9155 176.341 41.2203C176.813 39.5257 177.294 37.6646 177.784 35.6369L178.078 36.042C177.828 37.0431 177.564 38.0622 177.287 39.099C177.023 40.1242 176.754 41.1306 176.48 42.1181C176.206 43.0933 175.93 44.0004 175.651 44.8392C175.372 45.6781 175.098 46.4059 174.831 47.0227C174.564 47.6272 174.312 48.0717 174.075 48.3561C173.837 48.6405 173.558 48.8918 173.237 49.11C172.928 49.3412 172.527 49.4439 172.034 49.418C171.38 49.3838 170.866 49.1651 170.491 48.762C170.116 48.3589 169.944 47.8798 169.973 47.3247C170.004 46.7326 170.232 46.2745 170.657 45.9505C171.083 45.6141 171.579 45.4608 172.147 45.4905C172.653 45.517 173.047 45.6614 173.33 45.9236C173.614 46.1735 173.744 46.5143 173.722 46.9461C173.693 47.5012 173.483 47.954 173.094 48.3047C172.705 48.6554 172.236 48.8658 171.688 48.9361C171.735 48.988 171.794 49.0282 171.867 49.0568C171.952 49.086 172.044 49.1032 172.143 49.1083Z" fill="#F0572F"/>
<path d="M168.658 45.9015C168.524 46.3398 168.457 46.6702 168.458 46.8929C168.458 47.1156 168.555 47.2691 168.749 47.3535C168.942 47.4379 169.248 47.5034 169.666 47.55L169.573 47.9162C169.18 47.8708 168.668 47.8317 168.039 47.7987C167.411 47.7534 166.77 47.7136 166.116 47.6793C165.45 47.6444 164.826 47.6179 164.246 47.5999C163.666 47.5695 163.197 47.5573 162.838 47.5632L162.95 47.198C163.358 47.1946 163.675 47.1618 163.901 47.0994C164.139 47.0377 164.332 46.8993 164.479 46.6844C164.627 46.4695 164.768 46.1429 164.902 45.7046L167.825 36.6551C167.973 36.2051 168.039 35.8746 168.026 35.6636C168.013 35.4403 167.909 35.2865 167.716 35.2021C167.535 35.1061 167.236 35.0409 166.817 35.0066L166.929 34.6413C167.274 34.6718 167.736 34.7084 168.315 34.7511C168.906 34.7945 169.535 34.8336 170.201 34.8685C170.855 34.9028 171.484 34.9296 172.089 34.9489C172.695 34.9683 173.226 34.9838 173.683 34.9953L173.571 35.3606C173.151 35.3509 172.821 35.3831 172.582 35.4572C172.344 35.5189 172.151 35.6572 172.004 35.8722C171.87 36.0754 171.729 36.402 171.582 36.8519L168.658 45.9015Z" fill="#F0572F"/>
<path d="M163.223 43.6874C163.139 43.8809 163.053 44.1053 162.965 44.3604C162.877 44.6156 162.789 44.8893 162.699 45.1814C162.625 45.4126 162.527 45.7476 162.405 46.1865C162.284 46.6131 162.18 47.0591 162.094 47.5246C161.466 47.467 160.764 47.4178 159.987 47.3771C159.223 47.3246 158.532 47.2823 157.915 47.2499C157.582 47.2325 157.157 47.2102 156.639 47.183C156.133 47.1565 155.571 47.1333 154.954 47.1133C154.349 47.0816 153.738 47.0557 153.121 47.0357C152.517 47.0041 151.943 46.9802 151.399 46.9641L151.493 46.5979C151.913 46.5952 152.243 46.563 152.481 46.5012C152.719 46.4395 152.912 46.3012 153.059 46.0863C153.207 45.8713 153.348 45.5447 153.482 45.1065L156.405 36.0569C156.553 35.607 156.619 35.2765 156.606 35.0655C156.593 34.8422 156.489 34.6883 156.296 34.604C156.116 34.5079 155.816 34.4427 155.397 34.4084L155.509 34.0432C155.866 34.0743 156.359 34.1125 156.987 34.1578C157.628 34.2037 158.3 34.2451 159.003 34.282C159.62 34.3143 160.206 34.3389 160.762 34.3556C161.318 34.3724 161.812 34.3859 162.244 34.3962L162.132 34.7614C161.712 34.7518 161.383 34.784 161.144 34.8581C160.906 34.9198 160.713 35.0581 160.565 35.273C160.431 35.4763 160.29 35.8029 160.143 36.2528L157.22 45.3024C157.085 45.7407 157.018 46.0711 157.019 46.2938C157.02 46.5165 157.111 46.6697 157.292 46.7534C157.486 46.8254 157.787 46.8721 158.194 46.8934L158.527 46.9109C158.946 46.9329 159.408 46.8458 159.914 46.6496C160.431 46.4541 160.943 46.116 161.451 45.6355C161.971 45.1556 162.426 44.4991 162.816 43.6661L163.223 43.6874Z" fill="#F0572F"/>
<path d="M151.803 43.0883C151.719 43.2818 151.633 43.5061 151.545 43.7613C151.458 44.0165 151.369 44.2901 151.279 44.5823C151.205 44.8134 151.108 45.1485 150.986 45.5874C150.864 46.0139 150.76 46.46 150.674 46.9255C150.046 46.8679 149.344 46.8187 148.567 46.7779C147.803 46.7255 147.112 46.6831 146.495 46.6508C146.162 46.6334 145.737 46.611 145.219 46.5839C144.713 46.5574 144.151 46.5341 143.534 46.5141C142.929 46.4825 142.319 46.4566 141.701 46.4366C141.097 46.4049 140.523 46.381 139.979 46.3649L140.073 45.9987C140.493 45.9961 140.823 45.9639 141.061 45.9021C141.299 45.8404 141.492 45.7021 141.64 45.4871C141.787 45.2722 141.928 44.9456 142.062 44.5074L144.985 35.4578C145.133 35.0078 145.2 34.6774 145.186 34.4664C145.173 34.243 145.07 34.0892 144.876 34.0048C144.696 33.9088 144.396 33.8436 143.977 33.8093L144.089 33.4441C144.446 33.4752 144.939 33.5134 145.567 33.5587C146.208 33.6046 146.88 33.646 147.583 33.6829C148.2 33.7152 148.786 33.7398 149.342 33.7565C149.898 33.7733 150.392 33.7868 150.824 33.7971L150.712 34.1623C150.292 34.1527 149.963 34.1849 149.724 34.2589C149.486 34.3207 149.293 34.459 149.146 34.6739C149.011 34.8772 148.87 35.2037 148.723 35.6537L145.8 44.7033C145.665 45.1415 145.599 45.472 145.599 45.6947C145.6 45.9174 145.691 46.0706 145.872 46.1543C146.066 46.2263 146.367 46.273 146.774 46.2943L147.107 46.3118C147.526 46.3338 147.989 46.2467 148.494 46.0505C149.011 45.855 149.523 45.5169 150.031 45.0364C150.551 44.5565 151.006 43.9 151.396 43.067L151.803 43.0883Z" fill="#F0572F"/>
<path d="M129.486 43.3846C129.128 43.8359 128.96 44.2106 128.982 44.5085C129.004 44.7942 129.165 45.0191 129.466 45.1833C129.779 45.3358 130.17 45.4429 130.636 45.5044L130.543 45.8706C129.903 45.8123 129.392 45.7732 129.009 45.7531C128.627 45.7207 128.264 45.6955 127.918 45.6774C127.659 45.6638 127.443 45.6587 127.27 45.6619C127.097 45.6529 126.911 45.6555 126.713 45.6699L126.806 45.3037C127.057 45.2426 127.291 45.1435 127.508 45.0065C127.713 44.8688 127.947 44.6584 128.209 44.3753C128.472 44.0798 128.795 43.6948 129.179 43.2201L137.285 32.9949C137.506 33.0313 137.739 33.0559 137.986 33.0688C138.245 33.0824 138.474 33.082 138.673 33.0677L138.803 44.745C138.817 45.191 138.911 45.5052 139.087 45.6876C139.276 45.8583 139.463 45.9547 139.647 45.9767L139.554 46.3429C139.198 46.2995 138.717 46.262 138.113 46.2303C137.509 46.1863 136.948 46.1507 136.43 46.1235C135.801 46.0905 135.202 46.0653 134.634 46.0479C134.067 46.0182 133.616 46.0069 133.281 46.0141L133.375 45.648C133.968 45.6543 134.393 45.5715 134.65 45.3994C134.919 45.2156 135.052 44.8081 135.048 44.1771L135.047 36.0504L136.084 35.0286L129.486 43.3846ZM131.525 40.5785L136.928 40.8617L136.761 41.224L131.173 40.9311L131.525 40.5785Z" fill="#F0572F"/>
<path d="M123.441 39.0785L123.535 38.7123L127.494 38.9198L127.401 39.286L123.441 39.0785ZM130.176 36.6113C130.296 35.7393 130.276 35.0456 130.118 34.5302C129.972 34.0154 129.725 33.6437 129.378 33.4153C129.032 33.1868 128.612 33.0597 128.118 33.0338L128.063 33.0309C127.705 33.0121 127.419 33.0343 127.206 33.0973C127.005 33.1486 126.837 33.2821 126.702 33.4977C126.58 33.7015 126.452 34.0288 126.317 34.4794L123.393 43.529C123.259 43.9672 123.205 44.2983 123.23 44.5223C123.255 44.7463 123.389 44.9017 123.632 44.9887C123.875 45.0756 124.255 45.145 124.772 45.1968L124.678 45.563C124.26 45.5164 123.712 45.4753 123.033 45.4397C122.368 45.3925 121.69 45.3507 120.999 45.3145C120.296 45.2777 119.636 45.2492 119.018 45.2293C118.414 45.1976 117.926 45.1844 117.555 45.1896L117.648 44.8235C118.069 44.8208 118.398 44.7886 118.636 44.7268C118.875 44.6651 119.067 44.5268 119.215 44.3119C119.362 44.0969 119.503 43.7703 119.637 43.3321L122.561 34.2825C122.708 33.8325 122.775 33.5021 122.761 33.2911C122.748 33.0677 122.645 32.9139 122.451 32.8295C122.271 32.7335 121.971 32.6683 121.552 32.634L121.664 32.2688C122.194 32.3089 122.761 32.351 123.365 32.395C123.969 32.4267 124.567 32.4642 125.159 32.5076C125.763 32.5393 126.318 32.5684 126.824 32.5949C127.33 32.6214 127.749 32.6434 128.082 32.6608C128.649 32.6906 129.285 32.7239 129.988 32.7607C130.692 32.7852 131.334 32.8004 131.915 32.8061C131.732 33.2294 131.583 33.5927 131.468 33.8959C131.354 34.1868 131.231 34.539 131.098 34.9526C130.994 35.2811 130.897 35.5853 130.808 35.8652C130.72 36.145 130.644 36.4008 130.583 36.6326L130.176 36.6113ZM125.44 38.8122C125.724 38.8271 125.998 38.7919 126.262 38.7068C126.526 38.6217 126.774 38.4986 127.005 38.3376C127.237 38.1642 127.452 37.9528 127.651 37.7035C127.862 37.4548 128.043 37.1798 128.195 36.8785L128.602 36.8999C128.416 37.3725 128.272 37.767 128.169 38.0832C128.079 38.3877 127.974 38.7347 127.855 39.1243C127.748 39.5021 127.634 39.9105 127.512 40.3494C127.403 40.7767 127.277 41.2957 127.134 41.9067L126.726 41.8854C126.749 41.4536 126.732 41.0754 126.675 40.7508C126.617 40.4262 126.521 40.149 126.384 39.9192C126.248 39.6771 126.079 39.495 125.875 39.373C125.671 39.251 125.433 39.1829 125.162 39.1687L125.44 38.8122Z" fill="#F0572F"/>
<path d="M115.117 31.7958C114.977 32.1101 114.786 32.5701 114.544 33.1759C114.303 33.7693 114.064 34.5485 113.828 35.5133L113.458 35.4939C113.504 35.3231 113.538 35.1455 113.56 34.9612C113.594 34.7774 113.615 34.6177 113.622 34.482C113.648 33.9763 113.56 33.5449 113.356 33.1878C113.165 32.8191 112.877 32.5319 112.492 32.3262C112.107 32.1081 111.638 31.9845 111.083 31.9554C110.552 31.9276 110.076 32.0388 109.655 32.2888C109.246 32.5395 109.024 32.9917 108.99 33.6455C108.968 34.0649 109.045 34.4833 109.221 34.9007C109.398 35.3058 109.63 35.7138 109.918 36.1247C110.218 36.5363 110.53 36.9546 110.854 37.3798C111.191 37.7933 111.503 38.2178 111.789 38.6534C112.088 39.0773 112.325 39.5226 112.498 39.9893C112.672 40.4561 112.745 40.9423 112.719 41.4481C112.683 42.1266 112.474 42.6969 112.091 43.1593C111.709 43.6093 111.232 43.9678 110.662 44.2347C110.091 44.5017 109.494 44.6868 108.87 44.7902C108.246 44.8936 107.669 44.9313 107.138 44.9035C106.497 44.8699 105.974 44.8116 105.57 44.7286C105.167 44.6456 104.82 44.5346 104.53 44.3957C104.241 44.2445 103.929 44.0674 103.593 43.8642C103.474 43.7838 103.36 43.7159 103.252 43.6608C103.144 43.5933 103.053 43.5576 102.979 43.5537C102.818 43.5453 102.685 43.6064 102.58 43.7369C102.474 43.8674 102.324 44.1255 102.131 44.5112L101.761 44.4918C101.886 44.2262 102.02 43.9178 102.162 43.5665C102.304 43.2153 102.463 42.766 102.641 42.2186C102.818 41.659 103.022 40.9584 103.252 40.117L103.622 40.1364C103.55 40.3182 103.489 40.5499 103.437 40.8317C103.398 41.1018 103.379 41.3482 103.38 41.5709C103.369 42.4733 103.618 43.1666 104.124 43.6508C104.631 44.1227 105.341 44.3826 106.254 44.4304C107.118 44.4757 107.7 44.3454 108 44.0395C108.314 43.722 108.483 43.3227 108.508 42.8416C108.535 42.3235 108.468 41.8376 108.306 41.3838C108.157 40.9183 107.952 40.4808 107.689 40.0712C107.426 39.6493 107.145 39.2387 106.844 38.8395C106.556 38.4286 106.281 38.0183 106.018 37.6087C105.755 37.1991 105.542 36.7736 105.38 36.3321C105.23 35.879 105.169 35.4057 105.194 34.9123C105.229 34.2585 105.406 33.705 105.727 33.2518C106.06 32.7992 106.481 32.4317 106.991 32.1491C107.5 31.8666 108.043 31.6662 108.618 31.5479C109.193 31.4296 109.74 31.3841 110.258 31.4112C111.133 31.4571 111.825 31.6047 112.331 31.8539C112.838 32.0907 113.224 32.2841 113.488 32.434C113.584 32.4886 113.692 32.5499 113.812 32.618C113.933 32.6862 114.023 32.7219 114.085 32.7251C114.258 32.7341 114.478 32.4179 114.747 31.7764L115.117 31.7958Z" fill="#F0572F"/>
<path d="M95.4475 37.6113L95.5409 37.2451L99.5006 37.4526L99.4072 37.8188L95.4475 37.6113ZM97.4467 37.345C97.7428 37.3605 98.0294 37.3198 98.3066 37.2231C98.5961 37.1269 98.8571 36.986 99.0895 36.8002C99.3342 36.6152 99.5494 36.4038 99.735 36.1661C99.9329 35.9291 100.088 35.6775 100.201 35.4113L100.608 35.4326C100.423 35.9053 100.278 36.2997 100.175 36.6159C100.085 36.9205 99.9803 37.2675 99.8609 37.6571C99.7863 37.9005 99.7192 38.1197 99.6595 38.3144C99.6005 38.4969 99.5401 38.704 99.4785 38.9358C99.4292 39.1682 99.3569 39.486 99.2615 39.8892L98.8545 39.8679C98.8655 39.6582 98.8462 39.4345 98.7969 39.1969C98.7604 38.9476 98.6799 38.7146 98.5552 38.4978C98.4305 38.2809 98.2545 38.0985 98.0273 37.9506C97.8 37.8026 97.5137 37.7196 97.1683 37.7015L97.4467 37.345ZM102.581 34.6083C102.632 33.8812 102.582 33.3034 102.431 32.8749C102.281 32.4341 102.044 32.1187 101.72 31.9285C101.396 31.726 100.988 31.6118 100.495 31.586L100.439 31.5831C100.032 31.5617 99.7093 31.5819 99.4711 31.6437C99.2458 31.6937 99.0657 31.8265 98.9307 32.0421C98.7963 32.2453 98.6555 32.5719 98.5082 33.0219L95.5848 42.0714C95.4505 42.5097 95.3837 42.8402 95.3844 43.0628C95.3851 43.2855 95.476 43.4387 95.6571 43.5224C95.8513 43.5945 96.1519 43.6411 96.559 43.6625L96.7995 43.6751C97.3916 43.7061 97.9214 43.6288 98.3888 43.443C98.8562 43.2572 99.2995 42.9403 99.7188 42.4922C100.151 42.0325 100.586 41.4059 101.023 40.6124L101.43 40.6338C101.36 40.7909 101.282 40.9847 101.196 41.2152C101.122 41.4463 101.047 41.6898 100.972 41.9456C100.898 42.1768 100.8 42.5118 100.678 42.9507C100.557 43.3773 100.453 43.8233 100.367 44.2888C99.739 44.2312 99.0365 44.182 98.2594 44.1412C97.4952 44.0888 96.8048 44.0464 96.188 44.0141C95.8549 43.9967 95.4355 43.9747 94.9298 43.9482C94.424 43.9217 93.8686 43.8987 93.2635 43.8794C92.6714 43.8484 92.0728 43.8232 91.4677 43.8038C90.8633 43.7721 90.2894 43.7482 89.746 43.7321L89.8394 43.3659C90.2601 43.3632 90.5896 43.331 90.8278 43.2693C91.0661 43.2076 91.2588 43.0693 91.4062 42.8543C91.5535 42.6394 91.6943 42.3128 91.8286 41.8746L94.7521 32.825C94.8994 32.375 94.9662 32.0446 94.9525 31.8336C94.9395 31.6102 94.8362 31.4564 94.6427 31.372C94.4622 31.276 94.1626 31.2108 93.7438 31.1765L93.8557 30.8113C94.3855 30.8514 94.9523 30.8935 95.5561 30.9375C96.1605 30.9692 96.7585 31.0067 97.3499 31.0501C97.9544 31.0818 98.5095 31.1108 99.0152 31.1374C99.521 31.1639 99.9404 31.1858 100.273 31.2033C100.841 31.233 101.476 31.2663 102.179 31.3032C102.883 31.3277 103.525 31.3428 104.107 31.3486C103.924 31.7719 103.768 32.1348 103.641 32.4374C103.527 32.7283 103.41 33.0808 103.289 33.4951C103.228 33.7145 103.168 33.9216 103.108 34.1164C103.061 34.3119 103.021 34.4829 102.988 34.6297L102.581 34.6083Z" fill="#F0572F"/>
<path d="M90.6809 33.0754C91.0275 32.5988 91.1836 32.2174 91.1491 31.9311C91.127 31.6454 90.9714 31.427 90.6825 31.2758C90.3936 31.1246 90.0095 31.0178 89.5304 30.9556L89.6423 30.5904C89.765 30.6092 89.9864 30.6332 90.3065 30.6623C90.6395 30.6798 90.9908 30.7044 91.3602 30.7361C91.7426 30.7561 92.0448 30.772 92.2668 30.7836C92.5259 30.7972 92.7729 30.804 93.0079 30.8039C93.243 30.8039 93.4595 30.8028 93.6575 30.8009L93.5456 31.1661C93.245 31.2369 92.9675 31.3399 92.713 31.475C92.4715 31.5984 92.2135 31.8013 91.9389 32.0838C91.665 32.3539 91.348 32.7393 90.9877 33.2399L83.5293 43.499C83.2963 43.4621 83.0625 43.4375 82.8282 43.4252C82.6061 43.4135 82.3773 43.4139 82.1416 43.4263L81.2899 31.7111C81.2638 31.2645 81.1501 30.9555 80.9488 30.7841C80.7482 30.6004 80.5618 30.4979 80.3898 30.4765L80.5017 30.1113C80.8588 30.1424 81.3207 30.179 81.8875 30.221C82.4666 30.2638 83.0399 30.3 83.6073 30.3297C84.2734 30.3647 84.8844 30.3905 85.4401 30.4073C86.0082 30.4247 86.4714 30.4366 86.8298 30.443L86.7179 30.8082C86.3225 30.7998 86.0054 30.8327 85.7665 30.9068C85.5276 30.9808 85.3594 31.1204 85.2621 31.3256C85.1771 31.5314 85.1418 31.8512 85.1562 32.2849L85.6166 40.4914L84.7432 41.2249L90.6809 33.0754Z" fill="#F0572F"/>
<path d="M67.9594 40.16C67.6018 40.6113 67.4337 40.9859 67.4552 41.2839C67.4774 41.5696 67.6388 41.7945 67.9394 41.9587C68.253 42.1112 68.6432 42.2182 69.11 42.2798L69.0166 42.646C68.3764 42.5877 67.8652 42.5485 67.4828 42.5285C67.101 42.4961 66.7374 42.4709 66.392 42.4528C66.133 42.4392 65.9168 42.434 65.7435 42.4373C65.5708 42.4283 65.3851 42.4309 65.1864 42.4452L65.2798 42.0791C65.5304 42.018 65.7645 41.9189 65.9819 41.7819C66.187 41.6442 66.4207 41.4338 66.6829 41.1507C66.9458 40.8552 67.2691 40.4702 67.6526 39.9955L75.7587 29.7703C75.9794 29.8067 76.2131 29.8313 76.4598 29.8442C76.7189 29.8578 76.9477 29.8574 77.1464 29.8431L77.2765 41.5204C77.2902 41.9664 77.3851 42.2806 77.5611 42.463C77.75 42.6337 77.9367 42.7301 78.1211 42.7521L78.0277 43.1183C77.6712 43.0749 77.1908 43.0373 76.5864 43.0057C75.9826 42.9616 75.4216 42.9261 74.9035 42.8989C74.2744 42.8659 73.6758 42.8407 73.1078 42.8233C72.5403 42.7936 72.0894 42.7823 71.7551 42.7895L71.8485 42.4234C72.4419 42.4297 72.8668 42.3469 73.1232 42.1747C73.3926 41.991 73.5253 41.5835 73.5212 40.9525L73.5204 32.8258L74.5574 31.804L67.9594 40.16ZM69.999 37.3539L75.402 37.6371L75.2346 37.9994L69.6466 37.7065L69.999 37.3539Z" fill="#F0572F"/>
<path d="M59.9943 35.7529L60.0878 35.3867L64.0474 35.5942L63.954 35.9604L59.9943 35.7529ZM61.9936 35.4866C62.2896 35.5021 62.5763 35.4615 62.8535 35.3647C63.143 35.2685 63.404 35.1276 63.6363 34.9418C63.8811 34.7568 64.0962 34.5454 64.2819 34.3077C64.4798 34.0707 64.6353 33.8191 64.7482 33.5529L65.1552 33.5742C64.9697 34.0469 64.8253 34.4414 64.7221 34.7575C64.632 35.0621 64.5272 35.4091 64.4078 35.7987C64.3332 36.0421 64.2661 36.2613 64.2064 36.456C64.1473 36.6385 64.087 36.8456 64.0254 37.0774C63.9761 37.3098 63.9038 37.6276 63.8084 38.0308L63.4013 38.0095C63.4123 37.7998 63.3931 37.5761 63.3437 37.3385C63.3073 37.0892 63.2268 36.8562 63.1021 36.6394C62.9774 36.4225 62.8014 36.2402 62.5741 36.0922C62.3469 35.9442 62.0605 35.8612 61.7151 35.8431L61.9936 35.4866ZM67.1281 32.7499C67.1786 32.0228 67.1284 31.445 66.9777 31.0165C66.8277 30.5757 66.5906 30.2603 66.2666 30.0701C65.9433 29.8676 65.5349 29.7534 65.0414 29.7276L64.9859 29.7247C64.5789 29.7033 64.2562 29.7235 64.0179 29.7853C63.7927 29.8353 63.6125 29.9681 63.4776 30.1837C63.3432 30.3869 63.2024 30.7135 63.0551 31.1635L60.1316 40.213C59.9973 40.6513 59.9305 40.9818 59.9312 41.2044C59.9319 41.4271 60.0229 41.5803 60.204 41.664C60.3982 41.7361 60.6988 41.7827 61.1058 41.8041L61.3464 41.8167C61.9385 41.8477 62.4682 41.7704 62.9356 41.5846C63.403 41.3988 63.8464 41.0819 64.2657 40.6338C64.698 40.1741 65.1328 39.5475 65.5702 38.754L65.9773 38.7754C65.9072 38.9325 65.829 39.1263 65.7427 39.3568C65.6688 39.5879 65.5942 39.8314 65.5189 40.0872C65.445 40.3184 65.347 40.6534 65.225 41.0923C65.1037 41.5189 64.9999 41.9649 64.9137 42.4304C64.2859 42.3728 63.5834 42.3236 62.8063 42.2828C62.0421 42.2304 61.3516 42.188 60.7349 42.1557C60.4018 42.1383 59.9824 42.1163 59.4767 42.0898C58.9709 42.0633 58.4155 42.0403 57.8104 42.021C57.2183 41.99 56.6197 41.9648 56.0146 41.9454C55.4102 41.9137 54.8362 41.8898 54.2928 41.8737L54.3862 41.5075C54.8069 41.5048 55.1364 41.4726 55.3747 41.4109C55.6129 41.3492 55.8057 41.2109 55.9531 40.9959C56.1004 40.781 56.2412 40.4544 56.3755 40.0162L59.299 30.9666C59.4462 30.5166 59.513 30.1862 59.4994 29.9752C59.4863 29.7518 59.3831 29.598 59.1896 29.5136C59.0091 29.4176 58.7094 29.3524 58.2907 29.3181L58.4026 28.9529C58.9324 28.993 59.4992 29.0351 60.1029 29.0791C60.7074 29.1108 61.3053 29.1483 61.8968 29.1917C62.5012 29.2234 63.0563 29.2524 63.5621 29.279C64.0678 29.3055 64.4872 29.3274 64.8203 29.3449C65.3877 29.3746 66.023 29.4079 66.7261 29.4448C67.4299 29.4693 68.0723 29.4844 68.6534 29.4902C68.4704 29.9135 68.3153 30.2764 68.1881 30.579C68.0739 30.8699 67.9565 31.2224 67.8358 31.6367C67.7748 31.8561 67.7145 32.0633 67.6548 32.258C67.6075 32.4535 67.5676 32.6245 67.5351 32.7713L67.1281 32.7499Z" fill="#F0572F"/>
<path d="M54.6966 37.9985C54.6123 38.192 54.5263 38.4163 54.4387 38.6715C54.3511 38.9266 54.2625 39.2003 54.173 39.4925C54.099 39.7236 54.0011 40.0586 53.8791 40.4975C53.7578 40.9241 53.654 41.3701 53.5678 41.8357C52.94 41.778 52.2375 41.7288 51.4604 41.6881C50.6962 41.6357 50.0057 41.5933 49.389 41.561C49.0559 41.5435 48.6303 41.5212 48.1122 41.494C47.6065 41.4675 47.0449 41.4443 46.4275 41.4243C45.823 41.3926 45.2121 41.3668 44.5947 41.3468C43.9902 41.3151 43.4163 41.2912 42.8729 41.2751L42.9663 40.9089C43.387 40.9062 43.7165 40.874 43.9548 40.8123C44.193 40.7506 44.3858 40.6122 44.5331 40.3973C44.6805 40.1824 44.8213 39.8558 44.9556 39.4175L47.879 30.3679C48.0263 29.918 48.0931 29.5875 48.0794 29.3765C48.0664 29.1532 47.9631 28.9993 47.7697 28.915C47.5891 28.8189 47.2895 28.7538 46.8708 28.7194L46.9827 28.3542C47.3397 28.3853 47.8325 28.4235 48.461 28.4688C49.1018 28.5148 49.7737 28.5562 50.4769 28.593C51.0936 28.6254 51.6799 28.6499 52.2356 28.6667C52.7914 28.6834 53.2855 28.697 53.7178 28.7073L53.6059 29.0725C53.1859 29.0628 52.8564 29.095 52.6175 29.1691C52.3792 29.2308 52.1865 29.3691 52.0391 29.5841C51.9048 29.7873 51.764 30.1139 51.6167 30.5638L48.6932 39.6134C48.5589 40.0517 48.4921 40.3822 48.4928 40.6048C48.4935 40.8275 48.5844 40.9807 48.7656 41.0644C48.9597 41.1365 49.2603 41.1831 49.6674 41.2045L50.0005 41.2219C50.4199 41.2439 50.8821 41.1568 51.3872 40.9606C51.9046 40.7651 52.417 40.4271 52.9246 39.9465C53.4446 39.4667 53.8995 38.8102 54.2895 37.9771L54.6966 37.9985Z" fill="#F0572F"/>
<path d="M185.399 210.556C185.56 210.565 185.727 210.555 185.902 210.527C186.076 210.499 186.234 210.439 186.375 210.348C186.567 210.222 186.712 210.056 186.809 209.851C186.907 209.633 187.023 209.318 187.156 208.904L187.667 207.298C187.829 206.8 187.898 206.426 187.874 206.177C187.862 205.929 187.735 205.756 187.493 205.656C187.263 205.558 186.889 205.489 186.372 205.449L186.484 205.084C186.767 205.111 187.112 205.142 187.518 205.175C187.925 205.197 188.344 205.225 188.775 205.26C189.219 205.283 189.626 205.304 189.997 205.324C190.626 205.357 191.206 205.381 191.737 205.396C192.28 205.412 192.719 205.423 193.052 205.428L192.941 205.793C192.669 205.792 192.45 205.823 192.286 205.889C192.134 205.955 191.997 206.097 191.874 206.313C191.764 206.53 191.635 206.863 191.488 207.313L190.315 210.925L189.945 210.906C189.978 210.512 189.937 210.237 189.821 210.083C189.706 209.916 189.525 209.826 189.279 209.813C188.933 209.795 188.564 209.875 188.172 210.052C187.792 210.218 187.438 210.36 187.11 210.479C186.643 210.665 186.216 210.785 185.83 210.839C185.456 210.893 185.084 210.911 184.714 210.891C183.048 210.804 181.754 210.365 180.831 209.575C179.92 208.785 179.499 207.717 179.57 206.373C179.614 205.534 179.801 204.684 180.13 203.823C180.472 202.963 180.936 202.14 181.521 201.354C182.119 200.569 182.817 199.876 183.616 199.275C184.426 198.674 185.322 198.214 186.304 197.894C187.286 197.562 188.339 197.426 189.461 197.484C190.263 197.526 190.874 197.676 191.293 197.933C191.725 198.191 192.105 198.495 192.433 198.846C192.608 199.041 192.779 199.081 192.946 198.966C193.113 198.851 193.31 198.515 193.537 197.958L193.944 197.979C193.734 198.45 193.512 199.026 193.278 199.707C193.045 200.375 192.798 201.197 192.537 202.173L192.13 202.151C192.167 201.906 192.198 201.673 192.222 201.451C192.259 201.218 192.283 200.991 192.295 200.769C192.308 200.509 192.302 200.274 192.276 200.063C192.262 199.852 192.206 199.632 192.107 199.404C191.897 198.923 191.558 198.547 191.09 198.275C190.634 198.004 190.048 197.849 189.333 197.812C188.617 197.774 187.952 197.962 187.336 198.375C186.734 198.776 186.186 199.329 185.691 200.033C185.209 200.725 184.798 201.495 184.457 202.343C184.116 203.179 183.843 204.024 183.637 204.879C183.445 205.722 183.33 206.49 183.294 207.18C183.236 208.291 183.384 209.121 183.739 209.671C184.093 210.222 184.647 210.517 185.399 210.556Z" fill="#F0572F"/>
<path d="M173.092 210.115L168.606 200.825C168.606 200.825 168.624 200.715 168.661 200.494C168.697 200.274 168.735 200.022 168.775 199.74C168.815 199.445 168.853 199.187 168.889 198.966C168.926 198.746 168.944 198.635 168.944 198.635C169.066 198.184 169.115 197.853 169.089 197.641C169.076 197.418 168.96 197.263 168.742 197.177C168.537 197.08 168.194 197.013 167.713 196.975L167.825 196.61C168.022 196.633 168.262 196.657 168.545 196.685C168.84 196.713 169.149 196.735 169.469 196.752C170.049 196.782 170.55 196.79 170.971 196.775L174.693 205.059C174.693 205.059 174.662 205.181 174.599 205.426C174.549 205.67 174.477 205.988 174.382 206.379C174.288 206.758 174.193 207.167 174.095 207.607C173.999 208.035 173.903 208.444 173.808 208.835C173.714 209.214 173.636 209.525 173.574 209.769C173.524 210.014 173.499 210.136 173.499 210.136L173.092 210.115ZM179.511 196.684C179.202 196.668 178.907 196.752 178.625 196.935C178.344 197.118 178.097 197.346 177.884 197.619C177.273 198.429 176.616 199.872 175.913 201.951C175.211 204.029 174.406 206.757 173.499 210.136L173.267 209.605C173.495 208.788 173.739 207.91 173.999 206.971C174.259 206.02 174.531 205.069 174.816 204.12C175.113 203.17 175.408 202.264 175.701 201.401C176.006 200.539 176.312 199.77 176.62 199.093C176.94 198.405 177.253 197.859 177.559 197.454C177.811 197.133 178.103 196.87 178.435 196.665C178.768 196.447 179.163 196.351 179.62 196.375C180.273 196.409 180.788 196.627 181.162 197.031C181.537 197.434 181.71 197.913 181.681 198.468C181.65 199.06 181.421 199.524 180.995 199.861C180.583 200.185 180.086 200.332 179.506 200.302C179.013 200.276 178.618 200.138 178.322 199.887C178.039 199.625 177.909 199.278 177.931 198.847C177.961 198.291 178.17 197.839 178.559 197.488C178.949 197.125 179.418 196.914 179.965 196.857C179.919 196.805 179.853 196.764 179.768 196.735C179.695 196.706 179.609 196.689 179.511 196.684ZM163.679 210.586C164.024 210.604 164.332 210.522 164.601 210.338C164.87 210.166 165.111 209.932 165.324 209.634C165.712 209.085 166.116 208.215 166.537 207.025C166.971 205.836 167.417 204.394 167.877 202.698C168.35 201.004 168.831 199.143 169.32 197.115L169.615 197.52C169.364 198.521 169.1 199.54 168.823 200.577C168.559 201.602 168.29 202.609 168.016 203.596C167.742 204.571 167.466 205.478 167.187 206.317C166.908 207.156 166.635 207.884 166.367 208.501C166.1 209.105 165.848 209.55 165.611 209.834C165.373 210.119 165.094 210.37 164.773 210.588C164.464 210.819 164.063 210.922 163.57 210.896C162.916 210.862 162.402 210.643 162.027 210.24C161.652 209.837 161.48 209.358 161.509 208.803C161.54 208.211 161.768 207.753 162.193 207.429C162.619 207.092 163.116 206.939 163.683 206.969C164.189 206.995 164.583 207.139 164.866 207.402C165.15 207.652 165.281 207.992 165.258 208.424C165.229 208.979 165.02 209.432 164.63 209.783C164.241 210.133 163.772 210.344 163.224 210.414C163.271 210.466 163.331 210.506 163.403 210.535C163.488 210.564 163.58 210.581 163.679 210.586Z" fill="#F0572F"/>
<path d="M160.194 207.38C160.06 207.818 159.993 208.148 159.994 208.371C159.994 208.594 160.092 208.747 160.285 208.832C160.479 208.916 160.784 208.981 161.202 209.028L161.109 209.394C160.716 209.349 160.204 209.31 159.575 209.277C158.947 209.231 158.306 209.192 157.652 209.157C156.986 209.122 156.362 209.096 155.782 209.078C155.202 209.048 154.733 209.035 154.374 209.041L154.486 208.676C154.894 208.673 155.211 208.64 155.437 208.577C155.675 208.516 155.868 208.377 156.016 208.162C156.163 207.948 156.304 207.621 156.438 207.183L159.362 198.133C159.509 197.683 159.576 197.353 159.562 197.142C159.549 196.918 159.446 196.764 159.252 196.68C159.072 196.584 158.772 196.519 158.353 196.485L158.465 196.119C158.81 196.15 159.272 196.186 159.851 196.229C160.442 196.272 161.071 196.312 161.737 196.347C162.391 196.381 163.021 196.408 163.626 196.427C164.231 196.446 164.762 196.462 165.219 196.473L165.107 196.839C164.687 196.829 164.357 196.861 164.118 196.935C163.88 196.997 163.687 197.135 163.54 197.35C163.406 197.553 163.265 197.88 163.118 198.33L160.194 207.38Z" fill="#F0572F"/>
<path d="M154.759 205.165C154.675 205.358 154.589 205.583 154.501 205.838C154.414 206.093 154.325 206.367 154.235 206.659C154.162 206.89 154.064 207.225 153.942 207.664C153.82 208.091 153.717 208.537 153.63 209.002C153.002 208.945 152.3 208.895 151.523 208.855C150.759 208.802 150.068 208.76 149.451 208.727C149.118 208.71 148.693 208.688 148.175 208.661C147.669 208.634 147.107 208.611 146.49 208.591C145.886 208.559 145.275 208.533 144.657 208.513C144.053 208.482 143.479 208.458 142.935 208.442L143.029 208.075C143.45 208.073 143.779 208.041 144.017 207.979C144.256 207.917 144.448 207.779 144.596 207.564C144.743 207.349 144.884 207.022 145.018 206.584L147.942 197.534C148.089 197.084 148.156 196.754 148.142 196.543C148.129 196.32 148.026 196.166 147.832 196.081C147.652 195.985 147.352 195.92 146.933 195.886L147.045 195.521C147.402 195.552 147.895 195.59 148.523 195.635C149.164 195.681 149.836 195.723 150.539 195.76C151.156 195.792 151.742 195.816 152.298 195.833C152.854 195.85 153.348 195.863 153.78 195.874L153.668 196.239C153.248 196.229 152.919 196.262 152.68 196.336C152.442 196.397 152.249 196.536 152.102 196.751C151.967 196.954 151.826 197.28 151.679 197.73L148.756 206.78C148.621 207.218 148.555 207.549 148.555 207.771C148.556 207.994 148.647 208.147 148.828 208.231C149.022 208.303 149.323 208.35 149.73 208.371L150.063 208.388C150.482 208.41 150.945 208.323 151.45 208.127C151.967 207.932 152.48 207.594 152.987 207.113C153.507 206.633 153.962 205.977 154.352 205.144L154.759 205.165Z" fill="#F0572F"/>
<path d="M143.339 204.566C143.255 204.76 143.169 204.984 143.081 205.239C142.994 205.494 142.905 205.768 142.816 206.06C142.742 206.291 142.644 206.626 142.522 207.065C142.4 207.492 142.297 207.938 142.21 208.404C141.583 208.346 140.88 208.297 140.103 208.256C139.339 208.204 138.648 208.161 138.032 208.129C137.698 208.111 137.273 208.089 136.755 208.062C136.249 208.035 135.687 208.012 135.07 207.992C134.466 207.96 133.855 207.935 133.237 207.915C132.633 207.883 132.059 207.859 131.515 207.843L131.609 207.477C132.03 207.474 132.359 207.442 132.597 207.38C132.836 207.318 133.028 207.18 133.176 206.965C133.323 206.75 133.464 206.424 133.598 205.985L136.522 196.936C136.669 196.486 136.736 196.155 136.722 195.944C136.709 195.721 136.606 195.567 136.412 195.483C136.232 195.387 135.932 195.322 135.513 195.287L135.625 194.922C135.982 194.953 136.475 194.991 137.104 195.037C137.744 195.083 138.416 195.124 139.119 195.161C139.736 195.193 140.322 195.218 140.878 195.235C141.434 195.251 141.928 195.265 142.36 195.275L142.249 195.64C141.828 195.631 141.499 195.663 141.26 195.737C141.022 195.799 140.829 195.937 140.682 196.152C140.547 196.355 140.407 196.682 140.259 197.132L137.336 206.181C137.202 206.62 137.135 206.95 137.135 207.173C137.136 207.395 137.227 207.549 137.408 207.632C137.602 207.704 137.903 207.751 138.31 207.772L138.643 207.79C139.062 207.812 139.525 207.725 140.03 207.529C140.547 207.333 141.06 206.995 141.567 206.514C142.087 206.035 142.542 205.378 142.932 204.545L143.339 204.566Z" fill="#F0572F"/>
<path d="M121.022 204.863C120.664 205.314 120.496 205.689 120.518 205.987C120.54 206.272 120.701 206.497 121.002 206.661C121.315 206.814 121.706 206.921 122.173 206.982L122.079 207.349C121.439 207.29 120.928 207.251 120.545 207.231C120.164 207.199 119.8 207.174 119.455 207.155C119.195 207.142 118.979 207.137 118.806 207.14C118.633 207.131 118.448 207.134 118.249 207.148L118.342 206.782C118.593 206.721 118.827 206.622 119.044 206.485C119.25 206.347 119.483 206.136 119.745 205.853C120.008 205.558 120.332 205.173 120.715 204.698L128.821 194.473C129.042 194.509 129.276 194.534 129.522 194.547C129.781 194.56 130.01 194.56 130.209 194.546L130.339 206.223C130.353 206.669 130.448 206.983 130.624 207.166C130.813 207.336 130.999 207.433 131.184 207.455L131.09 207.821C130.734 207.778 130.253 207.74 129.649 207.708C129.045 207.664 128.484 207.629 127.966 207.602C127.337 207.569 126.738 207.543 126.17 207.526C125.603 207.496 125.152 207.485 124.818 207.492L124.911 207.126C125.504 207.132 125.929 207.049 126.186 206.877C126.455 206.694 126.588 206.286 126.584 205.655L126.583 197.528L127.62 196.507L121.022 204.863ZM123.062 202.057L128.464 202.34L128.297 202.702L122.709 202.409L123.062 202.057Z" fill="#F0572F"/>
<path d="M114.977 200.557L115.071 200.19L119.03 200.398L118.937 200.764L114.977 200.557ZM121.712 198.089C121.832 197.217 121.812 196.524 121.654 196.008C121.508 195.493 121.261 195.122 120.915 194.893C120.568 194.665 120.148 194.538 119.654 194.512L119.599 194.509C119.241 194.49 118.955 194.512 118.742 194.575C118.541 194.627 118.373 194.76 118.238 194.976C118.116 195.18 117.988 195.507 117.853 195.957L114.929 205.007C114.795 205.445 114.741 205.776 114.766 206C114.791 206.224 114.926 206.38 115.168 206.467C115.411 206.554 115.791 206.623 116.308 206.675L116.214 207.041C115.796 206.994 115.248 206.953 114.57 206.918C113.904 206.87 113.226 206.829 112.535 206.793C111.832 206.756 111.172 206.727 110.554 206.707C109.95 206.676 109.462 206.662 109.091 206.668L109.184 206.301C109.605 206.299 109.934 206.267 110.173 206.205C110.411 206.143 110.604 206.005 110.751 205.79C110.898 205.575 111.039 205.248 111.173 204.81L114.097 195.761C114.244 195.311 114.311 194.98 114.297 194.769C114.284 194.546 114.181 194.392 113.987 194.308C113.807 194.212 113.507 194.146 113.089 194.112L113.2 193.747C113.73 193.787 114.297 193.829 114.901 193.873C115.505 193.905 116.103 193.942 116.695 193.986C117.299 194.017 117.854 194.046 118.36 194.073C118.866 194.099 119.285 194.121 119.618 194.139C120.186 194.169 120.821 194.202 121.524 194.239C122.228 194.263 122.87 194.278 123.451 194.284C123.268 194.707 123.119 195.071 123.004 195.374C122.89 195.665 122.767 196.017 122.634 196.431C122.53 196.759 122.434 197.063 122.345 197.343C122.256 197.623 122.18 197.879 122.119 198.111L121.712 198.089ZM116.976 200.29C117.26 200.305 117.534 200.27 117.798 200.185C118.063 200.1 118.31 199.977 118.541 199.816C118.773 199.642 118.988 199.431 119.187 199.182C119.398 198.933 119.579 198.658 119.731 198.357L120.138 198.378C119.953 198.851 119.808 199.245 119.705 199.561C119.615 199.866 119.51 200.213 119.391 200.602C119.284 200.98 119.17 201.389 119.048 201.827C118.939 202.255 118.813 202.774 118.67 203.385L118.263 203.363C118.285 202.932 118.268 202.553 118.211 202.229C118.154 201.904 118.057 201.627 117.92 201.397C117.785 201.155 117.615 200.973 117.411 200.851C117.207 200.729 116.969 200.661 116.698 200.647L116.976 200.29Z" fill="#F0572F"/>
<path d="M106.653 193.274C106.513 193.588 106.322 194.048 106.08 194.654C105.839 195.247 105.6 196.026 105.364 196.991L104.994 196.972C105.04 196.801 105.074 196.624 105.096 196.439C105.13 196.255 105.151 196.096 105.158 195.96C105.185 195.454 105.096 195.023 104.892 194.666C104.701 194.297 104.413 194.01 104.028 193.804C103.644 193.586 103.174 193.463 102.619 193.433C102.088 193.406 101.612 193.517 101.191 193.767C100.782 194.018 100.561 194.47 100.526 195.124C100.504 195.543 100.581 195.961 100.757 196.379C100.934 196.784 101.166 197.192 101.454 197.603C101.754 198.014 102.066 198.433 102.39 198.858C102.727 199.271 103.039 199.696 103.325 200.131C103.625 200.555 103.861 201.001 104.034 201.467C104.208 201.934 104.281 202.42 104.255 202.926C104.219 203.605 104.01 204.175 103.627 204.637C103.245 205.087 102.768 205.446 102.198 205.713C101.627 205.98 101.03 206.165 100.406 206.268C99.7821 206.372 99.205 206.409 98.6745 206.382C98.0331 206.348 97.5105 206.29 97.1066 206.207C96.7028 206.124 96.3561 206.013 96.0665 205.874C95.7775 205.723 95.4652 205.545 95.1295 205.342C95.01 205.262 94.8961 205.194 94.7877 205.139C94.6799 205.071 94.589 205.036 94.515 205.032C94.3546 205.023 94.2215 205.084 94.1157 205.215C94.0099 205.345 93.8603 205.604 93.6669 205.989L93.2969 205.97C93.4221 205.704 93.5558 205.396 93.6979 205.045C93.84 204.693 93.9996 204.244 94.1767 203.697C94.3545 203.137 94.5582 202.436 94.7879 201.595L95.1579 201.614C95.0866 201.796 95.0249 202.028 94.9731 202.31C94.9342 202.58 94.9151 202.826 94.9158 203.049C94.9056 203.951 95.1537 204.645 95.6602 205.129C96.1674 205.601 96.8774 205.861 97.7902 205.908C98.6537 205.954 99.2357 205.823 99.5362 205.518C99.8497 205.2 100.019 204.801 100.044 204.32C100.071 203.802 100.004 203.316 99.8424 202.862C99.6936 202.396 99.4877 201.959 99.2247 201.549C98.9623 201.127 98.6808 200.717 98.3801 200.318C98.0924 199.907 97.817 199.496 97.554 199.087C97.291 198.677 97.0783 198.252 96.9159 197.81C96.7665 197.357 96.7047 196.884 96.7305 196.39C96.7648 195.737 96.9422 195.183 97.2629 194.73C97.5958 194.277 98.0171 193.91 98.5267 193.627C99.0363 193.345 99.5786 193.144 100.154 193.026C100.729 192.908 101.276 192.862 101.794 192.889C102.67 192.935 103.361 193.083 103.867 193.332C104.374 193.569 104.76 193.762 105.024 193.912C105.12 193.967 105.228 194.028 105.349 194.096C105.469 194.164 105.56 194.2 105.621 194.203C105.794 194.212 106.015 193.896 106.283 193.254L106.653 193.274Z" fill="#F0572F"/>
<path d="M86.9836 199.089L87.077 198.723L91.0367 198.931L90.9433 199.297L86.9836 199.089ZM88.9828 198.823C89.2789 198.839 89.5655 198.798 89.8427 198.701C90.1323 198.605 90.3932 198.464 90.6256 198.278C90.8703 198.093 91.0855 197.882 91.2711 197.644C91.4691 197.407 91.6245 197.156 91.7374 196.889L92.1445 196.911C91.9589 197.383 91.8146 197.778 91.7114 198.094C91.6212 198.398 91.5164 198.746 91.3971 199.135C91.3225 199.379 91.2553 199.598 91.1956 199.792C91.1366 199.975 91.0762 200.182 91.0146 200.414C90.9653 200.646 90.893 200.964 90.7977 201.367L90.3906 201.346C90.4016 201.136 90.3824 200.913 90.333 200.675C90.2966 200.426 90.216 200.193 90.0913 199.976C89.9666 199.759 89.7906 199.577 89.5634 199.429C89.3361 199.281 89.0498 199.198 88.7044 199.179L88.9828 198.823ZM94.1173 196.086C94.1678 195.359 94.1177 194.781 93.967 194.353C93.8169 193.912 93.5799 193.597 93.2559 193.407C92.9325 193.204 92.5241 193.09 92.0307 193.064L91.9752 193.061C91.5681 193.04 91.2455 193.06 91.0072 193.122C90.7819 193.172 90.6018 193.305 90.4668 193.52C90.3325 193.723 90.1917 194.05 90.0444 194.5L87.1209 203.549C86.9866 203.988 86.9198 204.318 86.9205 204.541C86.9212 204.764 87.0121 204.917 87.1933 205C87.3874 205.072 87.688 205.119 88.0951 205.141L88.3356 205.153C88.9277 205.184 89.4575 205.107 89.9249 204.921C90.3923 204.735 90.8357 204.418 91.255 203.97C91.6872 203.51 92.1221 202.884 92.5595 202.09L92.9666 202.112C92.8965 202.269 92.8183 202.463 92.732 202.693C92.658 202.924 92.5834 203.168 92.5082 203.424C92.4342 203.655 92.3363 203.99 92.2143 204.429C92.093 204.855 91.9892 205.301 91.903 205.767C91.2751 205.709 90.5727 205.66 89.7955 205.619C89.0314 205.567 88.3409 205.524 87.7241 205.492C87.3911 205.475 86.9717 205.453 86.4659 205.426C85.9602 205.4 85.4047 205.377 84.7996 205.357C84.2075 205.326 83.609 205.301 83.0039 205.282C82.3994 205.25 81.8255 205.226 81.2821 205.21L81.3755 204.844C81.7962 204.841 82.1257 204.809 82.3639 204.747C82.6022 204.686 82.795 204.547 82.9423 204.332C83.0896 204.117 83.2305 203.791 83.3647 203.353L86.2882 194.303C86.4355 193.853 86.5023 193.523 86.4886 193.312C86.4756 193.088 86.3723 192.934 86.1788 192.85C85.9983 192.754 85.6987 192.689 85.2799 192.655L85.3918 192.289C85.9216 192.329 86.4884 192.372 87.0922 192.416C87.6966 192.447 88.2946 192.485 88.886 192.528C89.4905 192.56 90.0456 192.589 90.5513 192.615C91.0571 192.642 91.4765 192.664 91.8096 192.681C92.377 192.711 93.0123 192.744 93.7154 192.781C94.4192 192.806 95.0616 192.821 95.6426 192.827C95.4596 193.25 95.3046 193.613 95.1774 193.915C95.0632 194.206 94.9457 194.559 94.8251 194.973C94.7641 195.193 94.7038 195.4 94.6441 195.594C94.5967 195.79 94.5568 195.961 94.5244 196.108L94.1173 196.086Z" fill="#F0572F"/>
<path d="M82.2171 194.553C82.5637 194.077 82.7197 193.695 82.6852 193.409C82.6631 193.123 82.5076 192.905 82.2186 192.754C81.9297 192.603 81.5457 192.496 81.0665 192.434L81.1784 192.068C81.3011 192.087 81.5225 192.111 81.8426 192.14C82.1757 192.158 82.5269 192.182 82.8963 192.214C83.2787 192.234 83.5809 192.25 83.803 192.262C84.062 192.275 84.3091 192.282 84.5441 192.282C84.7791 192.282 84.9956 192.281 85.1936 192.279L85.0817 192.644C84.7811 192.715 84.5036 192.818 84.2491 192.953C84.0077 193.076 83.7496 193.279 83.4751 193.562C83.2012 193.832 82.8841 194.217 82.5239 194.718L75.0655 204.977C74.8324 204.94 74.5987 204.915 74.3643 204.903C74.1423 204.892 73.9134 204.892 73.6777 204.904L72.826 193.189C72.7999 192.743 72.6863 192.434 72.485 192.262C72.2843 192.078 72.098 191.976 71.9259 191.955L72.0378 191.589C72.3949 191.62 72.8568 191.657 73.4236 191.699C74.0028 191.742 74.576 191.778 75.1435 191.808C75.8096 191.843 76.4205 191.869 76.9763 191.885C77.5443 191.903 78.0076 191.915 78.3659 191.921L78.254 192.286C77.8586 192.278 77.5415 192.311 77.3026 192.385C77.0637 192.459 76.8956 192.598 76.7982 192.804C76.7132 193.009 76.6779 193.329 76.6923 193.763L77.1527 201.969L76.2794 202.703L82.2171 194.553Z" fill="#F0572F"/>
<path d="M59.4956 201.638C59.1379 202.089 58.9699 202.463 58.9914 202.761C59.0135 203.047 59.1749 203.272 59.4755 203.436C59.7891 203.589 60.1793 203.696 60.6461 203.757L60.5527 204.124C59.9126 204.065 59.4013 204.026 59.0189 204.006C58.6371 203.974 58.2736 203.948 57.9282 203.93C57.6691 203.917 57.4529 203.912 57.2796 203.915C57.1069 203.906 56.9212 203.908 56.7226 203.923L56.816 203.557C57.0666 203.496 57.3006 203.396 57.518 203.259C57.7232 203.122 57.9569 202.911 58.2191 202.628C58.482 202.333 58.8052 201.948 59.1888 201.473L67.2948 191.248C67.5155 191.284 67.7493 191.309 67.996 191.322C68.255 191.335 68.4839 191.335 68.6825 191.321L68.8126 202.998C68.8264 203.444 68.9212 203.758 69.0972 203.941C69.2862 204.111 69.4728 204.208 69.6572 204.23L69.5638 204.596C69.2074 204.552 68.7269 204.515 68.1225 204.483C67.5187 204.439 66.9578 204.404 66.4397 204.376C65.8106 204.343 65.212 204.318 64.6439 204.301C64.0765 204.271 63.6256 204.26 63.2912 204.267L63.3846 203.901C63.978 203.907 64.4029 203.824 64.6593 203.652C64.9287 203.468 65.0614 203.061 65.0574 202.43L65.0566 194.303L66.0935 193.282L59.4956 201.638ZM61.5352 198.831L66.9381 199.115L66.7707 199.477L61.1827 199.184L61.5352 198.831Z" fill="#F0572F"/>
<path d="M51.5305 197.231L51.6239 196.865L55.5836 197.072L55.4902 197.438L51.5305 197.231ZM53.5297 196.965C53.8258 196.98 54.1124 196.939 54.3896 196.843C54.6791 196.747 54.9401 196.606 55.1725 196.42C55.4172 196.235 55.6324 196.023 55.818 195.786C56.016 195.549 56.1714 195.297 56.2843 195.031L56.6914 195.052C56.5058 195.525 56.3614 195.919 56.2583 196.236C56.1681 196.54 56.0633 196.887 55.9439 197.277C55.8693 197.52 55.8022 197.739 55.7425 197.934C55.6835 198.117 55.6231 198.324 55.5615 198.555C55.5122 198.788 55.4399 199.106 55.3445 199.509L54.9375 199.488C54.9485 199.278 54.9293 199.054 54.8799 198.817C54.8435 198.567 54.7629 198.334 54.6382 198.117C54.5135 197.901 54.3375 197.718 54.1103 197.57C53.883 197.422 53.5967 197.339 53.2513 197.321L53.5297 196.965ZM58.6642 194.228C58.7147 193.501 58.6646 192.923 58.5139 192.495C58.3638 192.054 58.1268 191.738 57.8027 191.548C57.4794 191.346 57.071 191.231 56.5776 191.206L56.5221 191.203C56.115 191.181 55.7923 191.202 55.5541 191.263C55.3288 191.313 55.1487 191.446 55.0137 191.662C54.8793 191.865 54.7385 192.192 54.5912 192.641L51.6678 201.691C51.5335 202.129 51.4667 202.46 51.4674 202.682C51.4681 202.905 51.559 203.058 51.7402 203.142C51.9343 203.214 52.2349 203.261 52.642 203.282L52.8825 203.295C53.4746 203.326 54.0044 203.248 54.4718 203.063C54.9392 202.877 55.3825 202.56 55.8018 202.112C56.2341 201.652 56.669 201.025 57.1064 200.232L57.5134 200.253C57.4434 200.411 57.3652 200.604 57.2789 200.835C57.2049 201.066 57.1303 201.309 57.055 201.565C56.9811 201.796 56.8831 202.131 56.7612 202.57C56.6399 202.997 56.5361 203.443 56.4498 203.908C55.822 203.851 55.1195 203.802 54.3424 203.761C53.5782 203.708 52.8878 203.666 52.271 203.634C51.9379 203.616 51.5185 203.594 51.0128 203.568C50.507 203.541 49.9516 203.518 49.3465 203.499C48.7544 203.468 48.1558 203.443 47.5507 203.423C46.9463 203.392 46.3724 203.368 45.829 203.352L45.9224 202.986C46.3431 202.983 46.6726 202.951 46.9108 202.889C47.1491 202.827 47.3419 202.689 47.4892 202.474C47.6365 202.259 47.7773 201.932 47.9116 201.494L50.8351 192.445C50.9824 191.995 51.0492 191.664 51.0355 191.453C51.0225 191.23 50.9192 191.076 50.7257 190.992C50.5452 190.896 50.2456 190.83 49.8268 190.796L49.9387 190.431C50.4685 190.471 51.0353 190.513 51.6391 190.557C52.2435 190.589 52.8415 190.626 53.4329 190.67C54.0374 190.701 54.5925 190.73 55.0982 190.757C55.604 190.783 56.0234 190.805 56.3564 190.823C56.9239 190.853 57.5591 190.886 58.2623 190.923C58.966 190.947 59.6085 190.962 60.1895 190.968C60.0065 191.392 59.8514 191.754 59.7242 192.057C59.61 192.348 59.4926 192.7 59.3719 193.115C59.311 193.334 59.2506 193.541 59.1909 193.736C59.1436 193.931 59.1037 194.103 59.0713 194.249L58.6642 194.228Z" fill="#F0572F"/>
<path d="M46.2327 199.477C46.1484 199.67 46.0624 199.894 45.9748 200.149C45.8872 200.405 45.7987 200.678 45.7091 200.97C45.6352 201.202 45.5372 201.537 45.4153 201.976C45.2939 202.402 45.1902 202.848 45.1039 203.314C44.4761 203.256 43.7736 203.207 42.9965 203.166C42.2323 203.114 41.5419 203.071 40.9251 203.039C40.592 203.022 40.1665 202.999 39.6484 202.972C39.1426 202.946 38.581 202.922 37.9636 202.902C37.3592 202.871 36.7482 202.845 36.1308 202.825C35.5264 202.793 34.9525 202.769 34.4091 202.753L34.5025 202.387C34.9232 202.384 35.2526 202.352 35.4909 202.29C35.7291 202.229 35.9219 202.09 36.0693 201.875C36.2166 201.66 36.3574 201.334 36.4917 200.896L39.4152 191.846C39.5624 191.396 39.6292 191.066 39.6156 190.855C39.6025 190.631 39.4993 190.477 39.3058 190.393C39.1253 190.297 38.8256 190.232 38.4069 190.197L38.5188 189.832C38.8759 189.863 39.3687 189.902 39.9971 189.947C40.6379 189.993 41.3099 190.034 42.013 190.071C42.6298 190.103 43.216 190.128 43.7718 190.145C44.3275 190.161 44.8216 190.175 45.254 190.185L45.1421 190.55C44.722 190.541 44.3925 190.573 44.1536 190.647C43.9154 190.709 43.7226 190.847 43.5753 191.062C43.4409 191.265 43.3001 191.592 43.1528 192.042L40.2294 201.091C40.0951 201.53 40.0283 201.86 40.029 202.083C40.0297 202.306 40.1206 202.459 40.3017 202.542C40.4959 202.614 40.7965 202.661 41.2035 202.683L41.5366 202.7C41.956 202.722 42.4182 202.635 42.9233 202.439C43.4407 202.243 43.9532 201.905 44.4608 201.425C44.9807 200.945 45.4357 200.288 45.8257 199.455L46.2327 199.477Z" fill="#F0572F"/>
<path d="M43.7867 162.339L43.7706 162.648C43.5396 162.728 43.2986 162.901 43.0476 163.166C42.7971 163.421 42.5135 163.819 42.1965 164.359L38.98 169.973L38.2553 169.935L34.9971 163.069C34.8304 162.71 34.6729 162.47 34.5247 162.349C34.3867 162.228 34.2611 162.165 34.1481 162.159L34.165 161.835C34.441 161.88 34.7226 161.916 35.0099 161.941C35.3074 161.967 35.631 161.989 35.9805 162.007C36.4328 162.031 36.9213 162.052 37.4461 162.069C37.9715 162.076 38.4505 162.08 38.8834 162.082L38.8664 162.406C38.6094 162.393 38.377 162.401 38.1693 162.431C37.9615 162.462 37.8136 162.531 37.7254 162.64C37.6378 162.739 37.6495 162.909 37.7604 163.152L39.951 167.967L39.4407 168.559L41.1962 165.45C41.6153 164.73 41.8462 164.16 41.8888 163.74C41.9418 163.32 41.8546 163.016 41.6273 162.829C41.4109 162.632 41.0922 162.518 40.6713 162.485L40.6874 162.177C41.0364 162.205 41.3648 162.233 41.6726 162.259C41.9805 162.286 42.2938 162.307 42.6124 162.324C42.8386 162.336 43.0496 162.342 43.2454 162.342C43.4516 162.342 43.632 162.341 43.7867 162.339ZM40.2025 167.594L39.9996 171.464C39.9802 171.834 39.9914 172.113 40.0331 172.301C40.0851 172.489 40.1917 172.618 40.3529 172.689C40.5141 172.759 40.7587 172.813 41.0866 172.851L41.0704 173.159C40.7939 173.124 40.4347 173.095 39.9927 173.072C39.5615 173.039 39.13 173.011 38.6983 172.989C38.2151 172.963 37.7574 172.944 37.3251 172.932C36.8934 172.909 36.5536 172.902 36.3058 172.91L36.322 172.601C36.652 172.598 36.9009 172.57 37.0686 172.517C37.2363 172.464 37.3507 172.346 37.4118 172.164C37.4832 171.982 37.5286 171.706 37.5479 171.336L37.7136 168.175L39.005 169.201L40.2025 167.594Z" fill="#F0572F"/>
<path d="M41.4069 141.357L41.3907 141.666C41.0407 141.657 40.7713 141.685 40.5825 141.747C40.4045 141.799 40.2798 141.917 40.2084 142.098C40.1376 142.27 40.0922 142.546 40.0723 142.926L39.6617 150.759C39.645 151.078 39.6532 151.315 39.6862 151.472C39.7295 151.629 39.8166 151.736 39.9476 151.795C40.0888 151.854 40.2982 151.89 40.5757 151.905L41.3313 151.944C41.6808 151.963 42.014 151.898 42.3311 151.749C42.6481 151.601 42.9377 151.384 43.2001 151.099C43.4629 150.804 43.6877 150.45 43.8742 150.037C44.0608 149.624 44.2087 149.163 44.3178 148.653L44.6725 148.672C44.6233 149.019 44.5842 149.471 44.5551 150.026C44.5427 150.263 44.5298 150.607 44.5164 151.06C44.5029 151.513 44.5093 151.982 44.5353 152.468C44.0122 152.42 43.4216 152.379 42.7637 152.344C42.1064 152.299 41.5207 152.264 41.0067 152.237C40.7497 152.223 40.4208 152.206 40.0199 152.185C39.619 152.164 39.187 152.146 38.7239 152.132C38.2613 152.108 37.7933 152.089 37.3199 152.074C36.847 152.05 36.3996 152.031 35.9776 152.019L35.9938 151.711C36.3238 151.708 36.5726 151.68 36.7404 151.627C36.9081 151.573 37.0225 151.456 37.0836 151.273C37.1549 151.092 37.2003 150.816 37.2197 150.446L37.6206 142.798C37.6405 142.417 37.6242 142.138 37.5717 141.96C37.53 141.772 37.4234 141.643 37.2519 141.572C37.0912 141.492 36.8518 141.438 36.5336 141.411L36.5498 141.103C36.8063 141.126 37.1501 141.155 37.5813 141.188C38.0228 141.221 38.4902 141.251 38.9836 141.276C39.4359 141.3 39.8782 141.318 40.3105 141.331C40.7531 141.343 41.1185 141.352 41.4069 141.357Z" fill="#F0572F"/>
<path d="M48.8148 120.872L48.7987 121.18C48.5682 121.251 48.3223 121.418 48.0611 121.683C47.8004 121.937 47.5619 122.358 47.3456 122.944L44.1703 131.606C44.0886 131.592 44.0015 131.582 43.909 131.577C43.8164 131.572 43.7239 131.568 43.6314 131.563C43.5389 131.558 43.4464 131.553 43.3539 131.548C43.2613 131.543 43.1737 131.544 43.0909 131.55L40.3669 121.573C40.2808 121.249 40.1636 121.027 40.0153 120.906C39.8774 120.785 39.7264 120.715 39.5625 120.696L39.5786 120.388C39.8659 120.413 40.2046 120.441 40.5947 120.472C40.995 120.503 41.3905 120.529 41.7812 120.55C42.2335 120.574 42.6552 120.59 43.0464 120.601C43.4478 120.611 43.767 120.618 44.004 120.62L43.9878 120.928C43.6789 120.922 43.4303 120.945 43.242 120.997C43.064 121.05 42.955 121.163 42.915 121.336C42.8853 121.51 42.9222 121.79 43.0256 122.177L44.8644 128.983L44.4766 129.597L46.5091 124.153C46.7968 123.384 46.9471 122.779 46.96 122.337C46.9728 121.894 46.8711 121.574 46.6546 121.377C46.4387 121.17 46.1203 121.05 45.6994 121.018L45.7155 120.71C46.0645 120.738 46.3929 120.766 46.7007 120.792C47.0086 120.819 47.3167 120.84 47.6251 120.856C47.8615 120.869 48.0777 120.875 48.2735 120.875C48.4797 120.875 48.6601 120.874 48.8148 120.872ZM37.8054 120.295L37.7892 120.603C37.582 120.623 37.4341 120.693 37.3454 120.812C37.2572 120.921 37.2131 121.073 37.2132 121.269C37.224 121.455 37.2598 121.658 37.3204 121.878L39.3208 128.847L38.8753 129.381L41.1513 123.717L41.3453 124.145L38.5422 131.311C38.4605 131.297 38.3734 131.287 38.2809 131.282C38.1884 131.277 38.0959 131.273 38.0033 131.268C37.9108 131.263 37.8183 131.258 37.7258 131.253C37.6333 131.248 37.5456 131.249 37.4629 131.255L34.5149 121.421C34.4012 121.034 34.2553 120.769 34.0773 120.625C33.9095 120.483 33.7488 120.402 33.5952 120.384L33.6113 120.075C33.9192 120.102 34.2836 120.131 34.7045 120.163C35.1254 120.196 35.526 120.222 35.9064 120.242C36.3176 120.263 36.6828 120.277 37.002 120.284C37.3315 120.291 37.5993 120.295 37.8054 120.295Z" fill="#F0572F"/>
<path d="M42.5112 99.4521C43.6008 99.5092 44.5401 99.7801 45.329 100.265C46.1282 100.75 46.7321 101.421 47.1408 102.277C47.55 103.123 47.7236 104.137 47.6616 105.319C47.6013 106.471 47.3172 107.466 46.8094 108.305C46.3015 109.144 45.6186 109.784 44.7607 110.223C43.913 110.663 42.9597 110.855 41.9009 110.8C40.8113 110.743 39.8669 110.472 39.0677 109.987C38.2788 109.502 37.68 108.832 37.2713 107.975C36.8627 107.119 36.689 106.105 36.7505 104.933C36.8108 103.782 37.0949 102.786 37.6027 101.947C38.1209 101.108 38.7986 100.469 39.636 100.028C40.4837 99.5881 41.4421 99.3961 42.5112 99.4521ZM42.435 99.7264C41.8593 99.6963 41.3435 99.9012 40.8875 100.341C40.4418 100.782 40.0794 101.402 39.8004 102.201C39.5317 103.002 39.3693 103.936 39.3133 105.005C39.2562 106.095 39.3349 107.053 39.5493 107.878C39.7745 108.694 40.0966 109.334 40.5154 109.8C40.9451 110.255 41.4323 110.497 41.9772 110.526C42.5528 110.556 43.0635 110.351 43.5092 109.91C43.9652 109.47 44.3275 108.85 44.5963 108.05C44.8758 107.24 45.0433 106.306 45.0988 105.247C45.1565 104.147 45.0727 103.189 44.8474 102.373C44.6325 101.558 44.3101 100.923 43.8805 100.467C43.4616 100.002 42.9798 99.755 42.435 99.7264Z" fill="#F0572F"/>
<path d="M44.1081 78.8786L44.0919 79.187C43.7419 79.179 43.4724 79.2061 43.2836 79.2683C43.1057 79.3208 42.981 79.438 42.9096 79.6198C42.8388 79.7913 42.7934 80.0673 42.7734 80.4476L42.3629 88.2806C42.3462 88.5993 42.3543 88.8368 42.3874 88.9932C42.4307 89.15 42.5178 89.2577 42.6488 89.3161C42.79 89.375 42.9994 89.4118 43.2769 89.4263L44.0325 89.4659C44.382 89.4842 44.7152 89.4192 45.0322 89.2709C45.3492 89.1226 45.6389 88.9059 45.9012 88.6207C46.1641 88.3253 46.3888 87.9711 46.5754 87.5583C46.762 87.1454 46.9098 86.6842 47.019 86.1745L47.3737 86.1931C47.3245 86.541 47.2854 86.9925 47.2563 87.5476C47.2439 87.784 47.231 88.1286 47.2175 88.5815C47.2041 89.0343 47.2104 89.5036 47.2365 89.9895C46.7133 89.9414 46.1228 89.9002 45.4649 89.8657C44.8075 89.8209 44.2219 89.7851 43.7079 89.7581C43.4509 89.7447 43.122 89.7274 42.7211 89.7064C42.3202 89.6854 41.8881 89.6679 41.425 89.6539C40.9624 89.6297 40.4945 89.6103 40.0211 89.5958C39.5482 89.571 39.1008 89.5527 38.6788 89.5409L38.6949 89.2325C39.025 89.2292 39.2738 89.201 39.4415 89.148C39.6092 89.0949 39.7236 88.9772 39.7847 88.7949C39.8561 88.6131 39.9015 88.3372 39.9209 87.9671L40.3218 80.3191C40.3417 79.9387 40.3254 79.6596 40.2729 79.4816C40.2312 79.2939 40.1246 79.1646 39.9531 79.0938C39.7924 79.0132 39.5529 78.9594 39.2348 78.9324L39.251 78.624C39.5074 78.6478 39.8513 78.6761 40.2825 78.709C40.7239 78.7425 41.1914 78.7721 41.6848 78.798C42.1371 78.8217 42.5794 78.8397 43.0117 78.8521C43.4542 78.865 43.8197 78.8738 44.1081 78.8786Z" fill="#F0572F"/>
<path d="M44.4187 57.8208C45.0252 57.8526 45.4894 57.9439 45.8114 58.0948C46.1339 58.2354 46.4095 58.3839 46.6384 58.5402C46.758 58.6186 46.8527 58.6803 46.9225 58.7251C47.0031 58.7603 47.0794 58.7798 47.1514 58.7835C47.2542 58.7889 47.3291 58.7361 47.3761 58.6252C47.4335 58.5148 47.4835 58.3474 47.5262 58.1229L47.8808 58.1414C47.8603 58.3362 47.8325 58.5718 47.7974 58.8483C47.7731 59.115 47.7442 59.4691 47.7108 59.9106C47.6876 60.3526 47.6572 60.9334 47.6194 61.653L47.2648 61.6344C47.2517 61.0977 47.1555 60.5721 46.9764 60.0577C46.7972 59.5432 46.5258 59.1167 46.1621 58.7781C45.8093 58.4297 45.3605 58.2413 44.8157 58.2127C44.3222 58.1868 43.9089 58.3043 43.5757 58.5652C43.2425 58.826 43.0629 59.2032 43.0371 59.6966C43.0155 60.1078 43.0997 60.4678 43.2897 60.7767C43.4802 61.0753 43.7635 61.3736 44.1396 61.6716C44.5259 61.9702 44.9916 62.3296 45.5365 62.7498C46.0132 63.0944 46.4385 63.4362 46.8124 63.7754C47.1863 64.1145 47.481 64.4907 47.6964 64.904C47.9118 65.3173 48.005 65.8015 47.9759 66.3566C47.9403 67.0351 47.7311 67.5859 47.3481 68.009C46.9755 68.4327 46.4954 68.7426 45.9079 68.9385C45.3209 69.1242 44.683 69.199 43.9943 69.1629C43.357 69.1295 42.8514 69.0412 42.4775 68.8979C42.1036 68.7546 41.7917 68.6094 41.5417 68.4623C41.3231 68.3065 41.1521 68.2254 41.0288 68.219C40.926 68.2136 40.8459 68.2661 40.7886 68.3764C40.7415 68.4874 40.6967 68.6551 40.654 68.8796L40.2993 68.861C40.3328 68.6154 40.3582 68.3281 40.3754 67.9992C40.4029 67.6708 40.4304 67.2444 40.4579 66.7202C40.4962 66.1862 40.5366 65.5131 40.5792 64.701L40.9339 64.7196C40.9394 65.4002 41.0191 66.0435 41.1729 66.6494C41.3375 67.2456 41.6056 67.7338 41.9774 68.1141C42.3595 68.4949 42.8794 68.7025 43.5373 68.737C43.8971 68.7558 44.219 68.7109 44.503 68.6021C44.7979 68.4835 45.0394 68.3003 45.2276 68.0525C45.4158 67.8047 45.5199 67.4906 45.5398 67.1102C45.5625 66.6785 45.4793 66.2979 45.2905 65.9685C45.1118 65.6395 44.8551 65.3272 44.5201 65.0313C44.1954 64.736 43.8145 64.4325 43.3773 64.121C42.9108 63.777 42.4752 63.4346 42.0705 63.0939C41.6657 62.7531 41.3456 62.3704 41.1102 61.9458C40.885 61.5216 40.7873 61.0269 40.8169 60.4615C40.8508 59.8139 41.0379 59.2929 41.3781 58.8984C41.7292 58.4942 42.1719 58.2081 42.7064 58.0403C43.2517 57.8627 43.8225 57.7896 44.4187 57.8208Z" fill="#F0572F"/>
<path d="M198.656 170.457L198.64 170.765C198.409 170.846 198.168 171.019 197.917 171.284C197.666 171.539 197.383 171.936 197.066 172.476L193.849 178.09L193.124 178.053L189.866 171.187C189.7 170.828 189.542 170.587 189.394 170.466C189.256 170.346 189.13 170.282 189.017 170.276L189.034 169.953C189.31 169.998 189.592 170.033 189.879 170.059C190.177 170.085 190.5 170.107 190.85 170.125C191.302 170.149 191.79 170.169 192.315 170.186C192.841 170.193 193.32 170.198 193.753 170.2L193.736 170.524C193.479 170.51 193.246 170.519 193.038 170.549C192.831 170.579 192.683 170.649 192.595 170.758C192.507 170.856 192.519 171.027 192.63 171.27L194.82 176.085L194.31 176.677L196.065 173.568C196.484 172.848 196.715 172.278 196.758 171.857C196.811 171.437 196.724 171.134 196.496 170.947C196.28 170.75 195.961 170.635 195.54 170.603L195.557 170.295C195.906 170.323 196.234 170.351 196.542 170.377C196.85 170.404 197.163 170.425 197.482 170.442C197.708 170.454 197.919 170.46 198.115 170.46C198.321 170.46 198.501 170.459 198.656 170.457ZM195.072 175.712L194.869 179.582C194.849 179.952 194.861 180.231 194.902 180.419C194.954 180.607 195.061 180.736 195.222 180.806C195.383 180.877 195.628 180.931 195.956 180.969L195.94 181.277C195.663 181.242 195.304 181.213 194.862 181.19C194.431 181.157 193.999 181.129 193.567 181.106C193.084 181.081 192.627 181.062 192.194 181.05C191.763 181.027 191.423 181.02 191.175 181.027L191.191 180.719C191.521 180.716 191.77 180.687 191.938 180.634C192.105 180.581 192.22 180.464 192.281 180.281C192.352 180.099 192.398 179.823 192.417 179.453L192.583 176.292L193.874 177.319L195.072 175.712Z" fill="#F0572F"/>
<path d="M196.276 149.475L196.26 149.783C195.91 149.775 195.64 149.802 195.452 149.865C195.274 149.917 195.149 150.034 195.078 150.216C195.007 150.388 194.961 150.663 194.941 151.044L194.531 158.877C194.514 159.195 194.522 159.433 194.555 159.589C194.599 159.746 194.686 159.854 194.817 159.912C194.958 159.971 195.167 160.008 195.445 160.023L196.2 160.062C196.55 160.08 196.883 160.015 197.2 159.867C197.517 159.719 197.807 159.502 198.069 159.217C198.332 158.921 198.557 158.567 198.743 158.154C198.93 157.742 199.078 157.28 199.187 156.771L199.542 156.789C199.492 157.137 199.453 157.589 199.424 158.144C199.412 158.38 199.399 158.725 199.386 159.178C199.372 159.63 199.378 160.1 199.404 160.586C198.881 160.538 198.291 160.496 197.633 160.462C196.976 160.417 196.39 160.381 195.876 160.354C195.619 160.341 195.29 160.324 194.889 160.303C194.488 160.282 194.056 160.264 193.593 160.25C193.13 160.226 192.662 160.207 192.189 160.192C191.716 160.167 191.269 160.149 190.847 160.137L190.863 159.829C191.193 159.825 191.442 159.797 191.609 159.744C191.777 159.691 191.892 159.573 191.953 159.391C192.024 159.209 192.069 158.933 192.089 158.563L192.49 150.915C192.51 150.535 192.493 150.256 192.441 150.078C192.399 149.89 192.293 149.761 192.121 149.69C191.96 149.609 191.721 149.556 191.403 149.529L191.419 149.22C191.675 149.244 192.019 149.272 192.45 149.305C192.892 149.339 193.359 149.368 193.853 149.394C194.305 149.418 194.747 149.436 195.18 149.448C195.622 149.461 195.988 149.47 196.276 149.475Z" fill="#F0572F"/>
<path d="M203.684 128.99L203.668 129.298C203.437 129.369 203.191 129.536 202.93 129.801C202.669 130.055 202.431 130.475 202.215 131.062L199.039 139.724C198.958 139.71 198.871 139.7 198.778 139.695C198.686 139.69 198.593 139.685 198.501 139.68C198.408 139.676 198.316 139.671 198.223 139.666C198.13 139.661 198.043 139.662 197.96 139.668L195.236 129.691C195.15 129.367 195.033 129.144 194.884 129.023C194.746 128.903 194.596 128.833 194.432 128.814L194.448 128.506C194.735 128.531 195.074 128.559 195.464 128.59C195.864 128.621 196.26 128.647 196.65 128.667C197.103 128.691 197.524 128.708 197.915 128.718C198.317 128.729 198.636 128.735 198.873 128.738L198.857 129.046C198.548 129.04 198.299 129.063 198.111 129.115C197.933 129.168 197.824 129.28 197.784 129.454C197.754 129.627 197.791 129.908 197.895 130.294L199.734 137.101L199.346 137.715L201.378 132.27C201.666 131.502 201.816 130.897 201.829 130.454C201.842 130.012 201.74 129.692 201.524 129.495C201.308 129.288 200.989 129.168 200.569 129.136L200.585 128.827C200.934 128.856 201.262 128.883 201.57 128.91C201.878 128.936 202.186 128.958 202.494 128.974C202.731 128.986 202.947 128.992 203.143 128.992C203.349 128.993 203.529 128.992 203.684 128.99ZM192.675 128.413L192.658 128.721C192.451 128.741 192.303 128.811 192.215 128.93C192.126 129.039 192.082 129.191 192.082 129.387C192.093 129.573 192.129 129.776 192.19 129.995L194.19 136.965L193.744 137.498L196.02 131.835L196.214 132.263L193.411 139.429C193.33 139.415 193.243 139.405 193.15 139.4C193.058 139.395 192.965 139.39 192.872 139.385C192.78 139.381 192.687 139.376 192.595 139.371C192.502 139.366 192.415 139.367 192.332 139.373L189.384 129.539C189.27 129.152 189.124 128.886 188.946 128.743C188.779 128.6 188.618 128.52 188.464 128.501L188.48 128.193C188.788 128.219 189.153 128.249 189.574 128.281C189.995 128.313 190.395 128.34 190.776 128.36C191.187 128.381 191.552 128.395 191.871 128.402C192.201 128.408 192.468 128.412 192.675 128.413Z" fill="#F0572F"/>
<path d="M197.38 107.57C198.47 107.627 199.409 107.898 200.198 108.382C200.997 108.867 201.601 109.538 202.01 110.395C202.419 111.241 202.593 112.255 202.531 113.437C202.47 114.588 202.186 115.583 201.679 116.423C201.171 117.262 200.488 117.901 199.63 118.341C198.782 118.781 197.829 118.973 196.77 118.918C195.68 118.861 194.736 118.589 193.937 118.104C193.148 117.62 192.549 116.949 192.14 116.093C191.732 115.237 191.558 114.222 191.62 113.051C191.68 111.899 191.964 110.904 192.472 110.065C192.99 109.226 193.668 108.586 194.505 108.146C195.353 107.706 196.311 107.514 197.38 107.57ZM197.304 107.844C196.728 107.814 196.213 108.019 195.757 108.459C195.311 108.899 194.949 109.519 194.67 110.319C194.401 111.119 194.238 112.054 194.182 113.123C194.125 114.213 194.204 115.17 194.418 115.996C194.644 116.812 194.966 117.452 195.385 117.917C195.814 118.373 196.301 118.615 196.846 118.643C197.422 118.673 197.933 118.468 198.378 118.028C198.834 117.588 199.197 116.968 199.465 116.168C199.745 115.358 199.912 114.423 199.968 113.364C200.026 112.265 199.942 111.307 199.717 110.491C199.502 109.676 199.179 109.04 198.75 108.585C198.331 108.12 197.849 107.873 197.304 107.844Z" fill="#F0572F"/>
<path d="M198.977 86.9963L198.961 87.3047C198.611 87.2966 198.342 87.3237 198.153 87.386C197.975 87.4385 197.85 87.5557 197.779 87.7375C197.708 87.909 197.663 88.1849 197.643 88.5653L197.232 96.3983C197.215 96.717 197.223 96.9545 197.257 97.1108C197.3 97.2677 197.387 97.3754 197.518 97.4338C197.659 97.4927 197.868 97.5294 198.146 97.544L198.902 97.5836C199.251 97.6019 199.584 97.5369 199.901 97.3886C200.218 97.2403 200.508 97.0236 200.77 96.7384C201.033 96.4429 201.258 96.0888 201.445 95.6759C201.631 95.2631 201.779 94.8018 201.888 94.2922L202.243 94.3108C202.194 94.6587 202.155 95.1101 202.125 95.6652C202.113 95.9017 202.1 96.2463 202.087 96.6991C202.073 97.152 202.08 97.6213 202.106 98.1072C201.582 98.0591 200.992 98.0179 200.334 97.9834C199.677 97.9386 199.091 97.9028 198.577 97.8758C198.32 97.8623 197.991 97.8451 197.59 97.8241C197.189 97.8031 196.757 97.7856 196.294 97.7716C195.832 97.7474 195.364 97.728 194.89 97.7135C194.417 97.6887 193.97 97.6704 193.548 97.6586L193.564 97.3502C193.894 97.3469 194.143 97.3187 194.311 97.2657C194.478 97.2126 194.593 97.0949 194.654 96.9126C194.725 96.7308 194.771 96.4548 194.79 96.0848L195.191 88.4368C195.211 88.0564 195.195 87.7773 195.142 87.5993C195.1 87.4115 194.994 87.2823 194.822 87.2114C194.661 87.1308 194.422 87.0771 194.104 87.0501L194.12 86.7417C194.377 86.7654 194.72 86.7938 195.152 86.8267C195.593 86.8601 196.061 86.8898 196.554 86.9157C197.006 86.9394 197.449 86.9574 197.881 86.9697C198.323 86.9826 198.689 86.9915 198.977 86.9963Z" fill="#F0572F"/>
<path d="M199.288 65.9385C199.894 65.9703 200.359 66.0616 200.681 66.2125C201.003 66.3531 201.279 66.5015 201.508 66.6578C201.627 66.7363 201.722 66.7979 201.792 66.8428C201.872 66.878 201.949 66.8974 202.021 66.9012C202.123 66.9066 202.198 66.8538 202.245 66.7429C202.303 66.6325 202.353 66.4651 202.395 66.2405L202.75 66.2591C202.729 66.4539 202.702 66.6895 202.667 66.966C202.642 67.2327 202.613 67.5868 202.58 68.0283C202.557 68.4703 202.526 69.0511 202.489 69.7707L202.134 69.7521C202.121 69.2154 202.025 68.6898 201.846 68.1753C201.666 67.6609 201.395 67.2343 201.031 66.8957C200.678 66.5474 200.23 66.3589 199.685 66.3304C199.191 66.3045 198.778 66.422 198.445 66.6829C198.112 66.9437 197.932 67.3208 197.906 67.8143C197.885 68.2254 197.969 68.5855 198.159 68.8944C198.349 69.193 198.633 69.4913 199.009 69.7893C199.395 70.0879 199.861 70.4473 200.406 70.8675C200.882 71.2121 201.308 71.5539 201.682 71.893C202.055 72.2322 202.35 72.6084 202.566 73.0217C202.781 73.435 202.874 73.9192 202.845 74.4743C202.809 75.1527 202.6 75.7035 202.217 76.1267C201.845 76.5504 201.365 76.8602 200.777 77.0562C200.19 77.2419 199.552 77.3167 198.863 77.2806C198.226 77.2472 197.721 77.1589 197.347 77.0156C196.973 76.8723 196.661 76.7271 196.411 76.58C196.192 76.4242 196.021 76.3431 195.898 76.3366C195.795 76.3312 195.715 76.3837 195.658 76.4941C195.611 76.605 195.566 76.7728 195.523 76.9973L195.168 76.9787C195.202 76.7331 195.227 76.4458 195.245 76.1168C195.272 75.7884 195.3 75.3621 195.327 74.8378C195.365 74.3038 195.406 73.6308 195.448 72.8187L195.803 72.8373C195.809 73.5179 195.888 74.1612 196.042 74.7671C196.207 75.3633 196.475 75.8515 196.847 76.2317C197.229 76.6125 197.749 76.8202 198.406 76.8547C198.766 76.8735 199.088 76.8285 199.372 76.7197C199.667 76.6012 199.909 76.418 200.097 76.1702C200.285 75.9223 200.389 75.6083 200.409 75.2279C200.432 74.7962 200.348 74.4156 200.16 74.0861C199.981 73.7572 199.724 73.4448 199.389 73.149C199.065 72.8536 198.684 72.5502 198.246 72.2387C197.78 71.8947 197.344 71.5523 196.94 71.2116C196.535 70.8708 196.215 70.4881 195.979 70.0634C195.754 69.6393 195.656 69.1446 195.686 68.5792C195.72 67.9316 195.907 67.4105 196.247 67.0161C196.598 66.6118 197.041 66.3258 197.576 66.158C198.121 65.9804 198.692 65.9072 199.288 65.9385Z" fill="#F0572F"/>
<path d="M122.286 118.595L117.893 131.484C120.571 130.458 123.306 129.727 126.098 129.29C129.028 129.006 132.092 128.948 135.29 129.116C140.814 129.405 144.823 130.782 147.318 133.245C149.805 135.853 150.953 138.974 150.763 142.608C150.542 146.824 148.833 150.233 145.635 152.835C142.583 155.444 138.406 157.266 133.105 158.3C127.948 159.342 122.027 159.687 115.34 159.337C111.415 159.131 107.796 158.65 104.483 157.893C101.163 157.282 98.2897 156.475 95.8642 155.473L97.3782 151.617C98.3881 151.816 99.8304 152.11 101.705 152.5C103.579 152.89 105.607 153.142 107.787 153.256C109.968 153.37 112.091 153.19 114.156 152.715C116.222 152.24 117.943 151.383 119.32 150.143C120.835 149.057 121.642 147.568 121.741 145.679C121.931 142.045 119.991 140.121 115.921 139.907C114.758 139.846 113.519 139.854 112.203 139.931C110.879 140.153 109.693 140.529 108.645 141.057L116.398 118.286L122.286 118.595Z" fill="#F0572F"/>
<path d="M115.417 120.634L120.835 108.142C118.084 108.948 115.299 109.457 112.48 109.666C109.536 109.713 106.478 109.523 103.304 109.098C97.8211 108.364 93.936 106.669 91.6482 104.012C89.3798 101.212 88.4871 98.008 88.9703 94.401C89.5307 90.217 91.5094 86.9573 94.9064 84.6219C98.1591 82.2672 102.469 80.7884 107.837 80.1856C113.061 79.5636 118.991 79.697 125.628 80.586C129.523 81.1077 133.091 81.8795 136.333 82.901C139.593 83.7784 142.391 84.8141 144.728 86.0083L142.908 89.7298C141.917 89.4503 140.504 89.0406 138.667 88.5008C136.83 87.961 134.829 87.5462 132.665 87.2563C130.501 86.9664 128.37 86.9748 126.273 87.2813C124.176 87.5879 122.391 88.3034 120.919 89.428C119.321 90.3889 118.397 91.8072 118.146 93.6828C117.663 97.2897 119.441 99.3637 123.481 99.9048C124.635 100.059 125.871 100.152 127.189 100.181C128.526 100.067 129.738 99.7884 130.825 99.3466L121.26 121.417L115.417 120.634Z" fill="#F0572F"/>
</svg>
