<svg width="341" height="341" viewBox="0 0 341 341" fill="none" xmlns="http://www.w3.org/2000/svg">
<path d="M234.875 86.9728L230.967 123.942L230.917 124.414L231.387 124.488L268.108 130.278L246.24 160.341L245.96 160.725L246.329 161.024L275.236 184.399L241.266 199.499L240.832 199.692L241.003 200.136L254.349 234.832L217.38 230.925L216.907 230.875L216.833 231.344L211.044 268.066L180.981 246.197L180.597 245.917L180.298 246.287L156.923 275.194L141.823 241.224L141.63 240.789L141.186 240.96L106.49 254.306L110.397 217.337L110.447 216.865L109.978 216.791L73.2564 211.001L95.1251 180.938L95.4045 180.554L95.0351 180.256L66.1284 156.881L100.098 141.78L100.533 141.587L100.362 141.144L87.0155 106.447L123.985 110.355L124.457 110.404L124.531 109.935L130.321 73.2137L160.383 95.0824L160.768 95.3619L161.066 94.9925L184.441 66.0857L199.542 100.056L199.735 100.49L200.178 100.319L234.875 86.9728Z" fill="#3A001E" stroke="white"/>
<path d="M214.143 109.675L211.294 136.627L211.244 137.1L211.714 137.174L238.485 141.395L222.542 163.312L222.263 163.696L222.632 163.995L243.706 181.036L218.941 192.045L218.507 192.238L218.677 192.681L228.407 217.977L201.455 215.128L200.983 215.078L200.909 215.547L196.688 242.319L174.771 226.375L174.387 226.096L174.088 226.465L157.047 247.54L146.038 222.774L145.845 222.34L145.401 222.511L120.106 232.241L122.955 205.289L123.005 204.816L122.535 204.742L95.7639 200.521L111.707 178.604L111.987 178.22L111.617 177.921L90.5429 160.88L115.308 149.871L115.743 149.678L115.572 149.235L105.842 123.939L132.794 126.788L133.266 126.838L133.34 126.369L137.561 99.5973L159.478 115.54L159.862 115.82L160.161 115.451L177.203 94.3763L188.211 119.142L188.404 119.576L188.848 119.405L214.143 109.675Z" fill="#3A001E" stroke="white"/>
<path d="M194.877 154.639C199.066 156.457 202.331 159.031 204.672 162.361C207.097 165.658 208.469 169.444 208.787 173.719C209.104 177.994 208.239 182.491 206.19 187.211C204.141 191.931 201.353 195.769 197.825 198.726C194.324 201.623 190.418 203.433 186.107 204.156C181.881 204.846 177.526 204.217 173.042 202.271C168.971 200.503 165.723 197.971 163.298 194.675C160.898 191.319 159.51 187.491 159.133 183.19C158.841 178.856 159.719 174.329 161.768 169.61C163.792 164.949 166.525 161.157 169.967 158.234C173.469 155.336 177.375 153.526 181.686 152.803C185.996 152.08 190.394 152.692 194.877 154.639ZM193.389 155.886C189.613 154.247 185.616 154.895 181.396 157.831C177.235 160.793 173.593 165.873 170.468 173.071C168.163 178.381 166.925 182.927 166.756 186.71C166.611 190.434 167.252 193.481 168.676 195.853C170.16 198.25 172.111 199.973 174.53 201.023C178.365 202.688 182.363 202.04 186.524 199.078C190.71 196.057 194.365 190.948 197.49 183.75C199.795 178.44 201.02 173.923 201.164 170.199C201.334 166.417 200.694 163.369 199.243 161.057C197.819 158.685 195.867 156.962 193.389 155.886Z" fill="#3A001E"/>
<path d="M157.405 138.686L141.154 176.121C139.925 178.953 139.741 181.152 140.604 182.719C141.466 184.285 143.432 185.735 146.499 187.066L145.693 188.925C144.538 188.354 142.823 187.539 140.548 186.481C138.357 185.39 136.053 184.319 133.634 183.269C130.92 182.091 128.269 181.01 125.68 180.027C123.177 179.01 121.234 178.236 119.851 177.706L120.658 175.848C123.608 177.129 126.114 177.655 128.176 177.429C130.263 177.143 131.934 175.554 133.189 172.664L142.487 151.247C143.716 148.415 144.33 146.192 144.329 144.579C144.329 142.966 143.651 141.62 142.296 140.541C141 139.488 139.025 138.385 136.37 137.232L137.215 135.285C141.515 137.012 145.221 138.165 148.335 138.745C151.448 139.326 154.472 139.306 157.405 138.686Z" fill="#3A001E"/>
<path fill-rule="evenodd" clip-rule="evenodd" d="M198.309 199.304L198.306 199.307C194.706 202.285 190.678 204.154 186.231 204.9L186.228 204.9C181.84 205.616 177.339 204.958 172.742 202.962C168.559 201.147 165.201 198.535 162.69 195.122L162.684 195.114C160.202 191.643 158.77 187.685 158.382 183.256L158.381 183.249L158.381 183.241C158.079 178.767 158.988 174.12 161.076 169.31C163.14 164.556 165.938 160.666 169.479 157.66L169.486 157.653L169.486 157.653C173.086 154.675 177.114 152.806 181.561 152.06C186.031 151.31 190.576 151.95 195.177 153.948C199.475 155.813 202.854 158.468 205.284 161.922C207.794 165.337 209.21 169.257 209.538 173.663C209.866 178.082 208.969 182.702 206.881 187.512C204.791 192.326 201.936 196.264 198.309 199.304ZM204.672 162.362C202.331 159.032 199.066 156.457 194.877 154.639C190.393 152.692 185.996 152.081 181.685 152.804C177.375 153.527 173.469 155.337 169.967 158.234C166.524 161.157 163.791 164.949 161.768 169.61C159.719 174.33 158.84 178.857 159.133 183.191C159.509 187.491 160.898 191.319 163.297 194.675C165.723 197.972 168.971 200.504 173.042 202.271C177.526 204.218 181.881 204.846 186.107 204.156C190.417 203.433 194.323 201.623 197.825 198.726C201.352 195.77 204.14 191.931 206.189 187.212C208.238 182.492 209.104 177.994 208.786 173.719C208.468 169.444 207.097 165.659 204.672 162.362ZM200.411 170.171L200.411 170.166C200.576 166.479 199.947 163.599 198.604 161.457L198.601 161.451L198.597 161.445C197.251 159.205 195.419 157.589 193.089 156.578C189.615 155.069 185.895 155.62 181.83 158.448C177.827 161.299 174.255 166.239 171.159 173.371C168.873 178.636 167.673 183.087 167.508 186.742C167.368 190.365 167.994 193.252 169.319 195.46C170.728 197.734 172.563 199.348 174.83 200.332C178.365 201.867 182.084 201.313 186.084 198.466C190.117 195.555 193.702 190.582 196.798 183.45C199.085 178.184 200.271 173.764 200.411 170.171ZM186.523 199.078C182.363 202.04 178.365 202.689 174.53 201.024C172.111 199.974 170.16 198.25 168.676 195.853C167.251 193.482 166.611 190.434 166.755 186.71C166.925 182.927 168.162 178.381 170.468 173.071C173.592 165.873 177.235 160.793 181.396 157.832C185.615 154.895 189.613 154.247 193.389 155.886C195.867 156.962 197.818 158.685 199.243 161.057C200.693 163.369 201.333 166.417 201.164 170.2C201.02 173.924 199.795 178.44 197.49 183.75C194.365 190.948 190.709 196.058 186.523 199.078Z" fill="white"/>
<path fill-rule="evenodd" clip-rule="evenodd" d="M158.678 137.648L141.845 176.422C140.643 179.191 140.574 181.104 141.264 182.356C142.001 183.695 143.769 185.06 146.799 186.375L147.491 186.676L146.068 189.952L145.358 189.601C144.212 189.034 142.504 188.222 140.23 187.165L140.221 187.161L140.212 187.156C138.034 186.071 135.741 185.006 133.333 183.961C130.629 182.787 127.989 181.711 125.412 180.732L125.404 180.729L125.396 180.725C122.894 179.709 120.957 178.938 119.581 178.411L118.846 178.129L120.266 174.857L120.958 175.157C123.843 176.409 126.206 176.885 128.083 176.681C129.791 176.443 131.293 175.137 132.497 172.364L141.795 150.947C143.014 148.139 143.576 146.033 143.575 144.58C143.575 143.215 143.017 142.079 141.826 141.131L141.82 141.127C140.603 140.137 138.7 139.066 136.07 137.924L135.378 137.624L136.816 134.313L137.496 134.586C141.768 136.302 145.424 137.436 148.472 138.005C151.494 138.568 154.418 138.547 157.249 137.949L158.678 137.648ZM128.175 177.429C126.113 177.656 123.607 177.129 120.657 175.848L119.851 177.707C120.071 177.791 120.306 177.882 120.554 177.979C121.867 178.49 123.575 179.172 125.68 180.027C128.268 181.01 130.919 182.091 133.633 183.269C136.052 184.32 138.357 185.39 140.548 186.482C142.414 187.349 143.903 188.053 145.015 188.593C145.259 188.712 145.485 188.822 145.692 188.925L146.499 187.067C143.431 185.735 141.466 184.286 140.603 182.719C139.741 181.153 139.924 178.954 141.154 176.122L157.405 138.687C157.107 138.75 156.809 138.806 156.51 138.857C153.857 139.304 151.132 139.267 148.334 138.746C145.221 138.165 141.514 137.012 137.215 135.286L136.37 137.233C139.025 138.385 141 139.488 142.296 140.542C143.65 141.621 144.328 142.967 144.329 144.58C144.33 146.193 143.716 148.415 142.486 151.247L133.189 172.664C131.934 175.555 130.262 177.143 128.175 177.429Z" fill="white"/>
</svg>
