<svg width="156" height="158" viewBox="0 0 156 158" fill="none" xmlns="http://www.w3.org/2000/svg">
<path d="M79.2778 1.54581C90.3325 -1.83393 102.35 0.940636 110.805 8.82435L145.499 41.1769C153.953 49.0606 157.559 60.8557 154.959 72.1192L144.287 118.341C141.687 129.605 133.275 138.625 122.221 142.005L76.8555 155.874C65.8009 159.254 53.7829 156.48 45.3287 148.596L10.6348 116.243C2.18055 108.36 -1.42559 96.5645 1.17478 85.3011L11.846 39.0791C14.4464 27.8156 22.8582 18.795 33.9128 15.4153L79.2778 1.54581Z" fill="black"/>
<path fill-rule="evenodd" clip-rule="evenodd" d="M145.019 41.6913L110.325 9.33878C102.055 1.62645 90.2978 -1.0878 79.4835 2.21847L34.1185 16.088C23.3041 19.3942 15.0752 28.2187 12.5313 39.2373L1.86015 85.4593C-0.683694 96.4779 2.84405 108.017 11.1145 115.729L45.8084 148.081C54.0788 155.794 65.8355 158.508 76.6498 155.202L122.015 141.332C132.829 138.026 141.058 129.202 143.602 118.183L154.273 71.961C156.817 60.9424 153.289 49.4036 145.019 41.6913ZM110.805 8.82435C102.35 0.940636 90.3325 -1.83393 79.2778 1.54581L33.9128 15.4153C22.8582 18.795 14.4464 27.8156 11.846 39.0791L1.17478 85.3011C-1.42559 96.5645 2.18055 108.36 10.6348 116.243L45.3287 148.596C53.7829 156.48 65.8009 159.254 76.8555 155.874L122.221 142.005C133.275 138.625 141.687 129.605 144.287 118.341L154.959 72.1192C157.559 60.8557 153.953 49.0606 145.499 41.1769L110.805 8.82435Z" fill="#3A001E"/>
<path d="M87.7694 43.0788C87.7632 42.4032 87.9535 41.929 88.3402 41.6563C88.7074 41.3725 89.1073 41.2365 89.5401 41.2483C90.0036 41.2516 90.4203 41.3836 90.7901 41.6442C91.1599 41.9048 91.3479 42.3729 91.354 43.0485C91.3516 43.6934 91.1835 44.4257 90.8497 45.2454C90.4964 46.054 90.1064 47.0875 89.6799 48.346L89.5585 48.355C89.1254 47.1538 88.7183 46.1354 88.3373 45.2997C87.9673 44.4444 87.778 43.7041 87.7694 43.0788ZM89.5917 48.2962C90.3966 47.329 91.0749 46.4713 91.6268 45.7232C92.1787 44.975 92.7247 44.4433 93.2648 44.1279C93.8466 43.7844 94.3543 43.7093 94.788 43.9026C95.2132 44.0652 95.537 44.3386 95.7595 44.7228C96.0015 45.1181 96.0958 45.5461 96.0422 46.0071C95.9997 46.4484 95.6876 46.8408 95.1058 47.1843C94.5546 47.5192 93.8326 47.7448 92.9398 47.8609C92.0581 47.9573 90.9659 48.1288 89.6633 48.3754L89.5917 48.2962ZM89.6671 48.3C90.9051 48.534 91.985 48.7045 92.9068 48.8116C93.8201 48.8881 94.561 49.0869 95.1293 49.4079C95.7172 49.74 96.0347 50.1391 96.0817 50.6051C96.1286 51.0711 96.047 51.4903 95.8366 51.8627C95.6152 52.2546 95.2983 52.541 94.886 52.7217C94.4737 52.9024 93.9736 52.8267 93.3857 52.4946C92.8173 52.1735 92.2634 51.6667 91.724 50.9742C91.1956 50.2621 90.5032 49.4056 89.6467 48.4048L89.6671 48.3ZM89.6173 48.3882L89.7093 48.3626C90.1424 49.5638 90.5439 50.592 90.9139 51.4473C91.2949 52.2829 91.4898 53.0135 91.4984 53.6388C91.5046 54.3144 91.3241 54.7941 90.9569 55.0779C90.5702 55.3506 90.1604 55.4811 89.7276 55.4692C89.2531 55.4855 88.8407 55.3689 88.4905 55.1194C88.1318 54.8392 87.9395 54.3557 87.9138 53.6691C87.9162 53.0241 88.0941 52.2974 88.4474 51.4888C88.7812 50.6691 89.1712 49.6356 89.6173 48.3882ZM84.162 49.5333C84.7132 49.1983 85.4296 48.9826 86.3114 48.8861C87.1846 48.7589 88.2823 48.5776 89.6045 48.3422L89.6761 48.4214C88.8712 49.3886 88.1928 50.2462 87.6409 50.9944C87.0695 51.7315 86.5235 52.2632 86.003 52.5897C85.4212 52.9331 84.9232 53.0138 84.5091 52.8316C84.0755 52.6383 83.7418 52.3593 83.5083 51.9948C83.2663 51.5995 83.1665 51.1812 83.209 50.7399C83.2625 50.279 83.5802 49.8768 84.162 49.5333ZM83.4312 44.8549C83.6415 44.4825 83.9528 44.206 84.3651 44.0253C84.7885 43.825 85.2942 43.8909 85.8821 44.223C86.4309 44.533 86.9792 45.0495 87.5272 45.7727C88.0556 46.4848 88.7634 47.3371 89.6505 48.3294L89.6007 48.4176C88.3516 48.2032 87.2662 48.0424 86.3444 47.9353C85.4225 47.8282 84.6872 47.6196 84.1385 47.3097C83.5505 46.9775 83.2275 46.5883 83.1695 46.1418C83.1225 45.6758 83.2098 45.2468 83.4312 44.8549Z" fill="#3A001E"/>
<path d="M92.2621 45.6164C92.2559 44.9408 92.4462 44.4667 92.833 44.1939C93.2001 43.9102 93.6001 43.7742 94.0329 43.786C94.4963 43.7893 94.913 43.9212 95.2828 44.1818C95.6526 44.4425 95.8406 44.9106 95.8467 45.5862C95.8443 46.2311 95.6762 46.9634 95.3424 47.7831C94.9891 48.5917 94.5991 49.6252 94.1726 50.8837L94.0512 50.8926C93.6181 49.6915 93.2111 48.6731 92.83 47.8374C92.4601 46.9821 92.2707 46.2418 92.2621 45.6164ZM94.0844 50.8338C94.8893 49.8667 95.5677 49.009 96.1196 48.2608C96.6714 47.5127 97.2174 46.9809 97.7575 46.6656C98.3393 46.3221 98.847 46.247 99.2807 46.4403C99.7059 46.6029 100.03 46.8763 100.252 47.2605C100.494 47.6557 100.588 48.0838 100.535 48.5447C100.492 48.9861 100.18 49.3785 99.5985 49.722C99.0473 50.0569 98.3254 50.2824 97.4325 50.3985C96.5508 50.495 95.4586 50.6665 94.156 50.9131L94.0844 50.8338ZM94.1598 50.8377C95.3978 51.0716 96.4777 51.2422 97.3995 51.3493C98.3129 51.4258 99.0537 51.6245 99.622 51.9456C100.21 52.2777 100.527 52.6768 100.574 53.1428C100.621 53.6088 100.54 54.028 100.329 54.4003C100.108 54.7923 99.7911 55.0786 99.3787 55.2593C98.9664 55.4401 98.4663 55.3644 97.8784 55.0322C97.31 54.7112 96.7561 54.2044 96.2167 53.5119C95.6883 52.7998 94.9959 51.9433 94.1394 50.9425L94.1598 50.8377ZM94.11 50.9258L94.202 50.9003C94.6351 52.1014 95.0366 53.1297 95.4066 53.9849C95.7876 54.8206 95.9825 55.5511 95.9911 56.1765C95.9973 56.8521 95.8168 57.3318 95.4496 57.6156C95.0629 57.8883 94.6532 58.0187 94.2204 58.0069C93.7458 58.0232 93.3334 57.9066 92.9832 57.6571C92.6245 57.3769 92.4322 56.8934 92.4065 56.2067C92.4089 55.5618 92.5868 54.835 92.9402 54.0264C93.2739 53.2068 93.6639 52.1732 94.11 50.9258ZM88.6547 52.0709C89.2059 51.736 89.9223 51.5203 90.8041 51.4238C91.6773 51.2966 92.775 51.1153 94.0972 50.8798L94.1688 50.9591C93.3639 51.9262 92.6855 52.7839 92.1337 53.5321C91.5622 54.2692 91.0162 54.8009 90.4957 55.1273C89.9139 55.4708 89.416 55.5515 89.0019 55.3692C88.5682 55.1759 88.2345 54.897 88.001 54.5324C87.759 54.1372 87.6592 53.7189 87.7017 53.2776C87.7552 52.8166 88.0729 52.4144 88.6547 52.0709ZM87.9239 47.3926C88.1342 47.0202 88.4456 46.7437 88.8579 46.563C89.2812 46.3626 89.7869 46.4285 90.3748 46.7607C90.9236 47.0706 91.4719 47.5872 92.0199 48.3104C92.5483 49.0225 93.2561 49.8747 94.1432 50.8671L94.0934 50.9552C92.8444 50.7409 91.7589 50.5801 90.8371 50.473C89.9152 50.3659 89.1799 50.1573 88.6312 49.8473C88.0433 49.5152 87.7203 49.1259 87.6622 48.6795C87.6152 48.2135 87.7025 47.7845 87.9239 47.3926Z" fill="#3A001E"/>
<path d="M103.584 88.3107C103.578 87.6351 103.768 87.161 104.155 86.8883C104.522 86.6045 104.922 86.4685 105.355 86.4803C105.819 86.4836 106.235 86.6155 106.605 86.8762C106.975 87.1368 107.163 87.6049 107.169 88.2805C107.166 88.9254 106.998 89.6577 106.665 90.4774C106.311 91.286 105.921 92.3195 105.495 93.578L105.373 93.5869C104.94 92.3858 104.533 91.3674 104.152 90.5317C103.782 89.6764 103.593 88.9361 103.584 88.3107ZM105.407 93.5281C106.211 92.561 106.89 91.7033 107.442 90.9551C107.994 90.207 108.54 89.6752 109.08 89.3599C109.661 89.0164 110.169 88.9413 110.603 89.1346C111.028 89.2972 111.352 89.5706 111.574 89.9548C111.816 90.35 111.911 90.7781 111.857 91.2391C111.815 91.6804 111.502 92.0728 110.921 92.4163C110.37 92.7512 109.648 92.9767 108.755 93.0928C107.873 93.1893 106.781 93.3608 105.478 93.6074L105.407 93.5281ZM105.482 93.532C106.72 93.7659 107.8 93.9365 108.722 94.0436C109.635 94.1201 110.376 94.3188 110.944 94.6399C111.532 94.972 111.85 95.3711 111.897 95.8371C111.944 96.3031 111.862 96.7223 111.652 97.0946C111.43 97.4866 111.113 97.7729 110.701 97.9537C110.289 98.1344 109.789 98.0587 109.201 97.7265C108.632 97.4055 108.078 96.8987 107.539 96.2062C107.01 95.4941 106.318 94.6376 105.462 93.6368L105.482 93.532ZM105.432 93.6202L105.524 93.5946C105.957 94.7957 106.359 95.824 106.729 96.6792C107.11 97.5149 107.305 98.2454 107.313 98.8708C107.319 99.5464 107.139 100.026 106.772 100.31C106.385 100.583 105.975 100.713 105.543 100.701C105.068 100.718 104.656 100.601 104.305 100.351C103.947 100.071 103.754 99.5877 103.729 98.901C103.731 98.2561 103.909 97.5293 104.262 96.7207C104.596 95.9011 104.986 94.8675 105.432 93.6202ZM99.9769 94.7652C100.528 94.4303 101.245 94.2146 102.126 94.1181C102.999 93.9909 104.097 93.8096 105.419 93.5742L105.491 93.6534C104.686 94.6205 104.008 95.4782 103.456 96.2264C102.884 96.9635 102.338 97.4952 101.818 97.8216C101.236 98.1651 100.738 98.2458 100.324 98.0635C99.8904 97.8702 99.5567 97.5913 99.3232 97.2267C99.0812 96.8315 98.9814 96.4132 99.0239 95.9719C99.0774 95.5109 99.3951 95.1087 99.9769 94.7652ZM99.2461 90.0869C99.4564 89.7145 99.7677 89.438 100.18 89.2573C100.603 89.0569 101.109 89.1228 101.697 89.455C102.246 89.7649 102.794 90.2815 103.342 91.0047C103.871 91.7168 104.578 92.569 105.465 93.5614L105.416 93.6496C104.167 93.4352 103.081 93.2744 102.159 93.1673C101.237 93.0602 100.502 92.8516 99.9534 92.5416C99.3654 92.2095 99.0424 91.8202 98.9844 91.3738C98.9374 90.9078 99.0247 90.4788 99.2461 90.0869Z" fill="#3A001E"/>
<path d="M108.078 90.849C108.071 90.1734 108.262 89.6992 108.648 89.4265C109.016 89.1427 109.416 89.0067 109.848 89.0185C110.312 89.0218 110.728 89.1538 111.098 89.4144C111.468 89.675 111.656 90.1431 111.662 90.8187C111.66 91.4637 111.492 92.196 111.158 93.0156C110.805 93.8242 110.415 94.8578 109.988 96.1162L109.867 96.1252C109.434 94.924 109.027 93.9056 108.645 93.0699C108.276 92.2146 108.086 91.4743 108.078 90.849ZM109.9 96.0664C110.705 95.0992 111.383 94.2416 111.935 93.4934C112.487 92.7452 113.033 92.2135 113.573 91.8981C114.155 91.5546 114.663 91.4795 115.096 91.6728C115.521 91.8354 115.845 92.1088 116.068 92.493C116.31 92.8883 116.404 93.3164 116.35 93.7773C116.308 94.2186 115.996 94.611 115.414 94.9545C114.863 95.2895 114.141 95.515 113.248 95.6311C112.366 95.7276 111.274 95.8991 109.971 96.1456L109.9 96.0664ZM109.975 96.0702C111.213 96.3042 112.293 96.4747 113.215 96.5819C114.128 96.6583 114.869 96.8571 115.437 97.1781C116.025 97.5103 116.343 97.9093 116.39 98.3753C116.437 98.8413 116.355 99.2605 116.145 99.6329C115.923 100.025 115.607 100.311 115.194 100.492C114.782 100.673 114.282 100.597 113.694 100.265C113.126 99.9437 112.572 99.437 112.032 98.7444C111.504 98.0323 110.811 97.1759 109.955 96.175L109.975 96.0702ZM109.925 96.1584L110.017 96.1328C110.451 97.334 110.852 98.3622 111.222 99.2175C111.603 100.053 111.798 100.784 111.807 101.409C111.813 102.085 111.632 102.564 111.265 102.848C110.878 103.121 110.469 103.251 110.036 103.239C109.561 103.256 109.149 103.139 108.799 102.89C108.44 102.609 108.248 102.126 108.222 101.439C108.224 100.794 108.402 100.068 108.756 99.259C109.089 98.4393 109.479 97.4058 109.925 96.1584ZM104.47 97.3035C105.021 96.9685 105.738 96.7528 106.62 96.6563C107.493 96.5292 108.59 96.3479 109.913 96.1124L109.984 96.1916C109.179 97.1588 108.501 98.0165 107.949 98.7646C107.378 99.5017 106.832 100.033 106.311 100.36C105.729 100.703 105.231 100.784 104.817 100.602C104.384 100.408 104.05 100.13 103.816 99.765C103.574 99.3697 103.475 98.9514 103.517 98.5101C103.571 98.0492 103.888 97.647 104.47 97.3035ZM103.739 92.6251C103.95 92.2528 104.261 91.9762 104.673 91.7955C105.097 91.5952 105.602 91.6611 106.19 91.9932C106.739 92.3032 107.287 92.8198 107.835 93.543C108.364 94.2551 109.072 95.1073 109.959 96.0996L109.909 96.1878C108.66 95.9734 107.574 95.8126 106.653 95.7055C105.731 95.5984 104.995 95.3899 104.447 95.0799C103.859 94.7477 103.536 94.3585 103.478 93.9121C103.431 93.4461 103.518 93.0171 103.739 92.6251Z" fill="#3A001E"/>
<path d="M61.3747 106.876C61.3686 106.2 61.5589 105.726 61.9456 105.453C62.3127 105.17 62.7127 105.034 63.1455 105.045C63.609 105.049 64.0256 105.181 64.3954 105.441C64.7652 105.702 64.9532 106.17 64.9593 106.846C64.9569 107.491 64.7889 108.223 64.4551 109.043C64.1017 109.851 63.7118 110.885 63.2852 112.143L63.1638 112.152C62.7308 110.951 62.3237 109.933 61.9427 109.097C61.5727 108.242 61.3834 107.501 61.3747 106.876ZM63.1971 112.093C64.0019 111.126 64.6803 110.269 65.2322 109.52C65.7841 108.772 66.3301 108.24 66.8701 107.925C67.4519 107.582 67.9597 107.506 68.3934 107.7C68.8186 107.862 69.1424 108.136 69.3648 108.52C69.6069 108.915 69.7011 109.343 69.6476 109.804C69.6051 110.246 69.2929 110.638 68.7111 110.981C68.16 111.316 67.438 111.542 66.5452 111.658C65.6634 111.755 64.5712 111.926 63.2686 112.173L63.1971 112.093ZM63.2725 112.097C64.5104 112.331 65.5903 112.502 66.5122 112.609C67.4255 112.685 68.1663 112.884 68.7347 113.205C69.3226 113.537 69.6401 113.936 69.687 114.402C69.734 114.868 69.6523 115.287 69.442 115.66C69.2206 116.052 68.9037 116.338 68.4914 116.519C68.0791 116.7 67.579 116.624 66.991 116.292C66.4227 115.971 65.8688 115.464 65.3293 114.771C64.8009 114.059 64.1085 113.203 63.252 112.202L63.2725 112.097ZM63.2226 112.185L63.3146 112.16C63.7477 113.361 64.1493 114.389 64.5192 115.244C64.9003 116.08 65.0951 116.811 65.1038 117.436C65.1099 118.112 64.9294 118.591 64.5623 118.875C64.1756 119.148 63.7658 119.278 63.333 119.266C62.8585 119.283 62.4461 119.166 62.0959 118.917C61.7371 118.636 61.5449 118.153 61.5192 117.466C61.5216 116.821 61.6994 116.095 62.0528 115.286C62.3866 114.466 62.7765 113.433 63.2226 112.185ZM57.7674 113.33C58.3185 112.995 59.035 112.78 59.9167 112.683C60.7899 112.556 61.8877 112.375 63.2099 112.139L63.2814 112.219C62.4766 113.186 61.7982 114.043 61.2463 114.792C60.6748 115.529 60.1288 116.06 59.6084 116.387C59.0266 116.73 58.5286 116.811 58.1145 116.629C57.6808 116.435 57.3472 116.157 57.1137 115.792C56.8716 115.397 56.7718 114.978 56.8143 114.537C56.8679 114.076 57.1856 113.674 57.7674 113.33ZM57.0365 108.652C57.2469 108.28 57.5582 108.003 57.9705 107.822C58.3939 107.622 58.8995 107.688 59.4875 108.02C60.0362 108.33 60.5846 108.847 61.1326 109.57C61.661 110.282 62.3687 111.134 63.2559 112.127L63.206 112.215C61.957 112 60.8716 111.84 59.9497 111.732C59.0279 111.625 58.2926 111.417 57.7438 111.107C57.1559 110.775 56.8329 110.385 56.7749 109.939C56.7279 109.473 56.8151 109.044 57.0365 108.652Z" fill="#3A001E"/>
<path d="M65.8674 109.414C65.8613 108.738 66.0516 108.264 66.4383 107.991C66.8054 107.707 67.2054 107.571 67.6382 107.583C68.1017 107.586 68.5183 107.718 68.8881 107.979C69.258 108.24 69.4459 108.708 69.4521 109.383C69.4497 110.028 69.2816 110.761 68.9478 111.58C68.5944 112.389 68.2045 113.422 67.778 114.681L67.6566 114.69C67.2235 113.489 66.8164 112.47 66.4354 111.635C66.0654 110.779 65.8761 110.039 65.8674 109.414ZM67.6898 114.631C68.4946 113.664 69.173 112.806 69.7249 112.058C70.2768 111.31 70.8228 110.778 71.3628 110.463C71.9447 110.119 72.4524 110.044 72.8861 110.237C73.3113 110.4 73.6351 110.673 73.8575 111.058C74.0996 111.453 74.1938 111.881 74.1403 112.342C74.0978 112.783 73.7856 113.176 73.2038 113.519C72.6527 113.854 71.9307 114.08 71.0379 114.196C70.1561 114.292 69.064 114.464 67.7614 114.71L67.6898 114.631ZM67.7652 114.635C69.0031 114.869 70.083 115.039 71.0049 115.146C71.9182 115.223 72.659 115.422 73.2274 115.743C73.8153 116.075 74.1328 116.474 74.1797 116.94C74.2267 117.406 74.145 117.825 73.9347 118.198C73.7133 118.589 73.3964 118.876 72.9841 119.057C72.5718 119.237 72.0717 119.162 71.4837 118.829C70.9154 118.508 70.3615 118.002 69.822 117.309C69.2936 116.597 68.6012 115.74 67.7448 114.74L67.7652 114.635ZM67.7154 114.723L67.8074 114.697C68.2404 115.899 68.642 116.927 69.0119 117.782C69.393 118.618 69.5878 119.348 69.5965 119.974C69.6026 120.649 69.4221 121.129 69.055 121.413C68.6683 121.685 68.2585 121.816 67.8257 121.804C67.3512 121.82 66.9388 121.704 66.5886 121.454C66.2298 121.174 66.0376 120.691 66.0119 120.004C66.0143 119.359 66.1921 118.632 66.5455 117.824C66.8793 117.004 67.2692 115.97 67.7154 114.723ZM62.2601 115.868C62.8112 115.533 63.5277 115.317 64.4094 115.221C65.2827 115.094 66.3804 114.912 67.7026 114.677L67.7741 114.756C66.9693 115.723 66.2909 116.581 65.739 117.329C65.1675 118.066 64.6215 118.598 64.1011 118.925C63.5193 119.268 63.0213 119.349 62.6072 119.166C62.1735 118.973 61.8399 118.694 61.6064 118.33C61.3643 117.934 61.2645 117.516 61.307 117.075C61.3606 116.614 61.6783 116.212 62.2601 115.868ZM61.5292 111.19C61.7396 110.817 62.0509 110.541 62.4632 110.36C62.8866 110.16 63.3922 110.226 63.9802 110.558C64.5289 110.868 65.0773 111.384 65.6253 112.108C66.1537 112.82 66.8614 113.672 67.7486 114.664L67.6987 114.752C66.4497 114.538 65.3643 114.377 64.4424 114.27C63.5206 114.163 62.7853 113.954 62.2365 113.645C61.6486 113.312 61.3256 112.923 61.2676 112.477C61.2206 112.011 61.3078 111.582 61.5292 111.19Z" fill="#3A001E"/>
<path d="M52.4527 59.284C53.1283 59.2842 53.6007 59.479 53.8698 59.8682C54.1501 60.238 54.2823 60.6392 54.2664 61.0719C54.2588 61.5353 54.1229 61.9507 53.8589 62.3181C53.5948 62.6854 53.1249 62.869 52.4493 62.8688C51.8044 62.8603 51.0737 62.6854 50.2572 62.3439C49.452 61.983 48.4222 61.5833 47.1678 61.145L47.1599 61.0235C48.3651 60.6017 49.3873 60.2042 50.2265 59.8311C51.0852 59.4692 51.8273 59.2868 52.4527 59.284ZM47.2184 61.0573C48.178 61.8712 49.0292 62.5576 49.7722 63.1165C50.5151 63.6754 51.0417 64.2263 51.352 64.7693C51.69 65.3543 51.7603 65.8628 51.563 66.2946C51.3964 66.7183 51.1199 67.0395 50.7337 67.2583C50.3362 67.4967 49.9072 67.5869 49.4468 67.529C49.0059 67.4824 48.6165 67.1666 48.2785 66.5815C47.9487 66.0273 47.73 65.3032 47.6223 64.4093C47.5341 63.5267 47.3728 62.433 47.1385 61.1281L47.2184 61.0573ZM47.2139 61.1326C46.9683 62.3684 46.7876 63.4466 46.6718 64.3674C46.5868 65.28 46.3811 66.0189 46.0547 66.5842C45.7171 67.169 45.315 67.4827 44.8486 67.5253C44.3822 67.5679 43.9638 67.4822 43.5934 67.2684C43.2036 67.0433 42.9202 66.7238 42.7434 66.3098C42.5665 65.8958 42.6469 65.3964 42.9846 64.8116C43.3109 64.2463 43.8229 63.6972 44.5204 63.1643C45.2375 62.6426 46.1004 61.9583 47.1093 61.1112L47.2139 61.1326ZM47.1262 61.082L47.1509 61.1742C45.9457 61.596 44.9138 61.9879 44.055 62.3498C43.2158 62.723 42.4835 62.9109 41.8581 62.9137C41.1825 62.9135 40.7045 62.7285 40.4242 62.3588C40.1551 61.9695 40.0285 61.5585 40.0444 61.1258C40.0325 60.6512 40.153 60.2399 40.4058 59.892C40.6894 59.536 41.1746 59.3483 41.8615 59.329C42.5064 59.3374 43.2315 59.5221 44.0367 59.8831C44.8532 60.2245 45.883 60.6242 47.1262 61.082ZM46.0324 55.6162C46.3621 56.1705 46.5711 56.8889 46.6593 57.7715C46.7783 58.6459 46.9492 59.7453 47.1723 61.0696L47.0924 61.1405C46.1328 60.3266 45.2816 59.6402 44.5386 59.0813C43.8069 58.5029 43.2803 57.9519 42.9588 57.4284C42.6208 56.8434 42.5448 56.3447 42.7309 55.9324C42.9283 55.5005 43.2104 55.1695 43.5771 54.9394C43.9746 54.7011 44.3938 54.6052 44.8347 54.6519C45.2951 54.7098 45.6943 55.0312 46.0324 55.6162ZM50.7174 54.9293C51.0878 55.1432 51.3614 55.4571 51.5382 55.8711C51.7345 56.2963 51.6639 56.8013 51.3262 57.3861C51.0111 57.9319 50.4894 58.4754 49.7611 59.0166C49.0441 59.5383 48.1852 60.238 47.1846 61.1158L47.0969 61.0651C47.323 59.8182 47.494 58.7343 47.6097 57.8135C47.7255 56.8927 47.941 56.1594 48.2561 55.6136C48.5937 55.0288 48.986 54.7094 49.4329 54.6556C49.8994 54.613 50.3275 54.7043 50.7174 54.9293Z" fill="#3A001E"/>
<path d="M49.8723 63.7524C50.5479 63.7526 51.0203 63.9474 51.2894 64.3366C51.5697 64.7064 51.7019 65.1077 51.686 65.5403C51.6784 66.0037 51.5425 66.4191 51.2785 66.7865C51.0144 67.1538 50.5445 67.3374 49.8689 67.3372C49.224 67.3287 48.4933 67.1538 47.6768 66.8123C46.8716 66.4514 45.8418 66.0517 44.5874 65.6134L44.5795 65.4919C45.7847 65.0701 46.8069 64.6727 47.6461 64.2995C48.5049 63.9376 49.2469 63.7552 49.8723 63.7524ZM44.638 65.5257C45.5976 66.3396 46.4489 67.026 47.1918 67.5849C47.9347 68.1438 48.4613 68.6947 48.7716 69.2377C49.1096 69.8228 49.1799 70.3312 48.9826 70.7631C48.816 71.1867 48.5396 71.5079 48.1533 71.7267C47.7558 71.9651 47.3268 72.0553 46.8664 71.9974C46.4255 71.9508 46.0361 71.635 45.6981 71.0499C45.3683 70.4957 45.1496 69.7716 45.0419 68.8777C44.9537 67.9951 44.7924 66.9014 44.5581 65.5965L44.638 65.5257ZM44.6335 65.6011C44.3879 66.8368 44.2072 67.915 44.0914 68.8358C44.0064 69.7484 43.8007 70.4873 43.4743 71.0526C43.1367 71.6374 42.7347 71.9511 42.2682 71.9937C41.8018 72.0363 41.3834 71.9507 41.013 71.7368C40.6232 71.5117 40.3398 71.1922 40.163 70.7782C39.9861 70.3642 40.0665 69.8648 40.4042 69.2801C40.7305 68.7148 41.2425 68.1656 41.9401 67.6327C42.6571 67.111 43.52 66.4267 44.5289 65.5796L44.6335 65.6011ZM44.5458 65.5504L44.5705 65.6426C43.3653 66.0644 42.3334 66.4563 41.4747 66.8182C40.6354 67.1914 39.9031 67.3793 39.2777 67.3821C38.6021 67.3819 38.1241 67.1969 37.8438 66.8272C37.5747 66.4379 37.4481 66.0269 37.464 65.5943C37.4521 65.1196 37.5726 64.7083 37.8254 64.3605C38.109 64.0044 38.5942 63.8167 39.2811 63.7974C39.926 63.8058 40.6511 63.9905 41.4563 64.3515C42.2728 64.6929 43.3026 65.0926 44.5458 65.5504ZM43.452 60.0846C43.7817 60.6389 43.9907 61.3573 44.0789 62.24C44.1979 63.1143 44.3689 64.2137 44.5919 65.538L44.512 65.6089C43.5524 64.795 42.7012 64.1086 41.9582 63.5497C41.2266 62.9713 40.6999 62.4203 40.3784 61.8968C40.0404 61.3118 39.9645 60.8131 40.1506 60.4008C40.3479 59.9689 40.63 59.6379 40.9967 59.4078C41.3942 59.1695 41.8135 59.0736 42.2544 59.1203C42.7148 59.1782 43.114 59.4996 43.452 60.0846ZM48.137 59.3977C48.5074 59.6116 48.781 59.9255 48.9578 60.3395C49.1541 60.7647 49.0835 61.2697 48.7459 61.8545C48.4307 62.4003 47.909 62.9438 47.1807 63.485C46.4637 64.0067 45.6049 64.7064 44.6043 65.5842L44.5165 65.5335C44.7427 64.2866 44.9136 63.2027 45.0294 62.2819C45.1451 61.3611 45.3606 60.6278 45.6757 60.082C46.0133 59.4972 46.4056 59.1779 46.8526 59.124C47.319 59.0814 47.7471 59.1727 48.137 59.3977Z" fill="#3A001E"/>
<path d="M69.7843 77.4207L69.2367 77.2862C69.744 74.7979 69.7219 72.3901 69.1705 70.0629C68.6287 67.7528 67.6406 65.3081 66.2063 62.729C64.772 60.1499 63.2117 58.0122 61.5255 56.316C59.8489 54.637 57.8198 53.3566 55.4384 52.4748L55.613 51.9387C58.2294 52.5548 60.6415 53.6334 62.8493 55.1746C65.0495 56.7425 66.8906 58.859 68.3728 61.5242C69.8549 64.1893 70.6768 66.8614 70.8385 69.5404C70.9926 72.2463 70.6412 74.873 69.7843 77.4207Z" fill="#3A001E"/>
<path d="M83.4006 69.8486C80.7843 69.2325 78.376 68.1405 76.1758 66.5726C73.968 65.0314 72.123 62.9283 70.6409 60.2631C69.1587 57.598 68.3406 54.9126 68.1866 52.2067C68.0249 49.5277 68.3725 46.9143 69.2294 44.3666L69.7769 44.5011C69.2697 46.9894 69.287 49.3886 69.8288 51.6987C70.3802 54.0259 71.373 56.4792 72.8074 59.0583C74.2417 61.6374 75.7972 63.7665 77.4738 65.4455C79.16 67.1417 81.1938 68.4307 83.5752 69.3125L83.4006 69.8486Z" fill="#3A001E"/>
<path d="M85.136 83.5376L85.6836 83.6721C85.1763 86.1603 85.1984 88.5681 85.7498 90.8954C86.2916 93.2055 87.2797 95.6501 88.714 98.2292C90.1483 100.808 91.7086 102.946 93.3948 104.642C95.0714 106.321 97.1004 107.602 99.4819 108.483L99.3073 109.02C96.6909 108.403 94.2788 107.325 92.071 105.784C89.8708 104.216 88.0297 102.099 86.5475 99.4341C85.0654 96.769 84.2434 94.0969 84.0818 91.4178C83.9277 88.712 84.2791 86.0852 85.136 83.5376Z" fill="#3A001E"/>
<path d="M71.5195 91.1098C74.1359 91.7259 76.5441 92.8179 78.7443 94.3858C80.9521 95.927 82.7971 98.0301 84.2793 100.695C85.7614 103.36 86.5795 106.046 86.7336 108.752C86.8953 111.431 86.5477 114.044 85.6908 116.592L85.1432 116.457C85.6504 113.969 85.6331 111.57 85.0913 109.26C84.54 106.932 83.5471 104.479 82.1128 101.9C80.6784 99.3209 79.123 97.1919 77.4463 95.5129C75.7601 93.8167 73.7263 92.5277 71.3449 91.6459L71.5195 91.1098Z" fill="#3A001E"/>
<path d="M113.177 76.8356L112.905 77.3297C110.633 76.1957 108.301 75.5939 105.911 75.5241C103.539 75.4496 100.922 75.7713 98.0596 76.4892C95.1972 77.2071 92.7285 78.161 90.6537 79.3507C88.598 80.5356 86.8361 82.1641 85.3679 84.2362L84.8953 83.9288C86.1676 81.561 87.8337 79.5103 89.8938 77.7766C91.9777 76.0572 94.4987 74.8265 97.4566 74.0847C100.414 73.3428 103.208 73.2405 105.838 73.7777C108.491 74.3292 110.938 75.3485 113.177 76.8356Z" fill="#3A001E"/>
<path d="M109.387 61.7235C108.114 64.0913 106.436 66.1348 104.352 67.8542C102.292 69.5879 99.7834 70.8257 96.8254 71.5676C93.8675 72.3095 91.0618 72.4046 88.4083 71.8531C85.7787 71.3159 83.3443 70.3038 81.1053 68.8167L81.3769 68.3226C83.6491 69.4565 85.971 70.0608 88.3426 70.1353C90.7333 70.2051 93.3599 69.881 96.2224 69.1631C99.0849 68.4452 101.544 67.4937 103.6 66.3088C105.675 65.119 107.446 63.4881 108.914 61.4161L109.387 61.7235Z" fill="#3A001E"/>
<path d="M41.605 84.1728L41.8766 83.6787C44.1488 84.8126 46.4803 85.4145 48.871 85.4842C51.2426 85.5588 53.8596 85.2371 56.7221 84.5192C59.5846 83.8012 62.0533 82.8474 64.1281 81.6577C66.1838 80.4727 67.9457 78.8442 69.4138 76.7722L69.8865 77.0796C68.6142 79.4473 66.948 81.4981 64.888 83.2318C62.804 84.9512 60.2831 86.1818 57.3252 86.9237C54.3673 87.6655 51.5735 87.7679 48.9439 87.2306C46.2904 86.6791 43.8441 85.6598 41.605 84.1728Z" fill="#3A001E"/>
<path d="M45.395 99.2848C46.6673 96.9171 48.3454 94.8735 50.4293 93.1541C52.4894 91.4204 54.9984 90.1826 57.9563 89.4408C60.9142 88.6989 63.7199 88.6037 66.3734 89.1552C69.0031 89.6925 71.4374 90.7046 73.6765 92.1917L73.4049 92.6858C71.1327 91.5518 68.8108 90.9476 66.4392 90.873C64.0485 90.8033 61.4219 91.1273 58.5594 91.8453C55.6969 92.5632 53.2378 93.5146 51.1821 94.6996C49.1073 95.8893 47.3358 97.5202 45.8677 99.5923L45.395 99.2848Z" fill="#3A001E"/>
<path d="M97.0701 10.2445L97.8992 17.116L96.6925 17.2616L95.9847 11.3957L80.398 13.2762L80.2767 12.2707L97.0701 10.2445Z" fill="#3A001E"/>
<path d="M114.826 24.2479L111.186 30.1346L110.152 29.4954L113.26 24.4701L99.9067 16.2128L100.439 15.3514L114.826 24.2479Z" fill="#3A001E"/>
<path d="M129.17 40.7959L124.45 45.8579L123.561 45.029L127.591 40.7078L116.109 30.0005L116.799 29.2598L129.17 40.7959Z" fill="#3A001E"/>
<path d="M145.219 55.7614L140.499 60.8234L139.61 59.9945L143.639 55.6733L132.157 44.9661L132.848 44.2253L145.219 55.7614Z" fill="#3A001E"/>
<path d="M146.38 78.2861L139.545 79.3793L139.353 78.1791L145.188 77.2459L142.708 61.7432L143.708 61.5832L146.38 78.2861Z" fill="#3A001E"/>
<path d="M138.142 99.025L131.398 97.468L131.671 96.2837L137.428 97.6129L140.96 82.3155L141.947 82.5433L138.142 99.025Z" fill="#3A001E"/>
<path d="M133.223 120.331L126.479 118.774L126.752 117.59L132.509 118.919L136.041 103.622L137.028 103.85L133.223 120.331Z" fill="#3A001E"/>
<path d="M119.039 136.52L113.74 132.068L114.522 131.138L119.045 134.938L129.145 122.918L129.92 123.569L119.039 136.52Z" fill="#3A001E"/>
<path d="M96.6274 140.024L94.6038 133.405L95.7662 133.05L97.4937 138.7L112.507 134.11L112.804 135.079L96.6274 140.024Z" fill="#3A001E"/>
<path d="M75.7757 146.399L73.7521 139.781L74.9145 139.425L76.6419 145.076L91.6557 140.485L91.9518 141.454L75.7757 146.399Z" fill="#3A001E"/>
<path d="M54.3636 147.272L54.2751 140.351L55.4905 140.336L55.566 146.244L71.2645 146.043L71.2774 147.056L54.3636 147.272Z" fill="#3A001E"/>
<path d="M38.2321 131.396L42.4859 125.936L43.4447 126.683L39.8134 131.344L52.1981 140.993L51.5756 141.792L38.2321 131.396Z" fill="#3A001E"/>
<path d="M23.109 115.649L27.8294 110.587L28.7183 111.416L24.6887 115.737L36.1708 126.444L35.48 127.185L23.109 115.649Z" fill="#3A001E"/>
<path d="M8.31257 99.7492L13.4857 95.1509L14.2932 96.0594L9.87712 99.9847L20.3073 111.719L19.5503 112.392L8.31257 99.7492Z" fill="#3A001E"/>
<path d="M9.76084 77.1715L16.6729 76.8114L16.7361 78.0252L10.8356 78.3326L11.6525 94.0111L10.641 94.0638L9.76084 77.1715Z" fill="#3A001E"/>
<path d="M17.5468 56.4684L24.2908 58.0254L24.0174 59.2097L18.2603 57.8806L14.7287 73.178L13.7417 72.9501L17.5468 56.4684Z" fill="#3A001E"/>
<path d="M22.4487 35.2339L29.1927 36.7908L28.9193 37.9752L23.1622 36.646L19.6305 51.9434L18.6436 51.7155L22.4487 35.2339Z" fill="#3A001E"/>
<path d="M39.183 21.1368L43.9818 26.1245L43.106 26.9672L39.0094 22.7094L27.6959 33.5945L26.9936 32.8646L39.183 21.1368Z" fill="#3A001E"/>
<path d="M61.5255 17.8729L63.5491 24.4919L62.3868 24.8472L60.6593 19.1969L45.6455 23.7871L45.3494 22.8184L61.5255 17.8729Z" fill="#3A001E"/>
<path d="M82.3587 11.5036L84.3824 18.1225L83.22 18.4779L81.4925 12.8276L66.4788 17.4177L66.1826 16.4491L82.3587 11.5036Z" fill="#3A001E"/>
<path d="M92.8501 139.644L93.5516 133.829L92.5306 133.706L91.9318 138.669L78.7439 137.078L78.6412 137.929L92.8501 139.644Z" fill="#3A001E"/>
<path d="M107.874 127.795L104.794 122.814L103.919 123.355L106.548 127.607L95.2505 134.593L95.7012 135.322L107.874 127.795Z" fill="#3A001E"/>
<path d="M120.011 113.794L116.017 109.511L115.265 110.212L118.674 113.868L108.959 122.928L109.544 123.554L120.011 113.794Z" fill="#3A001E"/>
<path d="M133.589 101.132L129.595 96.8491L128.843 97.5505L132.253 101.207L122.538 110.266L123.122 110.893L133.589 101.132Z" fill="#3A001E"/>
<path d="M134.572 82.073L128.789 81.1481L128.626 82.1636L133.563 82.9532L131.465 96.0699L132.311 96.2053L134.572 82.073Z" fill="#3A001E"/>
<path d="M127.601 64.5267L121.895 65.844L122.126 66.8461L126.997 65.7215L129.985 78.6646L130.82 78.4718L127.601 64.5267Z" fill="#3A001E"/>
<path d="M123.439 46.4992L117.732 47.8165L117.964 48.8186L122.835 47.694L125.823 60.6371L126.658 60.4443L123.439 46.4992Z" fill="#3A001E"/>
<path d="M111.438 32.8013L106.955 36.5684L107.616 37.3558L111.444 34.14L119.989 44.3105L120.645 43.7592L111.438 32.8013Z" fill="#3A001E"/>
<path d="M92.4761 29.8364L90.7639 35.4366L91.7474 35.7373L93.209 30.9566L105.912 34.8403L106.163 34.0208L92.4761 29.8364Z" fill="#3A001E"/>
<path d="M74.8339 24.4429L73.1217 30.0432L74.1052 30.3439L75.5668 25.5632L88.2699 29.4469L88.5204 28.6273L74.8339 24.4429Z" fill="#3A001E"/>
<path d="M56.7168 23.7047L56.6419 29.5604L57.6702 29.5735L57.7341 24.5747L71.0166 24.7446L71.0275 23.8877L56.7168 23.7047Z" fill="#3A001E"/>
<path d="M43.0674 37.1374L46.6665 41.757L47.4778 41.1249L44.4053 37.1814L54.884 29.0175L54.3573 28.3414L43.0674 37.1374Z" fill="#3A001E"/>
<path d="M30.2716 50.4609L34.2655 54.7439L35.0177 54.0425L31.6082 50.3863L41.3232 41.327L40.7387 40.7002L30.2716 50.4609Z" fill="#3A001E"/>
<path d="M17.753 63.9136L22.13 67.8042L22.8132 67.0355L19.0767 63.7143L27.9017 53.786L27.2612 53.2166L17.753 63.9136Z" fill="#3A001E"/>
<path d="M18.9776 83.0168L24.8258 83.3215L24.8793 82.2945L19.8869 82.0344L20.5781 68.7689L19.7223 68.7243L18.9776 83.0168Z" fill="#3A001E"/>
<path d="M25.5656 100.534L31.2717 99.2162L31.0403 98.2141L26.1693 99.3387L23.1811 86.3956L22.3461 86.5884L25.5656 100.534Z" fill="#3A001E"/>
<path d="M29.7129 118.499L35.419 117.182L35.1877 116.18L30.3166 117.305L27.3285 104.361L26.4934 104.554L29.7129 118.499Z" fill="#3A001E"/>
<path d="M43.873 130.427L47.9332 126.207L47.1922 125.494L43.7261 129.097L34.1537 119.887L33.5595 120.504L43.873 130.427Z" fill="#3A001E"/>
<path d="M62.7759 133.189L64.488 127.588L63.5046 127.288L62.0429 132.068L49.3399 128.185L49.0893 129.004L62.7759 133.189Z" fill="#3A001E"/>
<path d="M80.4028 138.578L82.115 132.978L81.1315 132.677L79.6699 137.458L66.9668 133.574L66.7162 134.394L80.4028 138.578Z" fill="#3A001E"/>
</svg>
