<svg width="1569" height="822" viewBox="0 0 1569 822" fill="none" xmlns="http://www.w3.org/2000/svg">
<path d="M128.159 73.8994L1555.7 456.407L1477.08 749.803L49.5442 367.295L128.159 73.8994Z" fill="#F0572F"/>
<path d="M1468.33 543.127L1534.4 432.355L1568.34 442.633L1567.11 444.869L1556.93 441.786L1493.31 548.086L1503.49 551.17L1502.27 553.406L1468.33 543.127Z" fill="#3A001E"/>
<path d="M1459.57 409.693L1393.5 520.466L1359.56 510.188L1360.78 507.952L1370.97 511.035L1434.58 404.735L1424.4 401.651L1425.63 399.415L1459.57 409.693Z" fill="#3A001E"/>
<path d="M1266 481.853L1332.07 371.081L1366.01 381.359L1364.78 383.595L1354.6 380.512L1290.98 486.812L1301.17 489.896L1299.94 492.132L1266 481.853Z" fill="#3A001E"/>
<path d="M1257.24 348.421L1191.17 459.193L1157.23 448.915L1158.46 446.679L1168.64 449.762L1232.26 343.462L1222.08 340.378L1223.3 338.142L1257.24 348.421Z" fill="#3A001E"/>
<path d="M1063.67 420.581L1129.74 309.808L1163.68 320.087L1162.46 322.323L1152.27 319.239L1088.66 425.54L1098.84 428.623L1097.61 430.859L1063.67 420.581Z" fill="#3A001E"/>
<path d="M1054.91 287.147L988.842 397.92L954.902 387.642L956.129 385.405L966.311 388.489L1029.93 282.189L1019.75 279.105L1020.97 276.869L1054.91 287.147Z" fill="#3A001E"/>
<path d="M861.342 359.306L927.413 248.533L961.352 258.812L960.126 261.048L949.944 257.964L886.326 364.265L896.508 367.348L895.282 369.585L861.342 359.306Z" fill="#3A001E"/>
<path d="M852.587 225.873L786.516 336.646L752.576 326.368L753.802 324.132L763.984 327.215L827.603 220.915L817.421 217.831L818.647 215.595L852.587 225.873Z" fill="#3A001E"/>
<path d="M659.016 298.034L725.087 187.261L759.026 197.54L757.8 199.776L747.618 196.692L684 302.993L694.182 306.077L692.956 308.313L659.016 298.034Z" fill="#3A001E"/>
<path d="M650.257 164.599L584.186 275.372L550.246 265.093L551.472 262.857L561.654 265.941L625.273 159.64L615.091 156.557L616.317 154.321L650.257 164.599Z" fill="#3A001E"/>
<path d="M456.688 236.759L522.758 125.987L556.698 136.265L555.472 138.501L545.29 135.418L481.672 241.718L491.854 244.802L490.627 247.038L456.688 236.759Z" fill="#3A001E"/>
<path d="M447.932 103.326L381.862 214.099L347.922 203.82L349.148 201.584L359.33 204.668L422.949 98.3672L412.767 95.2837L413.993 93.0476L447.932 103.326Z" fill="#3A001E"/>
<path d="M254.36 175.486L320.43 64.7132L354.37 74.9916L353.144 77.2277L342.962 74.1442L279.344 180.445L289.526 183.528L288.299 185.764L254.36 175.486Z" fill="#3A001E"/>
<path d="M245.603 42.052L179.532 152.825L145.593 142.546L146.819 140.31L157.001 143.394L220.619 37.0931L210.437 34.0096L211.663 31.7735L245.603 42.052Z" fill="#3A001E"/>
<path d="M1386.28 802.08L1452.35 691.307L1486.29 701.586L1485.07 703.822L1474.88 700.738L1411.27 807.039L1421.45 810.122L1420.22 812.358L1386.28 802.08Z" fill="#3A001E"/>
<path d="M1377.53 668.647L1311.46 779.42L1277.52 769.141L1278.74 766.905L1288.92 769.989L1352.54 663.688L1342.36 660.605L1343.59 658.368L1377.53 668.647Z" fill="#3A001E"/>
<path d="M1183.96 740.808L1250.03 630.035L1283.97 640.314L1282.74 642.55L1272.56 639.466L1208.94 745.767L1219.12 748.85L1217.9 751.086L1183.96 740.808Z" fill="#3A001E"/>
<path d="M1175.19 607.373L1109.12 718.146L1075.18 707.867L1076.41 705.631L1086.59 708.715L1150.21 602.414L1140.03 599.331L1141.25 597.094L1175.19 607.373Z" fill="#3A001E"/>
<path d="M981.627 679.535L1047.7 568.762L1081.64 579.04L1080.41 581.277L1070.23 578.193L1006.61 684.493L1016.79 687.577L1015.57 689.813L981.627 679.535Z" fill="#3A001E"/>
<path d="M972.868 546.101L906.797 656.874L872.858 646.595L874.084 644.359L884.266 647.443L947.884 541.142L937.702 538.059L938.928 535.823L972.868 546.101Z" fill="#3A001E"/>
<path d="M779.297 618.259L845.368 507.486L879.307 517.765L878.081 520.001L867.899 516.917L804.281 623.218L814.463 626.301L813.237 628.537L779.297 618.259Z" fill="#3A001E"/>
<path d="M770.542 484.828L704.471 595.6L670.531 585.322L671.758 583.086L681.939 586.169L745.558 479.869L735.376 476.785L736.602 474.549L770.542 484.828Z" fill="#3A001E"/>
<path d="M576.973 556.986L643.044 446.214L676.983 456.492L675.757 458.728L665.575 455.645L601.957 561.945L612.139 565.029L610.913 567.265L576.973 556.986Z" fill="#3A001E"/>
<path d="M568.212 423.553L502.141 534.325L468.201 524.047L469.427 521.811L479.609 524.894L543.228 418.594L533.046 415.51L534.272 413.274L568.212 423.553Z" fill="#3A001E"/>
<path d="M374.641 495.712L440.712 384.94L474.651 395.218L473.425 397.454L463.243 394.371L399.625 500.671L409.807 503.755L408.581 505.991L374.641 495.712Z" fill="#3A001E"/>
<path d="M365.887 362.28L299.816 473.053L265.876 462.774L267.102 460.538L277.284 463.622L340.903 357.321L330.721 354.238L331.947 352.002L365.887 362.28Z" fill="#3A001E"/>
<path d="M172.314 434.44L238.384 323.667L272.324 333.946L271.098 336.182L260.916 333.098L197.298 439.399L207.48 442.482L206.253 444.718L172.314 434.44Z" fill="#3A001E"/>
<path d="M163.558 301.005L97.4876 411.777L63.5478 401.499L64.7739 399.263L74.9558 402.346L138.574 296.046L128.392 292.962L129.619 290.726L163.558 301.005Z" fill="#3A001E"/>
<path d="M1428.74 511.799L1494.81 401.027L1528.75 411.305L1527.53 413.541L1517.34 410.458L1453.73 516.758L1463.91 519.842L1462.68 522.078L1428.74 511.799Z" fill="#3A001E"/>
<path d="M1419.99 378.366L1353.91 489.139L1319.97 478.86L1321.2 476.624L1331.38 479.708L1395 373.407L1384.82 370.324L1386.05 368.088L1419.99 378.366Z" fill="#3A001E"/>
<path d="M1226.42 450.525L1292.49 339.752L1326.43 350.031L1325.2 352.267L1315.02 349.183L1251.4 455.484L1261.58 458.567L1260.36 460.803L1226.42 450.525Z" fill="#3A001E"/>
<path d="M1217.66 317.092L1151.59 427.865L1117.65 417.586L1118.87 415.35L1129.06 418.434L1192.68 312.133L1182.49 309.05L1183.72 306.814L1217.66 317.092Z" fill="#3A001E"/>
<path d="M1024.09 389.252L1090.16 278.479L1124.1 288.758L1122.87 290.994L1112.69 287.91L1049.07 394.211L1059.25 397.294L1058.03 399.53L1024.09 389.252Z" fill="#3A001E"/>
<path d="M1015.33 255.817L949.258 366.59L915.318 356.311L916.545 354.075L926.727 357.159L990.345 250.858L980.163 247.775L981.389 245.539L1015.33 255.817Z" fill="#3A001E"/>
<path d="M821.758 327.978L887.829 217.205L921.768 227.484L920.542 229.72L910.36 226.636L846.742 332.937L856.924 336.02L855.698 338.256L821.758 327.978Z" fill="#3A001E"/>
<path d="M813.003 194.545L746.932 305.318L712.992 295.039L714.218 292.803L724.4 295.887L788.019 189.586L777.837 186.503L779.063 184.267L813.003 194.545Z" fill="#3A001E"/>
<path d="M619.432 266.705L685.503 155.932L719.442 166.211L718.216 168.447L708.034 165.363L644.416 271.664L654.598 274.747L653.372 276.983L619.432 266.705Z" fill="#3A001E"/>
<path d="M610.673 133.27L544.602 244.043L510.662 233.764L511.888 231.528L522.07 234.612L585.689 128.311L575.507 125.228L576.733 122.992L610.673 133.27Z" fill="#3A001E"/>
<path d="M417.104 205.43L483.174 94.6575L517.114 104.936L515.888 107.172L505.706 104.088L442.088 210.389L452.27 213.472L451.043 215.709L417.104 205.43Z" fill="#3A001E"/>
<path d="M408.349 71.9978L342.278 182.77L308.338 172.492L309.564 170.256L319.746 173.339L383.365 67.0389L373.183 63.9554L374.409 61.7193L408.349 71.9978Z" fill="#3A001E"/>
<path d="M214.775 144.157L280.846 33.384L314.786 43.6625L313.56 45.8986L303.378 42.815L239.759 149.116L249.941 152.199L248.715 154.435L214.775 144.157Z" fill="#3A001E"/>
<path d="M206.02 10.7227L139.95 121.495L106.01 111.217L107.236 108.981L117.418 112.064L181.036 5.76383L170.854 2.68029L172.081 0.444214L206.02 10.7227Z" fill="#3A001E"/>
<path d="M1323.26 811.174L1389.33 700.401L1423.27 710.68L1422.04 712.916L1411.86 709.832L1348.24 816.133L1358.42 819.216L1357.2 821.452L1323.26 811.174Z" fill="#3A001E"/>
<path d="M1314.5 677.74L1248.43 788.512L1214.49 778.234L1215.71 775.998L1225.89 779.081L1289.51 672.781L1279.33 669.697L1280.56 667.461L1314.5 677.74Z" fill="#3A001E"/>
<path d="M1120.93 749.901L1187 639.129L1220.94 649.407L1219.71 651.643L1209.53 648.56L1145.91 754.86L1156.09 757.944L1154.87 760.18L1120.93 749.901Z" fill="#3A001E"/>
<path d="M1112.17 616.466L1046.1 727.238L1012.16 716.96L1013.38 714.724L1023.57 717.807L1087.19 611.507L1077 608.423L1078.23 606.187L1112.17 616.466Z" fill="#3A001E"/>
<path d="M918.6 688.627L984.67 577.855L1018.61 588.133L1017.38 590.369L1007.2 587.286L943.584 693.586L953.766 696.67L952.54 698.906L918.6 688.627Z" fill="#3A001E"/>
<path d="M909.843 555.192L843.772 665.965L809.832 655.686L811.058 653.45L821.24 656.534L884.859 550.233L874.677 547.15L875.903 544.914L909.843 555.192Z" fill="#3A001E"/>
<path d="M716.27 627.352L782.34 516.579L816.28 526.858L815.054 529.094L804.872 526.01L741.254 632.311L751.436 635.394L750.209 637.63L716.27 627.352Z" fill="#3A001E"/>
<path d="M707.517 493.92L641.446 604.693L607.506 594.414L608.732 592.178L618.914 595.262L682.533 488.961L672.351 485.878L673.577 483.642L707.517 493.92Z" fill="#3A001E"/>
<path d="M513.943 566.08L580.014 455.307L613.954 465.585L612.728 467.821L602.546 464.738L538.927 571.038L549.109 574.122L547.883 576.358L513.943 566.08Z" fill="#3A001E"/>
<path d="M505.185 432.645L439.114 543.418L405.174 533.139L406.4 530.903L416.582 533.987L480.201 427.686L470.019 424.603L471.245 422.366L505.185 432.645Z" fill="#3A001E"/>
<path d="M311.614 504.803L377.685 394.031L411.625 404.309L410.399 406.545L400.217 403.462L336.598 509.762L346.78 512.846L345.554 515.082L311.614 504.803Z" fill="#3A001E"/>
<path d="M302.86 371.372L236.789 482.145L202.85 471.866L204.076 469.63L214.258 472.714L277.876 366.413L267.694 363.33L268.92 361.094L302.86 371.372Z" fill="#3A001E"/>
<path d="M109.287 443.531L175.358 332.758L209.298 343.037L208.072 345.273L197.89 342.189L134.271 448.49L144.453 451.573L143.227 453.809L109.287 443.531Z" fill="#3A001E"/>
<path d="M100.532 310.097L34.4614 420.87L0.521606 410.591L1.74772 408.355L11.9297 411.439L75.5482 305.138L65.3663 302.055L66.5924 299.819L100.532 310.097Z" fill="#3A001E"/>
<mask id="path-2-outside-1_1_116" maskUnits="userSpaceOnUse" x="436.316" y="299.427" width="588" height="206" fill="black">
<rect fill="white" x="436.316" y="299.427" width="588" height="206"/>
<path d="M491.828 314.611C492.367 313.712 492.801 312.835 493.13 311.979C493.458 311.122 493.489 310.36 493.221 309.692C492.952 309.024 492.169 308.516 490.871 308.168C489.016 307.671 487.163 307.82 485.31 308.616C483.469 309.365 481.805 310.659 480.319 312.497C478.845 314.288 477.748 316.528 477.027 319.218C476.617 320.748 476.399 322.304 476.373 323.887C476.392 325.483 476.759 326.898 477.471 328.132C478.196 329.32 479.417 330.144 481.132 330.604C481.967 330.828 482.778 331.045 483.566 331.256C484.401 331.48 485.236 331.703 486.07 331.927L485.475 333.035C484.223 332.699 482.971 332.364 481.72 332.029C480.468 331.693 479.216 331.358 477.964 331.022C473.42 329.805 469.972 328.21 467.618 326.237C465.264 324.265 463.769 322.15 463.131 319.892C462.553 317.6 462.537 315.434 463.083 313.394C463.705 311.076 464.795 309.231 466.355 307.86C467.974 306.456 469.969 305.499 472.342 304.992C474.726 304.438 477.424 304.292 480.435 304.552C483.505 304.778 486.825 305.37 490.395 306.326C491.462 306.612 492.545 306.927 493.646 307.272C494.746 307.616 496.032 308.01 497.503 308.454C498.987 308.852 500.818 309.343 502.997 309.926C504.249 310.262 505.64 310.635 507.17 311.045C508.759 311.421 510.272 311.801 511.709 312.186C513.159 312.525 514.377 312.802 515.363 313.016L514.712 314.333C513.123 313.957 511.845 313.813 510.877 313.901C509.921 313.943 509.077 314.314 508.343 315.011C507.668 315.675 506.869 316.803 505.946 318.394L487.523 350.43C486.658 351.987 486.137 353.189 485.96 354.036C485.829 354.895 486.097 355.564 486.765 356.041C487.432 356.518 488.518 357.007 490.023 357.51L489.303 358.808C488.03 358.367 486.28 357.849 484.055 357.252C481.888 356.622 479.576 355.978 477.119 355.319C474.661 354.661 472.291 354.051 470.006 353.488C467.734 352.879 465.705 352.385 463.918 352.006L464.639 350.708C466.287 351.05 467.565 351.194 468.474 351.14C469.429 351.097 470.274 350.727 471.008 350.029C471.741 349.332 472.54 348.204 473.405 346.647L491.828 314.611ZM443.666 339.125C443.804 339.908 444.085 340.53 444.508 340.991C444.931 341.452 445.398 341.751 445.908 341.888C446.51 342.049 447.081 342.053 447.619 341.899C448.17 341.699 448.648 341.305 449.054 340.718L453.56 334.472C454.526 333.091 455.651 331.951 456.936 331.053C458.232 330.108 459.774 329.453 461.562 329.087C463.362 328.675 465.5 328.577 467.977 328.793C470.465 328.963 473.385 329.472 476.736 330.32L476.434 330.612C475.436 330.444 474.567 330.534 473.827 330.883C473.088 331.231 472.391 331.79 471.738 332.559C471.144 333.294 470.459 334.179 469.685 335.214L464.05 343.171C461.845 346.208 459.652 348.179 457.471 349.086C455.336 350.005 452.762 350.06 449.748 349.253C447.013 348.52 445.122 347.417 444.075 345.944C442.995 344.412 442.409 342.242 442.316 339.435L443.666 339.125Z"/>
<path d="M554.63 355.143L555.351 353.845L558.48 354.684C561.309 355.442 563.841 355.449 566.077 354.707C568.36 353.977 570.342 352.793 572.023 351.157C573.716 349.473 575.116 347.587 576.222 345.499C577.341 343.363 578.167 341.299 578.702 339.305C579.323 336.987 579.384 335.09 578.885 333.615C578.398 332.093 577.204 331.077 575.303 330.568C574.654 330.394 574.124 330.426 573.712 330.664C573.347 330.914 572.954 331.454 572.532 332.285C572.123 333.07 571.493 334.218 570.641 335.729L552.217 367.764C551.545 368.976 551.114 370.028 550.924 370.921C550.747 371.768 550.944 372.517 551.515 373.167C552.145 373.783 553.213 374.342 554.718 374.845L554.067 376.161C552.516 375.646 550.697 375.109 548.61 374.55C546.536 373.945 544.34 373.331 542.022 372.71C539.379 372.002 536.846 371.348 534.423 370.749C532.058 370.115 530.168 369.658 528.752 369.378L529.403 368.062C531.004 368.391 532.283 368.535 533.238 368.493C534.194 368.451 535.038 368.081 535.772 367.383C536.505 366.685 537.305 365.557 538.169 364L556.592 331.965C557.243 330.648 557.68 329.573 557.904 328.738C558.174 327.916 558.04 327.21 557.503 326.618C556.966 326.027 555.829 325.449 554.092 324.884L554.812 323.587C556.144 323.993 557.986 324.537 560.338 325.217C562.737 325.909 565.119 326.572 567.483 327.205C569.152 327.653 570.828 328.077 572.509 328.478C574.237 328.891 575.959 329.327 577.674 329.787C583.794 331.427 588.085 333.496 590.546 335.994C593.054 338.505 593.829 341.545 592.873 345.115C591.904 348.732 589.759 351.635 586.439 353.827C583.131 355.972 578.958 357.264 573.921 357.703C568.943 358.108 563.44 357.503 557.412 355.888L554.63 355.143Z"/>
<path d="M679.034 357.095L685.849 358.922C688.307 359.58 690.631 360.178 692.823 360.716C695.061 361.266 697.043 361.747 698.771 362.16L698.051 363.458C696.462 363.082 695.184 362.938 694.216 363.027C693.26 363.069 692.416 363.439 691.682 364.137C691.007 364.801 690.208 365.929 689.285 367.52L670.862 399.555C669.997 401.112 669.477 402.315 669.299 403.162C669.168 404.021 669.437 404.689 670.104 405.166C670.771 405.643 671.857 406.133 673.363 406.636L672.712 407.952C671.021 407.4 669.086 406.831 666.907 406.248C664.74 405.617 662.428 404.973 659.971 404.315C657.467 403.644 655.073 403.027 652.789 402.465C650.564 401.868 648.766 401.436 647.397 401.169L648.048 399.852C649.695 400.195 650.974 400.338 651.883 400.284C652.838 400.242 653.683 399.872 654.416 399.174C655.15 398.476 655.949 397.348 656.813 395.791L676.942 361.007L635.967 398.479L634.437 398.069L639.131 355.795L622.826 384.373C622.154 385.585 621.65 386.816 621.315 388.068C621.038 389.286 621.235 390.407 621.904 391.431C622.574 392.455 624.032 393.318 626.279 394.02L625.629 395.336C625.085 395.141 624.303 394.906 623.283 394.633C622.321 394.326 621.308 394.029 620.241 393.743C619.187 393.411 618.243 393.134 617.408 392.91C616.203 392.587 614.991 392.287 613.773 392.01C612.568 391.687 611.559 391.467 610.746 391.348L611.396 390.032C613.044 390.374 614.46 390.281 615.645 389.754C616.876 389.239 617.955 388.46 618.881 387.416C619.819 386.325 620.624 385.175 621.296 383.963L638.586 353.935C639.509 352.344 640.03 351.142 640.148 350.328C640.279 349.469 640.011 348.801 639.344 348.324C638.735 347.813 637.649 347.323 636.085 346.854L636.805 345.557C638.091 345.951 639.771 346.451 641.845 347.056C643.965 347.674 646.185 348.293 648.503 348.915C649.662 349.225 650.804 349.506 651.929 349.758C653.054 350.01 654.064 350.231 654.957 350.42L650.493 383.215L679.034 357.095Z"/>
<path d="M721.208 411.182C719.484 412.608 718.543 413.896 718.383 415.046C718.237 416.15 718.669 417.135 719.679 418.002C720.747 418.835 722.144 419.557 723.869 420.169L723.218 421.485C720.832 420.746 718.92 420.184 717.483 419.799C716.058 419.368 714.696 418.978 713.398 418.63C712.424 418.369 711.607 418.175 710.945 418.048C710.296 417.874 709.588 417.734 708.822 417.628L709.473 416.311C710.474 416.282 711.444 416.094 712.381 415.749C713.272 415.391 714.33 414.78 715.556 413.916C716.794 413.005 718.333 411.803 720.175 410.309L759.246 377.992C760.056 378.308 760.924 378.591 761.852 378.839C762.825 379.1 763.696 379.284 764.462 379.39L755.523 423.88C755.215 425.586 755.321 426.857 755.843 427.693C756.423 428.494 757.055 429.011 757.738 429.244L757.087 430.56C755.767 430.107 753.971 429.576 751.7 428.968C749.44 428.313 747.337 427.724 745.389 427.202C743.025 426.569 740.77 425.989 738.625 425.464C736.492 424.893 734.787 424.486 733.511 424.243L734.162 422.927C736.412 423.43 738.094 423.459 739.208 423.012C740.38 422.531 741.213 421.089 741.708 418.687L748.27 387.797L753.037 384.751L721.208 411.182ZM731.227 402.164L751.535 407.605L750.606 408.847L729.603 403.219L731.227 402.164Z"/>
<path d="M820.03 426.256L820.75 424.959L823.88 425.797C826.708 426.555 829.24 426.563 831.477 425.82C833.759 425.09 835.741 423.907 837.422 422.27C839.115 420.587 840.515 418.701 841.622 416.612C842.74 414.477 843.567 412.413 844.101 410.419C844.722 408.101 844.783 406.204 844.284 404.728C843.797 403.207 842.603 402.191 840.703 401.682C840.053 401.508 839.523 401.539 839.112 401.777C838.746 402.027 838.353 402.568 837.932 403.399C837.523 404.184 836.892 405.332 836.04 406.843L817.617 438.878C816.944 440.089 816.513 441.142 816.324 442.035C816.146 442.882 816.343 443.63 816.915 444.28C817.545 444.896 818.612 445.456 820.117 445.958L819.467 447.275C817.915 446.76 816.096 446.223 814.01 445.664C811.936 445.058 809.74 444.445 807.421 443.824C804.779 443.116 802.245 442.462 799.822 441.862C797.458 441.228 795.567 440.772 794.152 440.492L794.802 439.175C796.404 439.505 797.682 439.649 798.637 439.607C799.593 439.564 800.438 439.194 801.171 438.497C801.905 437.799 802.704 436.671 803.568 435.114L821.991 403.078C822.642 401.762 823.08 400.687 823.303 399.852C823.573 399.03 823.44 398.323 822.902 397.732C822.365 397.141 821.228 396.563 819.491 395.998L820.211 394.7C821.543 395.107 823.386 395.65 825.738 396.33C828.136 397.022 830.518 397.685 832.882 398.319C834.552 398.766 836.227 399.19 837.908 399.591C839.636 400.004 841.358 400.441 843.073 400.901C849.194 402.54 853.484 404.609 855.946 407.108C858.453 409.618 859.229 412.659 858.272 416.229C857.303 419.845 855.158 422.749 851.838 424.94C848.53 427.085 844.358 428.377 839.32 428.816C834.342 429.222 828.839 428.617 822.812 427.002L820.03 426.256Z"/>
<path d="M899.61 460.848C898.746 462.405 898.225 463.607 898.047 464.454C897.87 465.301 898.115 465.963 898.783 466.44C899.45 466.917 900.559 467.413 902.111 467.928L901.46 469.245C900.047 468.767 898.228 468.23 896.003 467.634C893.79 466.991 891.524 466.359 889.206 465.738C886.563 465.03 884.077 464.388 881.746 463.813C879.474 463.205 877.607 462.754 876.145 462.462L876.865 461.164C878.42 461.481 879.652 461.613 880.561 461.558C881.517 461.516 882.361 461.146 883.095 460.448C883.829 459.75 884.628 458.622 885.492 457.065L903.915 425.03C904.839 423.439 905.359 422.236 905.478 421.423C905.609 420.564 905.341 419.896 904.673 419.419C904.065 418.908 902.979 418.418 901.415 417.949L902.135 416.652C903.467 417.058 905.286 417.595 907.592 418.263C909.944 418.943 912.442 419.637 915.084 420.345C917.403 420.966 919.634 421.539 921.779 422.064C923.971 422.602 925.884 423.065 927.52 423.453L926.799 424.751C925.21 424.375 923.932 424.231 922.964 424.32C922.009 424.362 921.164 424.732 920.43 425.43C919.756 426.094 918.957 427.221 918.033 428.813L899.61 460.848ZM925.664 470.438C926.359 470.624 927.02 470.478 927.645 470C928.316 469.534 928.951 468.834 929.549 467.901L931.681 464.671L933.072 465.044L929.829 469.914C928.253 472.275 926.399 473.815 924.268 474.536C922.149 475.211 920.046 475.269 917.96 474.71C914.482 473.778 912.162 472.237 910.999 470.087C909.895 467.902 909.935 465.528 911.119 462.963L916.011 452.496C916.553 451.399 916.907 450.45 917.071 449.65C917.283 448.862 917.294 448.169 917.106 447.572C916.918 446.975 916.52 446.421 915.912 445.91L916.237 445.252C919.563 446.193 922.195 447.221 924.132 448.336C926.069 449.452 927.405 450.679 928.139 452.019C928.932 453.325 929.24 454.774 929.062 456.366C928.942 457.924 928.46 459.633 927.613 461.494L924.637 468.15C924.395 468.682 924.387 469.176 924.612 469.634C924.85 470.046 925.2 470.314 925.664 470.438ZM916.792 446.519C914.161 446.509 912.394 446.334 911.492 445.993C910.636 445.664 910.418 445.084 910.84 444.253C911.237 443.515 911.848 443.181 912.673 443.253C913.545 443.338 915.03 444.009 917.128 445.267L916.792 446.519ZM936.47 428.162C935.421 428.925 934.425 429.95 933.484 431.238C932.589 432.539 931.692 433.939 930.794 435.437C929.941 436.948 929.026 438.417 928.047 439.844C927.115 441.284 926.057 442.541 924.875 443.616C923.739 444.703 922.439 445.473 920.976 445.926C919.572 446.344 917.926 446.276 916.037 445.72L916.363 445.062C918.511 445.389 920.343 445.135 921.86 444.299C923.376 443.463 924.711 442.28 925.866 440.751C927.021 439.222 928.086 437.569 929.059 435.792C930.044 433.969 931.045 432.274 932.061 430.708C933.123 429.154 934.32 427.934 935.65 427.048C936.687 426.332 937.729 425.965 938.777 425.948C939.838 425.884 940.832 425.977 941.759 426.225C944.124 426.859 945.879 428.099 947.024 429.947C948.227 431.76 948.512 433.849 947.879 436.213C947.518 437.558 946.863 438.799 945.912 439.935C944.974 441.026 943.814 441.833 942.431 442.357C941.048 442.881 939.499 442.913 937.784 442.453C936.3 442.056 935.057 441.226 934.053 439.963C933.109 438.666 932.897 437.044 933.419 435.097C933.904 433.289 934.989 431.741 936.676 430.454C938.421 429.132 940.512 428.376 942.949 428.184C942.788 428.042 942.552 427.904 942.24 427.77C941.986 427.603 941.651 427.463 941.234 427.352C940.214 427.078 939.336 427.017 938.6 427.168C937.864 427.318 937.154 427.65 936.47 428.162Z"/>
<path d="M975.061 479.202C973.338 480.628 972.396 481.916 972.237 483.066C972.09 484.17 972.522 485.155 973.532 486.022C974.601 486.855 975.998 487.577 977.722 488.188L977.071 489.505C974.685 488.766 972.773 488.204 971.336 487.819C969.911 487.388 968.55 486.998 967.251 486.65C966.278 486.389 965.46 486.195 964.799 486.067C964.15 485.893 963.442 485.753 962.675 485.647L963.326 484.331C964.328 484.301 965.297 484.114 966.235 483.769C967.125 483.411 968.184 482.8 969.409 481.936C970.647 481.025 972.187 479.823 974.028 478.328L1013.1 446.012C1013.91 446.328 1014.78 446.611 1015.71 446.859C1016.68 447.12 1017.55 447.303 1018.32 447.409L1009.38 491.9C1009.07 493.606 1009.17 494.877 1009.7 495.712C1010.28 496.514 1010.91 497.031 1011.59 497.264L1010.94 498.58C1009.62 498.127 1007.82 497.596 1005.55 496.988C1003.29 496.332 1001.19 495.744 999.243 495.222C996.878 494.589 994.623 494.009 992.478 493.484C990.346 492.913 988.641 492.506 987.364 492.263L988.015 490.946C990.265 491.45 991.947 491.478 993.061 491.031C994.233 490.55 995.067 489.109 995.561 486.707L1002.12 455.817L1006.89 452.771L975.061 479.202ZM985.081 470.184L1005.39 475.625L1004.46 476.867L983.456 471.239L985.081 470.184Z"/>
</mask>
<path d="M491.828 314.611C492.367 313.712 492.801 312.835 493.13 311.979C493.458 311.122 493.489 310.36 493.221 309.692C492.952 309.024 492.169 308.516 490.871 308.168C489.016 307.671 487.163 307.82 485.31 308.616C483.469 309.365 481.805 310.659 480.319 312.497C478.845 314.288 477.748 316.528 477.027 319.218C476.617 320.748 476.399 322.304 476.373 323.887C476.392 325.483 476.759 326.898 477.471 328.132C478.196 329.32 479.417 330.144 481.132 330.604C481.967 330.828 482.778 331.045 483.566 331.256C484.401 331.48 485.236 331.703 486.07 331.927L485.475 333.035C484.223 332.699 482.971 332.364 481.72 332.029C480.468 331.693 479.216 331.358 477.964 331.022C473.42 329.805 469.972 328.21 467.618 326.237C465.264 324.265 463.769 322.15 463.131 319.892C462.553 317.6 462.537 315.434 463.083 313.394C463.705 311.076 464.795 309.231 466.355 307.86C467.974 306.456 469.969 305.499 472.342 304.992C474.726 304.438 477.424 304.292 480.435 304.552C483.505 304.778 486.825 305.37 490.395 306.326C491.462 306.612 492.545 306.927 493.646 307.272C494.746 307.616 496.032 308.01 497.503 308.454C498.987 308.852 500.818 309.343 502.997 309.926C504.249 310.262 505.64 310.635 507.17 311.045C508.759 311.421 510.272 311.801 511.709 312.186C513.159 312.525 514.377 312.802 515.363 313.016L514.712 314.333C513.123 313.957 511.845 313.813 510.877 313.901C509.921 313.943 509.077 314.314 508.343 315.011C507.668 315.675 506.869 316.803 505.946 318.394L487.523 350.43C486.658 351.987 486.137 353.189 485.96 354.036C485.829 354.895 486.097 355.564 486.765 356.041C487.432 356.518 488.518 357.007 490.023 357.51L489.303 358.808C488.03 358.367 486.28 357.849 484.055 357.252C481.888 356.622 479.576 355.978 477.119 355.319C474.661 354.661 472.291 354.051 470.006 353.488C467.734 352.879 465.705 352.385 463.918 352.006L464.639 350.708C466.287 351.05 467.565 351.194 468.474 351.14C469.429 351.097 470.274 350.727 471.008 350.029C471.741 349.332 472.54 348.204 473.405 346.647L491.828 314.611ZM443.666 339.125C443.804 339.908 444.085 340.53 444.508 340.991C444.931 341.452 445.398 341.751 445.908 341.888C446.51 342.049 447.081 342.053 447.619 341.899C448.17 341.699 448.648 341.305 449.054 340.718L453.56 334.472C454.526 333.091 455.651 331.951 456.936 331.053C458.232 330.108 459.774 329.453 461.562 329.087C463.362 328.675 465.5 328.577 467.977 328.793C470.465 328.963 473.385 329.472 476.736 330.32L476.434 330.612C475.436 330.444 474.567 330.534 473.827 330.883C473.088 331.231 472.391 331.79 471.738 332.559C471.144 333.294 470.459 334.179 469.685 335.214L464.05 343.171C461.845 346.208 459.652 348.179 457.471 349.086C455.336 350.005 452.762 350.06 449.748 349.253C447.013 348.52 445.122 347.417 444.075 345.944C442.995 344.412 442.409 342.242 442.316 339.435L443.666 339.125Z" fill="white"/>
<path d="M554.63 355.143L555.351 353.845L558.48 354.684C561.309 355.442 563.841 355.449 566.077 354.707C568.36 353.977 570.342 352.793 572.023 351.157C573.716 349.473 575.116 347.587 576.222 345.499C577.341 343.363 578.167 341.299 578.702 339.305C579.323 336.987 579.384 335.09 578.885 333.615C578.398 332.093 577.204 331.077 575.303 330.568C574.654 330.394 574.124 330.426 573.712 330.664C573.347 330.914 572.954 331.454 572.532 332.285C572.123 333.07 571.493 334.218 570.641 335.729L552.217 367.764C551.545 368.976 551.114 370.028 550.924 370.921C550.747 371.768 550.944 372.517 551.515 373.167C552.145 373.783 553.213 374.342 554.718 374.845L554.067 376.161C552.516 375.646 550.697 375.109 548.61 374.55C546.536 373.945 544.34 373.331 542.022 372.71C539.379 372.002 536.846 371.348 534.423 370.749C532.058 370.115 530.168 369.658 528.752 369.378L529.403 368.062C531.004 368.391 532.283 368.535 533.238 368.493C534.194 368.451 535.038 368.081 535.772 367.383C536.505 366.685 537.305 365.557 538.169 364L556.592 331.965C557.243 330.648 557.68 329.573 557.904 328.738C558.174 327.916 558.04 327.21 557.503 326.618C556.966 326.027 555.829 325.449 554.092 324.884L554.812 323.587C556.144 323.993 557.986 324.537 560.338 325.217C562.737 325.909 565.119 326.572 567.483 327.205C569.152 327.653 570.828 328.077 572.509 328.478C574.237 328.891 575.959 329.327 577.674 329.787C583.794 331.427 588.085 333.496 590.546 335.994C593.054 338.505 593.829 341.545 592.873 345.115C591.904 348.732 589.759 351.635 586.439 353.827C583.131 355.972 578.958 357.264 573.921 357.703C568.943 358.108 563.44 357.503 557.412 355.888L554.63 355.143Z" fill="white"/>
<path d="M679.034 357.095L685.849 358.922C688.307 359.58 690.631 360.178 692.823 360.716C695.061 361.266 697.043 361.747 698.771 362.16L698.051 363.458C696.462 363.082 695.184 362.938 694.216 363.027C693.26 363.069 692.416 363.439 691.682 364.137C691.007 364.801 690.208 365.929 689.285 367.52L670.862 399.555C669.997 401.112 669.477 402.315 669.299 403.162C669.168 404.021 669.437 404.689 670.104 405.166C670.771 405.643 671.857 406.133 673.363 406.636L672.712 407.952C671.021 407.4 669.086 406.831 666.907 406.248C664.74 405.617 662.428 404.973 659.971 404.315C657.467 403.644 655.073 403.027 652.789 402.465C650.564 401.868 648.766 401.436 647.397 401.169L648.048 399.852C649.695 400.195 650.974 400.338 651.883 400.284C652.838 400.242 653.683 399.872 654.416 399.174C655.15 398.476 655.949 397.348 656.813 395.791L676.942 361.007L635.967 398.479L634.437 398.069L639.131 355.795L622.826 384.373C622.154 385.585 621.65 386.816 621.315 388.068C621.038 389.286 621.235 390.407 621.904 391.431C622.574 392.455 624.032 393.318 626.279 394.02L625.629 395.336C625.085 395.141 624.303 394.906 623.283 394.633C622.321 394.326 621.308 394.029 620.241 393.743C619.187 393.411 618.243 393.134 617.408 392.91C616.203 392.587 614.991 392.287 613.773 392.01C612.568 391.687 611.559 391.467 610.746 391.348L611.396 390.032C613.044 390.374 614.46 390.281 615.645 389.754C616.876 389.239 617.955 388.46 618.881 387.416C619.819 386.325 620.624 385.175 621.296 383.963L638.586 353.935C639.509 352.344 640.03 351.142 640.148 350.328C640.279 349.469 640.011 348.801 639.344 348.324C638.735 347.813 637.649 347.323 636.085 346.854L636.805 345.557C638.091 345.951 639.771 346.451 641.845 347.056C643.965 347.674 646.185 348.293 648.503 348.915C649.662 349.225 650.804 349.506 651.929 349.758C653.054 350.01 654.064 350.231 654.957 350.42L650.493 383.215L679.034 357.095Z" fill="white"/>
<path d="M721.208 411.182C719.484 412.608 718.543 413.896 718.383 415.046C718.237 416.15 718.669 417.135 719.679 418.002C720.747 418.835 722.144 419.557 723.869 420.169L723.218 421.485C720.832 420.746 718.92 420.184 717.483 419.799C716.058 419.368 714.696 418.978 713.398 418.63C712.424 418.369 711.607 418.175 710.945 418.048C710.296 417.874 709.588 417.734 708.822 417.628L709.473 416.311C710.474 416.282 711.444 416.094 712.381 415.749C713.272 415.391 714.33 414.78 715.556 413.916C716.794 413.005 718.333 411.803 720.175 410.309L759.246 377.992C760.056 378.308 760.924 378.591 761.852 378.839C762.825 379.1 763.696 379.284 764.462 379.39L755.523 423.88C755.215 425.586 755.321 426.857 755.843 427.693C756.423 428.494 757.055 429.011 757.738 429.244L757.087 430.56C755.767 430.107 753.971 429.576 751.7 428.968C749.44 428.313 747.337 427.724 745.389 427.202C743.025 426.569 740.77 425.989 738.625 425.464C736.492 424.893 734.787 424.486 733.511 424.243L734.162 422.927C736.412 423.43 738.094 423.459 739.208 423.012C740.38 422.531 741.213 421.089 741.708 418.687L748.27 387.797L753.037 384.751L721.208 411.182ZM731.227 402.164L751.535 407.605L750.606 408.847L729.603 403.219L731.227 402.164Z" fill="white"/>
<path d="M820.03 426.256L820.75 424.959L823.88 425.797C826.708 426.555 829.24 426.563 831.477 425.82C833.759 425.09 835.741 423.907 837.422 422.27C839.115 420.587 840.515 418.701 841.622 416.612C842.74 414.477 843.567 412.413 844.101 410.419C844.722 408.101 844.783 406.204 844.284 404.728C843.797 403.207 842.603 402.191 840.703 401.682C840.053 401.508 839.523 401.539 839.112 401.777C838.746 402.027 838.353 402.568 837.932 403.399C837.523 404.184 836.892 405.332 836.04 406.843L817.617 438.878C816.944 440.089 816.513 441.142 816.324 442.035C816.146 442.882 816.343 443.63 816.915 444.28C817.545 444.896 818.612 445.456 820.117 445.958L819.467 447.275C817.915 446.76 816.096 446.223 814.01 445.664C811.936 445.058 809.74 444.445 807.421 443.824C804.779 443.116 802.245 442.462 799.822 441.862C797.458 441.228 795.567 440.772 794.152 440.492L794.802 439.175C796.404 439.505 797.682 439.649 798.637 439.607C799.593 439.564 800.438 439.194 801.171 438.497C801.905 437.799 802.704 436.671 803.568 435.114L821.991 403.078C822.642 401.762 823.08 400.687 823.303 399.852C823.573 399.03 823.44 398.323 822.902 397.732C822.365 397.141 821.228 396.563 819.491 395.998L820.211 394.7C821.543 395.107 823.386 395.65 825.738 396.33C828.136 397.022 830.518 397.685 832.882 398.319C834.552 398.766 836.227 399.19 837.908 399.591C839.636 400.004 841.358 400.441 843.073 400.901C849.194 402.54 853.484 404.609 855.946 407.108C858.453 409.618 859.229 412.659 858.272 416.229C857.303 419.845 855.158 422.749 851.838 424.94C848.53 427.085 844.358 428.377 839.32 428.816C834.342 429.222 828.839 428.617 822.812 427.002L820.03 426.256Z" fill="white"/>
<path d="M899.61 460.848C898.746 462.405 898.225 463.607 898.047 464.454C897.87 465.301 898.115 465.963 898.783 466.44C899.45 466.917 900.559 467.413 902.111 467.928L901.46 469.245C900.047 468.767 898.228 468.23 896.003 467.634C893.79 466.991 891.524 466.359 889.206 465.738C886.563 465.03 884.077 464.388 881.746 463.813C879.474 463.205 877.607 462.754 876.145 462.462L876.865 461.164C878.42 461.481 879.652 461.613 880.561 461.558C881.517 461.516 882.361 461.146 883.095 460.448C883.829 459.75 884.628 458.622 885.492 457.065L903.915 425.03C904.839 423.439 905.359 422.236 905.478 421.423C905.609 420.564 905.341 419.896 904.673 419.419C904.065 418.908 902.979 418.418 901.415 417.949L902.135 416.652C903.467 417.058 905.286 417.595 907.592 418.263C909.944 418.943 912.442 419.637 915.084 420.345C917.403 420.966 919.634 421.539 921.779 422.064C923.971 422.602 925.884 423.065 927.52 423.453L926.799 424.751C925.21 424.375 923.932 424.231 922.964 424.32C922.009 424.362 921.164 424.732 920.43 425.43C919.756 426.094 918.957 427.221 918.033 428.813L899.61 460.848ZM925.664 470.438C926.359 470.624 927.02 470.478 927.645 470C928.316 469.534 928.951 468.834 929.549 467.901L931.681 464.671L933.072 465.044L929.829 469.914C928.253 472.275 926.399 473.815 924.268 474.536C922.149 475.211 920.046 475.269 917.96 474.71C914.482 473.778 912.162 472.237 910.999 470.087C909.895 467.902 909.935 465.528 911.119 462.963L916.011 452.496C916.553 451.399 916.907 450.45 917.071 449.65C917.283 448.862 917.294 448.169 917.106 447.572C916.918 446.975 916.52 446.421 915.912 445.91L916.237 445.252C919.563 446.193 922.195 447.221 924.132 448.336C926.069 449.452 927.405 450.679 928.139 452.019C928.932 453.325 929.24 454.774 929.062 456.366C928.942 457.924 928.46 459.633 927.613 461.494L924.637 468.15C924.395 468.682 924.387 469.176 924.612 469.634C924.85 470.046 925.2 470.314 925.664 470.438ZM916.792 446.519C914.161 446.509 912.394 446.334 911.492 445.993C910.636 445.664 910.418 445.084 910.84 444.253C911.237 443.515 911.848 443.181 912.673 443.253C913.545 443.338 915.03 444.009 917.128 445.267L916.792 446.519ZM936.47 428.162C935.421 428.925 934.425 429.95 933.484 431.238C932.589 432.539 931.692 433.939 930.794 435.437C929.941 436.948 929.026 438.417 928.047 439.844C927.115 441.284 926.057 442.541 924.875 443.616C923.739 444.703 922.439 445.473 920.976 445.926C919.572 446.344 917.926 446.276 916.037 445.72L916.363 445.062C918.511 445.389 920.343 445.135 921.86 444.299C923.376 443.463 924.711 442.28 925.866 440.751C927.021 439.222 928.086 437.569 929.059 435.792C930.044 433.969 931.045 432.274 932.061 430.708C933.123 429.154 934.32 427.934 935.65 427.048C936.687 426.332 937.729 425.965 938.777 425.948C939.838 425.884 940.832 425.977 941.759 426.225C944.124 426.859 945.879 428.099 947.024 429.947C948.227 431.76 948.512 433.849 947.879 436.213C947.518 437.558 946.863 438.799 945.912 439.935C944.974 441.026 943.814 441.833 942.431 442.357C941.048 442.881 939.499 442.913 937.784 442.453C936.3 442.056 935.057 441.226 934.053 439.963C933.109 438.666 932.897 437.044 933.419 435.097C933.904 433.289 934.989 431.741 936.676 430.454C938.421 429.132 940.512 428.376 942.949 428.184C942.788 428.042 942.552 427.904 942.24 427.77C941.986 427.603 941.651 427.463 941.234 427.352C940.214 427.078 939.336 427.017 938.6 427.168C937.864 427.318 937.154 427.65 936.47 428.162Z" fill="white"/>
<path d="M975.061 479.202C973.338 480.628 972.396 481.916 972.237 483.066C972.09 484.17 972.522 485.155 973.532 486.022C974.601 486.855 975.998 487.577 977.722 488.188L977.071 489.505C974.685 488.766 972.773 488.204 971.336 487.819C969.911 487.388 968.55 486.998 967.251 486.65C966.278 486.389 965.46 486.195 964.799 486.067C964.15 485.893 963.442 485.753 962.675 485.647L963.326 484.331C964.328 484.301 965.297 484.114 966.235 483.769C967.125 483.411 968.184 482.8 969.409 481.936C970.647 481.025 972.187 479.823 974.028 478.328L1013.1 446.012C1013.91 446.328 1014.78 446.611 1015.71 446.859C1016.68 447.12 1017.55 447.303 1018.32 447.409L1009.38 491.9C1009.07 493.606 1009.17 494.877 1009.7 495.712C1010.28 496.514 1010.91 497.031 1011.59 497.264L1010.94 498.58C1009.62 498.127 1007.82 497.596 1005.55 496.988C1003.29 496.332 1001.19 495.744 999.243 495.222C996.878 494.589 994.623 494.009 992.478 493.484C990.346 492.913 988.641 492.506 987.364 492.263L988.015 490.946C990.265 491.45 991.947 491.478 993.061 491.031C994.233 490.55 995.067 489.109 995.561 486.707L1002.12 455.817L1006.89 452.771L975.061 479.202ZM985.081 470.184L1005.39 475.625L1004.46 476.867L983.456 471.239L985.081 470.184Z" fill="white"/>
<path d="M491.828 314.611C492.367 313.712 492.801 312.835 493.13 311.979C493.458 311.122 493.489 310.36 493.221 309.692C492.952 309.024 492.169 308.516 490.871 308.168C489.016 307.671 487.163 307.82 485.31 308.616C483.469 309.365 481.805 310.659 480.319 312.497C478.845 314.288 477.748 316.528 477.027 319.218C476.617 320.748 476.399 322.304 476.373 323.887C476.392 325.483 476.759 326.898 477.471 328.132C478.196 329.32 479.417 330.144 481.132 330.604C481.967 330.828 482.778 331.045 483.566 331.256C484.401 331.48 485.236 331.703 486.07 331.927L485.475 333.035C484.223 332.699 482.971 332.364 481.72 332.029C480.468 331.693 479.216 331.358 477.964 331.022C473.42 329.805 469.972 328.21 467.618 326.237C465.264 324.265 463.769 322.15 463.131 319.892C462.553 317.6 462.537 315.434 463.083 313.394C463.705 311.076 464.795 309.231 466.355 307.86C467.974 306.456 469.969 305.499 472.342 304.992C474.726 304.438 477.424 304.292 480.435 304.552C483.505 304.778 486.825 305.37 490.395 306.326C491.462 306.612 492.545 306.927 493.646 307.272C494.746 307.616 496.032 308.01 497.503 308.454C498.987 308.852 500.818 309.343 502.997 309.926C504.249 310.262 505.64 310.635 507.17 311.045C508.759 311.421 510.272 311.801 511.709 312.186C513.159 312.525 514.377 312.802 515.363 313.016L514.712 314.333C513.123 313.957 511.845 313.813 510.877 313.901C509.921 313.943 509.077 314.314 508.343 315.011C507.668 315.675 506.869 316.803 505.946 318.394L487.523 350.43C486.658 351.987 486.137 353.189 485.96 354.036C485.829 354.895 486.097 355.564 486.765 356.041C487.432 356.518 488.518 357.007 490.023 357.51L489.303 358.808C488.03 358.367 486.28 357.849 484.055 357.252C481.888 356.622 479.576 355.978 477.119 355.319C474.661 354.661 472.291 354.051 470.006 353.488C467.734 352.879 465.705 352.385 463.918 352.006L464.639 350.708C466.287 351.05 467.565 351.194 468.474 351.14C469.429 351.097 470.274 350.727 471.008 350.029C471.741 349.332 472.54 348.204 473.405 346.647L491.828 314.611ZM443.666 339.125C443.804 339.908 444.085 340.53 444.508 340.991C444.931 341.452 445.398 341.751 445.908 341.888C446.51 342.049 447.081 342.053 447.619 341.899C448.17 341.699 448.648 341.305 449.054 340.718L453.56 334.472C454.526 333.091 455.651 331.951 456.936 331.053C458.232 330.108 459.774 329.453 461.562 329.087C463.362 328.675 465.5 328.577 467.977 328.793C470.465 328.963 473.385 329.472 476.736 330.32L476.434 330.612C475.436 330.444 474.567 330.534 473.827 330.883C473.088 331.231 472.391 331.79 471.738 332.559C471.144 333.294 470.459 334.179 469.685 335.214L464.05 343.171C461.845 346.208 459.652 348.179 457.471 349.086C455.336 350.005 452.762 350.06 449.748 349.253C447.013 348.52 445.122 347.417 444.075 345.944C442.995 344.412 442.409 342.242 442.316 339.435L443.666 339.125Z" stroke="#F0572F" stroke-width="10" mask="url(#path-2-outside-1_1_116)"/>
<path d="M491.828 314.611C492.367 313.712 492.801 312.835 493.13 311.979C493.458 311.122 493.489 310.36 493.221 309.692C492.952 309.024 492.169 308.516 490.871 308.168C489.016 307.671 487.163 307.82 485.31 308.616C483.469 309.365 481.805 310.659 480.319 312.497C478.845 314.288 477.748 316.528 477.027 319.218C476.617 320.748 476.399 322.304 476.373 323.887C476.392 325.483 476.759 326.898 477.471 328.132C478.196 329.32 479.417 330.144 481.132 330.604C481.967 330.828 482.778 331.045 483.566 331.256C484.401 331.48 485.236 331.703 486.07 331.927L485.475 333.035C484.223 332.699 482.971 332.364 481.72 332.029C480.468 331.693 479.216 331.358 477.964 331.022C473.42 329.805 469.972 328.21 467.618 326.237C465.264 324.265 463.769 322.15 463.131 319.892C462.553 317.6 462.537 315.434 463.083 313.394C463.705 311.076 464.795 309.231 466.355 307.86C467.974 306.456 469.969 305.499 472.342 304.992C474.726 304.438 477.424 304.292 480.435 304.552C483.505 304.778 486.825 305.37 490.395 306.326C491.462 306.612 492.545 306.927 493.646 307.272C494.746 307.616 496.032 308.01 497.503 308.454C498.987 308.852 500.818 309.343 502.997 309.926C504.249 310.262 505.64 310.635 507.17 311.045C508.759 311.421 510.272 311.801 511.709 312.186C513.159 312.525 514.377 312.802 515.363 313.016L514.712 314.333C513.123 313.957 511.845 313.813 510.877 313.901C509.921 313.943 509.077 314.314 508.343 315.011C507.668 315.675 506.869 316.803 505.946 318.394L487.523 350.43C486.658 351.987 486.137 353.189 485.96 354.036C485.829 354.895 486.097 355.564 486.765 356.041C487.432 356.518 488.518 357.007 490.023 357.51L489.303 358.808C488.03 358.367 486.28 357.849 484.055 357.252C481.888 356.622 479.576 355.978 477.119 355.319C474.661 354.661 472.291 354.051 470.006 353.488C467.734 352.879 465.705 352.385 463.918 352.006L464.639 350.708C466.287 351.05 467.565 351.194 468.474 351.14C469.429 351.097 470.274 350.727 471.008 350.029C471.741 349.332 472.54 348.204 473.405 346.647L491.828 314.611ZM443.666 339.125C443.804 339.908 444.085 340.53 444.508 340.991C444.931 341.452 445.398 341.751 445.908 341.888C446.51 342.049 447.081 342.053 447.619 341.899C448.17 341.699 448.648 341.305 449.054 340.718L453.56 334.472C454.526 333.091 455.651 331.951 456.936 331.053C458.232 330.108 459.774 329.453 461.562 329.087C463.362 328.675 465.5 328.577 467.977 328.793C470.465 328.963 473.385 329.472 476.736 330.32L476.434 330.612C475.436 330.444 474.567 330.534 473.827 330.883C473.088 331.231 472.391 331.79 471.738 332.559C471.144 333.294 470.459 334.179 469.685 335.214L464.05 343.171C461.845 346.208 459.652 348.179 457.471 349.086C455.336 350.005 452.762 350.06 449.748 349.253C447.013 348.52 445.122 347.417 444.075 345.944C442.995 344.412 442.409 342.242 442.316 339.435L443.666 339.125Z" stroke="#3A001E" stroke-width="10" mask="url(#path-2-outside-1_1_116)"/>
<path d="M554.63 355.143L555.351 353.845L558.48 354.684C561.309 355.442 563.841 355.449 566.077 354.707C568.36 353.977 570.342 352.793 572.023 351.157C573.716 349.473 575.116 347.587 576.222 345.499C577.341 343.363 578.167 341.299 578.702 339.305C579.323 336.987 579.384 335.09 578.885 333.615C578.398 332.093 577.204 331.077 575.303 330.568C574.654 330.394 574.124 330.426 573.712 330.664C573.347 330.914 572.954 331.454 572.532 332.285C572.123 333.07 571.493 334.218 570.641 335.729L552.217 367.764C551.545 368.976 551.114 370.028 550.924 370.921C550.747 371.768 550.944 372.517 551.515 373.167C552.145 373.783 553.213 374.342 554.718 374.845L554.067 376.161C552.516 375.646 550.697 375.109 548.61 374.55C546.536 373.945 544.34 373.331 542.022 372.71C539.379 372.002 536.846 371.348 534.423 370.749C532.058 370.115 530.168 369.658 528.752 369.378L529.403 368.062C531.004 368.391 532.283 368.535 533.238 368.493C534.194 368.451 535.038 368.081 535.772 367.383C536.505 366.685 537.305 365.557 538.169 364L556.592 331.965C557.243 330.648 557.68 329.573 557.904 328.738C558.174 327.916 558.04 327.21 557.503 326.618C556.966 326.027 555.829 325.449 554.092 324.884L554.812 323.587C556.144 323.993 557.986 324.537 560.338 325.217C562.737 325.909 565.119 326.572 567.483 327.205C569.152 327.653 570.828 328.077 572.509 328.478C574.237 328.891 575.959 329.327 577.674 329.787C583.794 331.427 588.085 333.496 590.546 335.994C593.054 338.505 593.829 341.545 592.873 345.115C591.904 348.732 589.759 351.635 586.439 353.827C583.131 355.972 578.958 357.264 573.921 357.703C568.943 358.108 563.44 357.503 557.412 355.888L554.63 355.143Z" stroke="#F0572F" stroke-width="10" mask="url(#path-2-outside-1_1_116)"/>
<path d="M554.63 355.143L555.351 353.845L558.48 354.684C561.309 355.442 563.841 355.449 566.077 354.707C568.36 353.977 570.342 352.793 572.023 351.157C573.716 349.473 575.116 347.587 576.222 345.499C577.341 343.363 578.167 341.299 578.702 339.305C579.323 336.987 579.384 335.09 578.885 333.615C578.398 332.093 577.204 331.077 575.303 330.568C574.654 330.394 574.124 330.426 573.712 330.664C573.347 330.914 572.954 331.454 572.532 332.285C572.123 333.07 571.493 334.218 570.641 335.729L552.217 367.764C551.545 368.976 551.114 370.028 550.924 370.921C550.747 371.768 550.944 372.517 551.515 373.167C552.145 373.783 553.213 374.342 554.718 374.845L554.067 376.161C552.516 375.646 550.697 375.109 548.61 374.55C546.536 373.945 544.34 373.331 542.022 372.71C539.379 372.002 536.846 371.348 534.423 370.749C532.058 370.115 530.168 369.658 528.752 369.378L529.403 368.062C531.004 368.391 532.283 368.535 533.238 368.493C534.194 368.451 535.038 368.081 535.772 367.383C536.505 366.685 537.305 365.557 538.169 364L556.592 331.965C557.243 330.648 557.68 329.573 557.904 328.738C558.174 327.916 558.04 327.21 557.503 326.618C556.966 326.027 555.829 325.449 554.092 324.884L554.812 323.587C556.144 323.993 557.986 324.537 560.338 325.217C562.737 325.909 565.119 326.572 567.483 327.205C569.152 327.653 570.828 328.077 572.509 328.478C574.237 328.891 575.959 329.327 577.674 329.787C583.794 331.427 588.085 333.496 590.546 335.994C593.054 338.505 593.829 341.545 592.873 345.115C591.904 348.732 589.759 351.635 586.439 353.827C583.131 355.972 578.958 357.264 573.921 357.703C568.943 358.108 563.44 357.503 557.412 355.888L554.63 355.143Z" stroke="#3A001E" stroke-width="10" mask="url(#path-2-outside-1_1_116)"/>
<path d="M679.034 357.095L685.849 358.922C688.307 359.58 690.631 360.178 692.823 360.716C695.061 361.266 697.043 361.747 698.771 362.16L698.051 363.458C696.462 363.082 695.184 362.938 694.216 363.027C693.26 363.069 692.416 363.439 691.682 364.137C691.007 364.801 690.208 365.929 689.285 367.52L670.862 399.555C669.997 401.112 669.477 402.315 669.299 403.162C669.168 404.021 669.437 404.689 670.104 405.166C670.771 405.643 671.857 406.133 673.363 406.636L672.712 407.952C671.021 407.4 669.086 406.831 666.907 406.248C664.74 405.617 662.428 404.973 659.971 404.315C657.467 403.644 655.073 403.027 652.789 402.465C650.564 401.868 648.766 401.436 647.397 401.169L648.048 399.852C649.695 400.195 650.974 400.338 651.883 400.284C652.838 400.242 653.683 399.872 654.416 399.174C655.15 398.476 655.949 397.348 656.813 395.791L676.942 361.007L635.967 398.479L634.437 398.069L639.131 355.795L622.826 384.373C622.154 385.585 621.65 386.816 621.315 388.068C621.038 389.286 621.235 390.407 621.904 391.431C622.574 392.455 624.032 393.318 626.279 394.02L625.629 395.336C625.085 395.141 624.303 394.906 623.283 394.633C622.321 394.326 621.308 394.029 620.241 393.743C619.187 393.411 618.243 393.134 617.408 392.91C616.203 392.587 614.991 392.287 613.773 392.01C612.568 391.687 611.559 391.467 610.746 391.348L611.396 390.032C613.044 390.374 614.46 390.281 615.645 389.754C616.876 389.239 617.955 388.46 618.881 387.416C619.819 386.325 620.624 385.175 621.296 383.963L638.586 353.935C639.509 352.344 640.03 351.142 640.148 350.328C640.279 349.469 640.011 348.801 639.344 348.324C638.735 347.813 637.649 347.323 636.085 346.854L636.805 345.557C638.091 345.951 639.771 346.451 641.845 347.056C643.965 347.674 646.185 348.293 648.503 348.915C649.662 349.225 650.804 349.506 651.929 349.758C653.054 350.01 654.064 350.231 654.957 350.42L650.493 383.215L679.034 357.095Z" stroke="#F0572F" stroke-width="10" mask="url(#path-2-outside-1_1_116)"/>
<path d="M679.034 357.095L685.849 358.922C688.307 359.58 690.631 360.178 692.823 360.716C695.061 361.266 697.043 361.747 698.771 362.16L698.051 363.458C696.462 363.082 695.184 362.938 694.216 363.027C693.26 363.069 692.416 363.439 691.682 364.137C691.007 364.801 690.208 365.929 689.285 367.52L670.862 399.555C669.997 401.112 669.477 402.315 669.299 403.162C669.168 404.021 669.437 404.689 670.104 405.166C670.771 405.643 671.857 406.133 673.363 406.636L672.712 407.952C671.021 407.4 669.086 406.831 666.907 406.248C664.74 405.617 662.428 404.973 659.971 404.315C657.467 403.644 655.073 403.027 652.789 402.465C650.564 401.868 648.766 401.436 647.397 401.169L648.048 399.852C649.695 400.195 650.974 400.338 651.883 400.284C652.838 400.242 653.683 399.872 654.416 399.174C655.15 398.476 655.949 397.348 656.813 395.791L676.942 361.007L635.967 398.479L634.437 398.069L639.131 355.795L622.826 384.373C622.154 385.585 621.65 386.816 621.315 388.068C621.038 389.286 621.235 390.407 621.904 391.431C622.574 392.455 624.032 393.318 626.279 394.02L625.629 395.336C625.085 395.141 624.303 394.906 623.283 394.633C622.321 394.326 621.308 394.029 620.241 393.743C619.187 393.411 618.243 393.134 617.408 392.91C616.203 392.587 614.991 392.287 613.773 392.01C612.568 391.687 611.559 391.467 610.746 391.348L611.396 390.032C613.044 390.374 614.46 390.281 615.645 389.754C616.876 389.239 617.955 388.46 618.881 387.416C619.819 386.325 620.624 385.175 621.296 383.963L638.586 353.935C639.509 352.344 640.03 351.142 640.148 350.328C640.279 349.469 640.011 348.801 639.344 348.324C638.735 347.813 637.649 347.323 636.085 346.854L636.805 345.557C638.091 345.951 639.771 346.451 641.845 347.056C643.965 347.674 646.185 348.293 648.503 348.915C649.662 349.225 650.804 349.506 651.929 349.758C653.054 350.01 654.064 350.231 654.957 350.42L650.493 383.215L679.034 357.095Z" stroke="#3A001E" stroke-width="10" mask="url(#path-2-outside-1_1_116)"/>
<path d="M721.208 411.182C719.484 412.608 718.543 413.896 718.383 415.046C718.237 416.15 718.669 417.135 719.679 418.002C720.747 418.835 722.144 419.557 723.869 420.169L723.218 421.485C720.832 420.746 718.92 420.184 717.483 419.799C716.058 419.368 714.696 418.978 713.398 418.63C712.424 418.369 711.607 418.175 710.945 418.048C710.296 417.874 709.588 417.734 708.822 417.628L709.473 416.311C710.474 416.282 711.444 416.094 712.381 415.749C713.272 415.391 714.33 414.78 715.556 413.916C716.794 413.005 718.333 411.803 720.175 410.309L759.246 377.992C760.056 378.308 760.924 378.591 761.852 378.839C762.825 379.1 763.696 379.284 764.462 379.39L755.523 423.88C755.215 425.586 755.321 426.857 755.843 427.693C756.423 428.494 757.055 429.011 757.738 429.244L757.087 430.56C755.767 430.107 753.971 429.576 751.7 428.968C749.44 428.313 747.337 427.724 745.389 427.202C743.025 426.569 740.77 425.989 738.625 425.464C736.492 424.893 734.787 424.486 733.511 424.243L734.162 422.927C736.412 423.43 738.094 423.459 739.208 423.012C740.38 422.531 741.213 421.089 741.708 418.687L748.27 387.797L753.037 384.751L721.208 411.182ZM731.227 402.164L751.535 407.605L750.606 408.847L729.603 403.219L731.227 402.164Z" stroke="#F0572F" stroke-width="10" mask="url(#path-2-outside-1_1_116)"/>
<path d="M721.208 411.182C719.484 412.608 718.543 413.896 718.383 415.046C718.237 416.15 718.669 417.135 719.679 418.002C720.747 418.835 722.144 419.557 723.869 420.169L723.218 421.485C720.832 420.746 718.92 420.184 717.483 419.799C716.058 419.368 714.696 418.978 713.398 418.63C712.424 418.369 711.607 418.175 710.945 418.048C710.296 417.874 709.588 417.734 708.822 417.628L709.473 416.311C710.474 416.282 711.444 416.094 712.381 415.749C713.272 415.391 714.33 414.78 715.556 413.916C716.794 413.005 718.333 411.803 720.175 410.309L759.246 377.992C760.056 378.308 760.924 378.591 761.852 378.839C762.825 379.1 763.696 379.284 764.462 379.39L755.523 423.88C755.215 425.586 755.321 426.857 755.843 427.693C756.423 428.494 757.055 429.011 757.738 429.244L757.087 430.56C755.767 430.107 753.971 429.576 751.7 428.968C749.44 428.313 747.337 427.724 745.389 427.202C743.025 426.569 740.77 425.989 738.625 425.464C736.492 424.893 734.787 424.486 733.511 424.243L734.162 422.927C736.412 423.43 738.094 423.459 739.208 423.012C740.38 422.531 741.213 421.089 741.708 418.687L748.27 387.797L753.037 384.751L721.208 411.182ZM731.227 402.164L751.535 407.605L750.606 408.847L729.603 403.219L731.227 402.164Z" stroke="#3A001E" stroke-width="10" mask="url(#path-2-outside-1_1_116)"/>
<path d="M820.03 426.256L820.75 424.959L823.88 425.797C826.708 426.555 829.24 426.563 831.477 425.82C833.759 425.09 835.741 423.907 837.422 422.27C839.115 420.587 840.515 418.701 841.622 416.612C842.74 414.477 843.567 412.413 844.101 410.419C844.722 408.101 844.783 406.204 844.284 404.728C843.797 403.207 842.603 402.191 840.703 401.682C840.053 401.508 839.523 401.539 839.112 401.777C838.746 402.027 838.353 402.568 837.932 403.399C837.523 404.184 836.892 405.332 836.04 406.843L817.617 438.878C816.944 440.089 816.513 441.142 816.324 442.035C816.146 442.882 816.343 443.63 816.915 444.28C817.545 444.896 818.612 445.456 820.117 445.958L819.467 447.275C817.915 446.76 816.096 446.223 814.01 445.664C811.936 445.058 809.74 444.445 807.421 443.824C804.779 443.116 802.245 442.462 799.822 441.862C797.458 441.228 795.567 440.772 794.152 440.492L794.802 439.175C796.404 439.505 797.682 439.649 798.637 439.607C799.593 439.564 800.438 439.194 801.171 438.497C801.905 437.799 802.704 436.671 803.568 435.114L821.991 403.078C822.642 401.762 823.08 400.687 823.303 399.852C823.573 399.03 823.44 398.323 822.902 397.732C822.365 397.141 821.228 396.563 819.491 395.998L820.211 394.7C821.543 395.107 823.386 395.65 825.738 396.33C828.136 397.022 830.518 397.685 832.882 398.319C834.552 398.766 836.227 399.19 837.908 399.591C839.636 400.004 841.358 400.441 843.073 400.901C849.194 402.54 853.484 404.609 855.946 407.108C858.453 409.618 859.229 412.659 858.272 416.229C857.303 419.845 855.158 422.749 851.838 424.94C848.53 427.085 844.358 428.377 839.32 428.816C834.342 429.222 828.839 428.617 822.812 427.002L820.03 426.256Z" stroke="#F0572F" stroke-width="10" mask="url(#path-2-outside-1_1_116)"/>
<path d="M820.03 426.256L820.75 424.959L823.88 425.797C826.708 426.555 829.24 426.563 831.477 425.82C833.759 425.09 835.741 423.907 837.422 422.27C839.115 420.587 840.515 418.701 841.622 416.612C842.74 414.477 843.567 412.413 844.101 410.419C844.722 408.101 844.783 406.204 844.284 404.728C843.797 403.207 842.603 402.191 840.703 401.682C840.053 401.508 839.523 401.539 839.112 401.777C838.746 402.027 838.353 402.568 837.932 403.399C837.523 404.184 836.892 405.332 836.04 406.843L817.617 438.878C816.944 440.089 816.513 441.142 816.324 442.035C816.146 442.882 816.343 443.63 816.915 444.28C817.545 444.896 818.612 445.456 820.117 445.958L819.467 447.275C817.915 446.76 816.096 446.223 814.01 445.664C811.936 445.058 809.74 444.445 807.421 443.824C804.779 443.116 802.245 442.462 799.822 441.862C797.458 441.228 795.567 440.772 794.152 440.492L794.802 439.175C796.404 439.505 797.682 439.649 798.637 439.607C799.593 439.564 800.438 439.194 801.171 438.497C801.905 437.799 802.704 436.671 803.568 435.114L821.991 403.078C822.642 401.762 823.08 400.687 823.303 399.852C823.573 399.03 823.44 398.323 822.902 397.732C822.365 397.141 821.228 396.563 819.491 395.998L820.211 394.7C821.543 395.107 823.386 395.65 825.738 396.33C828.136 397.022 830.518 397.685 832.882 398.319C834.552 398.766 836.227 399.19 837.908 399.591C839.636 400.004 841.358 400.441 843.073 400.901C849.194 402.54 853.484 404.609 855.946 407.108C858.453 409.618 859.229 412.659 858.272 416.229C857.303 419.845 855.158 422.749 851.838 424.94C848.53 427.085 844.358 428.377 839.32 428.816C834.342 429.222 828.839 428.617 822.812 427.002L820.03 426.256Z" stroke="#3A001E" stroke-width="10" mask="url(#path-2-outside-1_1_116)"/>
<path d="M899.61 460.848C898.746 462.405 898.225 463.607 898.047 464.454C897.87 465.301 898.115 465.963 898.783 466.44C899.45 466.917 900.559 467.413 902.111 467.928L901.46 469.245C900.047 468.767 898.228 468.23 896.003 467.634C893.79 466.991 891.524 466.359 889.206 465.738C886.563 465.03 884.077 464.388 881.746 463.813C879.474 463.205 877.607 462.754 876.145 462.462L876.865 461.164C878.42 461.481 879.652 461.613 880.561 461.558C881.517 461.516 882.361 461.146 883.095 460.448C883.829 459.75 884.628 458.622 885.492 457.065L903.915 425.03C904.839 423.439 905.359 422.236 905.478 421.423C905.609 420.564 905.341 419.896 904.673 419.419C904.065 418.908 902.979 418.418 901.415 417.949L902.135 416.652C903.467 417.058 905.286 417.595 907.592 418.263C909.944 418.943 912.442 419.637 915.084 420.345C917.403 420.966 919.634 421.539 921.779 422.064C923.971 422.602 925.884 423.065 927.52 423.453L926.799 424.751C925.21 424.375 923.932 424.231 922.964 424.32C922.009 424.362 921.164 424.732 920.43 425.43C919.756 426.094 918.957 427.221 918.033 428.813L899.61 460.848ZM925.664 470.438C926.359 470.624 927.02 470.478 927.645 470C928.316 469.534 928.951 468.834 929.549 467.901L931.681 464.671L933.072 465.044L929.829 469.914C928.253 472.275 926.399 473.815 924.268 474.536C922.149 475.211 920.046 475.269 917.96 474.71C914.482 473.778 912.162 472.237 910.999 470.087C909.895 467.902 909.935 465.528 911.119 462.963L916.011 452.496C916.553 451.399 916.907 450.45 917.071 449.65C917.283 448.862 917.294 448.169 917.106 447.572C916.918 446.975 916.52 446.421 915.912 445.91L916.237 445.252C919.563 446.193 922.195 447.221 924.132 448.336C926.069 449.452 927.405 450.679 928.139 452.019C928.932 453.325 929.24 454.774 929.062 456.366C928.942 457.924 928.46 459.633 927.613 461.494L924.637 468.15C924.395 468.682 924.387 469.176 924.612 469.634C924.85 470.046 925.2 470.314 925.664 470.438ZM916.792 446.519C914.161 446.509 912.394 446.334 911.492 445.993C910.636 445.664 910.418 445.084 910.84 444.253C911.237 443.515 911.848 443.181 912.673 443.253C913.545 443.338 915.03 444.009 917.128 445.267L916.792 446.519ZM936.47 428.162C935.421 428.925 934.425 429.95 933.484 431.238C932.589 432.539 931.692 433.939 930.794 435.437C929.941 436.948 929.026 438.417 928.047 439.844C927.115 441.284 926.057 442.541 924.875 443.616C923.739 444.703 922.439 445.473 920.976 445.926C919.572 446.344 917.926 446.276 916.037 445.72L916.363 445.062C918.511 445.389 920.343 445.135 921.86 444.299C923.376 443.463 924.711 442.28 925.866 440.751C927.021 439.222 928.086 437.569 929.059 435.792C930.044 433.969 931.045 432.274 932.061 430.708C933.123 429.154 934.32 427.934 935.65 427.048C936.687 426.332 937.729 425.965 938.777 425.948C939.838 425.884 940.832 425.977 941.759 426.225C944.124 426.859 945.879 428.099 947.024 429.947C948.227 431.76 948.512 433.849 947.879 436.213C947.518 437.558 946.863 438.799 945.912 439.935C944.974 441.026 943.814 441.833 942.431 442.357C941.048 442.881 939.499 442.913 937.784 442.453C936.3 442.056 935.057 441.226 934.053 439.963C933.109 438.666 932.897 437.044 933.419 435.097C933.904 433.289 934.989 431.741 936.676 430.454C938.421 429.132 940.512 428.376 942.949 428.184C942.788 428.042 942.552 427.904 942.24 427.77C941.986 427.603 941.651 427.463 941.234 427.352C940.214 427.078 939.336 427.017 938.6 427.168C937.864 427.318 937.154 427.65 936.47 428.162Z" stroke="#F0572F" stroke-width="10" mask="url(#path-2-outside-1_1_116)"/>
<path d="M899.61 460.848C898.746 462.405 898.225 463.607 898.047 464.454C897.87 465.301 898.115 465.963 898.783 466.44C899.45 466.917 900.559 467.413 902.111 467.928L901.46 469.245C900.047 468.767 898.228 468.23 896.003 467.634C893.79 466.991 891.524 466.359 889.206 465.738C886.563 465.03 884.077 464.388 881.746 463.813C879.474 463.205 877.607 462.754 876.145 462.462L876.865 461.164C878.42 461.481 879.652 461.613 880.561 461.558C881.517 461.516 882.361 461.146 883.095 460.448C883.829 459.75 884.628 458.622 885.492 457.065L903.915 425.03C904.839 423.439 905.359 422.236 905.478 421.423C905.609 420.564 905.341 419.896 904.673 419.419C904.065 418.908 902.979 418.418 901.415 417.949L902.135 416.652C903.467 417.058 905.286 417.595 907.592 418.263C909.944 418.943 912.442 419.637 915.084 420.345C917.403 420.966 919.634 421.539 921.779 422.064C923.971 422.602 925.884 423.065 927.52 423.453L926.799 424.751C925.21 424.375 923.932 424.231 922.964 424.32C922.009 424.362 921.164 424.732 920.43 425.43C919.756 426.094 918.957 427.221 918.033 428.813L899.61 460.848ZM925.664 470.438C926.359 470.624 927.02 470.478 927.645 470C928.316 469.534 928.951 468.834 929.549 467.901L931.681 464.671L933.072 465.044L929.829 469.914C928.253 472.275 926.399 473.815 924.268 474.536C922.149 475.211 920.046 475.269 917.96 474.71C914.482 473.778 912.162 472.237 910.999 470.087C909.895 467.902 909.935 465.528 911.119 462.963L916.011 452.496C916.553 451.399 916.907 450.45 917.071 449.65C917.283 448.862 917.294 448.169 917.106 447.572C916.918 446.975 916.52 446.421 915.912 445.91L916.237 445.252C919.563 446.193 922.195 447.221 924.132 448.336C926.069 449.452 927.405 450.679 928.139 452.019C928.932 453.325 929.24 454.774 929.062 456.366C928.942 457.924 928.46 459.633 927.613 461.494L924.637 468.15C924.395 468.682 924.387 469.176 924.612 469.634C924.85 470.046 925.2 470.314 925.664 470.438ZM916.792 446.519C914.161 446.509 912.394 446.334 911.492 445.993C910.636 445.664 910.418 445.084 910.84 444.253C911.237 443.515 911.848 443.181 912.673 443.253C913.545 443.338 915.03 444.009 917.128 445.267L916.792 446.519ZM936.47 428.162C935.421 428.925 934.425 429.95 933.484 431.238C932.589 432.539 931.692 433.939 930.794 435.437C929.941 436.948 929.026 438.417 928.047 439.844C927.115 441.284 926.057 442.541 924.875 443.616C923.739 444.703 922.439 445.473 920.976 445.926C919.572 446.344 917.926 446.276 916.037 445.72L916.363 445.062C918.511 445.389 920.343 445.135 921.86 444.299C923.376 443.463 924.711 442.28 925.866 440.751C927.021 439.222 928.086 437.569 929.059 435.792C930.044 433.969 931.045 432.274 932.061 430.708C933.123 429.154 934.32 427.934 935.65 427.048C936.687 426.332 937.729 425.965 938.777 425.948C939.838 425.884 940.832 425.977 941.759 426.225C944.124 426.859 945.879 428.099 947.024 429.947C948.227 431.76 948.512 433.849 947.879 436.213C947.518 437.558 946.863 438.799 945.912 439.935C944.974 441.026 943.814 441.833 942.431 442.357C941.048 442.881 939.499 442.913 937.784 442.453C936.3 442.056 935.057 441.226 934.053 439.963C933.109 438.666 932.897 437.044 933.419 435.097C933.904 433.289 934.989 431.741 936.676 430.454C938.421 429.132 940.512 428.376 942.949 428.184C942.788 428.042 942.552 427.904 942.24 427.77C941.986 427.603 941.651 427.463 941.234 427.352C940.214 427.078 939.336 427.017 938.6 427.168C937.864 427.318 937.154 427.65 936.47 428.162Z" stroke="#3A001E" stroke-width="10" mask="url(#path-2-outside-1_1_116)"/>
<path d="M975.061 479.202C973.338 480.628 972.396 481.916 972.237 483.066C972.09 484.17 972.522 485.155 973.532 486.022C974.601 486.855 975.998 487.577 977.722 488.188L977.071 489.505C974.685 488.766 972.773 488.204 971.336 487.819C969.911 487.388 968.55 486.998 967.251 486.65C966.278 486.389 965.46 486.195 964.799 486.067C964.15 485.893 963.442 485.753 962.675 485.647L963.326 484.331C964.328 484.301 965.297 484.114 966.235 483.769C967.125 483.411 968.184 482.8 969.409 481.936C970.647 481.025 972.187 479.823 974.028 478.328L1013.1 446.012C1013.91 446.328 1014.78 446.611 1015.71 446.859C1016.68 447.12 1017.55 447.303 1018.32 447.409L1009.38 491.9C1009.07 493.606 1009.17 494.877 1009.7 495.712C1010.28 496.514 1010.91 497.031 1011.59 497.264L1010.94 498.58C1009.62 498.127 1007.82 497.596 1005.55 496.988C1003.29 496.332 1001.19 495.744 999.243 495.222C996.878 494.589 994.623 494.009 992.478 493.484C990.346 492.913 988.641 492.506 987.364 492.263L988.015 490.946C990.265 491.45 991.947 491.478 993.061 491.031C994.233 490.55 995.067 489.109 995.561 486.707L1002.12 455.817L1006.89 452.771L975.061 479.202ZM985.081 470.184L1005.39 475.625L1004.46 476.867L983.456 471.239L985.081 470.184Z" stroke="#F0572F" stroke-width="10" mask="url(#path-2-outside-1_1_116)"/>
<path d="M975.061 479.202C973.338 480.628 972.396 481.916 972.237 483.066C972.09 484.17 972.522 485.155 973.532 486.022C974.601 486.855 975.998 487.577 977.722 488.188L977.071 489.505C974.685 488.766 972.773 488.204 971.336 487.819C969.911 487.388 968.55 486.998 967.251 486.65C966.278 486.389 965.46 486.195 964.799 486.067C964.15 485.893 963.442 485.753 962.675 485.647L963.326 484.331C964.328 484.301 965.297 484.114 966.235 483.769C967.125 483.411 968.184 482.8 969.409 481.936C970.647 481.025 972.187 479.823 974.028 478.328L1013.1 446.012C1013.91 446.328 1014.78 446.611 1015.71 446.859C1016.68 447.12 1017.55 447.303 1018.32 447.409L1009.38 491.9C1009.07 493.606 1009.17 494.877 1009.7 495.712C1010.28 496.514 1010.91 497.031 1011.59 497.264L1010.94 498.58C1009.62 498.127 1007.82 497.596 1005.55 496.988C1003.29 496.332 1001.19 495.744 999.243 495.222C996.878 494.589 994.623 494.009 992.478 493.484C990.346 492.913 988.641 492.506 987.364 492.263L988.015 490.946C990.265 491.45 991.947 491.478 993.061 491.031C994.233 490.55 995.067 489.109 995.561 486.707L1002.12 455.817L1006.89 452.771L975.061 479.202ZM985.081 470.184L1005.39 475.625L1004.46 476.867L983.456 471.239L985.081 470.184Z" stroke="#3A001E" stroke-width="10" mask="url(#path-2-outside-1_1_116)"/>
</svg>
