<svg width="555" height="124" viewBox="0 0 555 124" fill="none" xmlns="http://www.w3.org/2000/svg">
<path d="M38.2182 23.3684V24.3284C37.2582 24.3604 36.5222 24.4884 36.0102 24.7124C35.5302 24.9044 35.2102 25.2884 35.0502 25.8644C34.8902 26.4084 34.8102 27.2724 34.8102 28.4564V47.4644C34.8102 48.6164 34.8902 49.4804 35.0502 50.0564C35.2422 50.6324 35.5782 51.0164 36.0582 51.2084C36.5382 51.4004 37.2582 51.5284 38.2182 51.5924V52.5524C37.4182 52.4884 36.3302 52.4564 34.9542 52.4564C33.6102 52.4244 32.1702 52.4084 30.6342 52.4084C29.0662 52.4084 27.4982 52.4244 25.9302 52.4564C24.3942 52.4564 23.1302 52.4884 22.1382 52.5524V51.5924C23.1302 51.5284 23.8662 51.4004 24.3462 51.2084C24.8262 51.0164 25.1462 50.6324 25.3062 50.0564C25.4662 49.4804 25.5462 48.6164 25.5462 47.4644V28.4564C25.5462 27.2724 25.4662 26.3924 25.3062 25.8164C25.1462 25.2404 24.8102 24.8564 24.2982 24.6644C23.8182 24.4404 23.0982 24.3284 22.1382 24.3284H18.1542C17.1942 24.3284 16.4582 24.4404 15.9462 24.6644C15.4662 24.8564 15.1462 25.2404 14.9862 25.8164C14.8262 26.3924 14.7462 27.2724 14.7462 28.4564V47.4644C14.7462 48.6164 14.8262 49.4804 14.9862 50.0564C15.1782 50.6324 15.5142 51.0164 15.9942 51.2084C16.4742 51.4004 17.1942 51.5284 18.1542 51.5924V52.5524C17.1622 52.4884 15.8982 52.4564 14.3622 52.4564C12.8262 52.4244 11.2582 52.4084 9.65822 52.4084C8.12222 52.4084 6.68222 52.4244 5.33822 52.4564C3.99422 52.4564 2.90622 52.4884 2.07422 52.5524V51.5924C3.06622 51.5284 3.80222 51.4004 4.28222 51.2084C4.76222 51.0164 5.08222 50.6324 5.24222 50.0564C5.40222 49.4804 5.48222 48.6164 5.48222 47.4644V28.4564C5.48222 27.2724 5.40222 26.4084 5.24222 25.8644C5.08222 25.2884 4.74622 24.9044 4.23422 24.7124C3.75422 24.4884 3.03422 24.3604 2.07422 24.3284V23.3684C2.90622 23.4004 3.99422 23.4324 5.33822 23.4644C6.68222 23.4964 8.12222 23.5124 9.65822 23.5124C10.4902 23.5124 11.3542 23.5124 12.2502 23.5124C13.1782 23.4804 14.2662 23.4484 15.5142 23.4164C16.7942 23.3844 18.3302 23.3684 20.1222 23.3684C21.9462 23.3684 23.4822 23.3844 24.7302 23.4164C25.9782 23.4484 27.0662 23.4804 27.9942 23.5124C28.9542 23.5124 29.8342 23.5124 30.6342 23.5124C32.1702 23.5124 33.6102 23.4964 34.9542 23.4644C36.3302 23.4324 37.4182 23.4004 38.2182 23.3684ZM58.5106 22.6964C61.9346 22.6964 64.9266 23.2884 67.4866 24.4724C70.0786 25.6244 72.0786 27.3204 73.4866 29.5604C74.9266 31.7684 75.6466 34.4724 75.6466 37.6724C75.6466 40.7764 74.9106 43.4964 73.4386 45.8324C71.9986 48.1684 69.9826 49.9924 67.3906 51.3044C64.7986 52.5844 61.8226 53.2244 58.4626 53.2244C55.0386 53.2244 52.0306 52.6484 49.4386 51.4964C46.8786 50.3124 44.8786 48.6004 43.4386 46.3604C42.0306 44.1204 41.3266 41.4164 41.3266 38.2484C41.3266 35.1444 42.0626 32.4244 43.5346 30.0884C45.0066 27.7524 47.0226 25.9444 49.5826 24.6644C52.1746 23.3524 55.1506 22.6964 58.5106 22.6964ZM58.3186 23.5604C56.8146 23.5604 55.5026 24.1844 54.3826 25.4324C53.2946 26.6484 52.4466 28.3444 51.8386 30.5204C51.2306 32.6964 50.9266 35.2084 50.9266 38.0564C50.9266 40.9684 51.2626 43.4964 51.9346 45.6404C52.6386 47.7844 53.5826 49.4484 54.7666 50.6324C55.9506 51.7844 57.2466 52.3604 58.6546 52.3604C60.1586 52.3604 61.4546 51.7524 62.5426 50.5364C63.6626 49.2884 64.5266 47.5764 65.1346 45.4004C65.7426 43.1924 66.0466 40.6804 66.0466 37.8644C66.0466 34.9204 65.6946 32.3924 64.9906 30.2804C64.3186 28.1364 63.3906 26.4884 62.2066 25.3364C61.0546 24.1524 59.7586 23.5604 58.3186 23.5604ZM104.63 23.3684V24.3284C103.67 24.3604 102.934 24.4884 102.422 24.7124C101.942 24.9044 101.622 25.2884 101.462 25.8644C101.302 26.4084 101.222 27.2724 101.222 28.4564V47.4644C101.222 48.6164 101.302 49.4964 101.462 50.1044C101.654 50.6804 101.99 51.0804 102.47 51.3044C102.95 51.4964 103.67 51.5924 104.63 51.5924H106.07C105.942 52.9044 105.846 54.1684 105.782 55.3844C105.75 56.6324 105.734 57.5764 105.734 58.2164C105.734 58.8884 105.75 59.4804 105.782 59.9924C105.814 60.5364 105.846 61.0164 105.878 61.4324H104.774C104.358 59.1604 103.67 57.3684 102.71 56.0564C101.782 54.7764 100.678 53.8644 99.398 53.3204C98.15 52.8084 96.838 52.5524 95.462 52.5524H85.334C83.958 52.5524 82.63 52.8084 81.35 53.3204C80.102 53.8644 78.998 54.7764 78.038 56.0564C77.11 57.3684 76.438 59.1604 76.022 61.4324H74.918C74.982 61.0164 75.014 60.5364 75.014 59.9924C75.046 59.4804 75.062 58.8884 75.062 58.2164C75.062 57.5764 75.03 56.6324 74.966 55.3844C74.934 54.1684 74.854 52.9044 74.726 51.5924H88.31C89.302 51.5924 90.054 51.4964 90.566 51.3044C91.078 51.0804 91.43 50.6804 91.622 50.1044C91.846 49.4964 91.958 48.6164 91.958 47.4644V28.4564C91.958 27.2724 91.894 26.3924 91.766 25.8164C91.638 25.2084 91.398 24.8084 91.046 24.6164C90.726 24.4244 90.214 24.3284 89.51 24.3284H88.886C88.182 24.3284 87.67 24.4404 87.35 24.6644C87.062 24.8564 86.854 25.2564 86.726 25.8644C86.598 26.4404 86.502 27.3044 86.438 28.4564C86.278 30.2484 86.118 32.2164 85.958 34.3604C85.798 36.5044 85.542 38.6484 85.19 40.7924C84.838 42.9044 84.326 44.8564 83.654 46.6484C83.014 48.4084 82.102 49.8324 80.918 50.9204C79.766 51.9764 78.262 52.5044 76.406 52.5044V51.5924C77.878 51.5924 79.11 51.1284 80.102 50.2004C81.094 49.2724 81.894 48.0244 82.502 46.4564C83.142 44.8564 83.638 43.0644 83.99 41.0804C84.342 39.0644 84.614 36.9844 84.806 34.8404C84.998 32.6644 85.174 30.5364 85.334 28.4564C85.43 27.3364 85.382 26.4884 85.19 25.9124C85.03 25.3364 84.646 24.9364 84.038 24.7124C83.462 24.4884 82.598 24.3604 81.446 24.3284V23.3684C82.054 23.4004 82.774 23.4324 83.606 23.4644C84.438 23.4644 85.206 23.4644 85.91 23.4644C86.422 23.4644 86.886 23.4484 87.302 23.4164C87.718 23.3844 88.342 23.3684 89.174 23.3684C90.55 23.3684 91.654 23.3844 92.486 23.4164C93.318 23.4484 94.038 23.4804 94.646 23.5124C95.254 23.5124 95.878 23.5124 96.518 23.5124C98.022 23.5124 99.51 23.4964 100.982 23.4644C102.486 23.4324 103.702 23.4004 104.63 23.3684ZM137.219 23.3684V24.3284C136.259 24.3604 135.523 24.4884 135.011 24.7124C134.531 24.9044 134.211 25.2884 134.051 25.8644C133.891 26.4084 133.811 27.2724 133.811 28.4564V47.4644C133.811 48.6164 133.891 49.4964 134.051 50.1044C134.243 50.6804 134.579 51.0804 135.059 51.3044C135.539 51.4964 136.259 51.5924 137.219 51.5924H138.659C138.531 52.9044 138.435 54.1684 138.371 55.3844C138.339 56.6324 138.323 57.5764 138.323 58.2164C138.323 58.8884 138.339 59.4804 138.371 59.9924C138.403 60.5364 138.435 61.0164 138.467 61.4324H137.363C136.947 59.1604 136.259 57.3684 135.299 56.0564C134.371 54.7764 133.267 53.8644 131.987 53.3204C130.739 52.8084 129.427 52.5524 128.051 52.5524H117.923C116.547 52.5524 115.219 52.8084 113.939 53.3204C112.691 53.8644 111.587 54.7764 110.627 56.0564C109.699 57.3684 109.027 59.1604 108.611 61.4324H107.507C107.571 61.0164 107.603 60.5364 107.603 59.9924C107.635 59.4804 107.651 58.8884 107.651 58.2164C107.651 57.5764 107.619 56.6324 107.555 55.3844C107.523 54.1684 107.443 52.9044 107.315 51.5924H120.899C121.891 51.5924 122.643 51.4964 123.155 51.3044C123.667 51.0804 124.019 50.6804 124.211 50.1044C124.435 49.4964 124.547 48.6164 124.547 47.4644V28.4564C124.547 27.2724 124.483 26.3924 124.355 25.8164C124.227 25.2084 123.987 24.8084 123.635 24.6164C123.315 24.4244 122.803 24.3284 122.099 24.3284H121.475C120.771 24.3284 120.259 24.4404 119.939 24.6644C119.651 24.8564 119.443 25.2564 119.315 25.8644C119.187 26.4404 119.091 27.3044 119.027 28.4564C118.867 30.2484 118.707 32.2164 118.547 34.3604C118.387 36.5044 118.131 38.6484 117.779 40.7924C117.427 42.9044 116.915 44.8564 116.243 46.6484C115.603 48.4084 114.691 49.8324 113.507 50.9204C112.355 51.9764 110.851 52.5044 108.995 52.5044V51.5924C110.467 51.5924 111.699 51.1284 112.691 50.2004C113.683 49.2724 114.483 48.0244 115.091 46.4564C115.731 44.8564 116.227 43.0644 116.579 41.0804C116.931 39.0644 117.203 36.9844 117.395 34.8404C117.587 32.6644 117.763 30.5364 117.923 28.4564C118.019 27.3364 117.971 26.4884 117.779 25.9124C117.619 25.3364 117.235 24.9364 116.627 24.7124C116.051 24.4884 115.187 24.3604 114.035 24.3284V23.3684C114.643 23.4004 115.363 23.4324 116.195 23.4644C117.027 23.4644 117.795 23.4644 118.499 23.4644C119.011 23.4644 119.475 23.4484 119.891 23.4164C120.307 23.3844 120.931 23.3684 121.763 23.3684C123.139 23.3684 124.243 23.3844 125.075 23.4164C125.907 23.4484 126.627 23.4804 127.235 23.5124C127.843 23.5124 128.467 23.5124 129.107 23.5124C130.611 23.5124 132.099 23.4964 133.571 23.4644C135.075 23.4324 136.291 23.4004 137.219 23.3684ZM166.449 23.3684C166.321 24.5844 166.225 25.7684 166.161 26.9204C166.129 28.0404 166.113 28.9044 166.113 29.5124C166.113 30.0884 166.129 30.6484 166.161 31.1924C166.193 31.7044 166.225 32.1364 166.257 32.4884H165.153C164.481 29.5124 163.425 27.4324 161.985 26.2484C160.577 25.0644 158.849 24.4724 156.801 24.4724H156.177C155.633 24.4724 155.169 24.5364 154.785 24.6644C154.433 24.7604 154.161 25.0004 153.969 25.3844C153.809 25.7364 153.729 26.2804 153.729 27.0164V48.9044C153.729 49.6404 153.809 50.2004 153.969 50.5844C154.161 50.9364 154.433 51.1764 154.785 51.3044C155.169 51.4004 155.633 51.4484 156.177 51.4484H157.281C158.689 51.4484 159.969 51.1604 161.121 50.5844C162.305 50.0084 163.313 49.0644 164.145 47.7524C165.009 46.4404 165.665 44.6804 166.113 42.4724H167.217C167.121 43.3684 167.073 44.5204 167.073 45.9284C167.073 46.5684 167.089 47.5124 167.121 48.7604C167.185 49.9764 167.281 51.2404 167.409 52.5524C165.841 52.4884 164.081 52.4564 162.129 52.4564C160.177 52.4244 158.433 52.4084 156.897 52.4084C155.809 52.4084 154.353 52.4084 152.529 52.4084C150.705 52.4084 148.769 52.4244 146.721 52.4564C144.705 52.4564 142.817 52.4884 141.057 52.5524V51.5924C142.049 51.5284 142.785 51.4004 143.265 51.2084C143.745 51.0164 144.065 50.6324 144.225 50.0564C144.385 49.4804 144.465 48.6164 144.465 47.4644V28.4564C144.465 27.2724 144.385 26.4084 144.225 25.8644C144.065 25.2884 143.729 24.9044 143.217 24.7124C142.737 24.4884 142.017 24.3604 141.057 24.3284V23.3684C142.817 23.4004 144.705 23.4324 146.721 23.4644C148.769 23.4964 150.705 23.5124 152.529 23.5124C154.353 23.5124 155.809 23.5124 156.897 23.5124C158.305 23.5124 159.889 23.5124 161.649 23.5124C163.441 23.4804 165.041 23.4324 166.449 23.3684ZM159.009 37.3844C159.009 37.3844 159.009 37.5444 159.009 37.8644C159.009 38.1844 159.009 38.3444 159.009 38.3444H152.289C152.289 38.3444 152.289 38.1844 152.289 37.8644C152.289 37.5444 152.289 37.3844 152.289 37.3844H159.009ZM161.361 32.0084C161.233 33.4804 161.169 34.6644 161.169 35.5604C161.201 36.4564 161.217 37.2244 161.217 37.8644C161.217 38.5044 161.233 39.2724 161.265 40.1684C161.297 41.0644 161.377 42.2484 161.505 43.7204H160.401C160.273 42.7604 159.969 41.8804 159.489 41.0804C159.041 40.2484 158.433 39.5924 157.665 39.1124C156.897 38.6004 155.953 38.3444 154.833 38.3444V37.3844C155.985 37.3844 156.929 37.0964 157.665 36.5204C158.401 35.9124 158.977 35.1924 159.393 34.3604C159.841 33.5284 160.129 32.7444 160.257 32.0084H161.361ZM171.255 23.3684C172.023 23.4004 173.031 23.4324 174.279 23.4644C175.559 23.4964 176.823 23.5124 178.071 23.5124C179.863 23.5124 181.575 23.4964 183.207 23.4644C184.871 23.4324 186.055 23.4164 186.759 23.4164C191.527 23.4164 194.967 24.1044 197.079 25.4804C199.191 26.8564 200.247 28.8404 200.247 31.4324C200.247 32.5844 200.007 33.7204 199.527 34.8404C199.079 35.9284 198.295 36.9204 197.175 37.8164C196.055 38.7124 194.519 39.4324 192.567 39.9764C190.647 40.4884 188.199 40.7444 185.223 40.7444H181.095C181.095 40.7444 181.095 40.5844 181.095 40.2644C181.095 39.9444 181.095 39.7844 181.095 39.7844H184.743C186.375 39.7844 187.607 39.4324 188.439 38.7284C189.303 37.9924 189.879 37.0324 190.167 35.8484C190.487 34.6324 190.647 33.3364 190.647 31.9604C190.647 29.4324 190.343 27.5284 189.735 26.2484C189.127 24.9684 188.055 24.3284 186.519 24.3284C185.431 24.3284 184.727 24.6004 184.407 25.1444C184.087 25.6884 183.927 26.7924 183.927 28.4564V47.4644C183.927 48.6164 184.023 49.4804 184.215 50.0564C184.407 50.6324 184.775 51.0164 185.319 51.2084C185.895 51.4004 186.727 51.5284 187.815 51.5924V52.5524C186.727 52.4884 185.319 52.4564 183.591 52.4564C181.895 52.4244 180.151 52.4084 178.359 52.4084C176.919 52.4084 175.559 52.4244 174.279 52.4564C173.031 52.4564 172.023 52.4884 171.255 52.5524V51.5924C172.247 51.5284 172.983 51.4004 173.463 51.2084C173.943 51.0164 174.263 50.6324 174.423 50.0564C174.583 49.4804 174.663 48.6164 174.663 47.4644V28.4564C174.663 27.2724 174.583 26.4084 174.423 25.8644C174.263 25.2884 173.927 24.9044 173.415 24.7124C172.935 24.4884 172.215 24.3604 171.255 24.3284V23.3684ZM223.41 36.6644V37.4804H220.77C220.066 37.4804 219.458 37.5924 218.946 37.8164C218.466 38.0404 218.082 38.3764 217.794 38.8244C217.506 39.2724 217.282 39.8484 217.122 40.5524L215.634 48.0404C215.378 49.3844 214.914 50.4404 214.242 51.2084C213.602 51.9444 212.77 52.4564 211.746 52.7444C210.754 53.0644 209.602 53.2244 208.29 53.2244C206.882 53.2244 205.586 53.0324 204.402 52.6484C203.25 52.2964 202.21 51.6244 201.282 50.6324L201.906 50.0084C202.13 50.2324 202.354 50.3924 202.578 50.4884C202.802 50.5844 203.074 50.6324 203.394 50.6324C203.778 50.6324 204.146 50.4724 204.498 50.1524C204.882 49.8324 205.25 48.9524 205.602 47.5124L206.61 43.5764C207.026 41.9764 207.746 40.7124 208.77 39.7844C209.794 38.8564 210.978 38.1684 212.322 37.7204C213.698 37.2724 215.122 36.9844 216.594 36.8564C218.066 36.7284 219.442 36.6644 220.722 36.6644C221.042 36.6644 221.346 36.6644 221.634 36.6644C221.922 36.6644 222.21 36.6644 222.498 36.6644C222.818 36.6644 223.122 36.6644 223.41 36.6644ZM215.202 23.3684V24.2804C214.05 24.3124 213.09 24.6644 212.322 25.3364C211.586 26.0084 211.25 26.9044 211.314 28.0244C211.378 29.1444 212.098 30.3924 213.474 31.7684L214.578 32.8244C215.89 34.0724 217.186 34.9844 218.466 35.5604C219.778 36.1364 221.266 36.5044 222.93 36.6644V37.4804L218.37 37.3844L208.77 28.5524C208.002 27.8164 207.218 27.1604 206.418 26.5844C205.618 26.0084 204.834 25.5284 204.066 25.1444C203.298 24.7604 202.546 24.4724 201.81 24.2804V23.3684C202.45 23.4004 203.154 23.4324 203.922 23.4644C204.722 23.4964 205.634 23.5124 206.658 23.5124C208.45 23.5124 209.986 23.4964 211.266 23.4644C212.546 23.4324 213.858 23.4004 215.202 23.3684ZM249.474 23.3684V24.2804C248.77 24.4724 248.018 24.7604 247.218 25.1444C246.45 25.5284 245.666 26.0084 244.866 26.5844C244.098 27.1604 243.314 27.8164 242.514 28.5524L232.914 37.3844L228.354 37.4804V36.6644C230.05 36.5044 231.538 36.1364 232.818 35.5604C234.13 34.9844 235.426 34.0724 236.706 32.8244L237.81 31.7684C239.186 30.3924 239.906 29.1444 239.97 28.0244C240.034 26.9044 239.682 26.0084 238.914 25.3364C238.178 24.6644 237.234 24.3124 236.082 24.2804V23.3684C237.426 23.4004 238.738 23.4324 240.018 23.4644C241.298 23.4964 242.834 23.5124 244.626 23.5124C245.65 23.5124 246.546 23.4964 247.314 23.4644C248.114 23.4324 248.834 23.4004 249.474 23.3684ZM250.002 50.6324C249.106 51.6244 248.066 52.2964 246.882 52.6484C245.698 53.0324 244.402 53.2244 242.994 53.2244C241.714 53.2244 240.562 53.0644 239.538 52.7444C238.514 52.4564 237.666 51.9444 236.994 51.2084C236.354 50.4404 235.906 49.3844 235.65 48.0404L234.162 40.5524C234.034 39.8484 233.81 39.2724 233.49 38.8244C233.202 38.3764 232.818 38.0404 232.338 37.8164C231.858 37.5924 231.25 37.4804 230.514 37.4804H227.874V36.6644C229.442 36.6644 230.722 36.6804 231.714 36.7124C232.706 36.7124 233.538 36.7444 234.21 36.8084C234.882 36.8404 235.538 36.9204 236.178 37.0484C237.458 37.2404 238.674 37.5764 239.826 38.0564C240.978 38.5364 241.986 39.2244 242.85 40.1204C243.714 40.9844 244.322 42.1364 244.674 43.5764L245.682 47.5124C246.034 48.9524 246.386 49.8324 246.738 50.1524C247.122 50.4724 247.506 50.6324 247.89 50.6324C248.21 50.6324 248.482 50.5844 248.706 50.4884C248.93 50.3924 249.154 50.2324 249.378 50.0084L250.002 50.6324ZM233.682 23.3684V24.3284C232.722 24.3604 231.986 24.4884 231.474 24.7124C230.994 24.9044 230.674 25.2884 230.514 25.8644C230.354 26.4084 230.274 27.2724 230.274 28.4564V47.4644C230.274 48.6164 230.354 49.4804 230.514 50.0564C230.674 50.6324 230.994 51.0164 231.474 51.2084C231.986 51.4004 232.722 51.5284 233.682 51.5924V52.5524C232.786 52.4884 231.618 52.4564 230.178 52.4564C228.738 52.4244 227.314 52.4084 225.906 52.4084C224.274 52.4084 222.69 52.4244 221.154 52.4564C219.65 52.4564 218.466 52.4884 217.602 52.5524V51.5924C218.594 51.5284 219.33 51.4004 219.81 51.2084C220.29 51.0164 220.61 50.6324 220.77 50.0564C220.93 49.4804 221.01 48.6164 221.01 47.4644V28.4564C221.01 27.2724 220.93 26.4084 220.77 25.8644C220.61 25.2884 220.274 24.9044 219.762 24.7124C219.282 24.4884 218.562 24.3604 217.602 24.3284V23.3684C218.466 23.4004 219.65 23.4324 221.154 23.4644C222.69 23.4964 224.274 23.5124 225.906 23.5124C227.314 23.5124 228.738 23.4964 230.178 23.4644C231.618 23.4324 232.786 23.4004 233.682 23.3684ZM261.638 36.6644C262.182 36.6644 262.726 36.6644 263.27 36.6644C263.814 36.6644 264.342 36.6644 264.854 36.6644C265.398 36.6644 265.942 36.6644 266.486 36.6644C267.766 36.6644 269.142 36.7284 270.614 36.8564C272.086 36.9844 273.494 37.2724 274.838 37.7204C276.214 38.1684 277.414 38.8564 278.438 39.7844C279.462 40.7124 280.182 41.9764 280.598 43.5764L281.606 47.5124C281.958 48.9524 282.31 49.8324 282.662 50.1524C283.046 50.4724 283.43 50.6324 283.814 50.6324C284.134 50.6324 284.406 50.5844 284.63 50.4884C284.854 50.3924 285.078 50.2324 285.302 50.0084L285.926 50.6324C285.03 51.6244 283.99 52.2964 282.806 52.6484C281.622 53.0324 280.326 53.2244 278.918 53.2244C277.638 53.2244 276.486 53.0644 275.462 52.7444C274.438 52.4564 273.59 51.9444 272.918 51.2084C272.278 50.4404 271.83 49.3844 271.574 48.0404L270.374 42.0884C270.214 41.3204 269.974 40.5844 269.654 39.8804C269.366 39.1764 268.886 38.6004 268.214 38.1524C267.574 37.7044 266.63 37.4804 265.382 37.4804H261.734L261.638 36.6644ZM285.398 23.3684V24.2804C284.694 24.4724 283.942 24.7604 283.142 25.1444C282.374 25.5284 281.59 26.0084 280.79 26.5844C280.022 27.1604 279.238 27.8164 278.438 28.5524L268.838 37.3844L264.278 37.4804V36.6644C265.974 36.5044 267.446 36.1364 268.694 35.5604C269.974 34.9844 271.254 34.0724 272.534 32.8244L273.638 31.7684C274.95 30.3924 275.638 29.1444 275.702 28.0244C275.766 26.9044 275.43 26.0084 274.694 25.3364C273.99 24.6644 273.094 24.3124 272.006 24.2804V23.3684C273.35 23.4004 274.662 23.4324 275.942 23.4644C277.222 23.4964 278.566 23.5124 279.974 23.5124C281.382 23.5124 282.47 23.4964 283.238 23.4644C284.038 23.4324 284.758 23.4004 285.398 23.3684ZM268.358 23.3684V24.3284C267.398 24.3604 266.662 24.4884 266.15 24.7124C265.67 24.9044 265.35 25.2884 265.19 25.8644C265.03 26.4084 264.95 27.2724 264.95 28.4564V47.4644C264.95 48.6164 265.03 49.4804 265.19 50.0564C265.35 50.6324 265.67 51.0164 266.15 51.2084C266.662 51.4004 267.398 51.5284 268.358 51.5924V52.5524C267.462 52.4884 266.294 52.4564 264.854 52.4564C263.414 52.4244 261.99 52.4084 260.582 52.4084C258.95 52.4084 257.366 52.4244 255.83 52.4564C254.326 52.4564 253.142 52.4884 252.278 52.5524V51.5924C253.27 51.5284 254.006 51.4004 254.486 51.2084C254.966 51.0164 255.286 50.6324 255.446 50.0564C255.606 49.4804 255.686 48.6164 255.686 47.4644V28.4564C255.686 27.2724 255.606 26.4084 255.446 25.8644C255.286 25.2884 254.95 24.9044 254.438 24.7124C253.958 24.4884 253.238 24.3604 252.278 24.3284V23.3684C253.142 23.4004 254.326 23.4324 255.83 23.4644C257.366 23.4964 258.95 23.5124 260.582 23.5124C261.99 23.5124 263.414 23.4964 264.854 23.4644C266.294 23.4324 267.462 23.4004 268.358 23.3684ZM303.458 23.3684L314.978 48.5204C315.522 49.6084 316.018 50.3924 316.466 50.8724C316.946 51.3204 317.394 51.5604 317.81 51.5924V52.5524C317.01 52.4884 315.954 52.4564 314.642 52.4564C313.362 52.4244 312.066 52.4084 310.754 52.4084C309.026 52.4084 307.394 52.4244 305.858 52.4564C304.354 52.4564 303.138 52.4884 302.21 52.5524V51.5924C303.554 51.5284 304.45 51.2084 304.898 50.6324C305.346 50.0564 305.218 49.0324 304.514 47.5604L297.458 31.2404L298.754 29.1764L293.282 41.8484C292.386 43.8964 291.842 45.5604 291.65 46.8404C291.458 48.0884 291.522 49.0484 291.842 49.7204C292.194 50.3924 292.738 50.8724 293.474 51.1604C294.21 51.4164 295.058 51.5604 296.018 51.5924V52.5524C294.834 52.4884 293.762 52.4564 292.802 52.4564C291.874 52.4244 290.85 52.4084 289.73 52.4084C289.122 52.4084 288.466 52.4244 287.762 52.4564C287.09 52.4564 286.514 52.4884 286.034 52.5524V51.5924C286.77 51.4644 287.474 50.9844 288.146 50.1524C288.818 49.3204 289.586 47.9284 290.45 45.9764L300.29 23.3684C300.834 23.4324 301.362 23.4644 301.874 23.4644C302.418 23.4644 302.946 23.4324 303.458 23.3684ZM306.098 41.1284V42.0884H292.754L293.234 41.1284H306.098ZM360.888 23.3684V24.3284C359.928 24.3604 359.208 24.4884 358.728 24.7124C358.248 24.9044 357.912 25.2884 357.72 25.8644C357.56 26.4084 357.48 27.2724 357.48 28.4564V47.4644C357.48 48.6164 357.56 49.4804 357.72 50.0564C357.88 50.6324 358.2 51.0164 358.68 51.2084C359.192 51.4004 359.928 51.5284 360.888 51.5924V52.5524C360.12 52.4884 359.096 52.4564 357.816 52.4564C356.568 52.4244 355.224 52.4084 353.784 52.4084C352.024 52.4084 350.28 52.4244 348.552 52.4564C346.824 52.4564 345.416 52.4884 344.328 52.5524V51.5924C345.416 51.5284 346.232 51.4004 346.776 51.2084C347.352 51.0164 347.736 50.6324 347.928 50.0564C348.12 49.4804 348.216 48.6164 348.216 47.4644V28.4564C348.216 26.7924 348.056 25.6884 347.736 25.1444C347.416 24.6004 346.712 24.3284 345.624 24.3284C344.088 24.3284 343.016 24.9044 342.408 26.0564C341.8 27.1764 341.496 28.8244 341.496 31.0004C341.496 32.2164 341.64 33.3524 341.928 34.4084C342.248 35.4644 342.824 36.3124 343.656 36.9524C344.52 37.5604 345.768 37.8644 347.4 37.8644H351.048C351.048 37.8644 351.048 38.0244 351.048 38.3444C351.048 38.6644 351.048 38.8244 351.048 38.8244L345 38.6324C342.632 38.6324 340.616 38.4724 338.952 38.1524C337.288 37.8004 335.928 37.3044 334.872 36.6644C333.848 35.9924 333.096 35.1924 332.616 34.2644C332.136 33.3364 331.896 32.2804 331.896 31.0964C331.896 29.4964 332.28 28.1204 333.048 26.9684C333.848 25.8164 335.224 24.9364 337.176 24.3284C339.16 23.7204 341.896 23.4164 345.384 23.4164C346.12 23.4164 347.304 23.4324 348.936 23.4644C350.568 23.4964 352.28 23.5124 354.072 23.5124C355.32 23.5124 356.568 23.4964 357.816 23.4644C359.096 23.4324 360.12 23.4004 360.888 23.3684ZM351.432 38.1044L351.336 38.9204H346.152C344.936 38.9204 344.056 39.5604 343.512 40.8404C343 42.1204 342.6 43.7524 342.312 45.7364L341.928 48.0404C341.64 49.9924 340.856 51.3524 339.576 52.1204C338.328 52.8564 336.68 53.2244 334.632 53.2244C333.32 53.2244 332.104 53.0324 330.984 52.6484C329.896 52.2964 328.936 51.6244 328.104 50.6324L328.728 50.0084C328.952 50.2324 329.176 50.3924 329.4 50.4884C329.624 50.5844 329.896 50.6324 330.216 50.6324C330.76 50.6324 331.192 50.4564 331.512 50.1044C331.864 49.7204 332.104 49.1604 332.232 48.4244L332.952 45.0164C333.304 42.9364 334.328 41.4324 336.024 40.5044C337.752 39.5764 340.12 38.9364 343.128 38.5844C343.736 38.4884 344.344 38.4244 344.952 38.3924C345.56 38.3604 346.36 38.3284 347.352 38.2964C348.376 38.2324 349.736 38.1684 351.432 38.1044ZM376.503 22.6964C378.519 22.6964 380.311 22.9524 381.879 23.4644C383.479 23.9444 384.743 24.6484 385.671 25.5764C386.599 26.5044 387.063 27.6564 387.063 29.0324C387.063 30.5684 386.487 31.8964 385.335 33.0164C384.215 34.1044 382.727 34.9844 380.871 35.6564C379.047 36.2964 377.063 36.7284 374.919 36.9524C376.743 36.9204 378.487 37.0484 380.151 37.3364C381.815 37.5924 383.303 38.0244 384.615 38.6324C385.927 39.2404 386.967 40.0404 387.735 41.0324C388.503 42.0244 388.887 43.2404 388.887 44.6804C388.887 46.4404 388.263 47.9604 387.015 49.2404C385.767 50.5204 384.007 51.5124 381.735 52.2164C379.495 52.8884 376.855 53.2244 373.815 53.2244C372.407 53.2244 371.015 53.1124 369.639 52.8884C368.295 52.6964 367.127 52.3124 366.135 51.7364C365.335 51.2884 364.727 50.7284 364.311 50.0564C363.895 49.3844 363.687 48.6484 363.687 47.8484C363.687 46.7284 364.071 45.8004 364.839 45.0644C365.607 44.2964 366.695 43.9124 368.103 43.9124C369.447 43.9124 370.551 44.2644 371.415 44.9684C372.279 45.6724 372.711 46.6164 372.711 47.8004C372.711 48.8564 372.359 49.7364 371.655 50.4404C370.983 51.1124 370.183 51.5764 369.255 51.8324C369.543 51.9604 369.943 52.0724 370.455 52.1684C370.967 52.2324 371.479 52.2644 371.991 52.2644C373.751 52.2644 375.159 51.9604 376.215 51.3524C377.303 50.7124 378.087 49.8324 378.567 48.7124C379.079 47.5604 379.335 46.2324 379.335 44.7284C379.335 43.0324 379.047 41.5284 378.471 40.2164C377.895 38.9044 376.999 38.0404 375.783 37.6244C375.527 37.5284 375.271 37.4644 375.015 37.4324C374.759 37.4004 374.471 37.3844 374.151 37.3844C373.831 37.5444 373.495 37.6884 373.143 37.8164C372.823 37.9444 372.487 38.0084 372.135 38.0084C371.815 38.0084 371.559 37.9444 371.367 37.8164C371.175 37.6884 371.079 37.4804 371.079 37.1924C371.079 36.6804 371.447 36.4244 372.183 36.4244C372.503 36.4244 372.839 36.4564 373.191 36.5204C373.543 36.5844 373.879 36.6484 374.199 36.7124C375.447 36.1684 376.295 35.3044 376.743 34.1204C377.223 32.9044 377.463 31.5124 377.463 29.9444C377.463 27.9604 377.127 26.5204 376.455 25.6244C375.815 24.6964 374.775 24.2324 373.335 24.2324C372.023 24.2324 370.903 24.5844 369.975 25.2884C369.047 25.9604 368.327 26.9364 367.815 28.2164C367.303 29.4644 366.999 30.9364 366.903 32.6324H365.799C365.799 30.6164 365.783 29.0164 365.751 27.8324C365.751 26.6164 365.735 25.6564 365.703 24.9524C365.671 24.2164 365.623 23.5764 365.559 23.0324H366.663C366.759 23.6724 366.871 24.1844 366.999 24.5684C367.159 24.9524 367.431 25.1444 367.815 25.1444C367.975 25.1444 368.151 25.1124 368.343 25.0484C368.535 24.9524 368.871 24.7764 369.351 24.5204C370.055 24.1364 370.903 23.7364 371.895 23.3204C372.919 22.9044 374.455 22.6964 376.503 22.6964ZM408.347 23.3684V24.3284C407.259 24.3604 406.427 24.4884 405.851 24.7124C405.307 24.9044 404.939 25.2884 404.747 25.8644C404.555 26.4084 404.459 27.2724 404.459 28.4564V47.4644C404.459 49.1284 404.619 50.2324 404.939 50.7764C405.259 51.3204 405.963 51.5924 407.051 51.5924C408.587 51.5924 409.659 50.9524 410.267 49.6724C410.875 48.3924 411.179 46.4884 411.179 43.9604C411.179 42.5524 411.019 41.2564 410.699 40.0724C410.411 38.8884 409.835 37.9444 408.971 37.2404C408.139 36.5044 406.907 36.1364 405.275 36.1364H401.627V35.1764H405.755C409.723 35.1764 412.779 35.5284 414.923 36.2324C417.099 36.9364 418.619 37.9124 419.483 39.1604C420.347 40.4084 420.779 41.8324 420.779 43.4324C420.779 46.4084 419.723 48.6644 417.611 50.2004C415.499 51.7364 412.059 52.5044 407.291 52.5044C406.587 52.5044 405.403 52.4884 403.739 52.4564C402.107 52.4244 400.395 52.4084 398.603 52.4084C397.355 52.4084 396.091 52.4244 394.811 52.4564C393.563 52.4564 392.555 52.4884 391.787 52.5524V51.5924C392.747 51.5284 393.467 51.4004 393.947 51.2084C394.459 51.0164 394.795 50.6324 394.955 50.0564C395.115 49.4804 395.195 48.6164 395.195 47.4644V28.4564C395.195 27.2724 395.115 26.4084 394.955 25.8644C394.795 25.2884 394.475 24.9044 393.995 24.7124C393.515 24.4884 392.779 24.3604 391.787 24.3284V23.3684C392.555 23.4004 393.563 23.4324 394.811 23.4644C396.091 23.4964 397.451 23.5124 398.891 23.5124C400.683 23.5124 402.427 23.4964 404.123 23.4644C405.851 23.4324 407.259 23.4004 408.347 23.3684ZM437.771 23.3684V24.3284C436.811 24.3604 436.075 24.4884 435.563 24.7124C435.083 24.9044 434.763 25.2884 434.603 25.8644C434.443 26.4084 434.363 27.2724 434.363 28.4564V47.4644C434.363 48.6164 434.443 49.4804 434.603 50.0564C434.763 50.6324 435.083 51.0164 435.563 51.2084C436.075 51.4004 436.811 51.5284 437.771 51.5924V52.5524C436.875 52.4884 435.707 52.4564 434.267 52.4564C432.827 52.4244 431.403 52.4084 429.995 52.4084C428.363 52.4084 426.779 52.4244 425.243 52.4564C423.739 52.4564 422.555 52.4884 421.691 52.5524V51.5924C422.683 51.5284 423.419 51.4004 423.899 51.2084C424.379 51.0164 424.699 50.6324 424.859 50.0564C425.019 49.4804 425.099 48.6164 425.099 47.4644V28.4564C425.099 27.2724 425.003 26.4084 424.811 25.8644C424.651 25.2884 424.331 24.9044 423.851 24.7124C423.371 24.4884 422.651 24.3604 421.691 24.3284V23.3684C422.555 23.4004 423.739 23.4324 425.243 23.4644C426.779 23.4964 428.363 23.5124 429.995 23.5124C431.403 23.5124 432.827 23.4964 434.267 23.4644C435.707 23.4324 436.875 23.4004 437.771 23.3684ZM450.377 36.6644C450.921 36.6644 451.465 36.6644 452.009 36.6644C452.553 36.6644 453.081 36.6644 453.593 36.6644C454.137 36.6644 454.681 36.6644 455.225 36.6644C456.505 36.6644 457.881 36.7284 459.353 36.8564C460.825 36.9844 462.233 37.2724 463.577 37.7204C464.953 38.1684 466.153 38.8564 467.177 39.7844C468.201 40.7124 468.921 41.9764 469.337 43.5764L470.345 47.5124C470.697 48.9524 471.049 49.8324 471.401 50.1524C471.785 50.4724 472.169 50.6324 472.553 50.6324C472.873 50.6324 473.145 50.5844 473.369 50.4884C473.593 50.3924 473.817 50.2324 474.041 50.0084L474.665 50.6324C473.769 51.6244 472.729 52.2964 471.545 52.6484C470.361 53.0324 469.065 53.2244 467.657 53.2244C466.377 53.2244 465.225 53.0644 464.201 52.7444C463.177 52.4564 462.329 51.9444 461.657 51.2084C461.017 50.4404 460.569 49.3844 460.313 48.0404L459.113 42.0884C458.953 41.3204 458.713 40.5844 458.393 39.8804C458.105 39.1764 457.625 38.6004 456.953 38.1524C456.313 37.7044 455.369 37.4804 454.121 37.4804H450.473L450.377 36.6644ZM474.137 23.3684V24.2804C473.433 24.4724 472.681 24.7604 471.881 25.1444C471.113 25.5284 470.329 26.0084 469.529 26.5844C468.761 27.1604 467.977 27.8164 467.177 28.5524L457.577 37.3844L453.017 37.4804V36.6644C454.713 36.5044 456.185 36.1364 457.433 35.5604C458.713 34.9844 459.993 34.0724 461.273 32.8244L462.377 31.7684C463.689 30.3924 464.377 29.1444 464.441 28.0244C464.505 26.9044 464.169 26.0084 463.433 25.3364C462.729 24.6644 461.833 24.3124 460.745 24.2804V23.3684C462.089 23.4004 463.401 23.4324 464.681 23.4644C465.961 23.4964 467.305 23.5124 468.713 23.5124C470.121 23.5124 471.209 23.4964 471.977 23.4644C472.777 23.4324 473.497 23.4004 474.137 23.3684ZM457.097 23.3684V24.3284C456.137 24.3604 455.401 24.4884 454.889 24.7124C454.409 24.9044 454.089 25.2884 453.929 25.8644C453.769 26.4084 453.689 27.2724 453.689 28.4564V47.4644C453.689 48.6164 453.769 49.4804 453.929 50.0564C454.089 50.6324 454.409 51.0164 454.889 51.2084C455.401 51.4004 456.137 51.5284 457.097 51.5924V52.5524C456.201 52.4884 455.033 52.4564 453.593 52.4564C452.153 52.4244 450.729 52.4084 449.321 52.4084C447.689 52.4084 446.105 52.4244 444.569 52.4564C443.065 52.4564 441.881 52.4884 441.017 52.5524V51.5924C442.009 51.5284 442.745 51.4004 443.225 51.2084C443.705 51.0164 444.025 50.6324 444.185 50.0564C444.345 49.4804 444.425 48.6164 444.425 47.4644V28.4564C444.425 27.2724 444.345 26.4084 444.185 25.8644C444.025 25.2884 443.689 24.9044 443.177 24.7124C442.697 24.4884 441.977 24.3604 441.017 24.3284V23.3684C441.881 23.4004 443.065 23.4324 444.569 23.4644C446.105 23.4964 447.689 23.5124 449.321 23.5124C450.729 23.5124 452.153 23.4964 453.593 23.4644C455.033 23.4324 456.201 23.4004 457.097 23.3684ZM493.938 22.6964C497.362 22.6964 500.354 23.2884 502.914 24.4724C505.506 25.6244 507.506 27.3204 508.914 29.5604C510.354 31.7684 511.074 34.4724 511.074 37.6724C511.074 40.7764 510.338 43.4964 508.866 45.8324C507.426 48.1684 505.41 49.9924 502.818 51.3044C500.226 52.5844 497.25 53.2244 493.89 53.2244C490.466 53.2244 487.458 52.6484 484.866 51.4964C482.306 50.3124 480.306 48.6004 478.866 46.3604C477.458 44.1204 476.754 41.4164 476.754 38.2484C476.754 35.1444 477.49 32.4244 478.962 30.0884C480.434 27.7524 482.45 25.9444 485.01 24.6644C487.602 23.3524 490.578 22.6964 493.938 22.6964ZM493.746 23.5604C492.242 23.5604 490.93 24.1844 489.81 25.4324C488.722 26.6484 487.874 28.3444 487.266 30.5204C486.658 32.6964 486.354 35.2084 486.354 38.0564C486.354 40.9684 486.69 43.4964 487.362 45.6404C488.066 47.7844 489.01 49.4484 490.194 50.6324C491.378 51.7844 492.674 52.3604 494.082 52.3604C495.586 52.3604 496.882 51.7524 497.97 50.5364C499.09 49.2884 499.954 47.5764 500.562 45.4004C501.17 43.1924 501.474 40.6804 501.474 37.8644C501.474 34.9204 501.122 32.3924 500.418 30.2804C499.746 28.1364 498.818 26.4884 497.634 25.3364C496.482 24.1524 495.186 23.5604 493.746 23.5604ZM514.212 23.3684C514.98 23.4004 515.988 23.4324 517.236 23.4644C518.516 23.4964 519.78 23.5124 521.028 23.5124C522.724 23.5124 524.34 23.4964 525.876 23.4644C527.444 23.4324 528.564 23.4164 529.236 23.4164C533.684 23.4164 536.884 23.9764 538.836 25.0964C540.788 26.1844 541.764 27.8164 541.764 29.9924C541.764 31.6564 541.028 33.0644 539.556 34.2164C538.084 35.3364 535.588 36.2324 532.068 36.9044V37.0004C535.236 37.2884 537.7 37.8004 539.46 38.5364C541.252 39.2724 542.5 40.1684 543.204 41.2244C543.908 42.2484 544.26 43.4004 544.26 44.6804C544.26 47.2084 543.076 49.1604 540.708 50.5364C538.372 51.8804 534.916 52.5524 530.34 52.5524C529.54 52.5524 528.356 52.5364 526.788 52.5044C525.22 52.4404 523.332 52.4084 521.124 52.4084C519.812 52.4084 518.516 52.4244 517.236 52.4564C515.988 52.4564 514.98 52.4884 514.212 52.5524V51.5924C515.204 51.5284 515.94 51.4004 516.42 51.2084C516.9 51.0164 517.22 50.6324 517.38 50.0564C517.54 49.4804 517.62 48.6164 517.62 47.4644V28.4564C517.62 27.2724 517.54 26.3924 517.38 25.8164C517.22 25.2404 516.884 24.8564 516.372 24.6644C515.892 24.4724 515.172 24.3604 514.212 24.3284V23.3684ZM528.996 24.3284C528.132 24.3284 527.556 24.6004 527.268 25.1444C527.012 25.6884 526.884 26.7924 526.884 28.4564V47.4644C526.884 48.5844 526.932 49.4324 527.028 50.0084C527.156 50.5844 527.364 50.9684 527.652 51.1604C527.972 51.3524 528.436 51.4484 529.044 51.4484C531.028 51.4484 532.452 50.8564 533.316 49.6724C534.212 48.4564 534.66 46.7284 534.66 44.4884C534.66 42.3124 534.18 40.6484 533.22 39.4964C532.292 38.3124 530.724 37.7204 528.516 37.7204H524.052C524.052 37.7204 524.052 37.5924 524.052 37.3364C524.052 37.0484 524.052 36.9044 524.052 36.9044H527.7C528.948 36.9044 529.908 36.6324 530.58 36.0884C531.252 35.5124 531.716 34.7444 531.972 33.7844C532.228 32.7924 532.356 31.7044 532.356 30.5204C532.356 28.5044 532.1 26.9684 531.588 25.9124C531.076 24.8564 530.212 24.3284 528.996 24.3284Z" fill="black"/>
<path d="M211.899 114.388C335.919 125.373 364.289 125.014 487.939 105.357C499.013 103.596 510.106 101.756 520.794 99.1531C523.105 98.5904 553.727 90.4941 553.475 83.9188C553.325 80.0007 547.065 76.8476 541.797 75.0609C529.797 70.9916 516.525 68.5516 503.277 66.8955C459.255 61.3924 383.735 59.0497 341.616 58.7013C311.343 58.4508 281.038 58.769 250.807 59.8554C227.272 60.7012 168.969 61.9302 142.525 72.9258C121.054 81.8532 146.18 89.7478 155.379 92.69C182.343 101.314 217.31 104.781 245.883 107.376C315.09 113.661 385.633 115.592 455.433 114.388C478.336 113.992 504.636 112.739 527.766 109.944C554.256 106.743 528.584 109.44 540.316 107.174" stroke="#F0572F" stroke-width="3" stroke-linecap="round"/>
<path d="M43.0424 74.8964V75.5364C42.4024 75.5577 41.9117 75.643 41.5704 75.7924C41.2504 75.9204 41.0371 76.1764 40.9304 76.5604C40.8237 76.923 40.7704 77.499 40.7704 78.2884V94.1604C40.7704 94.9284 40.8237 95.5044 40.9304 95.8884C41.0371 96.2724 41.2504 96.5284 41.5704 96.6564C41.9117 96.7844 42.4024 96.8697 43.0424 96.9124V97.5524C42.4664 97.5097 41.6984 97.4884 40.7384 97.4884C39.7784 97.467 38.7544 97.4564 37.6664 97.4564C36.4931 97.4564 35.3304 97.4777 34.1784 97.5204C33.0264 97.5417 32.0877 97.5524 31.3624 97.5524C30.9571 97.5524 30.3917 97.5417 29.6664 97.5204C28.9624 97.499 28.1837 97.4884 27.3304 97.4884C26.4984 97.467 25.6984 97.4564 24.9304 97.4564C23.6931 97.4564 22.4664 97.4777 21.2504 97.5204C20.0344 97.5417 19.0531 97.5524 18.3064 97.5524C17.5811 97.5524 16.6317 97.5417 15.4584 97.5204C14.2851 97.4777 13.1011 97.4564 11.9064 97.4564C10.8184 97.4564 9.7944 97.467 8.8344 97.4884C7.8744 97.4884 7.1064 97.5097 6.5304 97.5524V96.9124C7.1704 96.8697 7.6504 96.7844 7.9704 96.6564C8.31173 96.5284 8.53573 96.2724 8.6424 95.8884C8.74907 95.5044 8.8024 94.9284 8.8024 94.1604V78.2884C8.8024 77.499 8.74907 76.923 8.6424 76.5604C8.53573 76.1764 8.31173 75.9204 7.9704 75.7924C7.6504 75.643 7.1704 75.5577 6.5304 75.5364V74.8964C7.14907 74.9177 7.95973 74.939 8.9624 74.9604C9.9864 74.9817 11.0744 74.9924 12.2264 74.9924C13.1651 74.9924 14.0824 74.9817 14.9784 74.9604C15.8957 74.939 16.6531 74.9177 17.2504 74.8964V75.5364C16.6957 75.5577 16.2797 75.643 16.0024 75.7924C15.7251 75.9204 15.5331 76.1764 15.4264 76.5604C15.3411 76.923 15.2984 77.499 15.2984 78.2884V94.1604C15.2984 94.9284 15.3624 95.515 15.4904 95.9204C15.6184 96.3044 15.8637 96.571 16.2264 96.7204C16.6104 96.8484 17.1651 96.9124 17.8904 96.9124H18.9464C19.6717 96.9124 20.2157 96.8484 20.5784 96.7204C20.9624 96.571 21.2184 96.3044 21.3464 95.9204C21.4744 95.515 21.5384 94.9284 21.5384 94.1604V78.2884C21.5384 77.499 21.4851 76.923 21.3784 76.5604C21.2931 76.1764 21.1117 75.9204 20.8344 75.7924C20.5571 75.643 20.1411 75.5577 19.5864 75.5364V74.8964C20.1837 74.9177 20.9411 74.939 21.8584 74.9604C22.7757 74.9817 23.6931 74.9924 24.6104 74.9924C25.6984 74.9924 26.7224 74.9817 27.6824 74.9604C28.6424 74.939 29.4104 74.9177 29.9864 74.8964V75.5364C29.4317 75.5577 29.0157 75.643 28.7384 75.7924C28.4611 75.9204 28.2691 76.1764 28.1624 76.5604C28.0771 76.923 28.0344 77.499 28.0344 78.2884V94.1604C28.0344 94.9284 28.1091 95.5044 28.2584 95.8884C28.4291 96.2724 28.7064 96.5284 29.0904 96.6564C29.4744 96.7844 29.9864 96.8697 30.6264 96.9124H31.6824C32.4077 96.9124 32.9517 96.8484 33.3144 96.7204C33.6984 96.571 33.9544 96.3044 34.0824 95.9204C34.2104 95.515 34.2744 94.9284 34.2744 94.1604V78.2884C34.2744 77.499 34.2211 76.923 34.1144 76.5604C34.0291 76.1764 33.8477 75.9204 33.5704 75.7924C33.2931 75.643 32.8771 75.5577 32.3224 75.5364V74.8964C32.9197 74.9177 33.6771 74.939 34.5944 74.9604C35.5117 74.9817 36.4291 74.9924 37.3464 74.9924C38.4984 74.9924 39.5864 74.9817 40.6104 74.9604C41.6344 74.939 42.4451 74.9177 43.0424 74.8964ZM52.3086 80.6244V100.048C52.3086 101.094 52.554 101.787 53.0446 102.128C53.5353 102.491 54.2073 102.672 55.0606 102.672V103.344C54.4633 103.323 53.6313 103.291 52.5646 103.248C51.498 103.227 50.3673 103.216 49.1726 103.216C48.3193 103.216 47.4766 103.227 46.6446 103.248C45.8126 103.291 45.1833 103.323 44.7566 103.344V102.672C45.418 102.672 45.8766 102.512 46.1326 102.192C46.41 101.872 46.5486 101.264 46.5486 100.368V84.4644C46.5486 83.5044 46.4206 82.8004 46.1646 82.3524C45.9086 81.883 45.4393 81.6484 44.7566 81.6484V80.9764C45.4393 81.0404 46.1006 81.0724 46.7406 81.0724C47.8073 81.0724 48.7993 81.0404 49.7166 80.9764C50.6553 80.891 51.5193 80.7737 52.3086 80.6244ZM57.1726 80.4964C58.2393 80.4964 59.1886 80.795 60.0206 81.3924C60.8527 81.9684 61.514 82.8537 62.0047 84.0484C62.4953 85.2217 62.7407 86.715 62.7407 88.5284C62.7407 90.3417 62.538 91.8564 62.1327 93.0724C61.7487 94.2884 61.2047 95.259 60.5007 95.9844C59.818 96.7097 59.0286 97.2324 58.1326 97.5524C57.2366 97.851 56.2873 98.0004 55.2846 98.0004C54.5593 98.0004 53.866 97.915 53.2046 97.7444C52.5646 97.595 52.0313 97.2964 51.6046 96.8484L51.9246 96.4324C52.0953 96.667 52.3193 96.827 52.5966 96.9124C52.874 96.9977 53.1513 97.0404 53.4286 97.0404C54.218 97.0404 54.858 96.7524 55.3486 96.1764C55.8393 95.6004 56.1913 94.7364 56.4046 93.5844C56.6393 92.4324 56.7566 90.9924 56.7566 89.2644C56.7566 87.3657 56.6606 85.9044 56.4686 84.8804C56.2766 83.8564 56.0206 83.1524 55.7006 82.7684C55.3806 82.363 55.018 82.1604 54.6126 82.1604C54.0153 82.1604 53.482 82.3737 53.0126 82.8004C52.5433 83.227 52.3086 83.7817 52.3086 84.4644V82.8964C52.7993 82.0857 53.4606 81.4884 54.2926 81.1044C55.1246 80.699 56.0846 80.4964 57.1726 80.4964ZM85.3424 80.9764V81.6484C84.6811 81.6484 84.2117 81.8084 83.9344 82.1284C83.6784 82.4484 83.5504 83.0564 83.5504 83.9524V94.5764C83.5504 95.4724 83.6784 96.0804 83.9344 96.4004C84.2117 96.7204 84.6811 96.8804 85.3424 96.8804V97.5524C84.9157 97.531 84.2651 97.5097 83.3904 97.4884C82.5371 97.4457 81.6944 97.4244 80.8624 97.4244C79.9664 97.4244 79.0917 97.4457 78.2384 97.4884C77.3851 97.5097 76.7451 97.531 76.3184 97.5524V96.8804C76.8731 96.8804 77.2571 96.7204 77.4704 96.4004C77.6837 96.0804 77.7904 95.4724 77.7904 94.5764V83.9524C77.7904 83.0564 77.6837 82.4484 77.4704 82.1284C77.2571 81.8084 76.8731 81.6484 76.3184 81.6484V80.9764C76.7237 80.9977 77.3211 81.0297 78.1104 81.0724C78.8997 81.0937 79.7104 81.1044 80.5424 81.1044C81.4384 81.1044 82.3451 81.0937 83.2624 81.0724C84.1797 81.0297 84.8731 80.9977 85.3424 80.9764ZM74.1104 80.9764V81.6484C73.5771 81.6484 73.1931 81.8084 72.9584 82.1284C72.7451 82.4484 72.6384 83.0564 72.6384 83.9524V94.5764C72.6384 95.4724 72.7451 96.0804 72.9584 96.4004C73.1931 96.7204 73.5771 96.8804 74.1104 96.8804V97.5524C73.7051 97.531 73.1077 97.5097 72.3184 97.4884C71.5291 97.4457 70.7184 97.4244 69.8864 97.4244C68.9904 97.4244 68.0837 97.4457 67.1664 97.4884C66.2491 97.5097 65.5557 97.531 65.0864 97.5524V96.8804C65.7477 96.8804 66.2064 96.7204 66.4624 96.4004C66.7397 96.0804 66.8784 95.4724 66.8784 94.5764V83.9524C66.8784 83.0564 66.7397 82.4484 66.4624 82.1284C66.2064 81.8084 65.7477 81.6484 65.0864 81.6484V80.9764C65.5131 80.9977 66.1637 81.0297 67.0384 81.0724C67.9131 81.0937 68.7557 81.1044 69.5664 81.1044C70.4624 81.1044 71.3371 81.0937 72.1904 81.0724C73.0437 81.0297 73.6837 80.9977 74.1104 80.9764ZM78.2064 82.7684L78.7504 83.0564L71.9664 96.4324L71.3904 96.1444L78.2064 82.7684ZM103.544 74.5124V100.048C103.544 101.094 103.789 101.787 104.28 102.128C104.771 102.491 105.443 102.672 106.296 102.672V103.344C105.741 103.323 104.941 103.291 103.896 103.248C102.872 103.227 101.795 103.216 100.664 103.216C99.5548 103.216 98.4775 103.227 97.4321 103.248C96.3868 103.291 95.5868 103.323 95.0321 103.344V102.672C95.9068 102.672 96.5788 102.491 97.0481 102.128C97.5388 101.787 97.7841 101.094 97.7841 100.048V78.3524C97.7841 77.3924 97.6561 76.6884 97.4001 76.2404C97.1441 75.771 96.6748 75.5364 95.9921 75.5364V74.8644C96.3335 74.8857 96.6641 74.907 96.9841 74.9284C97.3255 74.9497 97.7308 74.9604 98.2001 74.9604C99.1388 74.9604 100.067 74.9284 100.984 74.8644C101.901 74.779 102.755 74.6617 103.544 74.5124ZM94.5841 80.4964C95.4161 80.4964 96.1521 80.6137 96.7921 80.8484C97.4535 81.0617 98.0295 81.4137 98.5201 81.9044L98.1681 82.2564C97.8908 82.0217 97.5815 81.851 97.2401 81.7444C96.8988 81.6164 96.5895 81.5524 96.3121 81.5524C95.3948 81.5524 94.7228 82.1924 94.2961 83.4724C93.8695 84.731 93.6561 86.6937 93.6561 89.3604C93.6561 91.2804 93.7628 92.7737 93.9761 93.8404C94.1895 94.8857 94.4881 95.6217 94.8721 96.0484C95.2561 96.4537 95.7041 96.6564 96.2161 96.6564C96.5361 96.6564 96.8561 96.603 97.1761 96.4964C97.4961 96.3897 97.7415 96.2937 97.9121 96.2084V96.8164C97.5068 97.2217 96.9948 97.5204 96.3761 97.7124C95.7788 97.9044 95.1068 98.0004 94.3601 98.0004C93.0801 98.0004 91.9281 97.7017 90.9041 97.1044C89.9015 96.4857 89.1121 95.5364 88.5361 94.2564C87.9601 92.9764 87.6721 91.3124 87.6721 89.2644C87.6721 87.2804 87.9495 85.6484 88.5041 84.3684C89.0588 83.067 89.8481 82.0964 90.8721 81.4564C91.9175 80.8164 93.1548 80.4964 94.5841 80.4964ZM107.736 80.4964C109.635 80.4964 111.096 81.1684 112.12 82.5124C113.144 83.835 113.656 85.9044 113.656 88.7204C113.656 90.4697 113.464 91.9417 113.08 93.1364C112.696 94.331 112.173 95.291 111.512 96.0164C110.851 96.7204 110.083 97.2324 109.208 97.5524C108.333 97.851 107.405 98.0004 106.424 98.0004C105.763 98.0004 105.101 97.915 104.44 97.7444C103.8 97.595 103.267 97.2964 102.84 96.8484L103.16 96.4324C103.331 96.667 103.555 96.827 103.832 96.9124C104.109 96.9977 104.365 97.0404 104.6 97.0404C105.347 97.0404 105.944 96.7524 106.392 96.1764C106.84 95.6004 107.16 94.7257 107.352 93.5524C107.565 92.379 107.672 90.907 107.672 89.1364C107.672 87.195 107.565 85.7017 107.352 84.6564C107.139 83.611 106.84 82.8857 106.456 82.4804C106.072 82.0537 105.613 81.8404 105.08 81.8404C104.803 81.8404 104.483 81.883 104.12 81.9684C103.757 82.0537 103.512 82.171 103.384 82.3204V81.7124C103.683 81.435 104.077 81.211 104.568 81.0404C105.08 80.8484 105.613 80.7097 106.168 80.6244C106.744 80.539 107.267 80.4964 107.736 80.4964ZM133.879 80.9764C133.794 81.979 133.73 82.939 133.687 83.8564C133.666 84.7737 133.655 85.4777 133.655 85.9684C133.655 86.4164 133.666 86.843 133.687 87.2484C133.709 87.6537 133.73 87.995 133.751 88.2724H133.015C132.653 86.6937 132.215 85.4244 131.703 84.4644C131.191 83.483 130.679 82.7684 130.167 82.3204C129.655 81.8724 129.186 81.6484 128.759 81.6484H127.831V94.2564C127.831 95.3017 128.077 96.0057 128.567 96.3684C129.058 96.7097 129.73 96.8804 130.583 96.8804V97.5524C130.007 97.531 129.207 97.5097 128.183 97.4884C127.181 97.4457 126.114 97.4244 124.983 97.4244C123.853 97.4244 122.765 97.4457 121.719 97.4884C120.695 97.5097 119.895 97.531 119.319 97.5524V96.8804C120.194 96.8804 120.866 96.763 121.335 96.5284C121.826 96.2724 122.071 95.6217 122.071 94.5764V81.6484H121.143C120.738 81.6484 120.269 81.8724 119.735 82.3204C119.223 82.7684 118.711 83.483 118.199 84.4644C117.709 85.4244 117.271 86.6937 116.887 88.2724H116.151C116.194 87.995 116.215 87.6537 116.215 87.2484C116.237 86.843 116.247 86.4164 116.247 85.9684C116.247 85.4777 116.226 84.7737 116.183 83.8564C116.162 82.939 116.109 81.979 116.023 80.9764H119.639C120.151 80.9764 120.898 80.9977 121.879 81.0404C122.861 81.083 123.874 81.1044 124.919 81.1044C125.986 81.1044 127.01 81.083 127.991 81.0404C128.994 80.9977 129.751 80.9764 130.263 80.9764H133.879ZM163.358 74.8964V75.5364C162.633 75.5577 162.078 75.643 161.694 75.7924C161.332 75.9204 161.086 76.1764 160.958 76.5604C160.83 76.923 160.766 77.499 160.766 78.2884V94.1604C160.766 94.9284 160.82 95.515 160.926 95.9204C161.054 96.3044 161.278 96.571 161.598 96.7204C161.918 96.8484 162.398 96.9124 163.038 96.9124H163.998C163.913 97.787 163.849 98.6297 163.806 99.4404C163.785 100.272 163.774 100.902 163.774 101.328C163.774 101.776 163.785 102.171 163.806 102.512C163.828 102.875 163.849 103.195 163.87 103.472H163.134C162.857 101.958 162.398 100.763 161.758 99.8884C161.14 99.035 160.404 98.427 159.55 98.0644C158.718 97.723 157.844 97.5524 156.926 97.5524H150.078C149.161 97.5524 148.276 97.723 147.422 98.0644C146.59 98.427 145.854 99.035 145.214 99.8884C144.596 100.763 144.148 101.958 143.87 103.472H143.134C143.177 103.195 143.198 102.875 143.198 102.512C143.22 102.171 143.23 101.776 143.23 101.328C143.23 100.902 143.209 100.272 143.166 99.4404C143.145 98.6297 143.092 97.787 143.006 96.9124H151.678C152.404 96.9124 152.948 96.8484 153.31 96.7204C153.694 96.571 153.95 96.3044 154.078 95.9204C154.206 95.515 154.27 94.9284 154.27 94.1604V78.2884C154.27 77.499 154.196 76.9124 154.046 76.5284C153.897 76.1444 153.673 75.8884 153.374 75.7604C153.097 75.611 152.745 75.5364 152.318 75.5364H151.902C151.646 75.5364 151.401 75.611 151.166 75.7604C150.932 75.8884 150.729 76.155 150.558 76.5604C150.409 76.9444 150.313 77.5204 150.27 78.2884C150.164 79.5044 150.057 80.8164 149.95 82.2244C149.865 83.6324 149.748 85.0617 149.598 86.5124C149.449 87.9417 149.236 89.3177 148.958 90.6404C148.702 91.9417 148.35 93.115 147.902 94.1604C147.454 95.1844 146.878 96.0057 146.174 96.6244C145.47 97.2217 144.606 97.5204 143.582 97.5204V96.9124C144.564 96.9124 145.385 96.5497 146.046 95.8244C146.708 95.0777 147.241 94.075 147.646 92.8164C148.052 91.5577 148.372 90.1284 148.606 88.5284C148.862 86.907 149.054 85.2217 149.182 83.4724C149.31 81.723 149.428 79.995 149.534 78.2884C149.598 77.5417 149.566 76.9764 149.438 76.5924C149.332 76.2084 149.076 75.9417 148.67 75.7924C148.286 75.643 147.71 75.5577 146.942 75.5364V74.8964C147.39 74.9177 147.924 74.939 148.542 74.9604C149.161 74.9817 149.726 74.9924 150.238 74.9924C150.729 74.9924 151.198 74.9817 151.646 74.9604C152.116 74.9177 152.585 74.8964 153.054 74.8964C153.865 74.8964 154.601 74.9177 155.262 74.9604C155.924 74.9817 156.713 74.9924 157.63 74.9924C158.249 74.9924 158.921 74.9924 159.646 74.9924C160.372 74.971 161.065 74.9604 161.726 74.9604C162.388 74.939 162.932 74.9177 163.358 74.8964ZM173.518 80.4964C175.182 80.4964 176.622 80.7844 177.838 81.3604C179.075 81.915 180.035 82.8324 180.718 84.1124C181.401 85.3924 181.742 87.1097 181.742 89.2644C181.742 91.419 181.401 93.1364 180.718 94.4164C180.035 95.6964 179.075 96.6137 177.838 97.1684C176.622 97.723 175.182 98.0004 173.518 98.0004C171.875 98.0004 170.435 97.723 169.198 97.1684C167.961 96.6137 167.001 95.6964 166.318 94.4164C165.635 93.1364 165.294 91.419 165.294 89.2644C165.294 87.1097 165.635 85.3924 166.318 84.1124C167.001 82.8324 167.961 81.915 169.198 81.3604C170.435 80.7844 171.875 80.4964 173.518 80.4964ZM173.518 81.1364C172.878 81.1364 172.345 81.7764 171.918 83.0564C171.491 84.3364 171.278 86.4057 171.278 89.2644C171.278 92.123 171.491 94.1924 171.918 95.4724C172.345 96.731 172.878 97.3604 173.518 97.3604C174.158 97.3604 174.691 96.731 175.118 95.4724C175.545 94.1924 175.758 92.123 175.758 89.2644C175.758 86.4057 175.545 84.3364 175.118 83.0564C174.691 81.7764 174.158 81.1364 173.518 81.1364ZM192.563 80.4964C193.502 80.4964 194.334 80.5924 195.059 80.7844C195.785 80.9764 196.361 81.2004 196.787 81.4564C197.363 81.7977 197.822 82.2564 198.163 82.8324C198.526 83.387 198.707 84.0377 198.707 84.7844C198.707 85.659 198.419 86.395 197.843 86.9924C197.267 87.5897 196.531 87.8884 195.635 87.8884C194.697 87.8884 193.971 87.6217 193.459 87.0884C192.947 86.555 192.691 85.8617 192.691 85.0084C192.691 84.1977 192.947 83.515 193.459 82.9604C193.993 82.3844 194.611 82.0004 195.315 81.8084C195.166 81.7017 194.985 81.6164 194.771 81.5524C194.579 81.467 194.334 81.4244 194.035 81.4244C193.267 81.4244 192.638 81.659 192.147 82.1284C191.678 82.5764 191.305 83.1737 191.027 83.9204C190.771 84.667 190.59 85.467 190.483 86.3204C190.377 87.1737 190.323 88.0057 190.323 88.8164C190.323 90.3097 190.526 91.4724 190.931 92.3044C191.337 93.1364 191.849 93.7124 192.467 94.0324C193.086 94.3524 193.705 94.5124 194.323 94.5124C194.622 94.5124 194.974 94.4697 195.379 94.3844C195.806 94.299 196.265 94.107 196.755 93.8084C197.246 93.4884 197.726 93.0084 198.195 92.3684L198.739 92.5604C198.483 93.4137 198.067 94.267 197.491 95.1204C196.937 95.9524 196.211 96.6457 195.315 97.2004C194.419 97.7337 193.331 98.0004 192.051 98.0004C190.622 98.0004 189.321 97.723 188.147 97.1684C186.995 96.6137 186.067 95.6964 185.363 94.4164C184.681 93.1364 184.339 91.419 184.339 89.2644C184.339 87.2164 184.702 85.5524 185.427 84.2724C186.153 82.971 187.134 82.0217 188.371 81.4244C189.63 80.8057 191.027 80.4964 192.563 80.4964ZM218.673 80.9764C218.588 81.979 218.524 82.939 218.481 83.8564C218.46 84.7737 218.449 85.4777 218.449 85.9684C218.449 86.4164 218.46 86.843 218.481 87.2484C218.502 87.6537 218.524 87.995 218.545 88.2724H217.809C217.446 86.6937 217.009 85.4244 216.497 84.4644C215.985 83.483 215.473 82.7684 214.961 82.3204C214.449 81.8724 213.98 81.6484 213.553 81.6484H212.625V94.2564C212.625 95.3017 212.87 96.0057 213.361 96.3684C213.852 96.7097 214.524 96.8804 215.377 96.8804V97.5524C214.801 97.531 214.001 97.5097 212.977 97.4884C211.974 97.4457 210.908 97.4244 209.777 97.4244C208.646 97.4244 207.558 97.4457 206.513 97.4884C205.489 97.5097 204.689 97.531 204.113 97.5524V96.8804C204.988 96.8804 205.66 96.763 206.129 96.5284C206.62 96.2724 206.865 95.6217 206.865 94.5764V81.6484H205.937C205.532 81.6484 205.062 81.8724 204.529 82.3204C204.017 82.7684 203.505 83.483 202.993 84.4644C202.502 85.4244 202.065 86.6937 201.681 88.2724H200.945C200.988 87.995 201.009 87.6537 201.009 87.2484C201.03 86.843 201.041 86.4164 201.041 85.9684C201.041 85.4777 201.02 84.7737 200.977 83.8564C200.956 82.939 200.902 81.979 200.817 80.9764H204.433C204.945 80.9764 205.692 80.9977 206.673 81.0404C207.654 81.083 208.668 81.1044 209.713 81.1044C210.78 81.1044 211.804 81.083 212.785 81.0404C213.788 80.9977 214.545 80.9764 215.057 80.9764H218.673ZM237.084 80.9444V81.6164C236.679 81.7657 236.284 82.0644 235.9 82.5124C235.538 82.939 235.175 83.675 234.812 84.7204L230.812 96.6244L229.18 100.368L221.5 83.4084C221.138 82.5977 220.796 82.0964 220.476 81.9044C220.156 81.7124 219.879 81.6164 219.644 81.6164V80.9444C220.498 81.0084 221.383 81.0617 222.3 81.1044C223.218 81.1257 224.071 81.1364 224.86 81.1364C225.863 81.1364 226.727 81.115 227.452 81.0724C228.178 81.0297 228.86 80.987 229.5 80.9444V81.6164C229.116 81.6164 228.754 81.6377 228.412 81.6804C228.071 81.723 227.826 81.8297 227.676 82.0004C227.527 82.1497 227.538 82.427 227.708 82.8324L231.804 92.5604L231.452 92.8164L232.988 88.1124C233.479 86.6617 233.682 85.467 233.596 84.5284C233.532 83.5897 233.287 82.8857 232.86 82.4164C232.434 81.9257 231.9 81.659 231.26 81.6164V80.9444C231.559 80.9657 231.922 80.987 232.348 81.0084C232.775 81.0297 233.191 81.051 233.596 81.0724C234.023 81.0724 234.364 81.0724 234.62 81.0724C235.004 81.0724 235.452 81.0617 235.964 81.0404C236.476 81.019 236.85 80.987 237.084 80.9444ZM230.812 96.6244L229.468 100.496C229.276 101.03 229.063 101.488 228.828 101.872C228.615 102.256 228.359 102.566 228.06 102.8C227.783 103.014 227.41 103.195 226.94 103.344C226.492 103.494 225.874 103.568 225.084 103.568C224.487 103.568 223.847 103.472 223.164 103.28C222.503 103.088 221.927 102.768 221.436 102.32C220.967 101.894 220.732 101.307 220.732 100.56C220.732 99.8137 221.02 99.2164 221.596 98.7684C222.172 98.3204 222.93 98.0964 223.868 98.0964C224.743 98.0964 225.436 98.2884 225.948 98.6724C226.482 99.0777 226.748 99.675 226.748 100.464C226.748 100.934 226.578 101.403 226.236 101.872C225.916 102.342 225.394 102.694 224.668 102.928C224.839 102.95 225.031 102.96 225.244 102.96C225.458 102.982 225.628 102.992 225.756 102.992C226.439 102.992 227.047 102.779 227.58 102.352C228.114 101.947 228.519 101.307 228.796 100.432L229.916 96.9444L230.812 96.6244ZM258.15 80.9764V81.6484C257.489 81.6484 257.019 81.8084 256.742 82.1284C256.486 82.4484 256.358 83.0564 256.358 83.9524V94.5764C256.358 95.4724 256.486 96.0804 256.742 96.4004C257.019 96.7204 257.489 96.8804 258.15 96.8804V97.5524C257.723 97.531 257.073 97.5097 256.198 97.4884C255.345 97.4457 254.502 97.4244 253.67 97.4244C252.774 97.4244 251.899 97.4457 251.046 97.4884C250.193 97.5097 249.553 97.531 249.126 97.5524V96.8804C249.681 96.8804 250.065 96.7204 250.278 96.4004C250.491 96.0804 250.598 95.4724 250.598 94.5764V83.9524C250.598 83.0564 250.491 82.4484 250.278 82.1284C250.065 81.8084 249.681 81.6484 249.126 81.6484H247.558C247.025 81.6484 246.641 81.8084 246.406 82.1284C246.193 82.4484 246.086 83.0564 246.086 83.9524V94.5764C246.086 95.4724 246.193 96.0804 246.406 96.4004C246.641 96.7204 247.025 96.8804 247.558 96.8804V97.5524C247.153 97.531 246.555 97.5097 245.766 97.4884C244.977 97.4457 244.166 97.4244 243.334 97.4244C242.438 97.4244 241.531 97.4457 240.614 97.4884C239.697 97.5097 239.003 97.531 238.534 97.5524V96.8804C239.195 96.8804 239.654 96.7204 239.91 96.4004C240.187 96.0804 240.326 95.4724 240.326 94.5764V83.9524C240.326 83.0564 240.187 82.4484 239.91 82.1284C239.654 81.8084 239.195 81.6484 238.534 81.6484V80.9764C238.961 80.9977 239.601 81.0297 240.454 81.0724C241.329 81.0937 242.182 81.1044 243.014 81.1044C243.718 81.1044 244.465 81.083 245.254 81.0404C246.065 80.9977 247.046 80.9764 248.198 80.9764C249.393 80.9764 250.353 80.9977 251.078 81.0404C251.825 81.083 252.582 81.1044 253.35 81.1044C254.246 81.1044 255.153 81.0937 256.07 81.0724C256.987 81.0297 257.681 80.9977 258.15 80.9764ZM268.687 80.4964C270.564 80.4964 272.036 81.051 273.103 82.1604C274.191 83.2484 274.735 85.083 274.735 87.6644H264.719L264.655 87.0564H270.063C270.084 86.011 270.041 85.051 269.935 84.1764C269.828 83.2804 269.657 82.5657 269.423 82.0324C269.188 81.499 268.868 81.2324 268.463 81.2324C267.887 81.2324 267.417 81.691 267.055 82.6084C266.692 83.5044 266.457 85.051 266.351 87.2484L266.479 87.5044C266.457 87.7177 266.447 87.931 266.447 88.1444C266.447 88.3577 266.447 88.5817 266.447 88.8164C266.447 90.3097 266.628 91.4724 266.991 92.3044C267.375 93.1364 267.844 93.7124 268.399 94.0324C268.975 94.3524 269.551 94.5124 270.127 94.5124C270.425 94.5124 270.777 94.4697 271.183 94.3844C271.609 94.299 272.068 94.107 272.559 93.8084C273.049 93.4884 273.529 93.0084 273.999 92.3684L274.543 92.5604C274.287 93.4137 273.871 94.267 273.295 95.1204C272.74 95.9524 272.015 96.6457 271.119 97.2004C270.223 97.7337 269.135 98.0004 267.855 98.0004C266.489 98.0004 265.241 97.723 264.111 97.1684C263.001 96.6137 262.116 95.6964 261.455 94.4164C260.793 93.1364 260.463 91.419 260.463 89.2644C260.463 87.2164 260.825 85.5524 261.551 84.2724C262.276 82.971 263.257 82.0217 264.495 81.4244C265.753 80.8057 267.151 80.4964 268.687 80.4964ZM296.492 80.9764V81.6484C295.831 81.6484 295.362 81.8084 295.084 82.1284C294.828 82.4484 294.7 83.0564 294.7 83.9524V94.5764C294.7 95.4724 294.828 96.0804 295.084 96.4004C295.362 96.7204 295.831 96.8804 296.492 96.8804V97.5524C296.066 97.531 295.415 97.5097 294.54 97.4884C293.687 97.4457 292.844 97.4244 292.012 97.4244C291.116 97.4244 290.242 97.4457 289.388 97.4884C288.535 97.5097 287.895 97.531 287.468 97.5524V96.8804C288.023 96.8804 288.407 96.7204 288.62 96.4004C288.834 96.0804 288.94 95.4724 288.94 94.5764V83.9524C288.94 83.0564 288.834 82.4484 288.62 82.1284C288.407 81.8084 288.023 81.6484 287.468 81.6484V80.9764C287.874 80.9977 288.471 81.0297 289.26 81.0724C290.05 81.0937 290.86 81.1044 291.692 81.1044C292.588 81.1044 293.495 81.0937 294.412 81.0724C295.33 81.0297 296.023 80.9977 296.492 80.9764ZM285.9 80.9764V81.6484C285.367 81.6484 284.983 81.8084 284.748 82.1284C284.535 82.4484 284.428 83.0564 284.428 83.9524V94.5764C284.428 95.4724 284.535 96.0804 284.748 96.4004C284.983 96.7204 285.367 96.8804 285.9 96.8804V97.5524C285.495 97.531 284.898 97.5097 284.108 97.4884C283.319 97.4457 282.508 97.4244 281.676 97.4244C280.78 97.4244 279.874 97.4457 278.956 97.4884C278.039 97.5097 277.346 97.531 276.876 97.5524V96.8804C277.538 96.8804 277.996 96.7204 278.252 96.4004C278.53 96.0804 278.668 95.4724 278.668 94.5764V83.9524C278.668 83.0564 278.53 82.4484 278.252 82.1284C277.996 81.8084 277.538 81.6484 276.876 81.6484V80.9764C277.303 80.9977 277.954 81.0297 278.828 81.0724C279.703 81.0937 280.546 81.1044 281.356 81.1044C282.252 81.1044 283.127 81.0937 283.98 81.0724C284.834 81.0297 285.474 80.9977 285.9 80.9764ZM291.116 88.6884V89.3284H282.092V88.6884H291.116ZM320.17 97.5524V96.9124C320.831 96.8697 321.322 96.7844 321.642 96.6564C321.962 96.5284 322.175 96.2724 322.282 95.8884C322.389 95.5044 322.442 94.9284 322.442 94.1604V78.2884C322.442 77.499 322.389 76.923 322.282 76.5604C322.175 76.1764 321.951 75.9204 321.61 75.7924C321.29 75.643 320.81 75.5577 320.17 75.5364V74.8964C320.831 74.9177 321.674 74.939 322.698 74.9604C323.743 74.9817 324.789 74.9924 325.834 74.9924C326.922 74.9924 327.946 74.9817 328.906 74.9604C329.866 74.939 330.634 74.9177 331.21 74.8964V75.5364C330.57 75.5577 330.079 75.643 329.738 75.7924C329.418 75.9204 329.205 76.1764 329.098 76.5604C328.991 76.923 328.938 77.499 328.938 78.2884V94.1604C328.938 94.9284 328.991 95.5044 329.098 95.8884C329.226 96.2724 329.45 96.5284 329.77 96.6564C330.09 96.7844 330.57 96.8697 331.21 96.9124V97.5524C330.634 97.5097 329.866 97.4884 328.906 97.4884C327.946 97.467 326.922 97.4564 325.834 97.4564C324.789 97.4564 323.743 97.467 322.698 97.4884C321.674 97.4884 320.831 97.5097 320.17 97.5524ZM306.474 97.5524V96.9124C307.135 96.8697 307.626 96.7844 307.946 96.6564C308.266 96.5284 308.479 96.2724 308.586 95.8884C308.693 95.5044 308.746 94.9284 308.746 94.1604V78.2884C308.746 77.499 308.693 76.923 308.586 76.5604C308.479 76.1764 308.255 75.9204 307.914 75.7924C307.594 75.643 307.114 75.5577 306.474 75.5364V74.8964C307.093 74.9177 307.903 74.939 308.906 74.9604C309.93 74.9817 311.018 74.9924 312.17 74.9924C313.173 74.9924 314.154 74.9817 315.114 74.9604C316.095 74.939 316.895 74.9177 317.514 74.8964V75.5364C316.874 75.5577 316.383 75.643 316.042 75.7924C315.722 75.9204 315.509 76.1764 315.402 76.5604C315.295 76.923 315.242 77.499 315.242 78.2884V94.1604C315.242 94.9284 315.295 95.5044 315.402 95.8884C315.53 96.2724 315.754 96.5284 316.074 96.6564C316.394 96.7844 316.874 96.8697 317.514 96.9124V97.5524C316.895 97.5097 316.095 97.4884 315.114 97.4884C314.154 97.467 313.173 97.4564 312.17 97.4564C311.018 97.4564 309.93 97.467 308.906 97.4884C307.903 97.4884 307.093 97.5097 306.474 97.5524ZM312.522 86.4804V85.8404H325.162V86.4804H312.522ZM337.523 97.7764C336.52 97.7764 335.699 97.5844 335.059 97.2004C334.419 96.8164 333.949 96.315 333.651 95.6964C333.373 95.0777 333.235 94.427 333.235 93.7444C333.235 92.8484 333.437 92.123 333.843 91.5684C334.248 90.9924 334.771 90.5337 335.411 90.1924C336.072 89.8297 336.765 89.531 337.491 89.2964C338.216 89.0617 338.899 88.8377 339.539 88.6244C340.2 88.3897 340.733 88.123 341.139 87.8244C341.544 87.5044 341.747 87.099 341.747 86.6084V83.7604C341.747 83.419 341.683 83.0457 341.555 82.6404C341.448 82.235 341.235 81.883 340.915 81.5844C340.595 81.2857 340.115 81.1364 339.475 81.1364C339.133 81.1364 338.803 81.1897 338.483 81.2964C338.184 81.3817 337.917 81.5097 337.683 81.6804C338.429 81.9577 338.973 82.3524 339.315 82.8644C339.656 83.355 339.827 83.899 339.827 84.4964C339.827 85.3497 339.528 86.0217 338.931 86.5124C338.333 87.003 337.629 87.2484 336.819 87.2484C335.965 87.2484 335.304 86.9817 334.835 86.4484C334.365 85.915 334.131 85.2537 334.131 84.4644C334.131 83.803 334.291 83.2484 334.611 82.8004C334.952 82.331 335.453 81.9044 336.115 81.5204C336.755 81.1577 337.523 80.9017 338.419 80.7524C339.315 80.5817 340.253 80.4964 341.235 80.4964C342.28 80.4964 343.251 80.603 344.147 80.8164C345.043 81.0084 345.811 81.435 346.451 82.0964C346.899 82.5657 347.187 83.1524 347.315 83.8564C347.443 84.5604 347.507 85.467 347.507 86.5764V95.1524C347.507 95.6857 347.539 96.0484 347.603 96.2404C347.688 96.4324 347.827 96.5284 348.019 96.5284C348.189 96.5284 348.349 96.475 348.499 96.3684C348.669 96.2617 348.829 96.155 348.979 96.0484L349.299 96.5924C348.829 96.9977 348.243 97.2964 347.539 97.4884C346.856 97.6804 346.131 97.7764 345.363 97.7764C344.445 97.7764 343.731 97.6697 343.219 97.4564C342.728 97.2217 342.376 96.923 342.163 96.5604C341.971 96.1764 341.864 95.771 341.843 95.3444C341.395 96.0484 340.829 96.635 340.147 97.1044C339.485 97.5524 338.611 97.7764 337.523 97.7764ZM340.563 95.2164C340.797 95.2164 341 95.1844 341.171 95.1204C341.363 95.035 341.555 94.8857 341.747 94.6724V87.9204C341.597 88.1977 341.395 88.475 341.139 88.7524C340.904 89.0084 340.659 89.275 340.403 89.5524C340.147 89.8297 339.901 90.1284 339.667 90.4484C339.453 90.7684 339.272 91.1417 339.123 91.5684C338.995 91.9737 338.931 92.4537 338.931 93.0084C338.931 93.819 339.08 94.395 339.379 94.7364C339.699 95.0564 340.093 95.2164 340.563 95.2164ZM366.969 80.4964C368.74 80.4964 370.137 80.859 371.161 81.5844C372.185 82.2884 372.697 83.291 372.697 84.5924C372.697 85.403 372.473 86.1284 372.025 86.7684C371.599 87.4084 371.033 88.0057 370.329 88.5604C369.625 89.0937 368.868 89.595 368.057 90.0644C367.247 90.5337 366.457 90.9924 365.689 91.4404C364.943 91.8884 364.292 92.3577 363.737 92.8484H370.969C371.844 92.8484 372.399 92.7524 372.633 92.5604C372.868 92.3684 373.028 92.027 373.113 91.5364H373.849C373.849 93.1577 373.86 94.427 373.881 95.3444C373.903 96.2404 373.935 97.0297 373.977 97.7124C373.785 97.6697 373.433 97.6377 372.921 97.6164C372.409 97.595 371.823 97.5737 371.161 97.5524C370.5 97.5524 369.849 97.5524 369.209 97.5524H358.681V96.8804C359.257 96.3044 359.972 95.643 360.825 94.8964C361.7 94.1497 362.553 93.3177 363.385 92.4004C364.239 91.4617 364.953 90.4484 365.529 89.3604C366.105 88.2724 366.393 87.1097 366.393 85.8724C366.393 84.7844 366.159 83.995 365.689 83.5044C365.22 82.9924 364.505 82.7364 363.545 82.7364C362.607 82.7364 361.796 82.9284 361.113 83.3124C360.431 83.675 359.812 84.1977 359.257 84.8804L358.713 84.4964C359.225 83.7497 359.833 83.0777 360.537 82.4804C361.263 81.8617 362.148 81.3817 363.193 81.0404C364.239 80.6777 365.497 80.4964 366.969 80.4964ZM376.529 80.8164C376.721 80.859 377.073 80.891 377.585 80.9124C378.097 80.9337 378.684 80.955 379.345 80.9764C380.006 80.9764 380.657 80.9764 381.297 80.9764H391.601V81.6484C391.196 82.523 390.673 83.5044 390.033 84.5924C389.414 85.659 388.785 86.8324 388.145 88.1124C387.505 89.371 386.972 90.7364 386.545 92.2084C386.118 93.659 385.905 95.2057 385.905 96.8484C385.905 96.8484 385.916 97.0297 385.937 97.3924C385.98 97.755 386.012 98.139 386.033 98.5444C386.054 98.971 386.065 99.2804 386.065 99.4724C386.065 100.155 385.83 100.795 385.361 101.392C384.913 101.99 384.177 102.288 383.153 102.288C382.172 102.288 381.436 101.968 380.945 101.328C380.476 100.688 380.241 99.8457 380.241 98.8004C380.241 97.7977 380.465 96.7844 380.913 95.7604C381.382 94.7364 381.99 93.7124 382.737 92.6884C383.484 91.6644 384.273 90.6724 385.105 89.7124C385.958 88.731 386.78 87.803 387.569 86.9284C388.38 86.0537 389.052 85.2537 389.585 84.5284L388.977 85.6804H379.537C378.662 85.6804 378.108 85.7764 377.873 85.9684C377.638 86.1604 377.478 86.5017 377.393 86.9924H376.657C376.657 85.371 376.646 84.1124 376.625 83.2164C376.604 82.299 376.572 81.499 376.529 80.8164ZM401.466 80.4964C404.005 80.4964 405.999 81.2964 407.45 82.8964C408.901 84.475 409.626 86.715 409.626 89.6164C409.626 91.3017 409.327 92.8164 408.73 94.1604C408.154 95.483 407.365 96.635 406.362 97.6164C405.381 98.5977 404.282 99.419 403.066 100.08C401.871 100.763 400.645 101.296 399.386 101.68C398.149 102.086 396.986 102.352 395.898 102.48L395.77 101.84C396.751 101.563 397.701 101.19 398.618 100.72C399.557 100.251 400.399 99.5684 401.146 98.6724C401.914 97.7977 402.522 96.6137 402.97 95.1204C403.418 93.6057 403.642 91.6644 403.642 89.2964C403.642 87.2484 403.514 85.6377 403.258 84.4644C403.002 83.2697 402.682 82.4164 402.298 81.9044C401.914 81.3924 401.519 81.1364 401.114 81.1364C400.73 81.1364 400.367 81.3604 400.026 81.8084C399.685 82.2564 399.397 82.9817 399.162 83.9844C398.949 84.9657 398.842 86.267 398.842 87.8884C398.842 89.403 398.938 90.6297 399.13 91.5684C399.343 92.4857 399.621 93.147 399.962 93.5524C400.303 93.9577 400.677 94.1604 401.082 94.1604C401.381 94.1604 401.711 94.0537 402.074 93.8404C402.458 93.627 402.81 93.2857 403.13 92.8164C403.471 92.347 403.706 91.7284 403.834 90.9604L404.122 91.2804C404.015 92.1977 403.738 92.9337 403.29 93.4884C402.842 94.043 402.287 94.4484 401.626 94.7044C400.965 94.9604 400.25 95.0884 399.482 95.0884C398.266 95.0884 397.157 94.811 396.154 94.2564C395.151 93.6804 394.351 92.8804 393.754 91.8564C393.157 90.811 392.858 89.5844 392.858 88.1764C392.858 86.5124 393.253 85.115 394.042 83.9844C394.853 82.8324 395.909 81.9684 397.21 81.3924C398.511 80.795 399.93 80.4964 401.466 80.4964ZM441.52 74.8964V75.5364C440.88 75.5577 440.4 75.643 440.08 75.7924C439.76 75.9204 439.536 76.1764 439.408 76.5604C439.301 76.923 439.248 77.499 439.248 78.2884V94.1604C439.248 94.9284 439.301 95.5044 439.408 95.8884C439.515 96.2724 439.728 96.5284 440.048 96.6564C440.389 96.7844 440.88 96.8697 441.52 96.9124V97.5524C440.923 97.5097 440.112 97.4884 439.088 97.4884C438.064 97.467 436.976 97.4564 435.824 97.4564C434.843 97.4564 433.861 97.467 432.88 97.4884C431.899 97.4884 431.099 97.5097 430.48 97.5524V96.9124C431.12 96.8697 431.6 96.7844 431.92 96.6564C432.261 96.5284 432.485 96.2724 432.592 95.8884C432.699 95.5044 432.752 94.9284 432.752 94.1604V78.2884C432.752 77.179 432.645 76.443 432.432 76.0804C432.219 75.7177 431.749 75.5364 431.024 75.5364C429.893 75.5364 429.093 76.0057 428.624 76.9444C428.176 77.8617 427.952 79.163 427.952 80.8484C427.952 81.8297 428.048 82.7257 428.24 83.5364C428.453 84.3257 428.837 84.9657 429.392 85.4564C429.968 85.9257 430.8 86.1604 431.888 86.1604H434.64C434.64 86.1604 434.64 86.267 434.64 86.4804C434.64 86.6937 434.64 86.8004 434.64 86.8004H431.568C429.52 86.8004 427.824 86.651 426.48 86.3524C425.157 86.0324 424.112 85.6057 423.344 85.0724C422.576 84.5177 422.032 83.8777 421.712 83.1524C421.392 82.427 421.232 81.6484 421.232 80.8164C421.232 79.4724 421.584 78.3737 422.288 77.5204C422.992 76.6457 424.059 75.995 425.488 75.5684C426.917 75.1417 428.709 74.9284 430.864 74.9284C431.291 74.9284 431.984 74.939 432.944 74.9604C433.925 74.9817 434.949 74.9924 436.016 74.9924C437.04 74.9924 438.064 74.9817 439.088 74.9604C440.112 74.939 440.923 74.9177 441.52 74.8964ZM434.512 86.2564L434.448 86.8004H430.992C430.459 86.8004 430.021 87.003 429.68 87.4084C429.36 87.7924 429.104 88.3257 428.912 89.0084C428.72 89.691 428.56 90.4697 428.432 91.3444L427.952 94.5444C427.76 95.8457 427.237 96.7524 426.384 97.2644C425.552 97.755 424.453 98.0004 423.088 98.0004C422.149 98.0004 421.285 97.8724 420.496 97.6164C419.728 97.3817 419.035 96.9337 418.416 96.2724L418.832 95.8564C418.981 96.0057 419.131 96.1124 419.28 96.1764C419.429 96.2404 419.611 96.2724 419.824 96.2724C420.187 96.2724 420.475 96.123 420.688 95.8244C420.923 95.5257 421.115 94.9817 421.264 94.1924L421.872 90.8644C422.128 89.4777 422.853 88.4964 424.048 87.9204C425.243 87.3444 426.885 86.939 428.976 86.7044C429.381 86.6404 429.787 86.587 430.192 86.5444C430.597 86.5017 431.131 86.459 431.792 86.4164C432.475 86.3524 433.381 86.299 434.512 86.2564ZM451.362 80.4964C452.535 80.4964 453.591 80.635 454.53 80.9124C455.469 81.1684 456.215 81.5737 456.77 82.1284C457.325 82.683 457.602 83.4084 457.602 84.3044C457.602 85.307 457.25 86.107 456.546 86.7044C455.863 87.3017 454.978 87.7497 453.89 88.0484C452.802 88.347 451.661 88.5604 450.466 88.6884C452.066 88.6884 453.463 88.8164 454.658 89.0724C455.874 89.3284 456.813 89.7657 457.474 90.3844C458.157 90.9817 458.498 91.803 458.498 92.8484C458.498 93.8724 458.157 94.779 457.474 95.5684C456.813 96.3364 455.831 96.9337 454.53 97.3604C453.25 97.787 451.671 98.0004 449.794 98.0004C448.877 98.0004 448.034 97.9257 447.266 97.7764C446.519 97.6484 445.847 97.403 445.25 97.0404C444.717 96.699 444.311 96.315 444.034 95.8884C443.778 95.4404 443.65 94.9497 443.65 94.4164C443.65 93.6697 443.895 93.051 444.386 92.5604C444.898 92.0484 445.634 91.7924 446.594 91.7924C447.49 91.7924 448.226 92.027 448.802 92.4964C449.378 92.9657 449.666 93.595 449.666 94.3844C449.666 95.0884 449.431 95.675 448.962 96.1444C448.514 96.5924 447.981 96.9017 447.362 97.0724C447.511 97.115 447.693 97.1684 447.906 97.2324C448.141 97.275 448.429 97.2964 448.77 97.2964C449.901 97.2964 450.829 96.9657 451.554 96.3044C452.301 95.6217 452.674 94.6084 452.674 93.2644C452.674 92.3897 452.471 91.5364 452.066 90.7044C451.661 89.8724 450.957 89.2964 449.954 88.9764C449.741 89.083 449.517 89.179 449.282 89.2644C449.069 89.3497 448.845 89.3924 448.61 89.3924C448.141 89.3924 447.906 89.211 447.906 88.8484C447.906 88.507 448.151 88.3364 448.642 88.3364C448.855 88.3364 449.079 88.3577 449.314 88.4004C449.549 88.443 449.773 88.4857 449.986 88.5284C450.69 88.1017 451.17 87.579 451.426 86.9604C451.703 86.3204 451.842 85.6057 451.842 84.8164C451.842 83.7497 451.629 82.971 451.202 82.4804C450.797 81.9897 450.178 81.7444 449.346 81.7444C448.493 81.7444 447.789 81.9684 447.234 82.4164C446.701 82.8644 446.285 83.4617 445.986 84.2084C445.709 84.9337 445.527 85.7444 445.442 86.6404H444.706C444.706 85.4244 444.695 84.443 444.674 83.6964C444.674 82.9497 444.663 82.363 444.642 81.9364C444.621 81.4884 444.589 81.0937 444.546 80.7524H445.282C445.346 81.2217 445.421 81.5737 445.506 81.8084C445.613 82.043 445.773 82.1604 445.986 82.1604C446.114 82.1604 446.263 82.107 446.434 82.0004C446.626 81.8937 446.839 81.7657 447.074 81.6164C447.693 81.211 448.333 80.923 448.994 80.7524C449.655 80.5817 450.445 80.4964 451.362 80.4964ZM469.727 80.9764V81.6484C469.066 81.6484 468.596 81.8084 468.319 82.1284C468.063 82.4484 467.935 83.0564 467.935 83.9524V95.6964C467.935 96.2084 468.01 96.539 468.159 96.6884C468.33 96.8164 468.66 96.8804 469.151 96.8804C469.962 96.8804 470.58 96.6884 471.007 96.3044C471.455 95.9204 471.754 95.419 471.903 94.8004C472.074 94.1604 472.159 93.499 472.159 92.8164C472.159 91.3017 471.85 90.2244 471.231 89.5844C470.612 88.9444 469.546 88.6244 468.031 88.6244C467.69 88.6244 467.327 88.635 466.943 88.6564C466.559 88.6777 466.25 88.6884 466.015 88.6884L465.951 87.9844C466.868 87.9844 467.679 87.9737 468.383 87.9524C469.087 87.931 469.684 87.9204 470.175 87.9204C472.906 87.9204 474.9 88.3577 476.159 89.2324C477.418 90.107 478.047 91.1844 478.047 92.4644C478.047 93.275 477.77 94.075 477.215 94.8644C476.682 95.6324 475.796 96.2724 474.559 96.7844C473.322 97.2964 471.668 97.5524 469.599 97.5524C468.916 97.5524 468.223 97.531 467.519 97.4884C466.836 97.4457 466.036 97.4244 465.119 97.4244C464.33 97.4244 463.498 97.4457 462.623 97.4884C461.77 97.5097 461.13 97.531 460.703 97.5524V96.8804C461.258 96.8804 461.642 96.7204 461.855 96.4004C462.068 96.0804 462.175 95.4724 462.175 94.5764V83.9524C462.175 83.0564 462.068 82.4484 461.855 82.1284C461.642 81.8084 461.258 81.6484 460.703 81.6484V80.9764C461.108 80.9977 461.706 81.0297 462.495 81.0724C463.284 81.0937 464.106 81.1044 464.959 81.1044C465.834 81.1044 466.73 81.0937 467.647 81.0724C468.564 81.0297 469.258 80.9977 469.727 80.9764ZM487.295 80.9764V81.6484C486.634 81.6484 486.164 81.8084 485.887 82.1284C485.631 82.4484 485.503 83.0564 485.503 83.9524V94.5764C485.503 95.4724 485.631 96.0804 485.887 96.4004C486.164 96.7204 486.634 96.8804 487.295 96.8804V97.5524C486.826 97.531 486.132 97.5097 485.215 97.4884C484.298 97.4457 483.391 97.4244 482.495 97.4244C481.663 97.4244 480.799 97.4457 479.903 97.4884C479.028 97.5097 478.378 97.531 477.951 97.5524V96.8804C478.612 96.8804 479.071 96.7204 479.327 96.4004C479.604 96.0804 479.743 95.4724 479.743 94.5764V83.9524C479.743 83.0564 479.604 82.4484 479.327 82.1284C479.071 81.8084 478.612 81.6484 477.951 81.6484V80.9764C478.42 80.9977 479.124 81.0297 480.063 81.0724C481.002 81.0937 481.919 81.1044 482.815 81.1044C483.647 81.1044 484.49 81.0937 485.343 81.0724C486.218 81.0297 486.868 80.9977 487.295 80.9764ZM504.443 80.4964C505.702 80.4964 506.619 80.7844 507.195 81.3604C507.792 81.9364 508.091 82.6724 508.091 83.5684C508.091 84.507 507.814 85.2324 507.259 85.7444C506.726 86.2564 506.054 86.5124 505.243 86.5124C504.816 86.5124 504.358 86.4377 503.867 86.2884C503.398 86.1177 502.992 85.8404 502.651 85.4564C502.31 85.0724 502.139 84.571 502.139 83.9524C502.139 83.4617 502.278 82.9604 502.555 82.4484C502.854 81.9364 503.334 81.5097 503.995 81.1684C503.27 81.211 502.726 81.3924 502.363 81.7124C502.022 82.0324 501.766 82.5124 501.595 83.1524C501.424 83.771 501.211 84.571 500.955 85.5524C500.806 86.1497 500.635 86.683 500.443 87.1524C500.272 87.6004 500.016 87.9737 499.675 88.2724C499.355 88.571 498.886 88.8057 498.267 88.9764L498.299 88.7524C500.134 88.4537 501.606 88.4644 502.715 88.7844C503.824 89.1044 504.656 89.5844 505.211 90.2244C505.702 90.8004 506.054 91.4937 506.267 92.3044C506.502 93.115 506.832 94.0537 507.259 95.1204C507.494 95.675 507.707 96.091 507.899 96.3684C508.112 96.6457 508.443 96.8164 508.891 96.8804V97.5524C508.464 97.6164 508.038 97.659 507.611 97.6804C507.206 97.723 506.8 97.7444 506.395 97.7444C504.987 97.7444 503.824 97.499 502.907 97.0084C502.011 96.4964 501.414 95.5684 501.115 94.2244C501.072 93.9684 500.976 93.595 500.827 93.1044C500.699 92.5924 500.518 92.0697 500.283 91.5364C500.07 91.003 499.803 90.5657 499.483 90.2244C499.206 89.9257 498.832 89.691 498.363 89.5204C497.915 89.3284 497.36 89.275 496.699 89.3604V88.7844C497.595 88.7204 498.267 88.5604 498.715 88.3044C499.184 88.0484 499.536 87.6537 499.771 87.1204C500.006 86.587 500.23 85.883 500.443 85.0084C500.699 84.0057 500.955 83.1737 501.211 82.5124C501.467 81.8297 501.84 81.3284 502.331 81.0084C502.822 80.667 503.526 80.4964 504.443 80.4964ZM498.619 80.9764V81.6484C497.958 81.6484 497.488 81.8084 497.211 82.1284C496.955 82.4484 496.827 83.0564 496.827 83.9524V94.5764C496.827 95.4724 496.955 96.0804 497.211 96.4004C497.488 96.7204 497.958 96.8804 498.619 96.8804V97.5524C498.15 97.531 497.456 97.5097 496.539 97.4884C495.622 97.4457 494.726 97.4244 493.851 97.4244C492.998 97.4244 492.123 97.4457 491.227 97.4884C490.352 97.5097 489.702 97.531 489.275 97.5524V96.8804C489.936 96.8804 490.395 96.7204 490.651 96.4004C490.928 96.0804 491.067 95.4724 491.067 94.5764V83.9524C491.067 83.0564 490.928 82.4484 490.651 82.1284C490.395 81.8084 489.936 81.6484 489.275 81.6484V80.9764C489.744 80.9977 490.448 81.0297 491.387 81.0724C492.347 81.0937 493.254 81.1044 494.107 81.1044C494.982 81.1044 495.846 81.0937 496.699 81.0724C497.552 81.0297 498.192 80.9977 498.619 80.9764ZM514.766 97.7764C513.764 97.7764 512.942 97.5844 512.302 97.2004C511.662 96.8164 511.193 96.315 510.894 95.6964C510.617 95.0777 510.478 94.427 510.478 93.7444C510.478 92.8484 510.681 92.123 511.086 91.5684C511.492 90.9924 512.014 90.5337 512.654 90.1924C513.316 89.8297 514.009 89.531 514.734 89.2964C515.46 89.0617 516.142 88.8377 516.782 88.6244C517.444 88.3897 517.977 88.123 518.382 87.8244C518.788 87.5044 518.99 87.099 518.99 86.6084V83.7604C518.99 83.419 518.926 83.0457 518.798 82.6404C518.692 82.235 518.478 81.883 518.158 81.5844C517.838 81.2857 517.358 81.1364 516.718 81.1364C516.377 81.1364 516.046 81.1897 515.726 81.2964C515.428 81.3817 515.161 81.5097 514.926 81.6804C515.673 81.9577 516.217 82.3524 516.558 82.8644C516.9 83.355 517.07 83.899 517.07 84.4964C517.07 85.3497 516.772 86.0217 516.174 86.5124C515.577 87.003 514.873 87.2484 514.062 87.2484C513.209 87.2484 512.548 86.9817 512.078 86.4484C511.609 85.915 511.374 85.2537 511.374 84.4644C511.374 83.803 511.534 83.2484 511.854 82.8004C512.196 82.331 512.697 81.9044 513.358 81.5204C513.998 81.1577 514.766 80.9017 515.662 80.7524C516.558 80.5817 517.497 80.4964 518.478 80.4964C519.524 80.4964 520.494 80.603 521.39 80.8164C522.286 81.0084 523.054 81.435 523.694 82.0964C524.142 82.5657 524.43 83.1524 524.558 83.8564C524.686 84.5604 524.75 85.467 524.75 86.5764V95.1524C524.75 95.6857 524.782 96.0484 524.846 96.2404C524.932 96.4324 525.07 96.5284 525.262 96.5284C525.433 96.5284 525.593 96.475 525.742 96.3684C525.913 96.2617 526.073 96.155 526.222 96.0484L526.542 96.5924C526.073 96.9977 525.486 97.2964 524.782 97.4884C524.1 97.6804 523.374 97.7764 522.606 97.7764C521.689 97.7764 520.974 97.6697 520.462 97.4564C519.972 97.2217 519.62 96.923 519.406 96.5604C519.214 96.1764 519.108 95.771 519.086 95.3444C518.638 96.0484 518.073 96.635 517.39 97.1044C516.729 97.5524 515.854 97.7764 514.766 97.7764ZM517.806 95.2164C518.041 95.2164 518.244 95.1844 518.414 95.1204C518.606 95.035 518.798 94.8857 518.99 94.6724V87.9204C518.841 88.1977 518.638 88.475 518.382 88.7524C518.148 89.0084 517.902 89.275 517.646 89.5524C517.39 89.8297 517.145 90.1284 516.91 90.4484C516.697 90.7684 516.516 91.1417 516.366 91.5684C516.238 91.9737 516.174 92.4537 516.174 93.0084C516.174 93.819 516.324 94.395 516.622 94.7364C516.942 95.0564 517.337 95.2164 517.806 95.2164ZM535.99 80.9444V81.6164C535.564 81.6164 535.265 81.7124 535.094 81.9044C534.945 82.0964 534.977 82.363 535.19 82.7044L543.542 95.2804C543.734 95.5577 543.969 95.8777 544.246 96.2404C544.545 96.603 544.865 96.8164 545.206 96.8804V97.5524C544.801 97.531 544.204 97.5097 543.414 97.4884C542.625 97.4457 541.825 97.4244 541.014 97.4244C540.161 97.4244 539.318 97.4457 538.486 97.4884C537.654 97.5097 537.025 97.531 536.598 97.5524V96.8804C537.025 96.8804 537.313 96.7844 537.462 96.5924C537.633 96.4004 537.612 96.1337 537.398 95.7924L529.046 83.2164C528.748 82.747 528.47 82.3844 528.214 82.1284C527.98 81.851 527.702 81.6804 527.382 81.6164V80.9444C527.852 80.9657 528.545 80.9977 529.462 81.0404C530.38 81.0617 531.297 81.0724 532.214 81.0724C532.961 81.0724 533.686 81.0617 534.39 81.0404C535.094 80.9977 535.628 80.9657 535.99 80.9444ZM534.198 90.2564C534.198 90.2564 534.209 90.3204 534.23 90.4484C534.252 90.555 534.273 90.6724 534.294 90.8004C534.316 90.907 534.326 90.9604 534.326 90.9604L533.974 91.4084C533.27 92.3044 532.876 93.1684 532.79 94.0004C532.705 94.811 532.876 95.483 533.302 96.0164C533.729 96.5497 534.316 96.8484 535.062 96.9124V97.5524C534.636 97.531 534.081 97.5204 533.398 97.5204C532.716 97.499 532.044 97.4884 531.382 97.4884C530.742 97.467 530.23 97.4564 529.846 97.4564C529.377 97.4564 528.972 97.467 528.63 97.4884C528.31 97.4884 528.001 97.5097 527.702 97.5524V96.9124C528.257 96.635 528.758 96.2937 529.206 95.8884C529.676 95.4617 530.177 94.9284 530.71 94.2884L534.198 90.2564ZM544.086 80.9444V81.5844C543.617 81.7977 543.126 82.1284 542.614 82.5764C542.124 83.0244 541.612 83.5684 541.078 84.2084L537.622 88.2084C537.622 88.2084 537.612 88.155 537.59 88.0484C537.569 87.9204 537.548 87.803 537.526 87.6964C537.505 87.5684 537.494 87.5044 537.494 87.5044L538.518 86.2564C539.158 85.467 539.542 84.731 539.67 84.0484C539.798 83.3657 539.692 82.8004 539.35 82.3524C539.009 81.9044 538.454 81.6484 537.686 81.5844V80.9444C538.348 80.9657 539.084 80.987 539.894 81.0084C540.705 81.0297 541.388 81.0404 541.942 81.0404C542.412 81.0404 542.817 81.0297 543.158 81.0084C543.5 80.987 543.809 80.9657 544.086 80.9444Z" fill="black"/>
</svg>
